<svg width="40" height="40" viewBox="0 0 40 40" fill="none" xmlns="http://www.w3.org/2000/svg">
<g id="Group 37967">
<g id="Group 37966">
<path id="Vector" d="M22.805 13.016H16.779C16.4926 13.016 16.218 12.9023 16.0155 12.6998C15.813 12.4973 15.6992 12.2226 15.6992 11.9362C15.6992 11.6499 15.813 11.3752 16.0155 11.1727C16.218 10.9702 16.4926 10.8564 16.779 10.8564H22.805C23.0914 10.8564 23.366 10.9702 23.5685 11.1727C23.771 11.3752 23.8848 11.6499 23.8848 11.9362C23.8848 12.2226 23.771 12.4973 23.5685 12.6998C23.366 12.9023 23.0914 13.016 22.805 13.016ZM16.779 11.5821C16.6851 11.5821 16.595 11.6194 16.5286 11.6858C16.4622 11.7523 16.4249 11.8423 16.4249 11.9362C16.4249 12.0302 16.4622 12.1202 16.5286 12.1867C16.595 12.2531 16.6851 12.2904 16.779 12.2904H22.805C22.8989 12.2904 22.989 12.2531 23.0554 12.1867C23.1218 12.1202 23.1591 12.0302 23.1591 11.9362C23.1591 11.8423 23.1218 11.7523 23.0554 11.6858C22.989 11.6194 22.8989 11.5821 22.805 11.5821H16.779Z" fill="#CCD3DD"/>
<path id="Vector (Stroke)" fill-rule="evenodd" clip-rule="evenodd" d="M22.8052 13.3162H16.7792C16.4133 13.3162 16.0623 13.1709 15.8035 12.9121C15.5448 12.6533 15.3994 12.3024 15.3994 11.9364C15.3994 11.5705 15.5448 11.2195 15.8035 10.9608C16.0623 10.702 16.4133 10.5566 16.7792 10.5566H22.8052C23.1711 10.5566 23.5221 10.702 23.7809 10.9608C24.0396 11.2195 24.185 11.5705 24.185 11.9364C24.185 12.3024 24.0396 12.6533 23.7809 12.9121C23.5221 13.1709 23.1711 13.3162 22.8052 13.3162ZM16.7792 11.8823C16.7649 11.8823 16.7511 11.888 16.7409 11.8982C16.7308 11.9083 16.7251 11.9221 16.7251 11.9364C16.7251 11.9508 16.7308 11.9646 16.7409 11.9747C16.7511 11.9849 16.7649 11.9906 16.7792 11.9906H22.8052C22.8196 11.9906 22.8333 11.9849 22.8435 11.9747C22.8536 11.9646 22.8593 11.9508 22.8593 11.9364C22.8593 11.9221 22.8536 11.9083 22.8435 11.8982C22.8333 11.888 22.8196 11.8823 22.8052 11.8823H16.7792ZM16.7792 13.0162H22.8052C23.0916 13.0162 23.3662 12.9025 23.5687 12.7C23.7712 12.4975 23.885 12.2228 23.885 11.9364C23.885 11.6501 23.7712 11.3754 23.5687 11.1729C23.3662 10.9704 23.0916 10.8566 22.8052 10.8566H16.7792C16.4928 10.8566 16.2182 10.9704 16.0157 11.1729C15.8132 11.3754 15.6994 11.6501 15.6994 11.9364C15.6994 12.2228 15.8132 12.4975 16.0157 12.7C16.2182 12.9025 16.4928 13.0162 16.7792 13.0162ZM16.5288 11.686C16.5952 11.6196 16.6853 11.5823 16.7792 11.5823H22.8052C22.8991 11.5823 22.9892 11.6196 23.0556 11.686C23.122 11.7524 23.1593 11.8425 23.1593 11.9364C23.1593 12.0304 23.122 12.1204 23.0556 12.1868C22.9892 12.2533 22.8991 12.2906 22.8052 12.2906H16.7792C16.6853 12.2906 16.5952 12.2533 16.5288 12.1868C16.4624 12.1204 16.4251 12.0304 16.4251 11.9364C16.4251 11.8425 16.4624 11.7524 16.5288 11.686Z" fill="#CCD3DD"/>
<path id="Vector_2" d="M19.7922 31.6268C19.485 31.6257 19.1829 31.5485 18.9128 31.4022C18.6427 31.2559 18.413 31.0449 18.2443 30.7883C18.0756 30.5316 17.973 30.2371 17.9458 29.9311C17.9186 29.6251 17.9675 29.3172 18.0883 29.0347L19.8299 25L21.4932 29.087C21.6242 29.406 21.6627 29.7555 21.6041 30.0954C21.5456 30.4353 21.3925 30.7518 21.1622 31.0086C20.9923 31.1994 20.7846 31.3529 20.5523 31.4594C20.3199 31.5658 20.068 31.6228 19.8125 31.6268H19.7922ZM19.8183 26.8722L18.753 29.325C18.6648 29.5258 18.6381 29.7483 18.6764 29.9643C18.7146 30.1802 18.816 30.38 18.9678 30.5383C19.0753 30.6539 19.2056 30.7458 19.3506 30.8083C19.4955 30.8707 19.6518 30.9024 19.8096 30.9012C19.9647 30.9 20.1179 30.866 20.2589 30.8015C20.4 30.737 20.5258 30.6433 20.6282 30.5267C20.7673 30.3716 20.8598 30.1803 20.8953 29.975C20.9307 29.7696 20.9075 29.5584 20.8284 29.3656L19.8183 26.8722Z" fill="#CCD3DD"/>
<path id="Vector (Stroke)_2" fill-rule="evenodd" clip-rule="evenodd" d="M19.7913 31.9273C19.4345 31.926 19.0837 31.8364 18.7701 31.6664C18.4564 31.4965 18.1897 31.2516 17.9938 30.9535C17.7979 30.6554 17.6788 30.3135 17.6472 29.9582C17.6156 29.6029 17.6724 29.2453 17.8127 28.9173L17.8131 28.9163L19.8383 24.2246L21.7709 28.9735C21.7708 28.9733 21.7709 28.9736 21.7709 28.9735C21.9232 29.3445 21.9681 29.7515 21.9 30.1468C21.8319 30.5422 21.6537 30.9105 21.3858 31.2093C21.1884 31.4308 20.9472 31.609 20.6774 31.7326C20.4073 31.8563 20.1145 31.9226 19.8174 31.9273L19.8127 31.9274L19.7913 31.9273ZM19.7924 31.6273C19.4852 31.6262 19.1831 31.549 18.913 31.4027C18.6429 31.2563 18.4132 31.0454 18.2445 30.7887C18.0758 30.532 17.9732 30.2376 17.946 29.9316C17.9188 29.6256 17.9677 29.3177 18.0885 29.0352L19.8301 25.0005L21.4934 29.0875C21.6244 29.4065 21.6629 29.756 21.6043 30.0959C21.5458 30.4357 21.3927 30.7522 21.1624 31.009C20.9925 31.1999 20.7848 31.3534 20.5525 31.4598C20.3201 31.5663 20.0682 31.6233 19.8127 31.6273H19.7924ZM20.8286 29.3661L19.8185 26.8727L18.7532 29.3255C18.665 29.5263 18.6383 29.7488 18.6766 29.9647C18.7148 30.1807 18.8162 30.3805 18.968 30.5388C19.0755 30.6544 19.2058 30.7463 19.3507 30.8087C19.4957 30.8712 19.652 30.9028 19.8098 30.9016C19.9649 30.9005 20.118 30.8665 20.2591 30.802C20.4002 30.7374 20.526 30.6438 20.6283 30.5272C20.7675 30.372 20.86 30.1808 20.8955 29.9755C20.9309 29.7701 20.9077 29.5589 20.8286 29.3661ZM19.8089 27.6479L20.5506 29.4788L20.5511 29.48C20.6088 29.6206 20.6257 29.7747 20.5998 29.9245C20.574 30.0743 20.5065 30.2137 20.405 30.3269L20.4029 30.3293C20.3284 30.4141 20.2369 30.4822 20.1343 30.5292C20.0317 30.5761 19.9203 30.6008 19.8075 30.6017C19.6913 30.6025 19.5762 30.5792 19.4695 30.5332C19.3628 30.4872 19.2668 30.4196 19.1877 30.3345L19.1846 30.3312C19.0738 30.2157 18.9999 30.07 18.972 29.9124C18.9441 29.7549 18.9635 29.5926 19.0279 29.4461L19.8089 27.6479Z" fill="#CCD3DD"/>
<path id="Vector_3" d="M19.002 15.3468H20.5811C20.6773 15.3468 20.7696 15.3085 20.8376 15.2405C20.9057 15.1724 20.9439 15.0802 20.9439 14.9839C20.9439 14.8877 20.9057 14.7954 20.8376 14.7274C20.7696 14.6593 20.6773 14.6211 20.5811 14.6211H19.002C18.9058 14.6211 18.8135 14.6593 18.7454 14.7274C18.6774 14.7954 18.6392 14.8877 18.6392 14.9839C18.6392 15.0802 18.6774 15.1724 18.7454 15.2405C18.8135 15.3085 18.9058 15.3468 19.002 15.3468Z" fill="#CCD3DD"/>
<path id="Vector (Stroke)_3" fill-rule="evenodd" clip-rule="evenodd" d="M20.5813 15.647H19.0022C18.8264 15.647 18.6578 15.5771 18.5335 15.4528C18.4092 15.3285 18.3394 15.1599 18.3394 14.9841C18.3394 14.8083 18.4092 14.6397 18.5335 14.5154C18.6578 14.3911 18.8264 14.3213 19.0022 14.3213H20.5813C20.757 14.3213 20.9256 14.3911 21.05 14.5154C21.1743 14.6397 21.2441 14.8083 21.2441 14.9841C21.2441 15.1599 21.1743 15.3285 21.05 15.4528C20.9256 15.5771 20.7571 15.647 20.5813 15.647ZM20.5813 15.347H19.0022C18.906 15.347 18.8137 15.3087 18.7456 15.2407C18.6776 15.1726 18.6394 15.0804 18.6394 14.9841C18.6394 14.8879 18.6776 14.7956 18.7456 14.7276C18.8137 14.6595 18.906 14.6213 19.0022 14.6213H20.5813C20.6775 14.6213 20.7698 14.6595 20.8378 14.7276C20.9059 14.7956 20.9441 14.8879 20.9441 14.9841C20.9441 15.0804 20.9059 15.1726 20.8378 15.2407C20.7698 15.3087 20.6775 15.347 20.5813 15.347Z" fill="#CCD3DD"/>
<path id="Vector_4" d="M19.002 14.3097H20.5811C20.6773 14.3097 20.7696 14.2714 20.8376 14.2034C20.9057 14.1353 20.9439 14.0431 20.9439 13.9468C20.9439 13.8506 20.9057 13.7583 20.8376 13.6903C20.7696 13.6222 20.6773 13.584 20.5811 13.584H19.002C18.9058 13.584 18.8135 13.6222 18.7454 13.6903C18.6774 13.7583 18.6392 13.8506 18.6392 13.9468C18.6392 14.0431 18.6774 14.1353 18.7454 14.2034C18.8135 14.2714 18.9058 14.3097 19.002 14.3097Z" fill="#CCD3DD"/>
<path id="Vector (Stroke)_4" fill-rule="evenodd" clip-rule="evenodd" d="M20.5813 14.6099H19.0022C18.8264 14.6099 18.6578 14.54 18.5335 14.4157C18.4092 14.2914 18.3394 14.1228 18.3394 13.947C18.3394 13.7712 18.4092 13.6026 18.5335 13.4783C18.6578 13.354 18.8264 13.2842 19.0022 13.2842H20.5813C20.757 13.2842 20.9256 13.354 21.05 13.4783C21.1743 13.6026 21.2441 13.7712 21.2441 13.947C21.2441 14.1228 21.1743 14.2914 21.05 14.4157C20.9256 14.54 20.7571 14.6099 20.5813 14.6099ZM20.5813 14.3099H19.0022C18.906 14.3099 18.8137 14.2716 18.7456 14.2036C18.6776 14.1355 18.6394 14.0432 18.6394 13.947C18.6394 13.8508 18.6776 13.7585 18.7456 13.6905C18.8137 13.6224 18.906 13.5842 19.0022 13.5842H20.5813C20.6775 13.5842 20.7698 13.6224 20.8378 13.6905C20.9059 13.7585 20.9441 13.8508 20.9441 13.947C20.9441 14.0432 20.9059 14.1355 20.8378 14.2036C20.7698 14.2716 20.6775 14.3099 20.5813 14.3099Z" fill="#CCD3DD"/>
<path id="Vector_5" d="M21.5841 16.9925V22.4496L21.7641 22.1361C21.1458 22.5048 20.5478 22.946 19.7931 22.946L20.156 23.3088V16.1333L19.7931 16.4962C20.5478 16.4962 21.1458 16.9374 21.7641 17.306C21.8472 17.3545 21.9462 17.368 22.0393 17.3435C22.1324 17.319 22.2119 17.2586 22.2604 17.1754C22.3089 17.0923 22.3224 16.9933 22.2979 16.9002C22.2734 16.8071 22.213 16.7275 22.1298 16.679C21.3925 16.2378 20.6785 15.7705 19.8077 15.7705C19.7117 15.7713 19.6198 15.8097 19.5519 15.8776C19.4841 15.9455 19.4456 16.0373 19.4448 16.1333V23.3088C19.4456 23.4048 19.4841 23.4966 19.5519 23.5645C19.6198 23.6324 19.7117 23.6709 19.8077 23.6716C20.3493 23.6631 20.8794 23.514 21.3461 23.2391C21.6627 23.1081 21.9566 22.9278 22.2169 22.705C22.4723 22.3945 22.3243 21.6456 22.3243 21.2827V16.9925C22.3243 16.8944 22.2853 16.8003 22.2159 16.7308C22.1465 16.6614 22.0524 16.6224 21.9542 16.6224C21.856 16.6224 21.7619 16.6614 21.6925 16.7308C21.6231 16.8003 21.5841 16.8944 21.5841 16.9925Z" fill="#CCD3DD"/>
<path id="Vector (Stroke)_5" fill-rule="evenodd" clip-rule="evenodd" d="M21.2841 22.4287C21.0175 22.5886 20.7461 22.7373 20.4559 22.8339C20.3656 22.8639 20.2734 22.8889 20.179 22.9077C20.1713 22.9092 20.1636 22.9107 20.1559 22.9121V16.5302C20.1636 16.5317 20.1713 16.5332 20.179 16.5347C20.2734 16.5534 20.3656 16.5784 20.4559 16.6085C20.7461 16.705 21.0175 16.8537 21.2841 17.0137C21.3601 17.0593 21.4358 17.1058 21.5113 17.1523C21.5356 17.1672 21.5598 17.1821 21.5841 17.197V22.2453C21.5598 22.2602 21.5356 22.2751 21.5113 22.29C21.4783 22.3104 21.4452 22.3307 21.4121 22.351C21.3695 22.3771 21.3269 22.403 21.2841 22.4287ZM20.5 16C20.3773 15.968 20.6285 16.0143 20.5 16L20.4559 15.5475C21.0765 15.6933 21.6219 16.0224 22.1255 16.3264C22.1472 16.3395 22.1688 16.3526 22.1903 16.3655C22.1156 16.3374 22.0356 16.3225 21.9542 16.3225C21.8485 16.3225 21.7454 16.3475 21.6528 16.3942C21.7534 16.4529 21.8537 16.5131 21.9542 16.5736C21.9637 16.5793 21.9731 16.585 21.9826 16.5907C22.0092 16.6067 22.0358 16.6227 22.0624 16.6387C22.0877 16.6465 22.1121 16.6569 22.1352 16.6698C22.1645 16.6863 22.1917 16.7068 22.2159 16.7309C22.2621 16.7772 22.2949 16.8345 22.3116 16.8967C22.3199 16.9277 22.3243 16.9599 22.3243 16.9926V17.5377C22.4033 17.483 22.4702 17.4113 22.5195 17.3267C22.5792 17.2244 22.6098 17.109 22.6098 16.9926C22.6098 16.9362 22.6026 16.8795 22.588 16.8239C22.5583 16.7111 22.4997 16.6092 22.4193 16.5275C22.3789 16.4865 22.3331 16.4506 22.2826 16.421C22.252 16.4027 22.2213 16.3842 22.1903 16.3655C22.2787 16.3988 22.3599 16.4507 22.428 16.5188C22.5537 16.6445 22.6243 16.8149 22.6243 16.9926V21.2828C22.6243 21.3586 22.6321 21.459 22.6423 21.5892L22.6425 21.591C22.6523 21.7162 22.6636 21.8621 22.6663 22.008C22.669 22.1531 22.6637 22.3096 22.6364 22.4573C22.6097 22.6025 22.5575 22.7633 22.4486 22.8957L22.4319 22.916L22.4119 22.9331C22.1329 23.1719 21.8186 23.3659 21.4801 23.5083C21.4862 23.5048 21.4923 23.5013 21.4983 23.4977C21.4983 23.4977 21.5 23.5 21.4608 23.5164C21.4672 23.5138 21.4737 23.5111 21.4801 23.5083C21.1608 23.6938 20.8149 23.8258 20.4559 23.9004C20.4025 23.9004 20.4559 23.9004 20.3444 23.9216C20.1693 23.952 19.9914 23.9689 19.8124 23.9717L19.8053 23.9718C19.6305 23.9704 19.4633 23.9003 19.3398 23.7768C19.2162 23.6532 19.1462 23.486 19.1448 23.3113L19.1448 23.3089L19.1448 22.722L19.4448 23.022V22.6461H19.1448V16.7963H19.0688L19.1448 16.7203V16.1311C19.1462 15.9563 19.2162 15.7891 19.3398 15.6656C19.4633 15.542 19.6305 15.472 19.8053 15.4706L19.8076 15.4706C19.992 15.4706 20.1699 15.4895 20.3421 15.5231L20.4559 15.4092V15.5475" fill="#CCD3DD"/>
<path id="Vector_6" d="M17.2761 16.9925V21.2827C17.2761 21.6368 17.1338 22.3509 17.3544 22.6673C17.5228 22.9111 17.9756 23.0795 18.2253 23.2217C18.7001 23.5069 19.2417 23.6621 19.7956 23.6716C19.8916 23.6709 19.9835 23.6324 20.0513 23.5645C20.1192 23.4966 20.1577 23.4048 20.1584 23.3088V16.1333C20.1577 16.0368 20.1188 15.9446 20.0503 15.8766C19.9818 15.8086 19.8892 15.7705 19.7927 15.7705C18.8958 15.7705 18.1933 16.2378 17.4706 16.679C17.3874 16.7275 17.3269 16.8071 17.3024 16.9002C17.2779 16.9933 17.2914 17.0923 17.3399 17.1754C17.3884 17.2586 17.468 17.319 17.5611 17.3435C17.6541 17.368 17.7532 17.3545 17.8363 17.306C18.4546 16.9374 19.0525 16.4962 19.8072 16.4962L19.4444 16.1333V23.3088L19.8072 22.946C19.0525 22.946 18.4546 22.5048 17.8363 22.1361L18.0163 22.4496V16.9925C18.0163 16.8944 17.9773 16.8003 17.9079 16.7308C17.8385 16.6614 17.7443 16.6224 17.6462 16.6224C17.548 16.6224 17.4539 16.6614 17.3845 16.7308C17.3151 16.8003 17.2761 16.8944 17.2761 16.9925Z" fill="#CCD3DD"/>
<path id="Vector (Stroke)_6" fill-rule="evenodd" clip-rule="evenodd" d="M18.0658 23.1382C18.0451 23.1279 18.0238 23.1174 18.0022 23.1067C17.7628 22.9885 17.4799 22.8489 17.3546 22.6674C17.2055 22.4536 17.2222 22.058 17.2486 21.7148C17.2514 21.6796 17.2542 21.6449 17.2569 21.611C17.2615 21.5543 17.266 21.4998 17.2694 21.4488C17.2735 21.3879 17.2763 21.3319 17.2763 21.2828V16.9926C17.2763 16.9599 17.2806 16.9277 17.2889 16.8967C17.3056 16.8345 17.3384 16.7772 17.3847 16.7309C17.4088 16.7068 17.4359 16.6864 17.4651 16.67C17.4874 16.6575 17.5111 16.6472 17.5355 16.6395C17.5585 16.6255 17.5814 16.6114 17.6044 16.5973C17.6184 16.5887 17.6324 16.5801 17.6464 16.5715C17.7451 16.5109 17.8439 16.4506 17.9431 16.3918C18.3256 16.1651 18.7156 15.9612 19.1446 15.8527C19.2665 15.8219 19.3915 15.7988 19.5205 15.7851C19.6094 15.7756 19.7001 15.7706 19.7929 15.7706C19.8894 15.7706 19.982 15.8087 20.0505 15.8767C20.119 15.9447 20.1579 16.0369 20.1586 16.1334V23.3089C20.1579 23.4049 20.1194 23.4967 20.0515 23.5646C19.9837 23.6325 19.8918 23.671 19.7958 23.6717C19.7043 23.6702 19.6132 23.6646 19.5226 23.6552C19.3952 23.6419 19.269 23.6209 19.1446 23.5923C18.8558 23.5261 18.577 23.4193 18.3165 23.2744C18.2859 23.2574 18.2555 23.2399 18.2255 23.2218C18.1784 23.195 18.1241 23.1672 18.0658 23.1382ZM18.0742 23.4809C18.0214 23.451 17.9557 23.4184 17.8749 23.3785L17.8675 23.3748C17.7902 23.3367 17.7022 23.2932 17.6158 23.246C17.4488 23.1548 17.2363 23.0236 17.1082 22.8384C17.0163 22.7064 16.9738 22.5517 16.9527 22.4122C16.9312 22.2699 16.9286 22.1197 16.9329 21.9801C16.937 21.8437 16.9481 21.7074 16.9577 21.5893L16.9585 21.5798C16.9687 21.4541 16.9763 21.3566 16.9763 21.2828V16.9926C16.9763 16.8149 17.0469 16.6445 17.1725 16.5188C17.2393 16.452 17.3188 16.4008 17.4053 16.3674C17.4233 16.3563 17.4414 16.3452 17.4596 16.334C17.9614 16.0254 18.5066 15.6899 19.1446 15.5446V15.4092L19.2567 15.5213C19.4284 15.4888 19.6069 15.4706 19.7929 15.4706M18.0742 23.4809C18.4064 23.68 18.7684 23.821 19.1446 23.8994L19.2568 23.9209C19.4326 23.9515 19.611 23.9686 19.7907 23.9717L19.7982 23.9717C19.9729 23.9703 20.1401 23.9003 20.2637 23.7768C20.3872 23.6532 20.4573 23.486 20.4586 23.3113L20.4586 22.7191V22.6461V16.7963V16.7232V16.1334L20.4586 16.1311C20.4572 15.9554 20.3865 15.7874 20.2618 15.6637C20.1371 15.54 19.9685 15.4706 19.7929 15.4706M18.0165 22.2453C18.0407 22.2602 18.0649 22.2751 18.0892 22.29C18.1223 22.3104 18.1553 22.3307 18.1884 22.351C18.231 22.3771 18.2737 22.403 18.3165 22.4287C18.5831 22.5886 18.8544 22.7373 19.1446 22.8339C19.2349 22.8639 19.3271 22.8889 19.4216 22.9077C19.4292 22.9092 19.4369 22.9107 19.4446 22.9121V16.5302C19.4369 16.5317 19.4292 16.5332 19.4216 16.5347C19.3271 16.5534 19.2349 16.5784 19.1446 16.6085C18.8544 16.705 18.5831 16.8537 18.3165 17.0137C18.2404 17.0593 18.1648 17.1058 18.0892 17.1523C18.0649 17.1672 18.0407 17.1821 18.0165 17.197V22.2453ZM18.3165 17.3656V22.0767C18.6046 22.2527 18.8706 22.4113 19.1446 22.5162V16.9262C18.8706 17.031 18.6046 17.1896 18.3165 17.3656Z" fill="#CCD3DD"/>
<path id="Vector_7" d="M26.1378 22.8118H21.5835V16.6291H26.1378C26.3765 16.6291 26.6053 16.5343 26.7741 16.3655C26.9429 16.1968 27.0377 15.9679 27.0377 15.7292V11.6074H33.2175V15.7292C33.2159 17.6067 32.4697 19.4068 31.1424 20.7347C29.8151 22.0625 28.0153 22.8095 26.1378 22.8118ZM22.3092 22.0861H26.1378C27.8228 22.0838 29.4381 21.4133 30.6292 20.2215C31.8204 19.0298 32.4903 17.4142 32.4918 15.7292V12.3331H27.7633V15.7292C27.7633 16.1604 27.5921 16.5738 27.2872 16.8787C26.9824 17.1835 26.5689 17.3548 26.1378 17.3548H22.3092V22.0861Z" fill="#CCD3DD"/>
<path id="Vector (Stroke)_7" fill-rule="evenodd" clip-rule="evenodd" d="M26.138 23.112H21.2837V16.3293H26.138C26.2971 16.3293 26.4497 16.2661 26.5622 16.1536C26.6747 16.0411 26.7379 15.8885 26.7379 15.7294V11.3076H33.5177V15.7294C33.5161 17.6863 32.7382 19.5629 31.3547 20.9469C29.9713 22.331 28.0949 23.1096 26.138 23.112ZM26.138 22.812H21.5837V16.6293H26.138C26.3767 16.6293 26.6055 16.5345 26.7743 16.3657C26.943 16.197 27.0378 15.9681 27.0378 15.7294V11.6076H33.2177V15.7294C33.2161 17.6069 32.4699 19.407 31.1426 20.7348C29.8153 22.0627 28.0155 22.8097 26.138 22.812ZM26.1376 21.7863H22.6094V17.6549H26.138C26.6487 17.6549 27.1385 17.4521 27.4996 17.091C27.8607 16.7299 28.0635 16.2401 28.0635 15.7294V12.6333H32.192V15.7292C32.1905 17.3347 31.5523 18.8741 30.4173 20.0096C29.2822 21.1452 27.7431 21.7841 26.1376 21.7863ZM32.492 12.3333V15.7294C32.4905 17.4144 31.8206 19.03 30.6294 20.2217C29.4383 21.4135 27.823 22.084 26.138 22.0863H22.3094V17.3549H26.138C26.5691 17.3549 26.9826 17.1837 27.2874 16.8788C27.5923 16.574 27.7635 16.1606 27.7635 15.7294V12.3333H32.492Z" fill="#CCD3DD"/>
<path id="Vector_8" d="M28.5507 18.9491C30.4026 17.9941 30.2459 16.1393 30.2459 14.3628C30.2459 14.2666 30.2076 14.1743 30.1396 14.1063C30.0715 14.0382 29.9793 14 29.883 14C29.7868 14 29.6945 14.0382 29.6265 14.1063C29.5584 14.1743 29.5202 14.2666 29.5202 14.3628C29.5202 15.8577 29.7669 17.5065 28.182 18.3221C27.767 18.5369 28.1356 19.1639 28.5507 18.9491Z" fill="#CCD3DD"/>
<path id="Vector (Stroke)_8" fill-rule="evenodd" clip-rule="evenodd" d="M28.1823 18.3223C27.7672 18.5371 28.1358 19.1641 28.5509 18.9493C30.2688 18.0634 30.2583 16.4032 30.2477 14.7495C30.2469 14.6205 30.2461 14.4916 30.2461 14.363C30.2461 14.2668 30.2079 14.1745 30.1398 14.1065C30.0718 14.0384 29.9795 14.0002 29.8833 14.0002C29.787 14.0002 29.6947 14.0384 29.6267 14.1065C29.5587 14.1745 29.5204 14.2668 29.5204 14.363C29.5204 14.54 29.5239 14.7191 29.5274 14.8987C29.5532 16.2366 29.5796 17.6032 28.1823 18.3223ZM28.0444 18.0559L28.045 18.0556C28.7388 17.6985 29.0283 17.1714 29.1512 16.5401C29.2487 16.0392 29.2384 15.4996 29.2275 14.9283C29.224 14.7431 29.2204 14.5546 29.2204 14.363C29.2204 14.1872 29.2903 14.0186 29.4146 13.8943C29.5389 13.77 29.7075 13.7002 29.8833 13.7002C30.0591 13.7002 30.2277 13.77 30.352 13.8943C30.4763 14.0186 30.5461 14.1872 30.5461 14.363C30.5461 14.4874 30.547 14.6136 30.5478 14.7411C30.553 15.501 30.5585 16.3067 30.3848 17.0339C30.1757 17.9094 29.7045 18.692 28.6884 19.2159C28.3052 19.414 27.9484 19.2071 27.7967 18.9489C27.7199 18.8184 27.6779 18.6518 27.7124 18.4816C27.7487 18.3018 27.8647 18.1489 28.0444 18.0559Z" fill="#CCD3DD"/>
<path id="Vector_9" d="M12.5349 27.8344H6.3667V23.7212C6.36824 21.8438 7.11453 20.0437 8.44181 18.7158C9.76909 17.388 11.5689 16.641 13.4464 16.6387H18.0007V22.8214H13.4464C13.3272 22.8199 13.209 22.842 13.0984 22.8865C12.9879 22.9311 12.8874 22.9971 12.8026 23.0808C12.7178 23.1645 12.6505 23.2642 12.6045 23.3742C12.5586 23.4841 12.5349 23.6021 12.5349 23.7212V27.8344ZM7.08076 27.1087H11.8209V23.7212C11.8209 23.2901 11.9921 22.8767 12.297 22.5718C12.6018 22.267 13.0153 22.0957 13.4464 22.0957H17.275V17.3556H13.4464C11.7599 17.3579 10.1433 18.0297 8.95186 19.2233C7.76042 20.4169 7.0916 22.0348 7.09237 23.7212L7.08076 27.1087Z" fill="#CCD3DD"/>
<path id="Vector (Stroke)_9" fill-rule="evenodd" clip-rule="evenodd" d="M12.8351 28.1345H6.06689V23.7214C6.0685 21.7645 6.84637 19.888 8.22983 18.5039C9.61328 17.1199 11.4893 16.3413 13.4462 16.3389L18.3009 16.3389V23.1216H13.4427C13.3633 23.1206 13.2844 23.1353 13.2108 23.165C13.1371 23.1947 13.0701 23.2387 13.0135 23.2945C12.957 23.3503 12.9121 23.4168 12.8815 23.4901C12.8509 23.5633 12.8351 23.642 12.8351 23.7214V28.1345ZM7.09257 23.7214L7.08096 27.1089H11.8211V23.7214C11.8211 23.2903 11.9923 22.8769 12.2972 22.572C12.602 22.2672 13.0154 22.0959 13.4466 22.0959H17.2752V17.3558H13.4466C11.7601 17.3581 10.1435 18.0299 8.95205 19.2235C7.76062 20.4171 7.0918 22.0349 7.09257 23.7214ZM13.4467 17.6558C11.8398 17.6581 10.2996 18.2982 9.16438 19.4355C8.02912 20.5728 7.39183 22.1143 7.39257 23.7213L7.39257 23.7225L7.38199 26.8089H11.5211V23.7214C11.5211 23.2108 11.7239 22.721 12.085 22.3599C12.4461 21.9988 12.9359 21.7959 13.4466 21.7959H16.9752V17.6558H13.4467ZM12.5351 27.8345V23.7214C12.5351 23.6023 12.5588 23.4843 12.6047 23.3744C12.6506 23.2644 12.718 23.1647 12.8028 23.081C12.8876 22.9973 12.9881 22.9313 13.0986 22.8867C13.2092 22.8422 13.3274 22.8201 13.4466 22.8216H18.0009V16.6389H13.4466C11.5691 16.6412 9.76928 17.3882 8.442 18.716C7.11472 20.0438 6.36843 21.844 6.36689 23.7214V27.8345H12.5351Z" fill="#CCD3DD"/>
<path id="Vector_10" d="M9.76252 25.6997C9.76252 25.0699 9.76252 24.4371 9.76252 23.8072C9.76916 23.0002 9.96767 22.2063 10.3417 21.4911C10.7157 20.7759 11.2544 20.16 11.9134 19.6941C12.2908 19.4241 11.9134 18.7942 11.5477 19.0671C10.8846 19.5218 10.3229 20.1088 9.89773 20.7912C9.47261 21.4736 9.19333 22.2366 9.07748 23.0322C8.99812 23.9191 8.9797 24.8103 9.02233 25.6997C9.02233 25.796 9.06056 25.8883 9.1286 25.9563C9.19665 26.0244 9.28894 26.0626 9.38517 26.0626C9.4814 26.0626 9.57369 26.0244 9.64173 25.9563C9.70978 25.8883 9.748 25.796 9.748 25.6997H9.76252Z" fill="#CCD3DD"/>
<path id="Vector (Stroke)_10" fill-rule="evenodd" clip-rule="evenodd" d="M9.7482 25.7H9.76271V23.8074C9.76935 23.0004 9.96787 22.2065 10.3419 21.4913C10.7159 20.7762 11.2546 20.1602 11.9136 19.6943C12.291 19.4244 11.9136 18.7945 11.5479 19.0673C10.8848 19.522 10.323 20.109 9.89792 20.7914C9.4728 21.4738 9.19353 22.2368 9.07768 23.0324C8.99832 23.9193 8.97989 24.8106 9.02253 25.7C9.02253 25.7962 9.06075 25.8885 9.1288 25.9566C9.19684 26.0246 9.28913 26.0628 9.38536 26.0628C9.48159 26.0628 9.57388 26.0246 9.64193 25.9566C9.70997 25.8885 9.7482 25.7962 9.7482 25.7ZM8.72258 25.7082C8.67967 24.8071 8.69847 23.9042 8.77887 23.0057L8.77961 22.9974L8.78081 22.9892C8.90263 22.1526 9.19628 21.3503 9.64329 20.6328C10.0894 19.9168 10.6786 19.3006 11.3739 18.8229C11.5357 18.7045 11.7242 18.6712 11.9006 18.7255C12.0672 18.7768 12.1916 18.8959 12.2676 19.0246C12.4168 19.2769 12.4369 19.6888 12.0882 19.9383L12.0868 19.9393C11.4666 20.3777 10.9596 20.9574 10.6077 21.6304C10.2559 22.303 10.0692 23.0497 10.0627 23.8087V26H9.97642C9.94507 26.0618 9.90395 26.1188 9.85406 26.1687C9.72975 26.293 9.56115 26.3628 9.38536 26.3628C9.20957 26.3628 9.04097 26.293 8.91667 26.1687C8.7943 26.0463 8.72472 25.881 8.72258 25.7082Z" fill="#CCD3DD"/>
</g>
</g>
</svg>
