<svg width="187" height="186" viewBox="0 0 187 186" fill="none" xmlns="http://www.w3.org/2000/svg">
<path fill-rule="evenodd" clip-rule="evenodd" d="M97.4205 5.14875C117.29 4.1583 137.698 8.0135 153.797 19.738C169.9 31.465 180.904 49.488 185.098 69.0014C189.045 87.3594 181.55 105.258 176.038 123.206C170.427 141.477 167.887 162.368 152.826 174.082C137.611 185.917 116.619 185.809 97.4205 184.356C79.4069 182.994 62.9588 175.946 47.7703 166.135C31.7297 155.774 15.7433 144.235 8.13656 126.683C0.0821465 108.098 -1.90465 86.5003 5.00511 67.4571C11.7949 48.7446 28.4976 36.2706 44.9729 25.1626C60.8866 14.4332 78.2703 6.10334 97.4205 5.14875Z" fill="#EADAFF"/>
<path d="M120.641 59.3908C122.369 56.9563 130.655 50.6579 133.659 47.9392C139.5 42.663 142.978 34.7148 145.562 29.0823C148.147 23.4498 151.65 22.3174 152.933 21.9272C154.217 21.537 156.954 21.0068 157.97 23.4625C158.784 25.4305 158.161 27.3009 155.755 28.5521C154.158 29.3792 152.311 30.7025 150.79 33.7393C149.269 36.7761 147.943 42.2601 144.304 48.9741C140.665 55.6881 136.277 58.7843 135.408 63.9503" fill="#EE726B"/>
<path d="M158.095 26.7451C156.248 26.1259 154.041 26.2446 152.41 27.3983C153.6 26.3483 155.137 25.7772 156.723 25.795C157.264 25.7824 157.805 25.8279 158.337 25.9307L158.095 26.7451Z" fill="#D65554"/>
<path d="M158.228 24.7679C156.381 24.1487 154.174 24.2675 152.543 25.4253C153.732 24.3725 155.269 23.7996 156.856 23.8179C157.397 23.8074 157.938 23.8528 158.47 23.9536L158.228 24.7679Z" fill="#D65554"/>
<path d="M157.474 23.1658C155.627 22.5465 153.42 22.6653 151.793 23.8189C152.982 22.77 154.517 22.1989 156.101 22.2157C156.643 22.2006 157.184 22.2461 157.715 22.3514L157.474 23.1658Z" fill="#D65554"/>
<path d="M157.969 23.4629C159.066 25.486 158.007 27.6491 156.118 28.6967C155.267 29.159 154.48 29.7292 153.775 30.3932C151.623 32.4248 150.695 35.1986 149.721 37.9809C148.448 41.7733 146.862 45.4533 144.981 48.983C144.009 50.7433 142.906 52.4277 141.681 54.0217C139.897 56.4222 137.847 58.5599 136.449 61.1895C135.996 62.0671 135.643 62.9934 135.398 63.9506C135.515 62.9547 135.76 61.9781 136.127 61.0453C137.258 58.263 139.224 55.8878 140.876 53.4406C141.997 51.8328 143.013 50.1539 143.918 48.4146C145.702 44.9023 147.259 41.2783 148.577 37.5653C149.641 34.7448 150.801 31.7504 153.207 29.774C153.996 29.1273 154.867 28.5869 155.796 28.1665C157.639 27.3522 158.715 25.4563 157.952 23.4756L157.969 23.4629Z" fill="#D65554"/>
<path d="M120.641 59.3898C122.005 57.4685 123.822 55.9204 125.534 54.3002C128.923 51.1235 132.794 48.4133 135.802 44.8378C137.284 43.0696 138.615 41.1798 139.78 39.1884C141.546 36.1691 143.158 33.0618 144.609 29.8787C146.024 26.6298 148.257 23.3428 151.718 22.0364C153.781 21.1882 157.127 20.8234 157.992 23.4615C156.903 21.0694 153.878 21.6802 151.959 22.6133C147.549 24.5982 146.075 29.4885 144.177 33.5601C141.674 38.9042 138.67 44.1974 134.218 48.1927C132.413 49.8468 127.902 53.2229 125.957 54.7922C124.14 56.264 122.229 57.6466 120.662 59.3898H120.641Z" fill="#D65554"/>
<path d="M110.608 80.7539C110.608 80.7539 131.717 84.3336 125.736 108.089C121.576 124.63 114.412 119.023 107.52 141.375L107.045 143.237C106.875 143.906 106.961 144.614 107.287 145.222C108.714 147.898 113.188 155.643 120.326 162.047C120.645 162.332 121.008 162.561 121.402 162.726C124.49 164.049 138.733 170.679 133.899 178.733L114.891 170.293C114.237 170.01 113.673 169.554 113.26 168.974L95.9889 144.624C95.7582 144.298 95.6009 143.925 95.5278 143.532C95.4547 143.139 95.4674 142.734 95.5653 142.346C95.7432 141.63 95.9889 140.743 96.2261 140.065C97.8401 135.565 98.5985 127.807 95.3408 121.878C92.0832 115.948 90.5029 112.488 90.9943 103.89" fill="#D65554"/>
<path d="M118.943 14.3387C118.401 13.9697 115.287 8.82494 109.149 6.40739C103.011 3.98983 100.477 6.29288 95.9108 6.59825C91.3442 6.90363 90.1325 6.00447 89.1709 7.22173C88.0144 8.69347 91.3695 13.6558 97.7323 15.8995C104.095 18.1431 115.418 17.596 115.418 17.596" fill="#D65554"/>
<path d="M148.776 8.52022C150.365 6.42076 150.343 6.35714 150.047 5.02112C149.75 3.6851 148.285 0.856139 146.679 0.847656C145.252 0.847656 130.717 3.96079 128.04 4.53337C125.363 5.10595 121.376 5.6955 118.331 7.17148C115.285 8.64746 112.925 12.4604 112.133 14.9798C111.341 17.4991 111.972 20.4511 113.556 23.4879C114.793 25.8545 117.792 27.708 121.308 31.1223C122.029 31.839 123.918 33.8028 124.02 34.651C124.138 35.635 122.719 38.2816 122.545 38.5997C119.72 43.0022 114.992 45.4113 109.087 49.1309C101.674 53.7964 88.4017 61.4605 82.543 69.5996C76.6844 77.7387 71.1856 90.0682 69.1522 100.366C67.1189 110.664 63.4164 121.072 56.2403 128.974C49.0641 136.876 36.5546 144.264 30.9289 146.52C25.3032 148.777 0.381575 157.679 1.86001 161.861C2.66489 164.143 9.18029 161.988 13.6198 160.822C18.0594 159.656 38.766 154.066 47.7807 149.493C55.5144 145.584 62.7724 140.795 69.4108 135.221C74.329 130.98 88.4737 125.199 94.2646 124.94C100.055 124.682 109.362 123.388 117.475 120.364C125.587 117.34 136.199 108.353 138.359 98.6781C140.52 89.0037 139.566 81.4838 136.72 71.6354C133.873 61.7871 134.479 53.9957 137.736 47.6507C138.389 46.3783 139.117 45.301 139.537 44.2577C140.486 41.8655 143.515 32.8061 140.566 26.8046L137.601 20.8243C141.693 17.0729 145.434 12.9543 148.776 8.52022Z" fill="#EE726B"/>
<path d="M139.288 24.3828C141.864 27.2839 142.838 31.4446 142.393 35.2745C141.939 38.1129 141.151 40.8877 140.047 43.5409C139.693 44.4305 139.239 45.2771 138.695 46.0645C138.999 45.1733 139.252 44.2656 139.454 43.3458C140.047 40.7416 140.724 37.7472 141.148 35.1219C141.584 31.4386 140.943 27.7078 139.301 24.3828H139.288Z" fill="#D65554"/>
<path d="M138.914 45.437C138.914 45.437 133.771 43.7701 130.416 52.2698C127.061 60.7694 130.315 75.771 123.605 86.896C116.894 98.021 112.285 100.43 105.999 103.055C105.999 103.055 93.6843 107.984 98.4797 124.614C104.038 124.033 111.133 122.731 117.496 120.373C125.608 117.349 136.22 108.361 138.38 98.6868C140.541 89.0124 139.588 81.4925 136.741 71.6441C133.894 61.7958 134.5 54.0045 137.758 47.6594C138.164 46.8536 138.55 46.1198 138.914 45.437Z" fill="#FFDFDD"/>
<path d="M138.031 101.868C132.854 103.756 127.135 103.459 121.908 101.987C121.171 101.775 120.455 101.512 119.73 101.279C121.203 101.661 122.698 101.944 124.208 102.127L125.335 102.246L127.029 102.326C129.833 102.389 132.628 101.99 135.303 101.147C135.983 100.932 136.646 100.664 137.285 100.346L138.027 101.873L138.031 101.868Z" fill="#FF8380"/>
<path d="M97.3692 80.7539C97.3692 80.7539 118.478 84.3336 112.497 108.089C108.341 124.63 101.178 119.023 94.281 141.375L93.8106 143.237C93.6389 143.905 93.7236 144.613 94.0479 145.222C95.4755 147.898 99.9491 155.643 107.087 162.047C107.406 162.332 107.769 162.561 108.163 162.726C111.251 164.049 125.494 170.679 120.66 178.733L101.652 170.293C101.009 170.007 100.456 169.553 100.051 168.978L82.7584 144.628C82.5267 144.302 82.3688 143.93 82.2957 143.536C82.2225 143.143 82.2358 142.738 82.3348 142.351C82.5127 141.634 82.7583 140.747 82.9998 140.069C84.6096 135.569 85.368 127.811 82.1103 121.882C78.8527 115.953 77.2725 112.492 77.7639 103.895" fill="#EE726B"/>
<path d="M117.567 19.2084C117.567 19.2084 108.222 28.3951 101.012 31.3428C93.8015 34.2905 87.1082 32.5855 86.9811 30.4267C86.8752 28.6368 88.6121 28.4799 92.3188 24.7136C96.0255 20.9473 96.4321 16.9902 103.6 14.386C110.768 11.7818 117.38 13.8134 118.13 13.7116L117.567 19.2084Z" fill="#EE726B"/>
<path d="M113.094 16.5918C113.094 16.5918 107.032 16.8463 104.142 18.5046C101.253 20.163 100.715 22.2158 98.8469 24.171C96.9787 26.1263 94.0133 27.9246 94.187 28.7135C94.4793 30.0835 99.8383 28.7135 105.155 25.1466C108.036 23.1998 111.603 18.81 113.327 18.2374C113.203 17.9953 113.109 17.7389 113.047 17.474C113.006 17.1797 113.022 16.8801 113.094 16.5918Z" fill="#D65554"/>
<path d="M146.008 0.330492C147.173 -0.15726 148.38 -0.119093 148.647 0.538313C148.914 1.19572 148.609 3.26973 148.037 3.66842C147.131 4.30461 145.072 3.53269 144.42 2.82015C143.767 2.10761 145.36 0.593455 146.008 0.330492Z" fill="black"/>
<path d="M150.581 5.6842C148.224 7.78433 145.332 9.18935 142.227 9.74316C144.392 9.03896 146.391 7.90032 148.102 6.39674C148.653 5.91736 149.166 5.3955 149.636 4.83594L150.581 5.6842Z" fill="black"/>
<path d="M141.273 17.2734C140.04 19.0911 138.578 20.7419 136.923 22.1849C136.344 22.7234 135.712 23.2022 135.038 23.6142C133.593 24.2844 131.835 23.8772 130.594 23.118C131.634 23.2361 132.686 23.1788 133.707 22.9483C134.033 22.866 134.339 22.722 134.61 22.5242C136.728 20.6962 138.821 18.707 141.273 17.2862V17.2734Z" fill="#D65554"/>
<path d="M118.002 14.3358C114.232 13.4875 110.25 12.9192 106.391 13.5808C108.306 13.0484 110.283 12.7718 112.271 12.758C114.271 12.7179 116.272 12.8285 118.256 13.0888L118.002 14.3358Z" fill="#D65554"/>
<path d="M118.007 19.6785C115.302 22.038 112.441 24.213 109.445 26.189C110.835 25.0608 112.14 23.8435 113.41 22.5923C114.681 21.3411 115.923 20.0475 117.121 18.7539L118.011 19.6658L118.007 19.6785Z" fill="#D65554"/>
<path d="M82.9997 140.069C84.2903 135.597 84.3562 130.86 83.1905 126.353C82.466 123.291 80.6232 120.771 79.3778 117.908C77.3359 113.565 77.0436 108.548 77.7596 103.912C77.857 107.046 78.0179 110.181 78.8397 113.137C79.6616 116.093 81.119 118.816 82.6313 121.548C84.0898 124.409 84.8799 127.564 84.9423 130.776C85.0047 133.987 84.3375 137.171 82.9913 140.086L82.9997 140.069Z" fill="#D65554"/>
<path d="M97.3691 80.7539C101.852 81.4876 105.985 83.6295 109.171 86.8699C114.653 92.4981 115.017 101.129 113.085 108.344C111.975 112.695 110.163 117.068 107.07 120.432C106.083 121.577 105.037 122.624 104.033 123.71C99.9363 128.015 97.2546 133.359 95.0898 138.856C95.936 135.994 97.0084 133.204 98.2968 130.513C99.635 127.82 101.315 125.311 103.295 123.048C105.244 120.779 107.345 118.71 108.731 116.156C110.133 113.601 111.185 110.867 111.857 108.03C115.322 95.1278 110.679 84.4523 97.3691 80.7539Z" fill="#D65554"/>
<path d="M121.131 177.598C121.347 175.901 120.966 173.891 119.496 172.826C120.767 173.475 121.517 174.849 121.805 176.219C121.909 176.695 121.967 177.179 121.978 177.666L121.131 177.598Z" fill="#D65554"/>
<path d="M120.649 178.191C120.649 176.995 120.484 175.443 119.289 174.832C119.622 174.917 119.927 175.085 120.178 175.32C120.891 176.106 121.35 177.089 121.496 178.14L120.649 178.191Z" fill="#D65554"/>
<path d="M106.406 68.7566C108.461 65.864 118.302 58.3823 121.873 55.1546C128.812 48.886 132.963 39.4617 136.013 32.7562C139.064 26.0506 143.241 24.7231 144.766 24.2735C146.291 23.8239 149.688 23.5228 150.747 26.093C151.713 28.4343 150.844 30.7331 148.116 32.1242C146.218 33.0955 144.028 34.669 142.219 38.2826C140.411 41.8962 138.831 48.4067 134.518 56.3804C130.206 64.3541 124.982 68.0313 123.928 74.1685" fill="#EE726B"/>
<path d="M150.811 29.6032C148.692 28.9161 146.151 29.0688 144.316 30.4048C145.2 29.6086 146.279 29.0612 147.443 28.8185C148.631 28.5605 149.86 28.5504 151.052 28.7888L150.811 29.6032Z" fill="#D65554"/>
<path d="M150.963 27.3528C148.845 26.6657 146.324 26.8184 144.469 28.1587C145.353 27.3626 146.431 26.8153 147.595 26.5724C148.783 26.3144 150.012 26.3043 151.205 26.5427L150.963 27.3528Z" fill="#D65554"/>
<path d="M150.115 25.5247C147.997 24.8376 145.476 24.9903 143.625 26.3306C144.507 25.5338 145.584 24.9864 146.747 24.7443C147.935 24.4863 149.164 24.4761 150.356 24.7146L150.115 25.5247Z" fill="#D65554"/>
<path d="M150.71 25.9863C151.942 28.3657 150.684 30.9487 148.46 32.1659C144.055 34.3842 142.292 38.7315 140.801 43.1934C139.287 47.6902 137.407 52.055 135.18 56.244C132.956 60.4471 129.774 64.0395 126.966 67.8101C125.536 69.6692 124.493 71.7965 123.898 74.066C124.17 71.6951 125.19 69.4684 126.44 67.4623C128.982 63.5009 131.998 59.883 134.108 55.6714C136.904 50.4927 138.768 44.9239 140.983 39.4695C142.33 36.1273 144.796 33.0609 148.151 31.6188C150.32 30.6433 151.608 28.3191 150.693 25.9863H150.71Z" fill="#D65554"/>
<path d="M106.369 68.6656C108.004 66.4007 110.181 64.5897 112.21 62.6938C116.273 58.9402 120.861 55.7338 124.44 51.5009C126.205 49.395 127.791 47.1449 129.18 44.7742C131.265 41.188 133.163 37.4959 134.865 33.7128C136.53 29.8702 139.102 25.9766 143.181 24.3819C145.596 23.3767 149.535 23.0459 150.692 25.9809C148.879 22.6302 144.134 24.2207 141.681 25.9809C138.86 27.987 137.195 31.0365 135.878 34.1836C134.237 38.0475 132.358 41.8055 130.252 45.4358C128.124 49.1011 125.466 52.4311 122.365 55.3181C120.217 57.2776 114.896 61.3026 112.591 63.1773C110.439 64.9205 108.194 66.5704 106.352 68.691L106.369 68.6656Z" fill="#D65554"/>
<path d="M128.332 11.7059C128.376 11.6866 128.424 11.6793 128.472 11.6847C128.472 11.6847 128.472 11.6847 128.506 11.7229C128.511 11.7372 128.511 11.753 128.507 11.7676C128.502 11.7822 128.493 11.7949 128.48 11.8034C127.799 12.0665 127.145 12.3946 126.527 12.7832C125.875 13.2073 125.396 13.6823 124.705 14.1871C124.631 13.7097 124.698 13.221 124.898 12.7815C125.099 12.3419 125.423 11.9709 125.832 11.7144C126.213 11.4539 126.66 11.3103 127.121 11.3012C127.582 11.2922 128.035 11.4181 128.425 11.6635C128.414 11.6649 128.405 11.6685 128.396 11.6742C128.387 11.6798 128.379 11.6874 128.374 11.6963C128.368 11.7052 128.364 11.7152 128.363 11.7257C128.361 11.7361 128.363 11.7467 128.366 11.7568C128.366 11.795 128.395 11.795 128.4 11.7907C128.404 11.7865 128.336 11.7144 128.327 11.6974L128.332 11.7059Z" fill="black"/>
<path d="M81.1456 153.104L79.5273 159.22" stroke="#D65554" stroke-width="3" stroke-linecap="round" stroke-linejoin="round"/>
<path d="M83.7091 152.996L83.6836 159.32" stroke="#D65554" stroke-width="3" stroke-linecap="round" stroke-linejoin="round"/>
</svg>
