<svg width="24" height="24" viewBox="0 0 24 24" fill="none" xmlns="http://www.w3.org/2000/svg">
<path d="M21.7431 11.07C21.6931 10.56 21.2631 10.18 20.7531 10.18H13.2031C12.6531 10.18 12.2031 10.63 12.2031 11.18V12.89C12.2031 13.44 12.6531 13.89 13.2031 13.89H17.7131C17.6031 14.81 17.0031 16.2 15.6731 17.13C14.8231 17.72 13.6931 18.13 12.2031 18.13C12.1331 18.13 12.0731 18.13 12.0031 18.12C9.45313 18.04 7.29313 16.33 6.51313 13.98C6.30313 13.35 6.18313 12.69 6.18313 12C6.18313 11.31 6.30313 10.64 6.50313 10.02C6.56313 9.83999 6.63313 9.66001 6.71313 9.48001C7.63313 7.41001 9.64313 5.95 12.0031 5.88C12.0631 5.87 12.1331 5.87 12.2031 5.87C13.6331 5.87 14.7031 6.33999 15.4531 6.85999C15.8431 7.12999 16.3631 7.06999 16.7031 6.73999L18.0931 5.38C18.5331 4.95 18.4931 4.21999 17.9931 3.85999C16.4031 2.68999 14.4631 2 12.2031 2C12.1331 2 12.0731 2.00001 12.0031 2.01001C8.17313 2.08001 4.88312 4.30001 3.27312 7.51001C2.59312 8.87001 2.20312 10.39 2.20312 12C2.20312 13.61 2.59312 15.13 3.27312 16.49H3.28313C4.89313 19.7 8.18313 21.92 12.0031 21.99C12.0731 22 12.1331 22 12.2031 22C14.9031 22 17.1731 21.11 18.8231 19.58C20.7131 17.83 21.8031 15.27 21.8031 12.22C21.8031 11.79 21.7831 11.42 21.7431 11.07Z" fill="#335076"/>
</svg>
