<svg width="20" height="20" viewBox="0 0 20 20" fill="none" xmlns="http://www.w3.org/2000/svg">
<path d="M9.99967 1.04134C14.9413 1.04134 18.958 5.05801 18.958 9.99967C18.958 14.9413 14.9413 18.958 9.99967 18.958C5.05801 18.958 1.04134 14.9413 1.04134 9.99967C1.04134 5.05801 5.05801 1.04134 9.99967 1.04134ZM9.99967 17.708C14.2497 17.708 17.708 14.2497 17.708 9.99967C17.708 5.74967 14.2497 2.29134 9.99967 2.29134C5.74967 2.29134 2.29134 5.74967 2.29134 9.99967C2.29134 14.2497 5.74967 17.708 9.99967 17.708Z" fill="#9648FF"/>
<path d="M10 8.54134C10.3417 8.54134 10.625 8.82468 10.625 9.16634L10.625 13.333C10.625 13.6747 10.3417 13.958 10 13.958C9.65833 13.958 9.375 13.6747 9.375 13.333L9.375 9.16634C9.375 8.82467 9.65833 8.54134 10 8.54134Z" fill="#9648FF"/>
<path d="M9.99967 5.83359C10.108 5.83359 10.2163 5.85859 10.3163 5.90026C10.4163 5.94193 10.508 6.00026 10.5913 6.07526C10.6663 6.15859 10.7247 6.24193 10.7663 6.35026C10.808 6.45026 10.833 6.55859 10.833 6.66693C10.833 6.77526 10.808 6.88359 10.7663 6.98359C10.7247 7.08359 10.6663 7.17526 10.5913 7.25859C10.508 7.33359 10.4163 7.39193 10.3163 7.43359C10.1163 7.51693 9.88301 7.51693 9.68301 7.43359C9.58301 7.39193 9.49134 7.33359 9.40801 7.25859C9.33301 7.17526 9.27467 7.08359 9.23301 6.98359C9.19134 6.88359 9.16634 6.77526 9.16634 6.66693C9.16634 6.55859 9.19134 6.45026 9.23301 6.35026C9.27467 6.24193 9.33301 6.15859 9.40801 6.07526C9.49134 6.00026 9.58301 5.94193 9.68301 5.90026C9.78301 5.85859 9.89134 5.83359 9.99967 5.83359Z" fill="#9648FF"/>
</svg>
