<svg width="180" height="163" viewBox="0 0 180 163" fill="none" xmlns="http://www.w3.org/2000/svg">
<path fill-rule="evenodd" clip-rule="evenodd" d="M77.2576 18.3945C93.1405 17.5408 109.468 20.5596 122.376 29.8833C135.287 39.2091 144.141 53.5843 147.555 69.1723C150.768 83.8375 144.831 98.1712 140.48 112.537C136.051 127.163 134.085 143.873 122.08 153.286C109.953 162.795 93.1687 162.774 77.8152 161.672C63.4089 160.639 50.2366 155.056 38.0628 147.259C25.2059 139.025 12.3888 129.849 6.25255 115.84C-0.24483 101.006 -1.90048 83.7447 3.56468 68.498C8.93495 53.5161 22.25 43.491 35.3876 34.5589C48.0774 25.9311 61.9499 19.2173 77.2576 18.3945Z" fill="#EAFDFF"/>
<path d="M89.2705 86.8555C86.8898 87.2547 79.4053 91.0595 76.3758 92.2901C74.4919 93.0312 72.5302 93.556 70.5282 93.8543" fill="#EE726B"/>
<path d="M87.3683 99.2013C83.3091 98.0095 79.5149 100.122 73.3637 100.393C71.0814 100.487 68.7955 100.44 66.5191 100.25C66.5191 100.25 63.0938 92.5511 61.6416 90.0364C59.1418 85.7102 60.0464 82.8647 60.3916 81.8368C60.7368 80.8089 61.9154 78.8126 63.7545 79.2357C65.4299 79.6231 66.3614 81.0234 66.0549 83.0733C65.8436 84.5094 65.8555 86.3507 67.1381 88.7701C68.1827 90.7395 70.5395 93.8561 70.5395 93.8561C72.5415 93.5577 74.5033 93.033 76.3871 92.2919C79.4166 91.0613 86.907 87.2565 89.2817 86.8573" fill="#EE726B"/>
<path d="M63.7426 79.2383C64.375 79.4038 64.9327 79.7791 65.3245 80.303C65.7164 80.8268 65.9193 81.4682 65.9001 82.1224C65.8049 83.499 65.4805 84.7831 65.8138 86.1805C66.3226 88.9157 68.1439 91.1056 69.5932 93.3611C69.7093 93.519 70.2152 94.1715 70.3253 94.3175L70.7478 94.2787C71.5758 94.0529 72.3887 93.7752 73.182 93.4475C76.2323 92.2765 79.3362 90.8851 82.3448 89.598C84.6273 88.6445 86.8771 87.5689 89.2578 86.8717C86.7968 87.271 84.4577 88.2065 82.1157 89.0259C78.9791 90.179 74.8425 91.913 71.7 93.0482C71.3036 93.2098 70.8933 93.3345 70.4741 93.4206L70.8609 93.5875L70.2865 92.8546L70.3074 92.8814C68.8879 90.6885 67.0339 88.6326 66.4387 86.0464C66.2866 85.4172 66.2096 84.7721 66.2096 84.1246C66.1947 83.4513 66.3583 82.7839 66.2869 82.1045C66.2619 81.4051 65.9942 80.7362 65.5298 80.2131C65.0654 79.69 64.4334 79.3452 63.7426 79.2383Z" fill="#D65554"/>
<path d="M63.7424 79.2387C62.7038 78.9228 61.6414 79.5366 61.0194 80.3649C59.713 82.0394 59.4511 84.3425 59.8291 86.3865C60.207 88.4304 61.3467 90.2389 62.2484 92.0892C63.5816 94.8452 64.8315 97.64 66.0933 100.432L66.2034 100.673L66.4624 100.691C69.971 100.989 73.545 100.989 77.0209 100.357C80.461 99.824 83.8416 98.4028 87.3413 99.2072C84.8148 98.3342 82.068 98.8586 79.4998 99.2936C76.9404 99.7831 74.3412 100.034 71.7356 100.044C69.9917 100.044 68.2657 99.964 66.5278 99.812L66.8968 100.071C65.6529 97.2646 64.3673 94.4639 62.9657 91.7287C62.0729 89.9648 60.8379 88.2189 60.4302 86.2583C59.9779 84.3485 60.0998 82.1884 61.2069 80.5169C61.7604 79.6916 62.6948 79.0271 63.7304 79.2387H63.7424Z" fill="#D65554"/>
<path d="M80.3302 59.2991C80.3302 58.8373 78.4911 55.0414 79.3987 50.4888C80.3064 45.9361 82.6425 45.3253 84.565 42.7421C86.4874 40.1589 86.4249 39.1041 87.5082 39.0028C88.8176 38.8807 90.4574 42.757 89.3473 47.3692C88.2373 51.9815 83.5799 58.4499 83.5799 58.4499" fill="#D65554"/>
<path d="M99.7662 102.479C99.7662 102.479 85.3747 104.922 89.4517 121.118C92.2877 132.384 97.1712 128.567 101.879 143.81C101.911 143.939 101.911 144.074 101.879 144.202C101.847 144.331 101.785 144.451 101.697 144.55C101.61 144.65 101.499 144.727 101.375 144.774C101.251 144.822 101.118 144.838 100.986 144.823C97.2396 144.525 84.9998 143.631 80.7502 143.864C75.956 144.117 73.0456 146.441 73.5129 149.501C73.5376 149.64 73.611 149.766 73.7201 149.856C73.8291 149.946 73.9667 149.995 74.108 149.992L109.224 149.909C109.638 149.908 110.035 149.746 110.332 149.458C110.63 149.169 110.804 148.777 110.819 148.363C110.854 147.251 110.628 145.487 109.566 142.916C108.322 139.904 107.95 134.574 110.161 130.518C112.372 126.463 113.458 124.116 113.122 118.255" fill="#D65554"/>
<path d="M179.994 148.631C180.018 145.515 161.43 145.309 157.181 145.1C152.931 144.892 142.959 141.9 137.9 136.353C132.841 130.805 130.258 123.487 128.83 116.256C127.401 109.025 123.538 100.363 119.423 94.6427C115.307 88.9221 105.984 83.5441 100.779 80.2637C95.5738 76.9833 91.6635 75.1568 90.0654 70.193C88.4674 65.2292 88.9257 61.7223 87.7442 59.6277C86.5628 57.5332 85.0659 56.0315 83.2804 55.5369C81.4948 55.0423 78.3493 54.9827 76.3168 56.2162C74.2843 57.4497 72.4095 59.583 71.0525 60.9387C69.6955 62.2944 62.3123 69.6865 61.7707 70.5327C61.1606 71.4831 62.2616 73.4347 62.9401 74.1081C63.6186 74.7814 63.6484 74.8231 65.4934 74.6891C69.3729 74.4126 73.2188 73.7813 76.9833 72.803C76.9833 72.803 78.382 74.7695 80.6646 79.2387C82.9471 83.708 83.3816 89.1694 81.3818 96.0878C79.382 103.006 78.7035 108.286 80.2301 115.085C81.7567 121.884 89.1995 128.195 94.8983 130.319C100.597 132.443 107.144 133.352 111.206 133.534C115.268 133.716 125.193 137.783 128.663 140.756C132.133 143.73 139.635 149.993 146.667 150.952C153.699 151.911 168.733 150.892 171.944 150.654C175.155 150.416 179.979 150.329 179.994 148.631Z" fill="#EE726B"/>
<path d="M79.8515 77.6711C79.8515 77.6711 83.4642 76.5001 85.8211 82.471C88.178 88.4419 85.8956 98.9804 90.6064 106.796C95.3172 114.611 98.5579 116.303 102.974 118.147C102.974 118.147 111.625 121.61 108.256 133.292C104.352 132.887 99.3674 131.969 94.8976 130.313C89.1988 128.188 81.7441 121.875 80.2294 115.079C78.7147 108.282 79.3783 103 81.3811 96.0813C83.3839 89.163 82.9553 83.6896 80.6639 79.2323C80.3812 78.6662 80.1074 78.1508 79.8515 77.6711Z" fill="#FFDFDD"/>
<path d="M80.4641 117.313C84.0976 118.639 88.118 118.43 91.7873 117.396C92.3051 117.247 92.811 117.063 93.3198 116.899C92.0267 117.23 90.7091 117.456 89.3798 117.575C87.5387 117.719 85.6866 117.596 83.8804 117.212C82.8784 117.007 81.905 116.681 80.9819 116.24L80.4641 117.313Z" fill="#FF8380"/>
<path d="M108.991 102.479C108.991 102.479 94.1648 104.993 98.3638 121.681C101.286 133.301 106.318 129.362 111.16 145.064C111.192 145.195 111.193 145.331 111.162 145.462C111.131 145.593 111.069 145.715 110.982 145.817C110.895 145.919 110.784 145.999 110.66 146.05C110.536 146.101 110.401 146.122 110.267 146.11C106.399 145.812 93.7958 144.886 89.4123 145.118C84.4753 145.383 81.4726 147.776 81.9547 150.928C81.9762 151.07 82.0483 151.2 82.1577 151.293C82.2671 151.386 82.4063 151.436 82.5499 151.435L118.725 151.342C119.152 151.342 119.563 151.177 119.871 150.88C120.179 150.583 120.36 150.179 120.377 149.751C120.412 148.607 120.18 146.789 119.088 144.141C117.805 141.036 117.424 135.53 119.713 131.365C122.001 127.199 123.108 124.768 122.763 118.729" fill="#EE726B"/>
<path d="M83.7386 60.3451C83.7386 60.3451 92.7168 58.337 97.2044 55.2055C101.692 52.0741 103.245 47.4588 102.022 46.565C101.008 45.8201 100.255 46.7855 96.6182 47.5363C92.9817 48.2871 90.4998 47.0149 86.2294 50.2536C81.959 53.4923 80.6318 58.1701 80.2777 58.5753L83.7386 60.3451Z" fill="#EE726B"/>
<path d="M83.8891 56.709C83.8891 56.709 86.3531 53.226 88.4333 52.1534C90.5134 51.0808 91.9299 51.5575 93.7899 51.191C95.6498 50.8246 97.846 49.7698 98.2537 50.172C98.9471 50.8663 96.1051 53.515 91.9626 55.2819C89.7158 56.2413 85.7698 56.6703 84.7759 57.4688C84.6794 57.3044 84.5646 57.1515 84.4337 57.013C84.2733 56.8775 84.0884 56.7743 83.8891 56.709Z" fill="#D65554"/>
<path d="M61.7458 69.9293C61.0167 70.4299 60.5762 71.157 60.853 71.5652C61.1298 71.9734 62.478 72.5873 62.9363 72.4025C63.6565 72.1045 63.9958 70.5878 63.8113 69.9353C63.6268 69.2827 62.1565 69.6492 61.7458 69.9293Z" fill="black"/>
<path d="M63.0815 74.679C65.3494 74.4466 67.5845 73.2994 68.7363 71.291C68.0703 72.1555 67.1842 72.8245 66.1709 73.2279C65.1928 73.6256 64.1427 73.8153 63.0875 73.7851V74.679H63.0815Z" fill="black"/>
<path d="M73.5294 73.6046C75.0719 73.571 76.6034 73.3377 78.086 72.9103C78.6246 72.7751 79.1481 72.5854 79.6485 72.3442C80.5949 71.7482 81.0264 70.5563 81.0532 69.5312C80.726 70.1956 80.2893 70.8 79.7615 71.3191C79.5883 71.4775 79.3862 71.6009 79.1663 71.6827C77.2734 72.2458 75.3151 72.7166 73.5324 73.6165L73.5294 73.6046Z" fill="#D65554"/>
<path d="M80.6873 58.7433C81.6159 56.1866 82.8122 53.624 84.6782 51.5918C83.6338 52.5196 82.7153 53.5805 81.9462 54.7474C81.1618 55.9145 80.4654 57.1386 79.863 58.4095L80.6933 58.7343L80.6873 58.7433Z" fill="#D65554"/>
<path d="M83.8243 60.7824C86.25 60.0874 88.6264 59.2303 90.9375 58.2168C89.747 58.6071 88.5268 58.9111 87.3065 59.1852C86.0863 59.4594 84.8541 59.7007 83.6279 59.9093L83.8243 60.7824Z" fill="#D65554"/>
<path d="M119.133 144.148C118.227 141.006 118.18 137.679 118.996 134.513C119.505 132.361 120.8 130.592 121.675 128.58C123.109 125.529 123.314 122.005 122.814 118.748C122.743 120.95 122.63 123.152 122.053 125.228C121.475 127.305 120.455 129.218 119.389 131.137C118.365 133.147 117.81 135.364 117.767 137.62C117.724 139.876 118.193 142.112 119.139 144.16L119.133 144.148Z" fill="#D65554"/>
<path d="M109.033 102.479C105.884 102.994 102.98 104.499 100.742 106.775C96.8911 110.729 96.6352 116.792 97.9922 121.86C98.7719 124.92 100.046 127.989 102.218 130.352C102.911 131.156 103.646 131.892 104.352 132.655C107.229 135.679 109.113 139.433 110.637 143.295C110.041 141.285 109.288 139.325 108.384 137.434C107.443 135.542 106.263 133.78 104.872 132.19C103.504 130.596 102.025 129.142 101.051 127.351C100.067 125.555 99.3278 123.634 98.8552 121.64C96.421 112.579 99.6825 105.077 109.033 102.479Z" fill="#D65554"/>
<path d="M82.2911 150.946C82.2911 149.754 82.7524 148.38 83.8774 147.775C82.925 148.109 82.2822 148.994 81.9518 149.924C81.8341 150.244 81.7483 150.576 81.6958 150.913L82.2911 150.946Z" fill="#D65554"/>
<path d="M82.5687 151.404C82.6758 150.57 82.9437 149.506 83.8306 149.193C83.5913 149.221 83.3629 149.309 83.1669 149.45C82.5922 149.928 82.1769 150.57 81.9764 151.291L82.5717 151.404H82.5687Z" fill="#D65554"/>
<path d="M70.5044 77.1348L69.0612 78.422" stroke="#D65554" stroke-width="3" stroke-linecap="round" stroke-linejoin="round"/>
<path d="M64.7929 76.3262L65.9062 77.9025" stroke="#D65554" stroke-width="3" stroke-linecap="round" stroke-linejoin="round"/>
<path d="M67.5042 75.9043L67.5786 77.8382" stroke="#D65554" stroke-width="3" stroke-linecap="round" stroke-linejoin="round"/>
<path d="M63.0854 75.9492L62.6837 77.8414" stroke="#D65554" stroke-width="3" stroke-linecap="round" stroke-linejoin="round"/>
<path d="M58.0059 78.6797L59.8394 79.2905" stroke="#D65554" stroke-width="3" stroke-linecap="round" stroke-linejoin="round"/>
<path d="M59.943 76.7324L61.1455 78.2462" stroke="#D65554" stroke-width="3" stroke-linecap="round" stroke-linejoin="round"/>
<path d="M75.0305 63.0682C75.0067 63.092 74.9769 63.1099 74.965 63.1427C74.9531 63.1755 74.965 63.1427 74.965 63.1784C74.9735 63.1837 74.9833 63.1865 74.9933 63.1865C75.0033 63.1865 75.013 63.1837 75.0215 63.1784C75.4362 62.8776 75.8787 62.6172 76.3429 62.4007C76.8399 62.1772 77.3072 62.0759 77.8667 61.8644C77.6148 61.6378 77.3019 61.4904 76.9669 61.4406C76.6319 61.3908 76.2896 61.4408 75.9828 61.5843C75.6838 61.7081 75.4275 61.9169 75.2456 62.1848C75.0637 62.4527 74.9641 62.7681 74.959 63.092C74.9638 63.0864 74.9696 63.0819 74.9763 63.0787C74.983 63.0756 74.9903 63.074 74.9977 63.074C75.005 63.074 75.0123 63.0756 75.019 63.0787C75.0257 63.0819 75.0316 63.0864 75.0363 63.092C75.0542 63.1188 75.0363 63.1218 75.0363 63.1248C75.0246 63.0997 75.0148 63.0738 75.0067 63.0473L75.0305 63.0682Z" fill="black"/>
<path d="M97.8105 88.2682C95.3554 88.6824 87.6151 92.6153 84.4815 93.8845C82.5352 94.6529 80.5072 95.1948 78.4374 95.4994C78.4374 95.4994 75.2919 89.0667 74.1313 86.3017C72.1345 81.5346 69.227 80.5037 68.1795 80.1461C67.132 79.7886 64.7394 79.5145 63.9389 81.2962C63.2098 82.92 63.7722 84.5528 65.656 85.5896C66.9713 86.3107 68.4741 87.4667 69.6644 90.041C70.6346 92.1267 71.4499 95.568 73.2622 99.8346L74.2919 102.111C76.6494 102.308 79.017 102.357 81.3806 102.257C87.7401 101.959 91.6593 99.7958 95.8554 101.017" fill="#EE726B"/>
<path d="M63.7997 83.77C65.3057 83.332 67.0735 83.4959 68.3413 84.4733C67.7402 83.8917 66.9955 83.4804 66.1836 83.2814C65.3539 83.0758 64.4911 83.0423 63.648 83.183L63.7997 83.7581V83.77Z" fill="#D65554"/>
<path d="M63.7503 82.1882C65.2562 81.7502 67.0241 81.9111 68.292 82.8914C67.6909 82.3099 66.9462 81.8985 66.1343 81.6995C65.305 81.491 64.4415 81.4575 63.5986 81.6012L63.7503 82.1763V82.1882Z" fill="#D65554"/>
<path d="M64.3939 80.9204C65.8999 80.4824 67.6677 80.6463 68.9355 81.6237C68.3344 81.0421 67.5898 80.6307 66.7778 80.4317C65.9481 80.2262 65.0853 80.1927 64.2422 80.3334L64.3939 80.9085V80.9204Z" fill="#D65554"/>
<path d="M63.9271 81.296C63.1265 82.753 63.6978 84.4781 65.0221 85.4048C65.4298 85.7027 65.8763 85.9411 66.284 86.242C67.8969 87.3772 68.9623 89.1053 69.6497 90.9466C70.9472 94.7276 72.0959 98.6784 73.8785 102.292L73.9855 102.531L74.2474 102.552C77.8691 102.85 81.5681 102.85 85.1601 102.212C88.7103 101.664 92.2188 100.198 95.8286 101.02C92.32 99.8493 88.5793 101.113 85.0559 101.536C83.2811 101.782 81.4911 101.903 79.6993 101.896C77.8988 101.896 76.1133 101.819 74.3158 101.661L74.6849 101.917L74.0659 100.544C72.5571 97.3495 71.6137 93.9589 70.3162 90.6725C69.5425 88.7656 68.3075 86.9601 66.5398 85.8547C66.1202 85.5805 65.647 85.3809 65.2274 85.1068C64.5829 84.7383 64.0953 84.1465 63.8563 83.443C63.6173 82.7394 63.6435 81.9726 63.93 81.2871L63.9271 81.296Z" fill="#D65554"/>
<path d="M63.927 81.2965C64.6352 79.8842 66.4595 79.8366 67.7956 80.2269C70.1377 80.9241 71.938 82.7684 73.057 84.8987C73.923 86.6387 74.6343 88.5665 75.4794 90.3125C76.3722 92.2074 77.265 94.1024 78.1845 95.9735C81.7884 95.5742 85.1779 94.1381 88.3681 92.5203C90.5733 91.4685 94.3199 89.5557 96.5727 88.6797C96.9741 88.5216 97.3845 88.3872 97.8018 88.2775C96.0906 88.5754 94.4747 89.2607 92.8647 89.8804C89.7132 91.1169 86.5141 92.7258 83.3418 93.8849C81.7345 94.4234 80.0822 94.8163 78.4048 95.0588L78.8452 95.3031C77.6251 92.7407 75.5062 88.4503 74.3813 85.8998C73.3516 83.5937 71.703 81.4306 69.3223 80.3639C67.6319 79.5654 64.8107 79.2198 63.9239 81.2935L63.927 81.2965Z" fill="#D65554"/>
<rect x="5.07959" y="1" width="35.0034" height="35.0034" rx="17.5017" fill="#FF6961"/>
<path d="M31.3312 16.7511L31.3319 21.1261C31.3326 25.5011 29.5829 27.2514 25.2079 27.2521L19.9579 27.2529C15.5829 27.2536 13.8326 25.5039 13.8319 21.1289L13.8311 15.8789C13.8304 11.5039 15.5801 9.75362 19.9551 9.75292L24.3301 9.75222" stroke="white" stroke-width="1.5" stroke-linecap="round" stroke-linejoin="round"/>
<path d="M31.3312 16.7508L27.8312 16.7514C25.2062 16.7518 24.3311 15.877 24.3306 13.252L24.3301 9.75195L31.3312 16.7508Z" stroke="white" stroke-width="1.5" stroke-linecap="round" stroke-linejoin="round"/>
<path d="M18.2065 19.377L23.4565 19.3761" stroke="white" stroke-width="1.5" stroke-linecap="round" stroke-linejoin="round"/>
<path d="M18.207 22.877L21.707 22.8764" stroke="white" stroke-width="1.5" stroke-linecap="round" stroke-linejoin="round"/>
<rect x="5.07959" y="1" width="35.0034" height="35.0034" rx="17.5017" stroke="#FF6961" stroke-width="2"/>
<rect x="21.5815" y="37.0039" width="2" height="8.36007" fill="#FF6961"/>
<rect x="5.00586" y="46.3633" width="35.1513" height="35.1513" rx="17.5756" fill="#FF6961"/>
<path d="M17.0703 60.3061C17.0477 60.2928 17.0326 60.2839 17.0099 60.2706C16.7227 60.0513 16.6602 59.6392 16.872 59.3475C18.2673 57.4373 20.4228 56.2371 22.7859 56.0313C23.1488 56.0008 23.468 56.2694 23.4985 56.6323C23.529 56.9952 23.2604 57.3144 22.8976 57.3449C20.9137 57.5095 19.1001 58.5248 17.9255 60.1283C17.7345 60.4018 17.357 60.4744 17.0703 60.3061Z" fill="white"/>
<path d="M19.3335 71.2623C18.2167 70.6067 17.3033 69.7255 16.5996 68.6428C16.4046 68.3355 16.4907 67.9295 16.798 67.7345C17.1052 67.5395 17.5113 67.6256 17.7063 67.9329C18.8534 69.7122 20.8064 70.879 22.9166 71.0523C23.2755 71.0804 23.5442 71.4005 23.5161 71.7594C23.488 72.1183 23.168 72.387 22.809 72.359C21.5685 72.2598 20.405 71.8913 19.3335 71.2623Z" fill="white"/>
<path d="M25.6106 60.5708C24.1391 59.707 23.6468 57.8148 24.5105 56.3434C25.3743 54.8719 27.2665 54.3796 28.7379 55.2434C30.2094 56.1071 30.7017 57.9993 29.8379 59.4707C28.9742 60.9422 27.0745 61.4301 25.6106 60.5708ZM28.069 56.3828C27.2239 55.8867 26.1341 56.1702 25.638 57.0154C25.1419 57.8605 25.4255 58.9503 26.2706 59.4464C27.1157 59.9425 28.2055 59.659 28.7016 58.8138C29.1978 57.9687 28.9066 56.8745 28.069 56.3828Z" fill="white"/>
<path d="M14.737 66.5962C13.2656 65.7324 12.7732 63.8402 13.637 62.3688C14.4964 60.9049 16.3929 60.405 17.8644 61.2688C19.3358 62.1325 19.8282 64.0247 18.9644 65.4961C18.1051 66.96 16.2085 67.4599 14.737 66.5962ZM17.1999 62.4006C16.3548 61.9045 15.265 62.1881 14.7689 63.0332C14.2728 63.8784 14.5563 64.9681 15.4015 65.4643C16.2466 65.9604 17.3364 65.6768 17.8325 64.8317C18.3287 63.9865 18.0451 62.8968 17.1999 62.4006Z" fill="white"/>
<path d="M25.5578 72.9477C24.0864 72.0839 23.594 70.1918 24.4578 68.7203C25.3172 67.2564 27.2137 66.7565 28.6852 67.6203C30.1566 68.4841 30.649 70.3762 29.7852 71.8477C28.9183 73.3072 27.0217 73.8071 25.5578 72.9477ZM28.0207 68.7522C27.1756 68.2561 26.0858 68.5396 25.5897 69.3848C25.0936 70.2299 25.3771 71.3197 26.2223 71.8158C27.0674 72.312 28.1572 72.0284 28.6533 71.1832C29.1419 70.3337 28.8659 69.2483 28.0207 68.7522Z" fill="white"/>
<rect x="5.00586" y="46.3633" width="35.1513" height="35.1513" rx="17.5756" stroke="#FF6961" stroke-width="2"/>
<rect x="21.5815" y="82.5156" width="2" height="8.36007" fill="#FFC3C0"/>
<rect x="5.01904" y="91.875" width="35.1252" height="35.1252" rx="17.5626" fill="#FF6961"/>
<path d="M26.9118 116.9L18.1619 116.848C15.537 116.832 13.7949 115.51 13.8132 112.447L13.8498 106.322C13.8681 103.26 15.6259 101.958 18.2509 101.973L27.0007 102.026C29.6257 102.041 31.3678 103.364 31.3495 106.427L31.3129 112.552C31.2946 115.614 29.5367 116.916 26.9118 116.9Z" stroke="white" stroke-width="2" stroke-miterlimit="10" stroke-linecap="round" stroke-linejoin="round"/>
<path d="M26.972 106.839L24.2202 109.011C23.3147 109.723 21.836 109.714 20.939 108.991L18.2222 106.787" stroke="white" stroke-width="2" stroke-miterlimit="10" stroke-linecap="round" stroke-linejoin="round"/>
<rect x="5.01904" y="91.875" width="35.1252" height="35.1252" rx="17.5626" stroke="#FF6961" stroke-width="2"/>
<path d="M37.4606 14.7512L39.5753 13.0845C40.0112 12.741 40.6435 12.8182 40.984 13.2564L45.0267 18.4602C45.3654 18.8963 45.9935 18.9752 46.4297 18.6365L60.413 7.77773C60.8356 7.44956 61.4417 7.51218 61.7882 7.91985L63.7388 10.2143C64.1066 10.647 64.0408 11.2987 63.5938 11.649L45.8687 25.5428C45.433 25.8844 44.8026 25.8069 44.4626 25.3698L37.2903 16.1506C36.9526 15.7166 37.0287 15.0915 37.4606 14.7512Z" fill="#7AC098" stroke="#4DAB75" stroke-width="2"/>
<path d="M37.4606 60.1652L39.5753 58.4986C40.0112 58.1551 40.6435 58.2322 40.984 58.6705L45.0267 63.8743C45.3654 64.3104 45.9935 64.3893 46.4297 64.0506L60.413 53.1918C60.8356 52.8636 61.4417 52.9262 61.7882 53.3339L63.7388 55.6284C64.1066 56.061 64.0408 56.7128 63.5938 57.0631L45.8687 70.9569C45.433 71.2985 44.8026 71.2209 44.4626 70.7839L37.2903 61.5647C36.9526 61.1307 37.0287 60.5056 37.4606 60.1652Z" fill="#7AC098" stroke="#4DAB75" stroke-width="2"/>
<path d="M37.4606 105.581L39.5753 103.915C40.0112 103.571 40.6435 103.648 40.984 104.087L45.0267 109.29C45.3654 109.726 45.9935 109.805 46.4297 109.467L60.413 98.6078C60.8356 98.2796 61.4417 98.3423 61.7882 98.7499L63.7388 101.044C64.1066 101.477 64.0408 102.129 63.5938 102.479L45.8687 116.373C45.433 116.715 44.8026 116.637 44.4626 116.2L37.2903 106.981C36.9526 106.547 37.0287 105.922 37.4606 105.581Z" fill="#7AC098" stroke="#4DAB75" stroke-width="2"/>
</svg>
