<svg width="24" height="24" viewBox="0 0 24 24" fill="none" xmlns="http://www.w3.org/2000/svg">
<path d="M3.09428 12.0063L3.09428 12.0063C3.09545 13.646 3.49194 15.2625 4.24582 16.6952C4.25595 16.7144 4.26615 16.7336 4.27641 16.7528L3.35271 20.291C3.1485 21.0732 3.86774 21.7831 4.64718 21.5686L8.07282 20.6262C8.08041 20.6304 8.08801 20.6345 8.09562 20.6387C9.42234 21.365 10.9128 21.7493 12.4184 21.75H12.4188H12.4227H12.4231C17.5998 21.7475 21.748 17.3425 21.75 12.0034V12.0034C21.7509 9.4121 20.7885 6.96491 19.0329 5.12117L19.0328 5.12104C17.2755 3.27632 14.9258 2.25127 12.4222 2.25H12.4218C7.24982 2.25009 3.10155 6.65007 3.09428 11.9859V11.9869V11.9963V11.9965L3.09428 12.0063ZM8.1178 20.5982L8.11635 20.6008L8.1178 20.5982L8.18059 20.4835L8.1178 20.5982Z" stroke="#667C98" stroke-width="1.5"/>
<path d="M12.4538 16.3127C13.7807 16.8616 14.4242 16.9741 14.8429 16.9741C14.997 16.9741 15.1209 16.9588 15.237 16.9444C15.2738 16.9398 15.3094 16.9354 15.3455 16.932C15.9134 16.8778 16.9754 16.246 17.2228 15.5182C17.3936 15.0158 17.4966 14.3329 17.3185 14.0195C17.2083 13.8271 17.0339 13.7387 16.8321 13.6364L16.831 13.6358L16.7138 13.5758C16.7011 13.5689 15.396 12.8887 15.1331 12.7883C14.9531 12.7194 14.4747 12.5367 14.1312 13.0772C14.0198 13.2526 13.6917 13.6659 13.4927 13.9067C13.4878 13.9126 13.4797 13.9143 13.4729 13.9107C13.4304 13.8888 13.3732 13.8622 13.3023 13.8299L13.3018 13.8296C12.9945 13.6896 12.4232 13.4292 11.756 12.8052C11.3566 12.4315 11.0386 11.9995 10.8243 11.6685C10.6982 11.4738 10.7278 11.2167 10.871 11.0342C10.908 10.9873 10.9449 10.9399 10.9812 10.8956C11.1111 10.7359 11.17 10.6098 11.2323 10.4765L11.2624 10.4125C11.3843 10.1571 11.3779 9.88484 11.2447 9.60485C11.2228 9.55687 11.119 9.28856 11.0273 9.0514L11.0268 9.0502L11.0215 9.03654C10.8684 8.64068 10.6801 8.15414 10.5628 7.87932C10.5613 7.87556 10.5598 7.87179 10.5581 7.86803C10.3151 7.30119 9.98009 7.21215 9.68537 7.19952C9.55701 7.19354 9.41112 7.19487 9.2646 7.19354H9.2361C9.07734 7.19354 8.67072 7.23629 8.32511 7.63235L8.28458 7.6782C8.02785 7.96527 7.427 8.63754 7.427 9.89924C7.427 11.0719 8.12602 12.1792 8.42835 12.6034C8.43574 12.6145 8.4482 12.6342 8.46572 12.6612C9.59712 14.4199 11.0133 15.7169 12.4538 16.3127Z" stroke="#667C98" stroke-width="1.5"/>
</svg>
