<svg width="40" height="40" viewBox="0 0 40 40" fill="none" xmlns="http://www.w3.org/2000/svg">
<path d="M25.4277 20.7908C26.0679 20.7908 26.5869 20.2718 26.5869 19.6316C26.5869 18.9915 26.0679 18.4725 25.4277 18.4725C24.7875 18.4725 24.2686 18.9915 24.2686 19.6316C24.2686 20.2718 24.7875 20.7908 25.4277 20.7908Z" stroke="#667C98" stroke-width="1.33333" stroke-linecap="round" stroke-linejoin="round"/>
<path d="M28.6668 13.5V15.4391C28.3959 15.4066 28.0818 15.385 27.7459 15.385H23.1093C20.7909 15.385 20.0218 16.1542 20.0218 18.4725V24.0083H13.5001C10.0334 24.0083 9.16675 23.1417 9.16675 19.675V13.5C9.16675 10.0333 10.0334 9.16663 13.5001 9.16663H24.3334C27.8001 9.16663 28.6668 10.0333 28.6668 13.5Z" stroke="#667C98" stroke-width="1.33333" stroke-linecap="round" stroke-linejoin="round"/>
<path d="M16.75 24.0084V28.6668" stroke="#667C98" stroke-width="1.33333" stroke-linecap="round" stroke-linejoin="round"/>
<path d="M9.16675 19.8917H20.0001" stroke="#667C98" stroke-width="1.33333" stroke-linecap="round" stroke-linejoin="round"/>
<path d="M13.4458 28.6667H20" stroke="#667C98" stroke-width="1.33333" stroke-linecap="round" stroke-linejoin="round"/>
<path d="M25.4275 20.7908C26.0677 20.7908 26.5866 20.2718 26.5866 19.6316C26.5866 18.9915 26.0677 18.4725 25.4275 18.4725C24.7873 18.4725 24.2683 18.9915 24.2683 19.6316C24.2683 20.2718 24.7873 20.7908 25.4275 20.7908Z" stroke="#667C98" stroke-width="1.33333" stroke-miterlimit="10" stroke-linecap="round" stroke-linejoin="round"/>
<path d="M28.6668 15.4392C28.3959 15.4067 28.0817 15.385 27.7459 15.385H23.1092C20.7909 15.385 20.0217 16.1542 20.0217 18.4726V27.7459C20.0217 30.0642 20.7909 30.8334 23.1092 30.8334H27.7459C30.0643 30.8334 30.8334 30.0642 30.8334 27.7459V18.4726C30.8334 16.4901 30.2701 15.645 28.6668 15.4392ZM25.4276 18.4726C26.0668 18.4726 26.5867 18.9925 26.5867 19.6317C26.5867 20.2708 26.0668 20.7908 25.4276 20.7908C24.7884 20.7908 24.2684 20.2708 24.2684 19.6317C24.2684 18.9925 24.7884 18.4726 25.4276 18.4726ZM25.4276 27.7459C24.1493 27.7459 23.1092 26.7059 23.1092 25.4275C23.1092 24.8967 23.2934 24.3984 23.5968 24.0084C24.0193 23.4667 24.6801 23.1092 25.4276 23.1092C26.0126 23.1092 26.5434 23.3259 26.9443 23.6725C27.4318 24.1059 27.7459 24.7342 27.7459 25.4275C27.7459 26.7059 26.7059 27.7459 25.4276 27.7459Z" stroke="#667C98" stroke-width="1.33333" stroke-miterlimit="10" stroke-linecap="round" stroke-linejoin="round"/>
<path d="M27.7458 25.4276C27.7458 26.7059 26.7058 27.746 25.4275 27.746C24.1491 27.746 23.1091 26.7059 23.1091 25.4276C23.1091 24.8968 23.2933 24.3984 23.5966 24.0084C24.0191 23.4668 24.68 23.1093 25.4275 23.1093C26.0125 23.1093 26.5433 23.3259 26.9441 23.6726C27.4316 24.1059 27.7458 24.7343 27.7458 25.4276Z" stroke="#667C98" stroke-width="1.33333" stroke-miterlimit="10" stroke-linecap="round" stroke-linejoin="round"/>
<path d="M25.4275 20.7908C26.0677 20.7908 26.5866 20.2718 26.5866 19.6316C26.5866 18.9915 26.0677 18.4725 25.4275 18.4725C24.7873 18.4725 24.2683 18.9915 24.2683 19.6316C24.2683 20.2718 24.7873 20.7908 25.4275 20.7908Z" stroke="#667C98" stroke-width="1.33333" stroke-miterlimit="10" stroke-linecap="round" stroke-linejoin="round"/>
<rect x="0.75" y="0.75" width="38.5" height="38.5" rx="19.25" stroke="#667C98" stroke-width="1.5"/>
</svg>
