<svg width="24" height="25" viewBox="0 0 24 25" fill="none" xmlns="http://www.w3.org/2000/svg">
<path d="M12 2.71484C6.49 2.71484 2 7.20484 2 12.7148C2 18.2248 6.49 22.7148 12 22.7148C17.51 22.7148 22 18.2248 22 12.7148C22 7.20484 17.51 2.71484 12 2.71484ZM15.36 15.0148C15.65 15.3048 15.65 15.7848 15.36 16.0748C15.21 16.2248 15.02 16.2948 14.83 16.2948C14.64 16.2948 14.45 16.2248 14.3 16.0748L12 13.7748L9.7 16.0748C9.55 16.2248 9.36 16.2948 9.17 16.2948C8.98 16.2948 8.79 16.2248 8.64 16.0748C8.35 15.7848 8.35 15.3048 8.64 15.0148L10.94 12.7148L8.64 10.4148C8.35 10.1248 8.35 9.64484 8.64 9.35484C8.93 9.06484 9.41 9.06484 9.7 9.35484L12 11.6548L14.3 9.35484C14.59 9.06484 15.07 9.06484 15.36 9.35484C15.65 9.64484 15.65 10.1248 15.36 10.4148L13.06 12.7148L15.36 15.0148Z" fill="#E55E5E"/>
</svg>
