<svg width="24" height="24" viewBox="0 0 24 24" fill="none" xmlns="http://www.w3.org/2000/svg">
<path fill-rule="evenodd" clip-rule="evenodd" d="M7.9703 9.02901C9.66784 8.84791 11.3996 9.53188 12.6919 10.6032C13.9259 11.6262 14.2792 13.2263 14.8155 14.7038C15.3653 16.2184 16.389 17.7754 15.8458 19.2922C15.3043 20.8045 13.514 21.4436 12.0993 22.2892C10.795 23.0688 9.5069 24.0217 7.9703 23.9996C6.44418 23.9777 5.18233 23.0092 3.93012 22.172C2.65083 21.3168 1.29651 20.482 0.66376 19.1149C-0.00938688 17.6605 -0.27395 15.9356 0.363873 14.4666C0.983317 13.0399 2.66284 12.4588 3.95467 11.5353C5.26728 10.597 6.34336 9.20257 7.9703 9.02901Z" fill="#FFC3C0"/>
<path d="M8.67188 14.3298C8.67188 15.6198 9.66188 16.6598 10.8919 16.6598H13.4019C14.4719 16.6598 15.3419 15.7498 15.3419 14.6298C15.3419 13.4098 14.8119 12.9798 14.0219 12.6998L9.99187 11.2998C9.20187 11.0198 8.67188 10.5898 8.67188 9.36984C8.67188 8.24984 9.54187 7.33984 10.6119 7.33984H13.1219C14.3519 7.33984 15.3419 8.37984 15.3419 9.66984" stroke="#002454" stroke-width="1.5" stroke-linecap="round" stroke-linejoin="round"/>
<path d="M12 6V18" stroke="#002454" stroke-width="1.5" stroke-linecap="round" stroke-linejoin="round"/>
<path d="M12 22C17.5228 22 22 17.5228 22 12C22 6.47715 17.5228 2 12 2C6.47715 2 2 6.47715 2 12C2 17.5228 6.47715 22 12 22Z" stroke="#002454" stroke-width="1.5" stroke-linecap="round" stroke-linejoin="round"/>
</svg>
