<svg width="24" height="24" viewBox="0 0 24 24" fill="none" xmlns="http://www.w3.org/2000/svg">
<path d="M5.53803 19.5196C4.92803 19.5196 4.35803 19.3096 3.94803 18.9196C3.42803 18.4296 3.17803 17.6896 3.26803 16.8896L3.63803 13.6496C3.70803 13.0396 4.07803 12.2296 4.50803 11.7896L12.718 3.09956C14.768 0.929561 16.908 0.869561 19.078 2.91956C21.248 4.96956 21.308 7.10956 19.258 9.27956L11.048 17.9696C10.628 18.4196 9.84803 18.8396 9.23803 18.9396L6.01803 19.4896C5.84803 19.4996 5.69803 19.5196 5.53803 19.5196ZM15.928 2.90956C15.158 2.90956 14.488 3.38956 13.808 4.10956L5.59803 12.8096C5.39803 13.0196 5.16803 13.5196 5.12803 13.8096L4.75803 17.0496C4.71803 17.3796 4.79803 17.6496 4.97803 17.8196C5.15803 17.9896 5.42803 18.0496 5.75803 17.9996L8.97803 17.4496C9.26803 17.3996 9.74803 17.1396 9.94803 16.9296L18.158 8.23956C19.398 6.91956 19.848 5.69956 18.038 3.99956C17.238 3.22956 16.548 2.90956 15.928 2.90956Z" fill="#667C98"/>
<path d="M17.3365 10.9508C17.3165 10.9508 17.2865 10.9508 17.2665 10.9508C14.1465 10.6408 11.6365 8.27083 11.1565 5.17083C11.0965 4.76083 11.3765 4.38083 11.7865 4.31083C12.1965 4.25083 12.5765 4.53083 12.6465 4.94083C13.0265 7.36083 14.9865 9.22083 17.4265 9.46083C17.8365 9.50083 18.1365 9.87083 18.0965 10.2808C18.0465 10.6608 17.7165 10.9508 17.3365 10.9508Z" fill="#667C98"/>
<path d="M21 22.75H3C2.59 22.75 2.25 22.41 2.25 22C2.25 21.59 2.59 21.25 3 21.25H21C21.41 21.25 21.75 21.59 21.75 22C21.75 22.41 21.41 22.75 21 22.75Z" fill="#667C98"/>
</svg>
