<svg width="12" height="12" viewBox="0 0 12 12" fill="none" xmlns="http://www.w3.org/2000/svg">
<path d="M4.66753 5.44444C3.99198 5.44444 3.44531 4.89778 3.44531 4.22222C3.44531 3.54667 3.99198 3 4.66753 3C5.34309 3 5.88976 3.54667 5.88976 4.22222C5.88976 4.89778 5.34309 5.44444 4.66753 5.44444ZM4.66753 3.66667C4.36087 3.66667 4.11198 3.91556 4.11198 4.22222C4.11198 4.52889 4.36087 4.77778 4.66753 4.77778C4.9742 4.77778 5.22309 4.52889 5.22309 4.22222C5.22309 3.91556 4.9742 3.66667 4.66753 3.66667Z" fill="#FF6961"/>
<path d="M7.33377 10.7782H4.6671C2.25377 10.7782 1.22266 9.7471 1.22266 7.33377V4.6671C1.22266 2.25377 2.25377 1.22266 4.6671 1.22266H6.44488C6.6271 1.22266 6.77821 1.37377 6.77821 1.55599C6.77821 1.73821 6.6271 1.88932 6.44488 1.88932H4.6671C2.61821 1.88932 1.88932 2.61821 1.88932 4.6671V7.33377C1.88932 9.38266 2.61821 10.1115 4.6671 10.1115H7.33377C9.38266 10.1115 10.1115 9.38266 10.1115 7.33377V5.11155C10.1115 4.92932 10.2627 4.77821 10.4449 4.77821C10.6271 4.77821 10.7782 4.92932 10.7782 5.11155V7.33377C10.7782 9.7471 9.7471 10.7782 7.33377 10.7782Z" fill="#FF6961"/>
<path d="M10.1137 3.22233H7.66927C7.48705 3.22233 7.33594 3.07122 7.33594 2.889C7.33594 2.70678 7.48705 2.55566 7.66927 2.55566H10.1137C10.2959 2.55566 10.447 2.70678 10.447 2.889C10.447 3.07122 10.2959 3.22233 10.1137 3.22233Z" fill="#FF6961"/>
<path d="M8.89193 4.4451C8.7097 4.4451 8.55859 4.29398 8.55859 4.11176V1.66732C8.55859 1.4851 8.7097 1.33398 8.89193 1.33398C9.07415 1.33398 9.22526 1.4851 9.22526 1.66732V4.11176C9.22526 4.29398 9.07415 4.4451 8.89193 4.4451Z" fill="#FF6961"/>
<path d="M1.85563 9.42268C1.74897 9.42268 1.6423 9.36935 1.58008 9.27602C1.47786 9.1249 1.51786 8.91602 1.66897 8.81379L3.86008 7.34268C4.34008 7.02268 5.0023 7.05824 5.43786 7.42713L5.58452 7.55602C5.80675 7.74713 6.18452 7.74713 6.4023 7.55602L8.25119 5.96935C8.72675 5.5649 9.46452 5.5649 9.94008 5.96935L10.6645 6.59157C10.8023 6.71157 10.8201 6.92046 10.7001 7.06268C10.5801 7.20046 10.3712 7.21824 10.229 7.09824L9.50452 6.47602C9.2823 6.2849 8.90452 6.2849 8.68675 6.47602L6.83786 8.06268C6.36675 8.46713 5.62452 8.46713 5.14897 8.06268L5.0023 7.93379C4.79786 7.76046 4.46008 7.74268 4.23341 7.89824L2.04674 9.36935C1.98452 9.4049 1.91786 9.42268 1.85563 9.42268Z" fill="#FF6961"/>
</svg>
