<svg width="25" height="24" viewBox="0 0 25 24" fill="none" xmlns="http://www.w3.org/2000/svg">
<path d="M13.0121 20.5319C10.6821 20.5319 8.35206 20.1619 6.14206 19.4219C5.30206 19.1319 4.66206 18.5419 4.38206 17.7719C4.09206 17.0019 4.19206 16.1519 4.65206 15.3919L5.80206 13.4819C6.04206 13.0819 6.26206 12.2819 6.26206 11.8119V8.92188C6.26206 5.20187 9.29206 2.17188 13.0121 2.17188C16.7321 2.17188 19.7621 5.20187 19.7621 8.92188V11.8119C19.7621 12.2719 19.9821 13.0819 20.2221 13.4919L21.3621 15.3919C21.7921 16.1119 21.8721 16.9819 21.5821 17.7719C21.2921 18.5619 20.6621 19.1619 19.8721 19.4219C17.6721 20.1619 15.3421 20.5319 13.0121 20.5319ZM13.0121 3.67188C10.1221 3.67188 7.76206 6.02187 7.76206 8.92188V11.8119C7.76206 12.5419 7.46206 13.6219 7.09206 14.2519L5.94206 16.1619C5.72206 16.5319 5.66206 16.9219 5.79206 17.2519C5.91206 17.5919 6.21206 17.8519 6.62206 17.9919C10.8021 19.3919 15.2321 19.3919 19.4121 17.9919C19.7721 17.8719 20.0521 17.6019 20.1821 17.2419C20.3121 16.8819 20.2821 16.4919 20.0821 16.1619L18.9321 14.2519C18.5521 13.6019 18.2621 12.5319 18.2621 11.8019V8.92188C18.2621 6.02187 15.9121 3.67188 13.0121 3.67188Z" fill="#667C98"/>
<path d="M14.8689 3.93969C14.7989 3.93969 14.7289 3.92969 14.6589 3.90969C14.3689 3.82969 14.0889 3.76969 13.8189 3.72969C12.9689 3.61969 12.1489 3.67969 11.3789 3.90969C11.0989 3.99969 10.7989 3.90969 10.6089 3.69969C10.4189 3.48969 10.3589 3.18969 10.4689 2.91969C10.8789 1.86969 11.8789 1.17969 13.0189 1.17969C14.1589 1.17969 15.1589 1.85969 15.5689 2.91969C15.6689 3.18969 15.6189 3.48969 15.4289 3.69969C15.2789 3.85969 15.0689 3.93969 14.8689 3.93969Z" fill="#667C98"/>
<path d="M13.0156 22.8086C12.0256 22.8086 11.0656 22.4086 10.3656 21.7086C9.66562 21.0086 9.26562 20.0486 9.26562 19.0586H10.7656C10.7656 19.6486 11.0056 20.2286 11.4256 20.6486C11.8456 21.0686 12.4256 21.3086 13.0156 21.3086C14.2556 21.3086 15.2656 20.2986 15.2656 19.0586H16.7656C16.7656 21.1286 15.0856 22.8086 13.0156 22.8086Z" fill="#667C98"/>
</svg>
