<svg width="108" height="122" viewBox="0 0 108 122" fill="none" xmlns="http://www.w3.org/2000/svg">
<path fill-rule="evenodd" clip-rule="evenodd" d="M8.10458 72.3538C7.30969 56.8428 10.0027 39.4214 22.9148 30.56C35.4253 21.9742 51.6472 28.3546 66.3276 32.3963C80.2055 36.2171 95.1629 39.8859 102.094 52.3593C109.527 65.7361 108.726 82.3288 101.591 95.8565C94.5685 109.171 81.1503 118.047 66.1513 120.505C51.8926 122.843 37.9589 117.286 26.8886 108.103C15.9363 99.0174 8.82736 86.4576 8.10458 72.3538Z" fill="#FFC3C0"/>
<path d="M97.8893 102.083L79.9567 106.005L53.4955 111.792C51.1497 112.304 48.697 111.862 46.6762 110.563C44.6554 109.264 43.2318 107.214 42.7182 104.864L31.7416 54.4665C29.9995 46.4667 31.4205 38.1016 35.7057 31.13C39.9909 24.1584 46.8065 19.1235 54.7195 17.0839C55.0753 16.9912 55.4667 16.8984 55.8474 16.8164L56.2637 16.7273C64.4423 14.939 72.9947 16.4793 80.0401 21.0096C87.0856 25.5399 92.0469 32.689 93.8331 40.8848L104.806 91.2821C105.061 92.4465 105.083 93.6497 104.873 94.8229C104.663 95.9961 104.225 97.1164 103.582 98.1195C102.94 99.1226 102.106 99.989 101.129 100.669C100.153 101.349 99.0516 101.829 97.8893 102.083Z" fill="#335076"/>
<path d="M80.1839 105.999L53.5999 111.792C51.2432 112.304 48.7791 111.862 46.7489 110.562C44.7187 109.261 43.2885 107.21 42.7725 104.857L31.745 54.4156C29.9948 46.4088 31.4223 38.0363 35.7274 31.0585C40.0325 24.0808 46.8798 19.0414 54.8296 17C63.6015 21.4717 70.5076 30.0583 72.8775 40.9112L84.7701 95.318C85.7424 99.7505 83.7478 104.087 80.1839 105.999Z" fill="#99A7BB"/>
<path d="M68.0952 2.84297L71.0156 16.6598L42.9109 23L40.1095 9.70069C40.0683 9.50632 40.0402 9.30922 40.0254 9.11082C39.958 8.11638 40.2395 7.13012 40.8182 6.33262C41.397 5.53512 42.2344 4.97974 43.177 4.76819L63.9492 0.0817832C64.8441 -0.11824 65.7793 0.0519676 66.5543 0.555919C67.3293 1.05987 67.8824 1.85746 68.0952 2.77782C68.0968 2.7995 68.0968 2.82129 68.0952 2.84297Z" fill="#002454"/>
<path d="M95.3455 45.8297L33.0253 60.0005L41.2204 97.5551L103.541 83.3844L95.3455 45.8297Z" fill="#F0F0F0"/>
<path d="M80.5894 62.7186L71.0684 64.8736L68.9904 55L62.4586 56.479L64.5366 66.3526L55.0156 68.5076L56.4418 75.285L65.9628 73.1264L68.0408 83L74.5727 81.521L72.4946 71.6474L82.0156 69.4924L80.5894 62.7186Z" fill="#FFA5A0"/>
<path d="M68.0156 2.74251L40.0254 9C39.9582 8.01742 40.2389 7.04292 40.8163 6.25493C41.3936 5.46693 42.2289 4.91818 43.1692 4.70915L63.8903 0.0786185C64.7815 -0.115894 65.7117 0.0537895 66.4824 0.551466C67.2531 1.04914 67.8033 1.83539 68.0156 2.74251Z" fill="#FF6961"/>
<path d="M25.7323 16.3942L30.186 23.6975L28.7073 24.6357C31.093 28.6987 33.1011 32.4117 33.0128 33.2632C32.8081 35.2153 31.4918 41.2485 23.516 40.9923C22.995 40.5314 22.5452 39.9925 22.182 39.3938L13.0769 24.4589C12.0911 22.8293 11.7757 20.8672 12.1995 19.0008C12.6233 17.1344 13.7519 15.5151 15.339 14.4963L15.9884 14.0813C17.5829 13.0763 19.191 12.5679 21.0156 13.0011C22.8403 13.4342 24.7339 14.7737 25.7323 16.3942Z" fill="#002454"/>
<path d="M28.56 24C31.0272 28.2208 33.104 32.0779 33.0127 32.9625C32.801 34.9905 31.4397 41.2579 23.1911 40.9918C22.6523 40.5129 22.1871 39.9531 21.8115 39.3312L17.0156 31.4032L28.56 24Z" fill="#F0F0F0"/>
<path d="M30.0169 23L34.8992 30.5928C35.9353 32.2142 36.2675 34.1672 35.8233 36.0253C35.3791 37.8833 34.1945 39.4955 32.5284 40.5095L31.8431 40.9225C30.4864 41.7352 28.8964 42.104 27.3072 41.9747C25.718 41.8454 24.2137 41.9431 23.0156 40.9225C31.3875 41.1775 31.8008 34.4467 32.0156 32.5C32.1082 31.6524 30.9689 27.9673 28.4647 23.923L30.0169 23Z" fill="#F0F0F0"/>
<path d="M25.5156 15.9987L30.0156 23.0892L28.4365 24C25.6174 19.6315 22.3121 14.8532 21.0156 13C22.7782 13.4816 24.5449 14.5502 25.5156 16V15.9987Z" fill="#335076"/>
<path d="M18.0122 19.9489C18.0679 21.6065 17.4407 22.9713 16.6182 22.9996C15.7958 23.0278 15.071 21.7087 15.0187 20.0511C14.9664 18.3935 15.5867 17.0287 16.4126 17.0004C17.2385 16.9722 17.9564 18.2913 18.0122 19.9489Z" fill="#FF6961"/>
<path d="M19.8228 53.2083L17.8078 61.5218L16.0988 61.1396C14.9128 65.6995 13.7072 69.7449 13.0427 70.2846C11.5176 71.5202 6.32073 74.8555 0.862152 69.0346C0.81966 68.3403 0.8827 67.6412 1.04916 66.9611L5.17147 49.9622C5.62669 48.1129 6.79108 46.5024 8.41053 45.4823C10.03 44.4622 11.973 44.1153 13.8157 44.5171L14.5683 44.6829C16.4065 45.0997 17.903 45.8773 18.8869 47.4738C19.8709 49.0703 20.2627 51.3565 19.8228 53.2083Z" fill="#FF6961"/>
<path d="M16.4443 60.585C15.2044 65.3141 13.9455 69.51 13.2554 70.071C11.6718 71.3553 6.2774 74.8244 0.632974 68.8036C0.590538 68.084 0.657498 67.3592 0.831612 66.6539L3.04638 57.6567L16.4443 60.585Z" fill="#F0F0F0"/>
<path d="M18.1772 60.9096L16.2606 69.7309C15.8467 71.61 14.7007 73.2259 13.0727 74.2256C11.4447 75.2254 9.46719 75.5277 7.57204 75.0667L6.79541 74.8741C5.26141 74.4894 3.8763 73.6259 2.84403 72.4107C1.81176 71.1956 0.678944 70.2009 0.553417 68.6321C6.2929 74.7323 11.3446 70.2651 12.873 69.0405C13.5379 68.5066 15.338 65.0952 16.427 60.4648L18.1772 60.9096Z" fill="#F0F0F0"/>
<path d="M19.9444 52.775L18.1126 60.9707L16.352 60.4982C17.4475 55.4158 18.4892 49.6998 18.8828 47.4727C19.7886 49.0595 20.2822 51.0644 19.9435 52.776L19.9444 52.775Z" fill="#FF8781"/>
<path d="M11.8462 50.2627C10.7135 51.4742 9.30489 51.9957 8.70339 51.4341C8.1019 50.8726 8.52205 49.4273 9.65719 48.2183C10.7923 47.0092 12.1961 46.4827 12.8 47.0467C13.404 47.6108 12.9789 49.0511 11.8462 50.2627Z" fill="#FFE1DF"/>
</svg>
