<svg width="24" height="17" viewBox="0 0 24 17" fill="none" xmlns="http://www.w3.org/2000/svg">
<rect x="0.800781" y="0.5" width="23.2" height="16" rx="4" fill="#3F3E4D"/>
<path fill-rule="evenodd" clip-rule="evenodd" d="M12.5225 11.7198C11.7146 12.3852 10.6666 12.7869 9.52136 12.7869C6.96603 12.7869 4.89453 10.7871 4.89453 8.32018C4.89453 5.85331 6.96603 3.85352 9.52136 3.85352C10.6666 3.85352 11.7146 4.25518 12.5225 4.92054C13.3305 4.25518 14.3785 3.85352 15.5237 3.85352C18.079 3.85352 20.1505 5.85331 20.1505 8.32018C20.1505 10.7871 18.079 12.7869 15.5237 12.7869C14.3785 12.7869 13.3305 12.3852 12.5225 11.7198Z" fill="#ED0006"/>
<path fill-rule="evenodd" clip-rule="evenodd" d="M12.5234 11.7198C13.5183 10.9006 14.1491 9.68149 14.1491 8.32018C14.1491 6.95888 13.5183 5.73981 12.5234 4.92054C13.3314 4.25518 14.3794 3.85352 15.5246 3.85352C18.0799 3.85352 20.1514 5.85331 20.1514 8.32018C20.1514 10.7871 18.0799 12.7869 15.5246 12.7869C14.3794 12.7869 13.3314 12.3852 12.5234 11.7198Z" fill="#F9A000"/>
<path fill-rule="evenodd" clip-rule="evenodd" d="M12.5241 11.7192C13.5189 10.8999 14.1497 9.68084 14.1497 8.31955C14.1497 6.95825 13.5189 5.73919 12.5241 4.91992C11.5292 5.73919 10.8984 6.95825 10.8984 8.31955C10.8984 9.68084 11.5292 10.8999 12.5241 11.7192Z" fill="#FF5E00"/>
</svg>
