<svg width="28" height="28" viewBox="0 0 28 28" fill="none" xmlns="http://www.w3.org/2000/svg">
<path d="M19.4192 24.2068C19.4075 24.2068 19.3842 24.2068 19.3725 24.2068C18.8942 24.2068 18.4975 23.8101 18.5092 23.3201C18.5092 22.8418 18.9175 22.4101 19.3959 22.4568C20.7492 22.4568 22.0325 21.9668 23.0242 21.0568C24.8325 19.4701 24.9609 17.2068 24.4709 15.6084C23.9809 14.0101 22.6159 12.2018 20.2592 11.8984C19.8742 11.8518 19.5709 11.5601 19.5009 11.1751C19.0459 8.38677 17.5292 6.46176 15.2659 5.76176C12.9092 5.03843 10.1909 5.7501 8.48753 7.5351C6.83087 9.27343 6.44587 11.6884 7.40253 14.3601C7.56587 14.8151 7.33253 15.3168 6.87753 15.4801C6.42253 15.6434 5.92087 15.4101 5.75753 14.9551C4.5792 11.6768 5.11587 8.53843 7.22753 6.33343C9.38587 4.08176 12.8159 3.18343 15.7909 4.1051C18.5092 4.9451 20.4342 7.1851 21.1225 10.2884C23.5025 10.8251 25.4042 12.6218 26.1625 15.1068C26.9909 17.8134 26.2442 20.5901 24.2142 22.3634C22.8725 23.5534 21.1809 24.2068 19.4192 24.2068Z" fill="#002454"/>
<path d="M6.48671 24.2093C6.46337 24.2093 6.44004 24.2093 6.42837 24.2093C3.06837 23.976 1.54004 21.3393 1.54004 18.9943C1.54004 16.6493 3.06837 14.0243 6.42837 13.7793C7.31504 13.791 8.14337 13.966 8.89004 14.3393C9.32171 14.561 9.48504 15.086 9.27504 15.5176C9.05337 15.9493 8.52837 16.1126 8.09671 15.9026C7.60671 15.646 7.04671 15.5293 6.51004 15.5293C4.30504 15.6926 3.30171 17.3843 3.30171 18.9943C3.30171 20.6043 4.30504 22.296 6.55671 22.4593C7.03504 22.4943 7.39671 22.9143 7.37337 23.3926C7.32671 23.8593 6.94171 24.2093 6.48671 24.2093Z" fill="#002454"/>
<path d="M18.4655 12.4119C18.1388 12.4119 17.8355 12.2369 17.6838 11.9219C17.4621 11.4902 17.6371 10.9652 18.0805 10.7435C18.7921 10.3819 19.5971 10.1835 20.3905 10.1719H20.4021C20.8805 10.1719 21.2655 10.5569 21.2771 11.0352C21.2888 11.5135 20.9038 11.9219 20.4138 11.9219C19.8771 11.9335 19.3405 12.0619 18.8505 12.3069C18.7221 12.3885 18.5938 12.4119 18.4655 12.4119Z" fill="#002454"/>
<path d="M12.3919 26.3874C12.2402 26.3874 12.0769 26.3641 11.9252 26.3057C11.4119 26.1074 11.0736 25.6291 11.0736 25.0807V23.2374H10.7819C9.90689 23.2374 9.59189 22.7241 9.48689 22.5141C9.39355 22.2807 9.23022 21.6974 9.80189 21.0557L12.6602 17.8008C13.0219 17.3924 13.5936 17.2408 14.1069 17.4391C14.6202 17.6374 14.9586 18.1158 14.9586 18.6641V20.5074H15.2502C16.1136 20.5074 16.4402 21.0208 16.5452 21.2307C16.6502 21.4407 16.8136 22.0241 16.2419 22.6774L13.3836 25.9324C13.1152 26.2241 12.7536 26.3874 12.3919 26.3874ZM11.7502 21.4757H11.9486C12.4269 21.4757 12.8236 21.8724 12.8236 22.3507V23.9024L14.2702 22.2574H14.0719C13.5936 22.2574 13.1969 21.8607 13.1969 21.3824V19.8307L11.7502 21.4757Z" fill="#002454"/>
</svg>
