<svg width="124" height="120" viewBox="0 0 124 120" fill="none" xmlns="http://www.w3.org/2000/svg">
<path fill-rule="evenodd" clip-rule="evenodd" d="M64.8189 0.0991521C78.0631 -0.561036 91.6658 2.00866 102.397 9.82365C113.13 17.6404 120.465 29.6536 123.261 42.6603C125.891 54.897 120.896 66.8276 117.222 78.7906C113.481 90.9692 111.789 104.894 101.75 112.702C91.6082 120.591 77.6155 120.519 64.8189 119.551C52.8118 118.642 41.8483 113.945 31.7244 107.405C21.0324 100.499 10.3766 92.8074 5.30635 81.108C-0.0623425 68.7201 -1.38665 54.3243 3.21908 41.631C7.74483 29.1582 18.8781 20.8435 29.8597 13.4394C40.4671 6.28773 52.0543 0.735437 64.8189 0.0991521Z" fill="white"/>
</svg>
