<svg width="157" height="86" viewBox="0 0 157 86" fill="none" xmlns="http://www.w3.org/2000/svg">
<g opacity="0.9">
<path d="M0 0H157V86H0V0Z" fill="#FF6961"/>
<g opacity="0.6">
<path d="M112.865 40.5137C112.782 38.3894 112.254 36.3912 111.332 34.4822C110.548 32.86 109.696 31.2731 108.897 29.6601C107.996 27.8428 106.928 26.1525 105.628 24.595C104.698 23.4799 103.595 22.6767 102.183 22.3025C101.334 22.0771 100.476 21.9585 99.6009 22.0132C98.7717 22.0653 97.9576 22.215 97.2394 22.6616C95.5121 23.7355 94.2624 25.2181 93.5131 27.1128C93.2667 27.7352 93.1742 28.3785 93.318 29.0445C93.3357 29.1278 93.3878 29.2144 93.3029 29.3616C83.239 29.7266 73.1348 29.8813 63.0516 30.3262C63.0003 30.2034 63.0423 30.1159 63.0642 30.0327C63.2542 29.2867 63.1188 28.5786 62.827 27.8882C62.1946 26.3938 61.2342 25.1601 59.9383 24.1728C59.1882 23.6018 58.3691 23.2435 57.4389 23.1224C56.9369 23.0569 56.4306 23.0493 55.9294 23.0972C54.2063 23.2612 52.648 23.8104 51.4698 25.1525C50.3092 26.4745 49.2319 27.8605 48.4465 29.4474C47.5265 31.3067 46.5257 33.1249 45.6217 34.9944C44.7328 36.8336 44.1643 38.7375 44.0179 40.7744C43.9574 41.6195 44.0297 42.421 44.5536 43.1274C45.1667 43.9541 45.8479 44.7185 46.709 45.292C48.0941 46.2146 49.4935 47.1127 51.0417 47.7519C51.606 47.9848 52.1577 48.2464 52.7253 48.4684C52.986 48.5701 53.0987 48.6996 53.1021 48.9948C53.1096 49.6659 53.1509 50.3378 53.1996 51.0073C53.3022 52.4091 53.5083 53.7984 53.7261 55.186C53.9035 56.3163 54.0793 57.4491 54.4106 58.5474C54.8118 59.8786 55.2751 61.1821 55.9908 62.3889C56.2658 62.8523 56.5753 63.2324 57.0765 63.4401C57.1454 63.4687 57.2329 63.4981 57.2691 63.5545C57.449 63.8362 57.7425 63.8665 58.0268 63.9153C58.3901 63.9775 58.7576 63.9624 59.1242 63.9674C62.79 64.0111 66.455 64.0036 70.1207 63.9867C76.5659 63.9573 83.0103 63.8665 89.4554 63.7925C92.1432 63.7614 94.8317 63.7563 97.5195 63.7336C97.8264 63.7311 98.1233 63.7521 98.4252 63.8244C99.1064 63.9867 99.7884 63.9682 100.457 63.7437C100.823 63.6209 101.057 63.393 101.21 63.0129C101.576 62.103 101.814 61.1611 102.065 60.2175C102.416 58.8997 102.644 57.5618 102.813 56.2162C103.126 53.7303 103.262 51.2284 103.295 48.7232C103.299 48.4095 103.376 48.2447 103.695 48.1211C105.689 47.3448 107.61 46.4206 109.407 45.2424C110.427 44.5738 111.333 43.801 112.091 42.8431C112.636 42.1519 112.899 41.4042 112.865 40.5137ZM93.736 35.4586C93.7444 36.1448 93.7662 36.8319 93.7864 37.5181C93.7906 37.6636 93.7494 37.7401 93.5846 37.746C92.4417 37.7872 91.298 37.836 90.1585 37.9403C90.1332 37.9428 90.1055 37.9184 90.0651 37.8999C90.0862 36.9816 89.9289 36.0633 89.9945 35.1046C90.6563 35.1046 91.3241 35.0995 91.9926 35.1062C92.4652 35.1113 92.9387 35.1483 93.4105 35.1424C93.6535 35.1399 93.7334 35.2257 93.736 35.4586ZM62.3233 41.6843C62.3611 41.3815 62.388 41.0771 62.4234 40.7744C62.5655 39.5289 62.6008 38.2792 62.6378 37.027C62.6748 35.7765 62.7808 34.5285 62.8153 33.2763C62.8287 32.7734 62.7732 32.2688 62.8464 31.7668C62.8968 31.422 62.8926 31.4211 63.2685 31.4135C64.1389 31.3942 65.0085 31.3707 65.8789 31.3572C70.0005 31.2941 74.1212 31.1587 79.0594 31.0183C81.8581 30.93 85.4751 30.8131 89.0913 30.7038C90.4494 30.6626 91.8085 30.6382 93.1666 30.6104C93.5451 30.6029 93.561 30.6087 93.5728 30.9762C93.593 31.6171 93.5871 32.2587 93.5997 32.8995C93.6048 33.1586 93.6233 33.4184 93.6468 33.6766C93.6603 33.8254 93.6233 33.9045 93.4584 33.9104C92.0549 33.9608 90.6546 34.103 89.2494 34.087C88.8558 34.0828 88.4681 33.9751 88.067 34.0609C87.3942 34.2056 87.1756 34.4402 87.2176 35.1323C87.2521 35.7092 87.3429 36.2836 87.4094 36.8588C87.4548 37.2524 87.4783 37.6493 87.596 38.032C87.6179 38.1018 87.6112 38.1825 87.6087 38.2582C87.5927 38.6475 87.6658 38.7813 88.0123 38.9192C88.4513 39.0941 88.913 39.1042 89.3654 39.0142C89.6556 38.957 89.9407 38.9385 90.2283 38.9663C91.3123 39.0714 92.3946 38.9394 93.4786 38.9486C93.8999 38.952 93.8604 38.8746 93.9176 39.3262C93.9983 39.962 94.0572 40.6003 94.1262 41.2377C94.1699 41.6439 94.1707 41.6473 93.7696 41.6498C91.8455 41.6633 89.9222 41.6734 87.998 41.6851C86.7921 41.6927 85.5853 41.6986 84.3793 41.7104C84.1615 41.712 83.9673 41.6818 83.7722 41.5632C82.0339 40.5069 80.1426 40.0091 78.1099 40.0082C76.2337 40.0066 74.4416 40.3606 72.7547 41.1999C72.6588 41.2478 72.5528 41.284 72.4729 41.3504C71.9591 41.7776 71.3603 41.8298 70.7187 41.8315C68.0469 41.8373 65.3752 41.8752 62.7034 41.9021C62.642 41.9029 62.5806 41.8996 62.5201 41.9046C62.3536 41.9172 62.3039 41.8382 62.3233 41.6843ZM93.9344 46.3046C93.8655 46.2482 93.8554 46.1742 93.8713 46.0926C93.8503 46.0674 93.8453 46.0388 93.8554 46.0077C93.7175 45.6923 93.63 45.3618 93.5678 45.0238C93.4105 44.5377 93.2541 44.0508 93.0935 43.5647C93.0691 43.4898 93.0337 43.4125 93.1305 43.378C93.2305 43.3427 93.3045 43.3881 93.3314 43.4974C93.3785 43.6875 93.4282 43.8775 93.4744 44.0676C93.5417 44.3451 93.6073 44.6235 93.6737 44.9018C93.794 45.1684 93.8932 45.4409 93.9386 45.731C93.9596 45.7529 93.9655 45.779 93.9563 45.8076C94.0152 45.8597 94.0412 45.9236 94.0261 46.0018C94.0479 46.0254 94.0547 46.0531 94.0471 46.0842C94.1077 46.1347 94.1337 46.1978 94.1178 46.2768C94.5155 47.4752 94.9167 48.6727 95.3094 49.8736C95.555 50.6255 95.7888 51.3815 96.0251 52.1358C96.0469 52.2065 96.0537 52.2822 96.0654 52.3469C95.9511 52.4579 95.8232 52.4049 95.708 52.4209C95.5625 52.4411 95.4801 52.3755 95.449 52.2325C95.0411 50.3589 94.4247 48.5382 94.0328 46.6595C93.9521 46.577 93.9361 46.4761 93.9504 46.3676C93.9285 46.3508 93.9235 46.3298 93.9344 46.3046ZM92.5224 52.4739C92.3812 52.5067 92.2474 52.4966 92.2079 52.3091C92.1373 51.966 92.0456 51.627 91.9884 51.2822C91.8816 50.6347 91.7 50.0057 91.5377 49.3724C91.1786 47.9714 90.8304 46.5678 90.4604 45.1693C90.3056 44.5848 90.1063 44.0129 89.9314 43.4495C89.9844 43.3696 90.0491 43.3814 90.1063 43.3788C90.6277 43.3578 90.6261 43.3587 90.716 43.8843C90.9994 45.5359 91.3913 47.1649 91.79 48.7913C92.0692 49.93 92.2634 51.088 92.5813 52.2182C92.6065 52.3074 92.6957 52.4335 92.5224 52.4739ZM88.7986 51.3504C88.7179 51.2032 88.7112 51.0409 88.7095 50.8786C88.596 50.6389 88.6178 50.3723 88.5598 50.1217C88.5262 49.9392 88.4934 49.7567 88.4597 49.5742C88.4311 49.4212 88.3462 49.2791 88.3689 49.1159C88.3395 48.9629 88.2655 48.8174 88.2814 48.6559C88.2495 48.5045 88.1805 48.3607 88.1915 48.2009C88.1839 48.1404 88.1755 48.0807 88.1679 48.0201C88.0695 47.8898 88.0754 47.7342 88.0653 47.5837C87.9568 47.3743 87.9181 47.1472 87.9055 46.9151C87.8971 46.8638 87.8879 46.8125 87.8795 46.7612C87.7718 46.5829 87.7306 46.387 87.7239 46.1809C87.4892 45.2525 87.2151 44.3359 86.9208 43.4806C86.9191 43.3881 86.9384 43.3729 86.9779 43.3704C87.512 43.341 87.5035 43.3418 87.5641 43.854C87.6415 44.5041 87.7356 45.1516 87.8223 45.8C87.9257 46.0422 87.9518 46.3004 87.9778 46.5577C87.9863 46.6115 87.9947 46.6662 88.0039 46.72C88.1242 46.9563 88.1217 47.2187 88.1612 47.4727C88.1856 47.656 88.2798 47.8259 88.2629 48.0168C88.2722 48.0748 88.2823 48.1328 88.2915 48.1917C88.384 48.2977 88.3739 48.4263 88.3672 48.5533C88.4656 48.7291 88.4673 48.9217 88.4597 49.1151C88.5632 49.2522 88.5531 49.4136 88.5531 49.5717C88.6683 49.7408 88.6405 49.9342 88.6473 50.1217C88.7675 50.3227 88.7389 50.559 88.802 50.7735C88.8314 50.8954 88.8609 51.0173 88.8903 51.1393C88.9248 51.2074 88.9399 51.278 88.9248 51.3546C88.987 51.4218 89.0038 51.5034 88.9946 51.5926C89.003 51.6388 89.0114 51.6851 89.0198 51.7322C89.0753 51.7978 89.0896 51.8743 89.0753 51.9575C89.1098 52.0887 89.1485 52.2191 89.1788 52.3511C89.2031 52.4562 89.1687 52.5294 89.0476 52.5294C88.9559 52.5294 88.9189 52.4823 88.918 52.389C88.9172 52.2233 88.9054 52.0576 88.8979 51.892C88.8415 51.7994 88.8121 51.7011 88.8306 51.5917C88.8197 51.511 88.8096 51.4311 88.7986 51.3504ZM83.6082 48.0336C83.4736 50.7676 82.3459 52.9221 79.9214 54.3173C79.3756 54.631 78.7903 54.8488 78.1755 54.9825C77.0915 55.2188 76.0824 54.9632 75.1245 54.4729C73.842 53.8161 72.8505 52.8313 72.1012 51.6136C71.4074 50.4859 71.2603 49.2236 71.4385 47.9444C71.833 45.107 73.4039 43.1392 76.0252 42.0173C78.5271 40.9468 81.0567 42.0879 82.3181 43.8027C82.8328 44.5015 83.2028 45.3324 83.3492 46.2221C83.4467 46.8218 83.6645 47.4045 83.6082 48.0336ZM69.9668 43.304C69.723 43.6261 69.538 43.8708 69.3201 44.1584C69.21 43.8616 69.1183 43.6135 69.0191 43.3469C69.3235 43.2678 69.5985 43.3225 69.9668 43.304ZM67.5802 50.8719C67.6937 51.4698 67.7963 52.0702 67.8997 52.6707C67.9166 52.7691 67.9687 52.907 67.8056 52.9221C67.6533 52.9364 67.4507 53.0239 67.3834 52.7859C67.338 52.6261 67.3127 52.4579 67.2976 52.2914C67.1076 50.2268 66.7829 48.1816 66.4138 46.1431C66.3566 45.8286 66.3044 45.5124 66.2397 45.1995C66.1068 44.5604 65.9571 43.9263 65.6022 43.3023C65.9916 43.3023 66.3725 43.1947 66.6122 43.3317C66.8721 43.4806 66.6803 43.8868 66.6888 44.1752C66.7518 46.4391 67.1597 48.6559 67.5802 50.8719ZM63.3737 43.2729C63.1197 44.0541 63.2299 44.8379 63.2912 45.6183C63.3316 46.133 63.393 46.6468 63.4451 47.1607C63.5318 47.3154 63.5301 47.4819 63.5133 47.651C63.5183 47.7065 63.5242 47.762 63.5292 47.8175C63.636 48.0412 63.6192 48.2817 63.6285 48.5197C63.6957 48.6172 63.7067 48.7266 63.6915 48.8409C63.7016 48.9233 63.7109 49.0049 63.721 49.0873C63.8253 49.4262 63.8513 49.7778 63.8799 50.1284C63.8858 50.1823 63.8925 50.2361 63.8984 50.2899C63.9564 50.3799 63.985 50.4766 63.964 50.5842C63.9649 50.6154 63.9665 50.6473 63.9674 50.6784C63.9741 50.7323 63.98 50.7869 63.9867 50.8407C63.9968 50.8559 64.0044 50.8719 64.0094 50.8878C64.0599 50.9938 64.0775 51.1056 64.0632 51.2242C64.1583 51.728 64.2575 52.2317 64.3458 52.7371C64.3618 52.8296 64.4047 52.9617 64.2457 52.9928C64.1078 53.0197 64.0027 52.9818 63.9935 52.8195C63.9808 52.6085 63.9741 52.3974 63.9649 52.1863V52.1854C63.8732 51.9332 63.8866 51.6708 63.8959 51.4084C63.8892 51.2974 63.8816 51.1864 63.8749 51.0745C63.7857 50.8332 63.7899 50.58 63.7824 50.3286C63.6772 50.0536 63.6831 49.7593 63.6302 49.475C63.6192 49.4002 63.6083 49.3262 63.5974 49.2513C63.5318 49.1546 63.5208 49.047 63.5376 48.9343C63.5023 48.6895 63.4048 48.4532 63.4317 48.1993C63.4132 48.1766 63.4098 48.1513 63.4216 48.1244C63.3417 48.0075 63.3299 47.8772 63.3493 47.7418C63.1197 46.6418 62.9103 45.5368 62.5958 44.4553C62.4822 44.0634 62.3325 43.6841 62.2005 43.272C62.6042 43.2729 62.9801 43.2729 63.3737 43.2729ZM56.2061 48.4398C53.6512 47.5526 51.1788 46.4887 48.8838 45.0364C47.9907 44.4713 47.2498 43.7623 46.6392 42.9104C46.3071 42.4479 46.1607 41.9273 46.2188 41.2394C46.2011 39.3069 46.852 37.4307 47.7031 35.6032C48.5146 33.8616 49.3488 32.1309 50.1915 30.4035C51.0417 28.6611 52.1198 27.0826 53.3796 25.6176C54.1171 24.7598 55.0388 24.2409 56.1464 24.0475C56.7679 23.939 57.3658 24.0046 57.899 24.3755C59.6768 25.6117 60.8995 27.2566 61.5395 29.3305C61.6505 29.6904 61.6362 30.0327 61.5345 30.4035C61.3663 31.0191 61.2351 31.6482 61.1913 32.2907C61.1115 33.4806 60.8238 34.6395 60.6531 35.816C60.5068 36.8277 60.4008 37.8436 60.3041 38.8603C60.2217 39.7257 60.1242 40.5902 60.0266 41.4539C59.882 42.7271 59.7987 44.0079 59.5809 45.271C59.3967 46.339 59.1125 47.3835 58.655 48.3725C58.6163 48.4549 58.5726 48.5365 58.523 48.613C58.1782 49.142 58.1126 49.1639 57.5382 48.9191C57.1034 48.7341 56.6526 48.5945 56.2061 48.4398ZM61.0972 53.0104C60.696 53.0954 60.6842 53.0954 60.6767 52.7531C60.6556 51.865 60.4303 51.003 60.3579 50.1217C60.3403 49.9089 60.3142 49.697 60.2797 49.4868C60.2511 49.3102 60.3268 49.2 60.5522 49.0411C60.5791 50.4472 60.8945 51.7204 61.0972 53.0104ZM56.9899 52.701C56.8948 51.8381 56.8023 50.9745 56.7098 50.1116C56.7023 50.0376 56.672 49.9619 56.7275 49.8938C56.7418 49.8896 56.7569 49.8795 56.7695 49.882C57.4112 50.0065 57.3952 50.009 57.4919 50.6616C57.6122 51.4731 57.5912 52.3032 57.8317 53.1357C57.7089 53.1568 57.65 53.1702 57.5912 53.1761C57.0504 53.2257 57.0479 53.2257 56.9899 52.701ZM98.5841 56.7897C98.4672 57.8813 98.3276 58.9721 98.1561 60.0561C98.04 60.7919 97.8491 61.5168 97.6969 62.2476C97.6549 62.4478 97.5195 62.4612 97.3546 62.4629C96.6676 62.4688 95.9805 62.4823 95.2934 62.4907C86.6668 62.5891 78.0393 62.6774 69.4135 62.7892C66.3902 62.8287 63.3686 62.9238 60.3462 63.002C60.1082 63.0079 59.9526 63.0037 59.908 62.7085C59.8853 62.5605 59.7491 62.415 59.6347 62.2981C59.1041 61.7565 58.8434 61.0686 58.6138 60.3765C57.9696 58.433 57.5542 56.434 57.2068 54.4434C57.3036 54.3333 57.3994 54.3602 57.486 54.361C61.6093 54.4216 65.7317 54.335 69.8542 54.3232C70.2132 54.3223 70.4782 54.4191 70.7599 54.6419C72.0449 55.6586 73.5342 56.2355 75.1354 56.5021C77.422 56.8823 79.6691 56.7082 81.8497 55.8882C82.7538 55.5485 83.6107 55.107 84.3617 54.4956C84.6325 54.2753 84.9075 54.1954 85.2388 54.1937C86.5675 54.187 87.8954 54.1676 89.2242 54.1592C92.2626 54.1382 95.301 54.0465 98.3394 54.0675C98.5034 54.0684 98.6741 54.0263 98.8423 54.1104C98.8196 55.0094 98.68 55.8983 98.5841 56.7897ZM98.4201 50.3185C98.4529 50.4085 98.4857 50.4993 98.5177 50.5893C98.5749 50.7432 98.6329 50.8971 98.6901 51.051C98.7254 51.1401 98.7607 51.2301 98.7969 51.3193C98.9617 51.5177 98.971 51.59 99.0702 51.8676C99.0795 51.9466 99.1165 52.0534 99.0307 52.0871C98.9533 52.1182 98.9239 52.0273 98.918 51.9533C98.8457 51.7414 98.7204 51.548 98.6993 51.3193C98.6237 51.2839 98.6203 51.2141 98.6161 51.1452C98.5084 51.014 98.4639 50.8567 98.4269 50.6953C98.3529 50.6204 98.3327 50.5254 98.3268 50.4253C98.2334 50.2765 98.1889 50.1125 98.1704 49.9392C98.1536 49.8635 98.0619 49.7416 98.1906 49.729L98.4201 50.3185ZM109.814 42.7986C109.317 43.3637 108.799 43.896 108.169 44.3115C105.991 45.7478 103.629 46.81 101.196 47.7216C100.383 48.026 99.5336 48.2337 98.7431 48.6004C98.5244 48.7013 98.3848 48.6542 98.2301 48.4768C97.9324 48.1362 97.7381 47.7443 97.5876 47.3263C96.9939 45.6755 96.75 43.9583 96.5944 42.2208C96.4935 41.0964 96.3547 39.9754 96.2361 38.8527C96.0999 37.5635 96.0015 36.2701 95.7955 34.9893C95.6769 34.2518 95.5306 33.5185 95.4128 32.781C95.3439 32.3445 95.2943 31.9038 95.2581 31.464C95.1992 30.7467 95.0529 30.0461 94.8603 29.3549C94.7973 29.1286 94.7813 28.9125 94.8359 28.6804C94.9234 28.3079 95.0142 27.9353 95.1723 27.5888C95.904 25.9792 96.9207 24.5941 98.3512 23.5227C99.0988 22.9627 99.8935 22.8626 100.774 23.0779C101.757 23.3184 102.569 23.823 103.23 24.5824C104.497 26.0398 105.589 27.6124 106.445 29.3507C107.375 31.2395 108.294 33.1325 109.169 35.0482C109.934 36.7243 110.548 38.4407 110.581 40.3581C110.75 41.2722 110.449 42.0762 109.814 42.7986Z" fill="white"/>
</g>
</g>
</svg>
