<svg width="131" height="43" viewBox="0 0 131 43" fill="none" xmlns="http://www.w3.org/2000/svg">
<path d="M17.797 22.245H16.3971C15.4765 22.245 14.7576 21.9932 14.3414 21.4645L8.42034 14.616V20.7784C8.42034 21.7163 7.89696 22.2387 6.9574 22.2387H5.46294C4.52338 22.2387 4 21.7163 4 20.7784V1.46034C4 0.522449 4.52338 0 5.46294 0H6.9574C7.89696 0 8.42034 0.522449 8.42034 1.46034V13.2312L14.3225 7.33947C14.7387 6.84849 15.4386 6.62189 16.3593 6.62189H17.633C19.0014 6.62189 19.5563 7.37094 18.7933 8.17665L12.9542 13.8795L19.0014 20.6651C19.6887 21.5274 19.1338 22.245 17.797 22.245Z" fill="white"/>
<path d="M36.9288 12.4379V17.6813C36.9288 20.9859 35.4154 22.2386 31.9977 22.2386H28.3845C24.5001 22.2386 22.1292 21.2062 22.1292 17.4736C22.1292 13.722 24.519 12.6897 28.3845 12.6897H32.5084V12.4379C32.5084 10.688 31.1212 9.92636 28.8006 9.92636C27.653 9.92636 26.1774 10.1152 24.6956 10.4173C23.693 10.6062 23.0876 10.1467 23.0876 9.13324V8.54784C23.0876 7.6729 23.5795 7.10009 24.6136 6.89866C26.3477 6.53358 28.0376 6.34474 29.4375 6.34474C33.7443 6.33845 36.9288 8.17017 36.9288 12.4379ZM32.5021 17.461V15.8559H28.6052C26.6819 15.8559 26.2783 16.3028 26.2783 17.4736C26.2783 18.6318 26.6756 19.0787 28.5862 19.0787H30.9068C32.2814 19.0787 32.5021 18.5248 32.5021 17.461Z" fill="white"/>
<path d="M56.5335 13.6962V20.7839C56.5335 21.7218 56.0101 22.2443 55.0705 22.2443H53.5761C52.6365 22.2443 52.1131 21.7218 52.1131 20.7839V13.6333C52.1131 10.8385 51.0916 10.058 48.708 10.058C46.3244 10.058 45.3029 10.8385 45.3029 13.6333V20.7839C45.3029 21.7218 44.7795 22.2443 43.84 22.2443H42.3455C41.4059 22.2443 40.8826 21.7218 40.8826 20.7839V13.6962C40.8826 7.99336 43.7643 6.33789 48.7143 6.33789C53.6643 6.33789 56.5335 7.99336 56.5335 13.6962Z" fill="white"/>
<path d="M75.6462 11.33V22.7673C75.6462 26.9784 72.3357 28.8856 68.0541 28.8856C66.6983 28.8856 65.2354 28.6968 63.7598 28.3128C62.9149 28.1051 62.5176 27.5323 62.5176 26.6762V26.0908C62.5176 25.0585 63.123 24.599 64.1382 24.8193C65.3615 25.09 66.5091 25.2662 67.5748 25.2662C69.7251 25.2662 71.2195 24.5487 71.2195 22.7736V22.44C70.4376 22.5029 69.6936 22.5344 68.9936 22.5344C63.4256 22.5344 60.1151 20.5012 60.1151 14.4459C60.1151 8.39048 63.4256 6.34475 68.9936 6.34475C73.641 6.33845 75.6462 7.76732 75.6462 11.33ZM71.2195 18.638V11.9973C71.2195 10.6943 70.9673 10.0585 68.6909 10.0585C65.7777 10.0585 64.5354 11.1538 64.5354 14.4459C64.5354 17.7316 65.7777 18.8143 68.7351 18.8143C69.4539 18.808 70.28 18.7451 71.2195 18.638Z" fill="white"/>
<path d="M92.2615 6.62842H93.756C94.6956 6.62842 95.2189 7.15087 95.2189 8.08876V15.1764C95.2189 20.8793 92.3372 22.5348 87.3872 22.5348C82.4372 22.5348 79.5554 20.8856 79.5554 15.1764V8.08876C79.5554 7.15087 80.0788 6.62842 81.0184 6.62842H82.5128C83.4524 6.62842 83.9758 7.15087 83.9758 8.08876V15.2394C83.9758 18.0342 84.991 18.8147 87.3809 18.8147C89.7708 18.8147 90.786 18.0342 90.786 15.2394V8.08876C90.7986 7.15087 91.322 6.62842 92.2615 6.62842Z" fill="white"/>
<path d="M108.764 7.93068V8.84969C108.764 9.78758 108.209 10.31 107.156 10.3289C103.814 10.3793 103.669 10.6625 103.669 11.8522V20.7779C103.669 21.7158 103.145 22.2382 102.206 22.2382H100.629C99.6898 22.2382 99.1664 21.7158 99.1664 20.7779V11.2164C99.1664 7.57818 100.472 6.59623 107.206 6.48293C108.221 6.46404 108.764 6.9739 108.764 7.93068Z" fill="white"/>
<path d="M110.895 14.439C110.895 9.27746 113.745 6.33789 118.948 6.33789C124.15 6.33789 127 9.27746 127 14.439C127 19.588 124.15 22.5275 118.948 22.5275C113.745 22.5275 110.895 19.588 110.895 14.439ZM122.517 14.439C122.517 11.3547 121.337 10.0517 118.954 10.0517C116.57 10.0517 115.391 11.3547 115.391 14.439C115.391 17.4919 116.57 18.8074 118.954 18.8074C121.337 18.8074 122.517 17.4919 122.517 14.439Z" fill="white"/>
</svg>
