<svg width="24" height="25" viewBox="0 0 24 25" fill="none" xmlns="http://www.w3.org/2000/svg">
<g id="vuesax/outline/message-2">
<g id="message-2">
<path id="Vector" d="M15.5 11.7012H8.5C8.09 11.7012 7.75 11.3612 7.75 10.9512C7.75 10.5412 8.09 10.2012 8.5 10.2012H15.5C15.91 10.2012 16.25 10.5412 16.25 10.9512C16.25 11.3612 15.91 11.7012 15.5 11.7012Z" fill="#667C98"/>
<path id="Vector_2" d="M16 22.7706C15.66 22.7706 15.32 22.6707 15.03 22.4807L10.77 19.6406H7C3.56 19.6406 1.25 17.3306 1.25 13.8906V7.89062C1.25 4.45062 3.56 2.14062 7 2.14062H17C20.44 2.14062 22.75 4.45062 22.75 7.89062V13.8906C22.75 17.0706 20.77 19.2906 17.75 19.6006V21.0206C17.75 21.6706 17.4 22.2606 16.83 22.5606C16.57 22.7006 16.28 22.7706 16 22.7706ZM7 3.63062C4.42 3.63062 2.75 5.30062 2.75 7.88062V13.8806C2.75 16.4606 4.42 18.1306 7 18.1306H11C11.15 18.1306 11.29 18.1706 11.42 18.2606L15.87 21.2206C15.98 21.2906 16.08 21.2607 16.13 21.2307C16.18 21.2007 16.26 21.1406 16.26 21.0106V18.8806C16.26 18.4706 16.6 18.1306 17.01 18.1306C19.59 18.1306 21.26 16.4606 21.26 13.8806V7.88062C21.26 5.30062 19.59 3.63062 17.01 3.63062H7Z" fill="#667C98"/>
</g>
</g>
</svg>
