<svg width="137" height="133" viewBox="0 0 137 133" fill="none" xmlns="http://www.w3.org/2000/svg">
<path fill-rule="evenodd" clip-rule="evenodd" d="M24.2511 77.6291C23.5204 63.2798 25.9962 47.163 37.867 38.9653C49.3686 31.0226 64.2824 36.9251 77.7789 40.6641C90.5376 44.1988 104.289 47.5928 110.661 59.132C117.495 71.507 116.758 86.857 110.199 99.3716C103.742 111.689 91.4062 119.9 77.6168 122.175C64.5079 124.337 51.6979 119.196 41.5203 110.701C31.4513 102.296 24.9156 90.6766 24.2511 77.6291Z" fill="#FFC3C0"/>
<path d="M95.0555 96.8243L90.9486 89.5062L90.2291 88.2247C90.2291 88.2247 115.521 52.521 82.2209 40.4108L94.7393 22.0107C95.9011 22.9954 97.0088 24.0423 98.0576 25.1466C106.949 34.3861 128.535 62.975 95.0555 96.8243Z" fill="#CCD3DD"/>
<path d="M102.04 63.6265C99.5716 79.1531 91.5693 90.0302 91.5693 90.0302L90.972 89.5023L90.2525 88.2208C90.2525 88.2208 115.524 52.522 82.2244 40.4117L94.7428 22.0116C95.9046 22.9964 97.0123 24.0432 98.0611 25.1476L88.7362 39.0851C88.7362 39.0851 104.499 48.1019 102.04 63.6265Z" fill="#CCD3DD"/>
<path d="M90.7797 71.1399L67.1993 71.1183C66.7009 71.1178 66.2965 71.5215 66.296 72.0199L66.2952 72.9018C66.2947 73.4002 66.6984 73.8046 67.1968 73.805L90.7772 73.8267C91.2756 73.8272 91.68 73.4235 91.6805 72.9251L91.6813 72.0432C91.6818 71.5448 91.2781 71.1404 90.7797 71.1399Z" fill="#FF6961"/>
<path d="M58.9033 99.609L72.631 72.8946L84.9863 72.9061L97.5854 99.9145C97.5854 99.9145 58.7018 99.407 58.9033 99.609Z" fill="#002454"/>
<path d="M71.3932 56.3523L58.801 47.8101C58.3802 47.5246 57.8076 47.6343 57.5222 48.0551L56.821 49.0886C56.5356 49.5093 56.6453 50.0819 57.0661 50.3673L69.6583 58.9095C70.0791 59.195 70.6516 59.0853 70.9371 58.6645L71.6382 57.6311C71.9237 57.2103 71.814 56.6378 71.3932 56.3523Z" fill="#FF6961"/>
<path d="M99.5094 11.4775L90.11 5.10118C89.5746 4.738 88.8462 4.87759 88.483 5.41294L82.9366 13.5882C82.5734 14.1235 82.7129 14.8519 83.2483 15.2151L92.6477 21.5914C93.1831 21.9545 93.9115 21.815 94.2747 21.2796L99.8211 13.1044C100.184 12.5691 100.045 11.8407 99.5094 11.4775Z" fill="#FF6961"/>
<path d="M98.4695 20.6005L76.0428 53.6546C75.852 53.9351 75.5578 54.1284 75.2246 54.1922C74.8914 54.256 74.5466 54.1851 74.2657 53.9949L69.8454 50.9954L59.9352 44.2713C59.7958 44.1772 59.6764 44.0565 59.5838 43.9162C59.4912 43.7759 59.4273 43.6186 59.3956 43.4535C59.364 43.2883 59.3653 43.1186 59.3995 42.954C59.4337 42.7894 59.5001 42.6331 59.5948 42.4942L82.0194 9.44072C82.1136 9.3016 82.2344 9.18242 82.3748 9.09C82.5151 8.99759 82.6723 8.93375 82.8374 8.90214C83.0024 8.87053 83.1721 8.87177 83.3367 8.90579C83.5012 8.93981 83.6575 9.00594 83.7965 9.1004L93.7122 15.8373L98.1319 18.8346C98.4089 19.0256 98.5995 19.3179 98.6627 19.6484C98.7259 19.9788 98.6565 20.3208 98.4695 20.6005Z" fill="#335076"/>
<path d="M93.7095 15.8262L69.8454 50.9954L59.9352 44.2713C59.7958 44.1772 59.6764 44.0565 59.5838 43.9162C59.4912 43.7759 59.4273 43.6186 59.3956 43.4535C59.364 43.2883 59.3653 43.1186 59.3995 42.954C59.4337 42.7894 59.5001 42.6331 59.5948 42.4942L82.0194 9.44073C82.1136 9.3016 82.2344 9.18242 82.3747 9.09001C82.5151 8.99759 82.6723 8.93376 82.8373 8.90215C83.0024 8.87054 83.1721 8.87177 83.3367 8.90579C83.5012 8.93981 83.6575 9.00594 83.7965 9.1004L93.7095 15.8262Z" fill="#002454"/>
<path d="M77.6291 53.1162L59.5017 40.819C59.0132 40.4876 58.3485 40.615 58.0171 41.1035L55.2203 45.226C54.8889 45.7144 55.0162 46.3791 55.5047 46.7104L73.6321 59.0076C74.1206 59.339 74.7852 59.2116 75.1167 58.7231L77.9135 54.6006C78.2449 54.1122 78.1176 53.4475 77.6291 53.1162Z" fill="#CCD3DD"/>
<path d="M102.621 109.094L44.3738 109.038C43.6288 109.037 42.9147 108.74 42.3886 108.212C41.8624 107.685 41.5672 106.97 41.568 106.225L41.5711 102.174C41.5722 101.429 41.869 100.715 42.3962 100.188C42.9235 99.662 43.6382 99.3663 44.3833 99.3663L102.631 99.4253C103 99.4253 103.365 99.498 103.706 99.6392C104.046 99.7805 104.356 99.9875 104.617 100.248C104.877 100.509 105.084 100.819 105.225 101.16C105.366 101.501 105.439 101.866 105.438 102.235L105.433 106.289C105.432 107.034 105.135 107.748 104.608 108.274C104.081 108.8 103.366 109.095 102.621 109.094Z" fill="#335076"/>
<path d="M103.133 38.6548C103.646 35.6194 101.601 32.7428 98.5654 32.2298C95.5298 31.7167 92.6531 33.7616 92.14 36.7971C91.6269 39.8325 93.6717 42.7091 96.7073 43.2221C99.7429 43.7351 102.62 41.6903 103.133 38.6548Z" fill="#335076"/>
<path d="M101.608 37.733C101.608 38.5408 101.36 39.3292 100.899 39.9923C100.438 40.6555 99.7848 41.1617 99.0276 41.4432C98.2704 41.7247 97.4452 41.7679 96.6627 41.5671C95.8803 41.3662 95.1779 40.9309 94.6499 40.3196C95.451 40.8369 96.4118 41.0479 97.3559 40.9137C98.3 40.7796 99.164 40.3093 99.7893 39.5894C100.415 38.8694 100.759 37.948 100.76 36.9945C100.76 36.0409 100.417 35.1192 99.7921 34.3986C100.35 34.7572 100.81 35.2506 101.127 35.8334C101.444 36.4161 101.61 37.0694 101.608 37.733Z" fill="#FF8781"/>
<path d="M100.755 36.993C100.754 37.7041 100.562 38.4019 100.198 39.0131C99.8348 39.6243 99.3136 40.1265 98.6892 40.4669C98.0649 40.8074 97.3604 40.9736 96.6498 40.9481C95.9391 40.9226 95.2484 40.7063 94.65 40.322C94.0256 39.6014 93.682 38.6797 93.6825 37.7261C93.6831 36.7726 94.0276 35.8512 94.6529 35.1313C95.2781 34.4113 96.1422 33.9411 97.0863 33.8069C98.0304 33.6728 98.9912 33.8837 99.7922 34.401C100.415 35.1208 100.757 36.0412 100.755 36.993Z" fill="#FF6961"/>
<path d="M63.2016 41.2566C64.6117 38.6626 66.1924 36.1913 67.8375 33.7537C69.4826 31.316 71.3504 29.0423 72.9718 26.594C73.7952 25.3785 74.5427 24.1017 75.2812 22.8364C76.0198 21.5712 76.7563 20.2876 77.5851 19.0755C78.414 17.8633 79.294 16.688 80.2186 15.5417C80.6816 14.9696 81.1612 14.4082 81.6575 13.8577C82.1553 13.3099 82.6586 12.7655 83.2147 12.2551C82.9392 12.9553 82.6092 13.6241 82.2798 14.2857C81.9504 14.9474 81.5968 15.5961 81.2289 16.2343C80.493 17.5106 79.717 18.7569 78.8826 19.9657C78.0482 21.1745 77.1313 22.3236 76.2161 23.4699C75.3009 24.6163 74.3834 25.7726 73.5508 26.9787C71.8534 29.3751 70.4009 31.9395 68.7262 34.3515C67.0514 36.7636 65.3117 39.1304 63.3986 41.3822C63.3809 41.4053 63.3551 41.4207 63.3264 41.4253C63.2977 41.4299 63.2683 41.4233 63.2443 41.407C63.2203 41.3907 63.2034 41.3658 63.1971 41.3374C63.1908 41.3091 63.1956 41.2794 63.2105 41.2544L63.2016 41.2566Z" fill="white"/>
<path d="M98.0454 33.812C97.6595 33.7795 97.2709 33.8105 96.8951 33.9038C96.5189 33.9912 96.1586 34.1365 95.8271 34.3345C95.1696 34.7317 94.624 35.2896 94.2415 35.9557C93.84 36.6114 93.6722 37.3836 93.7655 38.1468C93.8775 38.9152 94.1638 39.6478 94.6025 40.2886C94.3561 39.9801 94.1424 39.647 93.9646 39.2945C93.7917 38.9352 93.6705 38.5533 93.6045 38.1601C93.5349 37.7632 93.5412 37.3566 93.623 36.962C93.6361 36.862 93.6594 36.7636 93.6924 36.6684C93.7229 36.5718 93.7484 36.4742 93.7838 36.3788C93.8592 36.195 93.9476 36.0168 94.0483 35.8455C94.4477 35.1443 95.0283 34.5635 95.7293 34.1637C96.4341 33.772 97.2523 33.6353 98.0462 33.7766C98.0501 33.7791 98.0529 33.7831 98.054 33.7876C98.0551 33.7921 98.0544 33.7969 98.0521 33.801C98.0493 33.8039 98.0458 33.806 98.0418 33.807C98.0379 33.808 98.0337 33.8077 98.0299 33.8063L98.0454 33.812Z" fill="white"/>
<path d="M44.583 100.824C47.6306 100.529 50.6787 100.401 53.7281 100.326C54.4894 100.303 55.2516 100.303 56.0133 100.291C56.7751 100.279 57.5385 100.265 58.3006 100.284C59.8249 100.312 61.3485 100.435 62.8739 100.545C64.3993 100.655 65.9229 100.709 67.4463 100.696L69.7319 100.691L72.0193 100.665C75.057 100.619 78.1152 100.542 81.1638 100.348C81.3049 100.339 81.4439 100.386 81.5502 100.48C81.6564 100.573 81.7212 100.705 81.7304 100.846C81.7395 100.987 81.6921 101.126 81.5987 101.232C81.5053 101.338 81.3736 101.403 81.2324 101.412C81.2098 101.415 81.1871 101.415 81.1645 101.412C78.1146 101.215 75.0684 101.149 72.0181 101.104L69.7327 101.08L67.4454 101.078C65.9273 101.065 64.4007 101.117 62.8655 101.234C61.3403 101.347 59.815 101.469 58.2909 101.499C57.5313 101.519 56.7681 101.505 56.0059 101.496C55.2437 101.486 54.4815 101.486 53.7206 101.463C50.671 101.392 47.6218 101.265 44.5743 100.972C44.5648 100.971 44.5555 100.968 44.547 100.964C44.5385 100.96 44.531 100.954 44.5248 100.947C44.5187 100.939 44.514 100.931 44.5112 100.922C44.5084 100.913 44.5075 100.903 44.5085 100.894C44.5099 100.875 44.5183 100.857 44.5321 100.844C44.5459 100.831 44.5641 100.824 44.583 100.824Z" fill="white"/>
</svg>
