<svg width="24" height="24" viewBox="0 0 24 24" fill="none" xmlns="http://www.w3.org/2000/svg">
<path d="M15.9983 5.54015V5.54015C17.733 4.53988 19.9521 5.22892 20.8152 7.03581L22.2017 9.93841C22.3757 10.3027 22.4418 10.7092 22.3922 11.1099L22.3833 11.1816C22.1963 12.6922 20.4974 13.491 19.2149 12.6712V12.6712" stroke="#002454" stroke-width="1.46875" stroke-linecap="round"/>
<path d="M8.0017 5.54015V5.54015C6.26699 4.53988 4.04787 5.22892 3.1848 7.03581L1.79835 9.93841C1.62433 10.3027 1.55822 10.7092 1.60781 11.1099L1.61669 11.1816C1.80366 12.6922 3.50256 13.491 4.78514 12.6712V12.6712" stroke="#002454" stroke-width="1.46875" stroke-linecap="round"/>
<path d="M19.4843 12.8874L17.378 7.55146C16.545 5.44131 14.5069 4.05469 12.2383 4.05469C10.0151 4.05469 8.00847 5.38707 7.14575 7.43603L4.67572 13.3024C4.12216 14.6171 4.0785 16.0909 4.55326 17.4361C5.20429 19.2806 6.74848 20.6859 8.68184 20.9832C9.82349 21.1587 11.0926 21.302 12.135 21.2881C13.0597 21.2757 14.1785 21.1347 15.1948 20.9683C17.0285 20.6681 18.5382 19.418 19.3293 17.7367C20.0474 16.2108 20.1035 14.4561 19.4843 12.8874Z" stroke="#002454" stroke-width="1.46875" stroke-linecap="round"/>
<rect x="9.16406" y="8.51172" width="1.78277" height="2.37702" rx="0.891383" fill="#002454"/>
<rect x="13.3232" y="8.51172" width="1.78277" height="2.37702" rx="0.891383" fill="#002454"/>
<path d="M13.2118 14.8991C12.7157 15.6969 11.5545 15.6969 11.0585 14.8991C10.5334 14.0546 11.1407 12.9619 12.1351 12.9619C13.1296 12.9619 13.7369 14.0546 13.2118 14.8991Z" stroke="#002454" stroke-width="1.46875"/>
<path d="M12.1357 16.2363V17.722C12.1357 18.5425 12.8009 19.2076 13.6214 19.2076V19.2076C14.4419 19.2076 15.107 18.5425 15.107 17.722V17.4248" stroke="#002454" stroke-width="1.46875" stroke-linecap="round"/>
<path d="M12.1357 16.2363V17.722C12.1357 18.5425 11.4706 19.2076 10.6501 19.2076V19.2076C9.82961 19.2076 9.16446 18.5425 9.16446 17.722V17.4248" stroke="#002454" stroke-width="1.46875" stroke-linecap="round"/>
</svg>
