<svg width="40" height="40" viewBox="0 0 40 40" fill="none" xmlns="http://www.w3.org/2000/svg">
<path d="M31 13.75V10C31 8.89543 30.1046 8 29 8H12C10.8954 8 10 8.89543 10 10V13.75M31 13.75V29C31 30.1046 30.1046 31 29 31H12C10.8954 31 10 30.1046 10 29V13.75M31 13.75H10M18.6897 10.875H22.3103M26.2371 10.875H26.275M28.375 10.875H28.4129M25.5 22.4531V22.4531C25.5 25.1887 23.2355 27.4062 20.5 27.4062V27.4062C17.7645 27.4062 15.5 25.1887 15.5 22.4531V22.4531C15.5 19.7176 17.7645 17.5 20.5 17.5V17.5C23.2355 17.5 25.5 19.7176 25.5 22.4531Z" stroke="#667C98" stroke-width="1.5" stroke-linecap="round"/>
<rect x="0.75" y="0.75" width="38.5" height="38.5" rx="19.25" stroke="#667C98" stroke-width="1.5"/>
</svg>
