<svg width="163" height="137" viewBox="0 0 163 137" fill="none" xmlns="http://www.w3.org/2000/svg">
<g id="Group 1141">
<path id="Vector" d="M43.8226 135.076C43.8226 135.076 -8.15208 113.993 1.10436 65.1306C10.3608 16.2682 62.1305 30.8486 103.528 19.1096C144.926 7.3706 143.923 -19 183.758 -19C223.593 -19 243.478 62.3771 194.293 135.076H43.8226Z" fill="#FFA5A0"/>
<path id="Vector_2" d="M184.646 136.297H39.0619C38.8998 136.297 38.7444 136.232 38.6296 136.118C38.5147 136.004 38.4499 135.849 38.4492 135.686C38.4499 135.524 38.5147 135.369 38.6296 135.255C38.7444 135.14 38.8998 135.076 39.0619 135.076H184.646C184.808 135.076 184.963 135.14 185.077 135.255C185.192 135.369 185.256 135.525 185.256 135.686C185.256 135.848 185.192 136.004 185.077 136.118C184.963 136.232 184.808 136.297 184.646 136.297Z" fill="#47243B"/>
<path id="Vector_3" d="M186.294 135.076C186.294 135.076 188.718 118.568 176.591 115.333C176.591 115.333 183.687 109.494 180.009 103.475C176.33 97.455 170.84 100.509 170.84 100.509C170.84 100.509 179.826 87.122 173.984 80.2944C168.143 73.4668 155.647 66.8223 156.287 74.724C156.287 74.724 151.253 65.8288 146.671 66.8174C142.09 67.806 136.79 88.0203 138.406 98.7951C140.022 109.57 149.815 135.069 149.815 135.069L186.294 135.076Z" fill="#7AC098"/>
<path id="Vector_4" d="M86.3209 15.2332C89.0305 15.199 97.452 16.3097 99.046 23.4693C100.64 30.6288 98.802 28.8664 98.3407 28.4417C97.5254 27.7093 95.1135 24.2919 91.3665 23.8037C87.6195 23.3155 83.4185 24.536 83.4185 24.536C83.4185 24.536 85.281 29.7647 81.202 32.6281L80.3476 32.7379C80.3476 32.7379 79.735 30.8192 78.2338 29.9185C76.7325 29.0177 76.2809 30.3505 76.0245 31.5418C75.7682 32.733 74.2183 35.4963 78.8636 37.0415C78.8636 37.0415 79.7985 40.4125 83.0744 43.8764C83.0744 43.8764 84.8954 45.8976 83.045 49.0026C81.1947 52.1076 70.4492 58.8571 62.8942 52.4859C55.3391 46.1148 60.2261 43.0782 67.4858 32.2619C74.7454 21.4456 79.381 15.3162 86.3209 15.2332Z" fill="#002454"/>
<path id="Vector_5" d="M137.021 103.321L48.3594 109.497L137.021 117.523V103.321Z" fill="#002454"/>
<path id="Vector_6" d="M51.6841 137.403L48.3594 109.497L148.335 115.185L151.24 137.403H51.6841Z" fill="#335076"/>
<path id="Vector_7" d="M173.977 135.076H127.445L132.84 127.511L142.282 121.948L145.194 119.083L146.888 120.713L150.94 113.097L166.138 112.692L170.774 122.876L170.437 126.501L173.977 130.294V135.076Z" fill="#333333"/>
<path id="Vector_8" d="M94.7576 51.2309C94.7576 51.2309 87.6445 51.5751 88.7015 46.0266L82.533 44.1201C82.533 44.1201 82.5182 49.7345 76.8672 51.2309C76.8672 51.2309 80.0406 69.6779 90.6884 67.5102C101.336 65.3426 94.7576 51.2309 94.7576 51.2309Z" fill="#FF9C70"/>
<path id="Vector_9" d="M88.7206 48.1871C88.7206 48.1871 84.4391 48.729 82.0566 46.5101C82.0566 46.5101 82.9354 44.3571 82.3715 42.3457L88.6768 45.5606C88.6768 45.5606 88.4619 47.2302 88.7206 48.1871Z" fill="#E47452"/>
<path id="Vector_10" d="M98.4569 27.792C98.7914 29.4616 97.7515 38.6522 96.1184 41.867C94.4854 45.0819 93.2917 48.1039 87.0865 47.0567C80.5226 45.9485 78.8578 37.0289 78.8578 37.0289C78.8578 37.0289 75.223 36.1769 75.7064 33.0963C76.1897 30.0157 76.8927 29.1272 78.228 29.9059C79.5632 30.6846 80.3418 32.7253 80.3418 32.7253L81.1962 32.6155C81.1962 32.6155 84.5283 30.3428 83.4127 24.5234C83.4127 24.5234 89.9816 22.2654 93.4699 24.3818C96.9581 26.4982 98.4569 27.792 98.4569 27.792Z" fill="#FF9C70"/>
<path id="Vector_11" d="M107.072 72.097L108.818 75.8025C108.818 75.8025 117.935 63.0725 121.511 58.1538C122.126 57.3064 122.423 56.2691 122.348 55.2245C122.231 53.5158 122.375 49.4539 123.286 47.0202C123.959 45.2187 125.971 43.7418 125.971 43.7418C125.971 43.7418 127.973 41.8916 129.181 41.8647C130.389 41.8378 130.929 42.4017 130.929 42.4017C130.929 42.4017 132.835 42.5897 132.728 44.2301C132.728 44.2301 134.795 45.331 134.312 46.5393C134.312 46.5393 135.95 47.9356 134.956 49.5735C133.963 51.2115 129.376 63.2702 128.08 64.8032C126.784 66.3362 116.893 80.7164 116.893 80.7164L105.024 86.4577L100.828 74.7797L107.072 72.097Z" fill="#FF9C70"/>
<path id="Vector_12" d="M144.882 109.661C144.455 110.108 144.072 111.885 139.792 111.831C135.513 111.777 135.54 110.076 135.54 110.076C135.266 110.098 135.01 110.219 134.819 110.418C134.629 110.616 134.518 110.878 134.508 111.152C134.454 112.527 134.239 115.021 133.429 116.63C133.151 117.151 132.974 117.719 132.906 118.305H162.311C162.311 118.305 163.107 116.384 160.939 115.375C158.772 114.367 153.802 112.949 151.312 112.446C146.444 111.443 145.68 108.826 144.882 109.661Z" fill="black"/>
<path id="Vector_13" d="M161.997 118.302H133.063C132.646 118.302 132.309 118.639 132.309 119.056C132.309 119.473 132.646 119.81 133.063 119.81H161.997C162.413 119.81 162.751 119.473 162.751 119.056C162.751 118.639 162.413 118.302 161.997 118.302Z" fill="#666666"/>
<path id="Vector_14" d="M142.88 102.417C142.972 102.603 144.564 110.112 144.564 110.112C144.564 110.112 144.361 112.553 140.797 112.506C137.233 112.46 135.791 110.658 135.791 110.658L134.365 106.211L142.88 102.417Z" fill="#FF9C70"/>
<path id="Vector_15" d="M145.134 101.414L133.661 108.72L126.533 91.5156L116.903 102.822C116.903 102.822 123.494 105.244 124.856 108.102C126.218 110.961 139.475 140.346 139.475 140.346L126.159 142.333C126.159 142.333 113.486 117.923 109.072 115.308C104.659 112.694 92.8563 113.011 92.8563 113.011C92.8563 113.011 72.5322 111.737 67.8088 108.076C63.0853 104.414 73.1229 100.997 73.1229 100.997C73.1229 100.997 80.2018 99.4612 85.0473 97.5791C89.8928 95.6971 91.7603 93.2487 95.107 91.7817C98.4536 90.3146 103.27 87.3194 106.092 84.9687C108.914 82.618 123.059 66.5339 128.08 64.8301C133.102 63.1262 137.269 65.7113 138.621 73.4616C139.973 81.2119 145.134 101.414 145.134 101.414Z" fill="#DDAC13"/>
<path id="Vector_16" d="M104.943 85.8623L101.525 75.0143L107.899 71.6481C107.899 71.6481 105.214 62.4234 102.868 56.9432C100.522 51.4631 94.7612 51.2409 94.7612 51.2409C94.7612 51.2409 100.236 64.8693 90.3966 66.7733C80.5567 68.6773 76.8658 51.2312 76.8658 51.2312C76.8658 51.2312 68.8104 50.8967 66.5452 56.6552C64.2799 62.4136 61.8828 74.9361 61.773 75.2706C61.6631 75.605 67.6974 79.2958 67.6974 79.2958L78.377 101.212C78.377 101.212 90.2941 95.6679 93.3039 92.7045C94.0533 92.2724 99.9923 89.4701 104.943 85.8623Z" fill="#FF6961"/>
<path id="Vector (Stroke)" fill-rule="evenodd" clip-rule="evenodd" d="M101.63 66.4611C101.814 66.3757 102.032 66.455 102.117 66.6383L101.785 66.793C102.117 66.6383 102.117 66.6385 102.117 66.6388L102.118 66.6394L102.118 66.6412L102.121 66.6474C102.124 66.6526 102.127 66.66 102.131 66.6695C102.14 66.6885 102.152 66.7158 102.167 66.7509C102.197 66.8212 102.239 66.9229 102.288 67.0515C102.387 67.3083 102.515 67.6736 102.634 68.111C102.872 68.9808 103.082 70.1588 102.942 71.3428C102.801 72.5355 102.301 73.7483 101.111 74.637C99.9308 75.5188 98.1195 76.0444 95.4295 75.9785C95.2273 75.9736 95.0674 75.8057 95.0724 75.6035C95.0773 75.4014 95.2452 75.2415 95.4474 75.2464C98.0459 75.31 99.6722 74.7978 100.673 74.0502C101.665 73.3095 102.091 72.3013 102.215 71.2568C102.339 70.2036 102.153 69.1282 101.928 68.3039C101.816 67.8942 101.696 67.5523 101.604 67.3137C101.559 67.1945 101.52 67.1014 101.493 67.0388C101.48 67.0076 101.47 66.984 101.463 66.9686C101.459 66.9609 101.457 66.9552 101.455 66.9517L101.453 66.9481L101.453 66.9477" fill="white"/>
<path id="Vector (Stroke)_2" fill-rule="evenodd" clip-rule="evenodd" d="M82.3862 62.2011C82.3552 62.0013 82.1681 61.8645 81.9684 61.8955C81.7685 61.9264 81.6316 62.1135 81.6626 62.3134L82.0244 62.2573C81.6626 62.3134 81.6626 62.3136 81.6626 62.3138L81.6628 62.3146L81.6631 62.3167L81.6643 62.3241C81.6653 62.3304 81.6668 62.3393 81.6687 62.3507C81.6726 62.3735 81.6784 62.4063 81.6863 62.4484C81.7021 62.5324 81.7263 62.6533 81.7605 62.8038C81.8289 63.1045 81.9374 63.5249 82.0989 64.0072C82.4203 64.9669 82.9588 66.1943 83.8255 67.2083C84.698 68.2289 85.9135 69.0431 87.5674 69.1294C89.2098 69.2151 91.223 68.5794 93.6936 66.8382C93.8589 66.7217 93.8984 66.4933 93.7819 66.328C93.6655 66.1627 93.437 66.1231 93.2717 66.2396C90.8761 67.9281 89.024 68.4721 87.6055 68.398C86.1986 68.3246 85.1577 67.6397 84.3822 66.7324C83.601 65.8186 83.0997 64.6895 82.7933 63.7746C82.641 63.3196 82.5387 62.9232 82.4746 62.6415C82.4426 62.5007 82.4203 62.3889 82.406 62.3132C82.3989 62.2753 82.3938 62.2464 82.3906 62.2275C82.389 62.218 82.3878 62.211 82.3871 62.2066L82.3864 62.2019L82.3862 62.2011L82.3862 62.2011Z" fill="white"/>
<path id="Vector_17" d="M68.1586 4.77307C65.0365 7.41672 66.7844 15.3672 79.3997 16.5535C79.3997 16.5535 75.865 -1.74452 68.1586 4.77307Z" fill="#002454"/>
<path id="Vector_18" d="M161.837 135.076L145.192 119.083C145.192 119.083 144.301 121.768 148.18 126.332C152.059 130.897 156.02 135.076 156.02 135.076H161.837Z" fill="black"/>
<path id="Vector_19" d="M126.527 91.5158L125.649 89.4092L110.805 99.6249L116.907 102.823L126.527 91.5158Z" fill="#C79702"/>
<path id="Vector_20" d="M66.9609 104.778C66.9609 104.778 88.1809 109.946 93.7367 110.815C99.2925 111.684 106.005 113.988 107.895 114.742C107.895 114.742 103.242 113.385 99.6294 113.204C96.0167 113.024 93.6415 113.065 92.8555 113.011C92.0695 112.958 79.4078 111.959 74.8137 110.639C70.2197 109.318 65.0374 108.042 66.9609 104.778Z" fill="#C79702"/>
<path id="Vector (Stroke)_3" fill-rule="evenodd" clip-rule="evenodd" d="M86.1275 27.3889C86.1387 27.187 86.3114 27.0324 86.5133 27.0435C86.9526 27.0678 87.4506 27.2527 87.9242 27.4846C88.4062 27.7207 88.9001 28.0243 89.3407 28.3206C89.7824 28.6176 90.1768 28.9114 90.4604 29.1307C90.6024 29.2404 90.717 29.3318 90.7965 29.3961C90.8362 29.4282 90.8672 29.4535 90.8884 29.4709C90.899 29.4797 90.9071 29.4864 90.9127 29.4911L90.9192 29.4965L90.9215 29.4983C90.9215 29.4984 90.9217 29.4986 90.6868 29.7794L90.9217 29.4986C91.0768 29.6283 91.0973 29.8593 90.9676 30.0144C90.8378 30.1694 90.6069 30.19 90.4518 30.0602L90.4516 30.06L90.4503 30.059L90.445 30.0545L90.423 30.0363C90.4034 30.0202 90.3741 29.9963 90.3362 29.9656C90.2603 29.9043 90.1498 29.8162 90.0125 29.71C89.7375 29.4975 89.3567 29.2138 88.9321 28.9283C88.5065 28.6421 88.043 28.3582 87.6021 28.1423C87.1529 27.9223 86.7623 27.7907 86.4729 27.7747C86.271 27.7636 86.1164 27.5908 86.1275 27.3889Z" fill="#47243B"/>
<path id="Vector (Stroke)_4" fill-rule="evenodd" clip-rule="evenodd" d="M97.577 30.9846C97.5771 30.9847 97.5772 30.9848 97.3614 31.2806L97.577 30.9846C97.7404 31.1038 97.7764 31.333 97.6572 31.4964C97.5381 31.6596 97.3093 31.6955 97.1459 31.5766C97.1459 31.5766 97.1459 31.5766 97.1459 31.5766C97.1459 31.5766 97.1457 31.5764 97.1456 31.5764L97.1428 31.5744C97.1401 31.5724 97.1356 31.5692 97.1294 31.5649C97.1171 31.5563 97.0982 31.5431 97.0731 31.5263C97.0229 31.4925 96.9485 31.4441 96.8545 31.3874C96.6659 31.2735 96.4021 31.1283 96.0995 31.0012C95.473 30.7381 94.7752 30.5924 94.2268 30.8265C94.0408 30.9058 93.8257 30.8194 93.7463 30.6334C93.6669 30.4474 93.7533 30.2323 93.9393 30.1529C94.775 29.7963 95.7163 30.046 96.383 30.326C96.727 30.4705 97.0232 30.6338 97.2331 30.7605C97.3383 30.8241 97.4227 30.879 97.4815 30.9185C97.511 30.9382 97.534 30.9542 97.5502 30.9655C97.5582 30.9712 97.5646 30.9757 97.5691 30.9789L97.5745 30.9828L97.5762 30.984L97.577 30.9846Z" fill="#47243B"/>
<path id="Vector (Stroke)_5" fill-rule="evenodd" clip-rule="evenodd" d="M97.6717 34.2087C97.6717 34.2088 97.6718 34.2089 97.3596 34.4002L97.6718 34.2089C97.7774 34.3814 97.7232 34.6068 97.5508 34.7124C97.3785 34.8179 97.1534 34.764 97.0476 34.5919C97.0476 34.5918 97.0475 34.5917 97.0474 34.5916C97.0474 34.5916 97.0475 34.5916 97.0474 34.5916L97.0461 34.5895C97.0446 34.5871 97.042 34.583 97.0384 34.5774C97.0311 34.5661 97.0196 34.5486 97.0041 34.5261C96.9732 34.481 96.9269 34.4162 96.8672 34.3409C96.7464 34.1884 96.5778 34.0011 96.3786 33.8449C96.1774 33.687 95.9662 33.5775 95.7582 33.5474C95.564 33.5193 95.3435 33.5555 95.093 33.7451C94.9317 33.8671 94.702 33.8352 94.58 33.674C94.458 33.5127 94.4899 33.2831 94.6511 33.161C95.0524 32.8575 95.4686 32.7656 95.863 32.8226C96.2437 32.8777 96.5729 33.0665 96.8306 33.2687C97.0904 33.4725 97.2992 33.7069 97.4412 33.8861C97.5129 33.9766 97.5692 34.0552 97.6081 34.112C97.6276 34.1404 97.6428 34.1635 97.6535 34.18C97.6589 34.1883 97.6631 34.195 97.6661 34.1998L97.6699 34.2058L97.6711 34.2077L97.6717 34.2087Z" fill="#47243B"/>
<path id="Vector (Stroke)_6" fill-rule="evenodd" clip-rule="evenodd" d="M88.9244 31.6428C88.9244 31.643 88.9245 31.6432 88.5904 31.793L88.9245 31.6432C89.0073 31.8277 88.9248 32.0444 88.7402 32.1271C88.5562 32.2096 88.3402 32.1278 88.257 31.9443C88.257 31.9444 88.2571 31.9445 88.2571 31.9445L88.2571 31.9445L88.2568 31.944L88.2567 31.9436C88.2568 31.9439 88.2569 31.9441 88.257 31.9443M88.2567 31.9436C88.256 31.9422 88.2546 31.9392 88.2524 31.9347C88.2479 31.9257 88.2404 31.911 88.2297 31.8914C88.2082 31.8522 88.1743 31.7946 88.1273 31.7267C88.0325 31.5898 87.8892 31.4183 87.694 31.2717C87.3237 30.9935 86.7276 30.7719 85.8011 31.155C85.6142 31.2322 85.4001 31.1434 85.3228 30.9565C85.2455 30.7696 85.3344 30.5555 85.5213 30.4782C86.6965 29.9923 87.565 30.2589 88.1339 30.6862C88.4083 30.8923 88.6033 31.1278 88.7293 31.3098C88.7927 31.4013 88.8399 31.4811 88.8718 31.5394C88.8879 31.5686 88.9002 31.5926 88.9089 31.6103C88.9133 31.6191 88.9167 31.6264 88.9193 31.6319L88.9226 31.6389L88.9237 31.6414L88.9242 31.6424L88.9244 31.6428" fill="#47243B"/>
<path id="Vector (Stroke)_7" fill-rule="evenodd" clip-rule="evenodd" d="M92.8151 30.2185C93.0158 30.1941 93.1984 30.337 93.2228 30.5378L94.0526 37.3581C94.0653 37.4621 94.0327 37.5666 93.9632 37.6451C93.8937 37.7235 93.794 37.7684 93.6891 37.7684H91.5556C91.3534 37.7684 91.1895 37.6045 91.1895 37.4023C91.1895 37.2001 91.3534 37.0361 91.5556 37.0361H93.2757L92.4959 30.6262C92.4714 30.4255 92.6144 30.243 92.8151 30.2185Z" fill="#E47452"/>
<path id="Vector (Stroke)_8" fill-rule="evenodd" clip-rule="evenodd" d="M87.4184 36.6828C87.6206 36.6893 87.7792 36.8583 87.7727 37.0604C87.7382 38.1433 88.381 38.8603 89.0977 39.3289C89.4544 39.5621 89.8164 39.7239 90.091 39.8276C90.2277 39.8791 90.3411 39.9157 90.4193 39.939C90.4583 39.9507 90.4884 39.9591 90.508 39.9643C90.5179 39.967 90.5251 39.9688 90.5295 39.97L90.5339 39.9711L90.534 39.9711C90.5341 39.9711 90.5342 39.9711 90.5343 39.9712C90.5341 39.9711 90.534 39.9711 90.4483 40.3271L90.3626 40.6831C90.5592 40.7304 90.7569 40.6094 90.8043 40.4128C90.8516 40.2163 90.7307 40.0186 90.5343 39.9712M90.4483 40.3271C90.3626 40.6831 90.3624 40.683 90.3623 40.683L90.3619 40.6829L90.3609 40.6827L90.3581 40.682L90.3492 40.6797C90.3418 40.6779 90.3315 40.6752 90.3185 40.6717C90.2924 40.6647 90.2555 40.6545 90.2094 40.6406C90.1171 40.613 89.9872 40.5711 89.8325 40.5127C89.5242 40.3964 89.1107 40.2124 88.6969 39.9418C87.8728 39.4029 86.9948 38.4808 87.0408 37.0371C87.0472 36.835 87.2163 36.6764 87.4184 36.6828" fill="#47243B"/>
<path id="Vector (Stroke)_9" fill-rule="evenodd" clip-rule="evenodd" d="M77.8139 69.3596C78.0155 69.3436 78.1918 69.4941 78.2078 69.6957L78.6252 74.9757C78.6411 75.1773 78.4906 75.3536 78.289 75.3696C78.0874 75.3855 77.9111 75.235 77.8951 75.0334L77.4777 69.7534C77.4618 69.5518 77.6123 69.3755 77.8139 69.3596Z" fill="#5405BE"/>
<path id="Vector_21" d="M77.5897 36.9485C77.9888 36.9485 78.3123 36.625 78.3123 36.226C78.3123 35.8269 77.9888 35.5034 77.5897 35.5034C77.1907 35.5034 76.8672 35.8269 76.8672 36.226C76.8672 36.625 77.1907 36.9485 77.5897 36.9485Z" fill="#219653"/>
<path id="Vector (Stroke)_10" fill-rule="evenodd" clip-rule="evenodd" d="M78.8441 31.7395C78.8442 31.7396 78.8443 31.7397 78.5783 31.9913L78.8441 31.7395C78.9831 31.8864 78.9768 32.1183 78.8299 32.2573C78.6829 32.3962 78.4512 32.3898 78.3122 32.2428L78.5706 31.9985C78.3122 32.2428 78.3122 32.2428 78.3122 32.2428L78.3127 32.2433L78.3129 32.2435C78.3129 32.2435 78.3128 32.2435 78.3125 32.2431L78.3083 32.2389C78.3043 32.2347 78.2976 32.228 78.2886 32.2194C78.2706 32.202 78.2441 32.1773 78.2117 32.1498C78.1435 32.0919 78.0645 32.0345 77.9932 32.0006C77.9832 31.9959 77.9745 31.992 77.9668 31.989C77.9603 32.0071 77.9528 32.0323 77.9456 32.0668C77.8631 32.458 77.8323 32.9652 77.8932 33.4202C77.9566 33.8944 78.1059 34.2163 78.2935 34.3554C78.456 34.4758 78.4901 34.7051 78.3697 34.8676C78.2493 35.03 78.0199 35.0641 77.8575 34.9437C77.4227 34.6214 77.2375 34.0425 77.1673 33.5172C77.0945 32.9726 77.1309 32.3813 77.229 31.9157C77.2859 31.6457 77.418 31.3946 77.6835 31.2894C77.9283 31.1924 78.1654 31.2715 78.3078 31.3393C78.4617 31.4125 78.5965 31.5158 78.6859 31.5917C78.7323 31.6312 78.7705 31.6667 78.7975 31.6928C78.8111 31.7059 78.822 31.7168 78.8299 31.7248C78.8338 31.7288 78.837 31.7321 78.8394 31.7346L78.8425 31.7377L78.8435 31.7389L78.8441 31.7395ZM77.9872 31.9478C77.9873 31.948 77.9864 31.9494 77.9842 31.9516C77.9861 31.9488 77.9872 31.9477 77.9872 31.9478Z" fill="#E47452"/>
<path id="Vector_22" d="M62.9223 109.985C62.8197 109.985 56.9857 110.993 55.4258 110.805C53.866 110.617 51.3077 109.658 52.6918 108.545C54.0759 107.432 59.5463 104.861 61.0305 104.639C61.8008 104.503 62.5798 104.422 63.3616 104.395L62.9223 109.985Z" fill="#FF9C70"/>
<path id="Vector (Stroke)_11" fill-rule="evenodd" clip-rule="evenodd" d="M56.5672 107.702C56.6508 107.886 56.5693 108.103 56.3851 108.187L52.3672 110.01C52.183 110.094 51.966 110.012 51.8824 109.828C51.7989 109.644 51.8804 109.427 52.0645 109.344L56.0825 107.52C56.2666 107.437 56.4837 107.518 56.5672 107.702Z" fill="#E47452"/>
<path id="Vector (Stroke)_12" fill-rule="evenodd" clip-rule="evenodd" d="M56.5695 109.312C56.6482 109.498 56.561 109.713 56.3747 109.792L53.9775 110.805C53.7913 110.884 53.5764 110.796 53.4977 110.61C53.419 110.424 53.5062 110.209 53.6925 110.13L56.0897 109.117C56.2759 109.039 56.4907 109.126 56.5695 109.312Z" fill="#E47452"/>
<path id="Vector (Stroke)_13" fill-rule="evenodd" clip-rule="evenodd" d="M59.1855 109.306C59.3674 109.218 59.5865 109.293 59.675 109.475C59.7635 109.657 59.6879 109.876 59.5061 109.965L59.3458 109.635L59.1855 109.306ZM56.6264 110.463C56.6295 110.463 56.6346 110.461 56.642 110.459C56.6642 110.452 56.6959 110.441 56.7378 110.426C56.8214 110.395 56.9313 110.35 57.0607 110.295C57.3188 110.184 57.6404 110.038 57.9565 109.891C58.272 109.744 58.5793 109.598 58.808 109.488C58.9223 109.433 59.0168 109.388 59.0827 109.356L59.1589 109.319L59.1855 109.306L59.3458 109.635C59.5061 109.965 59.5061 109.964 59.5061 109.965L59.4786 109.978L59.4015 110.015C59.3349 110.047 59.2397 110.093 59.1245 110.149C58.8943 110.259 58.5842 110.406 58.2653 110.555C57.947 110.703 57.6174 110.853 57.3489 110.968C57.215 111.025 57.0928 111.075 56.9931 111.112C56.9435 111.131 56.8958 111.147 56.853 111.16C56.817 111.171 56.7604 111.187 56.7024 111.191C56.5008 111.208 56.3242 111.058 56.3079 110.856C56.292 110.66 56.4334 110.488 56.6264 110.463Z" fill="#E47452"/>
<path id="Vector_23" d="M62.9259 77.0745C62.9259 77.0745 59.6476 83.7068 57.331 77.0745C55.0145 70.4422 57.9291 65.1915 60.1284 63.8928C62.0032 62.7797 64.842 62.853 65.96 65.5698C65.96 65.5698 73.4736 61.176 82.0222 63.971C82.0222 63.971 82.9814 59.333 86.9774 59.7357C90.9734 60.1385 95.3673 71.3234 93.1289 76.3568C90.8905 81.3902 87.3777 79.1543 86.4184 74.4406C86.4184 74.4406 84.0213 82.8305 81.6242 84.5075C81.6242 84.5075 81.9 84.7516 82.3565 85.2398C84.3264 87.3098 89.6528 93.8981 91.2053 105.932C91.2053 105.932 95.919 99.9397 96.5585 90.7517C97.1981 81.5636 102.881 83.531 102.952 86.4359C103.022 89.3407 102.393 106.892 92.4039 114.244C92.4039 114.244 93.8538 122.195 93.4779 128.661C93.4779 128.661 98.1549 128.988 98.1159 134.986H58.0315C58.0315 134.986 56.1104 128.912 61.2903 127.868C61.2903 127.868 59.8379 110.91 61.0267 101.968C62.2155 93.0267 66.3359 85.4814 66.3359 85.4814C66.3359 85.4814 62.6574 81.2438 62.9259 77.0745Z" fill="#A25700"/>
<path id="Vector_24" d="M73.8041 85.5813C77.1273 85.5813 79.8214 83.0753 79.8214 79.984C79.8214 76.8927 77.1273 74.3867 73.8041 74.3867C70.4809 74.3867 67.7871 76.8927 67.7871 79.984C67.7871 83.0753 70.4809 85.5813 73.8041 85.5813Z" fill="white"/>
<path id="Vector_25" d="M73.6704 79.7349C75.1685 79.3203 76.2039 78.3375 75.9831 77.5397C75.7623 76.7419 74.3689 76.4313 72.8708 76.8459C71.3727 77.2605 70.3372 78.2434 70.558 79.0412C70.7788 79.839 72.1723 80.1496 73.6704 79.7349Z" fill="#333333"/>
<path id="Vector_26" d="M73.347 83.3358C73.2274 83.3358 73.1199 83.3358 73.0223 83.3212C72.9002 83.3076 72.7883 83.2465 72.7111 83.1509C72.6338 83.0554 72.5975 82.9332 72.6098 82.811C72.6227 82.6891 72.6834 82.5772 72.7786 82.4999C72.8737 82.4226 72.9956 82.3862 73.1175 82.3985C73.2103 82.3985 75.2802 82.584 76.2029 80.6677C76.2562 80.5572 76.3512 80.4723 76.4669 80.4316C76.5827 80.3908 76.7098 80.3977 76.8206 80.4505C76.9313 80.5043 77.0162 80.5996 77.0569 80.7157C77.0976 80.8319 77.0908 80.9594 77.0379 81.0705C76.6983 81.7573 76.1717 82.3342 75.5188 82.7349C74.8658 83.1357 74.113 83.344 73.347 83.3358Z" fill="black"/>
<path id="Vector_27" d="M79.8225 79.3521C80.7783 79.3521 81.5531 78.7325 81.5531 77.9681C81.5531 77.2037 80.7783 76.584 79.8225 76.584C78.8666 76.584 78.0918 77.2037 78.0918 77.9681C78.0918 78.7325 78.8666 79.3521 79.8225 79.3521Z" fill="#FFC3C0"/>
<path id="Vector_28" d="M67.8724 80.1151C68.7518 79.7406 69.2218 78.8668 68.9223 78.1636C68.6228 77.4603 67.6671 77.1938 66.7877 77.5684C65.9083 77.9429 65.4381 78.8167 65.7377 79.52C66.0372 80.2232 66.993 80.4897 67.8724 80.1151Z" fill="#FFC3C0"/>
<path id="Vector_29" d="M69.564 74.0379C69.843 74.0379 70.0691 73.8117 70.0691 73.5326C70.0691 73.2536 69.843 73.0273 69.564 73.0273C69.2849 73.0273 69.0586 73.2536 69.0586 73.5326C69.0586 73.8117 69.2849 74.0379 69.564 74.0379Z" fill="black"/>
<path id="Vector_30" d="M78.4468 73.1522C78.7258 73.1522 78.9519 72.926 78.9519 72.6469C78.9519 72.3678 78.7258 72.1416 78.4468 72.1416C78.1677 72.1416 77.9414 72.3678 77.9414 72.6469C77.9414 72.926 78.1677 73.1522 78.4468 73.1522Z" fill="black"/>
<path id="Vector_31" d="M68.1676 72.6022C68.1063 72.6027 68.0456 72.5909 67.9889 72.5674C67.9323 72.5439 67.881 72.5093 67.838 72.4655C67.7516 72.3786 67.7031 72.261 67.7031 72.1384C67.7031 72.0158 67.7516 71.8982 67.838 71.8113C68.7852 70.8715 70.4354 71.4964 70.5062 71.5233C70.6207 71.568 70.7129 71.6563 70.7623 71.7689C70.8117 71.8815 70.8145 72.0092 70.7698 72.1238C70.7251 72.2377 70.6371 72.3294 70.5251 72.3788C70.4131 72.4282 70.286 72.4313 70.1717 72.3874C69.8495 72.2653 68.922 72.0408 68.4899 72.468C68.4045 72.5536 68.2886 72.6019 68.1676 72.6022Z" fill="black"/>
<path id="Vector_32" d="M79.824 71.6462C79.7384 71.6468 79.6543 71.6249 79.5799 71.5827C79.553 71.5681 78.2177 70.8138 77.3585 71.5363C77.3121 71.5756 77.2584 71.6053 77.2004 71.6237C77.1425 71.6422 77.0815 71.649 77.0209 71.6438C76.9604 71.6385 76.9014 71.6214 76.8475 71.5933C76.7936 71.5653 76.7458 71.5268 76.7067 71.4802C76.6675 71.4338 76.6378 71.3801 76.6194 71.3221C76.6009 71.2642 76.5941 71.2032 76.5994 71.1427C76.6046 71.0821 76.6217 71.0232 76.6498 70.9692C76.6778 70.9153 76.7163 70.8674 76.7629 70.8284C78.1274 69.6787 79.9704 70.7381 80.0485 70.7845C80.1008 70.8152 80.1466 70.856 80.1831 70.9044C80.2196 70.9528 80.2462 71.008 80.2614 71.0667C80.2766 71.1254 80.2801 71.1866 80.2717 71.2466C80.2632 71.3067 80.243 71.3645 80.2122 71.4167C80.1725 71.485 80.116 71.5419 80.048 71.5821C79.9801 71.6223 79.9029 71.6443 79.824 71.6462Z" fill="black"/>
<path id="Vector_33" d="M84.1765 134.022C84.0617 134.021 83.9511 133.978 83.866 133.901C83.7809 133.824 83.7271 133.719 83.7151 133.604C83.6931 133.385 81.5376 111.728 81.3985 104.153C81.3965 104.031 81.4432 103.912 81.5283 103.824C81.6134 103.736 81.73 103.685 81.8526 103.682C81.9739 103.681 82.0905 103.729 82.1769 103.814C82.2634 103.899 82.3126 104.015 82.3139 104.136C82.453 111.674 84.606 133.294 84.628 133.512C84.6396 133.634 84.6026 133.756 84.5249 133.851C84.4472 133.946 84.3352 134.006 84.2131 134.019L84.1765 134.022Z" fill="white"/>
<path id="Vector_34" d="M69.8714 134.021C69.7486 134.02 69.6314 133.97 69.545 133.883C69.4586 133.796 69.4102 133.678 69.4102 133.555C69.4102 133.328 69.4785 110.668 69.4102 104.507C69.4095 104.384 69.4573 104.266 69.5432 104.178C69.6291 104.09 69.7462 104.04 69.8691 104.038C69.991 104.038 70.108 104.086 70.1944 104.172C70.2809 104.258 70.3298 104.375 70.3304 104.497C70.4012 110.67 70.3304 133.338 70.3304 133.565C70.3285 133.686 70.2795 133.801 70.1937 133.886C70.108 133.972 69.9923 134.02 69.8714 134.021Z" fill="white"/>
<path id="Vector_35" d="M65.9616 65.5581C64.8436 62.8412 62.0048 62.768 60.13 63.8811C57.9331 65.1822 55.0161 70.4329 57.3326 77.0628C59.6492 83.6926 62.9275 77.0628 62.9275 77.0628C62.8804 78.0026 62.9934 78.9436 63.2618 79.8455C66.8916 74.7462 68.388 67.3498 68.864 64.2863C67.8617 64.6257 66.8905 65.0512 65.9616 65.5581Z" fill="black"/>
<path id="Vector (Stroke)_14" fill-rule="evenodd" clip-rule="evenodd" d="M81.8675 84.6077C82.1174 84.291 82.5766 84.2361 82.8943 84.4852C83.2125 84.7349 83.2681 85.1952 83.0185 85.5134L82.4423 85.0614C83.0185 85.5134 83.0182 85.5138 83.0178 85.5143L83.017 85.5153L83.015 85.5179L83.0093 85.525C83.0048 85.5306 82.9989 85.5379 82.9915 85.547C82.9767 85.565 82.9561 85.5897 82.9296 85.6204C82.8768 85.6818 82.8007 85.7673 82.7014 85.8716C82.5027 86.0802 82.2103 86.3649 81.824 86.6835C81.052 87.3202 79.8995 88.0968 78.3668 88.6683C75.273 89.8219 70.7341 90.1007 64.8161 86.9274C64.4596 86.7362 64.3256 86.2923 64.5168 85.9359C64.7079 85.5795 65.1518 85.4455 65.5082 85.6366C71.0802 88.6244 75.1813 88.293 77.8551 87.296C79.2062 86.7922 80.2194 86.1084 80.8921 85.5536C81.2282 85.2765 81.4779 85.0326 81.6408 84.8616C81.7222 84.7761 81.7817 84.709 81.8193 84.6653C81.8381 84.6434 81.8514 84.6274 81.8592 84.6179C81.8631 84.6131 81.8657 84.61 81.8668 84.6086M81.8673 84.6079C81.8672 84.6081 81.867 84.6083 81.8668 84.6086L81.8671 84.6083L81.8673 84.6079Z" fill="#219653"/>
<path id="Vector (Stroke)_15" fill-rule="evenodd" clip-rule="evenodd" d="M94.2801 131.507C94.3063 131.375 94.4348 131.289 94.567 131.315C95.0845 131.417 95.4506 131.638 95.6977 131.928C95.9426 132.214 96.0551 132.55 96.1 132.858C96.1447 133.165 96.1237 133.455 96.0929 133.665C96.0774 133.771 96.0591 133.858 96.0444 133.92C96.0371 133.951 96.0306 133.976 96.0259 133.993C96.0235 134.002 96.0215 134.009 96.0201 134.014L96.0183 134.02L96.0177 134.022L96.0175 134.022L96.0174 134.023C96.0174 134.023 96.0173 134.023 95.7839 133.951L96.0173 134.023C95.9778 134.152 95.8413 134.224 95.7124 134.185C95.5836 134.145 95.5112 134.009 95.5504 133.88C95.5504 133.88 95.5505 133.88 95.5505 133.88L95.5505 133.88L95.5512 133.877C95.552 133.875 95.5533 133.87 95.555 133.864C95.5584 133.852 95.5634 133.832 95.5694 133.807C95.5813 133.757 95.5967 133.684 95.6099 133.594C95.6364 133.413 95.6526 133.173 95.6169 132.928C95.5812 132.683 95.4954 132.443 95.3265 132.245C95.1599 132.05 94.8968 131.878 94.4721 131.794C94.3398 131.767 94.2539 131.639 94.2801 131.507Z" fill="white"/>
<path id="Vector (Stroke)_16" fill-rule="evenodd" clip-rule="evenodd" d="M92.7793 132.261C92.8053 132.129 92.9336 132.043 93.0659 132.069C93.4353 132.141 93.7025 132.3 93.8848 132.513C94.0648 132.723 94.1465 132.968 94.1791 133.189C94.2115 133.409 94.1967 133.616 94.1752 133.765C94.1644 133.84 94.1515 133.902 94.1411 133.947C94.1359 133.969 94.1313 133.986 94.1279 133.999C94.1261 134.006 94.1247 134.011 94.1236 134.015L94.1222 134.019L94.1217 134.021L94.1215 134.021L94.1215 134.022C94.1214 134.022 94.1214 134.022 93.8878 133.951" fill="white"/>
<path id="Vector (Stroke)_17" fill-rule="evenodd" clip-rule="evenodd" d="M61.0644 131.507C61.0906 131.639 61.0046 131.767 60.8724 131.794C60.4477 131.878 60.1846 132.05 60.018 132.245C59.849 132.443 59.7633 132.683 59.7276 132.928C59.6918 133.173 59.7081 133.413 59.7346 133.594C59.7478 133.684 59.7632 133.757 59.7751 133.807C59.7811 133.832 59.7861 133.852 59.7895 133.864C59.7912 133.87 59.7925 133.875 59.7932 133.877L59.7939 133.88L59.794 133.88C59.8334 134.009 59.7609 134.145 59.6321 134.185C59.5032 134.224 59.3666 134.152 59.3271 134.023L59.5605 133.951C59.3271 134.023 59.3271 134.023 59.3271 134.023L59.327 134.022L59.3268 134.022L59.3262 134.02L59.3244 134.014C59.323 134.009 59.321 134.002 59.3186 133.993C59.3138 133.976 59.3074 133.951 59.3 133.92C59.2854 133.858 59.2671 133.771 59.2516 133.665C59.2208 133.455 59.1997 133.165 59.2445 132.858C59.2894 132.55 59.4019 132.214 59.6467 131.928C59.8939 131.638 60.2599 131.417 60.7775 131.315C60.9097 131.289 61.0382 131.375 61.0644 131.507Z" fill="white"/>
<path id="Vector (Stroke)_18" fill-rule="evenodd" clip-rule="evenodd" d="M62.5674 132.261C62.5934 132.393 62.5073 132.522 62.375 132.548C62.0987 132.602 61.9347 132.712 61.8333 132.83C61.7296 132.952 61.675 133.102 61.652 133.26C61.6289 133.419 61.6392 133.575 61.6567 133.695C61.6654 133.754 61.6755 133.802 61.6832 133.835C61.6871 133.851 61.6903 133.863 61.6924 133.871C61.6935 133.875 61.6942 133.877 61.6947 133.879L61.6949 133.88L61.695 133.88C61.734 134.009 61.6615 134.145 61.5328 134.184C61.4039 134.224 61.2674 134.151 61.228 134.022L61.4614 133.951C61.228 134.022 61.228 134.022 61.228 134.022L61.2278 134.022L61.2276 134.021L61.2271 134.02L61.2258 134.015C61.2247 134.011 61.2232 134.006 61.2215 134C61.218 133.987 61.2133 133.969 61.2081 133.947C61.1976 133.903 61.1847 133.84 61.1737 133.765C61.1519 133.617 61.1367 133.41 61.1689 133.19C61.201 132.969 61.2824 132.724 61.4622 132.513C61.6443 132.3 61.9115 132.141 62.2808 132.069C62.4131 132.043 62.5414 132.129 62.5674 132.261Z" fill="white"/>
<path id="Vector_36" d="M77.0428 80.7949C77.0013 80.8413 77.1868 81.4638 75.5781 82.6916C76.391 83.7559 77.1722 84.7885 78.1901 83.8218C79.208 82.8552 78.0192 81.5761 77.0428 80.7949Z" fill="#DF3636"/>
<path id="Vector (Stroke)_19" fill-rule="evenodd" clip-rule="evenodd" d="M82.1192 63.6058C82.1193 63.6058 82.1193 63.6059 82.0221 63.9589L82.1192 63.6058C82.3141 63.6595 82.4288 63.8611 82.3751 64.0561C82.3215 64.251 82.1199 64.3656 81.925 64.3119M81.925 64.3119L81.9216 64.311L81.9101 64.3079C81.8997 64.3051 81.884 64.3009 81.8631 64.2953C81.8213 64.2843 81.7591 64.2681 81.6782 64.2477C81.5165 64.207 81.2805 64.1496 80.9854 64.0836C80.3948 63.9516 79.5692 63.7853 78.6298 63.6487C76.7379 63.3736 74.4345 63.2268 72.6571 63.686C72.4613 63.7366 72.2615 63.6189 72.211 63.4231C72.1604 63.2273 72.2781 63.0276 72.4739 62.977C74.3995 62.4794 76.8245 62.6462 78.7351 62.924C79.697 63.0639 80.5412 63.2339 81.1452 63.369C81.4473 63.4365 81.6897 63.4954 81.8571 63.5376C81.9408 63.5587 82.0058 63.5756 82.0501 63.5873C82.0723 63.5932 82.0893 63.5977 82.1009 63.6009L82.1143 63.6045L82.1192 63.6058" fill="white"/>
<path id="Vector (Stroke)_20" fill-rule="evenodd" clip-rule="evenodd" d="M64.6363 71.2817C64.8372 71.3046 64.9815 71.4861 64.9586 71.687L64.5948 71.6455C64.9586 71.687 64.9586 71.6871 64.9586 71.6872L64.9585 71.6875L64.9584 71.6884L64.9581 71.6912L64.9569 71.7008C64.9559 71.7091 64.9545 71.721 64.9525 71.7363C64.9485 71.767 64.9425 71.8116 64.934 71.869C64.9172 71.9838 64.8909 72.1498 64.8525 72.3579C64.7757 72.7741 64.6504 73.3599 64.4557 74.0432C64.0672 75.4063 63.3979 77.1734 62.2739 78.7537C62.1567 78.9184 61.9281 78.957 61.7633 78.8398C61.5985 78.7226 61.56 78.494 61.6772 78.3292C62.7355 76.8411 63.3758 75.1602 63.7514 73.8425C63.9387 73.1852 64.059 72.6224 64.1323 72.225C64.169 72.0264 64.1939 71.8694 64.2095 71.7629C64.2173 71.7096 64.2228 71.669 64.2262 71.6421C64.228 71.6287 64.2292 71.6187 64.23 71.6123L64.2308 71.6054L64.231 71.604L64.231 71.604L64.231 71.6038C64.254 71.403 64.4354 71.2588 64.6363 71.2817Z" fill="white"/>
<path id="Vector (Stroke)_21" fill-rule="evenodd" clip-rule="evenodd" d="M86.069 70.6061C86.2711 70.6124 86.4298 70.7813 86.4236 70.9834C86.4235 70.9835 86.4236 70.9834 86.4236 70.9834L86.4235 70.9856L86.4233 70.9944C86.4231 71.0025 86.4228 71.015 86.4226 71.0318C86.4221 71.0652 86.4216 71.1155 86.4218 71.1809C86.4222 71.3117 86.4253 71.5027 86.436 71.7403C86.4574 72.2161 86.5095 72.8763 86.6315 73.6127C86.8778 75.0988 87.4001 76.8366 88.4766 78.0195C88.6127 78.1691 88.6018 78.4007 88.4522 78.5368C88.3026 78.6729 88.0711 78.662 87.935 78.5124C86.7144 77.1712 86.1626 75.2621 85.9091 73.7324C85.7812 72.9608 85.7268 72.2707 85.7044 71.7733C85.6932 71.5244 85.6899 71.323 85.6895 71.1831C85.6893 71.1131 85.6898 71.0585 85.6903 71.0208C85.6906 71.002 85.6909 70.9875 85.6912 70.9774L85.6914 70.9656L85.6915 70.9623L85.6916 70.9609C85.6916 70.9608 85.6916 70.9607 86.0565 70.9721L85.6916 70.9609C85.6979 70.7588 85.8669 70.5998 86.069 70.6061ZM86.4236 70.9834C86.4235 70.9835 86.4236 70.9834 86.4236 70.9834V70.9834Z" fill="white"/>
<path id="Vector (Stroke)_22" fill-rule="evenodd" clip-rule="evenodd" d="M65.0638 128.386C65.0639 128.386 65.0641 128.386 64.857 128.688L65.0641 128.386C65.2309 128.501 65.2734 128.729 65.159 128.895C65.0448 129.062 64.8172 129.105 64.6504 128.991C64.6504 128.991 64.6504 128.991 64.6504 128.991C64.6503 128.991 64.6503 128.991 64.6503 128.99C64.6502 128.99 64.6502 128.99 64.6502 128.99C64.6501 128.99 64.6501 128.99 64.65 128.99L64.6499 128.99L64.6454 128.987C64.6411 128.984 64.6339 128.98 64.6241 128.973C64.6044 128.961 64.574 128.941 64.5338 128.917C64.4533 128.869 64.3336 128.801 64.1817 128.725C63.8768 128.572 63.447 128.389 62.9457 128.268C61.9449 128.026 60.69 128.033 59.5456 128.971C59.3893 129.1 59.1585 129.077 59.0303 128.92C58.9021 128.764 58.9249 128.533 59.0812 128.405C60.4609 127.274 61.9778 127.281 63.1178 127.556C63.6869 127.694 64.1697 127.899 64.5099 128.07C64.6805 128.155 64.8165 128.233 64.9109 128.29C64.9582 128.318 64.9951 128.341 65.0209 128.358C65.0338 128.366 65.0439 128.373 65.0512 128.378L65.0598 128.383L65.0625 128.385L65.0634 128.386L65.0638 128.386Z" fill="white"/>
<path id="Vector (Stroke)_23" fill-rule="evenodd" clip-rule="evenodd" d="M96.1071 129.311C96.1073 129.311 96.1074 129.311 95.8841 129.593L96.1074 129.311C96.2659 129.437 96.2927 129.667 96.1672 129.825C96.0418 129.984 95.8119 130.011 95.6533 129.886C95.6533 129.886 95.6532 129.886 95.6531 129.885C95.6531 129.885 95.6531 129.885 95.6531 129.885L95.653 129.885L95.6528 129.885L95.6494 129.883C95.6458 129.88 95.6398 129.875 95.6314 129.869C95.6147 129.857 95.5886 129.838 95.554 129.814C95.4846 129.766 95.3812 129.698 95.2496 129.622C94.9852 129.47 94.6131 129.288 94.1783 129.168C93.3174 128.931 92.2275 128.933 91.2007 129.869C91.0513 130.005 90.8197 129.994 90.6834 129.845C90.5472 129.695 90.5579 129.464 90.7074 129.328C91.9703 128.176 93.3434 128.178 94.3731 128.463C94.8836 128.603 95.3137 128.814 95.6152 128.987C95.7666 129.075 95.887 129.154 95.9708 129.211C96.0127 129.24 96.0455 129.264 96.0685 129.281C96.08 129.29 96.089 129.297 96.0955 129.302L96.1034 129.308L96.1059 129.31L96.1068 129.311L96.1071 129.311Z" fill="white"/>
<path id="Vector (Stroke)_24" fill-rule="evenodd" clip-rule="evenodd" d="M102.986 89.1295C103.188 89.1413 103.342 89.3145 103.33 89.5164L102.965 89.4951C103.33 89.5164 103.33 89.5163 103.33 89.5164L103.33 89.5206L103.329 89.5321C103.329 89.5422 103.328 89.5571 103.326 89.5765C103.324 89.6154 103.32 89.6726 103.315 89.7466C103.304 89.8947 103.288 90.1102 103.265 90.3812C103.218 90.923 103.143 91.687 103.031 92.5775C102.807 94.3554 102.432 96.6505 101.827 98.6897C101.769 98.8835 101.565 98.9941 101.371 98.9366C101.178 98.879 101.067 98.6752 101.125 98.4814C101.713 96.4977 102.082 94.2476 102.305 92.4859C102.415 91.6067 102.489 90.8524 102.535 90.3183C102.558 90.0513 102.574 89.8395 102.584 89.6947C102.59 89.6223 102.593 89.5667 102.596 89.5294C102.597 89.5108 102.598 89.4967 102.598 89.4873L102.599 89.4769L102.599 89.4739C102.611 89.272 102.784 89.1178 102.986 89.1295Z" fill="white"/>
<path id="Vector (Stroke)_25" fill-rule="evenodd" clip-rule="evenodd" d="M108.218 71.4647C108.312 71.6435 108.244 71.865 108.065 71.9595L101.692 75.3281C101.513 75.4226 101.291 75.3543 101.197 75.1755C101.102 74.9967 101.171 74.7752 101.349 74.6807L107.723 71.312C107.902 71.2175 108.123 71.2859 108.218 71.4647Z" fill="#5405BE"/>
<path id="Vector (Stroke)_26" fill-rule="evenodd" clip-rule="evenodd" d="M127.762 64.8809C127.866 65.0541 127.81 65.2791 127.637 65.3835C125.664 66.5722 123.368 68.4671 121.556 70.0765C120.653 70.879 119.874 71.6066 119.321 72.1334C119.044 72.3968 118.825 72.6099 118.674 72.757C118.599 72.8305 118.541 72.8875 118.502 72.926C118.482 72.9453 118.467 72.9599 118.458 72.9697L118.443 72.984C118.443 72.9841 118.443 72.9842 118.184 72.7249C117.926 72.4657 117.926 72.4656 117.926 72.4656L117.942 72.4499C117.952 72.4397 117.967 72.4247 117.987 72.4049C118.027 72.3655 118.086 72.3076 118.162 72.2331C118.315 72.0841 118.537 71.8689 118.816 71.6032C119.373 71.0719 120.159 70.3384 121.07 69.5289C122.888 67.9143 125.225 65.9816 127.259 64.7562C127.433 64.6518 127.658 64.7077 127.762 64.8809ZM117.925 72.9835C117.782 72.8403 117.783 72.6084 117.926 72.4656L118.184 72.7249L118.443 72.984C118.3 73.1268 118.068 73.1267 117.925 72.9835Z" fill="#5405BE"/>
<path id="Vector (Stroke)_27" fill-rule="evenodd" clip-rule="evenodd" d="M123.922 85.1117C124.109 85.0346 124.323 85.1237 124.4 85.3107L133.996 108.581C134.073 108.768 133.984 108.982 133.797 109.059C133.61 109.136 133.396 109.047 133.319 108.86L123.723 85.5898C123.646 85.4029 123.735 85.1888 123.922 85.1117Z" fill="#5405BE"/>
<path id="Vector (Stroke)_28" fill-rule="evenodd" clip-rule="evenodd" d="M125.546 84.2417C125.748 84.2417 125.912 84.4056 125.912 84.6079V86.2214C125.912 86.4236 125.748 86.5875 125.546 86.5875C125.344 86.5875 125.18 86.4236 125.18 86.2214V84.6079C125.18 84.4056 125.344 84.2417 125.546 84.2417Z" fill="#5405BE"/>
<path id="Vector (Stroke)_29" fill-rule="evenodd" clip-rule="evenodd" d="M127.022 85.0816C127.206 85.1674 127.284 85.3854 127.199 85.5685L126.481 87.0991C126.395 87.2822 126.177 87.361 125.994 87.2752C125.811 87.1894 125.732 86.9713 125.818 86.7882L126.535 85.2577C126.621 85.0746 126.839 84.9957 127.022 85.0816Z" fill="#5405BE"/>
<path id="Vector (Stroke)_30" fill-rule="evenodd" clip-rule="evenodd" d="M107.093 97.7702C107.184 97.5892 107.403 97.5157 107.584 97.606L120.527 104.063C120.708 104.153 120.781 104.373 120.691 104.554C120.601 104.735 120.381 104.808 120.2 104.718L107.257 98.2613C107.077 98.171 107.003 97.9511 107.093 97.7702Z" fill="#5405BE"/>
<path id="Vector (Stroke)_31" fill-rule="evenodd" clip-rule="evenodd" d="M118.431 127.936C118.61 127.84 118.832 127.907 118.927 128.085L126.355 141.933L132.254 141.053C132.454 141.024 132.641 141.162 132.671 141.362C132.7 141.562 132.562 141.748 132.362 141.778L126.209 142.696C126.056 142.718 125.905 142.643 125.832 142.506L118.282 128.431C118.186 128.253 118.253 128.031 118.431 127.936Z" fill="#5405BE"/>
<path id="Vector_37" d="M128.38 34.9372L122.177 37.3612C122.022 37.4221 121.893 37.5356 121.813 37.6819C121.732 37.8282 121.706 37.998 121.738 38.1618L125.622 57.5632C125.642 57.6633 125.684 57.7578 125.744 57.8404C125.804 57.923 125.881 57.9917 125.969 58.0419C126.058 58.0921 126.157 58.1227 126.259 58.1315C126.36 58.1403 126.463 58.1271 126.559 58.0929L132.691 55.896C132.851 55.839 132.985 55.7267 133.069 55.5794C133.153 55.4321 133.182 55.2595 133.15 55.0929L129.33 35.462C129.309 35.3607 129.267 35.2651 129.206 35.1817C129.145 35.0983 129.067 35.0292 128.977 34.9793C128.886 34.9293 128.786 34.8997 128.683 34.8924C128.58 34.8851 128.476 34.9004 128.38 34.9372Z" fill="black"/>
<path id="Vector_38" d="M131.034 42.6144C130.972 42.4965 130.885 42.3933 130.78 42.3114C130.674 42.2294 130.553 42.1708 130.423 42.1392C130.294 42.1076 130.159 42.1038 130.028 42.1281C129.897 42.1523 129.772 42.2041 129.662 42.2799C128.608 43.0123 126.997 44.2548 127.014 45.1506C127.041 46.481 128.605 46.6568 128.605 46.6568C128.605 46.6568 127.993 48.3655 129.447 48.4363C129.447 48.4363 129.323 50.1938 130.551 50.1182C130.551 50.1182 130.502 52.049 131.957 51.8977L134.615 49.3639L131.034 42.6144Z" fill="#FF9C70"/>
<path id="Vector (Stroke)_32" fill-rule="evenodd" clip-rule="evenodd" d="M133.047 47.5344C133.2 47.667 133.216 47.8983 133.084 48.051L130.613 50.8972C130.481 51.05 130.25 51.0663 130.097 50.9338C129.944 50.8012 129.928 50.57 130.06 50.4173L132.53 47.571C132.663 47.4183 132.894 47.4019 133.047 47.5344Z" fill="#E47452"/>
<path id="Vector (Stroke)_33" fill-rule="evenodd" clip-rule="evenodd" d="M132.027 45.3797C132.186 45.5045 132.214 45.7346 132.09 45.8938L129.561 49.1208C129.436 49.28 129.206 49.3079 129.047 49.1832C128.887 49.0585 128.859 48.8283 128.984 48.6691L131.513 45.4421C131.638 45.2829 131.868 45.255 132.027 45.3797Z" fill="#E47452"/>
<path id="Vector (Stroke)_34" fill-rule="evenodd" clip-rule="evenodd" d="M130.371 44.8224C130.512 44.6934 130.531 44.4753 130.41 44.324C130.283 44.166 130.053 44.1404 129.895 44.2668C129.857 44.2968 129.822 44.3381 129.806 44.3561C129.806 44.3568 129.805 44.3574 129.804 44.358C129.781 44.3856 129.752 44.4206 129.719 44.4603C129.654 44.54 129.57 44.6469 129.474 44.7703C129.281 45.0175 129.036 45.3371 128.796 45.6526C128.555 45.9684 128.318 46.2809 128.142 46.5145C128.054 46.6313 127.98 46.7284 127.929 46.7963L127.849 46.9029C127.849 46.9029 127.849 46.903 128.142 47.1231L127.849 46.9029C127.727 47.0645 127.76 47.2942 127.921 47.4157C128.083 47.5373 128.313 47.5048 128.434 47.3432L128.142 47.1231C128.434 47.3432 128.434 47.3432 128.434 47.3432L128.514 47.237C128.565 47.1693 128.638 47.0725 128.726 46.9559C128.902 46.7228 129.138 46.4111 129.378 46.0964C129.618 45.7815 129.861 45.4646 130.051 45.2207C130.146 45.0986 130.227 44.9962 130.288 44.9221C130.318 44.8848 130.341 44.8566 130.358 44.8373C130.364 44.83 130.369 44.8252 130.371 44.8224Z" fill="#E47452"/>
<path id="Vector (Stroke)_35" fill-rule="evenodd" clip-rule="evenodd" d="M95.6351 54.0829C95.8315 54.0348 96.0297 54.155 96.0778 54.3514L95.7222 54.4385C96.0778 54.3514 96.0779 54.3516 96.0779 54.3518L96.0786 54.3545L96.0803 54.3618C96.0818 54.368 96.084 54.377 96.0867 54.3887C96.0921 54.4121 96.1 54.4462 96.1097 54.4903C96.1292 54.5786 96.1565 54.707 96.1881 54.8701C96.2513 55.1962 96.332 55.6613 96.4028 56.2213C96.5442 57.3389 96.6476 58.8451 96.4889 60.3807C96.3306 61.9125 95.9081 63.5057 94.971 64.7685C94.0232 66.0456 92.5708 66.9542 90.4271 67.1379C86.18 67.5019 83.3261 65.3759 81.5535 63.1912C80.6684 62.1003 80.0473 60.9893 79.6475 60.1523C79.4474 59.7333 79.302 59.3815 79.2062 59.1331C79.1583 59.0089 79.1228 58.9105 79.099 58.8424C79.0871 58.8083 79.0782 58.7818 79.0721 58.7634C79.069 58.7542 79.0667 58.7471 79.065 58.742L79.0631 58.736L79.0625 58.7342L79.0623 58.7336C79.0622 58.7334 79.0622 58.7332 79.4112 58.6224L79.0622 58.7332C79.001 58.5405 79.1077 58.3346 79.3004 58.2734C79.4931 58.2123 79.6989 58.3188 79.7601 58.5115C79.7601 58.5114 79.7601 58.5115 79.7601 58.5115L79.7603 58.5121L79.7615 58.5157C79.7626 58.5191 79.7644 58.5247 79.7669 58.5322C79.7719 58.5473 79.7797 58.5704 79.7904 58.601C79.8118 58.6622 79.8446 58.7532 79.8895 58.8697C79.9793 59.1027 80.1173 59.4369 80.3083 59.8367C80.6908 60.6374 81.283 61.6955 82.1222 62.7298C83.7983 64.7956 86.4367 66.7449 90.3646 66.4083C92.3084 66.2417 93.5656 65.4333 94.3829 64.332C95.2109 63.2164 95.6091 61.7698 95.7605 60.3054C95.9114 58.8449 95.8136 57.3989 95.6763 56.3132C95.6078 55.7716 95.5298 55.3224 95.4692 55.0095C95.4388 54.8531 95.4129 54.7309 95.3947 54.6483C95.3855 54.6071 95.3784 54.5758 95.3735 54.5551C95.3711 54.5447 95.3693 54.5371 95.3681 54.5321L95.3668 54.5268L95.3666 54.5257C95.3185 54.3293 95.4387 54.1309 95.6351 54.0829Z" fill="#5405BE"/>
</g>
</svg>
