<svg width="25" height="24" viewBox="0 0 25 24" fill="none" xmlns="http://www.w3.org/2000/svg">
<path d="M15.9928 22.7488H9.99282C8.67282 22.7488 7.57282 22.6188 6.64282 22.3388C6.30282 22.2388 6.08282 21.9088 6.10282 21.5588C6.35282 18.5688 9.38282 16.2188 12.9928 16.2188C16.6028 16.2188 19.6228 18.5588 19.8828 21.5588C19.9128 21.9188 19.6928 22.2388 19.3428 22.3388C18.4128 22.6188 17.3128 22.7488 15.9928 22.7488ZM7.71282 21.0588C8.37282 21.1888 9.12282 21.2488 9.99282 21.2488H15.9928C16.8628 21.2488 17.6128 21.1888 18.2728 21.0588C17.7428 19.1388 15.5528 17.7188 12.9928 17.7188C10.4328 17.7188 8.24282 19.1388 7.71282 21.0588Z" fill="#667C98"/>
<path d="M15.9922 2H9.99219C4.99219 2 2.99219 4 2.99219 9V15C2.99219 18.78 4.13219 20.85 6.85219 21.62C7.07219 19.02 9.74219 16.97 12.9922 16.97C16.2422 16.97 18.9122 19.02 19.1322 21.62C21.8522 20.85 22.9922 18.78 22.9922 15V9C22.9922 4 20.9922 2 15.9922 2ZM12.9922 14.17C11.0122 14.17 9.41219 12.56 9.41219 10.58C9.41219 8.60002 11.0122 7 12.9922 7C14.9722 7 16.5722 8.60002 16.5722 10.58C16.5722 12.56 14.9722 14.17 12.9922 14.17Z" stroke="#667C98" stroke-width="1.5" stroke-linecap="round" stroke-linejoin="round"/>
<path d="M12.9941 14.92C10.6041 14.92 8.66406 12.97 8.66406 10.58C8.66406 8.19002 10.6041 6.25 12.9941 6.25C15.3841 6.25 17.3241 8.19002 17.3241 10.58C17.3241 12.97 15.3841 14.92 12.9941 14.92ZM12.9941 7.75C11.4341 7.75 10.1641 9.02002 10.1641 10.58C10.1641 12.15 11.4341 13.42 12.9941 13.42C14.5541 13.42 15.8241 12.15 15.8241 10.58C15.8241 9.02002 14.5541 7.75 12.9941 7.75Z" fill="#667C98"/>
</svg>
