<svg width="40" height="40" viewBox="0 0 40 40" fill="none" xmlns="http://www.w3.org/2000/svg">
<path d="M9.36486 19.7097L10.1675 16.3376C10.4892 14.9861 11.6967 14.0323 13.086 14.0323H14.0946M9.36486 19.7097L7.56257 27.552C7.27467 28.8048 8.22634 30 9.51176 30H29.4882C30.7737 30 31.7253 28.8048 31.4374 27.552L29.6351 19.7097M9.36486 19.7097H18.4865M29.6351 19.7097L28.8325 16.3376C28.5108 14.9861 27.3033 14.0323 25.914 14.0323H24.9054M29.6351 19.7097H20.8514M18.4865 19.7097V18.9355C18.4865 18.3832 18.9342 17.9355 19.4865 17.9355H19.8514C20.4036 17.9355 20.8514 18.3832 20.8514 18.9355V19.7097M18.4865 19.7097V20.8387C18.4865 21.391 18.9342 21.8387 19.4865 21.8387H19.8514C20.4036 21.8387 20.8514 21.391 20.8514 20.8387V19.7097M14.0946 14.0323V13.4054C14.0946 10.4201 16.5147 8 19.5 8V8C22.4853 8 24.9054 10.4201 24.9054 13.4054V14.0323M14.0946 14.0323H16.1216H22.8784H24.9054" stroke="#667C98" stroke-width="1.5" stroke-linecap="round"/>
<rect x="0.75" y="0.75" width="38.5" height="38.5" rx="19.25" stroke="#667C98" stroke-width="1.5"/>
</svg>
