<svg width="51" height="55" viewBox="0 0 51 55" fill="none" xmlns="http://www.w3.org/2000/svg">
<g id="Group 37960">
<g id="Group 37953">
<g id="Group">
<path id="Vector" d="M50.7108 16.3817C50.6989 16.3532 50.6851 16.3255 50.6694 16.2987C50.6217 16.2156 50.5603 16.1398 50.4875 16.0741C50.4748 16.0631 50.4663 16.0482 50.4519 16.0373L41.9904 9.77572C41.8403 9.66468 41.6538 9.60422 41.4615 9.60431H28.1769L25.8542 8.17041C25.7153 8.08476 25.552 8.03906 25.385 8.03906C25.2181 8.03906 25.0548 8.08476 24.9158 8.17041L22.5923 9.60431H9.30769C9.11548 9.60422 8.92896 9.66468 8.77885 9.77572L0.317308 16.0373C0.302923 16.0482 0.294461 16.0631 0.281769 16.0741C0.208948 16.1398 0.147579 16.2156 0.0998462 16.2987C0.0841624 16.3255 0.0703146 16.3532 0.0583846 16.3817C0.0285955 16.4554 0.0117419 16.5331 0.00846153 16.6118C0.00846153 16.6243 0 16.6353 0 16.6486V43.2101H1.69231V17.4313H11.8462V53.4352H1.69231V43.2101H0V54.2179C0 54.4255 0.0891481 54.6246 0.247833 54.7714C0.406517 54.9181 0.62174 55.0006 0.846154 55.0006H49.9231C50.1475 55.0006 50.3627 54.9181 50.5214 54.7714C50.6801 54.6246 50.7692 54.4255 50.7692 54.2179V16.6486C50.7692 16.6353 50.7616 16.6243 50.7608 16.6118C50.7575 16.5331 50.7406 16.4554 50.7108 16.3817ZM41.1645 11.1697L47.5107 15.8659H38.3308L30.7154 11.1697H41.1645ZM3.25685 15.8659L9.603 11.1697H20.0538L12.4385 15.8659H3.25685ZM13.5385 17.0673L25.3846 9.76085L27.4526 11.0359L37.2308 17.0673V53.4352H33V44.0429H34.6923V42.4775H16.0769V44.0429H17.7692V53.4352H13.5385V17.0673ZM19.4615 44.0429H24.5385V53.4352H19.4615V44.0429ZM26.2308 53.4352V44.0429H31.3077V53.4352H26.2308ZM49.0769 53.4352H38.9231V17.4313H49.0769V53.4352Z" fill="#FF6961"/>
<path id="Vector_2" d="M25.3846 18.9969C26.054 18.9969 26.7084 18.8133 27.265 18.4693C27.8216 18.1253 28.2554 17.6363 28.5116 17.0642C28.7678 16.4922 28.8348 15.8627 28.7042 15.2553C28.5736 14.648 28.2512 14.0902 27.7779 13.6523C27.3046 13.2145 26.7015 12.9163 26.0449 12.7955C25.3884 12.6747 24.7078 12.7367 24.0894 12.9737C23.4709 13.2106 22.9423 13.6119 22.5704 14.1268C22.1985 14.6416 22 15.2469 22 15.8661C22 16.6965 22.3566 17.4928 22.9913 18.0799C23.6261 18.6671 24.487 18.9969 25.3846 18.9969ZM25.3846 14.3007C25.7193 14.3007 26.0465 14.3926 26.3248 14.5646C26.6031 14.7366 26.82 14.981 26.9481 15.2671C27.0762 15.5531 27.1097 15.8679 27.0444 16.1715C26.9791 16.4752 26.8179 16.7541 26.5813 16.973C26.3446 17.192 26.043 17.341 25.7148 17.4014C25.3865 17.4618 25.0462 17.4308 24.737 17.3124C24.4278 17.1939 24.1635 16.9932 23.9775 16.7358C23.7916 16.4784 23.6923 16.1757 23.6923 15.8661C23.6923 15.451 23.8706 15.0528 24.188 14.7592C24.5053 14.4657 24.9358 14.3007 25.3846 14.3007Z" fill="#FF6961"/>
<path id="Vector_3" d="M16.0771 28.3894H22.8463C23.0708 28.3894 23.286 28.3069 23.4447 28.1602C23.6033 28.0134 23.6925 27.8143 23.6925 27.6067V22.9105C23.6925 21.8726 23.2468 20.8772 22.4533 20.1433C21.6599 19.4094 20.5838 18.9971 19.4617 18.9971C18.3397 18.9971 17.2635 19.4094 16.4701 20.1433C15.6767 20.8772 15.231 21.8726 15.231 22.9105V27.6067C15.231 27.8143 15.3201 28.0134 15.4788 28.1602C15.6375 28.3069 15.8527 28.3894 16.0771 28.3894ZM22.0002 26.824H16.9233V25.2586H22.0002V26.824ZM16.9233 22.9105C16.9233 22.2878 17.1907 21.6905 17.6668 21.2502C18.1428 20.8098 18.7885 20.5625 19.4617 20.5625C20.135 20.5625 20.7806 20.8098 21.2567 21.2502C21.7327 21.6905 22.0002 22.2878 22.0002 22.9105V23.6932H16.9233V22.9105Z" fill="#FF6961"/>
<path id="Vector_4" d="M27.0771 22.9105V27.6067C27.0771 27.8143 27.1663 28.0134 27.325 28.1602C27.4837 28.3069 27.6989 28.3894 27.9233 28.3894H34.6925C34.9169 28.3894 35.1322 28.3069 35.2909 28.1602C35.4495 28.0134 35.5387 27.8143 35.5387 27.6067V22.9105C35.5387 21.8726 35.0929 20.8772 34.2995 20.1433C33.5061 19.4094 32.43 18.9971 31.3079 18.9971C30.1858 18.9971 29.1097 19.4094 28.3163 20.1433C27.5229 20.8772 27.0771 21.8726 27.0771 22.9105ZM33.8464 26.824H28.7695V25.2586H33.8464V26.824ZM28.7695 22.9105C28.7695 22.2878 29.0369 21.6905 29.513 21.2502C29.989 20.8098 30.6347 20.5625 31.3079 20.5625C31.9812 20.5625 32.6268 20.8098 33.1029 21.2502C33.5789 21.6905 33.8464 22.2878 33.8464 22.9105V23.6932H28.7695V22.9105Z" fill="#FF6961"/>
<path id="Vector_5" d="M22.8463 39.3474C23.0708 39.3474 23.286 39.265 23.4447 39.1182C23.6033 38.9714 23.6925 38.7723 23.6925 38.5647V33.8686C23.6925 32.8306 23.2468 31.8352 22.4533 31.1013C21.6599 30.3674 20.5838 29.9551 19.4617 29.9551C18.3397 29.9551 17.2635 30.3674 16.4701 31.1013C15.6767 31.8352 15.231 32.8306 15.231 33.8686V38.5647C15.231 38.7723 15.3201 38.9714 15.4788 39.1182C15.6375 39.265 15.8527 39.3474 16.0771 39.3474H22.8463ZM22.0002 37.782H16.9233V36.2166H22.0002V37.782ZM16.9233 33.8686C16.9233 33.2458 17.1907 32.6486 17.6668 32.2082C18.1428 31.7679 18.7885 31.5205 19.4617 31.5205C20.135 31.5205 20.7806 31.7679 21.2567 32.2082C21.7327 32.6486 22.0002 33.2458 22.0002 33.8686V34.6512H16.9233V33.8686Z" fill="#FF6961"/>
<path id="Vector_6" d="M31.3079 29.9551C30.1863 29.9563 29.1109 30.369 28.3178 31.1027C27.5247 31.8363 27.0785 32.831 27.0771 33.8686V38.5647C27.0771 38.7723 27.1663 38.9714 27.325 39.1182C27.4837 39.265 27.6989 39.3474 27.9233 39.3474H34.6925C34.9169 39.3474 35.1322 39.265 35.2909 39.1182C35.4495 38.9714 35.5387 38.7723 35.5387 38.5647V33.8686C35.5373 32.831 35.0912 31.8363 34.298 31.1027C33.5049 30.369 32.4296 29.9563 31.3079 29.9551ZM28.7695 33.8686C28.7695 33.2458 29.0369 32.6486 29.513 32.2082C29.989 31.7679 30.6347 31.5205 31.3079 31.5205C31.9812 31.5205 32.6268 31.7679 33.1029 32.2082C33.5789 32.6486 33.8464 33.2458 33.8464 33.8686V34.6512H28.7695V33.8686ZM33.8464 37.782H28.7695V36.2166H33.8464V37.782Z" fill="#FF6961"/>
<path id="Vector_7" d="M4.23092 29.1716H9.30784C9.53226 29.1716 9.74748 29.0892 9.90616 28.9424C10.0648 28.7956 10.154 28.5965 10.154 28.3889V20.562C10.154 20.3544 10.0648 20.1553 9.90616 20.0085C9.74748 19.8618 9.53226 19.7793 9.30784 19.7793H4.23092C4.00651 19.7793 3.79128 19.8618 3.6326 20.0085C3.47391 20.1553 3.38477 20.3544 3.38477 20.562V28.3889C3.38477 28.5965 3.47391 28.7956 3.6326 28.9424C3.79128 29.0892 4.00651 29.1716 4.23092 29.1716ZM5.07707 27.6062V25.2582H8.46169V27.6062H5.07707ZM8.46169 21.3447V23.6928H5.07707V21.3447H8.46169Z" fill="#FF6961"/>
<path id="Vector_8" d="M3.38477 39.3469C3.38477 39.5545 3.47391 39.7536 3.6326 39.9004C3.79128 40.0472 4.00651 40.1296 4.23092 40.1296H9.30784C9.53226 40.1296 9.74748 40.0472 9.90616 39.9004C10.0648 39.7536 10.154 39.5545 10.154 39.3469V31.52C10.154 31.3124 10.0648 31.1133 9.90616 30.9666C9.74748 30.8198 9.53226 30.7373 9.30784 30.7373H4.23092C4.00651 30.7373 3.79128 30.8198 3.6326 30.9666C3.47391 31.1133 3.38477 31.3124 3.38477 31.52V39.3469ZM5.07707 38.5643V36.2162H8.46169V38.5643H5.07707ZM8.46169 32.3027V34.6508H5.07707V32.3027H8.46169Z" fill="#FF6961"/>
<path id="Vector_9" d="M3.38477 50.305C3.38477 50.5125 3.47391 50.7116 3.6326 50.8584C3.79128 51.0052 4.00651 51.0876 4.23092 51.0876H9.30784C9.53226 51.0876 9.74748 51.0052 9.90616 50.8584C10.0648 50.7116 10.154 50.5125 10.154 50.305V42.478C10.154 42.2704 10.0648 42.0713 9.90616 41.9246C9.74748 41.7778 9.53226 41.6953 9.30784 41.6953H4.23092C4.00651 41.6953 3.79128 41.7778 3.6326 41.9246C3.47391 42.0713 3.38477 42.2704 3.38477 42.478V50.305ZM5.07707 49.5223V47.1742H8.46169V49.5223H5.07707ZM8.46169 43.2607V45.6088H5.07707V43.2607H8.46169Z" fill="#FF6961"/>
<path id="Vector_10" d="M41.4614 29.1716H46.5383C46.7627 29.1716 46.9779 29.0892 47.1366 28.9424C47.2953 28.7956 47.3845 28.5965 47.3845 28.3889V20.562C47.3845 20.3544 47.2953 20.1553 47.1366 20.0085C46.9779 19.8618 46.7627 19.7793 46.5383 19.7793H41.4614C41.237 19.7793 41.0218 19.8618 40.8631 20.0085C40.7044 20.1553 40.6152 20.3544 40.6152 20.562V28.3889C40.6152 28.5965 40.7044 28.7956 40.8631 28.9424C41.0218 29.0892 41.237 29.1716 41.4614 29.1716ZM42.3075 27.6062V25.2582H45.6922V27.6062H42.3075ZM45.6922 21.3447V23.6928H42.3075V21.3447H45.6922Z" fill="#FF6961"/>
<path id="Vector_11" d="M41.4614 40.1296H46.5383C46.7627 40.1296 46.9779 40.0472 47.1366 39.9004C47.2953 39.7536 47.3845 39.5545 47.3845 39.3469V31.52C47.3845 31.3124 47.2953 31.1133 47.1366 30.9666C46.9779 30.8198 46.7627 30.7373 46.5383 30.7373H41.4614C41.237 30.7373 41.0218 30.8198 40.8631 30.9666C40.7044 31.1133 40.6152 31.3124 40.6152 31.52V39.3469C40.6152 39.5545 40.7044 39.7536 40.8631 39.9004C41.0218 40.0472 41.237 40.1296 41.4614 40.1296ZM42.3075 38.5643V36.2162H45.6922V38.5643H42.3075ZM45.6922 32.3027V34.6508H42.3075V32.3027H45.6922Z" fill="#FF6961"/>
<path id="Vector_12" d="M41.4614 51.0876H46.5383C46.7627 51.0876 46.9779 51.0052 47.1366 50.8584C47.2953 50.7116 47.3845 50.5125 47.3845 50.305V42.478C47.3845 42.2704 47.2953 42.0713 47.1366 41.9246C46.9779 41.7778 46.7627 41.6953 46.5383 41.6953H41.4614C41.237 41.6953 41.0218 41.7778 40.8631 41.9246C40.7044 42.0713 40.6152 42.2704 40.6152 42.478V50.305C40.6152 50.5125 40.7044 50.7116 40.8631 50.8584C41.0218 51.0052 41.237 51.0876 41.4614 51.0876ZM42.3075 49.5223V47.1742H45.6922V49.5223H42.3075ZM45.6922 43.2607V45.6088H42.3075V43.2607H45.6922Z" fill="#FF6961"/>
</g>
</g>
<g id="Vector_13">
<path fill-rule="evenodd" clip-rule="evenodd" d="M26.2309 1.55128L26.2309 9.30769H24.5386L24.5386 1.55128L26.2309 1.55128Z" fill="#FF6961"/>
<path fill-rule="evenodd" clip-rule="evenodd" d="M32.154 2.05128C32.154 1.77514 31.9301 1.55128 31.654 1.55128L26.2309 1.55128V3.37821C26.2309 3.65435 26.4547 3.87821 26.7309 3.87821H31.654C31.9301 3.87821 32.154 3.65435 32.154 3.3782V2.05128ZM25.0386 0C24.7624 0 24.5386 0.223858 24.5386 0.5V5.42949H33.3463C33.6224 5.42949 33.8463 5.20563 33.8463 4.92949V0.5C33.8463 0.223858 33.6224 0 33.3463 0H25.0386Z" fill="#FF6961"/>
</g>
</g>
</svg>
