<svg width="16" height="16" viewBox="0 0 16 16" fill="none" xmlns="http://www.w3.org/2000/svg">
<path d="M3.78073 5.26258C3.76341 5.25258 3.75187 5.24592 3.73455 5.23592C3.5145 5.07038 3.46463 4.75676 3.62439 4.53338C4.67694 3.07031 6.31255 2.14402 8.11183 1.97424C8.38813 1.94901 8.63282 2.15187 8.65805 2.42817C8.68328 2.70446 8.48042 2.94915 8.20412 2.97438C6.69358 3.11071 5.31743 3.89428 4.43131 5.12242C4.28732 5.33182 4.00013 5.38925 3.78073 5.26258Z" fill="#FF6961"/>
<path d="M5.5654 13.5976C4.71092 13.1043 4.01019 12.438 3.46808 11.617C3.3178 11.3839 3.38119 11.0741 3.61422 10.9238C3.84725 10.7735 4.15706 10.8369 4.30735 11.07C5.19109 12.4193 6.68554 13.2975 8.29416 13.4179C8.56778 13.4374 8.77426 13.6797 8.75484 13.9533C8.73543 14.227 8.49306 14.4334 8.21944 14.414C7.27376 14.3453 6.38523 14.071 5.5654 13.5976Z" fill="#FF6961"/>
<path d="M10.2892 5.41682C9.16337 4.76682 8.77783 3.32794 9.42783 2.20211C10.0778 1.07628 11.5167 0.690729 12.6425 1.34073C13.7684 1.99073 14.1539 3.42961 13.5039 4.55544C12.8539 5.68128 11.4093 6.06349 10.2892 5.41682ZM12.1392 2.21253C11.4926 1.8392 10.6639 2.06125 10.2905 2.70788C9.91718 3.35452 10.1392 4.18324 10.7859 4.55657C11.4325 4.9299 12.2612 4.70785 12.6346 4.06122C13.0079 3.41458 12.7801 2.58253 12.1392 2.21253Z" fill="#FF6961" stroke="#FF6961" stroke-width="0.5"/>
<path d="M2.03823 10.0672C0.912396 9.41721 0.526849 7.97833 1.17685 6.8525C1.82352 5.73244 3.26573 5.34112 4.39156 5.99112C5.5174 6.64112 5.90294 8.08 5.25294 9.20583C4.60628 10.3259 3.16406 10.7172 2.03823 10.0672ZM3.89156 6.85714C3.24493 6.48381 2.41621 6.70587 2.04287 7.3525C1.66954 7.99913 1.8916 8.82785 2.53823 9.20119C3.18486 9.57452 4.01358 9.35246 4.38692 8.70583C4.76025 8.0592 4.53819 7.23048 3.89156 6.85714Z" fill="#FF6961" stroke="#FF6961" stroke-width="0.5"/>
<path d="M10.3175 14.8485C9.19169 14.1985 8.80615 12.7596 9.45615 11.6337C10.1028 10.5137 11.545 10.1224 12.6709 10.7724C13.7967 11.4224 14.1822 12.8612 13.5322 13.9871C12.8798 15.1038 11.4376 15.4951 10.3175 14.8485ZM12.1709 11.6384C11.5242 11.2651 10.6955 11.4871 10.3222 12.1337C9.94884 12.7804 10.1709 13.6091 10.8175 13.9824C11.4642 14.3558 12.2929 14.1337 12.6662 13.4871C13.0338 12.8371 12.8175 12.0117 12.1709 11.6384Z" fill="#FF6961" stroke="#FF6961" stroke-width="0.5"/>
</svg>
