<svg width="191" height="179" viewBox="0 0 191 179" fill="none" xmlns="http://www.w3.org/2000/svg">
<path fill-rule="evenodd" clip-rule="evenodd" d="M105.535 19.8685C124.511 19.0274 144.001 22.3012 159.376 32.2572C174.754 42.2154 185.263 57.5199 189.269 74.0899C193.038 89.6789 185.881 104.878 180.616 120.119C175.258 135.634 172.832 153.373 158.449 163.321C143.918 173.37 123.87 173.279 105.535 172.045C88.3318 170.888 72.6236 164.904 58.1183 156.573C42.7992 147.774 27.5319 137.975 20.2673 123.071C12.5752 107.289 10.6778 88.9494 17.2768 72.7786C23.7611 56.8886 39.7125 46.2961 55.4467 36.8635C70.6446 27.7525 87.2464 20.6791 105.535 19.8685Z" fill="#FFC3C0"/>
<path d="M169.365 75.8588C168.516 66.8993 166.096 58.3484 162.292 50.2063C154.59 33.7333 142.675 21.1585 126.925 12.1675C122.776 9.80975 118.437 7.8921 113.785 6.79181C112.873 6.57175 111.993 6.446 111.05 6.47744C110.012 6.50887 109.289 6.94899 108.881 7.92354C108.503 8.80377 108.063 9.65257 107.812 10.5642C106.837 13.8023 105.768 17.0088 105.265 20.3726C105.14 21.1271 105.14 21.1271 104.354 21.0328C103.002 20.8441 101.65 20.5926 100.298 20.4669C94.9539 19.9953 89.6411 20.1525 84.3597 21.0328C73.0109 22.919 62.9197 27.5716 54.023 34.8336C43.8374 43.1958 36.8898 53.8529 32.4258 66.1762C29.4393 74.4127 28.4962 82.9636 29.062 91.7031C29.4707 97.8333 30.6653 103.806 32.8974 109.559C39.4362 126.284 50.8479 138.198 67.7295 144.674C67.9181 144.737 68.1382 144.769 68.2325 145.114C67.7295 145.46 67.2894 145.932 67.1008 146.561C66.1891 149.201 65.3089 151.873 64.5544 154.546C64.3029 155.426 64.24 155.866 65.466 156.463C66.1577 156.809 66.9121 156.84 67.6666 156.903C69.8043 157.061 71.9421 157.343 74.0798 157.658C76.6576 158.035 79.1726 158.632 81.7818 158.821C83.2908 158.947 84.7684 159.135 86.2773 159.293C87.0318 159.387 87.0632 159.387 87.0318 160.173C86.8432 163.159 86.9689 166.177 86.6546 169.195C86.5603 169.981 86.5917 169.981 85.8686 170.075C85.3342 170.138 84.7684 170.201 84.2339 170.327C81.7818 170.767 79.3612 171.333 77.192 172.685C75.8403 173.533 75.6516 175.231 76.8462 176.3C77.3178 176.709 77.8522 177.023 78.4181 177.274C79.4241 177.746 80.4615 178.029 81.5303 178.28C85.3342 179.098 89.201 179.129 93.0677 178.815C95.677 178.595 98.2862 178.155 100.77 177.274C101.776 176.929 102.75 176.52 103.599 175.828C105.265 174.508 105.202 173.156 103.41 171.993C102.467 171.396 101.461 171.019 100.393 170.736C98.7892 170.295 97.1231 170.013 95.4569 169.887C95.0482 169.855 94.7024 169.792 94.7024 169.29C94.7024 167.623 94.4195 165.957 94.5452 164.291C94.6396 162.782 94.671 161.242 94.6081 159.701C94.8282 159.544 95.1111 159.607 95.394 159.607C101.807 159.418 108.095 158.444 114.288 156.778C134.282 151.433 153.804 136.972 163.329 114.746C168.548 102.234 170.654 89.3139 169.365 75.8588ZM104.668 29.5522C105.014 28.1375 105.328 26.6914 105.674 25.2767C105.737 25.0567 105.705 24.8052 105.957 24.648C110.861 28.6405 121.675 44.579 122.776 49.4518C121.518 49.5461 120.324 49.4832 119.129 49.4203C113.03 49.1374 107.057 48.1629 101.147 46.6224C100.204 46.3709 100.204 46.3709 100.487 45.365C101.87 40.115 103.379 34.865 104.668 29.5522ZM76.8148 47.6913C79.5184 49.3889 81.8447 51.558 84.0139 53.9158C85.8372 55.8964 87.4719 58.0655 89.0752 60.2347C89.8611 61.2721 90.6156 62.3095 91.4015 63.3469C91.7788 63.8499 92.4075 64.0071 93.0363 63.7556C94.1051 63.3469 95.0797 62.8125 96.0857 62.2781C100.235 60.0146 104.448 57.9083 109.006 56.588C111.867 55.7706 114.791 55.2047 117.777 55.4248C122.713 55.802 126.077 58.8829 126.768 63.8185C126.894 64.6987 127.02 65.5789 126.957 66.4592C126.862 70.0115 126.045 73.4067 124.819 76.7391C122.713 82.3348 119.758 87.4905 116.3 92.3632C108.409 103.492 98.6635 112.64 87.2519 120.091C86.0573 120.877 84.7998 121.568 83.6052 122.354C83.1022 122.668 82.7878 122.606 82.3477 122.197C80.4929 120.468 78.8268 118.582 77.2864 116.57C72.3193 109.968 68.5154 102.737 65.5918 95.0354C63.1083 88.5279 61.2849 81.8633 60.3418 74.9786C59.5873 69.4457 59.3358 63.8813 60.279 58.3484C60.7191 55.7077 61.4421 53.1613 62.731 50.7721C63.517 49.326 64.4915 48.0057 65.8119 46.9683C67.6666 45.4907 69.7415 45.0192 72.0678 45.585C73.7654 45.9937 75.3373 46.7796 76.8148 47.6913ZM76.972 45.0506C77.9465 43.856 78.9525 42.6928 79.9271 41.5297C80.2414 41.121 80.5244 41.121 80.9645 41.3725C85.3971 43.8246 90.0498 45.7736 94.8911 47.3455C95.6455 47.597 95.677 47.6284 95.4883 48.2572C94.2937 52.5012 93.0677 56.7452 91.8731 60.9577C91.8417 61.0206 91.8102 61.0835 91.7159 61.2406C91.2758 61.0206 91.1815 60.6433 90.9929 60.329C88.415 56.0221 85.3342 52.1239 81.4675 48.8859C80.1157 47.7542 78.701 46.7796 77.1606 45.9623C76.5633 45.6165 76.5633 45.5536 76.972 45.0506ZM96.5258 59.6688C97.0602 57.7511 97.5318 56.0221 98.0033 54.2931C98.412 52.7527 98.8521 51.2122 99.2922 49.6404C99.5437 48.6973 99.5752 48.6973 100.55 48.9488C103.568 49.7347 106.617 50.332 109.666 50.8036C113.973 51.4637 118.28 51.7781 122.65 51.7467C122.933 51.7467 123.184 51.7467 123.467 51.7467C123.719 51.7467 123.907 51.841 124.033 52.1239C124.473 53.2556 124.882 54.4188 125.291 55.5191C125.071 55.802 124.913 55.6449 124.756 55.582C121.424 53.9473 117.871 53.6643 114.256 54.0101C108.535 54.5446 103.253 56.5565 98.0976 59.04C97.6261 59.1972 97.2174 59.5116 96.5258 59.6688ZM125.385 93.715C124.033 93.3692 122.681 92.992 121.33 92.6147C121.109 92.5518 120.858 92.5204 120.606 92.2375C123.75 87.6791 126.517 82.8378 128.623 77.6507C128.749 79.6941 128.591 81.7061 128.371 83.7181C127.994 86.8618 127.428 90.0055 126.548 93.0548C126.328 93.9351 126.328 93.9665 125.385 93.715ZM125.416 96.733C124.662 98.9336 123.782 101.071 122.776 103.178C117.526 114.118 109.604 122.7 99.6066 129.459C98.8521 129.962 98.0662 130.465 97.2803 130.968C96.9659 131.156 96.683 131.251 96.3372 130.999C92.942 128.579 89.3267 126.504 85.5857 124.649C85.4914 124.618 85.4285 124.555 85.3342 124.492C98.6635 117.041 109.509 106.95 118.657 94.9411C119.223 94.1866 119.223 94.1866 120.166 94.4381C121.738 94.8782 123.342 95.2869 124.913 95.7584C125.668 95.947 125.699 95.9785 125.416 96.733ZM59.9331 88.465C62.008 95.8213 64.9002 102.832 68.7041 109.465C70.5588 112.703 72.6966 115.752 75.1172 118.582C75.2744 118.77 75.4316 118.927 75.5573 119.148C75.8088 119.525 75.5888 119.902 75.4316 120.216C75.2744 120.562 74.9286 120.342 74.7085 120.248C70.4331 118.833 66.0634 117.67 61.6307 116.947C61.0334 116.853 60.7819 116.57 60.6562 115.972C59.1787 109.276 58.6128 102.486 58.8014 95.6327C58.8643 93.2435 59.0843 90.8543 59.3044 88.4965C59.3358 88.1821 59.3358 87.8049 59.5873 87.5219C59.8074 87.7734 59.8388 88.1192 59.9331 88.465ZM76.0918 132.037C76.7519 129.679 77.4435 127.321 78.1352 124.963C78.3552 124.24 78.3866 124.24 79.0468 124.523C84.0453 126.692 88.8237 129.239 93.2563 132.414C93.445 132.54 93.665 132.634 93.7593 133.011C87.4719 136.532 80.8073 139.11 73.6082 140.87C74.4885 137.758 75.2744 134.897 76.0918 132.037ZM77.4435 142.254C83.6995 140.619 89.7354 138.324 95.4883 135.369C96.4629 134.866 96.2743 134.74 97.2174 135.62C98.915 137.161 100.455 138.859 101.681 140.808C102.153 141.562 102.53 142.379 102.813 143.197C102.97 143.637 102.845 143.826 102.436 143.92C101.147 144.203 99.8581 144.549 98.5377 144.8C90.5528 146.309 82.6935 145.743 74.9286 143.448C74.6456 143.354 74.3313 143.323 74.0169 143.04C75.2115 142.788 76.3432 142.568 77.4435 142.254ZM101.147 134.866C100.613 134.363 100.047 133.86 99.3865 133.263C101.241 132.162 102.939 131.062 104.574 129.899C113.062 123.957 119.946 116.507 125.165 107.547C126.925 104.498 128.371 101.291 129.597 97.9904C129.912 97.1102 129.943 97.1102 130.824 97.3617C135.508 98.6506 140.16 99.9081 144.844 101.197C145.756 101.449 145.756 101.449 145.442 102.392C141.889 113.332 135.696 122.543 127.177 130.276C121.581 135.369 115.262 139.299 108.252 142.097C108.032 142.191 107.812 142.254 107.592 142.348C107.12 142.568 106.869 142.442 106.648 141.971C105.391 139.141 103.379 136.941 101.147 134.866ZM145.505 99.1536C141.575 98.0848 137.645 97.0473 133.747 95.9785C132.93 95.7584 132.112 95.5069 131.264 95.3183C130.698 95.1926 130.635 94.9725 130.792 94.4381C131.578 91.9231 132.144 89.3453 132.584 86.7675C133.433 81.6118 133.621 76.4561 133.181 71.2376C132.647 64.6358 131.075 58.317 128.686 52.1554C128.623 51.9982 128.56 51.841 128.529 51.6838C128.497 51.6209 128.529 51.5581 128.529 51.4323C129.849 51.2122 131.201 51.0236 132.521 50.7407C134.69 50.332 136.828 49.7347 138.903 48.8859C140.035 48.4144 139.846 48.1943 140.6 49.4832C143.21 53.8844 145.19 58.5685 146.636 63.4727C148.617 70.1373 149.277 76.9277 148.963 83.8438C148.743 88.748 147.957 93.5578 146.668 98.2734C146.636 98.3363 146.636 98.3991 146.605 98.462C146.416 99.3737 146.416 99.4051 145.505 99.1536ZM132.898 48.1C131.421 48.5401 129.912 48.823 128.403 49.0431C127.491 49.1688 127.491 49.2003 127.083 48.3515C125.102 44.0446 122.713 40.0207 119.946 36.1539C117.306 32.4758 114.413 29.0177 111.144 25.9055C110.924 25.6854 110.641 25.5282 110.484 25.0252C116.174 26.88 121.298 29.5522 125.982 33.1045C130.635 36.6569 134.596 40.8695 138.085 45.7108C136.419 46.8425 134.69 47.5341 132.898 48.1ZM102.467 24.4908C102.593 24.648 102.53 24.7738 102.467 24.8995C100.298 31.2498 98.4749 37.7572 96.6515 44.2018C96.6201 44.3275 96.5887 44.4533 96.5572 44.6105C96.3372 45.2392 96.3372 45.2392 95.677 45.0506C91.3072 43.6045 87.0318 41.8126 83.0079 39.5806C82.222 39.1404 82.222 39.109 82.9136 38.4488C86.4659 34.8965 90.3327 31.6899 94.5767 28.9549C96.8401 27.4773 99.1665 26.1255 101.556 24.8995C101.839 24.6794 102.09 24.4279 102.467 24.4908ZM101.776 22.7303C101.744 23.139 101.493 23.139 101.304 23.2019C93.4764 26.2827 86.6546 30.9354 80.4929 36.6255C80.3672 36.7512 80.2414 36.8455 80.1157 36.9713C79.7384 37.4429 79.3926 37.4428 78.8896 37.097C76.8148 35.7138 74.8343 34.2048 72.9795 32.5072C72.0364 31.627 71.0933 30.7153 70.1816 29.8037C69.9615 29.5836 69.6786 29.4264 69.6157 29.0177C79.7384 23.8621 90.3956 21.5672 101.776 22.7303ZM37.4557 69.0684C41.1024 55.2362 48.8359 44.076 59.996 35.2423C62.2909 33.4504 64.6801 31.8156 67.1951 30.3695C67.9181 29.9609 67.9496 29.9608 68.3268 30.6525C69.2385 32.2872 70.496 33.639 71.8163 34.8965C73.3253 36.3111 74.96 37.5372 76.6262 38.7003C76.9091 38.889 77.192 39.0776 77.475 39.2976C77.4121 39.6434 77.192 39.8006 77.0349 39.9578C75.8717 41.1838 74.7714 42.4099 73.7025 43.7302C73.3253 44.2018 72.9795 44.3904 72.3193 44.2647C70.7789 43.9503 69.1756 43.9817 67.6352 44.2647C65.0574 44.7677 62.9511 46.088 61.3164 48.1629C59.3673 50.6149 58.2984 53.5071 57.6068 56.5251C56.6008 60.9891 56.4122 65.5161 56.6951 70.0744C56.7894 71.5205 56.9152 72.9352 57.0409 74.3499C57.1038 75.1672 57.1038 75.1986 56.3179 74.9786C53.6143 74.287 50.9107 73.5639 48.1757 72.8723C44.812 71.9921 41.4168 71.1433 38.053 70.263C37.1728 70.0744 37.1728 70.043 37.4557 69.0684ZM42.297 116.884C39.562 111.98 37.7386 106.761 36.4812 101.291C35.0665 95.1611 34.5949 88.9366 35.0665 82.6806C35.3494 79.1597 35.8524 75.7016 36.6384 72.275C36.827 71.4262 36.8584 71.3948 37.7072 71.6463C43.7431 73.3753 49.779 75.1043 55.8149 76.8334C56.6951 77.0849 56.7266 77.0849 56.4751 78.028C54.4631 85.9815 53.6143 94.0923 53.9601 102.297C54.1487 106.73 54.7146 111.131 55.6263 115.501C55.6577 115.658 55.6892 115.847 55.7206 116.098C55.0919 116.255 54.5574 116.161 53.9916 116.161C51.005 116.098 48.05 116.161 45.1263 116.915C44.5605 117.073 44.026 117.23 43.4602 117.418C42.7371 117.67 42.7371 117.67 42.297 116.884ZM43.6802 119.053C44.309 118.676 45.0006 118.55 45.6922 118.393C48.2072 117.859 50.7535 117.701 53.3314 117.89C53.9916 117.921 54.6203 117.984 55.2805 118.016C56.255 118.11 56.255 118.11 56.5065 119.053C57.3553 122.228 58.3299 125.341 59.5873 128.39C61.0963 132.005 62.8253 135.463 64.9316 138.764C65.0574 138.953 65.246 139.141 65.2146 139.393C59.8074 138.073 46.1323 125.215 43.6802 119.053ZM61.725 120.059C61.4107 118.927 61.4107 118.927 62.6053 119.179C66.3777 119.965 70.0873 121.065 73.7025 122.386C73.7968 122.417 73.8912 122.448 73.9855 122.511C74.7714 122.826 74.7714 122.826 74.5513 123.706C74.2055 125.058 73.8283 126.409 73.4825 127.761C72.5079 131.282 71.5334 134.803 70.5588 138.324C70.496 138.544 70.4017 138.764 70.3074 139.016C69.9615 138.89 69.8987 138.67 69.8044 138.513C66.252 132.697 63.5798 126.567 61.725 120.059ZM162.638 87.7106C161.38 111.571 151.132 130.622 131.672 144.549C123.153 150.647 113.533 154.325 103.159 155.897C97.9404 156.683 92.6905 156.998 87.4091 156.558C81.5303 156.055 75.7774 154.86 70.1816 153.068C70.1187 153.037 70.0873 152.974 69.9615 152.911C70.3073 151.873 70.6531 150.805 70.9675 149.736C71.2819 148.73 71.6277 147.724 71.8792 146.686C72.0049 146.215 72.1307 146.089 72.6337 146.215C74.0798 146.592 75.5573 146.969 77.0349 147.221C82.2534 148.195 87.5348 148.51 92.8476 148.195C97.4374 147.944 101.964 147.252 106.397 146.026C114.099 143.92 121.298 140.65 127.774 135.935C138.62 128.107 146.259 117.827 151.289 105.535C153.71 99.6252 155.156 93.4321 155.659 87.0504C156.665 74.6956 154.558 62.9382 148.837 51.9039C140.475 35.7138 127.083 25.9369 109.572 21.5986C108.126 21.2528 108.126 21.2528 108.881 19.9639C110.578 17.0717 111.836 13.9594 113.219 10.91C113.313 10.7214 113.376 10.5328 113.439 10.3442C113.565 10.0613 113.753 9.99838 114.005 10.1241C114.068 10.1556 114.13 10.187 114.193 10.2184C138.085 20.8127 155.25 41.8755 160.814 67.3708C162.323 74.1298 163.015 80.8887 162.638 87.7106Z" fill="#002454"/>
<path d="M17.4961 11.4451C16.9931 10.8478 16.9931 10.3762 17.3389 9.71607C18.1248 8.23853 18.8479 6.72955 19.6024 5.22058C19.9482 4.49753 19.8539 4.24603 19.0994 4.02597C18.1563 3.7116 17.2132 3.77448 16.3015 4.24603C15.4527 4.68615 14.6039 5.09483 13.7551 5.56639C13.315 5.81788 13.032 5.75501 12.7491 5.34633C11.7117 3.99454 10.5799 2.70562 9.63684 1.29096C8.78804 0.0334794 7.65631 -0.155142 6.33596 0.0963535C5.45572 0.253538 5.23566 0.536471 5.32998 1.41671C5.55003 3.83735 5.80153 6.22656 6.05303 8.64721C6.14734 9.55888 6.17877 9.55888 5.29854 10.0619C3.97819 10.7849 2.68927 11.5394 1.43179 12.3568C0.960236 12.6711 0.960236 12.8912 1.43179 13.1113C1.87191 13.2999 2.31203 13.4571 2.78358 13.5828C3.75813 13.8343 4.76411 14.0544 5.77009 14.3059C6.7132 14.5259 6.7132 14.5574 6.83895 15.469C6.90182 15.8777 6.93326 16.2864 6.99614 16.6951C7.21619 18.3927 7.43625 20.0903 7.65631 21.7564C7.78206 22.731 8.03356 22.951 9.03954 23.0453C9.22816 23.0768 9.44822 23.0768 9.66828 23.0768C10.5485 23.0768 11.1144 22.731 11.4602 21.8822C12.0575 20.4361 12.812 19.0528 13.4722 17.6382C14.1323 16.255 14.1323 16.2864 15.6413 16.6322C16.8988 16.9151 18.1563 17.3238 19.3823 17.3867C19.8853 17.3552 20.294 17.3552 20.6712 17.2295C21.52 16.9466 21.6143 16.6008 21.0799 15.9406C19.9167 14.4316 18.7221 12.9226 17.4961 11.4451ZM6.3674 12.1681C6.17877 12.4825 5.95872 12.1996 5.73866 12.1681C5.89584 11.9481 6.05303 11.728 6.30452 11.8852C6.36739 11.9167 6.39883 12.0738 6.3674 12.1681ZM12.9692 11.3822C12.7177 11.8852 12.529 12.3568 12.2775 12.8598C11.8689 13.7086 11.8689 13.7086 10.9572 13.4571C10.5485 13.3628 10.4228 13.1427 10.3913 12.734C10.3599 12.1681 10.2656 11.5708 10.2027 11.005C10.2027 11.005 10.2027 11.005 10.2341 11.005C10.2341 10.9421 10.2341 10.8792 10.2341 10.8164C10.1713 9.96756 10.6743 9.37026 11.5231 9.24451C11.7431 9.21307 11.8374 9.30739 11.9632 9.43313C12.2775 9.84181 12.5919 10.2505 12.9063 10.6277C13.0635 10.8792 13.0949 11.0993 12.9692 11.3822ZM15.6099 14.5888C15.4527 14.5259 15.1697 14.5574 15.2012 14.2744C15.2012 14.1801 15.2641 14.0858 15.3898 14.0858C15.6413 14.0858 15.6727 14.3059 15.7985 14.4002C15.767 14.5259 15.7356 14.6202 15.6099 14.5888Z" fill="#002454"/>
<path d="M14.3823 54.4829C14.0051 54.0427 13.9108 53.6655 14.1623 53.0996C14.6967 51.8107 15.1683 50.4904 15.6713 49.17C15.9542 48.4155 15.7656 48.1011 14.9796 47.944C14.1623 47.7868 13.3449 47.7868 12.6219 48.3212C12.1818 48.6356 11.7102 48.9185 11.2387 49.2014C10.6099 49.5787 10.5785 49.5787 10.1069 48.9814C9.00663 47.5353 7.87489 46.1206 6.80604 44.6745C6.24017 43.8886 5.51712 43.6057 4.60545 43.6371C3.06504 43.6685 2.75067 44.0458 2.97073 45.5862C2.97073 45.6176 2.97073 45.6491 3.00216 45.6805C3.37941 48.0697 3.72521 50.4904 4.10246 52.8796C4.19677 53.4454 4.03959 53.7598 3.56803 54.0427C2.75067 54.5143 1.96474 55.0802 1.14738 55.5831C0.518644 55.9918 0.518646 56.3376 1.17882 56.7149C1.43032 56.8721 1.74469 56.9664 2.02762 57.0607C2.75067 57.2807 3.47372 57.5322 4.19677 57.6894C4.7312 57.8152 4.91982 58.0667 4.98269 58.5697C5.29706 60.7074 5.64287 62.8136 6.02011 64.9514C6.20874 66.0831 6.58598 66.3975 7.74915 66.366C8.75513 66.366 9.03806 66.146 9.41531 65.2029C10.044 63.5681 10.6728 61.9649 11.3015 60.3301C11.5845 59.6385 11.5845 59.6385 12.3389 59.8271C13.1249 60.0158 13.9108 60.2358 14.7282 60.4559C15.4826 60.6445 16.2371 60.9274 17.0231 60.896C17.2745 60.8646 17.4946 60.8646 17.7461 60.8331C17.8719 60.8017 18.029 60.7702 18.1548 60.7388C18.9093 60.4559 18.9721 60.2044 18.4692 59.5756C17.0859 57.8152 15.7656 56.149 14.3823 54.4829ZM7.6234 51.3077C7.24616 51.1191 7.3719 50.7419 7.3719 50.4589C7.43478 50.4275 7.46622 50.396 7.46622 50.396C7.74915 50.5532 8.06352 50.7419 7.93777 51.1505C7.93777 51.2448 7.74915 51.3706 7.6234 51.3077ZM10.1698 54.7029C10.0126 55.1745 9.85543 55.6775 9.6668 56.149C9.54106 56.4319 9.57249 56.8406 9.03806 56.7778C8.40933 56.6834 8.12639 56.4948 8.06352 55.9604C7.96921 55.3631 7.90633 54.7344 7.84346 54.1999C7.78058 53.8227 7.8749 53.6026 8.12639 53.4454C8.25214 53.3826 8.34645 53.2882 8.4722 53.2254C8.84944 53.0996 9.13237 52.5338 9.63536 52.911C10.2641 53.4454 10.4213 53.9484 10.1698 54.7029ZM12.5904 57.7837C12.3075 57.5951 12.4647 57.3751 12.5904 57.1864C12.7162 56.9978 12.8734 57.0921 12.9991 57.2493C13.1563 57.4694 13.3764 57.6266 13.4078 57.9724C13.062 58.0038 12.8105 57.9409 12.5904 57.7837Z" fill="#002454"/>
<path d="M37.9915 13.8333C38.1801 13.9276 38.3687 13.9904 38.5573 14.0219C39.1232 14.1476 39.6891 14.3363 40.2549 14.3991C41.0094 14.4934 41.3238 14.8707 41.481 15.6252C41.7953 17.2913 42.2355 18.9575 42.6441 20.6236C42.8642 21.4724 43.0842 21.6925 43.9645 21.7868C44.2474 21.8183 44.4989 21.8183 44.7818 21.7868C45.5992 21.6611 45.7878 21.5039 45.9765 20.6551C46.2908 19.3976 46.6052 18.1401 46.9196 16.8827C47.1082 16.1282 47.1396 16.1282 47.8627 16.2853C48.7115 16.4425 49.4974 16.7569 50.4719 16.7569C50.6291 16.7569 50.8492 16.7569 51.1007 16.694C51.4779 16.6312 51.8866 16.5683 52.0123 16.1596C52.1381 15.8138 51.7923 15.6252 51.5722 15.4051C50.6291 14.3048 49.686 13.236 48.7429 12.1671C48.3971 11.7899 48.3342 11.4441 48.4914 10.9725C48.7743 10.0608 48.9944 9.11772 49.2145 8.20605C49.4031 7.42012 49.2773 7.2315 48.5228 7.04288C47.6112 6.79138 46.7624 6.91713 45.9765 7.45156C45.1277 8.04886 45.2534 8.0803 44.5303 7.2315C44.0274 6.6342 43.4929 6.06833 43.0214 5.40816C42.4555 4.65367 41.7325 4.43361 40.8522 4.49649C39.469 4.55936 39.1546 4.96804 39.4061 6.28839C39.6891 7.70306 39.972 9.08628 40.2864 10.5009C40.4121 11.0668 40.2864 11.3812 39.8148 11.6956C39.2175 12.0728 38.7145 12.6072 37.96 12.7644C37.7085 12.8273 37.457 13.0159 37.457 13.3303C37.5828 13.5503 37.7714 13.7075 37.9915 13.8333ZM44.3417 11.1926C44.4989 11.1297 44.5932 11.2554 44.6875 11.3497C44.9076 11.5384 45.0333 11.7584 44.9705 12.0728C44.9076 12.45 44.8447 12.7958 44.6247 13.236C44.3732 12.6072 44.3103 12.0728 44.216 11.5384C44.1845 11.3812 44.1845 11.2554 44.3417 11.1926Z" fill="#002454"/>
<path d="M80.2752 96.5132C81.5641 96.859 82.9159 96.9848 84.2362 96.7018C85.0536 96.5132 85.6195 96.7333 86.2482 97.2677C88.323 99.0596 90.7437 99.9713 93.5416 99.5312C95.9622 99.1539 97.6598 97.4563 97.8484 95.0357C98.1314 91.4204 96.6224 88.5282 93.9817 86.2019C91.8754 84.3471 89.2033 84.1899 86.6254 83.7812C86.5626 83.7812 86.4997 83.7812 86.4054 83.7812C82.5386 83.9384 79.5836 85.6989 77.5087 88.9369C77.1944 89.4399 77.0057 89.9743 76.8485 90.5402C76.0626 93.4324 77.383 95.7273 80.2752 96.5132ZM80.4638 91.1375C81.2183 88.4025 82.9159 86.4534 85.588 85.416C87.1599 84.7872 88.6374 85.1959 89.9892 86.0447C92.3155 87.4908 93.6044 89.6914 94.1703 92.3321C94.2961 92.8665 94.3904 93.401 94.3589 93.9668C94.3275 95.0042 94.1703 96.0102 93.6044 96.8905C92.85 98.1165 92.0955 98.3051 90.8694 97.5506C89.8006 96.8905 89.0461 95.9159 88.3859 94.8471C87.5057 93.3381 85.1165 93.1495 83.9533 94.5013C83.4503 95.0671 82.2243 95.1929 81.5012 94.7527C80.841 94.3126 80.5267 93.621 80.3695 92.8665C80.3066 92.3007 80.3066 91.7034 80.4638 91.1375Z" fill="#002454"/>
<path d="M86.7828 80.0092C88.166 81.1095 90.4609 80.7637 91.2783 79.1919C92.1585 77.4314 92.4414 75.5766 92.0956 73.6275C91.6555 71.2069 88.9519 69.9808 86.7513 71.1754C86.4999 71.3012 86.154 71.5213 86.2484 71.7413C86.5942 72.4644 86.0597 72.7787 85.7139 73.1874C85.4624 73.4704 85.3996 73.8476 85.3367 74.2248C85.2738 74.7593 85.2424 75.3251 85.2109 75.6709C85.2738 77.4628 85.3996 78.9404 86.7828 80.0092ZM88.2603 72.8416C88.5747 72.8102 88.7004 72.9988 88.7633 73.2503C89.2034 74.9165 88.9519 76.5197 88.4489 78.1859C88.1031 77.8401 88.0717 77.5572 88.0088 77.2742C87.8516 75.9853 87.8202 74.6964 87.8202 73.4075C87.8202 73.1245 87.8831 72.8731 88.2603 72.8416Z" fill="#002454"/>
<path d="M94.3888 81.8957C94.6403 81.9272 94.8603 81.9272 94.9546 81.9272C97.784 81.9272 100.33 79.6009 100.676 76.7401C100.959 74.5709 99.7331 73.4078 97.5953 73.7536C97.1867 73.8164 96.778 73.9108 96.495 74.2251C96.3064 74.4452 96.0549 74.5395 95.8034 74.6338C93.7286 75.5455 92.6597 77.1802 92.3454 79.3494C92.1882 80.8583 92.9112 81.7071 94.3888 81.8957ZM97.2495 75.514C97.5953 76.9287 96.778 78.9092 95.5205 79.8523C95.1747 78.6577 95.9921 76.6143 97.2495 75.514Z" fill="#002454"/>
<path d="M78.8282 80.1046C79.897 81.0792 81.1545 81.2678 82.4434 80.7334C83.7009 80.1989 83.9524 79.0358 83.921 77.8412C83.8895 76.5523 83.4494 75.3576 82.6949 74.3202C82.3491 73.8487 81.9404 73.4086 81.3431 73.2514C80.4943 73.0313 79.6141 72.8427 78.7024 72.937C77.7593 73.0313 77.1306 73.5972 76.942 74.5089C76.8791 74.8232 76.8791 75.1062 76.8477 75.4205C76.8791 75.7663 76.8791 76.1121 76.942 76.4579C77.2249 77.8412 77.7593 79.1301 78.8282 80.1046ZM79.3941 74.5089C80.4943 75.8921 80.9659 77.4954 80.8716 79.3187C79.677 78.7528 78.8596 76.2693 79.3941 74.5089Z" fill="#002454"/>
<path d="M98.0663 84.1585C97.3747 85.2588 97.6576 86.139 98.8522 86.6106C99.3866 86.7992 99.9211 86.8621 100.235 86.8621C102.027 86.8935 103.411 86.3905 104.605 85.3531C105.14 84.913 105.58 84.3785 105.831 83.7184C106.114 82.901 105.894 82.3351 105.14 81.895C104.699 81.6435 104.196 81.5492 103.662 81.4549C102.342 81.2663 101.273 81.9265 100.173 82.398C99.2923 82.7753 98.5693 83.3726 98.0663 84.1585ZM102.279 83.4354C102.216 84.1899 101.807 84.63 100.99 85.0702C101.21 84.1899 101.65 83.7498 102.279 83.4354Z" fill="#002454"/>
</svg>
