<svg width="33" height="32" viewBox="0 0 33 32" fill="none" xmlns="http://www.w3.org/2000/svg">
<path d="M16.5013 30.3327C8.59464 30.3327 2.16797 23.906 2.16797 15.9993C2.16797 8.09268 8.59464 1.66602 16.5013 1.66602C24.408 1.66602 30.8346 8.09268 30.8346 15.9993C30.8346 23.906 24.408 30.3327 16.5013 30.3327ZM16.5013 3.66602C9.7013 3.66602 4.16797 9.19935 4.16797 15.9993C4.16797 22.7993 9.7013 28.3327 16.5013 28.3327C23.3013 28.3327 28.8346 22.7993 28.8346 15.9993C28.8346 9.19935 23.3013 3.66602 16.5013 3.66602Z" fill="#FF6961"/>
<path d="M12.5003 29H11.167C10.6203 29 10.167 28.5467 10.167 28C10.167 27.4533 10.5936 27.0133 11.1403 27C9.04698 19.8533 9.04698 12.1467 11.1403 5C10.5936 4.98667 10.167 4.54667 10.167 4C10.167 3.45333 10.6203 3 11.167 3H12.5003C12.8203 3 13.127 3.16 13.3136 3.41333C13.5003 3.68 13.5536 4.01333 13.447 4.32C10.9403 11.8533 10.9403 20.1467 13.447 27.6933C13.5536 28 13.5003 28.3333 13.3136 28.6C13.127 28.84 12.8203 29 12.5003 29Z" fill="#FF6961"/>
<path d="M20.4992 28.9996C20.3926 28.9996 20.2859 28.9863 20.1792 28.9463C19.6592 28.7729 19.3659 28.1996 19.5526 27.6796C22.0592 20.1463 22.0592 11.8529 19.5526 4.30626C19.3792 3.78626 19.6592 3.21292 20.1792 3.03959C20.7126 2.86626 21.2726 3.14626 21.4459 3.66626C24.0992 11.6129 24.0992 20.3596 21.4459 28.2929C21.3126 28.7329 20.9126 28.9996 20.4992 28.9996Z" fill="#FF6961"/>
<path d="M16.5 22.9324C12.78 22.9324 9.07333 22.4124 5.5 21.3591C5.48667 21.8924 5.04667 22.3324 4.5 22.3324C3.95333 22.3324 3.5 21.8791 3.5 21.3324V19.9991C3.5 19.6791 3.66 19.3724 3.91333 19.1857C4.18 18.9991 4.51333 18.9457 4.82 19.0524C12.3533 21.5591 20.66 21.5591 28.1933 19.0524C28.5 18.9457 28.8333 18.9991 29.1 19.1857C29.3667 19.3724 29.5133 19.6791 29.5133 19.9991V21.3324C29.5133 21.8791 29.06 22.3324 28.5133 22.3324C27.9667 22.3324 27.5267 21.9057 27.5133 21.3591C23.9267 22.4124 20.22 22.9324 16.5 22.9324Z" fill="#FF6961"/>
<path d="M28.501 12.9992C28.3943 12.9992 28.2877 12.9858 28.181 12.9458C20.6477 10.4392 12.341 10.4392 4.80768 12.9458C4.27435 13.1192 3.71435 12.8392 3.54101 12.3192C3.38101 11.7858 3.66101 11.2258 4.18101 11.0525C12.1277 8.39917 20.8743 8.39917 28.8077 11.0525C29.3277 11.2258 29.621 11.7992 29.4343 12.3192C29.3144 12.7325 28.9143 12.9992 28.501 12.9992Z" fill="#FF6961"/>
</svg>
