<svg width="40" height="40" viewBox="0 0 40 40" fill="none" xmlns="http://www.w3.org/2000/svg">
<g id="Group 37957">
<g id="Group 37996">
<path id="Vector" d="M19.3302 17.4905C19.4502 17.4905 19.5602 17.4605 19.6502 17.3905C19.7802 17.3105 19.8602 17.1805 19.9002 17.0305C19.9302 16.8905 19.9002 16.7305 19.8102 16.5805C19.6502 16.3605 19.4402 16.1905 19.1902 16.0905C19.1802 15.9405 19.1102 15.8005 19.0102 15.7005C18.7902 15.4905 18.4102 15.4905 18.1902 15.7005C18.0902 15.8005 18.0202 15.9405 18.0102 16.0905C17.8202 16.1605 17.6502 16.2805 17.5102 16.4305C17.3202 16.6505 17.2002 16.9205 17.1802 17.2405C17.1802 17.6905 17.4602 18.0905 17.8602 18.3105C17.7502 18.3105 17.6402 18.3405 17.5502 18.4105C17.4202 18.4905 17.3302 18.6205 17.3002 18.7705C17.2702 18.9205 17.3002 19.0705 17.3902 19.2205C17.5502 19.4405 17.7602 19.6105 18.0102 19.7105C18.0102 19.7805 18.0302 19.8405 18.0502 19.9105C18.0802 19.9805 18.1202 20.0505 18.1802 20.1105C18.2302 20.1605 18.3002 20.2105 18.3702 20.2405C18.4402 20.2705 18.5202 20.2805 18.6002 20.2805C18.6802 20.2805 18.7602 20.2705 18.8302 20.2405C18.9002 20.2105 18.9702 20.1605 19.0202 20.1105C19.0802 20.0505 19.1202 19.9805 19.1502 19.9105C19.1702 19.8405 19.1902 19.7805 19.1902 19.7105C19.3802 19.6405 19.5502 19.5205 19.6902 19.3705C19.8802 19.1505 20.0002 18.8805 20.0202 18.5705C20.0202 18.1105 19.7402 17.7105 19.3302 17.4905ZM18.5902 18.7005C18.5902 18.7005 18.4902 18.6905 18.4502 18.6605C18.4102 18.6405 18.3702 18.6005 18.3502 18.5705C18.3202 18.5205 18.2902 18.4805 18.2602 18.4505C18.3702 18.4905 18.4802 18.5005 18.6002 18.5005C18.7402 18.5005 18.8302 18.5705 18.8402 18.5705C18.8402 18.6105 18.7402 18.6905 18.5902 18.6905V18.7005ZM18.6002 17.2905C18.4602 17.2905 18.3702 17.1905 18.3502 17.1905C18.3702 17.1405 18.4602 17.0305 18.6102 17.0305C18.6602 17.0305 18.7102 17.0505 18.7502 17.0805C18.7902 17.1105 18.8302 17.1605 18.8502 17.2105C18.8802 17.2605 18.9002 17.3105 18.9402 17.3505C18.8302 17.3005 18.7202 17.2905 18.6002 17.2905Z" fill="#CCD3DD"/>
<path id="Vector_2" d="M24.0297 16.8797C23.8297 17.0197 23.6697 17.2097 23.5797 17.4297C23.4797 17.6497 23.4597 17.8997 23.5097 18.1397C23.5497 18.3797 23.6697 18.5897 23.8397 18.7697C24.0097 18.9397 24.2297 19.0497 24.4697 19.0997C24.5497 19.1197 24.6297 19.1197 24.7097 19.1197C24.8697 19.1197 25.0297 19.0897 25.1797 19.0297C25.3997 18.9397 25.5897 18.7797 25.7197 18.5797C25.8597 18.3797 25.9297 18.1397 25.9297 17.8997C25.9297 17.5797 25.7997 17.2597 25.5697 17.0297C25.1697 16.6297 24.4897 16.5697 24.0297 16.8797ZM25.0397 17.8997C25.0397 18.1197 24.8597 18.2897 24.6497 18.2897C24.4397 18.2897 24.2497 18.1197 24.2497 17.8997C24.2497 17.6797 24.4297 17.5097 24.6497 17.5097C24.8697 17.5097 25.0397 17.6797 25.0397 17.8997Z" fill="#CCD3DD"/>
<path id="Vector_3" d="M32.03 15.09C31.73 14.8 31.34 14.6 30.89 14.54C30.85 14.08 30.66 13.66 30.33 13.33C30.03 13.03 29.64 12.84 29.19 12.78C29.15 12.33 28.95 11.89 28.63 11.57C28.26 11.2 27.77 11 27.26 11H9.94C9.42 11 8.94 11.2 8.57 11.57C8.2 11.94 8 12.42 8 12.94V22.86C8 23.37 8.2 23.86 8.57 24.23C8.87 24.53 9.26 24.72 9.71 24.78C9.75 25.24 9.94 25.66 10.27 25.99C10.57 26.29 10.96 26.48 11.41 26.54C11.45 27 11.64 27.43 11.97 27.75C12.34 28.12 12.82 28.32 13.34 28.32H30.66C31.18 28.32 31.66 28.12 32.03 27.75C32.4 27.39 32.6 26.9 32.6 26.38V16.47C32.6 15.96 32.39 15.46 32.03 15.09ZM30.33 14.97L30.35 15.1H30.33V14.97ZM28.63 13.2L28.65 13.34H28.63V13.2ZM9.94 23.63C9.74 23.63 9.54 23.54 9.4 23.4C9.25 23.26 9.17 23.06 9.17 22.86V12.94C9.17 12.74 9.26 12.54 9.4 12.4C9.54 12.26 9.74 12.18 9.94 12.18H27.26C27.46 12.18 27.66 12.26 27.8 12.4C27.94 12.54 28.03 12.74 28.03 12.94V22.86C28.03 23.06 27.95 23.25 27.8 23.4C27.65 23.55 27.46 23.63 27.26 23.63H9.94ZM11.64 25.39C11.44 25.39 11.24 25.31 11.1 25.16C11 25.06 10.93 24.94 10.9 24.8H27.26C27.77 24.8 28.27 24.59 28.63 24.23C29 23.86 29.2 23.37 29.2 22.86V13.98C29.31 14.01 29.42 14.08 29.5 14.16C29.65 14.31 29.73 14.5 29.73 14.71V24.62C29.73 24.82 29.64 25.02 29.5 25.16C29.36 25.31 29.16 25.39 28.96 25.39H11.64ZM31.43 26.38C31.43 26.58 31.35 26.78 31.2 26.92C31.06 27.07 30.86 27.15 30.66 27.15H13.34C13.14 27.15 12.94 27.07 12.8 26.92C12.7 26.82 12.63 26.7 12.6 26.56H28.96C29.47 26.56 29.97 26.35 30.33 25.99C30.7 25.63 30.9 25.14 30.9 24.62V15.74C31.01 15.78 31.12 15.84 31.2 15.92C31.34 16.07 31.43 16.26 31.43 16.47V26.38Z" fill="#CCD3DD"/>
<path id="Vector_4" d="M12.4902 16.6797C12.2502 16.6797 12.0202 16.7497 11.8102 16.8797C11.6102 17.0197 11.4502 17.2097 11.3602 17.4297C11.2702 17.6497 11.2502 17.8997 11.2902 18.1397C11.3402 18.3797 11.4602 18.5897 11.6302 18.7697C11.8002 18.9397 12.0202 19.0497 12.2602 19.0997C12.3302 19.1197 12.4102 19.1197 12.4902 19.1197C12.6502 19.1197 12.8102 19.0897 12.9602 19.0297C13.1902 18.9397 13.3802 18.7797 13.5102 18.5797C13.6502 18.3797 13.7202 18.1397 13.7202 17.8997C13.7202 17.5697 13.5902 17.2697 13.3602 17.0297C13.1302 16.7997 12.8202 16.6797 12.4902 16.6797ZM12.4902 18.2897C12.2802 18.2897 12.1002 18.1197 12.1002 17.8997C12.1002 17.6797 12.2802 17.5097 12.4902 17.5097C12.7002 17.5097 12.8902 17.6797 12.8902 17.8997C12.8902 18.1197 12.7102 18.2897 12.4902 18.2897Z" fill="#CCD3DD"/>
<path id="Vector_5" d="M27.5599 21.0298V14.7698C27.5599 14.6198 27.4999 14.4698 27.3899 14.3598C27.2799 14.2498 27.1299 14.1798 26.9799 14.1798C26.7499 14.1798 26.5499 14.0998 26.3899 13.9398C26.2299 13.7798 26.1399 13.5698 26.1399 13.3498C26.1399 13.2698 26.1299 13.1898 26.0999 13.1198C26.0699 13.0498 26.0199 12.9898 25.9699 12.9298C25.9099 12.8798 25.8499 12.8298 25.7799 12.8098C25.7099 12.7798 25.6299 12.7598 25.5499 12.7598H11.6399C11.5699 12.7598 11.4899 12.7798 11.4199 12.8098C11.3499 12.8298 11.2899 12.8798 11.2299 12.9298C11.1699 12.9898 11.1299 13.0498 11.0999 13.1198C11.0699 13.1898 11.0599 13.2698 11.0599 13.3498C11.0599 13.5698 10.9699 13.7798 10.8099 13.9398C10.6499 14.0998 10.4399 14.1798 10.2199 14.1798C10.0699 14.1798 9.91988 14.2498 9.80988 14.3598C9.69988 14.4698 9.62988 14.6198 9.62988 14.7698V21.0298C9.62988 21.1798 9.69988 21.3298 9.80988 21.4498C9.91988 21.5498 10.0699 21.6098 10.2199 21.6098C10.4399 21.6198 10.6499 21.6998 10.8099 21.8598C10.9699 22.0098 11.0599 22.2298 11.0599 22.4498C11.0599 22.6098 11.1199 22.7498 11.2299 22.8698C11.3399 22.9698 11.4899 23.0398 11.6399 23.0398H25.5599C25.6299 23.0398 25.7099 23.0198 25.7799 22.9898C25.8499 22.9598 25.9099 22.9198 25.9699 22.8598C26.0299 22.7998 26.0699 22.7398 26.0999 22.6798C26.1299 22.6098 26.1399 22.5298 26.1399 22.4498C26.1399 22.2298 26.2299 22.0198 26.3899 21.8598C26.5499 21.6998 26.7599 21.6198 26.9799 21.6098C27.1299 21.6098 27.2799 21.5498 27.3899 21.4398C27.4999 21.3298 27.5599 21.1798 27.5599 21.0298ZM25.5499 22.4398V22.4098C25.5499 22.4098 25.5599 22.4298 25.5599 22.4398H25.5499ZM26.3899 20.5298C26.0799 20.6298 25.7899 20.7998 25.5599 21.0298C25.3299 21.2598 25.1499 21.5498 25.0599 21.8598H12.1399C12.0499 21.5498 11.8799 21.2698 11.6399 21.0298C11.4099 20.7998 11.1199 20.6298 10.8099 20.5298V15.2698C11.1199 15.1698 11.4099 14.9998 11.6399 14.7698C11.8699 14.5398 12.0499 14.2498 12.1399 13.9298H25.0599C25.1499 14.2498 25.3199 14.5298 25.5599 14.7698C25.7899 14.9998 26.0799 15.1698 26.3899 15.2698V20.5298Z" fill="#CCD3DD"/>
</g>
</g>
</svg>
