<svg width="24" height="24" viewBox="0 0 24 24" fill="none" xmlns="http://www.w3.org/2000/svg">
<path d="M18.0673 8.50965L9.50733 4.22965C3.75733 1.34965 1.39733 3.70965 4.27733 9.45965L5.14733 11.1996C5.39733 11.7096 5.39733 12.2996 5.14733 12.8096L4.27733 14.5396C1.39733 20.2896 3.74733 22.6496 9.50733 19.7696L18.0673 15.4896C21.9073 13.5696 21.9073 10.4296 18.0673 8.50965ZM14.8373 12.7496H9.43733C9.02733 12.7496 8.68733 12.4096 8.68733 11.9996C8.68733 11.5896 9.02733 11.2496 9.43733 11.2496H14.8373C15.2473 11.2496 15.5873 11.5896 15.5873 11.9996C15.5873 12.4096 15.2473 12.7496 14.8373 12.7496Z" fill="#667C98"/>
</svg>
