<svg width="191" height="262" viewBox="0 0 191 262" fill="none" xmlns="http://www.w3.org/2000/svg">
<path fill-rule="evenodd" clip-rule="evenodd" d="M90.7411 81.1347C108.96 80.2379 127.672 83.7284 142.433 94.3438C157.198 104.961 167.288 121.28 171.134 138.947C174.753 155.568 167.881 171.774 162.827 188.024C157.681 204.567 155.353 223.481 141.543 234.087C127.593 244.802 108.344 244.704 90.7411 243.39C74.2241 242.156 59.1426 235.775 45.2161 226.892C30.5082 217.511 15.8501 207.063 8.87536 191.172C1.49016 174.345 -0.331563 154.791 6.0041 137.549C12.2297 120.606 27.5447 109.312 42.6511 99.2552C57.2426 89.5408 73.182 81.999 90.7411 81.1347Z" fill="#FFC3C0"/>
<g clip-path="url(#clip0_3103_11093)">
<path d="M144.788 21.5652C142.659 20.5443 140.954 21.3246 139.647 23.1592C137.102 26.3708 135.039 29.8969 132.676 33.2427C130.472 36.6103 127.436 39.5399 125.447 43.0203C123.19 46.8226 123.588 52.5333 128.011 54.5028C130.957 56.1179 134.414 57.5004 137.768 56.5179C139.446 56.0452 141.395 55.0232 142.546 53.8185C143.568 52.6719 143.583 50.6121 143.885 48.5283C144.458 44.4189 145.403 40.353 146.72 36.4143C148.768 29.3881 153.941 25.9828 144.786 21.5703L144.788 21.5652ZM144.877 21.3633C149.553 23.5228 152.299 25.6341 150.396 31.1521C148.684 37.0014 147.159 42.8662 146.164 48.8801C145.748 51.0165 145.74 53.4043 144.091 55.2089C142.458 56.7979 140.358 57.7655 138.164 58.2464C133.792 59.1483 129.727 56.7217 126.279 54.3314C122.815 51.5369 122.715 46.3423 124.348 42.5066C125.983 38.6116 128.696 35.4979 131.101 32.0982C133.556 28.8046 136.326 25.698 139.232 22.7896C140.821 21.025 142.601 20.2781 144.874 21.3561L144.877 21.3633Z" fill="#002454"/>
<path d="M124.72 54.8082C124.273 55.3586 126.748 56.2908 127.17 56.4947L130.166 57.7519C131.825 58.3614 133.534 59.282 135.291 59.3978C135.37 59.3964 135.375 59.3567 135.3 59.432C135.218 59.5767 135.298 59.4073 135.273 59.3962C135.28 59.3268 135.232 59.2156 135.087 59.0672C134.561 58.5648 133.836 58.24 133.169 57.8803C131.249 56.9331 129.298 55.8763 127.406 54.8634C126.6 54.4908 125.179 53.6005 124.707 54.8088L124.72 54.8082ZM124.72 54.8082C124.957 53.4065 126.75 54.0687 127.631 54.366C129.692 55.1581 131.625 56.0504 133.641 56.9436C134.664 57.5079 136.258 57.9799 136.382 59.3959C136.38 59.6602 136.314 59.9202 136.149 60.1308C135.891 60.4151 135.614 60.4559 135.43 60.4773C133.382 60.4375 131.609 59.3447 129.816 58.532C129.057 58.0954 123.954 55.7002 124.72 54.8082Z" fill="#002454"/>
<path d="M83.2106 142.135C82.3986 143.242 81.3399 145.306 82.9765 146.05C87.0686 147.826 91.2875 149.67 95.5196 151.031C95.7159 151.106 95.9444 151.134 96.0918 151.169C96.1019 151.173 96.0655 151.187 96.112 151.177C96.3498 151.144 96.7426 151.099 96.9203 150.997C102.941 134.694 109.781 117.445 116.994 101.528C123.049 87.7345 128.238 73.596 133.309 59.4116L133.901 60.8588C131.491 59.8888 126.655 57.9125 124.258 56.9123L126.084 56.2396C112.718 85.2983 98.6992 114.155 83.2129 142.13L83.2106 142.135ZM82.9351 141.954C95.4481 111.959 109.491 82.7464 124.186 53.7902C127.11 55.1249 131.895 57.4222 134.814 58.7967L135.825 59.2777L135.401 60.2417C127.327 78.3096 119.787 97.5339 113.329 116.295C109.06 128.109 104.221 139.685 99.3196 151.239C99.0678 151.99 98.2741 153.068 97.3065 153.173C96.8735 153.253 96.5719 153.295 96.1497 153.296C95.8962 153.311 95.6406 153.235 95.408 153.175C93.9647 152.745 92.6532 152.084 91.3426 151.489C88.3368 150.065 85.394 148.565 82.5239 146.887C80.418 145.635 81.6383 143.245 82.9344 141.941L82.9351 141.954Z" fill="#002454"/>
<path d="M102.419 141.742C106.879 145.818 113.883 146.808 119.258 144.119C120.729 143.404 121.873 142.311 123.485 141.755C125.655 140.902 128.101 142.244 128.604 144.579C129.411 148.097 127.774 151.491 126.244 154.504C122.226 161.803 114.993 167.031 112.145 174.669C109.287 182.303 112.487 190.433 113.631 198.364C115.699 211.165 112.216 224.861 104.192 235.011C91.9641 250.662 74.5735 248.717 57.2973 244.334C40.9575 240.315 24.1172 232.052 16.3415 216.301C12.6094 208.955 11.1624 200.234 13.2439 192.174C17.7884 174.475 34.8178 164.684 46.9306 152.567C52.687 146.985 57.5751 140.515 59.6447 132.715C61.9019 124.762 62.2323 115.685 66.558 108.275C68.9416 104.541 72.9621 99.7553 77.9521 100.764C79.3942 101.018 80.9167 102.405 81.1167 103.909C81.3876 105.347 81.1194 106.518 80.8527 107.618C80.0037 110.931 78.1941 113.689 77.4544 116.863C76.7953 121.675 78.7505 126.529 82.1055 129.981C83.5047 131.47 85.0987 132.803 86.8218 133.953L86.596 134.33C82.8791 132.303 79.4652 129.41 77.4246 125.627C75.8454 122.739 75.0724 119.279 75.5122 115.979C76.1884 112.867 77.7052 109.98 78.3018 107.007C78.4909 106.085 78.5847 105.132 78.4088 104.518C78.2093 103.877 77.9619 103.768 77.3074 103.612C76.0002 103.339 74.357 104.212 73.0373 105.487C68.6345 109.58 67.124 115.602 66.107 121.365C65.1829 126.41 64.5399 131.898 62.8545 136.976C61.8139 140.109 60.2757 143.112 58.5015 145.886C49.2544 160.143 33.5052 168.257 23.2262 181.464C18.372 187.72 15.5818 195.377 16.3799 203.355C17.157 211.256 20.8548 218.859 26.0502 224.837C34.192 234.141 45.9041 239.642 57.6725 242.879C65.5949 245.026 73.9289 246.759 82.1429 245.806C103.638 243.472 113.062 217.968 109.748 198.975C108.376 190.811 105.316 181.593 108.635 173.336C110.247 169.178 113.079 165.725 115.949 162.488C119.93 157.902 126.613 151.432 126.147 145.179C125.379 141.98 121.887 145.359 120.077 145.913C118.011 146.763 115.8 147.188 113.61 147.14C109.283 147.062 104.973 145.275 102.096 142.051L102.412 141.744L102.419 141.742Z" fill="#002454"/>
<path d="M134.787 28.6353C134.276 29.8924 132.904 32.3549 131.347 30.8688C129.636 28.7311 131.374 24.7668 134.113 24.58C136.268 24.733 135.378 27.4013 134.794 28.6324L134.787 28.6353ZM134.787 28.6353C135.121 27.8485 135.266 26.8464 134.841 26.0871C134.714 25.8564 134.504 25.7581 134.413 25.8021C133.908 26.1282 133.374 27.2309 133.086 27.8871C132.797 28.5432 132.33 29.6871 132.443 30.279C132.473 30.3763 132.687 30.4645 132.943 30.4025C133.787 30.1955 134.425 29.416 134.782 28.633L134.787 28.6353Z" fill="#002454"/>
<path d="M129.276 35.6988C128.935 36.4341 128.58 37.212 127.888 37.7325C127.209 38.2894 126.153 37.9094 125.787 37.1398C124.979 35.5675 125.602 33.6431 126.976 32.615C127.594 32.1697 128.504 31.8533 129.263 32.3196C130.397 33.2043 129.665 34.665 129.276 35.6988ZM129.276 35.6988C129.566 35.0253 129.653 34.1298 129.216 33.5218C129.083 33.3431 128.901 33.2929 128.816 33.3341C128.146 33.9547 127.666 35.2375 127.352 36.1295C127.238 36.6758 126.969 37.1359 127.631 37.1255C128.376 37.032 128.971 36.3657 129.271 35.6966L129.276 35.6988Z" fill="#002454"/>
<path d="M125.02 42.4587C124.678 43.194 124.324 43.9719 123.631 44.4924C122.953 45.0493 121.897 44.6692 121.531 43.8997C120.722 42.3274 121.346 40.403 122.72 39.3748C123.337 38.9296 124.248 38.6132 125.006 39.0795C126.141 39.9642 125.408 41.4249 125.02 42.4587ZM125.02 42.4587C125.31 41.7852 125.397 40.8897 124.959 40.2817C124.827 40.103 124.644 40.0528 124.56 40.0939C124.156 40.4101 123.768 41.2514 123.516 41.7971C123.279 42.3495 122.911 43.212 122.964 43.7229C122.99 43.813 123.156 43.9159 123.374 43.8854C124.12 43.7918 124.714 43.1256 125.015 42.4565L125.02 42.4587Z" fill="#002454"/>
<path d="M147.364 52.0947C147.023 52.83 146.669 53.6079 145.976 54.1284C145.297 54.6853 144.241 54.3052 143.875 53.5357C143.067 51.9633 143.69 50.0389 145.064 49.0108C145.682 48.5656 146.592 48.2492 147.351 48.7154C148.486 49.6002 147.753 51.0608 147.364 52.0947ZM147.364 52.0947C147.654 51.4212 147.741 50.5257 147.304 49.9176C146.862 49.4283 146.715 49.9417 146.386 50.3875C145.941 51.2217 145.3 52.4458 145.308 53.3589C145.335 53.4489 145.5 53.5519 145.719 53.5214C146.465 53.4278 147.059 52.7616 147.359 52.0925L147.364 52.0947Z" fill="#002454"/>
<path d="M97.0355 162.402C96.4371 163.434 95.0231 163.348 93.9794 163.462C87.9565 163.788 83.5599 161.294 78.9411 157.798C77.4138 156.615 75.5729 155.582 74.7048 153.748C73.8039 150.346 79.6952 151.058 81.5742 151.511C86.9655 152.648 92.1985 155.13 95.7606 159.426C96.3847 160.267 97.3968 161.266 97.0333 162.407L97.0355 162.402ZM96.8337 162.314C97.2563 159.819 91.5871 157.904 89.7685 156.971C86.9374 155.684 84.0459 154.424 81.0814 153.535C79.6422 153.137 78.1571 152.761 76.6892 152.784C76.2431 152.799 75.8769 152.933 75.7866 153.056C75.3832 154.438 78.2291 156.527 79.3341 157.206C81.1372 158.325 83.1844 158.984 85.1528 159.7C87.1307 160.407 89.0573 161.176 91.0047 161.966C92.4579 162.497 95.7344 163.854 96.8337 162.314Z" fill="#002454"/>
<path d="M92.6107 172.462C92.0123 173.494 90.5983 173.408 89.5546 173.521C83.5317 173.847 79.1351 171.353 74.5163 167.858C72.989 166.674 71.1481 165.641 70.28 163.808C69.3791 160.405 75.2704 161.117 77.1494 161.57C82.5407 162.707 87.7737 165.19 91.3357 169.485C91.9598 170.326 92.972 171.325 92.6085 172.467L92.6107 172.462ZM92.4088 172.373C92.8315 169.878 87.1623 167.963 85.3437 167.03C82.5126 165.743 79.6211 164.483 76.6566 163.595C75.2173 163.196 73.7323 162.82 72.2644 162.843C71.8183 162.858 71.4521 162.992 71.3618 163.115C70.9584 164.498 73.8043 166.587 74.9093 167.266C76.7124 168.384 78.7596 169.043 80.728 169.759C82.7059 170.466 84.6325 171.235 86.5799 172.026C88.0331 172.556 91.3096 173.913 92.4088 172.373Z" fill="#002454"/>
<path d="M88.1859 182.521C87.5875 183.553 86.1735 183.467 85.1298 183.58C79.1069 183.907 74.7103 181.412 70.0915 177.917C68.5641 176.733 66.7233 175.7 65.8552 173.867C64.9543 170.465 70.8456 171.177 72.7246 171.63C78.1159 172.766 83.3489 175.249 86.9109 179.544C87.535 180.385 88.5472 181.385 88.1837 182.526L88.1859 182.521ZM87.984 182.432C88.4067 179.937 82.7375 178.022 80.9189 177.089C78.0878 175.802 75.1963 174.542 72.2318 173.654C70.7925 173.256 69.3075 172.879 67.8396 172.902C67.3934 172.917 67.0272 173.051 66.937 173.174C66.5336 174.557 69.3795 176.646 70.4845 177.325C72.2876 178.443 74.3347 179.103 76.3032 179.818C78.2811 180.525 80.2077 181.294 82.1551 182.085C83.6083 182.616 86.8848 183.973 87.984 182.432Z" fill="#002454"/>
<path d="M149.631 44.2849C149.003 45.9305 147.024 47.4995 145.527 45.7686C143.931 43.7956 145.413 40.4117 147.951 40.257C150.244 40.1933 150.425 42.7126 149.634 44.2922L149.631 44.2849ZM149.631 44.2849C150.061 43.3897 149.93 41.742 148.758 41.5998C147.962 41.6835 147.533 42.549 147.198 43.2148C146.929 43.9095 146.576 44.8206 147.057 45.466C147.959 46.224 149.254 45.2096 149.631 44.2849Z" fill="#002454"/>
<path d="M151.034 35.7819C150.679 36.5475 150.304 37.3585 149.588 37.9049C148.886 38.4876 147.797 38.087 147.429 37.2805C146.464 35.3258 147.606 32.7141 149.707 32.102C150.55 31.8284 151.594 32.3596 151.634 33.281C151.715 34.1781 151.366 35.0002 151.044 35.7864L151.034 35.7819ZM151.034 35.7819C151.34 35.0731 151.44 34.1473 150.998 33.495C150.865 33.3041 150.676 33.2393 150.582 33.2761C149.83 33.9032 149.321 35.2936 148.998 36.2477C148.878 36.8338 148.627 37.3375 149.329 37.3029C150.108 37.1879 150.718 36.4863 151.039 35.7842L151.034 35.7819Z" fill="#002454"/>
<path d="M143.781 40.387C144.365 39.7533 144.37 38.8079 143.792 38.2755C143.214 37.743 142.272 37.8251 141.688 38.4588C141.104 39.0926 141.099 40.038 141.677 40.5704C142.255 41.1029 143.197 41.0208 143.781 40.387Z" fill="#002454"/>
<path d="M143.842 40.4373C143.512 40.7621 143.271 41.1863 142.819 41.4333C141.491 42.0419 140.655 40.7103 140.981 39.5043C141.115 38.557 141.46 37.3475 142.625 37.1494C143.509 36.8935 144.674 37.478 144.867 38.4486C145.084 39.2971 144.369 39.9224 143.842 40.4373ZM143.723 40.3246C144.276 39.6283 143.402 38.9307 142.798 38.7012C142.324 38.6011 141.423 38.8011 141.518 39.5173C141.545 39.8246 141.896 40.027 142.147 40.0591C142.361 40.093 142.424 40.1812 142.708 40.3845C142.99 40.5928 143.481 40.6279 143.728 40.3269L143.723 40.3246Z" fill="#002454"/>
<path d="M135.617 36.7935C136.201 36.1598 136.206 35.2144 135.628 34.682C135.051 34.1495 134.109 34.2316 133.525 34.8653C132.941 35.4991 132.936 36.4445 133.513 36.9769C134.091 37.5094 135.033 37.4272 135.617 36.7935Z" fill="#002454"/>
<path d="M135.68 36.8473C135.351 37.1722 135.11 37.5963 134.658 37.8433C133.33 38.4519 132.494 37.1204 132.82 35.9143C132.953 34.9671 133.299 33.7576 134.464 33.5594C135.348 33.3035 136.512 33.888 136.706 34.8587C136.923 35.7071 136.208 36.3324 135.68 36.8473ZM135.561 36.7347C136.114 36.0383 135.241 35.3407 134.637 35.1112C134.163 35.0112 133.262 35.2111 133.356 35.9274C133.384 36.2346 133.734 36.4371 133.985 36.4692C134.199 36.5031 134.263 36.5913 134.547 36.7945C134.829 37.0028 135.319 37.0379 135.566 36.7369L135.561 36.7347Z" fill="#002454"/>
<path d="M140.063 30.2452C140.647 29.6114 140.652 28.6661 140.074 28.1336C139.497 27.6012 138.555 27.6833 137.971 28.317C137.387 28.9507 137.382 29.8961 137.959 30.4286C138.537 30.961 139.479 30.8789 140.063 30.2452Z" fill="#002454"/>
<path d="M140.13 30.3052C139.801 30.63 139.56 31.0542 139.108 31.3012C137.78 31.9098 136.944 30.5783 137.27 29.3722C137.403 28.425 137.749 27.2155 138.914 27.0173C139.798 26.7614 140.962 27.3459 141.156 28.3166C141.373 29.165 140.658 29.7903 140.13 30.3052ZM140.011 30.1925C140.565 29.4962 139.691 28.7986 139.087 28.5691C138.613 28.469 137.712 28.669 137.806 29.3853C137.834 29.6925 138.185 29.895 138.435 29.927C138.649 29.9609 138.713 30.0491 138.997 30.2524C139.279 30.4607 139.77 30.4958 140.016 30.1948L140.011 30.1925Z" fill="#002454"/>
<path d="M145.555 32.2928C146.14 31.659 146.145 30.7137 145.567 30.1812C144.989 29.6488 144.047 29.7309 143.463 30.3646C142.879 30.9983 142.874 31.9437 143.452 32.4762C144.03 33.0086 144.971 32.9265 145.555 32.2928Z" fill="#002454"/>
<path d="M145.616 32.3506C145.286 32.6755 145.045 33.0996 144.593 33.3466C143.266 33.9552 142.43 32.6237 142.755 31.4176C142.889 30.4704 143.234 29.2609 144.4 29.0627C145.283 28.8068 146.448 29.3913 146.641 30.362C146.858 31.2104 146.144 31.8357 145.616 32.3506ZM145.497 32.238C146.05 31.5416 145.176 30.844 144.572 30.6145C144.098 30.5145 143.197 30.7144 143.292 31.4307C143.319 31.7379 143.67 31.9404 143.921 31.9725C144.135 32.0063 144.198 32.0946 144.482 32.2978C144.764 32.5061 145.255 32.5412 145.502 32.2402L145.497 32.238Z" fill="#002454"/>
<path d="M141.362 48.1862C141.946 47.5525 141.951 46.6071 141.373 46.0747C140.795 45.5422 139.853 45.6243 139.269 46.258C138.685 46.8918 138.68 47.8372 139.258 48.3696C139.836 48.9021 140.778 48.8199 141.362 48.1862Z" fill="#002454"/>
<path d="M141.422 48.2398C141.092 48.5646 140.851 48.9888 140.399 49.2357C139.076 49.8466 138.232 48.5056 138.561 47.3068C138.695 46.3595 139.04 45.15 140.205 44.9519C141.089 44.696 142.253 45.2805 142.447 46.2511C142.664 47.0996 141.949 47.7249 141.422 48.2398ZM141.302 48.1271C141.856 47.4308 140.982 46.7332 140.378 46.5037C139.904 46.4036 139.003 46.6036 139.097 47.3198C139.125 47.6271 139.476 47.8295 139.726 47.8616C139.94 47.8955 140.004 47.9837 140.288 48.187C140.57 48.3953 141.061 48.4304 141.307 48.1293L141.302 48.1271Z" fill="#002454"/>
<path d="M131.196 43.7158C131.78 43.082 131.785 42.1366 131.207 41.6042C130.63 41.0717 129.688 41.1539 129.104 41.7876C128.52 42.4213 128.515 43.3667 129.092 43.8991C129.67 44.4316 130.612 44.3495 131.196 43.7158Z" fill="#002454"/>
<path d="M131.256 43.7684C130.927 44.0933 130.686 44.5175 130.234 44.7644C128.906 45.373 128.07 44.0415 128.396 42.8355C128.529 41.8882 128.875 40.6787 130.04 40.4805C130.924 40.2247 132.088 40.8092 132.282 41.7798C132.499 42.6283 131.784 43.2536 131.256 43.7684ZM131.137 43.6558C131.691 42.9595 130.817 42.2619 130.213 42.0324C129.739 41.9323 128.838 42.1323 128.932 42.8485C128.96 43.1558 129.311 43.3582 129.561 43.3903C129.775 43.4242 129.839 43.5124 130.123 43.7157C130.405 43.924 130.896 43.9591 131.142 43.658L131.137 43.6558Z" fill="#002454"/>
<path d="M119.815 66.2044C123.455 67.0644 126.743 68.8059 129.96 70.6669C128.066 70.5627 126.313 69.8097 124.601 69.0744C122.907 68.2814 121.279 67.3963 119.815 66.2044Z" fill="#002454"/>
<path d="M115.539 75.9255C119.179 76.7855 122.467 78.527 125.684 80.388C123.79 80.2838 122.037 79.5308 120.325 78.7955C118.632 78.0025 117.003 77.1174 115.539 75.9255Z" fill="#002454"/>
<path d="M110.918 84.5006C114.974 85.5377 118.685 87.4533 122.309 89.5115C120.201 89.3068 118.246 88.465 116.334 87.6359C114.438 86.754 112.596 85.7808 110.918 84.5006Z" fill="#002454"/>
<path d="M107.17 93.0203C111.226 94.0573 114.937 95.973 118.562 98.0312C116.453 97.8265 114.498 96.9846 112.586 96.1555C110.691 95.2737 108.848 94.3004 107.17 93.0203Z" fill="#002454"/>
<path d="M102.156 102.748C106.59 103.939 110.693 105.979 114.663 108.25C112.371 107.928 110.24 107.021 108.141 106.11C106.057 105.151 104.03 104.102 102.161 102.75L102.156 102.748Z" fill="#002454"/>
<path d="M98.8395 110.289C103.273 111.48 107.376 113.519 111.347 115.79C109.054 115.469 106.923 114.561 104.824 113.65C102.74 112.691 100.714 111.643 98.8446 110.291L98.8395 110.289Z" fill="#002454"/>
<path d="M95.9844 116.779C100.621 118.03 104.981 120.086 109.097 122.547C104.414 121.499 99.9924 119.404 95.9844 116.779Z" fill="#002454"/>
<path d="M103.501 98.0205C108.344 99.3619 112.907 101.507 117.23 104.059C112.334 102.918 107.716 100.736 103.501 98.0205Z" fill="#002454"/>
<path d="M99.5557 106.989C104.614 108.389 109.452 110.511 113.9 113.299C108.849 111.909 103.996 109.768 99.5557 106.989Z" fill="#002454"/>
<path d="M96.8383 113.167C100.849 114.1 104.65 115.772 108.048 118.098C104.05 117.177 100.224 115.482 96.8383 113.167Z" fill="#002454"/>
<path d="M93.4897 119.616C97.5008 120.549 101.301 122.22 104.7 124.547C100.701 123.625 96.8751 121.93 93.4897 119.616Z" fill="#002454"/>
<path d="M91.0303 124.564C95.0341 125.499 98.847 127.171 102.24 129.495C98.2393 128.566 94.4207 126.88 91.0303 124.564Z" fill="#002454"/>
<path d="M88.8123 129.606C92.2407 130.289 95.4984 131.716 98.3163 133.786C94.8907 133.111 91.6273 131.669 88.8123 129.606Z" fill="#002454"/>
<path d="M87.0296 133.659C91.1141 134.63 95.0078 136.337 98.4767 138.694C94.395 137.73 90.5008 136.011 87.0296 133.659Z" fill="#002454"/>
<path d="M85.1912 137.838C88.4732 138.456 91.5947 139.823 94.2662 141.83C90.987 141.219 87.8649 139.839 85.1912 137.838Z" fill="#002454"/>
<path d="M83.7481 141.119C87.7519 142.055 91.5648 143.726 94.958 146.05C90.9571 145.121 87.1385 143.435 83.7481 141.119Z" fill="#002454"/>
<path d="M57.4132 189.128C54.8724 191.577 54.0446 196.02 56.0183 198.996C56.415 199.532 56.9068 199.893 57.5127 200.214C58.8163 200.866 60.1882 201.499 61.5487 202.104C66.2737 204.098 71.0186 206.444 75.9466 207.798C76.1366 207.846 76.3049 207.805 76.075 207.849C75.9755 207.883 75.8402 207.944 75.7649 208.02L75.7839 208.004C77.1382 206.678 78.423 205.195 79.5459 203.683C80.08 202.948 80.7497 201.96 80.9087 201.228C80.7431 200.674 80.3871 199.662 79.7766 199.297C79.3084 198.964 78.6926 198.693 78.0278 198.479C77.3115 198.273 76.5306 198.008 75.846 197.743C69.5479 195.189 63.4241 192.266 57.4082 189.126L57.4132 189.128ZM57.4132 189.128C64.3537 191.44 71.0778 194.272 78.0106 196.478C79.4257 196.835 81.0396 197.371 81.9918 198.657C82.4521 199.281 82.6779 199.904 82.9234 200.579C82.9654 200.73 83.0359 201.008 83.0242 201.171C82.9511 202.693 82.0478 203.802 81.2992 204.942C80.0733 206.62 78.7921 208.177 77.2943 209.596C77.0874 209.806 76.7449 209.969 76.4695 209.992C75.2229 210.046 74.2883 209.569 73.243 209.248C68.9579 207.664 64.8718 205.71 60.815 203.648C58.8242 202.477 56.3304 201.724 54.979 199.702C52.9795 196.25 54.2474 191.368 57.4154 189.123L57.4132 189.128Z" fill="#002454"/>
<path d="M89.0075 210.712C88.0738 212.657 89.3102 215.201 91.3448 215.656C95.2961 216.629 97.6089 211.357 94.2288 209.1C92.5155 207.9 89.805 208.708 89.0075 210.712ZM89.0075 210.712C90.5005 207.14 95.8333 206.89 97.5313 210.534C99.1584 213.792 96.3 217.812 92.6863 217.276C89.6187 216.951 87.7285 213.415 89.0075 210.712Z" fill="#002454"/>
<path d="M77.8511 218.437C76.9174 220.382 78.1537 222.925 80.1883 223.381C84.1396 224.354 86.4524 219.082 83.0723 216.824C81.359 215.625 78.6485 216.432 77.8511 218.437ZM77.8511 218.437C79.344 214.865 84.6768 214.614 86.3748 218.259C88.0019 221.517 85.1435 225.536 81.5298 225.001C78.4622 224.675 76.572 221.139 77.8511 218.437Z" fill="#002454"/>
<path d="M92.4595 213.725C90.2989 212.967 89.5738 209.124 92.0201 208.315C92.1384 208.963 92.3101 209.34 92.4302 209.724C92.8592 211.063 92.9495 212.296 92.4595 213.725Z" fill="#002454"/>
<path d="M80.679 222.265C78.6621 221.619 77.3503 219.247 78.3173 217.226C78.6533 216.531 79.4818 216.058 80.2399 216.211C79.7284 217.456 79.9958 217.82 80.2402 218.922C80.5007 220 80.7358 221.013 80.679 222.265Z" fill="#002454"/>
<path d="M139.536 48.5129C139.871 50.5333 138.977 52.592 137.252 53.7065C136.908 51.6817 137.821 49.6319 139.536 48.5129Z" fill="#002454"/>
<path d="M126.204 56.1175C118.495 74.5749 109.566 92.7788 100.568 110.645C86.4406 140.996 73.0512 171.695 57.3915 201.311L57.24 201.244C70.248 170.371 85.5359 140.574 100.083 110.42C105.52 98.4147 111.033 85.7318 116.951 73.9621C119.901 67.953 122.923 61.975 126.058 56.0531L126.209 56.1198L126.204 56.1175Z" fill="#002454"/>
<path d="M127.592 56.7282C120.023 75.2354 111.235 93.5014 102.374 111.428C88.4812 141.875 75.3307 172.662 59.8958 202.383L59.7444 202.316C72.5135 171.356 87.5692 141.456 101.887 111.208C107.233 99.1624 112.646 86.4474 118.473 74.6378C121.378 68.6087 124.354 62.6107 127.443 56.6688L127.595 56.7354L127.592 56.7282Z" fill="#002454"/>
<path d="M128.97 57.3342C121.683 75.9411 113.17 94.322 104.581 112.368C91.1489 143.001 78.4637 173.961 63.4809 203.887L63.3295 203.821C75.631 172.691 90.2325 142.591 104.089 112.146C109.254 100.033 114.47 87.2437 120.121 75.3564C122.935 69.2874 125.815 63.2472 128.813 57.2654L128.965 57.332L128.97 57.3342Z" fill="#002454"/>
<path d="M130.63 58.0646C123.579 76.7513 115.306 95.2315 106.941 113.371C93.9015 144.151 81.6133 175.25 67.0119 205.35L66.8604 205.283C78.7628 174.021 92.9807 143.752 106.452 113.155C111.461 100.986 116.516 88.1379 122.013 76.189C124.75 70.0917 127.554 64.0182 130.479 57.998L130.63 58.0646Z" fill="#002454"/>
<path d="M132.177 58.7389C125.318 77.5222 117.23 96.1142 109.059 114.362C96.3342 145.318 84.3629 176.586 70.0724 206.883L69.921 206.816C81.5042 175.389 95.414 144.931 108.565 114.157C113.448 101.92 118.371 89.0019 123.746 76.9751C126.421 70.8388 129.162 64.7315 132.026 58.6723L132.177 58.7389Z" fill="#002454"/>
<path d="M133.651 59.3872C127.018 78.1915 119.148 96.8073 111.196 115.091C98.8386 146.088 87.2421 177.395 73.3145 207.743L73.1631 207.676C84.3745 176.218 97.9162 145.706 110.702 114.886C115.441 102.634 120.213 89.7036 125.441 77.6545C128.041 71.5096 130.71 65.3885 133.504 59.3229L133.656 59.3895L133.651 59.3872Z" fill="#002454"/>
<path d="M129.679 44.177C130.115 46.6096 129.344 49.156 127.619 50.9272C127.179 48.4924 127.959 45.9505 129.679 44.177Z" fill="#002454"/>
<path d="M141.676 40.5687C140.347 45.4239 137.907 49.9586 134.572 53.7325C135.895 48.8751 138.344 44.3499 141.676 40.5687Z" fill="#002454"/>
<path d="M134.125 37.2473C133.467 42.8793 131.67 48.3599 128.849 53.2813C129.497 47.6449 131.309 42.1709 134.125 37.2473Z" fill="#002454"/>
<path d="M143.699 32.4228C142.399 36.4174 140.534 40.3435 138.665 44.0995C136.717 47.8692 134.656 51.5705 132.154 55.0244C133.485 50.9715 135.279 47.1402 137.188 43.3477C139.133 39.625 141.217 35.8189 143.699 32.4228Z" fill="#002454"/>
<path d="M139.062 30.775C138.218 34.8311 136.812 38.8753 135.377 42.7556C133.865 46.6569 132.24 50.5021 130.146 54.1408C131.015 50.0292 132.36 46.0793 133.831 42.1602C135.345 38.3082 136.985 34.361 139.062 30.775Z" fill="#002454"/>
<path d="M31.4814 179.143C27.4031 191.674 23.8166 206.168 30.2361 218.497C31.1066 220.23 32.2559 221.807 33.4322 223.433C31.8332 222.248 30.347 220.847 29.0996 219.232C20.3505 207.625 23.9004 190.434 31.4814 179.143Z" fill="#002454"/>
<path d="M75.1568 114.28C71.7812 114.518 69.9516 116.87 68.9193 119.819C68.2874 121.626 67.907 123.476 67.3385 125.317C67.1955 124.669 67.1308 124.008 67.0589 123.35C66.9571 121.336 67.2341 119.241 68.1644 117.427C69.2369 114.893 72.5463 113.012 75.1596 114.288L75.1568 114.28Z" fill="#002454"/>
</g>
<defs>
<clipPath id="clip0_3103_11093">
<rect width="102.422" height="240.8" fill="white" transform="translate(97.1018 0.342285) rotate(23.7435)"/>
</clipPath>
</defs>
</svg>
