<svg width="33" height="32" viewBox="0 0 33 32" fill="none" xmlns="http://www.w3.org/2000/svg">
<path d="M24.4991 10.5464C24.4591 10.5464 24.4324 10.5464 24.3924 10.5464H24.3258C21.8058 10.4664 19.9258 8.51969 19.9258 6.11969C19.9258 3.66636 21.9258 1.67969 24.3658 1.67969C26.8058 1.67969 28.8058 3.67969 28.8058 6.11969C28.7925 8.53302 26.9124 10.4797 24.5124 10.5597C24.5124 10.5464 24.5124 10.5464 24.4991 10.5464ZM24.3658 3.66636C23.0191 3.66636 21.9258 4.7597 21.9258 6.10636C21.9258 7.42636 22.9525 8.49303 24.2725 8.54637C24.2858 8.53303 24.3924 8.53303 24.5124 8.54637C25.8058 8.4797 26.8058 7.41303 26.8191 6.10636C26.8191 4.7597 25.7258 3.66636 24.3658 3.66636Z" fill="#FF6961"/>
<path d="M24.514 20.3742C23.994 20.3742 23.474 20.3342 22.954 20.2408C22.4073 20.1475 22.0473 19.6275 22.1407 19.0808C22.234 18.5342 22.754 18.1742 23.3007 18.2675C24.9407 18.5475 26.674 18.2409 27.834 17.4675C28.4607 17.0542 28.794 16.5342 28.794 16.0142C28.794 15.4942 28.4473 14.9875 27.834 14.5742C26.674 13.8008 24.914 13.4942 23.2607 13.7875C22.714 13.8942 22.194 13.5208 22.1007 12.9742C22.0073 12.4275 22.3673 11.9075 22.914 11.8142C25.0873 11.4275 27.3407 11.8408 28.9407 12.9075C30.114 13.6942 30.794 14.8142 30.794 16.0142C30.794 17.2008 30.1273 18.3342 28.9407 19.1342C27.7273 19.9342 26.154 20.3742 24.514 20.3742Z" fill="#FF6961"/>
<path d="M8.46063 10.546C8.44729 10.546 8.43396 10.546 8.43396 10.546C6.03396 10.466 4.15396 8.51934 4.14062 6.11934C4.14062 3.66601 6.14063 1.66602 8.58063 1.66602C11.0206 1.66602 13.0206 3.66602 13.0206 6.10602C13.0206 8.51935 11.1406 10.466 8.74063 10.546L8.46063 9.54602L8.55396 10.546C8.52729 10.546 8.48729 10.546 8.46063 10.546ZM8.59396 8.54602C8.67396 8.54602 8.74063 8.54601 8.82063 8.55935C10.0073 8.50601 11.0473 7.43934 11.0473 6.11934C11.0473 4.77268 9.95396 3.67934 8.60729 3.67934C7.26063 3.67934 6.16729 4.77268 6.16729 6.11934C6.16729 7.42601 7.18063 8.47935 8.47396 8.55935C8.48729 8.54601 8.54063 8.54602 8.59396 8.54602Z" fill="#FF6961"/>
<path d="M8.44797 20.3742C6.80797 20.3742 5.23463 19.9342 4.0213 19.1342C2.84797 18.3475 2.16797 17.2142 2.16797 16.0142C2.16797 14.8275 2.84797 13.6942 4.0213 12.9075C5.6213 11.8408 7.87463 11.4275 10.048 11.8142C10.5946 11.9075 10.9546 12.4275 10.8613 12.9742C10.768 13.5208 10.248 13.8942 9.7013 13.7875C8.04797 13.4942 6.3013 13.8008 5.12797 14.5742C4.5013 14.9875 4.16797 15.4942 4.16797 16.0142C4.16797 16.5342 4.51464 17.0542 5.12797 17.4675C6.28797 18.2409 8.0213 18.5475 9.6613 18.2675C10.208 18.1742 10.728 18.5475 10.8213 19.0808C10.9146 19.6275 10.5546 20.1475 10.008 20.2408C9.48797 20.3342 8.96797 20.3742 8.44797 20.3742Z" fill="#FF6961"/>
<path d="M16.4991 20.5073C16.4591 20.5073 16.4324 20.5073 16.3924 20.5073H16.3258C13.8058 20.4273 11.9258 18.4806 11.9258 16.0806C11.9258 13.6273 13.9258 11.6406 16.3658 11.6406C18.8058 11.6406 20.8058 13.6406 20.8058 16.0806C20.7924 18.494 18.9124 20.4406 16.5124 20.5206C16.5124 20.5073 16.5124 20.5073 16.4991 20.5073ZM16.3658 13.6273C15.0191 13.6273 13.9258 14.7206 13.9258 16.0673C13.9258 17.3873 14.9525 18.454 16.2725 18.5073C16.2858 18.494 16.3924 18.494 16.5124 18.5073C17.8058 18.4406 18.8058 17.374 18.8191 16.0673C18.8191 14.734 17.7258 13.6273 16.3658 13.6273Z" fill="#FF6961"/>
<path d="M16.5004 30.347C14.9004 30.347 13.3004 29.9336 12.0604 29.0936C10.887 28.307 10.207 27.187 10.207 25.987C10.207 24.8003 10.8737 23.6536 12.0604 22.867C14.5537 21.2136 18.4604 21.2136 20.9404 22.867C22.1137 23.6536 22.7937 24.7736 22.7937 25.9736C22.7937 27.1603 22.127 28.307 20.9404 29.0936C19.7004 29.9203 18.1004 30.347 16.5004 30.347ZM13.167 24.547C12.5404 24.9603 12.207 25.4803 12.207 26.0003C12.207 26.5203 12.5537 27.027 13.167 27.4403C14.967 28.6536 18.0204 28.6536 19.8204 27.4403C20.447 27.027 20.7804 26.507 20.7804 25.987C20.7804 25.467 20.4337 24.9603 19.8204 24.547C18.0337 23.3336 14.9804 23.347 13.167 24.547Z" fill="#FF6961"/>
</svg>
