<svg width="28" height="28" viewBox="0 0 28 28" fill="none" xmlns="http://www.w3.org/2000/svg">
<path d="M19.425 24.2087C19.4133 24.2087 19.39 24.2087 19.3783 24.2087C18.9 24.2087 18.5033 23.812 18.515 23.3221C18.515 22.8437 18.9117 22.4587 19.39 22.4587C19.4017 22.4587 19.425 22.4587 19.4367 22.4587C20.7667 22.4587 22.0383 21.9687 23.0183 21.0587C24.8267 19.472 24.955 17.2087 24.465 15.6104C23.975 14.0121 22.6217 12.2037 20.2533 11.9004C19.8683 11.8537 19.565 11.562 19.495 11.177C19.0283 8.38872 17.5233 6.46372 15.26 5.76372C12.9033 5.04038 10.185 5.75205 8.48167 7.53705C6.82501 9.27538 6.44001 11.6904 7.39667 14.3621C7.56001 14.8171 7.32667 15.3187 6.87167 15.4821C6.41667 15.6454 5.91501 15.4121 5.75167 14.9571C4.57334 11.6787 5.11001 8.54038 7.22167 6.33538C9.38001 4.08372 12.81 3.18538 15.785 4.10705C18.5033 4.94705 20.4283 7.18705 21.1167 10.2904C23.4967 10.827 25.3983 12.6237 26.1567 15.1087C26.985 17.8154 26.2267 20.5921 24.2083 22.3654C22.8783 23.5554 21.1867 24.2087 19.425 24.2087Z" fill="#002454"/>
<path d="M3.50228 22.7505C2.83947 22.4588 3.60093 22.799 3.50228 22.7505C1.55188 21.7911 1.55176 19.9392 1.55176 18.9938C1.55176 16.6488 3.08009 14.0238 6.44009 13.7788C7.30342 13.7671 8.15509 13.9655 8.90176 14.3388C9.33342 14.5605 9.49676 15.0855 9.28676 15.5171C9.06509 15.9488 8.54009 16.1121 8.10842 15.9021C7.61842 15.6455 7.05842 15.5405 6.52176 15.5288C4.31676 15.6921 3.31342 17.3838 3.31342 18.9938C3.31342 19.8338 3.31342 20.8874 4.24676 21.2921C4.66626 21.5838 4.70395 21.6888 4.66895 22.1672C4.62228 22.6338 4.00613 23.0422 3.50228 22.7505Z" fill="#002454"/>
<path d="M18.4567 12.4129C18.1417 12.4129 17.8267 12.2379 17.675 11.9229C17.4533 11.4912 17.6283 10.9662 18.0717 10.7445C18.7833 10.3829 19.5883 10.1845 20.3817 10.1729C20.825 10.1962 21.2683 10.5462 21.2683 11.0362C21.28 11.5145 20.895 11.9229 20.405 11.9229C19.8683 11.9345 19.3317 12.0629 18.8417 12.3079C18.725 12.3895 18.585 12.4129 18.4567 12.4129Z" fill="#002454"/>
<path d="M15.1318 25.3753C14.9102 25.3753 14.6885 25.2937 14.5135 25.1187C14.1752 24.7803 14.1752 24.2203 14.5135 23.882L16.8468 21.5487C17.1852 21.2103 17.7452 21.2103 18.0835 21.5487C18.4218 21.887 18.4218 22.447 18.0835 22.7853L15.7502 25.1187C15.5868 25.2937 15.3652 25.3753 15.1318 25.3753Z" fill="#002454"/>
<path d="M13.9649 21.8753C13.7432 21.8753 13.5215 21.7937 13.3465 21.6187C13.0082 21.2803 13.0082 20.7203 13.3465 20.382L15.6799 18.0487C16.0182 17.7103 16.5782 17.7103 16.9165 18.0487C17.2549 18.387 17.2549 18.947 16.9165 19.2853L14.5832 21.6187C14.4199 21.7937 14.1982 21.8753 13.9649 21.8753Z" fill="#002454"/>
<path d="M9.29786 21.8753C9.0762 21.8753 8.85453 21.7937 8.67953 21.6187C8.3412 21.2803 8.3412 20.7203 8.67953 20.382L11.0129 18.0487C11.3512 17.7103 11.9112 17.7103 12.2495 18.0487C12.5879 18.387 12.5879 18.947 12.2495 19.2853L9.9162 21.6187C9.75286 21.7937 9.5312 21.8753 9.29786 21.8753Z" fill="#002454"/>
<path d="M12.8337 28.0003C12.1803 28.0003 11.667 27.4753 11.667 26.8337C11.667 26.192 12.192 25.667 12.8337 25.667C13.4753 25.667 14.0003 26.192 14.0003 26.8337C14.0003 27.4753 13.4753 28.0003 12.8337 28.0003Z" fill="#002454"/>
<path d="M11.6667 24.5003C11.0133 24.5003 10.5 23.9753 10.5 23.3337C10.5 22.692 11.025 22.167 11.6667 22.167C12.3083 22.167 12.8333 22.692 12.8333 23.3337C12.8333 23.9753 12.3083 24.5003 11.6667 24.5003Z" fill="#002454"/>
<path d="M6.99967 24.5003C6.34634 24.5003 5.83301 23.9753 5.83301 23.3337C5.83301 22.692 6.35801 22.167 6.99967 22.167C7.64134 22.167 8.16634 22.692 8.16634 23.3337C8.16634 23.9753 7.64134 24.5003 6.99967 24.5003Z" fill="#002454"/>
</svg>
