<svg width="28" height="28" viewBox="0 0 28 28" fill="none" xmlns="http://www.w3.org/2000/svg">
<path d="M21.583 26.5417C18.853 26.5417 16.6247 24.3133 16.6247 21.5833V21C16.6247 20.5217 17.0213 20.125 17.4997 20.125C17.978 20.125 18.3747 20.5217 18.3747 21V21.5833C18.3747 23.3567 19.8097 24.7917 21.583 24.7917C23.3563 24.7917 24.7913 23.3567 24.7913 21.5833C24.7913 19.81 23.3563 18.375 21.583 18.375H2.33301C1.85467 18.375 1.45801 17.9783 1.45801 17.5C1.45801 17.0217 1.85467 16.625 2.33301 16.625H21.583C24.313 16.625 26.5413 18.8533 26.5413 21.5833C26.5413 24.3133 24.313 26.5417 21.583 26.5417Z" fill="#002454"/>
<path d="M21.583 14.8747H2.33301C1.85467 14.8747 1.45801 14.478 1.45801 13.9997C1.45801 13.5213 1.85467 13.1247 2.33301 13.1247H21.583C23.3563 13.1247 24.7913 11.6897 24.7913 9.91634C24.7913 8.14301 23.3563 6.70801 21.583 6.70801C19.8097 6.70801 18.3747 8.14301 18.3747 9.91634V10.4997C18.3747 10.978 17.978 11.3747 17.4997 11.3747C17.0213 11.3747 16.6247 10.978 16.6247 10.4997V9.91634C16.6247 7.18634 18.853 4.95801 21.583 4.95801C24.313 4.95801 26.5413 7.18634 26.5413 9.91634C26.5413 12.6463 24.313 14.8747 21.583 14.8747Z" fill="#002454"/>
<path d="M10.8613 11.3753H2.33301C1.85467 11.3753 1.45801 10.9786 1.45801 10.5003C1.45801 10.022 1.85467 9.6253 2.33301 9.6253H10.8613C12.1097 9.6253 13.1247 8.6103 13.1247 7.36197C13.1247 6.11363 12.1097 5.09863 10.8613 5.09863C9.613 5.09863 8.598 6.11363 8.598 7.36197V7.8053C8.598 8.28363 8.20134 8.6803 7.723 8.6803C7.24467 8.6803 6.848 8.28363 6.848 7.8053V7.36197C6.848 5.1453 8.64467 3.34863 10.8613 3.34863C13.078 3.34863 14.8747 5.1453 14.8747 7.36197C14.8747 9.57863 13.078 11.3753 10.8613 11.3753Z" fill="#002454"/>
</svg>
