<svg width="209" height="218" viewBox="0 0 209 218" fill="none" xmlns="http://www.w3.org/2000/svg">
<path fill-rule="evenodd" clip-rule="evenodd" d="M107.246 44.8451C126.222 44.004 145.712 47.2777 161.087 57.2337C176.465 67.1919 186.974 82.4964 190.98 99.0665C194.749 114.655 187.591 129.855 182.327 145.095C176.968 160.61 174.543 178.35 160.16 188.298C145.629 198.347 125.581 198.255 107.246 197.022C90.0428 195.865 74.3345 189.881 59.8293 181.549C44.5102 172.751 29.2428 162.952 21.9783 148.047C14.2862 132.266 12.3887 113.926 18.9877 97.7552C25.4721 81.8652 41.4234 71.2726 57.1576 61.8401C72.3556 52.7291 88.9573 45.6557 107.246 44.8451Z" fill="#FFC3C0"/>
<g clip-path="url(#clip0_18572_58655)">
<path d="M130.423 39.9573C129.065 37.5355 127.307 35.3805 124.734 33.9453C123.153 33.0627 121.462 32.4903 119.524 32.6217C116.914 32.806 114.356 33.1988 111.859 34.0785C107.394 35.6538 102.909 37.1997 98.4299 38.7619C98.0602 38.8908 97.6793 38.9873 97.2249 39.1277C97.0179 37.6569 96.2385 36.6671 95.1169 35.9419C94.3635 35.4513 93.5361 35.0319 92.6842 34.7118C90.8581 34.0325 88.9221 33.7456 86.9296 33.7779C77.2565 33.9202 68.443 36.8667 60.4176 42.2432C58.5534 43.4923 56.8794 44.9474 55.4654 46.6386C54.1612 48.1917 52.5007 50.4498 52.4722 52.5473C51.777 52.7898 40.3666 56.6964 34.9372 58.7896C31.6033 60.0702 29.1175 62.2259 27.6915 65.3826C26.1965 68.6813 25.9512 72.0253 26.8185 75.3896C28.5449 82.0667 30.811 88.5646 33.1827 95.0258C35.3452 100.915 37.6106 106.76 39.7819 112.647C45.351 127.795 50.8909 142.945 56.4337 158.102C59.441 166.33 62.4367 174.552 65.4088 182.791C66.4402 185.635 68.0601 188.129 70.2392 190.274C73.31 193.305 77.0397 194.292 81.5107 192.705C82.4876 192.365 83.4704 192.013 84.45 191.68C92.0611 189.135 99.6806 186.614 107.286 184.052C122.3 178.989 137.306 173.901 152.315 168.821C155.706 167.675 159.079 166.507 162.453 165.313C164.858 164.455 166.755 162.959 167.938 160.804C170.143 156.767 170.14 152.711 168.554 148.672C168.049 147.396 167.466 146.147 167.023 144.849C163.193 133.669 159.507 122.447 155.553 111.31C150.776 97.8639 146.399 84.2962 142.099 70.6928C139.529 62.5583 136.765 54.4913 133.573 46.5828C132.654 44.3165 131.63 42.0869 130.432 39.9542L130.423 39.9573ZM57.6983 53.4658C57.4401 52.8388 57.044 52.269 56.8386 51.6236C56.7402 51.3131 56.8625 50.8711 57.0214 50.5343C57.9127 48.5897 59.2735 46.9443 60.9098 45.466C63.1545 43.4398 65.7495 41.9085 68.4824 40.5743C72.9783 38.3801 77.6948 37.0166 82.6785 36.7308C84.8269 36.6078 86.973 36.6763 88.9769 37.3842C89.7214 37.651 90.4649 37.9998 91.0874 38.4544C91.9096 39.0572 92.4963 39.8055 92.5967 40.9142C92.6758 41.8486 93.0679 42.7466 93.3635 43.651C94.4336 46.9174 95.5124 50.1807 96.5825 53.4471C96.6304 53.5847 96.6344 53.7376 96.681 53.9846C84.9967 57.8415 73.3505 61.6943 61.587 65.5789C61.4757 65.1185 61.3504 64.6176 61.2223 64.1086C60.3351 60.4608 59.1047 56.9326 57.7042 53.4547L57.6983 53.4658ZM57.2087 66.7518C57.8658 67.9567 58.5596 68.3047 59.9717 67.9665C61.703 67.5533 63.4407 67.1016 65.1385 66.564C70.76 64.7669 76.3758 62.9537 81.9863 61.0969C87.4736 59.2831 92.944 57.4207 98.4116 55.5503C99.142 55.2956 99.8421 54.8971 100.513 54.4998C100.913 54.2604 101.087 53.9094 100.927 53.3934C100.78 52.9453 100.883 52.4193 100.874 51.9687C106.784 50.2071 112.621 48.4619 118.531 46.7003C118.583 46.7913 118.701 46.9043 118.726 47.0318C119.739 51.6069 121.477 55.9384 123.056 60.3252C126.378 69.568 129.782 78.7914 133.007 88.068C139.968 108.113 146.832 128.192 153.729 148.251C154.347 150.023 154.892 151.812 155.466 153.599C155.55 153.842 155.574 154.106 155.623 154.334C154.458 155.04 102.906 173.926 100.797 174.416C100.082 172.623 99.3528 170.899 98.7052 169.155C97.8174 166.751 97.0088 164.319 96.121 161.915C95.7507 160.91 95.3187 159.926 94.8484 158.974C94.23 157.71 93.5496 157.457 92.0777 157.907C90.2131 158.475 88.3508 159.079 86.4862 159.648C82.9416 160.721 79.4002 161.774 75.8528 162.839C75.5831 162.915 75.3022 162.958 74.9068 163.042C74.7393 162.646 74.5599 162.273 74.4184 161.896C71.9441 155.226 69.4638 148.566 66.9983 141.893C66.0739 139.383 65.1818 136.854 64.2573 134.344C60.9279 125.222 57.6337 116.087 54.2515 106.983C50.5385 96.9875 46.7523 87.0079 42.9776 77.0334C42.3438 75.3575 41.578 73.7276 40.8622 72.0713C40.7599 71.8346 40.6636 71.5869 40.5673 71.3391C41.0419 70.747 41.7267 70.6443 42.3367 70.4406C45.9647 69.239 49.6099 68.0585 53.2406 66.8649C54.3375 66.5005 55.4231 66.1038 56.6464 65.6772C56.8234 66.0148 57.0176 66.3737 57.2118 66.7325L57.2087 66.7518ZM95.3569 174.244C95.289 174.304 95.2123 174.367 95.1443 174.427C88.5883 171.195 82.0411 167.96 75.485 164.728C75.4976 164.651 75.5074 164.566 75.5201 164.489C80.306 163.183 85.0831 161.88 90.0214 160.53C91.5998 165.225 93.9479 169.553 95.3569 174.244ZM127.373 43.3263C131.955 54.4535 135.054 64.0192 138.965 74.5543C142.632 84.4482 145.99 94.8677 149.516 104.811C151.818 111.296 153.846 117.877 156.095 124.381C158.523 131.431 161.067 138.44 163.557 145.468C164.048 146.876 164.521 148.29 165.03 149.692C165.394 150.736 166.057 152.465 166.068 153.687C166.084 156.449 165.475 158.468 164.237 161.06C163.616 162.365 162.584 163.17 161.127 163.633C157.951 164.632 154.801 165.703 151.657 166.763C132.09 173.405 112.548 179.866 92.9865 186.552C88.8946 187.952 84.771 189.317 80.7021 190.755C80.1476 190.948 78.9981 191.076 78.4178 190.997C76.9744 190.793 76.3432 190.341 75.1635 189.591C72.4999 187.897 71.1484 186.145 69.5973 182.093C68.0461 178.041 66.5777 173.915 65.0796 169.818C60.3171 156.784 55.5518 143.743 50.7893 130.709C46.7813 119.754 42.7057 108.832 38.7857 97.8459C36.6901 91.9783 34.4624 86.1567 32.138 80.3689C30.8934 77.2813 30.2237 74.0024 30.0311 70.6478C29.9424 69.0632 30.2625 67.4903 30.8304 65.9489C31.5197 64.0476 32.8416 62.7152 34.8259 61.9234C37.3737 60.9078 39.8647 59.7577 42.4439 58.8038C45.6071 57.628 52.4691 55.4256 53.094 55.2077C54.1436 58.4722 54.9 60.8677 55.9327 64.0836C55.73 64.1815 55.5737 64.2996 55.3861 64.3559C50.5098 65.884 45.6191 67.399 40.7485 68.9433C39.8864 69.2167 39.0691 69.6469 38.218 69.9801C37.6368 70.21 37.3424 70.6394 37.3388 71.1671C37.3408 71.9651 37.3188 72.8078 37.5492 73.5534C38.9026 77.7738 40.2764 81.9962 41.7442 86.1768C43.9849 92.6019 46.296 99.0025 48.5983 105.406C52.816 117.132 57.0628 128.857 61.2893 140.58C64.1143 148.426 66.9718 156.252 69.7176 164.125C70.1409 165.339 70.7745 166.08 71.9561 166.667C79.0631 170.233 86.1166 173.872 93.1996 177.483C94.532 178.162 95.9151 178.279 97.4602 177.813C101.398 176.621 105.301 175.332 109.151 173.862C115.913 171.287 122.728 168.865 129.532 166.383C138.595 163.077 147.661 159.779 156.73 156.489C157.511 156.208 158.334 156.021 159.068 155.665C160.123 155.152 160.236 154.795 159.886 153.791C154.462 137.984 149.006 122.197 143.626 106.375C138.63 91.68 133.713 76.9577 128.758 62.2396C127.148 57.4549 125.592 52.6518 123.932 47.8937C123.534 46.7527 122.796 45.7395 122.246 44.6426C121.795 43.7468 120.984 43.6575 120.073 43.8754C118.942 44.1427 117.808 44.4292 116.711 44.821C111.533 46.6448 106.378 48.5061 101.212 50.3623C101.062 50.4145 100.904 50.4424 100.605 50.5194C99.6346 47.2546 98.6724 44.0142 97.6847 40.7009C98.2215 40.5137 98.6383 40.3502 99.0575 40.2221C104.871 38.4943 110.704 36.7957 116.504 35.0274C118.102 34.5428 119.529 34.6168 120.872 35.3828C124.112 37.2298 125.96 39.9253 127.365 43.3293L127.373 43.3263Z" fill="#002454"/>
<path d="M74.6387 91.9965C74.8976 92.5688 75.3772 92.7555 76.0426 92.5689C76.5175 92.4305 77.0068 92.3052 77.4704 92.1345C79.3481 91.4615 81.2201 90.7724 83.0977 90.0994C83.3969 89.9951 83.7014 89.9342 84.1468 89.8243C84.4826 90.7873 84.7518 91.7008 85.1179 92.5807C85.6398 93.8508 86.1794 95.1149 86.8101 96.329C87.2497 97.165 87.917 97.2953 88.8712 96.8899C91.129 95.9483 93.6384 95.4453 95.8764 94.4469C98.4079 93.3281 98.5709 92.6632 97.3046 89.683C96.893 88.7011 96.3671 87.7591 95.9291 86.7863C95.7955 86.488 95.7499 86.1591 95.6606 85.8181C97.3767 85.2196 98.9896 84.6934 100.577 84.0944C101.546 83.7294 102.506 83.3129 103.4 82.8196C104.459 82.2325 104.517 82.0308 104.129 81.0315C103.22 78.6801 102.284 76.3378 101.349 73.9956C101.267 73.7883 101.12 73.5943 100.994 73.4023C100.406 72.5365 100.234 72.4692 99.2016 72.8475C97.4412 73.4887 95.7009 74.1592 93.9405 74.8003C93.1365 75.0989 92.3124 75.3681 91.4323 75.675C91.2676 75.2877 91.1224 74.9844 91.0035 74.6719C90.4167 73.2156 89.8738 71.7439 89.237 70.3141C88.7652 69.2443 88.0591 68.946 86.865 69.3714C84.0134 70.3932 81.1871 71.4877 78.3379 72.5449C77.7539 72.7667 77.6028 73.1825 77.7545 73.6741C77.9006 74.1496 78.1171 74.6005 78.3131 75.0495C79.0208 76.6543 79.7461 78.2529 80.5222 79.9971C79.9235 80.2332 79.5123 80.4129 79.0899 80.5602C76.9338 81.3121 74.7777 82.064 72.6072 82.8028C71.6215 83.1466 71.4994 83.3344 71.7043 84.2613C71.7541 84.489 71.8274 84.6994 71.9036 84.9179C72.3605 86.2562 72.7821 87.6067 73.2917 88.9266C73.6822 89.9612 74.1694 90.9621 74.6187 91.9672L74.6387 91.9965Z" fill="#002454"/>
<path d="M134.633 127.809C119.571 132.962 104.514 138.131 89.4659 143.351C86.0953 144.527 82.7981 145.913 79.4611 147.213C78.7743 147.479 78.0844 147.765 77.6511 148.561C78.3792 148.979 79.0329 148.787 79.6514 148.608C82.8792 147.645 86.1323 146.756 89.309 145.675C103.432 140.859 117.536 135.986 131.654 131.126C132.948 130.675 134.25 130.22 135.504 129.683C136.141 129.416 136.771 129.042 137.276 128.593C137.795 128.131 137.613 127.55 136.924 127.527C136.164 127.501 135.343 127.579 134.618 127.823L134.633 127.809Z" fill="#002454"/>
<path d="M127.991 109.893C127.232 110.095 126.495 110.388 125.747 110.649C111.441 115.592 97.1353 120.509 82.8405 125.485C79.5844 126.62 76.3818 127.91 73.1624 129.15C72.5284 129.399 71.8247 129.617 71.2735 130.499C71.7788 130.504 72.0936 130.558 72.3893 130.5C73.0832 130.367 73.7687 130.21 74.446 130.001C77.8617 128.955 81.2971 127.965 84.6906 126.827C97.3493 122.594 109.985 118.324 122.63 114.05C124.483 113.422 126.328 112.797 128.159 112.104C128.884 111.833 129.573 111.429 130.209 110.99C130.448 110.825 130.658 110.325 130.57 110.101C130.48 109.87 130.012 109.661 129.697 109.662C129.13 109.65 128.542 109.747 127.994 109.902L127.991 109.893Z" fill="#002454"/>
<path d="M131.227 118.342C130.708 118.469 130.211 118.714 129.704 118.9C113.628 124.797 97.54 130.689 81.4696 136.602C79.6768 137.264 77.9122 138.006 76.1593 138.753C75.6189 138.987 74.9913 139.197 74.6497 140.142C75.3749 140.071 75.9006 140.078 76.3988 139.95C77.3218 139.71 78.2339 139.41 79.1315 139.097C85.415 136.905 91.7039 134.757 97.9676 132.509C109.195 128.476 120.406 124.394 131.615 120.303C132.263 120.068 132.881 119.689 133.455 119.298C133.67 119.151 133.866 118.72 133.801 118.506C133.73 118.304 133.327 118.082 133.061 118.084C132.454 118.096 131.827 118.196 131.235 118.339L131.227 118.342Z" fill="#002454"/>
<path d="M67.0517 120.79C67.7748 121.137 68.4499 120.865 69.1012 120.638C73.5011 119.131 77.8985 117.588 82.3012 116.089C88.7512 113.894 95.2125 111.732 101.668 109.553C101.941 109.458 102.223 109.36 102.49 109.248C103.532 108.785 104.131 108.122 103.943 107.67C103.768 107.223 102.875 107.099 101.785 107.397C101.307 107.528 100.843 107.726 100.388 107.921C99.6984 108.207 99.0254 108.541 98.3242 108.795C91.2093 111.376 83.9952 113.474 76.8831 116.064C74.037 117.102 71.0258 118.034 68.1882 119.096C67.6219 119.312 66.7949 120.054 67.0489 120.782L67.0517 120.79Z" fill="#002454"/>
<path d="M110.105 105.215C110.964 105.696 111.626 105.556 112.245 105.376C116.354 104.197 120.464 103.018 124.556 101.791C125.128 101.618 125.679 101.245 126.148 100.863C126.378 100.674 126.553 100.241 126.498 99.9699C126.462 99.7827 126.009 99.5594 125.735 99.5644C125.127 99.5767 124.484 99.6286 123.909 99.82C120.204 101.057 116.511 102.327 112.821 103.605C112.276 103.795 111.738 104.037 111.238 104.33C110.867 104.54 110.554 104.859 110.099 105.226L110.105 105.215Z" fill="#002454"/>
</g>
<path d="M188.565 68.1365C189.325 68.3168 189.606 68.6957 189.721 69.432C189.97 71.087 190.287 72.7298 190.58 74.3914C190.732 75.1781 190.958 75.324 191.695 75.0515C192.64 74.7425 193.36 74.1304 193.812 73.2087C194.232 72.3497 194.67 71.5159 195.071 70.6316C195.275 70.1675 195.54 70.0495 196.011 70.2094C197.649 70.6776 199.326 71.0392 200.926 71.6141C202.356 72.1189 203.378 71.5965 204.289 70.6082C204.902 69.9578 204.911 69.5994 204.311 68.9484C202.693 67.1348 201.068 65.3651 199.424 63.5702C198.806 62.8939 198.781 62.9127 199.188 61.9844C199.818 60.6173 200.405 59.2436 200.928 57.8382C201.12 57.3048 200.989 57.128 200.479 57.2321C200.013 57.3426 199.566 57.4784 199.112 57.6582C198.179 58.0365 197.24 58.4587 196.282 58.8557C195.393 59.2405 195.375 59.2153 194.731 58.5577C194.437 58.2668 194.168 57.9572 193.874 57.6663C192.687 56.4336 191.499 55.2008 190.33 53.9933C189.649 53.2853 189.316 53.2582 188.451 53.7815C188.281 53.8686 188.104 53.9996 187.928 54.1307C187.22 54.6548 186.972 55.2696 187.199 56.1574C187.581 57.6748 187.798 59.2354 188.11 60.765C188.403 62.2694 188.385 62.2441 186.967 62.8648C185.788 63.3863 184.534 63.8068 183.512 64.4864C183.127 64.8112 182.798 65.0545 182.57 65.3802C182.057 66.1129 182.187 66.4469 183.009 66.659C184.842 67.1787 186.7 67.6796 188.565 68.1365ZM197.075 60.9288C197.04 60.5639 197.385 60.6601 197.58 60.5544C197.585 60.8247 197.59 61.0951 197.294 61.1186C197.225 61.1308 197.106 61.0232 197.075 60.9288ZM192.24 65.4913C192.142 64.9375 192.013 64.4463 191.915 63.8925C191.738 62.9672 191.738 62.9672 192.62 62.6264C193.005 62.4588 193.237 62.5607 193.506 62.8703C193.868 63.3062 194.299 63.7299 194.687 64.147C194.687 64.147 194.687 64.147 194.661 64.1658C194.699 64.2163 194.736 64.2668 194.774 64.3173C195.33 64.9618 195.281 65.7411 194.674 66.3476C194.516 66.5039 194.384 66.4843 194.208 66.4581C193.712 66.317 193.217 66.1759 192.739 66.06C192.463 65.9516 192.307 65.7935 192.24 65.4913ZM188.209 64.4877C188.372 64.4447 188.581 64.2509 188.724 64.4969C188.78 64.5727 188.786 64.6859 188.685 64.7608C188.483 64.9106 188.327 64.7525 188.169 64.7516C188.12 64.6319 188.089 64.5374 188.209 64.4877Z" fill="#002454"/>
<path d="M165.438 31.7082C166.003 31.8372 166.304 32.0841 166.439 32.6884C166.777 34.0421 167.184 35.3837 167.566 36.7439C167.788 37.5185 168.127 37.6588 168.852 37.3171C169.602 36.9566 170.259 36.4699 170.522 35.61C170.688 35.0954 170.898 34.5873 171.109 34.0792C171.389 33.4017 171.414 33.383 172.149 33.582C173.894 34.0886 175.646 34.5512 177.365 35.0765C178.288 35.3709 179.037 35.1676 179.751 34.5995C180.97 33.657 180.998 33.1667 179.904 32.0602C179.885 32.035 179.866 32.0097 179.822 32.0032C178.096 30.3084 176.377 28.5696 174.651 26.8748C174.239 26.4764 174.178 26.1302 174.388 25.6221C174.764 24.7566 175.058 23.834 175.416 22.9432C175.677 22.2404 175.471 21.9626 174.716 22.0527C174.421 22.0762 174.112 22.1876 173.829 22.2803C173.117 22.5341 172.386 22.7626 171.712 23.0669C171.207 23.2841 170.906 23.1944 170.556 22.8277C169.03 21.2975 167.498 19.8113 165.922 18.3186C165.097 17.5217 164.607 17.4938 163.691 18.2117C162.883 18.8107 162.786 19.156 163.045 20.1383C163.513 21.826 163.963 23.4884 164.431 25.1761C164.616 25.9002 164.616 25.9002 163.897 26.198C163.154 26.5144 162.391 26.8056 161.604 27.1156C160.885 27.4133 160.11 27.6353 159.498 28.1285C159.314 28.3036 159.138 28.4346 158.954 28.6096C158.872 28.7098 158.764 28.8286 158.682 28.9287C158.245 29.6053 158.344 29.8448 159.122 30.0504C161.282 30.641 163.335 31.1933 165.438 31.7082ZM172.759 30.2342C173.174 30.1611 173.298 30.5391 173.466 30.7664C173.434 30.8291 173.428 30.8731 173.428 30.8731C173.107 30.9153 172.742 30.9509 172.6 30.5477C172.544 30.4719 172.62 30.2586 172.759 30.2342ZM168.691 29.023C168.537 28.5505 168.364 28.0528 168.234 27.5617C168.167 27.2595 167.898 26.9499 168.365 26.6822C168.926 26.3835 169.266 26.3666 169.635 26.7585C170.066 27.1822 170.491 27.6499 170.86 28.0418C171.135 28.3074 171.19 28.5403 171.082 28.8164C171.018 28.9418 170.999 29.0737 170.935 29.1991C170.707 29.5247 170.816 30.1478 170.188 30.1443C169.364 30.0893 168.939 29.7788 168.691 29.023ZM164.912 27.9893C165.252 27.9724 165.256 28.2428 165.268 28.4692C165.279 28.6956 165.097 28.7134 164.902 28.662C164.645 28.5789 164.374 28.5836 164.143 28.3245C164.402 28.0933 164.642 27.9941 164.912 27.9893Z" fill="#002454"/>
<path d="M170.677 78.4224C170.469 78.459 170.28 78.5208 170.11 78.6079C169.58 78.8438 169.013 79.0292 168.521 79.3157C167.859 79.6892 167.382 79.5733 166.806 79.0608C165.562 77.9094 164.216 76.833 162.895 75.7378C162.213 75.1869 161.905 75.1412 161.142 75.5896C160.896 75.7328 160.694 75.8825 160.485 76.0763C159.904 76.664 159.846 76.9026 160.199 77.6968C160.696 78.8943 161.192 80.0917 161.688 81.2891C161.986 82.0076 161.961 82.0263 161.286 82.3306C160.511 82.7097 159.692 82.9252 158.909 83.5055C158.783 83.5991 158.606 83.7301 158.442 83.9304C158.176 84.2056 157.885 84.4994 158.027 84.9026C158.132 85.2553 158.522 85.2009 158.83 85.2467C160.243 85.569 161.637 85.8661 163.031 86.1632C163.534 86.2604 163.79 86.5007 163.945 86.9732C164.26 87.8741 164.645 88.7628 165.011 89.6262C165.328 90.3699 165.541 90.4466 166.26 90.1488C167.142 89.808 167.749 89.2015 168.062 88.3042C168.388 87.3189 168.268 87.3685 169.355 87.6199C170.114 87.8002 170.881 87.9366 171.653 88.1861C172.557 88.4553 173.269 88.2015 173.938 87.6269C175.012 86.7527 175.021 86.2372 174.033 85.3262C172.963 84.3582 171.912 83.4154 170.817 82.4661C170.379 82.0864 170.293 81.7589 170.485 81.2256C170.74 80.5668 170.826 79.838 171.338 79.2624C171.503 79.0621 171.593 78.7608 171.406 78.5083C171.173 78.4064 170.928 78.3924 170.677 78.4224ZM167.147 84.3253C167.059 84.4695 166.908 84.4246 166.776 84.405C166.487 84.3845 166.255 84.2826 166.118 83.9926C165.944 83.6521 165.789 83.3368 165.703 82.8522C166.28 83.2076 166.649 83.5995 167.043 83.9727C167.161 84.0802 167.236 84.1812 167.147 84.3253Z" fill="#002454"/>
<defs>
<clipPath id="clip0_18572_58655">
<rect width="140.531" height="181.48" fill="white" transform="translate(0.109375 46.2754) rotate(-19.2257)"/>
</clipPath>
</defs>
</svg>
