<svg width="205" height="181" viewBox="0 0 205 181" fill="none" xmlns="http://www.w3.org/2000/svg">
<path fill-rule="evenodd" clip-rule="evenodd" d="M104.422 39.1107C120.175 38.3735 136.356 41.243 149.12 49.9697C161.887 58.6984 170.612 72.1132 173.938 86.6374C177.067 100.302 171.125 113.624 166.754 126.983C162.305 140.582 160.292 156.132 148.351 164.851C136.287 173.66 119.643 173.579 104.422 172.498C90.1393 171.484 77.0982 166.239 65.0559 158.936C52.3379 151.224 39.6629 142.635 33.6318 129.571C27.2458 115.737 25.6706 99.6622 31.149 85.488C36.5324 71.5599 49.7753 62.2752 62.8379 54.0074C75.4553 46.0213 89.2381 39.8212 104.422 39.1107Z" fill="#FFC3C0"/>
<path d="M132.632 148.651C132.62 149.043 132.608 149.436 132.589 149.971C133.193 149.498 133.222 149.108 132.836 148.646L132.632 148.651Z" fill="#002454"/>
<path d="M91.2192 21.0639C91.6165 20.4116 92.1064 19.7962 92.3873 19.1002C93.2727 16.9109 93.4827 14.5987 93.4429 12.2763C93.4029 9.8276 93.261 7.38104 93.1598 4.93423C93.1429 4.55917 93.1213 4.18495 93.0856 3.81024C92.9161 2.09698 90.9069 0.914197 89.309 1.63303C89.1786 1.71173 89.0654 1.81591 88.9762 1.93922C88.8871 2.06252 88.8239 2.20235 88.7905 2.35019C88.5108 3.66683 88.3021 4.99862 88.0451 6.32016C87.7661 7.76006 87.4428 9.18407 87.1751 10.6319C86.5457 13.7594 86.8499 16.992 88.05 19.9286C88.2771 20.4053 88.6346 20.8074 89.0819 21.0892C89.3766 21.2944 89.7329 21.3944 90.0939 21.3732C90.4548 21.352 90.7996 21.2108 91.0729 20.9723L91.2192 21.0639Z" fill="#002454"/>
<path d="M72.4496 21.7279C73.1226 22.7109 74.0985 23.0354 75.2347 22.9812C75.965 22.9453 76.4053 22.5923 76.4957 21.8667C76.5925 21.163 76.6008 20.451 76.5205 19.7471C76.2097 17.1775 75.4678 14.6827 74.3257 12.3668C73.3199 10.3449 72.5228 8.21816 71.6209 6.14143C71.4492 5.74381 71.2501 5.35875 71.0249 4.98897C70.7229 4.51356 70.286 4.13895 69.7688 3.91198C69.2516 3.68502 68.6771 3.61576 68.117 3.71286C67.5307 3.81518 67.3622 4.03044 67.4917 4.61071C67.8655 6.30572 68.2801 7.98959 68.6395 9.68715C68.7922 10.4406 68.8978 11.2032 68.9557 11.9707C69.2088 15.0432 70.3234 17.8247 71.7416 20.5044C71.965 20.9161 72.2148 21.3192 72.4496 21.7279Z" fill="#002454"/>
<path d="M62.2831 27.16C61.109 25.9505 59.7676 24.5947 58.4507 23.213C56.6689 21.3466 54.9159 19.4563 53.136 17.5886C52.2885 16.7016 51.2538 16.1377 49.9944 16.1612C49.6114 16.1734 49.0994 16.2805 48.8869 16.536C48.7435 16.7113 48.9465 17.2806 49.1389 17.5833C50.0879 19.0792 51.0889 20.5423 52.0639 22.0218C52.5816 22.812 53.1077 23.5988 53.5859 24.4019C55.493 27.6916 58.276 30.3861 61.6313 32.1913C62.1392 32.4482 62.6973 32.5941 63.2685 32.6194C64.1174 32.6633 64.5799 32.0922 64.3839 31.2621C64.2326 30.6138 64.0012 29.9875 63.6951 29.3975C63.3311 28.6908 62.8462 28.0379 62.2831 27.16Z" fill="#002454"/>
<path d="M19.9144 51.163C19.2505 51.5741 19.1038 52.0223 19.2269 52.7573C19.514 54.406 19.7316 56.0651 19.9791 57.7339C20.0827 58.5287 19.9148 58.7383 19.1293 58.7127C18.1352 58.718 17.2585 58.3647 16.5388 57.6329C15.8691 56.9505 15.1896 56.2979 14.5297 55.5857C14.1897 55.2097 13.9013 55.1814 13.5052 55.4817C12.0986 56.4436 10.622 57.3163 9.28548 58.3672C8.08751 59.2981 6.95328 59.1252 5.77675 58.4753C4.98913 58.052 4.86805 57.7146 5.2316 56.9075C6.19402 54.6755 7.17654 52.4832 8.16884 50.261C8.54217 49.4239 8.57205 49.4337 7.89205 48.6818C6.86226 47.5837 5.87214 46.4656 4.93145 45.2975C4.58114 44.852 4.64962 44.6429 5.16624 44.5805C5.64321 44.5382 6.11039 44.5258 6.59766 44.553C7.60208 44.6173 8.62659 44.7212 9.66089 44.7952C10.6257 44.8796 10.6354 44.8497 11.0386 44.0225C11.2256 43.6536 11.3826 43.275 11.5696 42.9062C12.307 41.3614 13.0444 39.8166 13.772 38.3016C14.1948 37.4146 14.5023 37.2837 15.4877 37.5071C15.6767 37.536 15.8858 37.6044 16.095 37.6729C16.9315 37.9469 17.3617 38.4516 17.4261 39.3658C17.5438 40.926 17.8303 42.4754 18.0175 44.0252C18.2145 45.5452 18.2242 45.5153 19.7659 45.6563C21.049 45.7787 22.3712 45.7816 23.5559 46.1034C24.0242 46.2898 24.4126 46.417 24.7319 46.6539C25.4505 47.1869 25.4326 47.5449 24.7192 48.006C23.1442 49.0781 21.5394 50.1404 19.9144 51.163ZM9.56329 47.0127C9.48186 46.6552 9.18469 46.8556 8.96577 46.817C9.04667 47.0751 9.12757 47.3331 9.41549 47.262C9.48503 47.2517 9.56382 47.1121 9.56329 47.0127ZM15.5927 49.814C15.5102 49.2577 15.4777 48.7509 15.3952 48.1946C15.271 47.2608 15.271 47.2608 14.3263 47.2161C13.9086 47.1785 13.7206 47.3485 13.5635 47.7271C13.3575 48.2551 13.082 48.7934 12.8462 49.3116C12.8462 49.3116 12.8462 49.3116 12.8761 49.3214C12.8565 49.3812 12.8369 49.4409 12.8174 49.5007C12.4935 50.2878 12.7856 51.0119 13.5531 51.3956C13.7525 51.4939 13.8715 51.4336 14.0301 51.3533C14.456 51.0627 14.882 50.7722 15.2981 50.5115C15.5258 50.3214 15.6241 50.122 15.5927 49.814ZM19.1001 47.5884C18.9312 47.5993 18.6721 47.4814 18.6139 47.76C18.5846 47.8496 18.615 47.9588 18.7345 47.998C18.9735 48.0762 19.0718 47.8769 19.2207 47.8264C19.2299 47.6971 19.2294 47.5977 19.1001 47.5884Z" fill="#002454"/>
<path d="M185.523 151.99C184.908 152.371 184.771 152.787 184.886 153.468C185.152 154.997 185.354 156.536 185.583 158.084C185.679 158.821 185.524 159.015 184.795 158.992C183.873 158.996 183.06 158.669 182.393 157.99C181.772 157.357 181.141 156.752 180.529 156.091C180.214 155.743 179.947 155.717 179.579 155.995C178.275 156.887 176.905 157.697 175.666 158.671C174.555 159.534 173.503 159.374 172.412 158.771C171.681 158.379 171.569 158.066 171.906 157.317C172.799 155.247 173.71 153.214 174.63 151.153C174.977 150.377 175.004 150.386 174.374 149.689C173.419 148.67 172.5 147.633 171.628 146.55C171.303 146.137 171.367 145.943 171.846 145.885C172.288 145.846 172.721 145.834 173.173 145.86C174.105 145.919 175.055 146.016 176.014 146.084C176.909 146.163 176.918 146.135 177.292 145.368C177.465 145.026 177.611 144.674 177.784 144.332C178.468 142.9 179.152 141.467 179.827 140.062C180.219 139.239 180.504 139.118 181.418 139.325C181.593 139.352 181.787 139.415 181.981 139.479C182.757 139.733 183.156 140.201 183.216 141.049C183.325 142.496 183.591 143.933 183.764 145.37C183.947 146.78 183.956 146.752 185.386 146.883C186.576 146.996 187.802 146.999 188.901 147.298C189.335 147.47 189.695 147.588 189.991 147.808C190.658 148.302 190.641 148.634 189.979 149.062C188.519 150.056 187.03 151.041 185.523 151.99ZM175.924 148.141C175.848 147.809 175.572 147.995 175.369 147.959C175.444 148.199 175.519 148.438 175.786 148.372C175.851 148.362 175.924 148.233 175.924 148.141ZM181.515 150.739C181.439 150.223 181.409 149.753 181.332 149.237C181.217 148.371 181.217 148.371 180.341 148.329C179.953 148.295 179.779 148.452 179.633 148.803C179.442 149.293 179.187 149.792 178.968 150.273C178.968 150.273 178.968 150.273 178.996 150.282C178.978 150.337 178.96 150.393 178.941 150.448C178.641 151.178 178.912 151.85 179.624 152.206C179.809 152.297 179.919 152.241 180.066 152.166C180.461 151.897 180.856 151.627 181.242 151.386C181.453 151.209 181.544 151.024 181.515 150.739ZM184.768 148.675C184.611 148.685 184.371 148.575 184.317 148.834C184.29 148.917 184.318 149.018 184.429 149.055C184.651 149.127 184.742 148.942 184.88 148.895C184.889 148.776 184.888 148.683 184.768 148.675Z" fill="#002454"/>
<path d="M32.532 157.394C31.3878 155.513 30.2323 153.666 29.2026 151.51C29.0653 151.224 28.9623 150.983 28.8135 150.616C28.619 150.123 28.4589 149.606 28.3445 149.09C28.2529 148.574 28.2415 148.07 28.3445 147.565C28.4932 147.072 28.6648 146.624 29.0195 146.223L29.5343 145.615C29.6144 145.512 29.706 145.409 29.7975 145.317L29.9577 145.145L30.5183 144.549L31.6281 143.379C33.104 141.842 34.5456 140.317 35.93 138.78C36.6279 138.011 37.2915 137.254 37.9208 136.497C38.2068 136.13 38.5386 135.74 38.756 135.408L38.8704 135.259L38.7446 134.811C38.6302 134.422 38.4929 133.997 38.3441 133.584C38.0581 132.747 37.7263 131.898 37.3945 131.061C36.7195 129.387 35.9872 127.689 35.2207 126.152L34.9346 125.602C34.866 125.487 34.8774 125.499 34.8774 125.51C34.8774 125.51 34.8774 125.499 34.8545 125.487C34.0651 125.327 33.2642 125.166 32.4748 125.005C30.6785 124.661 28.8822 124.306 27.0974 123.962C26.1935 123.778 25.2896 123.583 24.3972 123.4L23.7107 123.251L22.7382 123.01C21.8916 122.792 21.0106 122.563 20.3928 122.127C20.244 122.012 20.0839 121.909 19.9923 121.771C19.9237 121.599 19.8665 121.427 19.8093 121.244V121.209C19.8093 121.209 19.4431 121.404 19.6033 121.29L19.569 121.244L19.5118 121.14C19.4775 121.072 19.4431 120.991 19.4088 120.911C19.3402 120.751 19.3058 120.578 19.2715 120.383C19.2143 119.994 19.283 119.546 19.3402 119.122L19.5118 117.814C19.6376 116.897 19.7635 115.979 19.8779 115.073C20.3699 111.529 20.8619 108.054 21.5026 104.556C21.7886 103.203 22.0746 101.184 22.7954 100.164C23.1616 99.6361 23.562 99.3379 24.0997 99.143C24.1341 99.143 24.1798 99.143 24.3743 99.0971C24.5803 99.0627 24.8434 99.0168 25.221 99.0971C25.3125 99.1086 25.3926 99.0971 25.4841 99.143L25.7931 99.2806C25.999 99.3953 26.2049 99.4067 26.3994 99.6017C26.777 99.9343 27.2003 100.496 27.5092 100.508L28.0012 100.691L28.2873 100.783C28.4589 100.84 28.6419 100.886 28.825 100.944C29.5572 101.139 30.3352 101.311 31.1132 101.46C32.6807 101.758 34.2825 101.964 35.8728 102.125C36.6623 102.205 37.4517 102.263 38.2297 102.297L39.3281 102.331H39.4539C39.4539 102.331 39.534 102.308 39.5455 102.263L39.6828 101.918C39.9688 101.15 40.2663 100.393 40.5523 99.6361C41.1244 98.1337 41.6735 96.6542 42.1998 95.1862C42.7147 93.7181 43.2067 92.2616 43.6071 90.8509C43.8016 90.1513 43.9732 89.4517 44.0648 88.8438L44.0991 88.6144C44.0991 88.6144 44.0991 88.5571 44.0991 88.5227C44.0991 88.4539 44.0533 88.4195 44.019 88.3736C42.4516 86.3551 41.4104 84.3709 40.3464 82.3295C39.8315 81.3087 39.351 80.2765 38.9276 79.164C38.8476 78.9576 38.6531 78.3956 38.5272 77.9483C38.4128 77.4895 38.3098 77.0193 38.3213 76.572C38.3098 76.1247 38.3899 75.6774 38.5958 75.2875C38.7903 74.9434 39.0993 74.5994 39.4883 74.3241C43.8932 71.044 46.0556 69.209 50.5177 66.2958C51.2613 65.8371 52.0394 65.4701 52.7487 65.4815C52.9089 65.4815 53.1492 65.493 53.275 65.5618C53.4009 65.6192 53.5496 65.6994 53.6983 65.8027C54.0073 65.9862 54.2933 66.2958 54.5564 66.6514C54.8196 66.9954 55.0827 67.3395 55.3459 67.6606L55.8493 68.28L56.776 69.3925C58.0117 70.8605 59.2588 72.2826 60.5059 73.636C61.1237 74.3012 61.753 74.9664 62.3594 75.5398L62.6454 75.8151C62.6454 75.8151 62.7598 75.9183 62.8285 75.9527C62.8971 75.9986 62.9772 75.9756 63.0459 75.9756L63.4005 75.9412C65.1511 75.7692 66.8673 75.5628 68.5262 75.3334C70.1852 75.104 71.7984 74.8402 73.3087 74.5076C73.6863 74.4273 74.0524 74.3356 74.4071 74.2438L74.9219 74.0947L75.2652 73.98C75.4253 73.9227 75.5855 73.8654 75.7114 73.7507C75.8715 73.6474 75.7915 73.441 75.8487 73.2919C75.9059 72.9822 75.9745 72.6726 76.0317 72.3629C76.1118 72.0188 76.1919 71.6748 76.272 71.3422C76.4436 70.677 76.6152 70.0232 76.7868 69.381C77.1415 68.0965 77.5076 66.8693 77.8852 65.665C78.2628 64.4723 78.6518 63.3254 79.0751 62.2014C79.1895 61.9262 79.3039 61.6394 79.4069 61.3642C79.5671 60.9972 79.7273 60.6187 79.9218 60.2746C80.1163 59.9306 80.3336 59.6094 80.6311 59.38C80.9286 59.1392 81.3062 59.1507 81.6837 59.0933C82.2329 59.0819 82.7706 59.0704 83.2969 59.0589C83.7317 59.0589 84.1436 59.0589 84.5669 59.0589C85.4021 59.0589 86.203 59.0589 86.9696 59.0589C88.5142 59.0818 89.9558 59.1163 91.283 59.1851C92.6101 59.2539 93.8229 59.3456 94.9213 59.4833C95.4933 59.5635 95.9396 59.6209 96.5459 59.77C97.1066 59.9076 97.6443 60.137 97.8731 60.6072C98.3308 61.3412 98.5367 61.8 98.777 62.2932C98.9944 62.7634 99.166 63.1648 99.2918 63.4974C99.5436 64.1511 99.6236 64.5067 99.5436 64.5525C99.4635 64.587 99.2346 64.3117 98.8342 63.7497C98.6397 63.463 98.3994 63.1075 98.1134 62.6946C97.8388 62.3046 97.4498 61.7312 97.1409 61.3527C96.9807 61.043 96.5803 60.9628 96.2256 60.9169C95.8938 60.871 95.3217 60.8366 94.8183 60.8137C93.7657 60.7793 92.5758 60.7907 91.2715 60.8137C89.9672 60.8481 88.5485 60.9054 87.0154 60.9857C86.2488 61.0316 85.4593 61.0774 84.6356 61.1233C84.2237 61.1463 83.8118 61.1807 83.3885 61.2036L82.7821 61.2495L82.416 61.2839C82.2787 61.3183 82.107 61.2724 81.9812 61.3756C81.8782 61.4903 81.821 61.6394 81.7524 61.7771C81.6952 61.9147 81.6379 62.0638 81.5807 62.2243C81.4892 62.4767 81.3977 62.7405 81.3061 63.0042C80.9515 64.0709 80.6311 65.1948 80.3108 66.3761C79.9904 67.5574 79.6929 68.7731 79.3955 70.0347C79.2582 70.6655 79.1209 71.2963 78.9836 71.95C78.9264 72.2712 78.8577 72.5923 78.8005 72.9134L78.7204 73.3951L78.6289 74.0144C78.5717 74.6223 78.5259 75.1958 78.1026 75.643C77.7136 76.0789 77.1758 76.3771 76.6152 76.6294C76.4779 76.6982 76.3292 76.7441 76.1805 76.8014L75.8487 76.9161L75.2308 77.1225C74.8189 77.2487 74.4071 77.3634 74.0066 77.4666C72.3705 77.8795 70.7115 78.2006 69.0068 78.4988C67.302 78.7855 65.5629 79.0493 63.7552 79.2787C63.595 79.3016 63.1145 79.359 62.7827 79.3819C62.5997 79.4049 62.4166 79.3934 62.2335 79.3819H62.0962C62.0734 79.3016 62.0162 79.336 61.9704 79.3131C61.8789 79.3131 61.7988 79.2672 61.7072 79.2443C61.364 79.1181 61.0551 78.9117 60.7576 78.6709C60.6089 78.5562 60.4601 78.4415 60.3228 78.3153L60.0254 78.0515C59.2931 77.3863 58.6295 76.7211 57.9545 76.033C56.6273 74.6682 55.323 73.246 54.0073 71.7665C53.4924 71.1701 52.9661 70.5738 52.4398 69.9659L52.3139 69.8168C52.3139 69.8168 52.2453 69.6906 52.1652 69.7365C52.0394 69.7939 51.9364 69.8741 51.822 69.943C49.5452 71.5027 45.186 74.9664 42.7147 76.939C42.6346 76.9964 42.5316 77.0767 42.5774 77.1914C42.5774 77.2487 42.6003 77.2946 42.6232 77.3405L42.749 77.6501C43.1037 78.5332 43.5614 79.4737 44.0419 80.3912C45.0258 82.2148 46.1128 84.1645 47.3599 85.6669C47.6001 85.9307 47.8633 86.1716 47.9891 86.4812C48.1951 86.7565 48.2637 87.112 48.3324 87.4446C48.401 87.7887 48.4239 88.1328 48.401 88.4883L48.3781 89.0159L48.3324 89.4058C48.2065 90.3348 48.012 91.1376 47.8061 91.9404C47.3827 93.5346 46.8908 95.06 46.3759 96.5968C45.8611 98.1222 45.3119 99.6476 44.7513 101.161C44.4767 101.918 44.2021 102.675 43.9275 103.432L43.63 104.293C43.4927 104.648 43.4355 105.072 43.241 105.371C43.0579 105.715 42.8863 105.921 42.6117 106.139C42.3257 106.357 42.0168 106.495 41.6735 106.609C40.9756 106.804 40.1976 106.85 39.4196 106.862C38.9048 106.862 38.5043 106.862 38.0581 106.85C37.1886 106.816 36.3305 106.77 35.4609 106.69C33.7447 106.54 32.0286 106.334 30.2895 106.024C29.4199 105.864 28.539 105.692 27.6351 105.451C27.4063 105.394 27.1774 105.336 26.9486 105.256L26.5139 105.118C26.3766 105.072 26.4223 105.095 26.3766 105.072C26.3537 105.072 26.3308 105.038 26.3193 105.015C26.2965 105.015 26.2965 105.072 26.285 105.095L26.2393 105.382C25.6558 108.708 25.1981 112.183 24.7405 115.681C24.6375 116.53 24.5231 117.379 24.4201 118.239C24.4201 118.273 24.3972 118.319 24.443 118.319L25.4613 118.537C26.3308 118.709 27.2003 118.881 28.0699 119.065C29.8433 119.397 31.6395 119.73 33.4358 120.074L34.8088 120.338L35.5067 120.475L35.8614 120.556L36.4563 120.693C36.9025 120.785 37.3259 120.945 37.7034 121.163C37.8293 121.358 38.0352 121.462 38.184 121.611L38.6416 122.092C38.8018 122.241 38.9162 122.436 39.0421 122.643L39.3395 123.148L39.6942 123.824C40.5866 125.602 41.3418 127.334 42.074 129.123C42.4287 130.017 42.7834 130.912 43.1152 131.852C43.2868 132.323 43.4469 132.793 43.5957 133.309L43.7101 133.699L43.7673 133.905L43.8474 134.238C43.9504 134.697 44.0076 135.156 44.0419 135.614C43.916 136.096 43.8474 136.612 43.5957 137.059L43.2753 137.759C43.138 137.988 43.0236 138.137 42.9435 138.252C42.5774 138.791 42.2227 139.204 41.8681 139.663C41.1587 140.523 40.4379 141.349 39.7171 142.14C38.2755 143.746 36.7996 145.294 35.3236 146.842L33.5731 148.7C33.6189 148.827 33.7333 149.079 33.8248 149.274C34.6486 150.994 35.7698 152.841 36.8911 154.653C37.9895 156.419 39.0764 158.174 40.1633 159.928L40.3349 160.158L40.3692 160.146L40.8155 159.906C41.193 159.688 41.5935 159.435 42.0168 159.149L44.6712 157.417L45.3576 156.992L46.1356 156.545C46.6505 156.247 47.2111 156.006 47.7489 155.754C49.9799 154.802 52.4398 154.343 54.8425 154.435C57.2451 154.527 59.5334 155.112 61.6157 155.937C61.8789 156.041 62.1306 156.155 62.3937 156.258C62.5424 156.327 62.6111 156.339 62.817 156.453L63.3662 156.763C63.7323 156.97 64.0756 157.21 64.3616 157.509C64.6476 157.795 64.9794 158.071 65.1739 158.38C66.1465 159.63 66.5355 160.915 66.8215 162.108C67.3592 164.505 67.3135 166.684 67.1991 168.805C67.1418 169.861 67.0274 170.893 66.9016 171.925L66.6956 173.439L66.5011 174.735C66.5011 174.735 66.5011 174.781 66.5126 174.804H66.524L66.7643 174.941C66.9817 175.045 67.2219 175.148 67.4965 175.228C68.6063 175.595 69.9907 175.813 71.3522 175.962C74.121 176.26 76.9813 176.283 79.8188 176.249H80.4137C80.4137 176.249 80.4366 176.214 80.4481 176.191C80.4481 176.169 80.4481 176.191 80.5053 175.997C80.8371 174.723 81.1231 173.336 81.3977 171.959C81.6608 170.572 81.924 169.195 82.1871 167.831C82.3244 167.131 82.4503 166.443 82.5876 165.755L82.805 164.7L82.9194 164.149C82.9537 163.977 83.0681 163.553 83.1482 163.266C83.4686 162.245 84.258 161.465 85.1847 160.961L85.528 160.777L85.7911 160.651C85.9628 160.571 86.1229 160.513 86.2831 160.445C86.6035 160.318 86.9124 160.215 87.2213 160.123C88.4341 159.756 89.5782 159.527 90.7109 159.321C91.8321 159.114 92.9419 158.954 94.0174 158.805L94.8069 158.69L95.1844 158.633L95.3675 158.598L95.6993 158.529C96.6947 158.208 97.6557 158.529 98.5024 159.091C99.0058 159.401 99.1774 159.55 99.4291 159.734L100.116 160.273C100.562 160.64 100.985 160.995 101.397 161.362C102.221 162.085 103.01 162.819 103.788 163.553C104.555 164.287 105.31 165.021 106.077 165.755L107.186 166.856L107.736 167.406L107.861 167.544C107.907 167.613 107.976 167.693 108.067 167.636L108.239 167.567L108.433 167.475C109.269 167.051 110.115 166.569 110.951 166.087C112.632 165.112 114.28 164.092 115.893 163.06C116.694 162.543 117.495 162.027 118.284 161.511C118.891 161.11 119.497 160.708 120.092 160.307C120.355 160.227 120.241 159.928 120.184 159.745C119.955 159.08 119.566 158.208 119.2 157.44C118.445 155.857 117.609 154.297 116.786 152.76C116.362 151.992 115.95 151.224 115.538 150.467L114.921 149.308L114.532 148.528C114.371 148.207 114.349 147.84 114.246 147.496C114.246 147.141 114.211 146.785 114.303 146.43C114.36 146.074 114.463 145.707 114.555 145.478C114.726 144.962 114.932 144.537 115.138 144.124C115.55 143.298 115.985 142.553 116.419 141.842C117.289 140.374 118.17 139.147 118.834 137.77C119.085 137.128 119.543 136.601 120.149 136.268C120.71 135.935 121.476 135.729 121.888 135.649C122.838 135.454 123.708 135.385 124.554 135.351C126.248 135.27 127.849 135.328 129.394 135.396C130.938 135.477 132.437 135.591 133.879 135.706L134.428 135.752C134.6 135.752 134.737 135.649 134.84 135.534C134.954 135.419 135.034 135.282 135.126 135.133C135.24 134.903 135.389 134.616 135.504 134.33C136.442 131.99 137.002 129.467 137.506 127.196C137.746 126.038 137.975 124.925 138.192 123.859C138.295 123.32 138.398 122.792 138.501 122.276C138.593 121.84 138.673 121.416 138.764 120.991C138.799 120.647 139.119 120.166 138.673 119.994C138.364 119.799 138.043 119.661 137.712 119.512C136.762 119.122 135.812 118.801 134.943 118.514C133.181 117.952 131.694 117.47 130.492 117.08C128.078 116.312 126.82 115.876 126.854 115.704C126.888 115.544 128.227 115.658 130.732 116.106C131.98 116.335 133.536 116.645 135.355 117.08C136.27 117.31 137.243 117.551 138.295 117.895C138.959 118.124 139.691 118.388 140.275 118.801C141.007 119.214 140.869 120.005 140.744 120.819C140.595 121.886 140.446 123.01 140.286 124.18C140.137 125.269 139.966 126.416 139.771 127.597C139.348 129.972 138.947 132.506 137.963 135.27C137.826 135.626 137.7 135.958 137.506 136.348C137.254 136.807 136.991 137.277 136.625 137.656C136.282 138.034 135.824 138.39 135.286 138.447C134.794 138.562 134.176 138.493 133.719 138.482C132.266 138.424 130.801 138.367 129.302 138.344C127.804 138.321 126.27 138.332 124.749 138.447C123.994 138.504 123.238 138.596 122.586 138.757C122.197 138.86 122.152 138.883 122.003 138.963C121.866 139.032 121.774 139.17 121.74 139.307C121.065 140.764 120.138 142.186 119.371 143.551C118.982 144.239 118.593 144.939 118.284 145.604C118.136 145.936 117.987 146.28 117.907 146.567C117.85 146.728 117.85 146.774 117.838 146.831C117.827 146.888 117.838 146.957 117.838 147.026C117.85 147.083 117.872 147.152 117.907 147.198L118.101 147.553L118.731 148.654C119.165 149.4 119.6 150.157 120.035 150.925C120.916 152.462 121.808 154.045 122.655 155.719C123.09 156.591 123.479 157.382 123.891 158.449C124.154 159.206 124.405 160.009 124.371 160.777C124.371 161.156 124.291 161.557 124.097 161.878C123.948 162.211 123.685 162.498 123.376 162.75C123.078 163.014 122.724 163.255 122.392 163.495L121.74 163.954L120.55 164.78C119.749 165.319 118.948 165.858 118.136 166.408C116.511 167.487 114.852 168.565 113.113 169.608C112.243 170.136 111.362 170.652 110.413 171.157L109.932 171.397C109.726 171.501 109.52 171.592 109.303 171.684C108.891 171.868 108.456 172.028 108.033 172.097C107.827 172.143 107.61 172.154 107.404 172.154C107.301 172.166 107.198 172.109 107.095 172.086C107.038 172.074 106.992 172.04 106.946 172.017L106.912 171.994H106.889C106.843 172.154 106.866 172.028 106.855 172.063L106.786 172.04C106.431 171.902 106.054 171.673 105.722 171.34L104.212 169.849L103.102 168.794C102.358 168.094 101.603 167.395 100.848 166.684C100.093 165.984 99.3147 165.296 98.5367 164.631C98.1477 164.298 97.7587 163.977 97.3697 163.667L96.7976 163.22C96.6146 163.082 96.3743 162.922 96.4086 162.945C96.3514 162.91 96.2828 162.887 96.2256 162.922L94.7039 163.174C93.6284 163.346 92.5872 163.507 91.5575 163.702C90.5278 163.897 89.521 164.126 88.6171 164.413C88.3997 164.482 88.1824 164.562 87.9879 164.642C87.8963 164.677 87.7934 164.723 87.7133 164.757L87.5989 164.814H87.576C87.576 164.814 87.4844 164.895 87.4844 164.94L87.1641 166.535C87.0382 167.211 86.9124 167.899 86.798 168.576C86.5463 169.964 86.2945 171.363 86.0428 172.762C85.7682 174.184 85.4937 175.595 85.1161 177.098C84.9788 177.591 84.7957 178.313 84.5211 178.933C84.258 179.563 83.9033 180.079 83.3885 180.458C82.9194 180.779 82.2901 180.951 81.5579 180.917L79.9103 180.963C76.9699 181.031 73.9608 181.031 70.8488 180.733C69.2814 180.573 67.7025 180.355 65.9748 179.816C65.5401 179.678 65.0939 179.506 64.6248 179.288C64.3731 179.15 64.19 179.082 63.8811 178.875C63.5836 178.669 63.2632 178.474 63.0115 178.21C62.4624 177.717 62.039 177.109 61.7759 176.444C61.5127 175.756 61.5242 175.022 61.5585 174.288L61.7988 172.659L61.9818 171.237C62.0848 170.296 62.1878 169.356 62.2335 168.427C62.3365 166.581 62.3136 164.711 61.9475 163.174C61.7644 162.429 61.5127 161.729 61.2038 161.397C61.1466 161.27 61.0551 161.247 60.9864 161.167C60.9292 161.075 60.8491 161.041 60.769 161.007C60.7347 160.984 60.7004 160.961 60.6661 160.938C60.6432 160.915 60.483 160.857 60.3915 160.812C60.1855 160.731 59.9682 160.628 59.7622 160.548C58.0803 159.883 56.3527 159.47 54.6594 159.412C52.9661 159.355 51.2957 159.676 49.7168 160.341C48.2065 160.995 46.5475 162.153 44.7741 163.323C44.3279 163.622 43.8474 163.92 43.3211 164.229L42.8863 164.47C42.7147 164.551 42.6346 164.608 42.3715 164.723C41.9253 164.918 41.4447 165.09 40.9299 165.181C39.923 165.365 38.859 165.216 37.9666 164.688C37.5089 164.447 37.1199 164.103 36.7538 163.736C36.4449 163.404 36.1589 163.037 35.9415 162.738C34.8088 160.915 33.6647 159.091 32.5205 157.245L32.532 157.394Z" fill="#002454"/>
<path d="M86.5806 97.2965C86.4318 97.3882 86.2945 97.4914 86.1458 97.5947C86.0886 97.5144 86.0543 97.457 86.0543 97.3997C86.0543 97.3882 86.0657 97.3653 86.0657 97.3538C86.1 97.2735 86.2717 97.2506 86.5806 97.2965Z" fill="#002454"/>
<path d="M87.7819 98.9136C87.5073 98.7071 87.2556 98.5351 87.0382 98.3745C87.1641 98.3287 87.2213 98.2713 87.2327 98.2025C87.1641 98.3401 87.3586 98.5695 87.7819 98.9136Z" fill="#002454"/>
<path d="M100.459 112.034C100.356 111.701 100.219 111.369 100.081 111.048C98.9257 108.444 97.118 106.368 95.3789 104.717C95.0471 104.407 94.7153 104.109 94.395 103.822C94.8412 104.178 95.2874 104.579 95.7336 105.004C97.3354 106.506 98.9601 108.41 100.001 110.761C100.184 111.174 100.333 111.598 100.459 112.034Z" fill="#002454"/>
<path d="M104.967 116.668C104.498 116.541 104.269 116.438 104.269 116.358C104.234 116.392 104.074 116.323 103.937 116.048C103.788 115.761 103.811 115.303 103.937 114.764C104.063 114.259 104.292 113.697 104.623 113.066C104.498 112.424 104.326 111.805 104.109 111.22C103.88 110.6 103.605 110.016 103.308 109.454C101.706 106.483 99.5664 104.384 97.5642 102.813C97.5299 102.79 97.4956 102.767 97.4612 102.733C97.3812 102.664 97.2896 102.607 97.2095 102.538C95.0929 100.944 93.125 99.8426 91.4774 99.0627C89.0633 97.9272 87.37 97.3882 86.5806 97.2965C86.4318 97.3882 86.2945 97.4914 86.1458 97.5947C86.1458 97.6176 86.1801 97.6405 86.203 97.6635C86.1687 97.652 86.1344 97.6405 86.1 97.6291C85.9742 97.7208 85.8369 97.8126 85.711 97.9043C85.6653 97.824 85.6081 97.7208 85.5737 97.5947C85.5509 97.5717 85.5394 97.5373 85.5394 97.5029C85.4708 97.3309 85.425 97.1359 85.3678 96.918C84.5097 96.6427 82.8507 96.3445 80.4824 96.2872C78.6518 96.2643 76.375 96.3675 73.7778 96.9295C72.4735 97.2047 71.1005 97.5947 69.6704 98.1681C68.2402 98.7186 66.7643 99.4641 65.3341 100.462C63.904 101.46 62.4852 102.664 61.261 104.166C60.0368 105.669 58.9956 107.401 58.1719 109.304C57.371 111.22 56.8447 113.273 56.4786 115.406C56.3756 116.473 56.1811 117.562 56.1697 118.652C56.1468 119.202 56.1239 119.753 56.101 120.303C56.1124 120.865 56.1239 121.439 56.1468 122.001C56.2841 126.508 57.6227 131.577 60.8949 135.706C64.1557 139.858 69.2013 142.542 74.4185 143.528C79.67 144.537 84.933 144.124 89.7155 142.45C92.0953 141.578 94.4064 140.431 96.3743 138.642C97.3697 137.77 98.2393 136.646 98.9257 135.465C99.4291 134.502 99.944 133.561 100.436 132.621C102.438 128.836 104.234 124.925 104.932 120.842C105.173 119.477 105.276 118.09 105.23 116.736C105.127 116.702 105.047 116.69 104.967 116.668ZM100.516 118.904C99.8067 121.909 98.2164 125.028 96.3057 128.309C95.8251 129.123 95.3332 129.96 94.8412 130.809C94.4751 131.371 93.9831 131.933 93.3767 132.449C92.1525 133.47 90.5049 134.284 88.7544 134.88C85.2076 136.073 81.0888 136.371 77.1758 135.649C73.2629 134.915 69.7733 133.08 67.5194 130.316C65.2769 127.563 64.1671 124.031 63.9955 120.498C63.8353 118.743 63.9612 116.954 64.1213 115.303C64.3387 113.64 64.7163 112.08 65.2426 110.635C66.3524 107.779 68.1029 105.474 70.1967 103.868C72.2675 102.228 74.5672 101.196 76.6495 100.496C78.7433 99.7852 80.654 99.4297 82.2215 99.1544C84.8072 98.7415 86.4891 98.6154 87.0382 98.3745C87.1641 98.3287 87.2213 98.2713 87.2327 98.2025C87.1641 98.3401 87.3586 98.5695 87.7819 98.9136C87.8048 98.9365 87.8277 98.9595 87.862 98.9709C88.5599 99.4526 89.4409 100.049 90.4706 100.772C91.1914 101.276 91.9694 101.85 92.7932 102.503C92.9991 102.664 93.2051 102.836 93.4225 103.008C93.7428 103.26 94.0632 103.524 94.395 103.822C94.8412 104.178 95.2874 104.579 95.7336 105.004C97.3354 106.506 98.9601 108.41 100.001 110.761C100.184 111.174 100.333 111.598 100.459 112.034C101.077 114.098 101.134 116.438 100.516 118.904Z" fill="#002454"/>
<path d="M86.0657 97.3538C86.0657 97.3538 86.0543 97.3882 86.0543 97.3997C86.0085 97.457 85.9055 97.5144 85.7454 97.5488C85.6996 97.5717 85.6424 97.5832 85.5737 97.5947C85.5509 97.5717 85.5394 97.5373 85.5394 97.5029C85.4708 97.3309 85.425 97.1359 85.3678 96.918C85.8483 97.0785 86.0772 97.2391 86.0657 97.3538Z" fill="#002454"/>
<path d="M105.23 116.736C105.127 116.702 105.047 116.69 104.967 116.668C104.498 116.541 104.269 116.438 104.269 116.358C104.234 116.392 104.074 116.323 103.937 116.048C103.788 115.761 103.811 115.303 103.937 114.764C104.063 114.259 104.292 113.697 104.623 113.066C104.498 112.424 104.326 111.805 104.109 111.22C104.326 111.782 104.521 112.367 104.681 112.963C104.795 113.387 104.887 113.823 104.967 114.271C105.001 114.443 105.035 114.615 105.058 114.798C105.127 115.257 105.173 115.727 105.207 116.197C105.218 116.369 105.23 116.553 105.23 116.736Z" fill="#002454"/>
<path d="M61.6043 175.802C61.6043 175.802 58.0803 157.83 52.3597 158.529C46.6391 159.229 65.3684 155.066 65.071 160.685C64.7735 166.305 65.6888 176.226 61.6157 175.802H61.6043Z" fill="#002454"/>
<path d="M107.106 171.879C107.106 171.879 84.1894 169.987 84.2809 167.498C84.5211 161.362 95.6421 158.667 96.9121 159.871C101.054 163.794 110.012 168.611 107.095 171.879H107.106Z" fill="#002454"/>
<path d="M135.698 138.585C135.698 138.585 116.454 146.521 116.545 144.044C116.786 137.908 127.906 135.213 129.176 136.417C133.318 140.34 138.604 135.328 135.687 138.585H135.698Z" fill="#002454"/>
<path d="M39.9116 136.142C39.9116 136.142 28.4703 146.762 30.0606 144.847C39.2709 133.756 35.5753 124.788 36.8453 125.992C40.9871 129.914 42.8177 132.873 39.9116 136.142Z" fill="#002454"/>
<path d="M204.243 31.6137C204.186 32.8179 203.762 33.9189 203.247 34.825C202.721 35.7425 202.08 36.4192 201.44 37.05C201.119 37.3711 200.787 37.6234 200.456 37.9101C200.101 38.1854 199.826 38.3689 199.403 38.69C199.289 38.7932 199.106 38.8735 198.957 38.9423L198.488 39.1602L198.042 39.3782L197.138 39.8025C196.531 40.1007 195.925 40.3186 195.33 40.6742L193.557 41.7178C188.843 44.5277 184.369 47.7964 180.147 51.1453C171.658 57.7973 163.935 64.6672 156.83 71.1931C153.26 74.4388 149.885 77.6616 146.647 80.7582C145.057 82.3295 143.467 83.8548 141.968 85.3687C141.201 86.1257 140.469 86.8826 139.748 87.6281L138.924 88.4883L138.764 88.6603C138.764 88.6603 138.696 88.7062 138.696 88.7406L138.73 88.8438C138.799 89.0159 138.787 88.97 139.005 89.704C139.199 90.266 139.268 90.828 139.382 91.3785C139.485 91.929 139.519 92.4795 139.588 93.0185C139.611 93.5576 139.634 94.0966 139.657 94.6242C139.657 96.7574 139.371 98.7759 138.913 100.691C138.009 104.522 136.407 107.928 134.394 110.738C133.902 111.461 133.364 112.091 132.803 112.757C132.174 113.445 131.476 114.007 130.755 114.477C129.897 115.039 129.028 115.463 128.158 115.807H128.147C127.872 115.911 127.598 116.014 127.334 116.106C127.026 116.209 126.728 116.301 126.431 116.392C123.593 117.195 120.973 117.47 118.628 117.608C113.937 117.837 110.333 117.493 107.919 117.195C106.74 117.035 105.836 116.874 105.23 116.736C105.127 116.702 105.047 116.69 104.967 116.668C104.498 116.541 104.269 116.438 104.269 116.358C104.28 116.278 104.521 116.232 104.978 116.209C105.047 116.209 105.127 116.197 105.207 116.197C105.836 116.174 106.763 116.174 107.976 116.163C110.39 116.14 113.96 116.151 118.456 115.624C120.687 115.349 123.181 114.936 125.687 114.076C126.934 113.628 128.193 113.066 129.279 112.286C129.829 111.896 130.321 111.449 130.732 110.945C131.156 110.394 131.648 109.775 132.048 109.121C133.742 106.54 135.069 103.432 135.755 100.003C136.098 98.2828 136.293 96.4936 136.236 94.6815C136.201 94.2342 136.167 93.787 136.133 93.3397C136.064 92.8924 136.018 92.4451 135.927 92.0093C135.824 91.5849 135.755 91.1262 135.595 90.7247L135.504 90.4151L135.446 90.2545C135.446 90.2545 135.401 90.0825 135.389 90.071L134.806 88.7062L134.542 88.0983C134.554 87.9034 134.794 87.7543 134.909 87.5822L135.767 86.573C136.453 85.7587 136.659 85.5522 137.06 85.1164C137.78 84.3136 138.513 83.5222 139.268 82.7423C140.755 81.1481 142.311 79.5769 143.89 77.9598C147.082 74.7599 150.411 71.4454 153.947 68.0965C160.995 61.3871 168.66 54.3566 177.241 47.4638C181.509 44.0002 186.04 40.5939 191.085 37.5202L192.996 36.3733C193.637 35.9948 194.38 35.6966 195.067 35.3526L196.119 34.8479L196.646 34.6071L196.68 34.5841H196.691L196.703 34.5727L197.378 34.0566C197.595 33.8616 197.847 33.6781 198.042 33.4831C198.865 32.6917 199.289 31.9119 199.289 31.3728C199.289 31.0976 199.22 30.765 199.048 30.3635C198.888 29.9736 198.556 29.5148 198.213 29.0676C197.996 28.8496 197.836 28.6203 197.595 28.4024L196.84 27.6454C196.245 27.0605 195.719 26.4756 195.216 25.9136C194.209 24.7896 193.271 23.7918 192.515 23.3445C192.138 23.1152 191.875 23.0808 191.577 23.0463C191.417 23.0693 191.257 23.0463 191.051 23.1152C190.868 23.1381 190.639 23.2413 190.41 23.3331C189.461 23.723 188.419 24.5258 187.149 25.5007C182.298 29.2167 177.333 32.9899 172.299 36.7632C163.558 43.2891 154.931 49.5855 146.35 55.4806C142.048 58.4166 137.769 61.261 133.41 63.8988C131.213 65.2063 129.028 66.4908 126.682 67.6262C125.458 68.1653 124.337 68.7273 122.769 69.1172L122.197 69.2548C122.003 69.3007 121.671 69.3122 121.419 69.3351C121.145 69.3466 120.87 69.3466 120.607 69.3466L120.126 69.2892L118.25 69.0254C113.422 68.257 108.88 67.4083 104.601 67.5689C102.484 67.6492 100.447 67.9818 98.7999 68.7502C97.1294 69.5415 95.9624 70.6655 95.1158 72.3514C93.1136 76.1477 91.4775 80.0242 90.2418 83.8548C89.6354 85.7701 89.132 87.6855 88.8345 89.5434L88.7544 90.1513C88.7544 90.2545 88.7201 90.3577 88.7201 90.4724C88.7087 90.5871 88.7201 90.6903 88.7201 90.805C88.743 90.9082 88.7201 91.1032 88.846 90.9771C89.9329 90.3233 90.9855 89.6811 92.0266 89.0617C93.9488 87.9148 95.8595 86.8368 97.7473 85.8275C99.6465 84.8182 101.523 83.8778 103.434 83.0405C104.395 82.6276 105.356 82.2492 106.408 81.928C106.98 81.7789 107.896 81.5381 108.616 81.6069C108.994 81.6413 109.383 81.6987 109.703 81.9166C110.024 82.0771 110.264 82.3753 110.527 82.662C111.763 84.0613 112.953 85.4031 114.12 86.7221C115.241 88.0066 116.294 89.2796 117.289 90.5642C118.261 91.8716 119.177 93.1562 119.92 94.6012C120.115 94.9683 120.275 95.3467 120.435 95.7481C120.596 96.161 120.744 96.7574 120.79 97.262C120.847 97.7896 120.756 98.3057 120.573 98.776C120.367 99.2462 120.001 99.6017 119.612 99.9229C119.223 100.233 118.834 100.531 118.456 100.84C118.113 101.116 117.781 101.391 117.449 101.666C116.797 102.228 116.168 102.779 115.561 103.306C114.337 104.384 113.216 105.416 112.186 106.391C110.127 108.341 108.445 110.05 107.152 111.507C106.202 112.585 105.459 113.514 104.967 114.271C104.932 114.328 104.898 114.397 104.864 114.454C104.738 114.649 104.635 114.821 104.555 114.993C104.097 115.853 104.36 116.266 104.269 116.358C104.234 116.392 104.074 116.323 103.937 116.048C103.788 115.761 103.811 115.303 103.937 114.764C104.063 114.259 104.292 113.697 104.623 113.066C104.635 113.032 104.658 112.997 104.681 112.963C105.047 112.275 105.539 111.518 106.134 110.681C107.301 109.052 108.88 107.16 110.825 105.038C111.809 103.983 112.884 102.87 114.051 101.701C114.635 101.116 115.252 100.519 115.893 99.9114C116.214 99.6132 116.545 99.315 116.877 99.0053C117.186 98.7301 117.506 98.4548 117.815 98.1681C117.941 98.0534 118.09 97.9502 118.147 97.7782C118.204 97.6176 118.204 97.4341 118.17 97.262C118.124 97.0671 118.09 96.9753 117.987 96.7115C117.861 96.4363 117.724 96.161 117.564 95.8743C116.9 94.7274 116.008 93.5461 115.035 92.3648C114.051 91.1835 112.976 89.9907 111.843 88.7865C110.733 87.6281 109.6 86.4239 108.422 85.1967C108.319 85.0705 108.193 84.9214 107.999 84.9788C107.804 85.0017 107.758 85.0132 107.392 85.1394C106.58 85.4031 105.71 85.7816 104.841 86.1945C103.09 87.0088 101.306 87.9722 99.4978 89.0044C97.6786 90.0366 95.848 91.1376 93.9945 92.296C93.5369 92.5942 93.0678 92.8924 92.6101 93.1906C92.0152 93.569 91.4317 93.959 90.8367 94.3375C89.4523 95.2435 88.0222 96.2642 86.5806 97.2965C86.4318 97.3882 86.2945 97.4914 86.1458 97.5947C86.1344 97.6061 86.1115 97.6176 86.1 97.6291C85.9742 97.7208 85.8369 97.8126 85.711 97.9043C85.6653 97.824 85.6081 97.7208 85.5737 97.5947C85.5509 97.5717 85.5394 97.5373 85.5394 97.5029C85.4708 97.3309 85.425 97.1359 85.3678 96.918C85.2877 96.6083 85.2076 96.2642 85.139 95.9431C84.9902 95.2435 84.8301 94.5439 84.7271 93.7755C84.5669 93.0644 84.6127 92.1813 84.6127 91.3211C84.6012 90.8968 84.6241 90.4495 84.6813 90.0022L84.8072 88.947C85.1047 86.7909 85.6081 84.7035 86.2259 82.6276C87.473 78.4759 89.132 74.37 91.18 70.31C91.7177 69.2204 92.5301 67.9818 93.5026 67.0184C94.4751 66.032 95.6421 65.2407 96.8549 64.6558C97.5299 64.3346 98.2164 64.0594 98.9143 63.8529C99.063 63.7956 99.2118 63.7497 99.3719 63.7153H99.3834C101.054 63.2336 102.736 63.0272 104.395 62.9354C109.395 62.6946 114.246 63.5892 118.959 64.2773L120.687 64.5067L121.099 64.5525C121.076 64.7819 121.065 64.9196 121.065 65.0113L121.087 64.8966L121.122 64.6672C121.145 64.4379 121.145 64.564 121.156 64.5296C121.168 64.5181 121.19 64.5181 121.202 64.5067C121.248 64.5067 121.236 64.5296 121.339 64.5067L121.637 64.4149C122.46 64.2199 123.559 63.7153 124.566 63.2451C126.648 62.2129 128.765 60.9628 130.858 59.6897C135.069 57.1092 139.279 54.2649 143.512 51.3403C151.979 45.4682 160.548 39.1717 169.255 32.6688C174.267 28.8841 179.209 25.1452 184.095 21.4636C185.262 20.592 186.623 19.4451 188.477 18.6537C188.957 18.4588 189.426 18.2753 189.998 18.172C190.525 18.0344 191.131 18 191.726 18C192.927 18.0459 194.152 18.4358 195.067 18.9978C196.897 20.1447 197.927 21.4636 198.934 22.5532C199.426 23.1037 199.895 23.6313 200.364 24.09L201.176 24.9158C201.485 25.214 201.771 25.5695 202.057 25.9021C202.618 26.6132 203.167 27.3701 203.591 28.3335C204.014 29.2855 204.3 30.4209 204.243 31.6137Z" fill="#002454"/>
</svg>
