<svg width="185" height="137" viewBox="0 0 185 137" fill="none" xmlns="http://www.w3.org/2000/svg">
<g id="Group 37931">
<path id="Vector" d="M26.1587 156.711C26.1587 156.711 9.57473 148.01 4.24246 129.551C-1.0898 111.091 -9.37906 82.0678 36.5204 80.5879C82.4198 79.108 90.47 64.081 91.3308 33.2458C92.1916 2.4106 136.638 -18.6714 189.339 -1.61715C242.04 15.4371 231.97 30.2303 211.834 40.4564C191.698 50.6826 182.81 72.3863 197.5 80.5879C212.19 88.7895 235.825 103.463 230.493 124.742C225.161 146.02 217.57 157.044 217.57 157.044L26.1587 156.711Z" fill="#C091FF"/>
<path id="Vector_2" d="M149.417 17.3503C149.417 17.3503 148.12 23.461 150.102 29.1333L155.235 28.4107L157.727 27.6429L160.612 27.9351L161.675 20.0364L159.892 14.5898L149.417 17.3503Z" fill="#FF9C70"/>
<path id="Vector_3" d="M145.98 77.7161L149.966 144.668H160.03L159.041 106.357L165.243 144.668H174.042C174.042 144.668 170.902 94.4382 168.298 77.7161H145.98Z" fill="#002454"/>
<path id="Vector_4" d="M171.486 145.056C171.383 145.056 171.285 145.017 171.211 144.947C171.137 144.877 171.093 144.781 171.087 144.679C168.547 95.7932 165.935 77.9579 165.909 77.7825C165.901 77.7309 165.903 77.6781 165.916 77.6274C165.929 77.5767 165.951 77.529 165.982 77.487C166.013 77.445 166.052 77.4096 166.097 77.3828C166.142 77.356 166.192 77.3383 166.244 77.3309C166.348 77.3156 166.455 77.3422 166.54 77.4049C166.625 77.4675 166.682 77.5613 166.698 77.6656C166.722 77.841 169.339 95.7109 171.884 144.636C171.887 144.689 171.879 144.741 171.862 144.791C171.845 144.84 171.818 144.886 171.783 144.925C171.747 144.964 171.705 144.995 171.658 145.018C171.611 145.04 171.559 145.053 171.507 145.056H171.486Z" fill="#CCD3DD"/>
<path id="Vector_5" d="M169.596 90.9016C167.665 90.8426 165.827 90.0559 164.452 88.6991C162.122 86.4461 160.982 82.7504 161.065 77.7184C161.067 77.6138 161.11 77.5142 161.184 77.4408C161.259 77.3673 161.359 77.3259 161.463 77.3252C161.516 77.3259 161.567 77.337 161.616 77.3578C161.664 77.3787 161.707 77.4089 161.744 77.4468C161.78 77.4846 161.808 77.5292 161.827 77.5781C161.846 77.6271 161.855 77.6793 161.854 77.7317C161.774 82.514 162.829 86.0183 164.986 88.1146C166.235 89.351 167.91 90.063 169.668 90.1046C169.773 90.1002 169.875 90.1378 169.953 90.209C170.031 90.2802 170.077 90.3792 170.082 90.4845C170.084 90.5365 170.077 90.5885 170.059 90.6374C170.042 90.6864 170.014 90.7315 169.979 90.77C169.944 90.8085 169.902 90.8397 169.855 90.8618C169.808 90.8839 169.757 90.8966 169.705 90.8989L169.596 90.9016Z" fill="#CCD3DD"/>
<path id="Vector_6" d="M146.778 91.6823C146.691 91.6817 146.606 91.6529 146.537 91.6002C146.468 91.5475 146.417 91.4738 146.393 91.3901C146.365 91.2879 146.379 91.1789 146.431 91.0868C146.483 90.9948 146.57 90.9271 146.672 90.8985C153.598 88.9856 152.142 77.8801 152.126 77.7791C152.113 77.6743 152.141 77.5683 152.204 77.4838C152.268 77.3994 152.362 77.3432 152.467 77.3274C152.571 77.3131 152.677 77.3408 152.761 77.4046C152.846 77.4683 152.901 77.5629 152.916 77.6675C153.154 79.7101 153.114 81.7757 152.796 83.8075C152.092 88.077 150.046 90.7949 146.884 91.669C146.85 91.6772 146.814 91.6817 146.778 91.6823Z" fill="#CCD3DD"/>
<path id="Vector_7" d="M168.902 54.6013L169.373 79.5755H145.142L145.533 57.2581L144.406 58.5068L137.969 50.6532C137.969 50.6532 144.345 42.2948 147.002 39.6964C149.659 37.0981 156.492 33.9338 164.061 37.3797C164.061 37.3797 173.775 41.6731 178.013 47.4916L170.956 56.748L168.902 54.6013Z" fill="#219653"/>
<path id="Vector_8" d="M177.498 48.1587L187.844 57.7233C187.844 57.7233 171.61 74.0867 170.123 74.3444C168.635 74.6021 159.126 76.2919 160.327 73.8476C160.327 73.8476 158.967 73.1276 159.567 72.0861C159.567 72.0861 157.604 71.2891 158.725 70.4415C158.725 70.4415 157.928 68.9989 159.607 68.7199C161.286 68.441 164.734 68.2789 164.734 68.2789C164.734 68.2789 162.25 66.5147 163.733 65.622C165.215 64.7294 169.344 68.3453 169.344 68.3453L176.674 58.7807L172.187 55.1329L177.498 48.1587Z" fill="#FF9C70"/>
<path id="Vector_9" d="M157.991 70.763C157.888 70.7631 157.789 70.7237 157.715 70.6529C157.641 70.5822 157.597 70.4855 157.592 70.3831C157.59 70.3308 157.598 70.2785 157.616 70.2293C157.634 70.1801 157.662 70.135 157.697 70.0965C157.733 70.058 157.776 70.0269 157.823 70.005C157.871 69.983 157.922 69.9707 157.975 69.9686L162.066 69.7986C162.119 69.7954 162.171 69.8028 162.221 69.8205C162.271 69.8381 162.316 69.8657 162.355 69.9014C162.394 69.9372 162.425 69.9804 162.446 70.0285C162.468 70.0765 162.48 70.1285 162.481 70.1812C162.483 70.2334 162.475 70.2856 162.457 70.3347C162.44 70.3839 162.412 70.429 162.377 70.4676C162.342 70.5061 162.299 70.5373 162.252 70.5592C162.204 70.5812 162.153 70.5936 162.101 70.5956L158.006 70.763H157.991Z" fill="#E47452"/>
<path id="Vector_10" d="M158.379 72.519C158.278 72.5185 158.18 72.4792 158.106 72.4091C158.032 72.3391 157.987 72.2435 157.981 72.1417C157.976 72.0364 158.013 71.9334 158.083 71.8552C158.154 71.7771 158.253 71.7301 158.358 71.7246L161.671 71.5439C161.777 71.5388 161.88 71.5756 161.959 71.6462C162.037 71.7169 162.085 71.8157 162.091 71.9212C162.096 72.0267 162.059 72.13 161.989 72.2086C161.918 72.2872 161.819 72.3348 161.714 72.341L158.401 72.519H158.379Z" fill="#E47452"/>
<path id="Vector_11" d="M159.509 74.2752C159.41 74.275 159.314 74.2378 159.241 74.171C159.168 74.1042 159.122 74.0125 159.113 73.9139C159.104 73.8087 159.137 73.7042 159.204 73.6231C159.272 73.5421 159.369 73.4909 159.474 73.4808C159.865 73.4436 161.833 73.2629 162.083 73.2629C162.189 73.2629 162.29 73.3049 162.365 73.3797C162.44 73.4544 162.482 73.5558 162.482 73.6615C162.482 73.7672 162.44 73.8685 162.365 73.9433C162.29 74.018 162.189 74.06 162.083 74.06C161.918 74.06 160.441 74.1928 159.546 74.2752H159.509Z" fill="#E47452"/>
<path id="Vector_12" d="M166.297 69.3653C166.228 69.3653 166.161 69.3479 166.101 69.3148L163.003 67.5587C162.914 67.5068 162.848 67.4226 162.82 67.3235C162.792 67.2244 162.803 67.1183 162.851 67.0273C162.877 66.9815 162.911 66.9412 162.953 66.9087C162.994 66.8763 163.041 66.8524 163.092 66.8383C163.143 66.8242 163.196 66.8203 163.248 66.8267C163.3 66.8332 163.35 66.8499 163.396 66.8759L166.494 68.632C166.583 68.6839 166.648 68.7681 166.677 68.8672C166.705 68.9663 166.693 69.0724 166.645 69.1634C166.61 69.2247 166.559 69.2757 166.498 69.3111C166.437 69.3466 166.368 69.3653 166.297 69.3653Z" fill="#E47452"/>
<path id="Vector_13" d="M163.98 47.5908H158.732C158.732 47.5908 157.513 54.3259 161.081 54.3259C164.649 54.3259 163.98 47.5908 163.98 47.5908Z" fill="#4DAB75"/>
<path id="Vector_14" d="M176.66 49.6599C176.562 49.6591 176.467 49.6211 176.395 49.5536C176.315 49.4792 168.286 42.0746 162.018 38.5543C161.929 38.5029 161.863 38.4188 161.834 38.3197C161.805 38.2206 161.816 38.1142 161.864 38.0229C161.917 37.9309 162.003 37.8633 162.105 37.835C162.207 37.8066 162.317 37.8197 162.409 37.8715C168.759 41.437 176.854 48.9053 176.936 48.9797C176.975 49.0153 177.006 49.0581 177.028 49.1057C177.05 49.1532 177.062 49.2046 177.064 49.2569C177.066 49.3092 177.057 49.3614 177.039 49.4105C177.021 49.4596 176.993 49.5046 176.958 49.5429C176.919 49.5819 176.872 49.6124 176.821 49.6326C176.77 49.6527 176.715 49.662 176.66 49.6599Z" fill="#4DAB75"/>
<path id="Vector_15" d="M157.347 41.269C157.113 41.269 156.868 41.269 156.616 41.2398C151.278 40.8173 149.596 37.9878 149.527 37.8683C149.479 37.7778 149.468 37.6723 149.495 37.5735C149.522 37.4747 149.586 37.39 149.674 37.3369C149.764 37.2888 149.87 37.2771 149.968 37.3043C150.067 37.3314 150.152 37.3954 150.205 37.483C150.571 38.0107 151.037 38.4619 151.576 38.8114C152.484 39.4491 154.105 40.2488 156.666 40.4507C161.47 40.8306 162.867 37.0845 162.923 36.9224C162.96 36.8235 163.034 36.7428 163.129 36.6976C163.224 36.6524 163.334 36.6463 163.433 36.6807C163.483 36.6979 163.528 36.7248 163.567 36.7597C163.606 36.7946 163.637 36.8368 163.66 36.884C163.682 36.9312 163.695 36.9823 163.698 37.0345C163.7 37.0867 163.693 37.1389 163.675 37.1881C163.675 37.2253 162.19 41.269 157.347 41.269Z" fill="#4DAB75"/>
<path id="Vector_16" d="M139.231 52.5878C139.15 52.5883 139.071 52.5642 139.005 52.5188C138.918 52.4586 138.858 52.3665 138.839 52.2625C138.819 52.1585 138.842 52.051 138.901 51.9635C139.167 51.5782 145.474 42.4573 151.604 38.3711C151.691 38.3124 151.799 38.2908 151.902 38.3112C152.006 38.3317 152.097 38.3924 152.156 38.48C152.215 38.5678 152.237 38.6753 152.216 38.7789C152.196 38.8825 152.135 38.9738 152.047 39.0327C146.043 43.0339 139.624 52.3168 139.56 52.4151C139.524 52.4689 139.475 52.5128 139.417 52.5429C139.36 52.573 139.296 52.5885 139.231 52.5878Z" fill="#4DAB75"/>
<path id="Vector_17" d="M144.044 58.0552L136.56 66.4295C136.56 66.4295 124.198 54.6518 123.042 53.4403C123.042 53.4403 116.634 53.8441 117.197 51.5459C117.197 51.5459 115.476 51.1899 115.765 49.5958C115.765 49.5958 114.317 48.5836 114.413 47.5208C114.413 47.5208 112.675 46.0224 114.174 45.4459L121.7 43.0334C121.7 43.0334 121.169 41.1524 122.471 41.2959C123.773 41.4394 125.367 43.9022 126.092 44.771C126.818 45.6398 127.298 48.7775 127.346 49.4524C127.394 50.1272 135.354 55.9297 135.354 55.9297L138.771 51.6416L144.044 58.0552Z" fill="#FF9C70"/>
<path id="Vector_18" d="M116.06 48.1027H113.57C113.465 48.1027 113.363 48.0607 113.289 47.986C113.214 47.9113 113.172 47.8099 113.172 47.7042C113.172 47.5985 113.214 47.4971 113.289 47.4224C113.363 47.3476 113.465 47.3057 113.57 47.3057H116.062C116.168 47.3057 116.27 47.3476 116.344 47.4224C116.419 47.4971 116.461 47.5985 116.461 47.7042C116.461 47.7567 116.451 47.8088 116.43 47.8573C116.41 47.9058 116.381 47.9499 116.343 47.9869C116.306 48.024 116.262 48.0533 116.213 48.0731C116.165 48.093 116.112 48.1031 116.06 48.1027Z" fill="#E47452"/>
<path id="Vector_19" d="M114.965 50.1167C114.868 50.1161 114.774 50.0802 114.702 50.0156C114.63 49.9511 114.583 49.8623 114.572 49.766C114.565 49.7142 114.569 49.6615 114.582 49.6111C114.596 49.5606 114.62 49.5135 114.652 49.4722C114.684 49.431 114.724 49.3965 114.769 49.3708C114.815 49.345 114.865 49.3286 114.917 49.3223L117.409 49.0141C117.461 49.0078 117.514 49.0118 117.564 49.0259C117.615 49.04 117.662 49.0639 117.703 49.0962C117.744 49.1285 117.779 49.1687 117.804 49.2143C117.83 49.2599 117.847 49.3102 117.853 49.3622C117.859 49.4142 117.855 49.4669 117.841 49.5173C117.827 49.5678 117.803 49.615 117.771 49.6562C117.739 49.6974 117.698 49.7318 117.653 49.7575C117.607 49.7832 117.557 49.7996 117.505 49.8059L115.015 50.1114L114.965 50.1167Z" fill="#E47452"/>
<path id="Vector_20" d="M116.225 52.2319C116.135 52.232 116.048 52.2019 115.978 52.1465C115.907 52.091 115.858 52.0135 115.837 51.9264C115.813 51.8236 115.83 51.7154 115.885 51.6254C115.941 51.5354 116.029 51.4707 116.132 51.4455L118.81 50.7973C118.861 50.7846 118.914 50.7823 118.965 50.7903C119.017 50.7983 119.067 50.8166 119.112 50.844C119.157 50.8715 119.195 50.9076 119.226 50.9502C119.257 50.9928 119.279 51.041 119.291 51.0922C119.315 51.1947 119.299 51.3029 119.244 51.393C119.189 51.4832 119.101 51.5479 118.998 51.573L116.304 52.2107C116.279 52.2208 116.252 52.228 116.225 52.2319Z" fill="#E47452"/>
<path id="Vector_21" d="M115.373 36.1099L111.072 39.705C110.766 39.9609 110.725 40.4167 110.981 40.7229L120.335 51.9144C120.591 52.2207 121.047 52.2614 121.353 52.0054L125.654 48.4103C125.961 48.1544 126.001 47.6986 125.746 47.3924L116.391 36.2009C116.135 35.8946 115.68 35.8539 115.373 36.1099Z" fill="black"/>
<path id="Vector_22" d="M115.392 37.5331L112.472 39.9731C112.166 40.2291 112.125 40.6848 112.381 40.991L120.321 50.4905C120.577 50.7968 121.033 50.8376 121.339 50.5816L124.259 48.1416C124.565 47.8856 124.605 47.43 124.35 47.1237L116.409 37.6242C116.154 37.318 115.698 37.2772 115.392 37.5331Z" fill="#F0F0F0"/>
<path id="Vector_23" d="M161.764 37.8079C161.764 37.8079 159.917 35.9906 160.244 31.5776H153.626C153.626 31.5776 154.372 35.81 151.359 37.6591C151.359 37.6591 153.089 39.9254 156.939 39.9254C160.788 39.9254 161.764 37.8079 161.764 37.8079Z" fill="#FF9C70"/>
<path id="Vector_24" d="M163.668 25.6824C163.668 25.6824 162.292 33.4882 156.322 33.9823C150.352 34.4765 149.56 28.403 149.869 28.0841C150.177 27.7653 151.412 28.0842 152.438 28.0496C153.463 28.0151 155.262 26.777 157.17 26.777C159.077 26.777 159.502 27.4146 159.89 27.0613C160.278 26.7079 161.057 22.9272 160.953 20.8443C160.849 18.7613 159.359 18.6896 159.399 15.6156L149.595 17.6959C149.129 17.7956 148.644 17.7558 148.2 17.5817C146.651 16.9759 143.107 15.3446 143.08 13.1076C143.046 10.2462 146.003 10.7164 146.003 10.7164C146.003 10.7164 146.463 5.45324 151.548 7.52823C151.548 7.52823 153.28 4.10094 156.064 6.29282C158.849 8.48471 158.854 9.78919 158.854 9.78919C158.854 9.78919 164.649 9.15157 165.849 12.8977C167.05 16.6438 165.541 23.812 163.668 25.6824Z" fill="#5405BE"/>
<path id="Vector_25" d="M162.368 20.56C163.431 19.6434 166.04 19.925 166.465 21.3039C166.89 22.6828 165.792 25.6824 164.732 25.6824C163.672 25.6824 161.908 24.4363 161.908 23.0973C161.923 22.2322 162.078 21.3753 162.368 20.56Z" fill="#FF9C70"/>
<path id="Vector_26" d="M164.824 24.1828C164.753 24.1825 164.684 24.1637 164.623 24.1282C164.562 24.0928 164.511 24.042 164.476 23.9808C164.427 23.8902 164.415 23.7843 164.443 23.6853C164.471 23.5862 164.536 23.5017 164.624 23.4495C164.795 23.3386 164.923 23.173 164.987 22.98C165.051 22.7869 165.048 22.5777 164.978 22.3867C164.967 22.3222 164.942 22.2611 164.903 22.208C164.865 22.155 164.815 22.1116 164.757 22.0812C164.482 21.9931 164.185 22.0015 163.915 22.1051C163.816 22.1414 163.706 22.1372 163.611 22.0934C163.515 22.0497 163.44 21.9699 163.402 21.8713C163.365 21.7723 163.369 21.6627 163.413 21.5665C163.457 21.4703 163.537 21.3956 163.636 21.3585C163.721 21.3267 164.497 21.0504 165.118 21.3718C165.274 21.4522 165.411 21.5649 165.519 21.7023C165.628 21.8398 165.706 21.9989 165.748 22.1689C165.861 22.5301 165.851 22.9186 165.718 23.2732C165.586 23.6278 165.34 23.9282 165.018 24.127C164.959 24.162 164.892 24.1812 164.824 24.1828Z" fill="#E47452"/>
<path id="Vector_27" d="M154.555 30.2571H154.441C154.257 30.243 154.079 30.1879 153.92 30.096C153.76 30.004 153.623 29.8775 153.519 29.7257C153.458 29.6397 153.433 29.5329 153.451 29.4288C153.468 29.3247 153.526 29.2318 153.612 29.1704C153.655 29.1399 153.703 29.1182 153.754 29.1064C153.805 29.0947 153.858 29.0933 153.91 29.1022C153.961 29.1111 154.011 29.1302 154.055 29.1583C154.099 29.1864 154.137 29.2231 154.167 29.2661C154.205 29.3224 154.255 29.3694 154.313 29.4035C154.372 29.4376 154.437 29.4578 154.505 29.4627C155.129 29.5105 156.208 28.6656 156.744 28.1343C156.781 28.097 156.825 28.0674 156.874 28.0472C156.922 28.027 156.974 28.0166 157.026 28.0166C157.078 28.0166 157.13 28.027 157.179 28.0472C157.227 28.0674 157.271 28.097 157.308 28.1343C157.382 28.209 157.424 28.3103 157.424 28.4159C157.424 28.5215 157.382 28.6228 157.308 28.6975C157.14 28.8569 155.73 30.2571 154.555 30.2571Z" fill="#E47452"/>
<path id="Vector_28" d="M153.238 26.83C153.118 26.8348 152.998 26.8135 152.887 26.7677C152.776 26.7218 152.677 26.6524 152.595 26.5644C152.064 25.9745 152.595 22.8289 153.126 20.2969C153.149 20.1936 153.211 20.1033 153.3 20.0455C153.388 19.9878 153.496 19.9674 153.599 19.9887C153.703 20.0116 153.793 20.0744 153.85 20.1635C153.907 20.2526 153.927 20.3607 153.905 20.4643C153.408 22.7757 152.999 25.5282 153.185 26.0436C153.373 26.118 154.131 25.7779 154.832 25.2147C154.873 25.182 154.92 25.1577 154.97 25.1432C155.021 25.1288 155.074 25.1244 155.126 25.1303C155.178 25.1362 155.228 25.1524 155.274 25.1778C155.32 25.2032 155.36 25.2374 155.393 25.2785C155.425 25.3192 155.45 25.366 155.464 25.4162C155.478 25.4663 155.483 25.5188 155.477 25.5707C155.471 25.6226 155.455 25.6727 155.429 25.7183C155.404 25.7639 155.37 25.804 155.329 25.8364C154.986 26.1074 154.003 26.83 153.238 26.83Z" fill="#E47452"/>
<path id="Vector_29" d="M150.297 21.5611C150.207 21.5616 150.12 21.5274 150.055 21.4655C149.99 21.3998 149.953 21.3109 149.953 21.2184C149.953 21.1258 149.99 21.037 150.055 20.9713C151.017 19.9697 152.09 20.2965 152.52 20.61C152.558 20.6366 152.589 20.6704 152.613 20.7092C152.637 20.7481 152.654 20.7914 152.661 20.8365C152.669 20.8817 152.667 20.9278 152.657 20.9724C152.646 21.0169 152.627 21.059 152.6 21.0961C152.574 21.1333 152.54 21.1649 152.501 21.1891C152.462 21.2132 152.419 21.2294 152.374 21.2368C152.328 21.2442 152.282 21.2427 152.238 21.2322C152.193 21.2217 152.151 21.2026 152.114 21.1758C152.034 21.12 151.317 20.6631 150.56 21.4415C150.527 21.479 150.487 21.5091 150.441 21.5297C150.396 21.5503 150.347 21.561 150.297 21.5611Z" fill="#47243B"/>
<path id="Vector_30" d="M155.261 20.9288C155.171 20.9293 155.084 20.895 155.019 20.8331C154.986 20.8008 154.96 20.7623 154.943 20.7199C154.925 20.6775 154.916 20.632 154.916 20.586C154.916 20.5401 154.925 20.4946 154.943 20.4522C154.96 20.4098 154.986 20.3713 155.019 20.339C155.981 19.3373 157.051 19.6641 157.484 19.9776C157.522 20.0043 157.553 20.038 157.577 20.0769C157.602 20.1158 157.618 20.159 157.625 20.2042C157.633 20.2494 157.631 20.2955 157.62 20.3401C157.61 20.3846 157.591 20.4267 157.564 20.4638C157.537 20.501 157.504 20.5326 157.465 20.5567C157.426 20.5809 157.383 20.5971 157.338 20.6045C157.292 20.6119 157.246 20.6103 157.202 20.5999C157.157 20.5894 157.115 20.5703 157.078 20.5435C156.998 20.4877 156.281 20.0308 155.521 20.8092C155.489 20.8469 155.449 20.8771 155.404 20.8977C155.359 20.9184 155.31 20.929 155.261 20.9288Z" fill="#47243B"/>
<path id="Vector_31" d="M151.38 23.5726C151.051 23.5726 150.83 23.2192 150.83 22.6958C150.83 22.1724 151.051 21.8164 151.38 21.8164C151.709 21.8164 151.933 22.1698 151.933 22.6958C151.933 23.2219 151.709 23.5726 151.38 23.5726Z" fill="#47243B"/>
<path id="Vector_32" d="M156.037 23.1654C155.708 23.1654 155.484 22.812 155.484 22.2859C155.484 21.7599 155.708 21.4092 156.037 21.4092C156.366 21.4092 156.587 21.7626 156.587 22.2859C156.587 22.8093 156.366 23.1654 156.037 23.1654Z" fill="#47243B"/>
<path id="Vector_33" d="M133.318 41.9608C138.25 41.9608 142.248 37.9629 142.248 33.0312C142.248 28.0995 138.25 24.1016 133.318 24.1016C128.386 24.1016 124.389 28.0995 124.389 33.0312C124.389 37.9629 128.386 41.9608 133.318 41.9608Z" fill="#4DAB75"/>
<path id="Vector_34" d="M131.143 37.4274C131.091 37.3594 131.059 37.2786 131.05 37.1936C131.036 37.1042 131.045 37.0128 131.077 36.9279C131.106 36.8497 131.154 36.7802 131.218 36.726C131.285 36.672 131.37 36.6438 131.457 36.6463C131.534 36.6478 131.61 36.6738 131.672 36.7207C131.744 36.7712 131.823 36.8323 131.911 36.9067C131.999 36.9811 132.094 37.0555 132.201 37.1378C132.317 37.2251 132.44 37.3025 132.57 37.369L132.764 37.4673V35.4454L132.256 35.209C132.052 35.1145 131.86 34.9968 131.683 34.8582C131.503 34.7174 131.346 34.5498 131.218 34.3614C131.087 34.1678 131.019 33.9387 131.024 33.7052C131.024 33.5103 131.064 33.3176 131.143 33.1393C131.224 32.9523 131.34 32.782 131.483 32.6371C131.64 32.4783 131.825 32.3496 132.028 32.2572C132.262 32.1526 132.51 32.0836 132.764 32.0526V31.686C132.76 31.4693 132.785 31.2531 132.838 31.043C132.859 30.9604 132.909 30.888 132.979 30.8392C133.048 30.7904 133.133 30.7684 133.218 30.7773C133.301 30.7695 133.384 30.7921 133.452 30.841C133.519 30.8899 133.566 30.9617 133.585 31.043C133.639 31.2375 133.665 31.4389 133.662 31.6408C133.662 31.7205 133.662 31.7976 133.662 31.8693C133.662 31.941 133.662 32.0155 133.662 32.0952C133.796 32.1202 133.928 32.153 134.058 32.1935C134.231 32.2458 134.4 32.3088 134.565 32.3821C134.724 32.448 134.872 32.5376 135.004 32.6478C135.059 32.6886 135.104 32.7414 135.135 32.8021C135.167 32.8628 135.185 32.93 135.187 32.9985C135.187 33.0518 135.177 33.1047 135.156 33.154C135.135 33.2033 135.105 33.2479 135.067 33.2854C135.027 33.3269 134.978 33.3595 134.924 33.381C134.87 33.4025 134.812 33.4124 134.754 33.4103C134.663 33.4067 134.573 33.3878 134.488 33.3545C134.387 33.3208 134.286 33.281 134.185 33.2349L133.898 33.1074C133.826 33.0705 133.751 33.0376 133.675 33.0091C133.675 33.3253 133.675 33.6388 133.675 33.9496C133.675 34.2605 133.675 34.5766 133.675 34.9008C133.907 34.9858 134.138 35.0743 134.369 35.1664C134.591 35.2548 134.802 35.3708 134.996 35.5118C135.178 35.6433 135.334 35.8083 135.455 35.998C135.577 36.1996 135.639 36.432 135.633 36.6676C135.641 36.9345 135.579 37.199 135.455 37.4354C135.34 37.6419 135.183 37.8227 134.996 37.9667C134.803 38.1092 134.59 38.2203 134.363 38.2962C134.135 38.3743 133.902 38.4356 133.665 38.4795V38.8541C133.665 38.979 133.665 39.1198 133.665 39.2367C133.641 39.3549 133.578 39.4617 133.487 39.5396C133.412 39.6018 133.318 39.6365 133.221 39.6379C133.167 39.642 133.114 39.6339 133.064 39.6141C133.014 39.5943 132.97 39.5633 132.934 39.5236C132.869 39.4397 132.826 39.3412 132.809 39.2367C132.787 39.1087 132.776 38.9788 132.777 38.8488C132.777 38.7027 132.777 38.5672 132.777 38.437C132.581 38.3872 132.387 38.326 132.198 38.2537C132.05 38.1962 131.909 38.1213 131.778 38.0305C131.663 37.9526 131.557 37.8636 131.459 37.7648C131.329 37.6479 131.236 37.5416 131.143 37.4274ZM132.774 32.9958L132.557 33.0596C132.476 33.0832 132.398 33.1162 132.325 33.1579C132.249 33.2024 132.178 33.2569 132.116 33.32C132.046 33.3899 131.994 33.4755 131.964 33.5697C131.965 33.6738 131.986 33.7768 132.028 33.8723C132.069 33.9677 132.13 34.0537 132.206 34.125C132.372 34.2904 132.564 34.4276 132.774 34.5315V32.9958ZM133.649 35.8174C133.649 36.1123 133.649 36.4045 133.649 36.6915C133.649 36.9784 133.649 37.268 133.649 37.5549C133.775 37.5412 133.899 37.5109 134.018 37.4646C134.166 37.4047 134.31 37.3345 134.448 37.2547C134.57 37.1601 134.655 37.0256 134.687 36.8748C134.701 36.7994 134.699 36.722 134.68 36.6477C134.661 36.5734 134.627 36.504 134.578 36.4444C134.435 36.3195 134.297 36.2106 134.164 36.1123C134 36.0011 133.828 35.9025 133.649 35.8174Z" fill="white"/>
<path id="Vector_35" d="M134.776 27.1988C134.701 27.1248 134.6 27.0833 134.494 27.0833C134.389 27.0833 134.288 27.1248 134.213 27.1988L133.719 27.6903V25.7721C133.719 25.6664 133.677 25.565 133.602 25.4903C133.527 25.4155 133.426 25.3735 133.32 25.3735C133.214 25.3735 133.113 25.4155 133.038 25.4903C132.963 25.565 132.921 25.6664 132.921 25.7721V27.7301L132.433 27.236C132.396 27.1987 132.352 27.1691 132.304 27.1489C132.255 27.1287 132.203 27.1183 132.151 27.1183C132.099 27.1183 132.047 27.1287 131.998 27.1489C131.95 27.1691 131.906 27.1987 131.869 27.236C131.795 27.311 131.754 27.4122 131.754 27.5176C131.754 27.623 131.795 27.7242 131.869 27.7992L133.023 28.9523C133.097 29.027 133.198 29.0691 133.304 29.0692C133.41 29.0691 133.511 29.027 133.586 28.9523L134.779 27.7594C134.851 27.6841 134.892 27.5833 134.892 27.4785C134.891 27.3738 134.849 27.2734 134.776 27.1988Z" fill="#D3EADD"/>
<path id="Vector_36" d="M114.93 28.5838C119.861 28.5838 123.859 24.5859 123.859 19.6542C123.859 14.7225 119.861 10.7246 114.93 10.7246C109.998 10.7246 106 14.7225 106 19.6542C106 24.5859 109.998 28.5838 114.93 28.5838Z" fill="#4DAB75"/>
<path id="Vector_37" d="M112.748 24.0511C112.696 23.9844 112.664 23.9043 112.655 23.82C112.644 23.7306 112.653 23.6396 112.682 23.5543C112.71 23.4765 112.759 23.4077 112.823 23.355C112.89 23.3001 112.975 23.2709 113.062 23.2727C113.14 23.2753 113.215 23.3022 113.277 23.3497C113.35 23.4011 113.43 23.4622 113.516 23.533C113.601 23.6048 113.7 23.6818 113.806 23.7668C113.922 23.8541 114.046 23.9315 114.175 23.998L114.369 24.0963V22.0744L113.862 21.838C113.658 21.7417 113.466 21.6232 113.288 21.4846C113.108 21.3444 112.951 21.1768 112.823 20.9878C112.694 20.7945 112.626 20.5667 112.629 20.3342C112.629 20.1385 112.67 19.945 112.748 19.7657C112.83 19.5787 112.945 19.4084 113.089 19.2635C113.246 19.1055 113.43 18.9777 113.633 18.8862C113.866 18.7804 114.115 18.7114 114.369 18.6816V18.3256C114.366 18.109 114.39 17.8928 114.443 17.6827C114.464 17.6 114.514 17.5277 114.584 17.4788C114.654 17.43 114.739 17.408 114.823 17.417C114.906 17.4091 114.989 17.4318 115.057 17.4807C115.124 17.5296 115.172 17.6014 115.19 17.6827C115.244 17.8781 115.27 18.0803 115.267 18.2831C115.267 18.3628 115.267 18.4372 115.267 18.5089C115.267 18.5807 115.267 18.6578 115.267 18.7375C115.4 18.7617 115.531 18.7936 115.66 18.8331C115.834 18.8852 116.003 18.9491 116.168 19.0244C116.326 19.0912 116.474 19.1807 116.606 19.2901C116.661 19.3316 116.706 19.3849 116.738 19.446C116.77 19.5071 116.787 19.5746 116.789 19.6434C116.789 19.6964 116.779 19.7488 116.758 19.7976C116.738 19.8464 116.708 19.8907 116.67 19.9277C116.63 19.9699 116.581 20.0029 116.527 20.0245C116.473 20.046 116.415 20.0556 116.356 20.0526C116.261 20.0502 116.167 20.0323 116.078 19.9995C115.977 19.9623 115.876 19.9224 115.775 19.8799C115.674 19.8374 115.578 19.7949 115.488 19.7497C115.397 19.7045 115.323 19.6753 115.267 19.6541C115.267 19.9702 115.267 20.2837 115.267 20.5919C115.267 20.9001 115.267 21.2189 115.267 21.5431L115.961 21.8087C116.183 21.8982 116.393 22.0141 116.588 22.1541C116.769 22.2871 116.925 22.4518 117.047 22.6403C117.169 22.843 117.231 23.0761 117.225 23.3125C117.233 23.5787 117.172 23.8423 117.047 24.0777C116.932 24.2845 116.776 24.4654 116.588 24.6091C116.396 24.7515 116.182 24.8627 115.955 24.9385C115.727 25.0166 115.494 25.0779 115.256 25.1218V25.4938C115.256 25.6213 115.256 25.7595 115.256 25.879C115.232 25.9967 115.169 26.1031 115.079 26.1819C115.004 26.2433 114.91 26.2771 114.813 26.2776C114.759 26.2823 114.706 26.2744 114.656 26.2546C114.606 26.2347 114.561 26.2035 114.526 26.1633C114.461 26.0807 114.418 25.9829 114.401 25.879C114.379 25.7501 114.368 25.6193 114.369 25.4885C114.369 25.345 114.369 25.2069 114.369 25.0793C114.172 25.03 113.979 24.9678 113.79 24.8933C113.642 24.8367 113.501 24.7627 113.37 24.6728C113.255 24.5956 113.148 24.5066 113.051 24.4071C112.943 24.2949 112.842 24.176 112.748 24.0511ZM114.38 19.6222L114.165 19.6859C114.083 19.7079 114.004 19.741 113.931 19.7842C113.853 19.8279 113.783 19.8825 113.721 19.9463C113.651 20.0153 113.599 20.1 113.57 20.1934C113.57 20.298 113.591 20.4015 113.633 20.4974C113.674 20.5934 113.735 20.6798 113.811 20.7513C113.978 20.9153 114.17 21.0516 114.38 21.1552V19.6222ZM115.254 22.4411C115.254 22.736 115.254 23.0282 115.254 23.3178C115.254 23.6074 115.254 23.8944 115.254 24.1813C115.38 24.1667 115.504 24.1363 115.623 24.091C115.772 24.0311 115.916 23.9601 116.054 23.8784C116.175 23.7848 116.26 23.6512 116.293 23.5011C116.306 23.4254 116.303 23.3476 116.284 23.2731C116.265 23.1985 116.231 23.1286 116.184 23.0681C116.04 22.9459 115.902 22.8369 115.769 22.7386C115.606 22.6255 115.434 22.526 115.254 22.4411Z" fill="white"/>
<path id="Vector_38" d="M116.38 13.8253C116.343 13.788 116.299 13.7584 116.251 13.7382C116.203 13.718 116.151 13.7076 116.099 13.7076C116.046 13.7076 115.994 13.718 115.946 13.7382C115.898 13.7584 115.854 13.788 115.817 13.8253L115.323 14.3168V12.3985C115.323 12.2928 115.281 12.1915 115.206 12.1168C115.131 12.042 115.03 12 114.924 12C114.818 12 114.717 12.042 114.642 12.1168C114.568 12.1915 114.526 12.2928 114.526 12.3985V14.354L114.034 13.8624C113.959 13.7885 113.858 13.747 113.753 13.747C113.647 13.747 113.546 13.7885 113.471 13.8624C113.397 13.9375 113.355 14.0387 113.355 14.1441C113.355 14.2495 113.397 14.3506 113.471 14.4257L114.624 15.5788C114.661 15.6163 114.704 15.646 114.753 15.6661C114.801 15.6861 114.853 15.6962 114.906 15.6957C114.958 15.6962 115.01 15.6861 115.058 15.6661C115.107 15.646 115.151 15.6163 115.187 15.5788L116.38 14.3885C116.454 14.3135 116.496 14.2123 116.496 14.1069C116.496 14.0015 116.454 13.9003 116.38 13.8253Z" fill="#D3EADD"/>
<path id="Vector (Stroke)" fill-rule="evenodd" clip-rule="evenodd" d="M156.396 88.1327C156.613 88.0989 156.817 88.2477 156.851 88.4652L161.859 120.647C161.893 120.865 161.744 121.069 161.527 121.103C161.309 121.136 161.106 120.987 161.072 120.77L156.063 88.5878C156.03 88.3703 156.178 88.1666 156.396 88.1327Z" fill="#5405BE"/>
<path id="Vector (Stroke)_2" fill-rule="evenodd" clip-rule="evenodd" d="M164.618 37.6662C164.696 37.4605 164.926 37.3571 165.132 37.4353C167.098 38.1825 169.01 39.32 170.424 40.2637C171.132 40.7367 171.719 41.1636 172.129 41.4726C172.335 41.6271 172.496 41.7523 172.606 41.8392C172.661 41.8826 172.704 41.9165 172.733 41.9397C172.747 41.9513 172.758 41.9602 172.766 41.9663L172.774 41.9734L172.778 41.976C172.778 41.9761 172.778 41.9761 172.525 42.2846L172.778 41.976C172.948 42.1154 172.973 42.3666 172.834 42.5369C172.694 42.7073 172.443 42.7324 172.273 42.593L172.506 42.3085C172.273 42.593 172.273 42.593 172.273 42.593L172.271 42.5914L172.264 42.5854C172.257 42.5801 172.247 42.5719 172.233 42.5611C172.206 42.5394 172.166 42.5071 172.113 42.4653C172.007 42.3817 171.85 42.2601 171.65 42.1093C171.249 41.8076 170.675 41.3898 169.981 40.9266C168.59 39.998 166.735 38.8971 164.849 38.1803C164.643 38.1022 164.54 37.872 164.618 37.6662Z" fill="#5405BE"/>
<path id="Vector (Stroke)_3" fill-rule="evenodd" clip-rule="evenodd" d="M166.108 50.6082C166.3 50.5014 166.543 50.5709 166.649 50.7634C167.424 52.1604 168.566 53.5829 169.523 54.6644C170.001 55.2032 170.429 55.6532 170.737 55.9683C170.891 56.1258 171.015 56.2495 171.101 56.3334C171.143 56.3754 171.176 56.4074 171.198 56.4288L171.223 56.4528L171.229 56.4586L171.231 56.4602C171.231 56.4602 171.231 56.4602 171.231 56.4602M166.108 50.6082C165.915 50.7149 165.846 50.9575 165.952 51.15L166.108 50.6082ZM165.952 51.15C166.769 52.6224 167.955 54.0958 168.927 55.1929L165.952 51.15ZM168.927 55.1929C169.414 55.7434 169.852 56.2033 170.167 56.5259L168.927 55.1929ZM170.167 56.5259C170.325 56.6872 170.453 56.8143 170.541 56.9014L170.167 56.5259ZM170.541 56.9014C170.586 56.945 170.62 56.9785 170.644 57.0013L170.541 56.9014ZM170.644 57.0013C170.655 57.0127 170.665 57.0215 170.671 57.0274L170.644 57.0013ZM170.671 57.0274L170.678 57.0343L170.671 57.0274ZM170.678 57.0343L170.68 57.0361L170.678 57.0343ZM170.68 57.0361L170.68 57.0367L170.68 57.0361ZM170.68 57.0367C170.68 57.0367 170.681 57.0369 170.956 56.7486L170.68 57.0367Z" fill="#5405BE"/>
<path id="Vector (Stroke)_4" fill-rule="evenodd" clip-rule="evenodd" d="M149.707 51.9094C149.885 52.0385 149.925 52.2877 149.796 52.4659C148.92 53.674 147.646 55.2494 146.596 56.5177C146.07 57.1529 145.598 57.7131 145.258 58.1145C145.088 58.3153 144.951 58.4763 144.856 58.5873C144.808 58.6428 144.772 58.6857 144.747 58.7148L144.709 58.7592C144.709 58.7592 144.708 58.7594 144.406 58.4995C144.104 58.2397 144.104 58.2397 144.104 58.2396L144.142 58.1961C144.166 58.1673 144.203 58.1247 144.25 58.0695C144.344 57.9593 144.481 57.7991 144.65 57.5992C144.989 57.1995 145.458 56.6417 145.982 56.0093C147.031 54.7423 148.291 53.1839 149.15 51.9982C149.279 51.82 149.529 51.7802 149.707 51.9094ZM144.146 58.8017C143.98 58.6582 143.961 58.4065 144.104 58.2396L144.406 58.4995L144.708 58.7594C144.565 58.9263 144.313 58.9452 144.146 58.8017Z" fill="#5405BE"/>
<path id="Vector (Stroke)_5" fill-rule="evenodd" clip-rule="evenodd" d="M127.691 57.9498C127.843 57.7907 128.095 57.785 128.254 57.9371L136.538 65.8566L137.671 64.5884C137.818 64.4243 138.07 64.4102 138.234 64.5568C138.398 64.7035 138.412 64.9554 138.265 65.1196L136.583 67.0024L127.703 58.5132C127.544 58.3611 127.538 58.1089 127.691 57.9498Z" fill="#5405BE"/>
<path id="Vector (Stroke)_6" fill-rule="evenodd" clip-rule="evenodd" d="M176.919 58.4566C177.093 58.5904 177.127 58.8406 176.993 59.0153L173.547 63.516C173.413 63.6908 173.163 63.724 172.988 63.5902C172.814 63.4564 172.78 63.2062 172.914 63.0315L176.36 58.5308C176.494 58.356 176.744 58.3228 176.919 58.4566Z" fill="#5405BE"/>
<path id="Vector (Stroke)_7" fill-rule="evenodd" clip-rule="evenodd" d="M177.147 59.0356C177.181 58.8181 177.385 58.6692 177.602 58.703L179.056 58.9289C179.273 58.9627 179.422 59.1664 179.388 59.3839C179.354 59.6013 179.151 59.7503 178.933 59.7165L177.48 59.4906C177.262 59.4568 177.114 59.2531 177.147 59.0356Z" fill="#5405BE"/>
<path id="Vector (Stroke)_8" fill-rule="evenodd" clip-rule="evenodd" d="M179.006 56.9223C179.133 57.1021 179.091 57.3508 178.911 57.4777L177.771 58.2828C177.591 58.4097 177.343 58.3669 177.216 58.1872C177.089 58.0074 177.131 57.7587 177.311 57.6317L178.451 56.8267C178.631 56.6997 178.879 56.7425 179.006 56.9223Z" fill="#5405BE"/>
<path id="Vector (Stroke)_9" fill-rule="evenodd" clip-rule="evenodd" d="M145.263 72.8646C145.483 72.8685 145.658 73.05 145.654 73.2701L145.55 79.1665H149.727C149.947 79.1665 150.125 79.3449 150.125 79.565C150.125 79.7851 149.947 79.9636 149.727 79.9636H144.738L144.857 73.256C144.861 73.0359 145.042 72.8607 145.263 72.8646Z" fill="#5405BE"/>
<path id="Vector (Stroke)_10" fill-rule="evenodd" clip-rule="evenodd" d="M144.503 13.1418L144.503 13.1421L144.503 13.1424L144.503 13.141C144.503 13.139 144.504 13.1352 144.504 13.1299C144.505 13.1191 144.507 13.102 144.51 13.0795C144.515 13.0344 144.525 12.9687 144.541 12.8907C144.574 12.7315 144.631 12.5363 144.722 12.3623C144.815 12.1875 144.928 12.0608 145.063 11.9934C145.189 11.9308 145.385 11.8935 145.701 11.9939C145.911 12.0604 146.135 11.9443 146.202 11.7345C146.268 11.5247 146.152 11.3007 145.942 11.2342C145.467 11.0835 145.053 11.1083 144.708 11.2801C144.373 11.447 144.156 11.727 144.017 11.9903C143.878 12.2543 143.802 12.5286 143.761 12.7293C143.74 12.8313 143.727 12.9182 143.719 12.9806C143.715 13.0119 143.712 13.0373 143.711 13.0557C143.71 13.0649 143.709 13.0723 143.709 13.0779L143.708 13.0848L143.708 13.0872L143.708 13.0881L143.708 13.0884C143.708 13.0886 143.708 13.0888 144.106 13.1152L143.708 13.0888C143.693 13.3084 143.86 13.4982 144.079 13.5128C144.298 13.5273 144.488 13.3617 144.503 13.1425C144.503 13.1423 144.503 13.1421 144.503 13.1418Z" fill="white"/>
<path id="Vector (Stroke)_11" fill-rule="evenodd" clip-rule="evenodd" d="M148.1 8.80252C147.908 8.91031 147.665 8.84237 147.557 8.65068C147.449 8.4589 147.517 8.21588 147.709 8.10788L147.904 8.45513C147.709 8.10788 147.709 8.10779 147.709 8.10771L147.71 8.10751L147.71 8.10707L147.712 8.10593L147.718 8.10275C147.723 8.10023 147.729 8.09692 147.737 8.09291C147.752 8.08488 147.773 8.07403 147.8 8.06102C147.853 8.03502 147.928 8.00025 148.023 7.9621C148.212 7.88602 148.481 7.79526 148.804 7.73466C149.449 7.61352 150.33 7.61023 151.214 8.10788C151.406 8.21588 151.473 8.4589 151.365 8.65068C151.257 8.84246 151.014 8.91037 150.823 8.80238C150.149 8.42327 149.473 8.41998 148.951 8.51803C148.69 8.56702 148.472 8.64065 148.321 8.70156C148.245 8.73191 148.187 8.75879 148.149 8.77731C148.13 8.78656 148.116 8.79369 148.108 8.79808C148.104 8.80028 148.101 8.80178 148.1 8.80253C148.099 8.80285 148.099 8.80303 148.099 8.80305L148.099 8.80287L148.1 8.80266L148.1 8.80252ZM148.099 8.80305C148.099 8.80306 148.099 8.80306 148.099 8.80305L148.099 8.80305Z" fill="white"/>
<path id="Vector (Stroke)_12" fill-rule="evenodd" clip-rule="evenodd" d="M153.074 7.22268L152.798 6.9351C152.64 7.08748 152.634 7.33975 152.787 7.49858C152.939 7.65677 153.189 7.66258 153.348 7.51205L153.353 7.50809C153.358 7.50357 153.367 7.49553 153.38 7.4847C153.407 7.46299 153.449 7.43036 153.506 7.39249C153.621 7.31647 153.792 7.2214 154.01 7.15015C154.436 7.01076 155.067 6.95413 155.856 7.35487C156.053 7.45446 156.292 7.37609 156.392 7.17982C156.492 6.98354 156.413 6.74369 156.217 6.64409C155.221 6.13885 154.37 6.19381 153.762 6.39251C153.463 6.49031 153.228 6.62091 153.066 6.7283C152.985 6.78214 152.921 6.83065 152.876 6.86716C152.854 6.88543 152.836 6.90076 152.823 6.91234C152.817 6.91813 152.811 6.92299 152.807 6.92682L152.802 6.93177L152.8 6.93364L152.799 6.93442L152.799 6.93477C152.799 6.93494 152.798 6.9351 153.074 7.22268Z" fill="white"/>
<path id="Vector (Stroke)_13" fill-rule="evenodd" clip-rule="evenodd" d="M157.876 117.735C157.938 117.524 158.159 117.403 158.37 117.465L159.454 117.784C159.666 117.846 159.786 118.067 159.724 118.278C159.662 118.49 159.441 118.61 159.23 118.548L158.146 118.229C157.934 118.167 157.814 117.946 157.876 117.735Z" fill="#5405BE"/>
<path id="Vector (Stroke)_14" fill-rule="evenodd" clip-rule="evenodd" d="M160.039 119.161C160.09 119.375 159.958 119.59 159.744 119.641L157.971 120.063C157.757 120.114 157.542 119.982 157.491 119.768C157.44 119.554 157.573 119.339 157.787 119.288L159.559 118.866C159.773 118.815 159.988 118.947 160.039 119.161Z" fill="#5405BE"/>
<path id="Vector (Stroke)_15" fill-rule="evenodd" clip-rule="evenodd" d="M147.131 97.1648C147.35 97.1517 147.539 97.3192 147.552 97.5389L148.586 114.861C148.599 115.081 148.431 115.27 148.212 115.283C147.992 115.296 147.803 115.129 147.79 114.909L146.757 97.5863C146.743 97.3666 146.911 97.1779 147.131 97.1648Z" fill="#5405BE"/>
<path id="Vector (Stroke)_16" fill-rule="evenodd" clip-rule="evenodd" d="M135.279 55.4083C135.494 55.4567 135.629 55.67 135.581 55.8847L135.365 56.8385C135.317 57.0532 135.104 57.188 134.889 57.1396C134.674 57.0912 134.54 56.8779 134.588 56.6632L134.803 55.7094C134.851 55.4947 135.065 55.3599 135.279 55.4083Z" fill="#5405BE"/>
<path id="Vector (Stroke)_17" fill-rule="evenodd" clip-rule="evenodd" d="M136.192 55.5887C136.408 55.5488 136.616 55.6919 136.656 55.9084L136.972 57.6247C137.012 57.8412 136.869 58.049 136.652 58.0889C136.436 58.1288 136.228 57.9856 136.188 57.7692L135.872 56.0528C135.832 55.8364 135.975 55.6286 136.192 55.5887Z" fill="#5405BE"/>
<path id="Vector_39" d="M43.1344 100.762C48.1955 100.762 53.1429 102.263 57.351 105.075C61.5592 107.887 64.839 111.883 66.7758 116.559C68.7126 121.235 69.2194 126.38 68.232 131.344C67.2446 136.308 64.8075 140.867 61.2288 144.446C57.65 148.025 53.0905 150.462 48.1266 151.449C43.1628 152.436 38.0176 151.93 33.3418 149.993C28.666 148.056 24.6695 144.776 21.8577 140.568C19.0459 136.36 17.5451 131.413 17.5451 126.351C17.5524 119.567 20.2508 113.063 25.0481 108.265C29.8454 103.468 36.3499 100.769 43.1344 100.762ZM43.1344 97.0889C37.3466 97.088 31.6885 98.8034 26.8757 102.018C22.0629 105.233 18.3115 109.803 16.096 115.15C13.8805 120.497 13.3003 126.381 14.4289 132.058C15.5575 137.734 18.3441 142.949 22.4364 147.042C26.5287 151.135 31.7428 153.922 37.4193 155.051C43.0958 156.181 48.9797 155.602 54.3271 153.387C59.6744 151.172 64.2448 147.422 67.4605 142.609C70.6761 137.797 72.3924 132.139 72.3924 126.351C72.3924 118.591 69.3094 111.147 63.8216 105.66C58.3338 100.172 50.8907 97.0889 43.1298 97.0889H43.1344Z" fill="#335076"/>
<path id="Vector_40" d="M43.1321 101.855C47.9773 101.854 52.7139 103.29 56.7429 105.982C60.7719 108.673 63.9124 112.498 65.7672 116.974C67.622 121.45 68.1078 126.376 67.1631 131.128C66.2184 135.88 63.8857 140.246 60.46 143.672C57.0343 147.098 52.6694 149.432 47.9175 150.377C43.1655 151.323 38.2398 150.838 33.7634 148.984C29.287 147.13 25.4609 143.99 22.769 139.962C20.0771 135.933 18.6403 131.197 18.6403 126.352C18.6463 119.858 21.2285 113.631 25.8202 109.039C30.4119 104.446 36.6379 101.863 43.1321 101.855ZM43.1321 98.3428C37.5925 98.3428 32.1772 99.9855 27.5711 103.063C22.9651 106.141 19.3751 110.515 17.2551 115.633C15.1352 120.751 14.5805 126.383 15.6612 131.816C16.742 137.249 19.4096 142.24 23.3267 146.157C27.2439 150.074 32.2346 152.742 37.6678 153.823C43.1011 154.903 48.7328 154.349 53.8508 152.229C58.9688 150.109 63.3432 146.519 66.4209 141.913C69.4985 137.307 71.1412 131.892 71.1412 126.352C71.1412 118.923 68.1903 111.799 62.9376 106.546C57.6848 101.294 50.5606 98.3428 43.1321 98.3428Z" fill="#335076"/>
<path id="Vector_41" d="M131.037 100.762C136.099 100.761 141.046 102.261 145.255 105.073C149.464 107.884 152.745 111.88 154.682 116.556C156.62 121.231 157.127 126.377 156.14 131.341C155.153 136.305 152.716 140.865 149.138 144.444C145.559 148.023 141 150.461 136.036 151.449C131.072 152.436 125.926 151.93 121.25 149.993C116.574 148.057 112.578 144.777 109.766 140.569C106.954 136.36 105.453 131.413 105.453 126.351C105.46 119.567 108.158 113.063 112.956 108.265C117.753 103.468 124.257 100.769 131.042 100.762M131.042 97.0889C125.254 97.0889 119.597 98.8051 114.784 102.021C109.972 105.236 106.222 109.806 104.007 115.153C101.792 120.5 101.212 126.384 102.342 132.06C103.471 137.737 106.258 142.951 110.35 147.043C114.443 151.136 119.657 153.923 125.333 155.052C131.009 156.181 136.893 155.601 142.24 153.387C147.587 151.172 152.157 147.421 155.373 142.609C158.588 137.797 160.305 132.139 160.305 126.351C160.305 122.509 159.548 118.703 158.077 115.153C156.606 111.603 154.451 108.377 151.734 105.66C149.016 102.942 145.791 100.787 142.24 99.3164C138.69 97.8458 134.885 97.0889 131.042 97.0889Z" fill="#335076"/>
<path id="Vector_42" d="M131.034 101.855C135.88 101.854 140.616 103.29 144.645 105.982C148.674 108.673 151.815 112.498 153.67 116.974C155.524 121.45 156.01 126.376 155.065 131.128C154.121 135.88 151.788 140.246 148.362 143.672C144.937 147.098 140.572 149.432 135.82 150.377C131.068 151.323 126.142 150.838 121.666 148.984C117.189 147.13 113.363 143.99 110.671 139.962C107.979 135.933 106.543 131.197 106.543 126.352C106.549 119.858 109.131 113.631 113.723 109.039C118.314 104.446 124.54 101.863 131.034 101.855ZM131.034 98.3428C125.495 98.3428 120.08 99.9855 115.473 103.063C110.867 106.141 107.277 110.515 105.157 115.633C103.038 120.751 102.483 126.383 103.564 131.816C104.644 137.249 107.312 142.24 111.229 146.157C115.146 150.074 120.137 152.742 125.57 153.823C131.003 154.903 136.635 154.349 141.753 152.229C146.871 150.109 151.246 146.519 154.323 141.913C157.401 137.307 159.044 131.892 159.044 126.352C159.044 118.923 156.093 111.799 150.84 106.546C145.587 101.294 138.463 98.3428 131.034 98.3428Z" fill="#335076"/>
<path id="Vector_43" d="M82.2671 131.986C83.1608 131.986 84.0343 132.251 84.7773 132.747C85.5203 133.244 86.0994 133.949 86.4414 134.775C86.7834 135.601 86.8729 136.509 86.6985 137.385C86.5242 138.262 86.0939 139.067 85.462 139.699C84.8301 140.331 84.025 140.761 83.1486 140.935C82.2722 141.11 81.3637 141.02 80.5381 140.678C79.7125 140.336 79.0069 139.757 78.5104 139.014C78.0139 138.271 77.749 137.398 77.749 136.504C77.7502 135.306 78.2266 134.158 79.0736 133.31C79.9207 132.463 81.0692 131.987 82.2671 131.986ZM82.2671 129.69C80.9195 129.69 79.602 130.09 78.4815 130.838C77.3609 131.587 76.4876 132.651 75.9718 133.896C75.4561 135.141 75.3211 136.512 75.5841 137.833C75.847 139.155 76.496 140.369 77.4489 141.322C78.4019 142.275 79.616 142.924 80.9378 143.187C82.2596 143.45 83.6297 143.315 84.8748 142.799C86.1199 142.284 87.1841 141.41 87.9328 140.29C88.6815 139.169 89.0812 137.852 89.0812 136.504C89.0818 135.609 88.9059 134.723 88.5637 133.896C88.2215 133.069 87.7196 132.317 87.0867 131.684C86.4539 131.052 85.7025 130.55 84.8755 130.207C84.0485 129.865 83.1621 129.689 82.2671 129.69Z" fill="#263238"/>
<path id="Vector_44" d="M43.1308 130.865C45.6236 130.865 47.6444 128.845 47.6444 126.352C47.6444 123.859 45.6236 121.838 43.1308 121.838C40.638 121.838 38.6172 123.859 38.6172 126.352C38.6172 128.845 40.638 130.865 43.1308 130.865Z" fill="#263238"/>
<path id="Vector_45" d="M131.035 130.866C133.528 130.866 135.549 128.845 135.549 126.352C135.549 123.859 133.528 121.838 131.035 121.838C128.542 121.838 126.521 123.859 126.521 126.352C126.521 128.845 128.542 130.866 131.035 130.866Z" fill="#263238"/>
<path id="Vector_46" d="M43.1295 123.211C43.4167 123.212 43.7025 123.252 43.9789 123.33H44.0294H44.0799L83.6462 131.219C84.9273 131.551 86.043 132.34 86.7842 133.437C87.5253 134.533 87.841 135.862 87.672 137.175C87.503 138.488 86.8609 139.694 85.8661 140.567C84.8714 141.44 83.5923 141.92 82.2687 141.917C81.8261 141.917 81.3852 141.863 80.9555 141.757L42.3351 129.359H42.3122H42.2846C41.5569 129.153 40.9281 128.69 40.514 128.057C40.0998 127.424 39.928 126.663 40.0302 125.914C40.1324 125.164 40.5018 124.477 41.0703 123.978C41.6389 123.478 42.3684 123.201 43.1249 123.197M43.1249 121.82C42.021 121.805 40.9498 122.194 40.1135 122.915C39.2773 123.636 38.7338 124.638 38.5857 125.732C38.4377 126.826 38.6953 127.936 39.3099 128.853C39.9246 129.77 40.8537 130.43 41.9219 130.709L80.5836 143.107C81.1359 143.247 81.7035 143.318 82.2733 143.318C83.9329 143.316 85.5349 142.709 86.7784 141.61C88.022 140.51 88.8216 138.995 89.0273 137.348C89.2331 135.702 88.8307 134.036 87.8957 132.665C86.9607 131.294 85.5575 130.311 83.9493 129.901L44.3463 121.985C43.9505 121.872 43.541 121.815 43.1295 121.815L43.1249 121.82Z" fill="#263238"/>
<path id="Vector_47" d="M82.2679 137.882C82.2021 137.886 82.1362 137.886 82.0704 137.882C81.8353 137.848 81.6128 137.754 81.4245 137.61C81.2362 137.465 81.0886 137.274 80.996 137.055L56.4811 78.9661C56.4109 78.7993 56.3742 78.6204 56.3731 78.4395C56.372 78.2586 56.4065 78.0792 56.4747 77.9117C56.543 77.7441 56.6435 77.5916 56.7707 77.4629C56.8978 77.3342 57.0491 77.2318 57.2158 77.1616C57.3825 77.0913 57.5615 77.0546 57.7424 77.0535C57.9233 77.0524 58.1027 77.0869 58.2702 77.1552C58.4378 77.2234 58.5903 77.3239 58.719 77.4511C58.8477 77.5782 58.9501 77.7295 59.0203 77.8962L82.6444 133.859L120.296 87.7866C120.531 87.5161 120.862 87.3478 121.219 87.3175C121.576 87.2872 121.931 87.3972 122.209 87.6243C122.486 87.8514 122.664 88.1776 122.704 88.5337C122.745 88.8898 122.645 89.2477 122.426 89.5315L83.3469 137.376C83.2163 137.536 83.0516 137.664 82.8648 137.752C82.6781 137.839 82.4741 137.884 82.2679 137.882Z" fill="#002454"/>
<path id="Vector_48" d="M43.1352 127.27C42.98 127.271 42.8272 127.232 42.6911 127.157C42.5551 127.082 42.4402 126.974 42.3572 126.843C42.2742 126.712 42.2258 126.562 42.2165 126.407C42.2072 126.252 42.2373 126.097 42.3041 125.957L60.7304 87.0567C60.7778 86.9414 60.8481 86.837 60.9372 86.7498C61.0262 86.6626 61.1321 86.5944 61.2484 86.5494C61.3646 86.5044 61.4888 86.4836 61.6133 86.4882C61.7379 86.4927 61.8602 86.5226 61.9729 86.576C62.0855 86.6293 62.1861 86.705 62.2686 86.7985C62.351 86.892 62.4135 87.0013 62.4524 87.1198C62.4912 87.2382 62.5055 87.3633 62.4944 87.4874C62.4834 87.6116 62.4472 87.7322 62.388 87.8419L43.9663 126.742C43.8922 126.9 43.7746 127.034 43.6275 127.127C43.4803 127.221 43.3095 127.27 43.1352 127.27Z" fill="#002454"/>
<path id="Vector_49" d="M131.036 127.729C130.729 127.73 130.432 127.628 130.19 127.44C129.948 127.252 129.775 126.989 129.7 126.692L118.643 83.6679L61.6789 88.8197C61.3136 88.8526 60.9502 88.739 60.6686 88.5039C60.387 88.2689 60.2103 87.9315 60.1774 87.5662C60.1446 87.2009 60.2582 86.8374 60.4932 86.5559C60.7283 86.2743 61.0656 86.0976 61.431 86.0647L119.561 80.8073C119.887 80.7773 120.213 80.8644 120.481 81.0529C120.748 81.2413 120.94 81.5189 121.021 81.8358L132.372 125.994C132.463 126.348 132.409 126.723 132.223 127.037C132.037 127.351 131.734 127.579 131.38 127.67C131.269 127.705 131.153 127.726 131.036 127.729Z" fill="#002454"/>
<path id="Vector_50" d="M119.684 83.5669C119.35 83.5704 119.027 83.4527 118.773 83.2356C118.52 83.0186 118.354 82.717 118.306 82.3869L116.667 71.018C116.614 70.6563 116.707 70.2884 116.925 69.9952C117.143 69.702 117.469 69.5075 117.831 69.4545C118.193 69.4015 118.56 69.4944 118.854 69.7127C119.147 69.931 119.341 70.2568 119.394 70.6185L121.061 81.992C121.087 82.1711 121.078 82.3536 121.033 82.529C120.988 82.7044 120.91 82.8693 120.801 83.0142C120.693 83.1592 120.557 83.2814 120.402 83.3739C120.246 83.4664 120.074 83.5273 119.895 83.5532C119.825 83.563 119.754 83.5676 119.684 83.5669Z" fill="#002454"/>
<path id="Vector_51" d="M113.132 74.5962C112.837 74.5947 112.552 74.4968 112.318 74.3175C112.085 74.1382 111.917 73.8874 111.84 73.6034C111.763 73.3195 111.781 73.0181 111.892 72.7454C112.002 72.4728 112.199 72.2438 112.452 72.0937L121.066 67.0429C121.373 66.8602 121.741 66.8072 122.087 66.8955C122.434 66.9837 122.731 67.2061 122.914 67.5136C123.097 67.8211 123.15 68.1885 123.062 68.5351C122.973 68.8817 122.751 69.179 122.443 69.3617L113.834 74.4125C113.621 74.5355 113.378 74.5989 113.132 74.5962Z" fill="#335076"/>
<path id="Vector_52" d="M48.2071 78.2133C50.6086 81.2713 60.7699 77.8551 63.8509 76.8358C66.9319 75.8165 73.9525 77.8551 72.901 75.4583C71.8496 73.0615 56.4262 74.0027 54.2819 73.1625C49.7407 71.3763 44.093 72.9559 48.2071 78.2133Z" fill="#335076"/>
<path id="Vector_53" d="M78.2081 152.061C78.0667 152.061 77.9271 152.028 77.8004 151.966C77.6736 151.903 77.563 151.812 77.4773 151.699C77.3915 151.587 77.3328 151.456 77.3059 151.317C77.2789 151.179 77.2844 151.035 77.3219 150.899L85.4399 121.618C85.5134 121.393 85.6708 121.206 85.8791 121.094C86.0875 120.983 86.3309 120.956 86.5586 121.019C86.7864 121.082 86.981 121.231 87.1019 121.434C87.2228 121.637 87.2607 121.879 87.2077 122.109L79.0897 151.372C79.0391 151.568 78.9253 151.742 78.7659 151.866C78.6065 151.991 78.4104 152.059 78.2081 152.061Z" fill="#263238"/>
<path id="Vector_54" d="M88.604 122.784H80.4906C80.247 122.784 80.0135 122.687 79.8412 122.515C79.669 122.343 79.5723 122.109 79.5723 121.866C79.5723 121.622 79.669 121.389 79.8412 121.216C80.0135 121.044 80.247 120.948 80.4906 120.948H88.604C88.8476 120.948 89.0812 121.044 89.2534 121.216C89.4256 121.389 89.5224 121.622 89.5224 121.866C89.5224 122.109 89.4256 122.343 89.2534 122.515C89.0812 122.687 88.8476 122.784 88.604 122.784Z" fill="#263238"/>
<path id="Vector 235 (Stroke)" fill-rule="evenodd" clip-rule="evenodd" d="M118.291 80.6771C118.314 80.9152 118.14 81.1273 117.902 81.1507L65.0383 86.3504C64.8001 86.3739 64.588 86.1998 64.5646 85.9616C64.5412 85.7235 64.7153 85.5114 64.9534 85.488L117.817 80.2882C118.055 80.2648 118.267 80.4389 118.291 80.6771Z" fill="white"/>
<path id="Vector 236 (Stroke)" fill-rule="evenodd" clip-rule="evenodd" d="M119.872 88.1864C120.056 88.3396 120.081 88.6128 119.928 88.7967L106.928 104.396C106.775 104.58 106.502 104.605 106.318 104.451C106.134 104.298 106.109 104.025 106.263 103.841L119.262 88.2419C119.415 88.058 119.688 88.0332 119.872 88.1864Z" fill="white"/>
<path id="Vector 237 (Stroke)" fill-rule="evenodd" clip-rule="evenodd" d="M81.0273 121.018C81.0273 120.778 81.2213 120.584 81.4607 120.584L88.8268 120.584C89.0662 120.584 89.2601 120.778 89.2601 121.018C89.2601 121.257 89.0662 121.451 88.8268 121.451L81.4607 121.451C81.2213 121.451 81.0273 121.257 81.0273 121.018Z" fill="white"/>
<path id="Vector 244 (Stroke)" fill-rule="evenodd" clip-rule="evenodd" d="M139.541 98.3692C139.605 98.1386 139.844 98.0036 140.075 98.0677C148.011 100.272 159.348 109.15 160.756 123.575C160.779 123.813 160.605 124.025 160.366 124.048C160.128 124.072 159.916 123.897 159.893 123.659C158.527 109.659 147.506 101.031 139.843 98.9027C139.612 98.8386 139.477 98.5998 139.541 98.3692Z" fill="white"/>
<path id="Vector 245 (Stroke)" fill-rule="evenodd" clip-rule="evenodd" d="M18.4104 110.558C18.2042 110.436 18.1356 110.171 18.2572 109.964C22.4391 102.872 33.4327 94.3832 47.7332 96.7577C47.9693 96.7969 48.1289 97.0201 48.0897 97.2562C48.0505 97.4922 47.8273 97.6518 47.5912 97.6126C33.7174 95.3089 23.0446 103.551 19.0037 110.405C18.8822 110.611 18.6165 110.679 18.4104 110.558Z" fill="white"/>
<path id="Vector 246 (Stroke)" fill-rule="evenodd" clip-rule="evenodd" d="M136.019 154.817C145.784 153.969 157.333 144.588 159.896 131.294C159.942 131.059 160.169 130.905 160.404 130.951C160.639 130.996 160.793 131.223 160.747 131.458C158.115 145.111 146.266 154.796 136.094 155.68C135.856 155.701 135.646 155.525 135.625 155.286C135.604 155.048 135.781 154.838 136.019 154.817Z" fill="white"/>
</g>
</svg>
