<svg width="28" height="28" viewBox="0 0 28 28" fill="none" xmlns="http://www.w3.org/2000/svg">
<path d="M25.6665 16.1585C25.5149 16.1585 25.3632 16.1235 25.2232 16.0301L22.3065 14.2801C20.7899 13.3701 18.8999 13.3701 17.3716 14.2801C15.2949 15.5285 12.7165 15.5285 10.6399 14.2801C9.1232 13.3701 7.23323 13.3701 5.70489 14.2801L2.78823 16.0301C2.36823 16.2751 1.83153 16.1468 1.58653 15.7268C1.34153 15.3068 1.46987 14.7701 1.88987 14.5251L4.80654 12.7751C6.8832 11.5268 9.46156 11.5268 11.5382 12.7751C13.0549 13.6851 14.9449 13.6851 16.4732 12.7751C18.5499 11.5268 21.1282 11.5268 23.2049 12.7751L26.1216 14.5251C26.5416 14.7701 26.6699 15.3068 26.4249 15.7268C26.2499 16.0068 25.9582 16.1585 25.6665 16.1585Z" fill="#002454"/>
<path d="M8.16648 7.99166C6.99981 7.99166 5.83313 7.67666 4.79479 7.05833L1.87813 5.30833C1.45813 5.06333 1.32982 4.52666 1.57482 4.10666C1.81982 3.69833 2.35648 3.55833 2.77648 3.80333L5.69315 5.55333C7.20982 6.46333 9.09979 6.46333 10.6281 5.55333C12.7048 4.30499 15.2831 4.30499 17.3598 5.55333C18.8765 6.46333 20.7665 6.46333 22.2948 5.55333L25.2115 3.80333C25.6315 3.55833 26.1682 3.68666 26.4132 4.10666C26.6582 4.51499 26.5298 5.06333 26.1098 5.30833L23.1931 7.05833C21.1165 8.30666 18.5381 8.30666 16.4615 7.05833C14.9448 6.14833 13.0548 6.14833 11.5265 7.05833C10.4998 7.67666 9.33314 7.99166 8.16648 7.99166Z" fill="#002454"/>
<path d="M25.6665 24.3254C25.5149 24.3254 25.3632 24.2904 25.2232 24.1971L22.3065 22.4471C20.7899 21.5371 18.8999 21.5371 17.3716 22.4471C15.2949 23.6954 12.7165 23.6954 10.6399 22.4471C9.1232 21.5371 7.23323 21.5371 5.70489 22.4471L2.78823 24.1971C2.36823 24.4421 1.83153 24.3138 1.58653 23.8938C1.34153 23.4738 1.46987 22.9371 1.88987 22.6921L4.80654 20.9421C6.8832 19.6938 9.46156 19.6938 11.5382 20.9421C13.0549 21.8521 14.9449 21.8521 16.4732 20.9421C18.5499 19.6938 21.1282 19.6938 23.2049 20.9421L26.1216 22.6921C26.5416 22.9371 26.6699 23.4738 26.4249 23.8938C26.2499 24.1738 25.9582 24.3254 25.6665 24.3254Z" fill="#002454"/>
</svg>
