<svg width="24" height="24" viewBox="0 0 24 24" fill="none" xmlns="http://www.w3.org/2000/svg">
<path d="M22 10V15C22 20 20 22 15 22H9C4 22 2 20 2 15V9C2 4 4 2 9 2H14" stroke="#667C98" stroke-width="1.5" stroke-linecap="round" stroke-linejoin="round"/>
<path d="M22 10H18C15 10 14 9 14 6V2L22 10Z" stroke="#667C98" stroke-width="1.5" stroke-linecap="round" stroke-linejoin="round"/>
<path d="M6.62174 15.7301C6.29174 14.7001 6.68174 13.4301 7.75174 13.0801C8.32174 12.9001 9.02174 13.0501 9.41174 13.6001C9.78174 13.0301 10.5117 12.9001 11.0717 13.0801C12.1517 13.4301 12.5317 14.7001 12.2117 15.7301C11.7017 17.3601 9.91174 18.2101 9.41174 18.2101C8.92174 18.2001 7.15174 17.3701 6.62174 15.7301Z" stroke="#667C98" stroke-width="1.5" stroke-linecap="round" stroke-linejoin="round"/>
</svg>
