<svg width="24" height="25" viewBox="0 0 24 25" fill="none" xmlns="http://www.w3.org/2000/svg">
<path d="M18.07 9.00989L9.51002 4.72989C3.76002 1.84989 1.40002 4.20989 4.28002 9.95989L5.15002 11.6999C5.40002 12.2099 5.40002 12.7999 5.15002 13.3099L4.28002 15.0399C1.40002 20.7899 3.75002 23.1499 9.51002 20.2699L18.07 15.9899C21.91 14.0699 21.91 10.9299 18.07 9.00989ZM14.84 13.2499H9.44002C9.03002 13.2499 8.69002 12.9099 8.69002 12.4999C8.69002 12.0899 9.03002 11.7499 9.44002 11.7499H14.84C15.25 11.7499 15.59 12.0899 15.59 12.4999C15.59 12.9099 15.25 13.2499 14.84 13.2499Z" fill="#667C98"/>
</svg>
