<svg width="40" height="55" viewBox="0 0 40 55" fill="none" xmlns="http://www.w3.org/2000/svg">
<g id="Group 37952">
<path id="Vector" d="M18.2997 47.1533C17.934 47.1533 17.6377 47.4492 17.6377 47.8143C17.6377 48.1794 17.934 48.4753 18.2997 48.4753C18.6653 48.4753 18.9617 48.1794 18.9617 47.8143C18.9617 47.4492 18.6653 47.1533 18.2997 47.1533Z" fill="#FF6961"/>
<path id="Vector_2" d="M3.88744 9.27331H4.1144V18.6073C4.1144 18.9331 4.37919 19.1975 4.70545 19.1975H12.144C12.4703 19.1975 12.7351 18.9331 12.7351 18.6073V9.27331H12.962C13.2883 9.27331 13.5531 9.00892 13.5531 8.68315V6.74348C13.5531 6.41771 13.2883 6.15332 12.962 6.15332H3.88744C3.56118 6.15332 3.29639 6.41771 3.29639 6.74348V8.68315C3.29639 9.00892 3.56118 9.27331 3.88744 9.27331ZM5.2965 9.27331H7.83408V18.0172H5.2965V9.27331ZM11.553 18.0172H9.0154V9.27331H11.553V18.0172ZM4.47849 7.33365H12.371V8.09299H12.3064C12.2551 8.07804 12.2008 8.07017 12.144 8.07017H4.70545C4.6495 8.07017 4.59512 8.07882 4.54311 8.09299H4.47849V7.33365Z" fill="#FF6961"/>
<path id="Vector_3" d="M15.3064 9.27331H15.5333V18.6073C15.5333 18.9331 15.7981 19.1975 16.1244 19.1975H23.563C23.8892 19.1975 24.154 18.9331 24.154 18.6073V9.27331H24.381C24.7072 9.27331 24.972 9.00892 24.972 8.68315V6.74348C24.972 6.41771 24.7072 6.15332 24.381 6.15332H15.3064C14.9801 6.15332 14.7153 6.41771 14.7153 6.74348V8.68315C14.7153 9.00892 14.9801 9.27331 15.3064 9.27331ZM16.7154 9.27331H19.253V18.0172H16.7154V9.27331ZM22.9719 18.0172H20.4343V9.27331H22.9719V18.0172ZM15.8974 7.33365H23.7899V8.09299H23.7253C23.6741 8.07804 23.6197 8.07017 23.563 8.07017H16.1244C16.0684 8.07017 16.0141 8.07882 15.9621 8.09299H15.8974V7.33365Z" fill="#FF6961"/>
<path id="Vector_4" d="M26.7248 9.27331H26.9518V18.6073C26.9518 18.9331 27.2166 19.1975 27.5429 19.1975H34.9814C35.3077 19.1975 35.5725 18.9331 35.5725 18.6073V9.27331H35.7995C36.1257 9.27331 36.3905 9.00892 36.3905 8.68315V6.74348C36.3905 6.41771 36.1257 6.15332 35.7995 6.15332H26.7248C26.3986 6.15332 26.1338 6.41771 26.1338 6.74348V8.68315C26.1338 9.00892 26.3986 9.27331 26.7248 9.27331ZM28.1339 9.27331H30.6715V18.0172H28.1339V9.27331ZM34.3904 18.0172H31.8528V9.27331H34.3904V18.0172ZM27.3159 7.33365H35.2084V8.09299H35.1438C35.0926 8.07804 35.0382 8.07017 34.9814 8.07017H27.5429C27.4869 8.07017 27.4325 8.07882 27.3805 8.09299H27.3159V7.33365Z" fill="#FF6961"/>
<path id="Vector_5" d="M3.88744 24.2811H4.1144V33.638C4.1144 33.9637 4.37919 34.2281 4.70545 34.2281H12.144C12.4703 34.2281 12.7351 33.9637 12.7351 33.638V24.2811H12.962C13.2883 24.2811 13.5531 24.0167 13.5531 23.691V21.7513C13.5531 21.4255 13.2883 21.1611 12.962 21.1611H3.88744C3.56118 21.1611 3.29639 21.4255 3.29639 21.7513V23.691C3.29639 24.0167 3.56118 24.2811 3.88744 24.2811ZM7.83408 24.2811V33.0478H5.2965V24.2811H7.83408ZM11.5538 28.6664V33.0486H9.01619V24.2819H11.5538V28.6672V28.6664ZM4.47928 22.3415H12.3718V23.1008H4.47928V22.3415Z" fill="#FF6961"/>
<path id="Vector_6" d="M15.3064 24.2811H15.5333V33.638C15.5333 33.9637 15.7981 34.2281 16.1244 34.2281H23.563C23.8892 34.2281 24.154 33.9637 24.154 33.638V24.2811H24.381C24.7072 24.2811 24.972 24.0167 24.972 23.691V21.7513C24.972 21.4255 24.7072 21.1611 24.381 21.1611H15.3064C14.9801 21.1611 14.7153 21.4255 14.7153 21.7513V23.691C14.7153 24.0167 14.9801 24.2811 15.3064 24.2811ZM16.7154 24.2811H19.253V33.0478H16.7154V24.2811ZM22.9719 33.0478H20.4343V24.2811H22.9719V33.0478ZM15.8974 22.3415H23.7899V23.1008H15.8974V22.3415Z" fill="#FF6961"/>
<path id="Vector_7" d="M26.7248 24.2811H26.9518V33.638C26.9518 33.9637 27.2166 34.2281 27.5429 34.2281H34.9814C35.3077 34.2281 35.5725 33.9637 35.5725 33.638V24.2811H35.7995C36.1257 24.2811 36.3905 24.0167 36.3905 23.691V21.7513C36.3905 21.4255 36.1257 21.1611 35.7995 21.1611H26.7248C26.3986 21.1611 26.1338 21.4255 26.1338 21.7513V23.691C26.1338 24.0167 26.3986 24.2811 26.7248 24.2811ZM30.6715 24.2811V33.0478H28.1339V24.2811H30.6715ZM34.3912 28.6649V33.0486H31.8536V24.2819H34.3912V28.6656V28.6649ZM27.3167 22.3415H35.2092V23.1008H27.3167V22.3415Z" fill="#FF6961"/>
<path id="Vector_8" d="M3.88902 41.5175H4.11598V48.4255C3.92448 48.7544 3.837 49.1565 3.87641 49.5712C3.90084 49.8285 3.97649 50.0512 4.04269 50.2479C4.06948 50.3282 4.09549 50.4045 4.11519 50.4777V50.8751C4.11519 51.0537 4.19557 51.2142 4.32088 51.322C4.33191 51.3433 4.34294 51.3637 4.35634 51.385C4.67472 51.902 5.25474 52.1302 5.80008 51.9523C5.90411 51.9185 6.04438 51.8398 6.18545 51.7336C6.49437 51.9822 6.87658 52.1388 7.2785 52.1671C7.57323 52.1876 7.86719 52.1388 8.1367 52.031C8.15719 52.0932 8.18005 52.1545 8.20684 52.2159C8.45508 52.7825 8.96733 53.1657 9.51267 53.1909C9.74909 53.2019 9.96502 53.1484 10.1565 53.0673C10.2818 53.2271 10.4402 53.36 10.6223 53.4513C10.8098 53.545 11.0132 53.5898 11.2149 53.5898C11.5553 53.5898 11.8911 53.4608 12.1338 53.2168C12.4711 52.8777 12.6003 52.341 12.4727 51.8162C12.4459 51.7068 12.4104 51.6022 12.3686 51.5022C12.382 51.4928 12.3946 51.4825 12.4072 51.4731C12.7288 51.2205 12.9258 50.8373 12.9345 50.4478C12.9408 50.1842 12.8675 49.9277 12.7351 49.7018V41.5175H12.962C13.2883 41.5175 13.5531 41.2531 13.5531 40.9273V38.9876C13.5531 38.6619 13.2883 38.3975 12.962 38.3975H3.88744C3.56118 38.3975 3.29639 38.6619 3.29639 38.9876V40.9273C3.29639 41.2531 3.56118 41.5175 3.88744 41.5175H3.88902ZM7.83566 47.1342C7.80572 47.1633 7.77656 47.1932 7.7474 47.2239C7.49679 47.0115 7.18945 46.8824 6.87501 46.8628C6.87501 46.8628 6.87422 46.8628 6.87343 46.8628C6.45418 46.8384 6.0365 47.0052 5.726 47.3223C5.70078 47.3475 5.67714 47.3734 5.65429 47.4002C5.58573 47.4805 5.52662 47.5654 5.47697 47.6551C5.43363 47.6536 5.39029 47.6551 5.34694 47.6567C5.34221 47.6567 5.33748 47.6567 5.33276 47.6567C5.32093 47.6567 5.30911 47.6575 5.29729 47.6591V41.5159H7.83487V47.1327L7.83566 47.1342ZM11.6215 50.5745C11.3875 50.5233 11.1448 50.6185 11.0092 50.8161C10.8729 51.0136 10.8697 51.2732 11.0013 51.4739C11.1377 51.6816 11.2779 51.8972 11.326 52.0947C11.3575 52.2246 11.3355 52.3465 11.2969 52.3851C11.2756 52.4071 11.2023 52.4205 11.1526 52.3953C11.0864 52.3623 11.0321 52.2671 11.0289 52.1789C11.021 51.9586 10.8902 51.7611 10.69 51.6667C10.6097 51.6289 10.5238 51.6108 10.4387 51.6108C10.311 51.6108 10.1841 51.6517 10.0793 51.7328C9.94217 51.8382 9.71363 52.0129 9.57729 52.0129C9.57493 52.0129 9.57257 52.0129 9.5702 52.0129C9.49139 52.009 9.36215 51.9059 9.29201 51.7446C9.19272 51.518 9.18011 51.2126 9.16829 50.9168C9.15725 50.6579 8.97994 50.4368 8.72933 50.3707C8.47872 50.3046 8.21472 50.4084 8.07681 50.628C7.93102 50.8609 7.63786 51.0088 7.36282 50.9907C7.08857 50.9719 6.81905 50.783 6.70715 50.532C6.60785 50.3085 6.3864 50.1779 6.1555 50.1818C6.07906 50.1834 6.00104 50.1999 5.92617 50.233C5.89859 50.2456 5.87337 50.2597 5.84815 50.2755C5.84027 50.2802 5.83318 50.2857 5.82609 50.2912C5.80954 50.303 5.79378 50.3148 5.7788 50.3274C5.77092 50.3345 5.76383 50.3416 5.75595 50.3486C5.74255 50.3612 5.72994 50.3754 5.71812 50.3888C5.71182 50.3966 5.70472 50.4037 5.69842 50.4124C5.6866 50.4281 5.67557 50.4446 5.66532 50.4612C5.66059 50.4683 5.65586 50.4753 5.65192 50.4824C5.63853 50.5068 5.62592 50.532 5.61567 50.5572C5.61489 50.5603 5.6141 50.5635 5.61252 50.5666C5.60385 50.5894 5.59676 50.613 5.59124 50.6374C5.58888 50.6461 5.58809 50.6555 5.58651 50.6642C5.58415 50.6768 5.581 50.6886 5.57942 50.7012C5.5345 50.746 5.46988 50.798 5.4226 50.8294C5.41078 50.8231 5.38713 50.805 5.36428 50.7681C5.36113 50.7633 5.35876 50.7555 5.3564 50.7468C5.3564 50.7452 5.3564 50.7429 5.35561 50.7413C5.34852 50.7098 5.343 50.6618 5.33749 50.6075C5.33039 50.5422 5.3233 50.469 5.30754 50.3856C5.30596 50.3746 5.30281 50.3644 5.30045 50.3534C5.26577 50.1763 5.21139 50.015 5.16332 49.8718C5.11052 49.7168 5.0656 49.5822 5.05378 49.461C5.03644 49.2753 5.08057 49.0951 5.16805 48.9763C5.17041 48.974 5.17278 48.9716 5.17436 48.9692C5.18302 48.9574 5.19169 48.948 5.19879 48.9393C5.20667 48.9307 5.21455 48.9212 5.224 48.9134C5.23425 48.9039 5.24607 48.8961 5.2571 48.889C5.25789 48.889 5.25947 48.8874 5.26025 48.8866C5.26656 48.8827 5.27286 48.8803 5.27917 48.8764C5.35403 48.8378 5.44387 48.8292 5.49825 48.8496C5.50771 48.8536 5.51638 48.8583 5.52347 48.8638C5.70788 49.0102 5.96242 49.033 6.17047 48.9212C6.37852 48.8095 6.49989 48.586 6.48019 48.3515C6.47703 48.3146 6.48964 48.2729 6.51249 48.2311C6.52747 48.2028 6.54717 48.1753 6.57239 48.1493C6.57239 48.1493 6.57239 48.1493 6.57318 48.1485C6.64095 48.0801 6.73158 48.0384 6.80251 48.0431C6.85215 48.0462 6.90417 48.069 6.95303 48.1045C6.97903 48.1233 7.00504 48.1454 7.02789 48.1713C7.09961 48.2548 7.13822 48.357 7.13034 48.4452C7.10434 48.7481 7.31317 49.0212 7.61264 49.0763C7.91211 49.1313 8.20448 48.9496 8.28801 48.6568C8.34948 48.4405 8.47006 48.143 8.69387 47.9518C8.85779 47.8125 9.0745 47.7504 9.23369 47.7984C9.35348 47.8338 9.44726 47.9636 9.43781 48.0407C9.40786 48.2831 9.53001 48.5191 9.74673 48.634C9.96266 48.7489 10.2275 48.719 10.4126 48.5585C10.7736 48.2453 10.9312 48.228 10.9651 48.2296C10.9674 48.2296 10.969 48.2296 10.9706 48.2296C10.9722 48.2296 10.9722 48.2296 10.9722 48.2296C10.9722 48.2296 11.0108 48.2532 11.0644 48.3539C11.1258 48.4704 11.1605 48.6018 11.1708 48.7355C11.185 48.9181 11.1519 49.1046 11.0691 49.2651C10.9856 49.4272 10.9808 49.6184 11.0581 49.7837C11.1345 49.9489 11.2835 50.0701 11.4616 50.111C11.4639 50.111 11.4663 50.1126 11.4694 50.1134C11.4868 50.1181 11.5041 50.1236 11.5215 50.1307C11.5262 50.133 11.5309 50.1354 11.5364 50.1378C11.5514 50.1448 11.5656 50.1519 11.5798 50.1614C11.5845 50.1645 11.5892 50.1684 11.594 50.1716C11.6074 50.181 11.6208 50.1913 11.6334 50.2023C11.6373 50.2062 11.6412 50.2094 11.6452 50.2133C11.6578 50.2251 11.6704 50.2385 11.6814 50.2519C11.7271 50.3062 11.7563 50.3667 11.7547 50.4234C11.7532 50.4903 11.6617 50.5768 11.6215 50.5768V50.5745ZM11.5546 47.2003C11.538 47.1909 11.5215 47.1822 11.5049 47.1744C11.1471 46.9942 10.7547 47.002 10.3315 47.198C10.1455 46.9509 9.8807 46.7565 9.57099 46.6645C9.39289 46.6117 9.20532 46.5921 9.01698 46.6039V41.5175H11.5546V47.2003ZM4.48007 39.577H12.3726V40.3363H4.48007V39.577Z" fill="#FF6961"/>
<path id="Vector_9" d="M26.5369 48.5609C25.9261 49.0983 26.0419 49.7483 26.1184 50.1779C26.1365 50.2786 26.1531 50.3738 26.1617 50.462C26.168 50.5241 26.1625 50.6099 26.1578 50.7004C26.142 50.9695 26.1184 51.3763 26.3903 51.7469C26.6306 52.0751 27.016 52.2702 27.4211 52.2702H27.4313C27.5409 52.2694 27.6488 52.2537 27.7528 52.2254C28.1012 52.6558 28.615 52.9202 29.1698 52.9225H29.1777C29.5883 52.9225 29.9854 52.7722 30.3046 52.5228C30.5891 52.7825 30.9548 52.9296 31.3212 52.9296C31.3267 52.9296 31.3323 52.9296 31.3378 52.9296C31.7302 52.9249 32.1187 52.751 32.4056 52.452C32.6649 52.6125 32.9675 52.7038 33.2811 52.7046H33.2859C33.7855 52.7046 34.2583 52.4732 34.5744 52.1018C34.9085 52.1931 35.234 52.2041 35.5358 52.1341C36.186 51.9822 36.6722 51.4259 36.6919 50.8105C36.7037 50.4289 36.5122 50.0418 36.1907 49.8018C36.1702 49.786 36.1489 49.7711 36.1276 49.7577C36.16 49.546 36.1552 49.3391 36.1127 49.1416C36.0386 48.7946 35.8384 48.4932 35.5728 48.2917V41.5175H35.7998C36.1261 41.5175 36.3909 41.2531 36.3909 40.9273V38.9876C36.3909 38.6619 36.1261 38.3975 35.7998 38.3975H26.7252C26.3989 38.3975 26.1342 38.6619 26.1342 38.9876V40.9273C26.1342 41.2531 26.3989 41.5175 26.7252 41.5175H26.9522V48.3028C26.7985 48.3681 26.6566 48.4554 26.5369 48.5609ZM35.2663 50.9852C35.0874 51.0269 34.8478 50.9782 34.5901 50.8475C34.4372 50.7696 34.2583 50.7625 34.0992 50.8271C33.94 50.8916 33.817 51.0222 33.7619 51.1843C33.698 51.3724 33.4837 51.5258 33.2843 51.5258H33.2835C33.0841 51.5258 32.8706 51.3708 32.8075 51.182C32.7137 50.9018 32.4285 50.7334 32.1377 50.7885C31.8476 50.8428 31.642 51.1033 31.6561 51.3976C31.6601 51.4731 31.6215 51.5612 31.5545 51.6336C31.4859 51.706 31.4 51.7501 31.3228 51.7509H31.3204C31.244 51.7509 31.1573 51.7092 31.0879 51.6399C31.017 51.5691 30.9753 51.4802 30.9768 51.4023C30.9816 51.1025 30.7601 50.8467 30.463 50.8082C30.437 50.805 30.411 50.8035 30.3858 50.8035C30.1186 50.8035 29.8798 50.9852 29.8129 51.2504C29.7451 51.5187 29.4551 51.7446 29.1777 51.7446H29.1753C28.8483 51.743 28.6103 51.47 28.5275 51.2174C28.4582 51.0057 28.2745 50.8507 28.0539 50.8176C27.8332 50.7846 27.6118 50.8782 27.4833 51.0608C27.4778 51.0686 27.4613 51.0923 27.4219 51.0923C27.4006 51.0899 27.3691 51.086 27.3438 51.0521C27.3233 51.0238 27.3328 50.8601 27.3383 50.772C27.3454 50.6469 27.3541 50.5052 27.3383 50.351C27.3249 50.2165 27.3021 50.0874 27.2824 49.9741C27.2091 49.5625 27.228 49.5287 27.3186 49.4485C27.3848 49.3902 27.4778 49.3587 27.5511 49.3556C27.5527 49.3556 27.555 49.3556 27.5566 49.3556C27.5676 49.3556 27.5779 49.3556 27.5873 49.3564C27.5905 49.3564 27.5929 49.3564 27.596 49.3572C27.6055 49.3587 27.6141 49.3603 27.622 49.3635C27.6244 49.3635 27.6268 49.365 27.6291 49.3658C27.6386 49.3698 27.6472 49.3745 27.6535 49.38C27.8356 49.5405 28.0964 49.5704 28.31 49.4626C28.3242 49.4555 28.3384 49.45 28.3518 49.4414C28.4511 49.3808 28.5259 49.2942 28.574 49.1951C28.5795 49.1841 28.5866 49.173 28.5913 49.1612C28.5913 49.1597 28.5921 49.1581 28.5929 49.1565C28.615 49.1007 28.6292 49.0424 28.6339 48.9818C28.6386 48.9197 28.6339 48.8567 28.6181 48.7938C28.5141 48.3783 28.4377 47.9644 28.5882 47.7527C28.6725 47.6339 28.8695 47.5709 29.0366 47.6087C29.2273 47.652 29.4125 47.8157 29.5079 48.0242C29.5213 48.0533 29.537 48.0816 29.5544 48.1076C29.5552 48.1092 29.5559 48.1108 29.5575 48.1123C29.5599 48.1155 29.5623 48.1186 29.5646 48.1218C29.6954 48.3059 29.924 48.4019 30.1517 48.3594C30.1549 48.3594 30.158 48.3586 30.1604 48.3578C30.3133 48.3271 30.4425 48.239 30.5276 48.1186C30.53 48.1155 30.5331 48.1123 30.5355 48.1084C30.5442 48.095 30.5513 48.0808 30.5592 48.0675C30.5662 48.0549 30.5749 48.0423 30.5812 48.0289C30.5867 48.0171 30.5899 48.0045 30.5954 47.9919C30.6017 47.9754 30.6088 47.9597 30.6143 47.9424C30.623 47.9125 30.6293 47.8818 30.6332 47.8503C30.6466 47.8432 30.6624 47.8369 30.6726 47.8385C30.7656 47.8527 30.8807 47.9683 30.9445 48.1139C31.0399 48.3303 31.0619 48.6183 31.084 48.8968C31.1021 49.1313 31.259 49.3328 31.482 49.4091C31.6404 49.4634 31.8106 49.4453 31.9532 49.369C31.9611 49.365 31.9698 49.3611 31.9777 49.3572C31.9816 49.3548 31.9856 49.3517 31.9895 49.3485C32.0336 49.321 32.0746 49.2871 32.1109 49.2478C32.3252 49.0117 32.6665 48.7757 32.9762 48.8205C33.0014 48.8245 33.0274 48.8323 33.0526 48.8433C33.129 48.878 33.2039 48.9448 33.2465 49.0212C33.2622 49.0495 33.2764 49.0857 33.2772 49.114C33.2772 49.1235 33.2764 49.1321 33.2733 49.14C33.1519 49.4178 33.2607 49.7427 33.5254 49.8907C33.5459 49.9025 33.5672 49.9119 33.5877 49.9206C33.594 49.9229 33.5995 49.9253 33.6058 49.9277C33.6224 49.934 33.6397 49.9395 33.6563 49.9442C33.6618 49.9458 33.6665 49.9473 33.672 49.9489C33.6941 49.9544 33.7154 49.9584 33.7374 49.9615C33.7414 49.9615 33.7445 49.9615 33.7485 49.9623C33.7674 49.9647 33.7855 49.9654 33.8044 49.9654C33.8076 49.9654 33.8107 49.9654 33.8139 49.9654C33.817 49.9654 33.8202 49.9654 33.8233 49.9654C33.8399 49.9654 33.8564 49.9639 33.8722 49.9623C33.8769 49.9623 33.8824 49.9623 33.8872 49.9607C33.9084 49.9584 33.9289 49.9544 33.9494 49.9497C33.9534 49.9489 33.9573 49.9473 33.962 49.9466C33.9786 49.9426 33.9943 49.9371 34.0101 49.9316C34.0164 49.9292 34.0227 49.9269 34.029 49.9245C34.0432 49.919 34.0574 49.9127 34.0716 49.9056C34.0771 49.9033 34.0826 49.9009 34.0881 49.8978C34.107 49.8883 34.1252 49.8773 34.1425 49.8655C34.1449 49.8639 34.1472 49.8616 34.1496 49.86C34.1646 49.8498 34.1795 49.8387 34.1937 49.8262C34.1992 49.8214 34.204 49.8175 34.2095 49.8128C34.2213 49.8026 34.2323 49.7915 34.2434 49.7797C34.2481 49.775 34.2528 49.7703 34.2576 49.7648C34.2717 49.7483 34.2859 49.7309 34.2993 49.7128C34.6477 49.2155 34.8029 49.2092 34.8313 49.214H34.8328C34.8667 49.2226 34.9369 49.2919 34.9574 49.3871C34.9873 49.5256 34.9471 49.7113 34.8455 49.908C34.7351 50.1205 34.7651 50.3793 34.9203 50.5611C35.0622 50.7279 35.2836 50.8011 35.4948 50.7555C35.5019 50.7625 35.5074 50.772 35.5106 50.7783C35.5019 50.8491 35.3955 50.9522 35.2679 50.9821L35.2663 50.9852ZM34.3915 48.106C34.3844 48.1084 34.3781 48.1115 34.371 48.1147C34.3387 48.1265 34.3072 48.1391 34.2765 48.1532C34.2654 48.158 34.2544 48.1627 34.2442 48.1682C34.2055 48.1871 34.1677 48.2067 34.1307 48.228C34.0999 48.1894 34.0668 48.1525 34.033 48.117C33.7934 47.87 33.4774 47.7 33.1464 47.652C33.1038 47.6457 33.0605 47.641 33.0179 47.6386C33.0037 47.6378 32.9888 47.6378 32.9746 47.637C32.9486 47.6355 32.9218 47.6339 32.8958 47.6339C32.8934 47.6339 32.8911 47.6339 32.8887 47.6339C32.8808 47.6339 32.8721 47.6339 32.8643 47.6339C32.8319 47.6339 32.7996 47.6363 32.7681 47.6378C32.7555 47.6386 32.7437 47.6402 32.7311 47.641C32.7011 47.6441 32.6704 47.6473 32.6404 47.652C32.6302 47.6536 32.62 47.6544 32.6089 47.6567C32.5687 47.663 32.5285 47.6709 32.4883 47.6795C32.4852 47.6803 32.4813 47.6811 32.4781 47.6819C32.4419 47.6906 32.4056 47.7 32.3693 47.711C32.3583 47.7142 32.3465 47.7181 32.3355 47.7212C32.3055 47.7307 32.2756 47.7409 32.2464 47.7511C32.2354 47.7551 32.2243 47.759 32.2133 47.7629C32.1739 47.7779 32.1345 47.7936 32.0959 47.8117C32.0762 47.7535 32.0533 47.6953 32.0281 47.637C31.9706 47.5056 31.8997 47.3845 31.8185 47.2759C31.8421 47.2121 31.8555 47.1429 31.8555 47.0713V41.5167H34.3931V48.1045L34.3915 48.106ZM27.317 39.5786H35.2095V40.3379H27.317V39.5786ZM30.6726 41.5182V46.6589C30.6624 46.6589 30.6514 46.6589 30.6411 46.6589C30.4346 46.6645 30.2274 46.7235 30.0445 46.8273C29.827 46.6479 29.5725 46.5189 29.3014 46.4575C29.2557 46.4473 29.2092 46.4394 29.1635 46.4323C29.1485 46.43 29.1343 46.4292 29.1194 46.4276C29.087 46.4237 29.0547 46.4213 29.0232 46.4197C29.0067 46.419 28.9909 46.4182 28.9751 46.4174C28.942 46.4166 28.9089 46.4174 28.8758 46.4174C28.8624 46.4174 28.849 46.4174 28.8357 46.419C28.7899 46.4213 28.745 46.426 28.7001 46.4323C28.693 46.4331 28.6851 46.4347 28.678 46.4363C28.6402 46.4418 28.6032 46.4489 28.5661 46.4575C28.5519 46.4607 28.5378 46.4646 28.5236 46.4685C28.4928 46.4764 28.4621 46.4851 28.4322 46.4945C28.418 46.4992 28.4038 46.5031 28.3896 46.5087C28.3565 46.5197 28.3242 46.5323 28.2919 46.5464C28.2824 46.5504 28.2722 46.5543 28.2627 46.5582C28.2217 46.5763 28.1816 46.596 28.1421 46.6172C28.1406 46.618 28.1382 46.6188 28.1366 46.6204V41.5198H30.6742L30.6726 41.5182Z" fill="#FF6961"/>
<path id="Vector_10" d="M39.0976 0H0.591051C0.264791 0 0 0.264392 0 0.590162V3.51816C0 3.84393 0.264791 4.10832 0.591051 4.10832H1.08911V54.4098C1.08911 54.7356 1.3539 55 1.68016 55H38.0093C38.3356 55 38.6004 54.7356 38.6004 54.4098V4.1091H39.0984C39.4247 4.1091 39.6895 3.84471 39.6895 3.51894V0.59095C39.6895 0.26518 39.4247 0.000787051 39.0984 0.000787051L39.0976 0ZM1.18131 1.18032H38.5066V2.92799H1.18131V1.18032ZM15.8977 40.3364V39.5771H23.7902V40.3364H15.8977ZM16.7157 41.5168H22.9722V53.7134H16.7157V41.5168ZM37.4175 53.8197H24.1543V41.5168H24.3813C24.7075 41.5168 24.9723 41.2524 24.9723 40.9266V38.9869C24.9723 38.6612 24.7075 38.3968 24.3813 38.3968H15.3067C14.9804 38.3968 14.7156 38.6612 14.7156 38.9869V40.9266C14.7156 41.2524 14.9804 41.5168 15.3067 41.5168H15.5336V53.8197H2.27042V36.2871H37.4175V53.8197ZM37.4175 35.1068H2.27042V4.1091H37.4175V35.1068Z" fill="#FF6961"/>
</g>
</svg>
