<svg width="28" height="28" viewBox="0 0 28 28" fill="none" xmlns="http://www.w3.org/2000/svg">
<path fill-rule="evenodd" clip-rule="evenodd" d="M1.39941 7.00059C1.39941 4.29439 3.59322 2.10059 6.29941 2.10059H21.6994C24.4056 2.10059 26.5994 4.29439 26.5994 7.00059V21.0006C26.5994 23.7068 24.4056 25.9006 21.6994 25.9006H6.29941C3.59322 25.9006 1.39941 23.7068 1.39941 21.0006V7.00059ZM6.29941 3.50059C4.36642 3.50059 2.79941 5.06759 2.79941 7.00059V21.0006C2.79941 22.9336 4.36642 24.5006 6.29941 24.5006H21.6994C23.6324 24.5006 25.1994 22.9336 25.1994 21.0006V7.00059C25.1994 5.06759 23.6324 3.50059 21.6994 3.50059H6.29941Z" fill="#002454"/>
<path fill-rule="evenodd" clip-rule="evenodd" d="M3.49902 7.0002C3.49902 5.4538 4.75263 4.2002 6.29902 4.2002H21.699C23.2454 4.2002 24.499 5.4538 24.499 7.0002V21.0002C24.499 22.5466 23.2454 23.8002 21.699 23.8002H6.29902C4.75263 23.8002 3.49902 22.5466 3.49902 21.0002V7.0002ZM6.29902 5.6002C5.52583 5.6002 4.89902 6.227 4.89902 7.0002V21.0002C4.89902 21.7734 5.52582 22.4002 6.29902 22.4002H21.699C22.4722 22.4002 23.099 21.7734 23.099 21.0002V7.0002C23.099 6.227 22.4722 5.6002 21.699 5.6002H6.29902Z" fill="#002454"/>
<path fill-rule="evenodd" clip-rule="evenodd" d="M13.2988 23.1004V4.90039H14.6988V23.1004H13.2988Z" fill="#002454"/>
<path fill-rule="evenodd" clip-rule="evenodd" d="M4.19922 13.6504H23.7992V15.0504H4.19922V13.6504Z" fill="#002454"/>
<path fill-rule="evenodd" clip-rule="evenodd" d="M16.4776 14.9214C16.6659 14.8365 16.8864 14.8699 17.0411 15.0067L19.7131 17.3687L23.6962 16.5748C23.9351 16.5272 24.1754 16.6502 24.2765 16.8718C24.3776 17.0935 24.3129 17.3555 24.1203 17.5047L21.9107 19.2161L22.3078 20.5618C22.3629 20.7485 22.3102 20.9503 22.1708 21.0862C22.0315 21.2221 21.8283 21.2698 21.6431 21.21L21.0112 21.0061L20.8048 21.6054C20.751 21.7616 20.6269 21.8834 20.4697 21.9341L17.4779 22.8996C17.2933 22.9592 17.0908 22.9121 16.9515 22.7772L14.3337 20.2427C14.1368 20.0522 14.1196 19.7423 14.2941 19.5311L16.1684 17.2629V15.4C16.1684 15.1935 16.2894 15.0062 16.4776 14.9214ZM17.2184 16.5648V17.4517C17.2184 17.5738 17.1758 17.692 17.0981 17.7861L15.4126 19.8259L17.4554 21.8036L19.8974 21.0155L20.186 20.1774C20.2791 19.907 20.5715 19.7608 20.8436 19.8487L21.0194 19.9054L20.8022 19.1693C20.7409 18.9618 20.8132 18.7381 20.9842 18.6056L21.7137 18.0406L19.6631 18.4494C19.5023 18.4814 19.3357 18.4365 19.2128 18.3278L17.2184 16.5648Z" fill="#002454"/>
<path fill-rule="evenodd" clip-rule="evenodd" d="M18.6053 17.5651L21.6487 14.0087L22.4464 14.6914L19.4031 18.2478L18.6053 17.5651Z" fill="#002454"/>
</svg>
