<svg width="109" height="108" viewBox="0 0 109 108" fill="none" xmlns="http://www.w3.org/2000/svg">
<g id="vuesax/outline/close-circle">
<g id="close-circle">
<path id="Vector" d="M54.3311 102.375C27.6461 102.375 5.95605 80.685 5.95605 54C5.95605 27.315 27.6461 5.625 54.3311 5.625C81.0161 5.625 102.706 27.315 102.706 54C102.706 80.685 81.0161 102.375 54.3311 102.375ZM54.3311 12.375C31.3811 12.375 12.7061 31.05 12.7061 54C12.7061 76.95 31.3811 95.625 54.3311 95.625C77.2811 95.625 95.9561 76.95 95.9561 54C95.9561 31.05 77.2811 12.375 54.3311 12.375Z" fill="#DF3636"/>
<path id="Vector_2" d="M41.5962 70.1101C40.7412 70.1101 39.8862 69.7951 39.2112 69.1201C37.9062 67.8151 37.9062 65.6551 39.2112 64.3501L64.6812 38.8801C65.9862 37.5751 68.1462 37.5751 69.4512 38.8801C70.7562 40.1851 70.7562 42.3451 69.4512 43.6501L43.9812 69.1201C43.3512 69.7951 42.4512 70.1101 41.5962 70.1101Z" fill="#DF3636"/>
<path id="Vector_3" d="M67.0662 70.1101C66.2112 70.1101 65.3562 69.7951 64.6812 69.1201L39.2112 43.6501C37.9062 42.3451 37.9062 40.1851 39.2112 38.8801C40.5162 37.5751 42.6762 37.5751 43.9812 38.8801L69.4512 64.3501C70.7562 65.6551 70.7562 67.8151 69.4512 69.1201C68.7762 69.7951 67.9212 70.1101 67.0662 70.1101Z" fill="#DF3636"/>
</g>
</g>
</svg>
