<svg width="160" height="75" viewBox="0 0 160 75" fill="none" xmlns="http://www.w3.org/2000/svg">
<path d="M32.5173 47.53H31.4043C30.6724 47.53 30.1008 47.3311 29.77 46.9133L25.0623 41.5029V46.3713C25.0623 47.1123 24.6462 47.525 23.8992 47.525H22.711C21.964 47.525 21.5479 47.1123 21.5479 46.3713V31.1097C21.5479 30.3688 21.964 29.9561 22.711 29.9561H23.8992C24.6462 29.9561 25.0623 30.3688 25.0623 31.1097V40.4089L29.7549 35.7544C30.0858 35.3665 30.6423 35.1875 31.3743 35.1875H32.387C33.4749 35.1875 33.9161 35.7792 33.3095 36.4157L28.667 40.9211L33.4749 46.2818C34.0214 46.9631 33.5802 47.53 32.5173 47.53Z" fill="#FF6961"/>
<path d="M47.7282 39.7825V43.9248C47.7282 46.5355 46.5249 47.5251 43.8076 47.5251H40.9349C37.8466 47.5251 35.9615 46.7096 35.9615 43.7607C35.9615 40.7969 37.8617 39.9814 40.9349 39.9814H44.2137V39.7825C44.2137 38.4 43.1108 37.7983 41.2658 37.7983C40.3533 37.7983 39.1802 37.9475 38.002 38.1862C37.2049 38.3354 36.7236 37.9723 36.7236 37.1717V36.7092C36.7236 36.018 37.1146 35.5655 37.9369 35.4064C39.3156 35.1179 40.6592 34.9688 41.7722 34.9688C45.1964 34.9638 47.7282 36.4109 47.7282 39.7825ZM44.2087 43.7508V42.4827H41.1104C39.5813 42.4827 39.2604 42.8358 39.2604 43.7607C39.2604 44.6757 39.5763 45.0288 41.0953 45.0288H42.9403C44.0332 45.0288 44.2087 44.5912 44.2087 43.7508Z" fill="#FF6961"/>
<path d="M63.3151 40.7771V46.3765C63.3151 47.1174 62.899 47.5302 62.152 47.5302H60.9638C60.2168 47.5302 59.8007 47.1174 59.8007 46.3765V40.7274C59.8007 38.5194 58.9885 37.9028 57.0934 37.9028C55.1983 37.9028 54.3862 38.5194 54.3862 40.7274V46.3765C54.3862 47.1174 53.97 47.5302 53.223 47.5302H52.0348C51.2878 47.5302 50.8717 47.1174 50.8717 46.3765V40.7771C50.8717 36.2717 53.1629 34.9639 57.0984 34.9639C61.034 34.9639 63.3151 36.2717 63.3151 40.7771Z" fill="#FF6961"/>
<path d="M78.511 38.9072V47.9428C78.511 51.2697 75.8789 52.7764 72.4748 52.7764C71.3969 52.7764 70.2338 52.6272 69.0606 52.3239C68.3888 52.1598 68.073 51.7073 68.073 51.031V50.5685C68.073 49.7529 68.5543 49.3899 69.3614 49.564C70.3341 49.7778 71.2465 49.917 72.0938 49.917C73.8034 49.917 74.9916 49.3501 74.9916 47.9478V47.6843C74.3699 47.734 73.7783 47.7588 73.2218 47.7588C68.7949 47.7588 66.1628 46.1526 66.1628 41.3688C66.1628 36.5849 68.7949 34.9688 73.2218 34.9688C76.9167 34.9638 78.511 36.0926 78.511 38.9072ZM74.9916 44.6807V39.4344C74.9916 38.405 74.791 37.9027 72.9812 37.9027C70.6649 37.9027 69.6773 38.768 69.6773 41.3688C69.6773 43.9646 70.6649 44.8199 73.0163 44.8199C73.5878 44.8149 74.2446 44.7652 74.9916 44.6807Z" fill="#FF6961"/>
<path d="M91.7213 35.1924H92.9095C93.6565 35.1924 94.0726 35.6051 94.0726 36.3461V41.9455C94.0726 46.4508 91.7815 47.7587 87.8459 47.7587C83.9103 47.7587 81.6191 46.4558 81.6191 41.9455V36.3461C81.6191 35.6051 82.0353 35.1924 82.7823 35.1924H83.9705C84.7175 35.1924 85.1336 35.6051 85.1336 36.3461V41.9952C85.1336 44.2031 85.9408 44.8198 87.8409 44.8198C89.741 44.8198 90.5481 44.2031 90.5481 41.9952V36.3461C90.5582 35.6051 90.9743 35.1924 91.7213 35.1924Z" fill="#FF6961"/>
<path d="M104.842 36.2218V36.9478C104.842 37.6888 104.401 38.1015 103.563 38.1164C100.906 38.1562 100.791 38.38 100.791 39.3198V46.3713C100.791 47.1122 100.375 47.525 99.6277 47.525H98.3743C97.6273 47.525 97.2112 47.1122 97.2112 46.3713V38.8176C97.2112 35.9433 98.249 35.1675 103.603 35.078C104.411 35.0631 104.842 35.4659 104.842 36.2218Z" fill="#FF6961"/>
<path d="M106.536 41.3639C106.536 37.2862 108.802 34.9639 112.938 34.9639C117.075 34.9639 119.341 37.2862 119.341 41.3639C119.341 45.4316 117.075 47.7539 112.938 47.7539C108.802 47.7539 106.536 45.4316 106.536 41.3639ZM115.776 41.3639C115.776 38.9272 114.839 37.8978 112.943 37.8978C111.048 37.8978 110.111 38.9272 110.111 41.3639C110.111 43.7757 111.048 44.815 112.943 44.815C114.839 44.815 115.776 43.7757 115.776 41.3639Z" fill="#FF6961"/>
<path d="M146.554 16.8179L142.127 11.1389C142.027 11.0096 141.821 11.0295 141.746 11.1737C141.465 11.7158 140.999 12.9341 141.535 14.3165L146.554 16.8179Z" fill="#FF6961"/>
<path d="M152.164 22.3281L149.873 19.7571C148.975 18.7526 147.887 17.9172 146.664 17.3105L137.936 12.9593C137.75 12.8648 137.53 12.9941 137.525 13.193C137.515 14.4909 138.036 18.315 144.548 18.4791C143.942 18.4642 143.09 19.3444 142.779 19.7273C142.002 20.6771 141.931 21.8855 141.51 22.9745C141.099 24.0387 140.237 24.9686 139.395 25.7593C137.449 27.5843 137.149 27.7584 134.652 28.7878C134.652 28.7878 134.351 28.927 133.92 29.1309C133.905 29.1359 133.89 29.1408 133.88 29.1458C132.987 29.4889 132.125 29.9166 131.318 30.4139C129.709 31.4134 128.29 32.7163 127.262 34.2728C124.755 38.072 124.124 43.4178 123.036 47.5402C122.138 50.9516 119.025 53.3833 108.471 52.8114C108.261 52.8015 108.216 53.0849 108.421 53.1297C118.147 55.2879 125.532 55.457 127.583 51.1008C127.678 50.8571 127.773 50.6134 127.864 50.3648C128.26 49.3106 128.581 48.3309 128.846 47.4159C128.982 47.4855 129.122 47.5502 129.277 47.6049C129.262 47.6546 129.247 47.7044 129.232 47.7591C128.946 48.6741 128.581 49.6736 128.169 50.7378C127.869 51.603 128.064 52.0158 128.931 52.0705C128.992 52.0755 129.062 52.0755 129.132 52.0755L131.062 52.0556C130.987 52.2595 130.917 52.4633 130.837 52.6672C130.461 53.7961 130.701 54.3381 131.794 54.4077C131.874 54.4177 131.955 54.4177 132.045 54.4177H147.11C147.125 54.3828 147.125 54.3779 147.145 54.3431L146.649 53.8856C145.446 52.7567 143.801 52.0655 141.987 52.0655C141.926 52.0655 141.866 52.0655 141.801 52.0655C139.224 52.1103 133.273 53.0004 134.181 52.0655C134.191 52.0506 134.201 52.0406 134.211 52.0257C134.211 52.0257 140.061 51.971 140.066 51.9661L139.615 51.5633C138.653 50.698 137.449 50.2703 136 50.2703C135.95 50.2703 135.905 50.2703 135.855 50.2703C135.75 50.2703 135.639 50.2753 135.524 50.2803C135.75 49.9421 135.965 49.6089 136.161 49.2658C136.657 48.4105 137.063 47.5452 137.394 46.6601C140.142 46.0633 142.448 44.5715 143.862 42.5824C142.914 43.199 140.337 42.9304 137.56 41.8364C134.321 40.5634 132.045 38.6638 132.471 37.5946C132.506 37.5051 132.556 37.4305 132.626 37.3559C132.626 38.1864 133.87 39.36 135.76 40.3893C135.905 40.27 136.096 40.1109 136.346 39.8871C137.008 39.2903 137.765 38.5295 138.096 37.9377C138.171 37.8035 138.241 37.6642 138.307 37.525C138.407 37.3062 138.492 37.0774 138.567 36.8437C138.592 36.784 138.617 36.7343 138.643 36.6796C138.653 36.6548 138.668 36.6299 138.683 36.605C138.763 36.4459 138.858 36.3017 138.953 36.1774C139.099 35.9884 139.264 35.8342 139.44 35.7149C139.415 35.7298 139.385 35.7447 139.359 35.7597C136.722 35.6502 136.502 34.0192 136.507 33.4622C136.507 33.3727 136.602 33.318 136.677 33.3578L140.372 35.2524C140.457 35.2972 140.538 35.3419 140.618 35.3917C140.894 35.3867 141.204 35.4165 141.545 35.5309C142.197 35.7895 142.703 36.3116 142.994 36.9432C143.054 37.0774 143.12 37.2067 143.19 37.3311C143.461 37.8234 143.806 38.2659 144.203 38.6687C144.223 38.6886 144.238 38.7234 144.233 38.7533C144.187 39.3252 143.852 39.6434 143.16 39.6384C142.749 39.6335 142.353 39.5141 141.992 39.3202C141.951 39.3003 141.911 39.2804 141.876 39.2605C141.836 39.2406 141.801 39.2207 141.761 39.2058C141.701 39.166 141.601 39.1461 141.535 39.1262C141.46 39.1064 141.385 39.0865 141.31 39.0765C141.169 39.0566 141.024 39.0566 140.884 39.0914C140.157 39.2705 139.545 40.2899 139.515 40.996C139.505 41.2397 139.57 41.6624 139.741 41.9607C141.906 42.5127 143.726 42.473 144.328 41.8663C144.864 41.3292 145.055 40.3844 145.21 39.6633C145.531 38.1814 145.531 36.5553 145.08 35.0983C144.98 34.78 144.719 33.9495 144.398 33.7904C144.814 33.9993 144.599 33.8551 144.98 34.0639C145.06 34.1087 145.145 34.1534 145.225 34.2032C146.89 35.2027 148.183 36.9084 149.522 38.2858C149.607 38.3704 149.682 38.4599 149.752 38.5444C149.772 38.5693 149.793 38.5942 149.813 38.619C149.853 38.6687 149.933 38.6389 149.928 38.5743C149.923 38.5494 149.923 38.5245 149.918 38.4997C149.818 37.5051 149.005 36.5155 148.454 35.7298C147.531 34.412 146.423 33.3429 145.265 32.2389C144.829 31.8212 144.288 31.4582 144.047 30.8913C143.36 29.2751 144.097 27.6937 144.97 26.3063C145.005 26.2516 145.025 26.2168 145.025 26.2168L145.08 26.1273C145.08 26.1273 145.07 26.1373 145.06 26.1472C145.185 25.9284 145.31 25.7096 145.446 25.4958C145.611 25.2372 145.802 24.9836 145.957 24.72C146.103 24.4714 146.323 24.2277 146.559 24.0536C146.659 23.979 146.769 23.9094 146.88 23.8498C147.812 23.4121 149.798 23.4917 150.67 23.7702C151.106 23.9094 151.582 23.7304 151.803 23.3475L152.224 22.6165C152.244 22.522 152.234 22.4076 152.164 22.3281ZM132.16 48.7835C131.985 49.3603 131.789 49.962 131.574 50.5886C130.912 50.6085 130.556 50.5389 130.827 50.2654C131.398 49.6139 131.884 48.9525 132.306 48.2762C132.26 48.4453 132.215 48.6144 132.16 48.7835ZM140.648 35.1729L138.402 33.9297C138.392 33.9247 138.387 33.9197 138.387 33.9098C138.171 33.2583 138.372 32.6914 138.512 32.403C138.562 32.3085 138.693 32.2986 138.758 32.3831L140.693 35.1231C140.718 35.153 140.683 35.1927 140.648 35.1729Z" fill="#FF6961"/>
</svg>
