<svg width="152" height="129" viewBox="0 0 152 129" fill="none" xmlns="http://www.w3.org/2000/svg">
<path fill-rule="evenodd" clip-rule="evenodd" d="M22.089 78.6565C21.2941 63.1456 23.9871 45.7241 36.8992 36.8627C49.4097 28.277 65.6316 34.6573 80.3119 38.6991C94.1899 42.5199 109.147 46.1886 116.078 58.662C123.512 72.0388 122.71 88.6315 115.575 102.159C108.553 115.474 95.1347 124.349 80.1356 126.808C65.8769 129.146 51.9432 123.589 40.8729 114.406C29.9207 105.32 22.8117 92.7604 22.089 78.6565Z" fill="#FFC3C0"/>
<path d="M146.931 1.44226L144.805 0.302734L124.26 38.3918L126.387 39.5313L146.931 1.44226Z" fill="#002454"/>
<path d="M131.306 50.5294L100.457 107.725L80.5928 97.0782L111.42 39.9132C111.614 39.5535 111.877 39.2354 112.194 38.9771C112.511 38.7187 112.876 38.5251 113.268 38.4073C113.659 38.2896 114.07 38.25 114.476 38.2909C114.883 38.3317 115.277 38.4522 115.636 38.6454L130.036 46.3589C130.395 46.5481 130.712 46.8062 130.97 47.1184C131.227 47.4306 131.421 47.7907 131.539 48.1782C131.657 48.5656 131.697 48.9728 131.657 49.3762C131.617 49.7797 131.498 50.1716 131.306 50.5294Z" fill="#F0F0F0"/>
<path d="M131.581 37.8964L121.844 32.6777L113.227 48.6528L122.964 53.8714L131.581 37.8964Z" fill="#F0F0F0"/>
<path d="M92.7786 103.624L88.25 101.197L77.3738 121.362L81.9024 123.789L92.7786 103.624Z" fill="#002454"/>
<path d="M113.427 65.3373L108.898 62.9102L88.2483 101.196L92.7769 103.623L113.427 65.3373Z" fill="#FFA5A0"/>
<path d="M88.0497 124.638L73.2607 116.711C72.6464 116.382 71.8797 116.613 71.5482 117.228L71.1721 117.925C70.8406 118.54 71.0699 119.305 71.6842 119.634L86.4732 127.561C87.0875 127.89 87.8541 127.659 88.1856 127.044L88.5617 126.347C88.8932 125.732 88.664 124.967 88.0497 124.638Z" fill="#002454"/>
<path d="M120.396 66.6287L103.974 57.8272C103.548 57.599 103.017 57.7594 102.787 58.1854L102.359 58.9794C102.129 59.4054 102.288 59.9357 102.714 60.1639L119.136 68.9653C119.561 69.1935 120.093 69.0332 120.322 68.6072L120.751 67.8132C120.98 67.3872 120.822 66.8569 120.396 66.6287Z" fill="#FFA5A0"/>
<path d="M105.559 107.901L77.6221 92.9279C77.0283 92.6096 76.2871 92.8332 75.9666 93.4274L75.6028 94.1019C75.2823 94.696 75.5039 95.4357 76.0978 95.754L104.035 110.727C104.628 111.045 105.37 110.822 105.69 110.227L106.054 109.553C106.374 108.959 106.153 108.219 105.559 107.901Z" fill="#99A7BB"/>
<path d="M122.852 33.6729L130.303 37.7144C130.447 37.7927 130.555 37.9248 130.603 38.0821C130.65 38.2394 130.634 38.4093 130.557 38.5551L126.914 45.5915L130.216 47.4259C130.216 47.4259 131.288 48.3972 130.97 49.5265C130.7 50.4738 124.185 62.2241 122.08 66.0065C121.907 66.3178 121.619 66.5494 121.278 66.6521C120.937 66.7547 120.57 66.7201 120.254 66.5558L103.699 57.8951C103.574 57.8297 103.462 57.74 103.372 57.6314C103.281 57.5227 103.213 57.3971 103.171 57.2619C103.129 57.1267 103.114 56.9844 103.128 56.8433C103.141 56.7023 103.182 56.5651 103.249 56.4398L112.202 39.5858C112.202 39.5858 113.349 38.1811 115.603 39.2363C117.856 40.2915 118.254 40.5335 118.254 40.5335L121.866 33.9671C121.911 33.8829 121.972 33.8084 122.047 33.7479C122.121 33.6875 122.206 33.6423 122.298 33.615C122.39 33.5876 122.486 33.5786 122.581 33.5886C122.676 33.5985 122.768 33.6272 122.852 33.6729Z" fill="#002454"/>
<path d="M126.417 46.9151C125.435 46.6103 124.473 46.2464 123.536 45.8254C123.065 45.6315 122.608 45.4065 122.167 45.1518C121.753 44.8534 121.323 44.5768 120.879 44.3233C120.421 44.1025 119.951 43.9049 119.473 43.7311C118.999 43.5419 118.544 43.3107 118.112 43.0403C117.68 42.7714 117.259 42.4556 116.853 42.1681C116.448 41.8807 116.034 41.5594 115.634 41.2172C115.618 41.2035 115.604 41.1866 115.594 41.1675C115.584 41.1484 115.578 41.1274 115.576 41.1059C115.574 41.0844 115.577 41.0628 115.584 41.0423C115.59 41.0218 115.601 41.0028 115.615 40.9865C115.636 40.9621 115.664 40.9443 115.695 40.9353C115.726 40.9264 115.759 40.9266 115.789 40.9361C116.287 41.0844 116.771 41.2582 117.248 41.4447C117.725 41.6311 118.202 41.8176 118.663 42.0313C119.127 42.2458 119.57 42.5028 119.987 42.799C120.405 43.0933 120.805 43.4078 121.252 43.6585C121.705 43.8933 122.17 44.1048 122.644 44.2922C123.098 44.5248 123.535 44.7874 123.954 45.0782C124.811 45.6401 125.634 46.2536 126.417 46.9151Z" fill="#667C98"/>
<path d="M96.1443 104.006C95.1623 103.703 94.1998 103.34 93.2621 102.921C92.7911 102.726 92.3341 102.5 91.8942 102.243C91.4804 101.945 91.0513 101.669 90.6086 101.417C90.1566 101.181 89.6727 101.008 89.202 100.825C88.7283 100.637 88.2726 100.407 87.8401 100.138C87.4108 99.8676 86.9896 99.5518 86.5796 99.2636C86.1697 98.9753 85.7609 98.6548 85.3626 98.3152C85.3318 98.2913 85.3106 98.2572 85.3028 98.219C85.2949 98.1808 85.3008 98.1411 85.3196 98.1068C85.3383 98.0725 85.3686 98.0459 85.405 98.0318C85.4414 98.0177 85.4816 98.0169 85.5185 98.0296C86.014 98.1822 86.5009 98.3526 86.9792 98.5409C87.4562 98.7273 87.9333 98.9138 88.3938 99.1275C88.857 99.3417 89.2995 99.5978 89.7158 99.8926C90.134 100.187 90.5346 100.501 90.9833 100.755C91.432 101.008 91.9123 101.177 92.3755 101.388C92.8289 101.621 93.2662 101.884 93.6845 102.174C94.54 102.736 95.3613 103.347 96.1443 104.006Z" fill="#002454"/>
<path d="M130.041 38.3053C129.363 38.1697 128.7 37.9747 128.057 37.7224C127.735 37.6099 127.425 37.4649 127.132 37.2897C126.867 37.0704 126.586 36.8725 126.29 36.6976C125.977 36.5554 125.654 36.4362 125.323 36.341C125 36.2338 124.692 36.0849 124.407 35.8983C123.841 35.5004 123.311 35.0526 122.824 34.5604C122.808 34.5451 122.796 34.5267 122.787 34.5064C122.779 34.4861 122.774 34.4642 122.774 34.4422C122.774 34.4201 122.779 34.3983 122.788 34.378C122.796 34.3577 122.809 34.3393 122.825 34.324C122.844 34.3041 122.869 34.2894 122.895 34.2811C122.922 34.2729 122.95 34.2714 122.977 34.2767C123.66 34.4184 124.328 34.6196 124.974 34.8781C125.287 35.015 125.579 35.1932 125.844 35.4079C126.338 35.8891 126.946 36.2362 127.612 36.4165C127.917 36.5683 128.205 36.7506 128.473 36.9608C129.035 37.3613 129.559 37.8113 130.041 38.3053Z" fill="#667C98"/>
<path d="M49.5378 71.437L46.7486 83.7696C46.4366 85.1467 45.6009 86.3385 44.4252 87.083C43.2495 87.8274 41.8301 88.0637 40.4791 87.7397L4.9133 79.204C4.24406 79.0438 3.61171 78.7508 3.0524 78.3416C2.49309 77.9325 2.01778 77.4152 1.65362 76.8194C1.28946 76.2237 1.0436 75.561 0.930087 74.8694C0.816572 74.1777 0.837627 73.4707 0.99205 72.7886L3.78354 60.4557C4.09509 59.0789 4.93037 57.8871 6.10567 57.1427C7.28097 56.3982 8.70004 56.1619 10.0508 56.4858L45.6176 65.0092C46.288 65.1694 46.9214 65.4629 47.4815 65.873C48.0416 66.283 48.5174 66.8015 48.8816 67.3987C49.2458 67.9958 49.4913 68.6599 49.6039 69.3529C49.7164 70.0459 49.694 70.7541 49.5378 71.437Z" fill="#FF8781"/>
<path d="M16.7712 62.3515L13.4219 76.7168L34.591 81.6493L37.9403 67.284L16.7712 62.3515Z" fill="white"/>
<path d="M15.0245 75.3274L14.8672 76.002L17.1294 76.5291L17.2867 75.8545L15.0245 75.3274Z" fill="#FFA5A0"/>
<path d="M20.7353 72.4778L20.5781 73.1523L22.8404 73.6791L22.9976 73.0045L20.7353 72.4778Z" fill="#FFA5A0"/>
<path d="M15.9216 72.5349L15.7656 73.207L18.0199 73.73L18.1759 73.0578L15.9216 72.5349Z" fill="#FFA5A0"/>
<path d="M16.9295 65.2536L16.7734 65.9258L19.0277 66.4487L19.1837 65.7766L16.9295 65.2536Z" fill="#FFA5A0"/>
<path d="M25.156 66.3806L25 67.0527L27.2542 67.5757L27.4103 66.9035L25.156 66.3806Z" fill="#FFA5A0"/>
<path d="M28.4998 69.572L28.3438 70.2441L30.598 70.7671L30.754 70.095L28.4998 69.572Z" fill="#FFA5A0"/>
<path d="M29.3435 74.5212L29.1875 75.1934L31.4417 75.7163L31.5977 75.0442L29.3435 74.5212Z" fill="#FFA5A0"/>
<path d="M32.992 67.9197L32.8359 68.5918L35.0902 69.1147L35.2462 68.4426L32.992 67.9197Z" fill="#FFA5A0"/>
<path d="M25.7341 75.8747L25.5781 76.5469L27.8324 77.0698L27.9884 76.3977L25.7341 75.8747Z" fill="#FFA5A0"/>
<path d="M31.2041 78.8958L31.0469 79.5703L33.3091 80.0974L33.4664 79.4229L31.2041 78.8958Z" fill="#FFA5A0"/>
<path d="M22.0401 76.6966L21.8828 77.3711L24.145 77.8982L24.3023 77.2237L22.0401 76.6966Z" fill="#FFA5A0"/>
<path d="M33.3838 72.8782L33.2266 73.5527L35.4888 74.0799L35.646 73.4053L33.3838 72.8782Z" fill="#FFA5A0"/>
<path d="M25.0088 71.3665L24.8516 72.041L27.1138 72.5681L27.271 71.8936L25.0088 71.3665Z" fill="#FFA5A0"/>
<path d="M17.0466 68.822L16.8906 69.4941L19.1449 70.0171L19.3009 69.345L17.0466 68.822Z" fill="#FFA5A0"/>
<path d="M21.8591 68.2751L21.7031 68.9473L23.9574 69.4702L24.1134 68.7981L21.8591 68.2751Z" fill="#FFA5A0"/>
<path d="M76.1246 61.4095L65.8093 68.5249C64.6594 69.3178 63.2425 69.6209 61.8694 69.3677C60.4963 69.1145 59.2792 68.3255 58.4852 67.1741L37.6026 36.7808C36.8099 35.6265 36.5068 34.2041 36.76 32.8264C37.0132 31.4487 37.8019 30.2284 38.9528 29.4341L49.2607 22.3171C50.4121 21.5229 51.8313 21.2197 53.2062 21.4742C54.5811 21.7287 55.7992 22.5201 56.5927 23.6743L77.4745 54.0604C77.8674 54.632 78.1442 55.2755 78.289 55.9543C78.4338 56.633 78.4438 57.3336 78.3185 58.0161C78.1931 58.6986 77.9348 59.3495 77.5584 59.9318C77.182 60.514 76.6947 61.0161 76.1246 61.4095Z" fill="#FF8781"/>
<path d="M57.3548 32.4216L45.2031 40.7871L57.53 58.686L69.6817 50.3205L57.3548 32.4216Z" fill="white"/>
<path d="M47.3206 40.8474L46.75 41.2402L48.0673 43.153L48.6379 42.7602L47.3206 40.8474Z" fill="#FFA5A0"/>
<path d="M53.469 42.6053L52.8984 42.998L54.2157 44.9108L54.7863 44.518L53.469 42.6053Z" fill="#FFA5A0"/>
<path d="M50.4612 39.3709L49.8906 39.7637L51.2079 41.6764L51.7785 41.2836L50.4612 39.3709Z" fill="#FFA5A0"/>
<path d="M56.1331 34.658L55.5625 35.0508L56.8798 36.9635L57.4504 36.5707L56.1331 34.658Z" fill="#FFA5A0"/>
<path d="M61.469 41.0681L60.8984 41.4609L62.2157 43.3737L62.7863 42.9809L61.469 41.0681Z" fill="#FFA5A0"/>
<path d="M61.7737 45.6912L61.2031 46.084L62.5204 47.9967L63.091 47.6039L61.7737 45.6912Z" fill="#FFA5A0"/>
<path d="M59.0471 49.9216L58.4766 50.3145L59.7939 52.2272L60.3645 51.8344L59.0471 49.9216Z" fill="#FFA5A0"/>
<path d="M66.2268 47.5037L65.6562 47.8965L66.9736 49.8092L67.5441 49.4164L66.2268 47.5037Z" fill="#FFA5A0"/>
<path d="M55.4612 48.4802L54.8906 48.873L56.2079 50.7858L56.7785 50.393L55.4612 48.4802Z" fill="#FFA5A0"/>
<path d="M56.8753 54.3709L56.3047 54.7637L57.622 56.6764L58.1926 56.2836L56.8753 54.3709Z" fill="#FFA5A0"/>
<path d="M51.5862 46.576L51.0156 46.9688L52.3329 48.8815L52.9035 48.4887L51.5862 46.576Z" fill="#FFA5A0"/>
<path d="M62.5393 51.3924L61.9688 51.7852L63.2861 53.6979L63.8566 53.3051L62.5393 51.3924Z" fill="#FFA5A0"/>
<path d="M57.3675 44.6424L56.7969 45.0352L58.1142 46.9479L58.6848 46.5551L57.3675 44.6424Z" fill="#FFA5A0"/>
<path d="M53.8128 37.3748L53.2422 37.7676L54.5595 39.6803L55.1301 39.2875L53.8128 37.3748Z" fill="#FFA5A0"/>
<path d="M57.7346 40.2361L57.1641 40.6289L58.4814 42.5417L59.0519 42.1489L57.7346 40.2361Z" fill="#FFA5A0"/>
</svg>
