<svg width="40" height="40" viewBox="0 0 40 40" fill="none" xmlns="http://www.w3.org/2000/svg">
<path d="M23.1887 9H24.8507C25.3142 9 25.7169 9.31852 25.8238 9.76955L28.2466 20M29.0755 23.5L28.2466 20M28.2466 20L25.3363 25.7611M11.9057 28H23.5632C23.936 28 24.2778 27.7927 24.4501 27.4621L25.3363 25.7611M25.3363 25.7611H12.3962M7 26.3019V26.1981C7 24.708 8.20799 23.5 9.69811 23.5V23.5C11.1882 23.5 12.3962 24.708 12.3962 26.1981V26.3019C12.3962 27.792 11.1882 29 9.69811 29V29C8.20799 29 7 27.792 7 26.3019ZM30.3019 29V29C28.8118 29 27.6038 27.792 27.6038 26.3019V26.1981C27.6038 24.708 28.8118 23.5 30.3019 23.5V23.5C31.792 23.5 33 24.708 33 26.1981V26.3019C33 27.792 31.792 29 30.3019 29Z" stroke="#667C98" stroke-width="1.5" stroke-linecap="round"/>
<rect x="0.75" y="0.75" width="38.5" height="38.5" rx="19.25" stroke="#667C98" stroke-width="1.5"/>
</svg>
