<svg width="8" height="25" viewBox="0 0 8 25" fill="none" xmlns="http://www.w3.org/2000/svg">
<path d="M1.78906 14.8127C1.78906 16.1101 2.85718 17.1782 4.1545 17.1782C5.45182 17.1782 6.51994 16.1101 6.51994 14.8127L6.51994 4.04317C6.51994 2.74585 5.45182 1.67773 4.1545 1.67773C2.85718 1.67773 1.78906 2.74585 1.78906 4.04317L1.78906 14.8127Z" fill="white" stroke="#DEAC13" stroke-width="1.5"/>
<path d="M2.06716 23.305L2.09357 23.3343L2.12291 23.3608C2.39904 23.6093 2.70758 23.8065 3.04697 23.9479C3.38215 24.0876 3.76013 24.1779 4.15392 24.1779C4.5477 24.1779 4.92568 24.0876 5.26086 23.9479C5.60025 23.8065 5.90879 23.6093 6.18492 23.3608L6.21426 23.3343L6.24067 23.305C6.47401 23.0457 6.68222 22.7561 6.83176 22.3715C6.96918 22.0386 7.05783 21.6641 7.05783 21.274C7.05783 20.8802 6.96749 20.5022 6.82783 20.1671C6.68642 19.8277 6.48918 19.5191 6.24067 19.243L6.21426 19.2137L6.18492 19.1873C5.90879 18.9387 5.60024 18.7415 5.26086 18.6001C4.55931 18.3078 3.74852 18.3078 3.04697 18.6001C2.70759 18.7415 2.39904 18.9387 2.12291 19.1873L2.09357 19.2137L2.06716 19.243C1.81865 19.5191 1.62141 19.8277 1.48001 20.1671C1.34034 20.5022 1.25 20.8802 1.25 21.274C1.25 21.6641 1.33865 22.0386 1.47607 22.3715C1.62561 22.7561 1.83382 23.0457 2.06716 23.305Z" fill="white" stroke="#DEAC13" stroke-width="1.5"/>
</svg>
