<svg width="26" height="25" viewBox="0 0 26 25" fill="none" xmlns="http://www.w3.org/2000/svg">
<path fill-rule="evenodd" clip-rule="evenodd" d="M17.9703 10.029C19.6678 9.84791 21.3996 10.5319 22.6919 11.6032C23.9259 12.6262 24.2792 14.2263 24.8155 15.7038C25.3653 17.2184 26.389 18.7754 25.8458 20.2922C25.3043 21.8045 23.514 22.4436 22.0993 23.2892C20.795 24.0688 19.5069 25.0217 17.9703 24.9996C16.4442 24.9777 15.1823 24.0092 13.9301 23.172C12.6508 22.3168 11.2965 21.482 10.6638 20.1149C9.99061 18.6605 9.72605 16.9356 10.3639 15.4666C10.9833 14.0399 12.6628 13.4588 13.9547 12.5353C15.2673 11.597 16.3434 10.2026 17.9703 10.029Z" fill="#FFC3C0"/>
<path d="M2 22H22" stroke="#002454" stroke-width="1.5" stroke-miterlimit="10" stroke-linecap="round" stroke-linejoin="round"/>
<path d="M17 2H7C4 2 3 3.79 3 6V22H21V6C21 3.79 20 2 17 2Z" stroke="#002454" stroke-width="1.5" stroke-miterlimit="10" stroke-linecap="round" stroke-linejoin="round"/>
<path d="M14.0583 15H9.92827C9.41827 15 8.98828 15.42 8.98828 15.94V22H14.9883V15.94C14.9983 15.42 14.5783 15 14.0583 15Z" stroke="#002454" stroke-width="1.5" stroke-miterlimit="10" stroke-linecap="round" stroke-linejoin="round"/>
<path d="M12 6V11" stroke="#002454" stroke-width="1.5" stroke-miterlimit="10" stroke-linecap="round" stroke-linejoin="round"/>
<path d="M9.5 8.5H14.5" stroke="#002454" stroke-width="1.5" stroke-miterlimit="10" stroke-linecap="round" stroke-linejoin="round"/>
</svg>
