<svg width="26" height="26" viewBox="0 0 26 26" fill="none" xmlns="http://www.w3.org/2000/svg">
<path fill-rule="evenodd" clip-rule="evenodd" d="M12.5097 7.65053C12.8054 7.64444 13.068 7.83879 13.1485 8.1234L13.8062 10.4476L15.57 8.73298C15.7842 8.52476 16.1127 8.48933 16.3664 8.64708C16.62 8.80483 16.7335 9.11515 16.6415 9.39933L15.853 11.8337L17.6738 11.5522C17.95 11.5094 18.2227 11.6482 18.3508 11.8966C18.4789 12.1451 18.4338 12.4477 18.2388 12.648L16.9303 13.9918L18.2388 15.3357C18.4211 15.5229 18.4736 15.8011 18.3719 16.0419C18.2703 16.2826 18.0344 16.4391 17.7731 16.4391H15.8446L16.6324 18.5581C16.7334 18.8299 16.6422 19.1358 16.4088 19.3078C16.1753 19.4799 15.8562 19.4765 15.6264 19.2996L13.925 17.989L13.1075 19.6682C12.9917 19.9061 12.7434 20.05 12.4795 20.0323C12.2156 20.0145 11.9888 19.8387 11.9059 19.5875L11.2412 17.5742L9.42376 18.9969C9.20379 19.1691 8.8984 19.1815 8.6652 19.0277C8.43201 18.8739 8.32317 18.5883 8.39487 18.3183L9.05296 15.84H7.27309C6.98915 15.84 6.73807 15.6557 6.65297 15.3848C6.56788 15.114 6.66846 14.8192 6.90139 14.6568L8.84852 13.2995L7.13407 11.7827C6.90913 11.5837 6.84982 11.2565 6.99058 10.9912C7.13134 10.7259 7.43552 10.5916 7.72641 10.6663L9.04019 11.0036L8.67946 9.3365C8.62067 9.06478 8.74119 8.78575 8.97933 8.64228C9.21746 8.49881 9.52047 8.52267 9.73321 8.70165L11.4198 10.1205L11.8909 8.1493C11.9597 7.86161 12.214 7.65662 12.5097 7.65053ZM9.95484 12.5425L10.3288 12.8733C10.4781 13.0054 10.5585 13.1987 10.547 13.3977C10.5355 13.5967 10.4333 13.7794 10.2698 13.8934L9.34219 14.54H9.89809C10.0999 14.54 10.2903 14.6338 10.4133 14.7938C10.5364 14.9537 10.5781 15.1618 10.5263 15.3569L10.1489 16.7783L11.1679 15.9806C11.3345 15.8501 11.5543 15.809 11.7568 15.8703C11.9594 15.9316 12.1194 16.0877 12.1858 16.2886L12.6389 17.661L13.1053 16.7028C13.1909 16.5271 13.3509 16.3992 13.5411 16.3545C13.7314 16.3099 13.9316 16.3531 14.0864 16.4724L14.6239 16.8864L14.3002 16.0156C14.226 15.8161 14.2542 15.5929 14.3757 15.4181C14.4972 15.2434 14.6966 15.1391 14.9095 15.1391H16.233L15.5574 14.4453C15.3117 14.1929 15.3117 13.7907 15.5574 13.5384L15.9511 13.134L15.0088 13.2797C14.7858 13.3142 14.5609 13.2306 14.4146 13.0588C14.2683 12.8871 14.2216 12.6517 14.2911 12.4371L14.5973 11.4916L13.9307 12.1396C13.7665 12.2992 13.5305 12.3607 13.3094 12.3014C13.0882 12.2421 12.9145 12.0709 12.8522 11.8506L12.5761 10.8749L12.4394 11.447C12.387 11.6662 12.2247 11.8427 12.0107 11.9132C11.7966 11.9838 11.5612 11.9384 11.3887 11.7933L10.3525 10.9215L10.5334 11.7575C10.5811 11.9778 10.5112 12.207 10.3488 12.3633C10.2403 12.4678 10.1007 12.5297 9.95484 12.5425Z" fill="#002454"/>
<path fill-rule="evenodd" clip-rule="evenodd" d="M12.5498 1.81692C12.7921 1.82653 13.0089 1.97023 13.1122 2.18964L15.1197 6.45561L19.1558 3.68078C19.3738 3.53088 19.661 3.52811 19.8819 3.67376C20.1028 3.81942 20.2133 4.08443 20.1614 4.34388L19.1502 9.39974H23.024C23.2869 9.39974 23.524 9.55811 23.6246 9.801C23.7252 10.0439 23.6696 10.3235 23.4837 10.5094L20.4433 13.5497L23.4837 16.5901C23.6465 16.753 23.711 16.9898 23.6533 17.2128C23.5955 17.4357 23.4241 17.6115 23.2026 17.6747L19.6548 18.6884L20.169 22.8025C20.198 23.0344 20.1002 23.2641 19.9129 23.4039C19.7256 23.5438 19.4777 23.5723 19.2635 23.4786L15.0757 21.6464L13.0497 24.4321C12.9274 24.6002 12.732 24.6997 12.524 24.6997C12.3161 24.6997 12.1207 24.6002 11.9984 24.4321L9.99763 21.681L6.12159 23.7483C5.91526 23.8583 5.66572 23.849 5.46812 23.724C5.27052 23.599 5.15532 23.3774 5.16644 23.1438L5.43361 17.5332L1.84547 16.5081C1.61871 16.4433 1.44483 16.2607 1.39112 16.0311C1.33741 15.8015 1.4123 15.5608 1.5868 15.4021L4.41199 12.8338L2.04085 8.61841C1.91953 8.40273 1.9312 8.13686 2.07096 7.93264C2.21072 7.72842 2.45432 7.62128 2.6993 7.65627L5.94017 8.11926L5.46239 4.29703C5.43186 4.05273 5.54197 3.81214 5.74682 3.67558C5.95167 3.53901 6.2161 3.5299 6.42986 3.65205L9.94884 5.66289L11.9597 2.14392C12.08 1.93337 12.3075 1.80731 12.5498 1.81692ZM12.4682 3.87427L10.7551 6.87223C10.577 7.18392 10.1799 7.29221 9.86822 7.1141L6.9136 5.42575L7.33569 8.80245C7.36082 9.00348 7.29078 9.20472 7.14628 9.34671C7.00178 9.4887 6.79933 9.55519 6.59878 9.52654L3.81992 9.12956L5.7989 12.6477C5.94745 12.9118 5.89382 13.2435 5.66961 13.4474L3.32506 15.5788L6.28594 16.4248C6.57606 16.5076 6.77099 16.7793 6.75664 17.0807L6.51939 22.0628L9.88482 20.2679C10.1709 20.1153 10.5257 20.1969 10.7164 20.4591L12.524 22.9446L14.3317 20.4591C14.5112 20.2123 14.8383 20.1236 15.1179 20.2459L18.7373 21.8294L18.2957 18.297C18.256 17.979 18.454 17.6795 18.7621 17.5914L21.7833 16.7282L19.0644 14.0094C18.8106 13.7555 18.8106 13.344 19.0644 13.0901L21.4548 10.6997H18.3574C18.1626 10.6997 17.9782 10.6124 17.8547 10.4618C17.7312 10.3112 17.6818 10.1132 17.72 9.92227L18.5726 5.65933L15.2256 7.96037C15.0684 8.06844 14.8717 8.102 14.6876 8.05217C14.5034 8.00233 14.3505 7.87411 14.2692 7.70151L12.4682 3.87427Z" fill="#002454"/>
<path fill-rule="evenodd" clip-rule="evenodd" d="M16.9959 0.780381C17.3375 0.890683 17.525 1.25704 17.4147 1.59866L16.8019 3.49654C16.6916 3.83816 16.3253 4.02568 15.9836 3.91538C15.642 3.80508 15.4545 3.43872 15.5648 3.0971L16.1776 1.19922C16.2879 0.857598 16.6542 0.670078 16.9959 0.780381Z" fill="#002454"/>
<path fill-rule="evenodd" clip-rule="evenodd" d="M24.1271 6.27054C24.2906 6.59012 24.1641 6.98175 23.8445 7.14526L22.069 8.05363C21.7494 8.21713 21.3578 8.09061 21.1943 7.77102C21.0308 7.45143 21.1573 7.05981 21.4769 6.8963L23.2524 5.98793C23.5719 5.82442 23.9636 5.95095 24.1271 6.27054Z" fill="#002454"/>
<path fill-rule="evenodd" clip-rule="evenodd" d="M3.97766 18.6201C4.14117 18.9397 4.01464 19.3314 3.69505 19.4949L1.91957 20.4032C1.59998 20.5667 1.20836 20.4402 1.04485 20.1206C0.881341 19.801 1.00787 19.4094 1.32746 19.2459L3.10294 18.3375C3.42253 18.174 3.81415 18.3006 3.97766 18.6201Z" fill="#002454"/>
<path fill-rule="evenodd" clip-rule="evenodd" d="M21.6005 20.0938C21.437 20.4134 21.5635 20.805 21.8831 20.9685L23.6586 21.8769C23.9781 22.0404 24.3698 21.9138 24.5333 21.5943C24.6968 21.2747 24.5703 20.8831 24.2507 20.7195L22.4752 19.8112C22.1556 19.6477 21.764 19.7742 21.6005 20.0938Z" fill="#002454"/>
</svg>
