<svg width="273" height="195" viewBox="0 0 273 195" fill="none" xmlns="http://www.w3.org/2000/svg">
<path d="M271.542 190.774H31.4431C31.2433 190.774 31.0516 190.695 30.9103 190.553C30.7689 190.412 30.6895 190.22 30.6895 190.02C30.6895 189.82 30.7689 189.629 30.9103 189.487C31.0516 189.346 31.2433 189.267 31.4431 189.267H271.542C271.742 189.267 271.934 189.346 272.075 189.487C272.217 189.629 272.296 189.82 272.296 190.02C272.296 190.22 272.217 190.412 272.075 190.553C271.934 190.695 271.742 190.774 271.542 190.774Z" fill="#47243B"/>
<path d="M30.386 189.484C30.386 189.484 11.5678 179.61 5.51714 158.664C-0.533496 137.717 -9.9395 104.784 42.1436 103.105C94.2268 101.425 103.361 84.3739 104.338 49.3845C105.315 14.3951 155.749 -9.52709 215.55 9.82471C275.351 29.1765 263.925 45.9627 241.076 57.5666C218.227 69.1704 200.03 93.2524 216.699 102.559C233.367 111.866 268.299 129.062 262.249 153.207C256.198 177.352 247.585 189.861 247.585 189.861L30.386 189.484Z" fill="#FFC3C0"/>
<path d="M170.248 31.3477C170.248 31.3477 168.777 38.2816 171.026 44.7182L176.85 43.8982L179.678 43.0269L182.952 43.3585L184.158 34.3956L182.135 28.2153L170.248 31.3477Z" fill="#FF9C70"/>
<path d="M233.385 9.22217L247.277 37.8685H191.416L215.194 9.22217H233.385Z" fill="#335076"/>
<path d="M180.188 179.144V178.972V175.077H172.35V179.587H180.188V179.312V179.144Z" fill="#FF9C70"/>
<path d="M181.165 179.134H172.307C172.307 179.134 159.675 185.287 158.846 185.601C158.017 185.914 158.135 186.985 158.135 186.985H181.165V179.134Z" fill="#667C98"/>
<path fill-rule="evenodd" clip-rule="evenodd" d="M167.789 179.939C167.789 179.689 167.992 179.487 168.241 179.487H172.598C172.847 179.487 173.05 179.689 173.05 179.939C173.05 180.189 172.847 180.391 172.598 180.391H168.241C167.992 180.391 167.789 180.189 167.789 179.939Z" fill="black"/>
<path fill-rule="evenodd" clip-rule="evenodd" d="M164.521 181.764C164.521 181.514 164.724 181.312 164.974 181.312H169.33C169.58 181.312 169.782 181.514 169.782 181.764C169.782 182.013 169.58 182.216 169.33 182.216H164.974C164.724 182.216 164.521 182.013 164.521 181.764Z" fill="black"/>
<path fill-rule="evenodd" clip-rule="evenodd" d="M161.527 183.587C161.527 183.338 161.73 183.135 161.98 183.135H166.339C166.589 183.135 166.791 183.338 166.791 183.587C166.791 183.837 166.589 184.04 166.339 184.04H161.98C161.73 184.04 161.527 183.837 161.527 183.587Z" fill="black"/>
<path d="M180.767 186.994H158.573C157.993 186.994 157.523 187.463 157.523 188.043C157.523 188.622 157.993 189.092 158.573 189.092H180.767C181.347 189.092 181.816 188.622 181.816 188.043C181.816 187.463 181.347 186.994 180.767 186.994Z" fill="#F2DEA0"/>
<path d="M197.217 179.144V178.972V175.077H189.379V179.587H197.217V179.312V179.144Z" fill="#FF9C70"/>
<path d="M198.192 179.134H189.335C189.335 179.134 176.7 185.287 175.871 185.601C175.042 185.914 175.162 186.985 175.162 186.985H198.192V179.134Z" fill="#335076"/>
<path fill-rule="evenodd" clip-rule="evenodd" d="M184.816 179.939C184.816 179.689 185.019 179.487 185.269 179.487H189.625C189.875 179.487 190.077 179.689 190.077 179.939C190.077 180.189 189.875 180.391 189.625 180.391H185.269C185.019 180.391 184.816 180.189 184.816 179.939Z" fill="black"/>
<path fill-rule="evenodd" clip-rule="evenodd" d="M181.551 181.764C181.551 181.514 181.753 181.312 182.003 181.312H186.359C186.609 181.312 186.812 181.514 186.812 181.764C186.812 182.013 186.609 182.216 186.359 182.216H182.003C181.753 182.216 181.551 182.013 181.551 181.764Z" fill="black"/>
<path fill-rule="evenodd" clip-rule="evenodd" d="M178.555 183.587C178.555 183.338 178.757 183.135 179.007 183.135H183.366C183.616 183.135 183.818 183.338 183.818 183.587C183.818 183.837 183.616 184.04 183.366 184.04H179.007C178.757 184.04 178.555 183.837 178.555 183.587Z" fill="black"/>
<path d="M197.795 186.994H175.6C175.02 186.994 174.551 187.463 174.551 188.043C174.551 188.622 175.02 189.092 175.6 189.092H197.795C198.374 189.092 198.844 188.622 198.844 188.043C198.844 187.463 198.374 186.994 197.795 186.994Z" fill="#F7EED0"/>
<path d="M166.35 99.8462L170.872 175.818H182.292L181.17 132.345L188.207 175.818H198.192C198.192 175.818 194.628 118.821 191.674 99.8462H166.35Z" fill="#002454"/>
<path d="M195.292 176.259C195.176 176.259 195.065 176.214 194.981 176.135C194.897 176.055 194.846 175.946 194.84 175.83C191.958 120.359 188.994 100.121 188.964 99.9216C188.955 99.863 188.958 99.8031 188.972 99.7456C188.986 99.688 189.012 99.6339 189.047 99.5862C189.083 99.5386 189.127 99.4984 189.178 99.468C189.229 99.4376 189.285 99.4176 189.344 99.4091C189.463 99.3917 189.583 99.4219 189.68 99.493C189.776 99.5642 189.841 99.6705 189.86 99.7889C189.887 99.9879 192.856 120.265 195.744 175.782C195.748 175.842 195.739 175.901 195.719 175.957C195.7 176.013 195.669 176.065 195.629 176.109C195.589 176.153 195.541 176.189 195.488 176.215C195.434 176.241 195.376 176.255 195.316 176.259H195.292Z" fill="#CCD3DD"/>
<path d="M193.146 114.808C190.955 114.741 188.87 113.849 187.309 112.309C184.666 109.753 183.372 105.559 183.466 99.849C183.468 99.7304 183.517 99.6173 183.601 99.534C183.686 99.4506 183.799 99.4036 183.918 99.4028C183.977 99.4036 184.036 99.4162 184.091 99.4399C184.145 99.4636 184.195 99.4978 184.236 99.5408C184.277 99.5837 184.309 99.6344 184.331 99.6899C184.352 99.7454 184.363 99.8046 184.361 99.8641C184.271 105.291 185.467 109.267 187.915 111.646C189.333 113.049 191.233 113.857 193.227 113.904C193.347 113.899 193.463 113.942 193.552 114.022C193.64 114.103 193.692 114.216 193.698 114.335C193.701 114.394 193.692 114.453 193.672 114.509C193.652 114.564 193.621 114.615 193.581 114.659C193.542 114.703 193.493 114.738 193.44 114.763C193.387 114.788 193.329 114.803 193.27 114.805L193.146 114.808Z" fill="#CCD3DD"/>
<path d="M167.256 115.694C167.157 115.694 167.061 115.661 166.982 115.601C166.903 115.541 166.846 115.458 166.819 115.363C166.787 115.247 166.803 115.123 166.862 115.019C166.921 114.914 167.02 114.837 167.135 114.805C174.995 112.634 173.343 100.033 173.325 99.9181C173.309 99.7992 173.341 99.6789 173.413 99.5831C173.485 99.4872 173.592 99.4235 173.711 99.4056C173.829 99.3893 173.95 99.4208 174.045 99.4931C174.141 99.5655 174.204 99.6728 174.22 99.7915C174.491 102.109 174.445 104.453 174.084 106.759C173.285 111.603 170.964 114.687 167.376 115.679C167.337 115.689 167.296 115.694 167.256 115.694Z" fill="#CCD3DD"/>
<path d="M192.361 73.6174L192.894 101.956H165.4L165.843 76.6322L164.565 78.0491L157.26 69.1375C157.26 69.1375 164.495 59.653 167.51 56.7046C170.525 53.7561 178.279 50.1656 186.868 54.0757C186.868 54.0757 197.89 58.9476 202.698 65.5499L194.691 76.0534L192.361 73.6174Z" fill="#219653"/>
<path d="M202.115 66.3066L213.854 77.1598C213.854 77.1598 195.434 95.7278 193.746 96.0202C192.057 96.3126 181.268 98.23 182.63 95.4564C182.63 95.4564 181.087 94.6394 181.768 93.4576C181.768 93.4576 179.54 92.5532 180.812 91.5915C180.812 91.5915 179.908 89.9545 181.813 89.6379C183.719 89.3214 187.632 89.1375 187.632 89.1375C187.632 89.1375 184.813 87.1357 186.495 86.1227C188.177 85.1097 192.862 89.2128 192.862 89.2128L201.18 78.3597L196.088 74.2204L202.115 66.3066Z" fill="#FF9C70"/>
<path d="M179.978 91.9565C179.862 91.9567 179.75 91.9119 179.665 91.8316C179.581 91.7513 179.531 91.6417 179.526 91.5254C179.523 91.466 179.533 91.4067 179.553 91.3509C179.574 91.2951 179.605 91.2439 179.645 91.2002C179.686 91.1566 179.734 91.1213 179.788 91.0964C179.842 91.0714 179.9 91.0574 179.96 91.0551L184.603 90.8622C184.662 90.8585 184.722 90.8669 184.778 90.887C184.835 90.907 184.886 90.9383 184.93 90.9788C184.974 91.0194 185.01 91.0684 185.034 91.123C185.059 91.1775 185.072 91.2365 185.073 91.2963C185.076 91.3555 185.067 91.4147 185.047 91.4705C185.026 91.5263 184.995 91.5775 184.955 91.6213C184.915 91.665 184.867 91.7003 184.813 91.7253C184.759 91.7502 184.701 91.7643 184.642 91.7666L179.996 91.9565H179.978Z" fill="#E47452"/>
<path d="M180.421 93.9487C180.306 93.9482 180.195 93.9036 180.111 93.8241C180.027 93.7446 179.976 93.6361 179.969 93.5206C179.964 93.4012 180.005 93.2843 180.086 93.1956C180.166 93.1069 180.278 93.0536 180.397 93.0473L184.157 92.8423C184.277 92.8366 184.394 92.8783 184.483 92.9584C184.572 93.0386 184.626 93.1507 184.633 93.2704C184.639 93.3902 184.597 93.5074 184.517 93.5966C184.437 93.6858 184.325 93.7397 184.205 93.7468L180.446 93.9487H180.421Z" fill="#E47452"/>
<path d="M181.701 95.9421C181.588 95.9418 181.48 95.8997 181.397 95.8239C181.314 95.7481 181.262 95.644 181.252 95.5321C181.242 95.4127 181.279 95.2942 181.356 95.2022C181.432 95.1102 181.542 95.0521 181.662 95.0407C182.105 94.9985 184.339 94.7935 184.622 94.7935C184.742 94.7935 184.857 94.8411 184.942 94.9259C185.027 95.0107 185.074 95.1257 185.074 95.2457C185.074 95.3656 185.027 95.4806 184.942 95.5654C184.857 95.6502 184.742 95.6979 184.622 95.6979C184.435 95.6979 182.759 95.8486 181.743 95.9421H181.701Z" fill="#E47452"/>
<path d="M189.404 90.3708C189.326 90.3708 189.25 90.3511 189.181 90.3135L185.666 88.3208C185.565 88.262 185.491 88.1663 185.459 88.0539C185.427 87.9415 185.439 87.821 185.494 87.7178C185.523 87.6658 185.563 87.6201 185.609 87.5833C185.656 87.5465 185.71 87.5193 185.767 87.5033C185.825 87.4874 185.885 87.4829 185.944 87.4902C186.003 87.4976 186.06 87.5165 186.112 87.546L189.627 89.5387C189.728 89.5975 189.803 89.6932 189.835 89.8056C189.867 89.918 189.854 90.0385 189.799 90.1417C189.759 90.2113 189.702 90.2691 189.633 90.3093C189.563 90.3496 189.485 90.3708 189.404 90.3708Z" fill="#E47452"/>
<path d="M186.776 65.6616H180.822C180.822 65.6616 179.438 73.3041 183.487 73.3041C187.536 73.3041 186.776 65.6616 186.776 65.6616Z" fill="#4DAB75"/>
<path d="M201.164 68.0098C201.052 68.0089 200.944 67.9658 200.862 67.8892C200.772 67.8048 191.661 59.4026 184.549 55.408C184.448 55.3497 184.373 55.2543 184.34 55.1419C184.308 55.0294 184.32 54.9087 184.374 54.8051C184.434 54.7007 184.532 54.624 184.648 54.5918C184.764 54.5596 184.888 54.5745 184.992 54.6333C192.198 58.6791 201.384 67.1536 201.477 67.238C201.521 67.2784 201.556 67.327 201.581 67.3809C201.606 67.4349 201.619 67.4932 201.622 67.5526C201.624 67.6119 201.614 67.6711 201.594 67.7268C201.573 67.7825 201.542 67.8336 201.501 67.8771C201.457 67.9213 201.405 67.956 201.346 67.9788C201.288 68.0016 201.226 68.0122 201.164 68.0098Z" fill="#4DAB75"/>
<path d="M179.248 58.4892C178.983 58.4892 178.705 58.4892 178.419 58.4561C172.362 57.9767 170.454 54.766 170.376 54.6303C170.321 54.5277 170.308 54.408 170.339 54.2959C170.369 54.1838 170.442 54.0877 170.541 54.0274C170.644 53.9728 170.764 53.9595 170.876 53.9904C170.988 54.0212 171.084 54.0938 171.144 54.1932C171.56 54.792 172.088 55.304 172.7 55.7006C173.731 56.4241 175.57 57.3316 178.476 57.5607C183.927 57.9918 185.513 53.741 185.576 53.5571C185.617 53.4448 185.701 53.3532 185.81 53.302C185.918 53.2507 186.042 53.2438 186.155 53.2827C186.211 53.3023 186.262 53.3328 186.307 53.3724C186.351 53.412 186.386 53.46 186.412 53.5135C186.437 53.567 186.452 53.6251 186.455 53.6843C186.458 53.7435 186.449 53.8027 186.429 53.8585C186.429 53.9007 184.744 58.4892 179.248 58.4892Z" fill="#4DAB75"/>
<path d="M158.693 71.3321C158.601 71.3326 158.512 71.3053 158.436 71.2537C158.338 71.1854 158.27 71.0809 158.248 70.9628C158.226 70.8448 158.251 70.7229 158.319 70.6236C158.62 70.1864 165.777 59.8368 172.732 55.2C172.832 55.1334 172.954 55.1089 173.072 55.1321C173.189 55.1552 173.293 55.2241 173.359 55.3236C173.426 55.4232 173.451 55.5452 173.428 55.6627C173.404 55.7803 173.335 55.8839 173.236 55.9507C166.422 60.491 159.139 71.0246 159.066 71.1361C159.025 71.1971 158.969 71.2469 158.904 71.2811C158.839 71.3153 158.766 71.3328 158.693 71.3321Z" fill="#4DAB75"/>
<path d="M164.153 77.5368L155.66 87.0393C155.66 87.0393 141.632 73.6748 140.321 72.3001C140.321 72.3001 133.049 72.7583 133.689 70.1506C133.689 70.1506 131.735 69.7466 132.064 67.9377C132.064 67.9377 130.421 66.7891 130.529 65.5832C130.529 65.5832 128.557 63.8829 130.258 63.2287L138.798 60.4912C138.798 60.4912 138.196 58.3568 139.673 58.5196C141.15 58.6824 142.959 61.4771 143.782 62.4629C144.605 63.4487 145.151 67.0092 145.205 67.7749C145.259 68.5407 154.291 75.1249 154.291 75.1249L158.168 70.2591L164.153 77.5368Z" fill="#FF9C70"/>
<path d="M132.396 66.2438H129.571C129.451 66.2438 129.336 66.1961 129.252 66.1113C129.167 66.0265 129.119 65.9115 129.119 65.7916C129.119 65.6716 129.167 65.5566 129.252 65.4718C129.336 65.387 129.451 65.3394 129.571 65.3394H132.399C132.519 65.3394 132.634 65.387 132.719 65.4718C132.804 65.5566 132.851 65.6716 132.851 65.7916C132.851 65.8512 132.84 65.9102 132.817 65.9653C132.794 66.0204 132.76 66.0704 132.718 66.1124C132.676 66.1544 132.625 66.1877 132.57 66.2102C132.515 66.2328 132.456 66.2442 132.396 66.2438Z" fill="#E47452"/>
<path d="M131.157 68.5288C131.047 68.5282 130.941 68.4874 130.859 68.4141C130.777 68.3409 130.724 68.2402 130.711 68.1309C130.703 68.0721 130.707 68.0123 130.723 67.9551C130.739 67.8978 130.765 67.8443 130.802 67.7975C130.838 67.7507 130.884 67.7116 130.935 67.6824C130.987 67.6532 131.044 67.6345 131.103 67.6274L133.931 67.2777C133.99 67.2705 134.049 67.2751 134.107 67.2911C134.164 67.307 134.217 67.3341 134.264 67.3708C134.311 67.4075 134.35 67.4531 134.379 67.5048C134.408 67.5566 134.427 67.6137 134.434 67.6727C134.441 67.7317 134.437 67.7915 134.421 67.8487C134.405 67.906 134.378 67.9595 134.341 68.0062C134.304 68.053 134.259 68.0921 134.207 68.1212C134.155 68.1504 134.098 68.169 134.039 68.1761L131.214 68.5228L131.157 68.5288Z" fill="#E47452"/>
<path d="M132.585 70.9287C132.483 70.9288 132.384 70.8947 132.305 70.8318C132.225 70.7689 132.168 70.6809 132.145 70.5821C132.117 70.4654 132.137 70.3426 132.2 70.2405C132.263 70.1383 132.363 70.065 132.479 70.0364L135.518 69.3008C135.576 69.2865 135.636 69.2838 135.695 69.2929C135.754 69.302 135.81 69.3227 135.861 69.3539C135.912 69.385 135.956 69.4259 135.991 69.4743C136.026 69.5226 136.051 69.5774 136.064 69.6354C136.092 69.7518 136.073 69.8745 136.011 69.9768C135.949 70.0791 135.849 70.1525 135.732 70.1811L132.675 70.9046C132.646 70.9162 132.616 70.9242 132.585 70.9287Z" fill="#E47452"/>
<path d="M131.619 52.6349L126.739 56.7143C126.391 57.0047 126.345 57.5219 126.635 57.8694L137.25 70.5687C137.54 70.9162 138.057 70.9624 138.405 70.6719L143.286 66.5925C143.633 66.302 143.679 65.7849 143.389 65.4374L132.774 52.7381C132.484 52.3906 131.967 52.3444 131.619 52.6349Z" fill="black"/>
<path d="M131.641 54.2499L128.328 57.0186C127.981 57.309 127.935 57.8261 128.225 58.1736L137.235 68.9529C137.525 69.3004 138.042 69.3467 138.39 69.0563L141.702 66.2876C142.05 65.9971 142.096 65.48 141.806 65.1326L132.796 54.3532C132.505 54.0057 131.988 53.9594 131.641 54.2499Z" fill="#F0F0F0"/>
<path d="M184.261 54.5618C184.261 54.5618 182.166 52.4997 182.536 47.4922H175.027C175.027 47.4922 175.874 52.2947 172.455 54.393C172.455 54.393 174.418 56.9646 178.786 56.9646C183.154 56.9646 184.261 54.5618 184.261 54.5618Z" fill="#FF9C70"/>
<path d="M186.424 40.8024C186.424 40.8024 184.863 49.6598 178.089 50.2206C171.314 50.7813 170.416 43.8895 170.766 43.5278C171.115 43.166 172.517 43.5278 173.681 43.4886C174.845 43.4494 176.886 42.0445 179.05 42.0445C181.215 42.0445 181.697 42.768 182.137 42.3671C182.577 41.9661 183.461 37.6761 183.343 35.3125C183.226 32.9489 181.534 32.8676 181.58 29.3795L170.455 31.74C169.926 31.8531 169.376 31.808 168.872 31.6104C167.115 30.923 163.093 29.0719 163.063 26.5335C163.024 23.2866 166.379 23.8202 166.379 23.8202C166.379 23.8202 166.901 17.848 172.671 20.2025C172.671 20.2025 174.637 16.3135 177.796 18.8007C180.956 21.2878 180.962 22.7681 180.962 22.7681C180.962 22.7681 187.537 22.0445 188.899 26.2954C190.262 30.5462 188.55 38.68 186.424 40.8024Z" fill="#5405BE"/>
<path d="M184.945 34.9895C186.151 33.9494 189.112 34.269 189.594 35.8337C190.076 37.3983 188.831 40.802 187.628 40.802C186.426 40.802 184.424 39.3881 184.424 37.8686C184.441 36.8871 184.617 35.9147 184.945 34.9895Z" fill="#FF9C70"/>
<path d="M187.733 39.1013C187.653 39.1009 187.575 39.0796 187.505 39.0394C187.436 38.9992 187.378 38.9415 187.338 38.8721C187.283 38.7693 187.27 38.6491 187.302 38.5367C187.333 38.4244 187.407 38.3285 187.507 38.2692C187.701 38.1433 187.846 37.9555 187.919 37.7364C187.992 37.5173 187.988 37.28 187.908 37.0633C187.896 36.9901 187.867 36.9207 187.824 36.8605C187.78 36.8003 187.724 36.751 187.658 36.7166C187.346 36.6166 187.008 36.6262 186.702 36.7437C186.59 36.7848 186.466 36.7801 186.357 36.7304C186.248 36.6808 186.163 36.5903 186.12 36.4784C186.078 36.3661 186.083 36.2416 186.133 36.1325C186.182 36.0234 186.273 35.9385 186.386 35.8966C186.482 35.8604 187.363 35.5469 188.068 35.9116C188.245 36.0028 188.4 36.1307 188.523 36.2867C188.646 36.4426 188.735 36.6231 188.782 36.8161C188.911 37.2259 188.899 37.6668 188.749 38.0691C188.599 38.4715 188.319 38.8124 187.953 39.038C187.887 39.0777 187.811 39.0995 187.733 39.1013Z" fill="#E47452"/>
<path d="M176.08 45.993H175.95C175.742 45.977 175.54 45.9145 175.359 45.8102C175.178 45.7059 175.022 45.5623 174.904 45.39C174.835 45.2925 174.807 45.1713 174.827 45.0532C174.846 44.935 174.912 44.8296 175.01 44.76C175.058 44.7253 175.113 44.7006 175.171 44.6874C175.229 44.6741 175.289 44.6724 175.347 44.6825C175.406 44.6926 175.462 44.7143 175.512 44.7462C175.562 44.7781 175.606 44.8197 175.64 44.8685C175.682 44.9324 175.739 44.9858 175.805 45.0244C175.872 45.0631 175.946 45.0861 176.023 45.0916C176.731 45.1458 177.955 44.1872 178.564 43.5842C178.606 43.5419 178.656 43.5083 178.71 43.4854C178.765 43.4625 178.824 43.4507 178.884 43.4507C178.943 43.4507 179.002 43.4625 179.057 43.4854C179.112 43.5083 179.161 43.5419 179.203 43.5842C179.288 43.669 179.335 43.7839 179.335 43.9037C179.335 44.0236 179.288 44.1385 179.203 44.2233C179.013 44.4042 177.412 45.993 176.08 45.993Z" fill="#E47452"/>
<path d="M174.585 42.1044C174.449 42.1098 174.313 42.0857 174.187 42.0336C174.061 41.9816 173.948 41.9029 173.855 41.8029C173.252 41.1336 173.855 37.5642 174.458 34.6911C174.484 34.5739 174.554 34.4714 174.655 34.4059C174.755 34.3404 174.877 34.3172 174.995 34.3414C175.112 34.3673 175.214 34.4387 175.279 34.5398C175.344 34.6408 175.367 34.7635 175.341 34.881C174.778 37.5039 174.313 40.6272 174.524 41.212C174.738 41.2964 175.598 40.9106 176.394 40.2714C176.44 40.2343 176.493 40.2068 176.551 40.1903C176.608 40.1739 176.668 40.1689 176.727 40.1757C176.786 40.1824 176.843 40.2007 176.895 40.2295C176.947 40.2584 176.993 40.2972 177.03 40.3438C177.067 40.39 177.094 40.4431 177.111 40.5C177.127 40.5569 177.132 40.6166 177.125 40.6754C177.119 40.7342 177.1 40.7911 177.071 40.8429C177.043 40.8946 177.004 40.9402 176.957 40.9769C176.569 41.2844 175.453 42.1044 174.585 42.1044Z" fill="#E47452"/>
<path d="M171.247 36.1259C171.145 36.1265 171.047 36.0876 170.973 36.0174C170.899 35.9428 170.857 35.842 170.857 35.737C170.857 35.6319 170.899 35.5312 170.973 35.4566C172.064 34.32 173.282 34.6909 173.771 35.0466C173.813 35.0769 173.849 35.1151 173.876 35.1593C173.903 35.2034 173.922 35.2525 173.93 35.3037C173.939 35.3549 173.937 35.4073 173.925 35.4579C173.913 35.5084 173.891 35.5561 173.861 35.5983C173.831 35.6405 173.793 35.6763 173.748 35.7037C173.704 35.7311 173.655 35.7495 173.604 35.7579C173.553 35.7663 173.5 35.7646 173.45 35.7527C173.399 35.7408 173.352 35.7191 173.309 35.6887C173.219 35.6254 172.405 35.1069 171.546 35.9902C171.508 36.0327 171.463 36.0668 171.411 36.0902C171.36 36.1136 171.304 36.1258 171.247 36.1259Z" fill="#47243B"/>
<path d="M176.881 35.4086C176.779 35.4092 176.681 35.3703 176.607 35.3001C176.57 35.2634 176.541 35.2197 176.521 35.1716C176.501 35.1234 176.49 35.0718 176.49 35.0197C176.49 34.9675 176.501 34.916 176.521 34.8678C176.541 34.8197 176.57 34.776 176.607 34.7393C177.698 33.6028 178.913 33.9736 179.405 34.3293C179.447 34.3596 179.483 34.3979 179.51 34.442C179.538 34.4861 179.556 34.5352 179.564 34.5864C179.573 34.6377 179.571 34.69 179.559 34.7406C179.547 34.7911 179.525 34.8389 179.495 34.881C179.465 34.9232 179.427 34.9591 179.383 34.9864C179.338 35.0138 179.289 35.0323 179.238 35.0407C179.187 35.0491 179.134 35.0473 179.084 35.0354C179.033 35.0235 178.986 35.0018 178.943 34.9715C178.853 34.9082 178.039 34.3896 177.177 35.2729C177.14 35.3157 177.095 35.3499 177.044 35.3734C176.993 35.3968 176.938 35.4088 176.881 35.4086Z" fill="#47243B"/>
<path d="M172.476 38.4078C172.102 38.4078 171.852 38.0069 171.852 37.4129C171.852 36.819 172.102 36.415 172.476 36.415C172.849 36.415 173.103 36.816 173.103 37.4129C173.103 38.0099 172.849 38.4078 172.476 38.4078Z" fill="#47243B"/>
<path d="M177.764 37.9464C177.39 37.9464 177.137 37.5454 177.137 36.9485C177.137 36.3516 177.39 35.9536 177.764 35.9536C178.138 35.9536 178.388 36.3546 178.388 36.9485C178.388 37.5424 178.138 37.9464 177.764 37.9464Z" fill="#47243B"/>
<path d="M151.984 59.2731C157.58 59.2731 162.117 54.7366 162.117 49.1405C162.117 43.5443 157.58 39.0078 151.984 39.0078C146.388 39.0078 141.852 43.5443 141.852 49.1405C141.852 54.7366 146.388 59.2731 151.984 59.2731Z" fill="#4DAB75"/>
<path d="M149.515 54.1302C149.456 54.0531 149.419 53.9613 149.409 53.8649C149.393 53.7635 149.404 53.6597 149.439 53.5634C149.472 53.4747 149.527 53.3958 149.599 53.3343C149.676 53.2731 149.772 53.241 149.871 53.2439C149.959 53.2456 150.044 53.2751 150.115 53.3283C150.196 53.3856 150.287 53.4549 150.386 53.5393C150.486 53.6238 150.594 53.7082 150.715 53.8016C150.847 53.9007 150.987 53.9884 151.134 54.0639L151.354 54.1755V51.8812L150.778 51.6129C150.546 51.5058 150.328 51.3722 150.127 51.2149C149.923 51.0551 149.745 50.865 149.599 50.6512C149.451 50.4315 149.374 50.1715 149.379 49.9065C149.379 49.6854 149.425 49.4667 149.515 49.2644C149.607 49.0522 149.738 48.859 149.901 48.6946C150.079 48.5144 150.288 48.3683 150.519 48.2635C150.784 48.1448 151.065 48.0665 151.354 48.0314V47.6153C151.349 47.3695 151.378 47.1241 151.438 46.8857C151.462 46.7919 151.518 46.7098 151.597 46.6544C151.677 46.599 151.773 46.5741 151.869 46.5842C151.963 46.5753 152.058 46.601 152.134 46.6565C152.211 46.712 152.264 46.7935 152.285 46.8857C152.347 47.1064 152.376 47.3349 152.373 47.564C152.373 47.6545 152.373 47.7419 152.373 47.8233C152.373 47.9047 152.373 47.9892 152.373 48.0796C152.524 48.108 152.675 48.1452 152.822 48.1911C153.018 48.2505 153.21 48.322 153.398 48.4052C153.578 48.48 153.746 48.5816 153.895 48.7067C153.958 48.753 154.009 48.8129 154.045 48.8818C154.081 48.9507 154.101 49.0269 154.103 49.1046C154.103 49.1652 154.092 49.2252 154.068 49.2811C154.045 49.337 154.011 49.3877 153.968 49.4302C153.921 49.4773 153.866 49.5142 153.805 49.5386C153.743 49.563 153.678 49.5744 153.612 49.5719C153.509 49.5678 153.407 49.5464 153.31 49.5086C153.196 49.4704 153.081 49.4252 152.967 49.3729L152.641 49.2282C152.559 49.1863 152.474 49.1491 152.388 49.1167C152.388 49.4754 152.388 49.8312 152.388 50.1839C152.388 50.5366 152.388 50.8954 152.388 51.2632C152.651 51.3596 152.913 51.4601 153.175 51.5647C153.427 51.6649 153.666 51.7966 153.886 51.9566C154.093 52.1058 154.27 52.293 154.408 52.5083C154.546 52.737 154.616 53.0007 154.61 53.268C154.618 53.571 154.549 53.871 154.408 54.1393C154.277 54.3736 154.099 54.5787 153.886 54.7422C153.668 54.9038 153.426 55.03 153.169 55.1161C152.91 55.2047 152.645 55.2742 152.376 55.3241V55.7492C152.376 55.8908 152.376 56.0506 152.376 56.1833C152.349 56.3174 152.278 56.4386 152.174 56.527C152.089 56.5975 151.983 56.6369 151.872 56.6385C151.812 56.6432 151.751 56.634 151.694 56.6115C151.638 56.589 151.588 56.5539 151.547 56.5089C151.473 56.4137 151.425 56.3018 151.405 56.1833C151.38 56.038 151.367 55.8906 151.369 55.7431C151.369 55.5773 151.369 55.4236 151.369 55.2759C151.146 55.2193 150.926 55.1499 150.712 55.0678C150.543 55.0026 150.383 54.9176 150.235 54.8146C150.105 54.7261 149.984 54.6252 149.873 54.5131C149.726 54.3805 149.62 54.2599 149.515 54.1302ZM151.366 49.1016L151.119 49.174C151.027 49.2008 150.939 49.2382 150.856 49.2855C150.769 49.3361 150.689 49.3979 150.618 49.4694C150.539 49.5488 150.48 49.646 150.446 49.7528C150.447 49.8709 150.471 49.9878 150.519 50.0961C150.566 50.2045 150.634 50.3021 150.721 50.3829C150.909 50.5706 151.127 50.7263 151.366 50.8441V49.1016ZM152.358 52.3033C152.358 52.6379 152.358 52.9695 152.358 53.2951C152.358 53.6207 152.358 53.9493 152.358 54.2749C152.501 54.2594 152.642 54.2249 152.777 54.1724C152.945 54.1044 153.108 54.0248 153.265 53.9343C153.403 53.8269 153.5 53.6743 153.537 53.5032C153.552 53.4177 153.549 53.3297 153.528 53.2454C153.507 53.1611 153.467 53.0825 153.413 53.0148C153.25 52.8731 153.093 52.7495 152.943 52.6379C152.756 52.5118 152.561 52.3999 152.358 52.3033Z" fill="white"/>
<path d="M153.634 42.5228C153.549 42.4388 153.434 42.3918 153.315 42.3918C153.195 42.3918 153.08 42.4388 152.995 42.5228L152.434 43.0805V40.9039C152.434 40.7839 152.387 40.6689 152.302 40.5841C152.217 40.4993 152.102 40.4517 151.982 40.4517C151.862 40.4517 151.747 40.4993 151.662 40.5841C151.578 40.6689 151.53 40.7839 151.53 40.9039V43.1258L150.975 42.565C150.933 42.5227 150.884 42.4892 150.829 42.4662C150.774 42.4433 150.715 42.4315 150.656 42.4315C150.596 42.4315 150.537 42.4433 150.483 42.4662C150.428 42.4892 150.378 42.5227 150.336 42.565C150.252 42.6502 150.205 42.765 150.205 42.8846C150.205 43.0042 150.252 43.119 150.336 43.2041L151.645 44.5125C151.729 44.5974 151.844 44.6451 151.964 44.6452C152.084 44.6451 152.199 44.5974 152.284 44.5125L153.637 43.1589C153.72 43.0735 153.766 42.9591 153.765 42.8403C153.765 42.7214 153.718 42.6075 153.634 42.5228Z" fill="#D3EADD"/>
<path d="M123.34 48.7789C128.936 48.7789 133.472 44.2424 133.472 38.6463C133.472 33.0502 128.936 28.5137 123.34 28.5137C117.744 28.5137 113.207 33.0502 113.207 38.6463C113.207 44.2424 117.744 48.7789 123.34 48.7789Z" fill="#4DAB75"/>
<path d="M120.866 43.6361C120.807 43.5604 120.77 43.4694 120.761 43.3738C120.747 43.2723 120.757 43.1691 120.791 43.0723C120.823 42.9841 120.878 42.906 120.951 42.8462C121.027 42.7839 121.123 42.7507 121.222 42.7527C121.31 42.7557 121.396 42.7863 121.466 42.8402C121.549 42.8985 121.639 42.9678 121.737 43.0482C121.834 43.1296 121.945 43.217 122.066 43.3135C122.198 43.4126 122.338 43.5003 122.485 43.5758L122.705 43.6873V41.3931L122.129 41.1248C121.898 41.0155 121.68 40.881 121.478 40.7238C121.274 40.5647 121.096 40.3745 120.951 40.16C120.804 39.9407 120.727 39.6822 120.731 39.4184C120.731 39.1963 120.777 38.9767 120.866 38.7733C120.958 38.5611 121.089 38.3679 121.252 38.2035C121.43 38.0242 121.64 37.8791 121.87 37.7754C122.135 37.6552 122.416 37.5769 122.705 37.5432V37.1392C122.701 36.8934 122.729 36.6481 122.79 36.4097C122.813 36.3159 122.87 36.2338 122.949 36.1784C123.028 36.123 123.125 36.098 123.221 36.1082C123.315 36.0993 123.409 36.125 123.486 36.1805C123.562 36.2359 123.616 36.3174 123.637 36.4097C123.698 36.6314 123.728 36.8609 123.724 37.091C123.724 37.1814 123.724 37.2658 123.724 37.3472C123.724 37.4286 123.724 37.5161 123.724 37.6065C123.875 37.634 124.024 37.6703 124.17 37.7151C124.367 37.7741 124.559 37.8467 124.746 37.9321C124.926 38.008 125.093 38.1095 125.244 38.2336C125.306 38.2807 125.357 38.3412 125.393 38.4105C125.429 38.4799 125.449 38.5564 125.452 38.6346C125.452 38.6946 125.44 38.7541 125.416 38.8095C125.393 38.8649 125.359 38.9151 125.316 38.9572C125.27 39.005 125.215 39.0425 125.154 39.0669C125.092 39.0914 125.026 39.1023 124.96 39.0988C124.852 39.0962 124.745 39.0758 124.644 39.0386C124.529 38.9964 124.415 38.9511 124.3 38.9029C124.185 38.8546 124.077 38.8064 123.974 38.7552C123.872 38.7039 123.787 38.6707 123.724 38.6466C123.724 39.0054 123.724 39.3611 123.724 39.7108C123.724 40.0606 123.724 40.4223 123.724 40.7901L124.511 41.0916C124.763 41.1931 125.002 41.3247 125.223 41.4835C125.428 41.6344 125.605 41.8213 125.744 42.0352C125.882 42.2652 125.952 42.5297 125.946 42.798C125.955 43.1 125.885 43.3992 125.744 43.6662C125.614 43.9009 125.436 44.1062 125.223 44.2692C125.005 44.4308 124.762 44.5569 124.505 44.643C124.246 44.7316 123.981 44.8011 123.712 44.851V45.2731C123.712 45.4178 123.712 45.5746 123.712 45.7102C123.684 45.8438 123.613 45.9645 123.51 46.0539C123.425 46.1236 123.319 46.1619 123.209 46.1625C123.148 46.1678 123.087 46.1589 123.03 46.1364C122.974 46.1139 122.923 46.0784 122.883 46.0328C122.809 45.9391 122.76 45.8281 122.741 45.7102C122.716 45.5639 122.704 45.4156 122.705 45.267C122.705 45.1042 122.705 44.9475 122.705 44.8028C122.482 44.7468 122.262 44.6763 122.048 44.5917C121.88 44.5275 121.72 44.4435 121.572 44.3415C121.441 44.2539 121.32 44.1529 121.21 44.0401C121.087 43.9127 120.972 43.7777 120.866 43.6361ZM122.717 38.6104L122.473 38.6828C122.38 38.7077 122.291 38.7453 122.208 38.7943C122.12 38.8439 122.04 38.9058 121.97 38.9782C121.891 39.0565 121.832 39.1527 121.798 39.2586C121.798 39.3773 121.822 39.4947 121.869 39.6036C121.917 39.7125 121.985 39.8105 122.072 39.8917C122.261 40.0778 122.479 40.2325 122.717 40.35V38.6104ZM123.709 41.8091C123.709 42.1438 123.709 42.4754 123.709 42.804C123.709 43.1326 123.709 43.4582 123.709 43.7838C123.853 43.7672 123.993 43.7327 124.128 43.6813C124.297 43.6133 124.46 43.5327 124.616 43.4401C124.755 43.3339 124.851 43.1822 124.888 43.012C124.903 42.926 124.9 42.8378 124.878 42.7532C124.857 42.6685 124.818 42.5893 124.764 42.5206C124.601 42.3819 124.445 42.2583 124.294 42.1468C124.109 42.0184 123.913 41.9055 123.709 41.8091Z" fill="white"/>
<path d="M124.987 32.0321C124.945 31.9898 124.895 31.9562 124.84 31.9333C124.786 31.9104 124.727 31.8986 124.667 31.8986C124.608 31.8986 124.549 31.9104 124.494 31.9333C124.439 31.9562 124.39 31.9898 124.348 32.0321L123.787 32.5898V30.4132C123.787 30.2932 123.739 30.1782 123.655 30.0934C123.57 30.0086 123.455 29.9609 123.335 29.9609C123.215 29.9609 123.1 30.0086 123.015 30.0934C122.93 30.1782 122.882 30.2932 122.882 30.4132V32.6321L122.325 32.0743C122.24 31.9903 122.125 31.9433 122.005 31.9433C121.886 31.9433 121.771 31.9903 121.686 32.0743C121.602 32.1595 121.555 32.2743 121.555 32.3939C121.555 32.5135 121.602 32.6282 121.686 32.7134L122.994 34.0219C123.036 34.0644 123.085 34.0981 123.14 34.1209C123.195 34.1437 123.254 34.1551 123.314 34.1545C123.373 34.1551 123.432 34.1437 123.487 34.1209C123.542 34.0981 123.592 34.0644 123.633 34.0219L124.987 32.6712C125.071 32.5861 125.118 32.4713 125.118 32.3517C125.118 32.2321 125.071 32.1173 124.987 32.0321Z" fill="#D3EADD"/>
<path d="M142.705 26.2531C148.301 26.2531 152.837 21.7165 152.837 16.1204C152.837 10.5243 148.301 5.98779 142.705 5.98779C137.109 5.98779 132.572 10.5243 132.572 16.1204C132.572 21.7165 137.109 26.2531 142.705 26.2531Z" fill="#4DAB75"/>
<path d="M140.232 21.1091C140.174 21.0313 140.138 20.9399 140.126 20.8438C140.111 20.7422 140.123 20.6384 140.159 20.5424C140.19 20.4532 140.244 20.374 140.316 20.3132C140.393 20.2524 140.489 20.2205 140.587 20.2228C140.676 20.2245 140.761 20.2541 140.831 20.3072C140.914 20.3655 141.004 20.4348 141.103 20.5152C141.199 20.5997 141.311 20.6871 141.434 20.7805C141.565 20.8803 141.704 20.9681 141.851 21.0428L142.071 21.1544V18.8601L141.495 18.5918C141.263 18.4847 141.045 18.3512 140.844 18.1939C140.64 18.0336 140.463 17.8423 140.319 17.6271C140.17 17.409 140.092 17.1498 140.096 16.8854C140.096 16.6643 140.142 16.4456 140.232 16.2433C140.325 16.0317 140.456 15.8387 140.617 15.6735C140.797 15.4933 141.007 15.3472 141.238 15.2424C141.502 15.1233 141.783 15.045 142.071 15.0103V14.5942C142.067 14.3482 142.096 14.1029 142.158 13.8647C142.181 13.7711 142.237 13.689 142.315 13.6336C142.394 13.5782 142.49 13.5532 142.586 13.5632C142.68 13.5543 142.774 13.58 142.851 13.6354C142.928 13.6909 142.981 13.7724 143.002 13.8647C143.064 14.0854 143.093 14.3139 143.09 14.543C143.09 14.6334 143.09 14.7209 143.09 14.8023C143.09 14.8837 143.09 14.9681 143.09 15.0585C143.24 15.0873 143.389 15.1246 143.536 15.1701C143.733 15.2276 143.925 15.2991 144.112 15.3841C144.292 15.4589 144.459 15.5606 144.609 15.6856C144.671 15.7319 144.723 15.7918 144.759 15.8607C144.795 15.9296 144.815 16.0058 144.817 16.0835C144.818 16.1439 144.806 16.2038 144.784 16.2598C144.761 16.3157 144.727 16.3665 144.684 16.4091C144.638 16.4557 144.582 16.492 144.521 16.5159C144.46 16.5398 144.394 16.5507 144.329 16.5478C144.219 16.5472 144.111 16.5268 144.009 16.4875C143.894 16.4473 143.78 16.4021 143.665 16.3519L143.34 16.2071C143.237 16.1559 143.153 16.1197 143.09 16.0956C143.09 16.4543 143.09 16.8101 143.09 17.1628C143.09 17.5155 143.09 17.8743 143.09 18.2421C143.349 18.3386 143.611 18.4411 143.873 18.5436C144.126 18.6461 144.365 18.7787 144.585 18.9385C144.792 19.0877 144.969 19.2749 145.106 19.4902C145.246 19.7184 145.316 19.9824 145.308 20.2499C145.318 20.553 145.249 20.8535 145.106 21.1212C144.975 21.3555 144.798 21.5607 144.585 21.7242C144.367 21.8858 144.125 22.0119 143.867 22.098C143.609 22.1862 143.345 22.2558 143.078 22.306V22.7311C143.078 22.8728 143.078 23.0326 143.078 23.1652C143.048 23.2983 142.978 23.4187 142.876 23.5089C142.79 23.5784 142.684 23.6177 142.574 23.6205C142.514 23.6251 142.453 23.6159 142.396 23.5934C142.34 23.571 142.289 23.5358 142.248 23.4908C142.175 23.3956 142.126 23.2838 142.107 23.1652C142.081 23.0189 142.069 22.8706 142.071 22.7221C142.071 22.5593 142.071 22.4055 142.071 22.2578C141.848 22.2013 141.628 22.1318 141.413 22.0497C141.245 21.9845 141.085 21.8995 140.937 21.7965C140.807 21.7081 140.686 21.6071 140.575 21.495C140.446 21.3594 140.337 21.2388 140.232 21.1091ZM142.083 16.0805L141.838 16.1529C141.746 16.1791 141.657 16.2166 141.573 16.2644C141.486 16.315 141.406 16.3768 141.335 16.4483C141.258 16.5282 141.199 16.6239 141.163 16.7287C141.164 16.8476 141.189 16.9651 141.236 17.0739C141.284 17.1828 141.353 17.2808 141.44 17.3618C141.628 17.5488 141.845 17.7036 142.083 17.8201V16.0805ZM143.078 19.2822C143.078 19.6169 143.078 19.9485 143.078 20.2741C143.078 20.5997 143.078 20.9283 143.078 21.2539C143.22 21.2383 143.36 21.2038 143.494 21.1514C143.662 21.0828 143.826 21.0033 143.985 20.9132C144.121 20.8047 144.216 20.6524 144.253 20.4821C144.269 20.3966 144.266 20.3087 144.245 20.2244C144.224 20.1401 144.184 20.0614 144.13 19.9937C143.967 19.852 143.81 19.7284 143.659 19.6168C143.475 19.49 143.28 19.3781 143.078 19.2822Z" fill="white"/>
<path d="M144.342 9.50243C144.257 9.41848 144.142 9.37142 144.023 9.37142C143.903 9.37142 143.788 9.41848 143.703 9.50243L143.145 10.0602V7.89557C143.145 7.77564 143.098 7.66061 143.013 7.57581C142.928 7.491 142.813 7.44336 142.693 7.44336C142.573 7.44336 142.458 7.491 142.374 7.57581C142.289 7.66061 142.241 7.77564 142.241 7.89557V10.1175L141.683 9.55973C141.641 9.51735 141.591 9.4837 141.536 9.46074C141.481 9.43778 141.422 9.42596 141.362 9.42596C141.303 9.42596 141.243 9.43778 141.188 9.46074C141.133 9.4837 141.083 9.51735 141.041 9.55973C140.957 9.64491 140.91 9.75968 140.91 9.87928C140.91 9.99888 140.957 10.1137 141.041 10.1989L142.35 11.5073C142.435 11.5913 142.55 11.6389 142.669 11.6399C142.79 11.6393 142.906 11.5917 142.992 11.5073L144.342 10.1536C144.387 10.1117 144.422 10.0612 144.446 10.0052C144.47 9.94924 144.482 9.88896 144.482 9.82805C144.482 9.76714 144.47 9.70686 144.446 9.65089C144.422 9.59492 144.387 9.5444 144.342 9.50243Z" fill="#D3EADD"/>
<path d="M112.586 20.2653C118.182 20.2653 122.718 15.7287 122.718 10.1326C122.718 4.53654 118.182 0 112.586 0C106.99 0 102.453 4.53654 102.453 10.1326C102.453 15.7287 106.99 20.2653 112.586 20.2653Z" fill="#4DAB75"/>
<path d="M110.112 15.1311C110.053 15.0554 110.017 14.9645 110.007 14.8688C109.993 14.7674 110.004 14.6642 110.037 14.5674C110.069 14.4791 110.124 14.401 110.197 14.3412C110.273 14.2789 110.37 14.2458 110.468 14.2478C110.557 14.2508 110.642 14.2813 110.712 14.3352C110.795 14.3935 110.885 14.4629 110.984 14.5433C111.08 14.6246 111.192 14.7121 111.312 14.8055C111.443 14.9067 111.584 14.9955 111.731 15.0708L111.951 15.1824V12.8881L111.376 12.6168C111.144 12.5097 110.925 12.3761 110.724 12.2188C110.52 12.0597 110.342 11.8695 110.197 11.6551C110.05 11.4357 109.974 11.1772 109.977 10.9135C109.977 10.6914 110.023 10.4718 110.112 10.2683C110.205 10.0561 110.336 9.86291 110.498 9.6985C110.676 9.51924 110.886 9.37416 111.116 9.27042C111.381 9.15032 111.663 9.072 111.951 9.03828V8.61922C111.947 8.37336 111.975 8.12801 112.036 7.88963C112.059 7.79586 112.116 7.7137 112.195 7.6583C112.274 7.60291 112.371 7.578 112.467 7.58816C112.561 7.57857 112.656 7.60399 112.732 7.65959C112.809 7.71519 112.863 7.79707 112.883 7.88963C112.944 8.11141 112.974 8.34085 112.97 8.57098C112.97 8.66142 112.97 8.74582 112.97 8.82722C112.97 8.90862 112.97 8.99605 112.97 9.08649C113.121 9.1125 113.27 9.14879 113.417 9.19505C113.613 9.25362 113.806 9.32615 113.992 9.41211C114.172 9.48796 114.339 9.58952 114.49 9.71358C114.552 9.76038 114.603 9.82035 114.639 9.88916C114.674 9.95798 114.695 10.0339 114.698 10.1115C114.698 10.1721 114.686 10.2321 114.663 10.288C114.639 10.3439 114.605 10.3946 114.562 10.4371C114.516 10.4845 114.461 10.5216 114.399 10.5461C114.338 10.5705 114.272 10.5817 114.206 10.5788C114.098 10.5762 113.991 10.5558 113.89 10.5185L113.546 10.3829C113.432 10.3346 113.323 10.2834 113.221 10.2351C113.118 10.1869 113.034 10.1507 112.97 10.1266C112.97 10.4854 112.97 10.8411 112.97 11.1908C112.97 11.5405 112.97 11.9023 112.97 12.2701C113.232 12.3686 113.494 12.4691 113.757 12.5716C114.009 12.673 114.248 12.8046 114.469 12.9635C114.675 13.1144 114.851 13.3013 114.99 13.5152C115.129 13.7452 115.199 14.0097 115.192 14.2779C115.201 14.5799 115.131 14.879 114.99 15.1462C114.86 15.3809 114.682 15.5862 114.469 15.7492C114.25 15.9096 114.008 16.0357 113.751 16.123C113.492 16.2116 113.227 16.2811 112.958 16.331V16.7531C112.958 16.8978 112.958 17.0545 112.958 17.1902C112.931 17.3232 112.86 17.4433 112.756 17.5309C112.672 17.6028 112.565 17.6423 112.455 17.6424C112.394 17.6478 112.333 17.6389 112.277 17.6163C112.22 17.5938 112.17 17.5584 112.129 17.5128C112.055 17.419 112.007 17.308 111.988 17.1902C111.962 17.0438 111.95 16.8955 111.951 16.747C111.951 16.5842 111.951 16.4274 111.951 16.2827C111.728 16.229 111.508 16.1595 111.294 16.0747C111.126 16.0105 110.966 15.9265 110.818 15.8245C110.687 15.7369 110.566 15.6359 110.456 15.5231C110.334 15.3995 110.219 15.2686 110.112 15.1311ZM111.963 10.1025C111.891 10.1296 111.81 10.1537 111.719 10.1778C111.627 10.203 111.538 10.2395 111.454 10.2864C111.368 10.3379 111.288 10.3997 111.216 10.4703C111.139 10.5518 111.081 10.6483 111.044 10.7537C111.044 10.8723 111.069 10.9896 111.116 11.0984C111.163 11.2073 111.232 11.3054 111.318 11.3868C111.508 11.5721 111.726 11.7268 111.963 11.845V10.1025ZM112.955 13.3041C112.955 13.6388 112.955 13.9704 112.955 14.299C112.955 14.6276 112.955 14.9532 112.955 15.2788C113.099 15.2622 113.239 15.2278 113.374 15.1763C113.542 15.1072 113.706 15.0266 113.863 14.9351C114.001 14.8289 114.097 14.6773 114.134 14.5071C114.149 14.4211 114.146 14.3329 114.124 14.2483C114.103 14.1636 114.064 14.0844 114.011 14.0157C113.848 13.877 113.691 13.7534 113.54 13.6418C113.355 13.5103 113.16 13.3944 112.955 13.2951V13.3041Z" fill="white"/>
<path d="M114.235 3.51841C114.193 3.47612 114.143 3.44255 114.089 3.41964C114.034 3.39672 113.975 3.38489 113.915 3.38489C113.856 3.38489 113.797 3.39672 113.742 3.41964C113.687 3.44255 113.637 3.47612 113.596 3.51841L113.035 4.07613V1.89948C113.035 1.77955 112.987 1.66452 112.902 1.57971C112.818 1.49491 112.703 1.44727 112.583 1.44727C112.463 1.44727 112.348 1.49491 112.263 1.57971C112.178 1.66452 112.131 1.77955 112.131 1.89948V4.11835L111.573 3.56062C111.488 3.47667 111.373 3.42961 111.253 3.42961C111.134 3.42961 111.019 3.47667 110.934 3.56062C110.85 3.6458 110.803 3.76061 110.803 3.8802C110.803 3.9998 110.85 4.11458 110.934 4.19975L112.242 5.50815C112.327 5.59243 112.442 5.64006 112.562 5.64082C112.682 5.64071 112.797 5.59298 112.881 5.50815L114.235 4.15754C114.319 4.07236 114.366 3.95759 114.366 3.83799C114.366 3.7184 114.319 3.60359 114.235 3.51841Z" fill="#D3EADD"/>
<path d="M236.794 186.569H219.703C219.007 186.569 218.443 187.134 218.443 187.83V187.833C218.443 188.528 219.007 189.093 219.703 189.093H236.794C237.49 189.093 238.054 188.528 238.054 187.833V187.83C238.054 187.134 237.49 186.569 236.794 186.569Z" fill="#335076"/>
<path d="M227.5 36.7744H225.51V186.569H227.5V36.7744Z" fill="#335076"/>
<path fill-rule="evenodd" clip-rule="evenodd" d="M178.17 111.667C178.417 111.628 178.648 111.797 178.686 112.044L184.369 148.562C184.408 148.809 184.239 149.04 183.992 149.078C183.745 149.117 183.514 148.948 183.476 148.701L177.793 112.183C177.754 111.936 177.923 111.705 178.17 111.667Z" fill="#5405BE"/>
<path fill-rule="evenodd" clip-rule="evenodd" d="M187.498 54.4001C187.587 54.1666 187.848 54.0493 188.082 54.138C190.313 54.9859 192.483 56.2766 194.086 57.3475C194.89 57.8843 195.556 58.3686 196.022 58.7192C196.255 58.8946 196.438 59.0366 196.563 59.1352C196.625 59.1845 196.674 59.223 196.706 59.2493C196.723 59.2624 196.735 59.2726 196.744 59.2795L196.754 59.2875L196.757 59.2905C196.757 59.2906 196.757 59.2906 196.471 59.6406L196.757 59.2905C196.951 59.4486 196.979 59.7337 196.821 59.927C196.663 60.1203 196.378 60.1488 196.185 59.9906L196.449 59.6678C196.185 59.9906 196.185 59.9906 196.185 59.9906L196.182 59.9887L196.174 59.982C196.167 59.9759 196.155 59.9666 196.14 59.9544C196.109 59.9298 196.063 59.8931 196.003 59.8457C195.883 59.7508 195.705 59.6128 195.478 59.4417C195.023 59.0994 194.371 58.6253 193.584 58.0997C192.006 57.0459 189.901 55.7968 187.76 54.9835C187.527 54.8947 187.41 54.6336 187.498 54.4001Z" fill="#5405BE"/>
<path fill-rule="evenodd" clip-rule="evenodd" d="M189.188 69.0861C189.406 68.965 189.682 69.0439 189.803 69.2623C190.682 70.8474 191.977 72.4616 193.064 73.6888C193.605 74.3002 194.091 74.8109 194.441 75.1684C194.616 75.3471 194.757 75.4874 194.854 75.5826C194.902 75.6303 194.939 75.6666 194.964 75.6909L194.993 75.7181L194.999 75.7247L195.001 75.7266C195.001 75.7265 195.001 75.7266 195.001 75.7266M189.188 69.0861C188.97 69.2073 188.891 69.4825 189.012 69.7009L189.188 69.0861ZM189.012 69.7009C189.939 71.3717 191.284 73.0436 192.387 74.2885L189.012 69.7009ZM192.387 74.2885C192.94 74.9132 193.437 75.4351 193.795 75.8011L192.387 74.2885ZM193.795 75.8011C193.974 75.9841 194.119 76.1284 194.219 76.2272L193.795 75.8011ZM194.219 76.2272C194.269 76.2766 194.308 76.3147 194.335 76.3406L194.219 76.2272ZM194.335 76.3406C194.349 76.3535 194.359 76.3634 194.366 76.3702L194.335 76.3406ZM194.366 76.3702L194.374 76.378L194.366 76.3702ZM194.374 76.378L194.376 76.3801L194.374 76.378ZM194.376 76.3801L194.377 76.3807L194.376 76.3801ZM194.377 76.3807C194.377 76.3807 194.377 76.381 194.689 76.0538L194.377 76.3807Z" fill="#5405BE"/>
<path fill-rule="evenodd" clip-rule="evenodd" d="M170.578 70.5626C170.78 70.7092 170.826 70.992 170.679 71.1942C169.685 72.5651 168.24 74.3527 167.048 75.7918C166.451 76.5126 165.916 77.1483 165.53 77.6038C165.337 77.8316 165.181 78.0143 165.074 78.1402C165.02 78.2032 164.978 78.2519 164.95 78.285L164.907 78.3353C164.907 78.3354 164.906 78.3356 164.564 78.0407C164.221 77.7458 164.221 77.7458 164.221 77.7458L164.263 77.6963C164.291 77.6636 164.333 77.6153 164.386 77.5528C164.493 77.4277 164.648 77.2458 164.84 77.0191C165.224 76.5655 165.757 75.9325 166.352 75.2149C167.542 73.7772 168.972 72.0089 169.947 70.6634C170.093 70.4612 170.376 70.4161 170.578 70.5626ZM164.269 78.3835C164.079 78.2207 164.058 77.9351 164.221 77.7458L164.564 78.0407L164.906 78.3356C164.744 78.5249 164.458 78.5464 164.269 78.3835Z" fill="#5405BE"/>
<path fill-rule="evenodd" clip-rule="evenodd" d="M145.596 77.4171C145.769 77.2365 146.055 77.2301 146.235 77.4027L155.635 86.3891L156.921 84.9501C157.088 84.7638 157.373 84.7478 157.56 84.9142C157.746 85.0807 157.762 85.3665 157.596 85.5528L155.686 87.6892L145.61 78.0564C145.43 77.8838 145.423 77.5976 145.596 77.4171Z" fill="#5405BE"/>
<path fill-rule="evenodd" clip-rule="evenodd" d="M201.458 77.9926C201.656 78.1444 201.694 78.4283 201.542 78.6266L197.632 83.7336C197.48 83.9319 197.196 83.9696 196.998 83.8177C196.799 83.6659 196.762 83.3821 196.913 83.1838L200.824 78.0767C200.975 77.8784 201.259 77.8408 201.458 77.9926Z" fill="#5405BE"/>
<path fill-rule="evenodd" clip-rule="evenodd" d="M201.716 78.649C201.755 78.4022 201.986 78.2332 202.233 78.2715L203.882 78.5278C204.128 78.5662 204.297 78.7973 204.259 79.0441C204.221 79.2909 203.99 79.4599 203.743 79.4215L202.094 79.1652C201.847 79.1269 201.678 78.8957 201.716 78.649Z" fill="#5405BE"/>
<path fill-rule="evenodd" clip-rule="evenodd" d="M203.826 76.2509C203.97 76.4549 203.921 76.7371 203.717 76.8812L202.424 77.7947C202.22 77.9388 201.938 77.8902 201.794 77.6862C201.65 77.4822 201.698 77.2 201.902 77.0559L203.196 76.1424C203.4 75.9984 203.682 76.0469 203.826 76.2509Z" fill="#5405BE"/>
<path fill-rule="evenodd" clip-rule="evenodd" d="M165.534 94.3409C165.784 94.3453 165.983 94.5513 165.978 94.801L165.86 101.492H170.6C170.85 101.492 171.052 101.694 171.052 101.944C171.052 102.194 170.85 102.396 170.6 102.396H164.939L165.074 94.785C165.079 94.5353 165.285 94.3365 165.534 94.3409Z" fill="#5405BE"/>
<path fill-rule="evenodd" clip-rule="evenodd" d="M164.673 26.5724L164.673 26.5726L164.673 26.573L164.673 26.5714C164.673 26.5691 164.674 26.5649 164.674 26.5588C164.675 26.5466 164.677 26.5272 164.68 26.5016C164.687 26.4504 164.698 26.3759 164.716 26.2874C164.754 26.1067 164.817 25.8853 164.922 25.6878C165.026 25.4895 165.155 25.3458 165.309 25.2693C165.451 25.1982 165.673 25.1558 166.033 25.2698C166.271 25.3453 166.525 25.2135 166.6 24.9755C166.676 24.7374 166.544 24.4832 166.306 24.4077C165.767 24.2368 165.296 24.2649 164.905 24.4598C164.525 24.6492 164.279 24.967 164.122 25.2657C163.964 25.5653 163.878 25.8765 163.831 26.1043C163.807 26.22 163.792 26.3186 163.783 26.3895C163.779 26.425 163.776 26.4538 163.774 26.4747C163.773 26.4851 163.772 26.4935 163.771 26.4998L163.771 26.5077L163.771 26.5103L163.771 26.5114L163.771 26.5118C163.771 26.512 163.771 26.5122 164.222 26.5421L163.771 26.5122C163.754 26.7614 163.943 26.9768 164.192 26.9933C164.441 27.0098 164.656 26.8218 164.673 26.5732C164.673 26.5729 164.673 26.5726 164.673 26.5724Z" fill="white"/>
<path fill-rule="evenodd" clip-rule="evenodd" d="M168.756 21.6484C168.538 21.7707 168.263 21.6936 168.14 21.4761C168.018 21.2585 168.095 20.9827 168.312 20.8601L168.534 21.2542C168.312 20.8601 168.313 20.8601 168.313 20.86L168.313 20.8597L168.314 20.8592L168.316 20.8579L168.323 20.8543C168.328 20.8515 168.335 20.8477 168.344 20.8432C168.361 20.8341 168.385 20.8217 168.415 20.807C168.476 20.7775 168.562 20.738 168.669 20.6947C168.884 20.6084 169.189 20.5054 169.555 20.4366C170.287 20.2992 171.287 20.2955 172.289 20.8601C172.507 20.9827 172.584 21.2585 172.462 21.4761C172.339 21.6937 172.063 21.7708 171.846 21.6482C171.082 21.218 170.315 21.2143 169.722 21.3256C169.426 21.3811 169.179 21.4647 169.007 21.5338C168.921 21.5683 168.855 21.5987 168.812 21.6198C168.791 21.6303 168.775 21.6384 168.765 21.6433C168.761 21.6458 168.757 21.6475 168.756 21.6484C168.755 21.6487 168.755 21.6489 168.755 21.649L168.755 21.6488L168.756 21.6485L168.756 21.6484ZM168.755 21.649C168.755 21.649 168.755 21.649 168.755 21.649L168.755 21.649Z" fill="white"/>
<path fill-rule="evenodd" clip-rule="evenodd" d="M174.399 19.8553L174.086 19.529C173.906 19.7019 173.9 19.9882 174.073 20.1684C174.245 20.3479 174.53 20.3545 174.71 20.1837L174.715 20.1792C174.721 20.174 174.732 20.1649 174.747 20.1526C174.777 20.128 174.825 20.091 174.89 20.048C175.02 19.9617 175.213 19.8539 175.461 19.773C175.945 19.6149 176.66 19.5506 177.556 20.0053C177.779 20.1183 178.051 20.0294 178.164 19.8067C178.277 19.584 178.188 19.3118 177.966 19.1988C176.836 18.6255 175.87 18.6878 175.18 18.9133C174.84 19.0243 174.574 19.1725 174.39 19.2943C174.298 19.3554 174.226 19.4105 174.175 19.4519C174.15 19.4726 174.129 19.49 174.115 19.5032C174.107 19.5097 174.101 19.5153 174.096 19.5196L174.09 19.5252L174.088 19.5273L174.087 19.5282L174.087 19.5286C174.087 19.5288 174.086 19.529 174.399 19.8553Z" fill="white"/>
<path fill-rule="evenodd" clip-rule="evenodd" d="M179.849 145.256C179.919 145.017 180.17 144.88 180.41 144.95L181.64 145.312C181.88 145.382 182.017 145.634 181.946 145.873C181.876 146.113 181.624 146.25 181.385 146.18L180.155 145.818C179.915 145.747 179.778 145.496 179.849 145.256Z" fill="#5405BE"/>
<path fill-rule="evenodd" clip-rule="evenodd" d="M182.303 146.874C182.361 147.117 182.211 147.361 181.968 147.419L179.958 147.898C179.715 147.956 179.471 147.806 179.413 147.563C179.355 147.32 179.505 147.077 179.748 147.019L181.759 146.539C182.002 146.481 182.246 146.631 182.303 146.874Z" fill="#5405BE"/>
<path fill-rule="evenodd" clip-rule="evenodd" d="M167.654 121.915C167.903 121.9 168.117 122.091 168.132 122.34L169.305 141.996C169.32 142.245 169.13 142.46 168.88 142.474C168.631 142.489 168.417 142.299 168.402 142.05L167.229 122.394C167.214 122.144 167.405 121.93 167.654 121.915Z" fill="#5405BE"/>
<path fill-rule="evenodd" clip-rule="evenodd" d="M154.208 74.5331C154.452 74.5881 154.605 74.8301 154.55 75.0738L154.306 76.1561C154.251 76.3997 154.009 76.5527 153.765 76.4977C153.521 76.4428 153.368 76.2007 153.423 75.9571L153.667 74.8748C153.722 74.6312 153.964 74.4782 154.208 74.5331Z" fill="#5405BE"/>
<path fill-rule="evenodd" clip-rule="evenodd" d="M155.241 74.7375C155.487 74.6923 155.723 74.8547 155.768 75.1003L156.127 77.0479C156.172 77.2935 156.01 77.5293 155.764 77.5745C155.519 77.6198 155.283 77.4574 155.238 77.2118L154.879 75.2642C154.833 75.0186 154.996 74.7828 155.241 74.7375Z" fill="#5405BE"/>
<path d="M49.6477 125.998C55.3906 125.998 61.0046 127.701 65.7796 130.891C70.5547 134.082 74.2764 138.617 76.4741 143.923C78.6719 149.228 79.2469 155.067 78.1265 160.699C77.0061 166.332 74.2406 171.506 70.1797 175.567C66.1189 179.627 60.945 182.393 55.3125 183.513C49.6799 184.634 43.8416 184.059 38.5358 181.861C33.23 179.663 28.6951 175.942 25.5045 171.166C22.3139 166.391 20.6109 160.777 20.6109 155.035C20.6192 147.336 23.6811 139.955 29.1247 134.512C34.5684 129.068 41.9492 126.006 49.6477 125.998ZM49.6477 121.83C43.0801 121.829 36.6598 123.775 31.1986 127.423C25.7374 131.071 21.4806 136.257 18.9666 142.324C16.4526 148.391 15.7943 155.068 17.0749 161.509C18.3555 167.951 21.5176 173.868 26.1612 178.512C30.8048 183.156 36.7213 186.319 43.1626 187.601C49.6039 188.883 56.2805 188.225 62.3482 185.712C68.416 183.199 73.6022 178.943 77.251 173.483C80.8998 168.022 82.8474 161.602 82.8474 155.035C82.8474 146.228 79.349 137.782 73.1219 131.555C66.8948 125.328 58.449 121.83 49.6425 121.83H49.6477Z" fill="#335076"/>
<path d="M49.6458 127.237C55.1437 127.236 60.5185 128.866 65.0903 131.919C69.6621 134.973 73.2257 139.314 75.3304 144.393C77.435 149.472 77.9862 155.061 76.9143 160.454C75.8423 165.846 73.1954 170.799 69.3081 174.687C65.4209 178.575 60.468 181.223 55.0758 182.296C49.6837 183.369 44.0944 182.819 39.0149 180.715C33.9354 178.612 29.5939 175.049 26.5393 170.478C23.4847 165.906 21.8544 160.532 21.8544 155.034C21.8612 147.665 24.7913 140.599 30.0016 135.388C35.2119 130.177 42.2767 127.246 49.6458 127.237ZM49.6458 123.251C43.3598 123.251 37.215 125.115 31.9884 128.608C26.7618 132.1 22.6881 137.064 20.2826 142.871C17.8771 148.679 17.2477 155.069 18.474 161.234C19.7003 167.4 22.7273 173.063 27.1722 177.508C31.6171 181.953 37.2802 184.98 43.4454 186.206C49.6106 187.432 56.001 186.803 61.8085 184.397C67.616 181.992 72.5798 177.918 76.0721 172.691C79.5644 167.465 81.4284 161.32 81.4284 155.034C81.4284 146.605 78.0799 138.521 72.1195 132.56C66.1591 126.6 58.0751 123.251 49.6458 123.251Z" fill="#335076"/>
<path d="M149.393 125.998C155.136 125.997 160.751 127.699 165.526 130.889C170.302 134.079 174.025 138.613 176.223 143.919C178.422 149.225 178.998 155.063 177.878 160.696C176.758 166.329 173.993 171.503 169.932 175.565C165.872 179.626 160.698 182.392 155.065 183.513C149.432 184.634 143.594 184.059 138.288 181.861C132.982 179.664 128.446 175.942 125.256 171.167C122.065 166.392 120.362 160.778 120.362 155.035C120.37 147.336 123.432 139.955 128.875 134.512C134.319 129.068 141.7 126.006 149.398 125.998M149.398 121.83C142.831 121.83 136.411 123.777 130.951 127.426C125.49 131.074 121.234 136.26 118.721 142.328C116.208 148.395 115.55 155.071 116.831 161.513C118.113 167.954 121.275 173.87 125.919 178.514C130.563 183.158 136.479 186.32 142.92 187.601C149.361 188.883 156.038 188.225 162.105 185.712C168.173 183.199 173.359 178.943 177.007 173.482C180.656 168.022 182.603 161.602 182.603 155.035C182.603 150.674 181.744 146.356 180.076 142.328C178.407 138.299 175.961 134.638 172.878 131.555C169.794 128.472 166.134 126.026 162.105 124.357C158.077 122.688 153.759 121.83 149.398 121.83Z" fill="#335076"/>
<path d="M149.392 127.237C154.89 127.236 160.265 128.866 164.836 131.919C169.408 134.973 172.972 139.314 175.076 144.393C177.181 149.472 177.732 155.061 176.66 160.454C175.588 165.846 172.941 170.799 169.054 174.687C165.167 178.575 160.214 181.223 154.822 182.296C149.43 183.369 143.841 182.819 138.761 180.715C133.682 178.612 129.34 175.049 126.285 170.478C123.231 165.906 121.6 160.532 121.6 155.034C121.607 147.665 124.537 140.599 129.748 135.388C134.958 130.177 142.023 127.246 149.392 127.237ZM149.392 123.251C143.106 123.251 136.961 125.115 131.735 128.608C126.508 132.1 122.434 137.064 120.029 142.871C117.623 148.679 116.994 155.069 118.22 161.234C119.446 167.4 122.473 173.063 126.918 177.508C131.363 181.953 137.026 184.98 143.191 186.206C149.357 187.432 155.747 186.803 161.555 184.397C167.362 181.992 172.326 177.918 175.818 172.691C179.31 167.465 181.174 161.32 181.174 155.034C181.174 146.605 177.826 138.521 171.866 132.56C165.905 126.6 157.821 123.251 149.392 123.251Z" fill="#335076"/>
<path d="M94.0543 161.427C95.0683 161.427 96.0595 161.728 96.9026 162.291C97.7457 162.855 98.4029 163.655 98.7909 164.592C99.179 165.529 99.2805 166.56 99.0827 167.554C98.8848 168.549 98.3966 169.463 97.6795 170.18C96.9625 170.897 96.049 171.385 95.0545 171.583C94.06 171.78 93.0291 171.679 92.0923 171.291C91.1555 170.903 90.3548 170.246 89.7914 169.403C89.2281 168.56 88.9274 167.568 88.9274 166.554C88.9288 165.195 89.4694 163.892 90.4306 162.931C91.3917 161.969 92.695 161.429 94.0543 161.427ZM94.0543 158.822C92.525 158.822 91.0301 159.276 89.7586 160.125C88.4871 160.975 87.4961 162.183 86.9108 163.595C86.3256 165.008 86.1725 166.563 86.4708 168.063C86.7692 169.563 87.5056 170.94 88.5869 172.022C89.6683 173.103 91.046 173.839 92.5458 174.138C94.0457 174.436 95.6004 174.283 97.0132 173.698C98.426 173.113 99.6336 172.121 100.483 170.85C101.333 169.578 101.786 168.084 101.786 166.554C101.787 165.539 101.587 164.533 101.199 163.595C100.811 162.656 100.241 161.804 99.5232 161.085C98.8051 160.367 97.9524 159.798 97.014 159.409C96.0756 159.021 95.0699 158.822 94.0543 158.822Z" fill="#263238"/>
<path d="M49.6471 160.156C52.4757 160.156 54.7688 157.863 54.7688 155.034C54.7688 152.206 52.4757 149.913 49.6471 149.913C46.8184 149.913 44.5254 152.206 44.5254 155.034C44.5254 157.863 46.8184 160.156 49.6471 160.156Z" fill="#263238"/>
<path d="M149.391 160.156C152.22 160.156 154.513 157.863 154.513 155.034C154.513 152.206 152.22 149.913 149.391 149.913C146.563 149.913 144.27 152.206 144.27 155.034C144.27 157.863 146.563 160.156 149.391 160.156Z" fill="#263238"/>
<path d="M49.6416 151.471C49.9676 151.472 50.2919 151.517 50.6055 151.606H50.6629H50.7202L95.6169 160.557C97.0706 160.935 98.3366 161.83 99.1776 163.074C100.019 164.318 100.377 165.826 100.185 167.316C99.9933 168.806 99.2647 170.174 98.1359 171.165C97.0071 172.155 95.5557 172.7 94.0538 172.697C93.5516 172.696 93.0513 172.635 92.5637 172.515L48.7403 158.447H48.7142H48.683C47.8572 158.213 47.1437 157.688 46.6738 156.97C46.2038 156.252 46.0089 155.388 46.1249 154.537C46.2409 153.687 46.6599 152.907 47.3051 152.34C47.9502 151.774 48.778 151.46 49.6364 151.455M49.6364 149.892C48.3838 149.875 47.1683 150.317 46.2194 151.135C45.2705 151.952 44.6538 153.089 44.4858 154.331C44.3178 155.572 44.6101 156.832 45.3075 157.873C46.005 158.913 47.0593 159.663 48.2713 159.979L92.1417 174.047C92.7684 174.206 93.4125 174.286 94.0591 174.286C95.9423 174.284 97.76 173.595 99.1711 172.348C100.582 171.101 101.49 169.381 101.723 167.513C101.956 165.644 101.5 163.754 100.439 162.198C99.378 160.642 97.7856 159.527 95.9608 159.062L51.0224 150.079C50.5733 149.952 50.1086 149.887 49.6416 149.887L49.6364 149.892Z" fill="#263238"/>
<path d="M94.0534 168.117C93.9788 168.122 93.9039 168.122 93.8293 168.117C93.5625 168.079 93.31 167.973 93.0964 167.809C92.8827 167.644 92.7152 167.428 92.6101 167.179L64.7926 101.265C64.7129 101.075 64.6712 100.872 64.67 100.667C64.6687 100.462 64.7079 100.258 64.7853 100.068C64.8627 99.8779 64.9768 99.7049 65.1211 99.5588C65.2654 99.4128 65.437 99.2966 65.6262 99.2169C65.8154 99.1372 66.0184 99.0955 66.2237 99.0943C66.429 99.093 66.6325 99.1322 66.8227 99.2096C67.0128 99.287 67.1859 99.4011 67.3319 99.5454C67.4779 99.6897 67.5941 99.8613 67.6739 100.051L94.4806 163.553L137.205 111.273C137.471 110.966 137.847 110.775 138.253 110.741C138.658 110.707 139.06 110.832 139.375 111.089C139.69 111.347 139.892 111.717 139.938 112.121C139.984 112.525 139.871 112.931 139.622 113.253L95.2778 167.544C95.1296 167.725 94.9426 167.871 94.7307 167.97C94.5188 168.069 94.2873 168.119 94.0534 168.117Z" fill="#FF6961"/>
<path d="M49.6478 156.077C49.4717 156.077 49.2984 156.033 49.144 155.948C48.9896 155.863 48.8592 155.741 48.765 155.592C48.6709 155.443 48.6159 155.273 48.6054 155.097C48.5948 154.921 48.629 154.745 48.7048 154.586L69.6135 110.445C69.6673 110.314 69.7471 110.196 69.8482 110.097C69.9492 109.998 70.0694 109.921 70.2013 109.87C70.3332 109.818 70.4741 109.795 70.6154 109.8C70.7568 109.805 70.8956 109.839 71.0234 109.9C71.1512 109.96 71.2654 110.046 71.3589 110.152C71.4525 110.258 71.5234 110.382 71.5675 110.517C71.6116 110.651 71.6278 110.793 71.6152 110.934C71.6027 111.075 71.5616 111.212 71.4944 111.336L50.5909 155.477C50.5068 155.656 50.3735 155.808 50.2065 155.914C50.0395 156.02 49.8457 156.077 49.6478 156.077Z" fill="#FF6961"/>
<path d="M149.391 156.598C149.044 156.598 148.706 156.482 148.431 156.269C148.157 156.056 147.961 155.757 147.875 155.42L135.329 106.6L70.6905 112.446C70.276 112.483 69.8636 112.355 69.5441 112.088C69.2246 111.821 69.0241 111.438 68.9868 111.024C68.9495 110.609 69.0784 110.197 69.3451 109.877C69.6119 109.558 69.9946 109.357 70.4092 109.32L136.371 103.354C136.741 103.32 137.111 103.419 137.414 103.633C137.718 103.847 137.935 104.162 138.028 104.521L150.908 154.628C151.01 155.03 150.95 155.456 150.739 155.812C150.528 156.169 150.184 156.427 149.782 156.53C149.656 156.571 149.524 156.593 149.391 156.598Z" fill="#FF6961"/>
<path d="M136.512 106.485C136.133 106.489 135.766 106.356 135.479 106.109C135.191 105.863 135.003 105.521 134.949 105.146L133.089 92.2457C133.029 91.8353 133.134 91.4178 133.382 91.0851C133.629 90.7524 133.999 90.5317 134.41 90.4716C134.82 90.4115 135.237 90.5169 135.57 90.7646C135.903 91.0123 136.124 91.382 136.184 91.7924L138.075 104.698C138.104 104.901 138.094 105.108 138.043 105.307C137.993 105.507 137.903 105.694 137.78 105.858C137.657 106.023 137.503 106.161 137.327 106.266C137.15 106.371 136.955 106.44 136.752 106.47C136.672 106.481 136.592 106.486 136.512 106.485Z" fill="#FF6961"/>
<path d="M129.078 96.306C128.744 96.3043 128.42 96.1933 128.155 95.9898C127.89 95.7863 127.699 95.5017 127.612 95.1795C127.524 94.8573 127.545 94.5153 127.67 94.2059C127.796 93.8965 128.019 93.6367 128.306 93.4664L138.081 87.7351C138.43 87.5279 138.847 87.4677 139.24 87.5678C139.633 87.668 139.971 87.9203 140.178 88.2692C140.385 88.6181 140.445 89.0351 140.345 89.4284C140.245 89.8217 139.993 90.159 139.644 90.3663L129.875 96.0976C129.632 96.2371 129.357 96.3091 129.078 96.306Z" fill="#335076"/>
<path d="M55.4051 100.41C58.13 103.88 69.6603 100.004 73.1564 98.8468C76.6525 97.6902 84.619 100.004 83.4258 97.2838C82.2327 94.564 64.7314 95.6321 62.2982 94.6786C57.1453 92.6518 50.7367 94.4442 55.4051 100.41Z" fill="#335076"/>
<path d="M89.4491 184.207C89.2886 184.207 89.1303 184.17 88.9864 184.099C88.8426 184.028 88.7171 183.924 88.6198 183.797C88.5225 183.669 88.4559 183.521 88.4253 183.363C88.3948 183.206 88.401 183.043 88.4435 182.889L97.6552 149.663C97.7386 149.408 97.9172 149.195 98.1536 149.068C98.39 148.942 98.6662 148.911 98.9246 148.983C99.1831 149.055 99.4039 149.223 99.541 149.454C99.6782 149.684 99.7213 149.959 99.6612 150.22L90.4495 183.425C90.3921 183.648 90.2629 183.845 90.082 183.986C89.9011 184.127 89.6786 184.205 89.4491 184.207Z" fill="#263238"/>
<path d="M101.243 150.986H92.0362C91.7598 150.986 91.4948 150.876 91.2993 150.681C91.1039 150.485 90.9941 150.22 90.9941 149.944C90.9941 149.668 91.1039 149.402 91.2993 149.207C91.4948 149.012 91.7598 148.902 92.0362 148.902H101.243C101.519 148.902 101.784 149.012 101.98 149.207C102.175 149.402 102.285 149.668 102.285 149.944C102.285 150.22 102.175 150.485 101.98 150.681C101.784 150.876 101.519 150.986 101.243 150.986Z" fill="#263238"/>
<path d="M96.0656 184.207H86.8643C86.5879 184.207 86.3229 184.097 86.1275 183.901C85.9321 183.706 85.8223 183.441 85.8223 183.165C85.8223 182.888 85.9321 182.623 86.1275 182.428C86.3229 182.232 86.5879 182.123 86.8643 182.123H96.0656C96.342 182.123 96.607 182.232 96.8025 182.428C96.9979 182.623 97.1077 182.888 97.1077 183.165C97.1077 183.441 96.9979 183.706 96.8025 183.901C96.607 184.097 96.342 184.207 96.0656 184.207Z" fill="#263238"/>
<path fill-rule="evenodd" clip-rule="evenodd" d="M134.932 103.206C134.958 103.477 134.761 103.717 134.491 103.744L74.5047 109.644C74.2344 109.671 73.9938 109.473 73.9672 109.203C73.9407 108.933 74.1382 108.692 74.4084 108.665L134.394 102.765C134.664 102.739 134.905 102.936 134.932 103.206Z" fill="white"/>
<path fill-rule="evenodd" clip-rule="evenodd" d="M136.723 111.727C136.932 111.901 136.96 112.211 136.786 112.419L122.035 130.12C121.862 130.329 121.552 130.357 121.343 130.183C121.134 130.009 121.106 129.699 121.28 129.49L136.031 111.79C136.204 111.581 136.514 111.553 136.723 111.727Z" fill="white"/>
<path fill-rule="evenodd" clip-rule="evenodd" d="M92.6484 148.981C92.6484 148.709 92.8686 148.489 93.1401 148.489L101.499 148.489C101.77 148.489 101.99 148.709 101.99 148.981C101.99 149.253 101.77 149.473 101.499 149.473L93.1401 149.473C92.8686 149.473 92.6484 149.252 92.6484 148.981Z" fill="white"/>
<path fill-rule="evenodd" clip-rule="evenodd" d="M159.043 123.282C159.116 123.02 159.387 122.867 159.649 122.94C168.654 125.442 181.519 135.515 183.116 151.884C183.142 152.154 182.944 152.395 182.674 152.421C182.404 152.447 182.163 152.25 182.137 151.979C180.587 136.093 168.081 126.303 159.386 123.887C159.124 123.815 158.971 123.544 159.043 123.282Z" fill="white"/>
<path fill-rule="evenodd" clip-rule="evenodd" d="M21.5948 137.112C21.3609 136.974 21.2831 136.673 21.421 136.439C26.1663 128.391 38.641 118.759 54.8681 121.453C55.136 121.498 55.3171 121.751 55.2726 122.019C55.2281 122.287 54.9749 122.468 54.707 122.423C38.964 119.809 26.8533 129.162 22.2681 136.939C22.1302 137.173 21.8287 137.25 21.5948 137.112Z" fill="white"/>
<path fill-rule="evenodd" clip-rule="evenodd" d="M155.049 187.335C166.129 186.372 179.234 175.728 182.143 160.642C182.194 160.376 182.452 160.201 182.719 160.253C182.985 160.304 183.16 160.562 183.108 160.829C180.122 176.321 166.676 187.311 155.134 188.314C154.863 188.338 154.625 188.137 154.601 187.867C154.578 187.596 154.778 187.358 155.049 187.335Z" fill="white"/>
</svg>
