<svg width="26" height="26" viewBox="0 0 26 26" fill="none" xmlns="http://www.w3.org/2000/svg">
<path d="M22.249 3.77634L19.731 0.516752C19.6739 0.44254 19.557 0.453957 19.5142 0.536732C19.3545 0.847848 19.0893 1.54715 19.3944 2.34064L22.249 3.77634Z" fill="#FF6961"/>
<path d="M25.4401 6.93903L24.1368 5.46337C23.6264 4.8868 23.0075 4.41014 22.3117 4.05906L17.3468 1.56157C17.2413 1.50734 17.1158 1.58155 17.113 1.69572C17.1073 2.44069 17.4039 4.63563 21.1083 4.72982C20.7632 4.72126 20.2813 5.22646 20.1016 5.44624C19.6596 5.99141 19.6197 6.685 19.383 7.31009C19.1491 7.9209 18.6586 8.45465 18.1795 8.90848C17.0731 9.956 16.902 10.0559 15.4818 10.6467C15.4818 10.6467 15.3107 10.7267 15.0654 10.8437C15.0569 10.8465 15.0483 10.8494 15.0426 10.8522C14.535 11.0492 14.0445 11.2918 13.5854 11.5801C12.67 12.1538 11.8629 12.9016 11.2783 13.795C9.85246 15.9757 9.49314 19.044 8.87432 21.4102C8.36386 23.3683 6.59292 24.764 0.590013 24.4358C0.47024 24.4301 0.444574 24.5927 0.561496 24.6184C6.09387 25.8572 10.2945 25.9542 11.4608 23.4539C11.515 23.314 11.5692 23.1742 11.6205 23.0315C11.8458 22.4263 12.0283 21.8641 12.1795 21.3389C12.2565 21.376 12.3363 21.4159 12.4247 21.4473C12.4162 21.4759 12.4076 21.5044 12.3991 21.5358C12.2365 22.061 12.0283 22.6347 11.7945 23.2455C11.6234 23.7422 11.7346 23.9791 12.228 24.0105C12.2622 24.0133 12.3021 24.0133 12.342 24.0133L13.44 24.0019C13.3972 24.1189 13.3573 24.236 13.3116 24.3558C13.0977 25.0038 13.2346 25.3149 13.8563 25.3548C13.8991 25.3605 13.9476 25.3605 13.9989 25.3605H22.5684C22.5769 25.3406 22.5769 25.3377 22.5883 25.3177L22.306 25.0523C21.6216 24.4044 20.6862 24.0076 19.6539 24.0076C19.6197 24.0076 19.5855 24.0076 19.5484 24.0076C18.0826 24.0333 14.6976 24.5442 15.2137 24.0076C15.2194 23.9991 15.2251 23.9933 15.2308 23.9848C15.2308 23.9848 18.5588 23.9534 18.5617 23.9505L18.305 23.7193C17.7575 23.2227 17.0731 22.9772 16.2489 22.9772C16.2204 22.9772 16.1947 22.9772 16.1662 22.9772C16.1063 22.9772 16.0436 22.9801 15.978 22.9829C16.1063 22.7888 16.229 22.5976 16.3402 22.4007C16.6225 21.9097 16.8535 21.4131 17.0417 20.905C18.6045 20.5625 19.9163 19.7062 20.7204 18.5645C20.1815 18.9184 18.7157 18.7643 17.1358 18.1364C15.2936 17.4057 13.9989 16.3153 14.2413 15.7017C14.2613 15.6503 14.2898 15.6046 14.3297 15.5647C14.3297 16.0413 15.0369 16.7149 16.112 17.3058C16.1947 17.2373 16.3031 17.1459 16.4457 17.0175C16.8221 16.675 17.2527 16.2383 17.4409 15.8986C17.4837 15.8215 17.5236 15.7416 17.5607 15.6617C17.6178 15.5361 17.6662 15.4048 17.709 15.2707C17.7233 15.2364 17.7375 15.2079 17.7518 15.1765C17.7575 15.1622 17.766 15.1479 17.7746 15.1337C17.8202 15.0423 17.8744 14.9596 17.9286 14.8882C18.0113 14.7797 18.1054 14.6913 18.2052 14.6228C18.191 14.6313 18.1738 14.6399 18.1596 14.6484C16.6596 14.5856 16.5341 13.6494 16.5369 13.3298C16.5369 13.2784 16.5911 13.247 16.6339 13.2698L18.7356 14.3573C18.7841 14.383 18.8297 14.4087 18.8754 14.4372C19.0322 14.4344 19.209 14.4515 19.4058 14.5171C19.7765 14.6656 20.0645 14.9653 20.2271 15.3278C20.2613 15.4048 20.2984 15.479 20.3383 15.5504C20.4923 15.833 20.6891 16.087 20.9144 16.3182C20.9258 16.3296 20.9343 16.3496 20.9315 16.3667C20.9058 16.695 20.7147 16.8776 20.3212 16.8748C20.0874 16.8719 19.8621 16.8034 19.6567 16.6892C19.6339 16.6778 19.6111 16.6664 19.5912 16.655C19.5683 16.6436 19.5484 16.635 19.5256 16.6265C19.4913 16.6008 19.4343 16.5893 19.3972 16.5779C19.3545 16.5665 19.3117 16.5551 19.2689 16.5494C19.1891 16.538 19.1064 16.538 19.0265 16.558C18.613 16.6636 18.2651 17.2458 18.248 17.6511C18.2423 17.791 18.2794 18.0336 18.3763 18.2049C19.6083 18.5217 20.6434 18.4989 20.9857 18.1506C21.2879 17.8424 21.3992 17.3001 21.4876 16.8862C21.6701 16.0356 21.6701 15.1023 21.4134 14.266C21.3564 14.0833 21.2081 13.6066 21.0256 13.5153C21.2623 13.6352 21.1397 13.5524 21.3564 13.6694C21.402 13.6951 21.4505 13.7208 21.4961 13.7493C22.4429 14.3231 23.1786 15.3021 23.9401 16.0927C23.9885 16.1412 24.0313 16.1926 24.0712 16.2411C24.0826 16.2554 24.0941 16.2697 24.1055 16.2839C24.1283 16.3125 24.1739 16.2954 24.171 16.2583C24.1682 16.244 24.1682 16.2297 24.1653 16.2154C24.1083 15.6446 23.6463 15.0766 23.3326 14.6256C22.8079 13.8692 22.1777 13.2556 21.5189 12.6219C21.2708 12.3821 20.9628 12.1738 20.826 11.8484C20.4353 10.9208 20.8545 10.0131 21.3507 9.21675C21.3706 9.18535 21.382 9.16537 21.382 9.16537L21.4134 9.11399C21.4134 9.11399 21.4077 9.1197 21.402 9.12541C21.4733 8.99982 21.5446 8.87423 21.6216 8.7515C21.7157 8.60308 21.8241 8.45751 21.9125 8.30623C21.9952 8.16352 22.1206 8.02366 22.2547 7.92376C22.3117 7.88094 22.3745 7.84098 22.4372 7.80673C22.9676 7.55556 24.0969 7.60122 24.5931 7.76106C24.8412 7.84098 25.1121 7.73823 25.2376 7.51845L25.4771 7.09887C25.4857 7.05035 25.48 6.9847 25.4401 6.93903ZM14.0616 22.1266C13.9618 22.4577 13.8506 22.8031 13.728 23.1628C13.3516 23.1742 13.1491 23.1342 13.3031 22.9772C13.6282 22.6033 13.9048 22.2237 14.1443 21.8355C14.1187 21.9297 14.093 22.0268 14.0616 22.1266ZM18.8896 14.3116L17.612 13.5981C17.6063 13.5952 17.6035 13.5924 17.6035 13.5866C17.4809 13.2127 17.5949 12.8873 17.6748 12.7218C17.7033 12.6676 17.7775 12.6619 17.8145 12.7104L18.9153 14.2831C18.9267 14.3002 18.9067 14.3231 18.8896 14.3116Z" fill="#FF6961"/>
</svg>
