<svg width="24" height="24" viewBox="0 0 24 24" fill="none" xmlns="http://www.w3.org/2000/svg">
<path fill-rule="evenodd" clip-rule="evenodd" d="M15.9777 11.0213C17.2509 10.8885 18.5497 11.39 19.5189 12.1757C20.4444 12.9259 20.7094 14.0993 21.1116 15.1828C21.524 16.2935 22.2917 17.4353 21.8843 18.5476C21.4782 19.6566 20.1355 20.1253 19.0744 20.7454C18.0962 21.3171 17.1302 22.0159 15.9777 21.9997C14.8331 21.9837 13.8867 21.2734 12.9476 20.6595C11.9881 20.0323 10.9724 19.4202 10.4978 18.4176C9.99296 17.351 9.79454 16.0861 10.2729 15.0088C10.7375 13.9626 11.9971 13.5365 12.966 12.8592C13.9505 12.1711 14.7575 11.1486 15.9777 11.0213Z" fill="#FFC3C0"/>
<path d="M16 12.75H8C7.59 12.75 7.25 12.41 7.25 12C7.25 11.59 7.59 11.25 8 11.25H16C16.41 11.25 16.75 11.59 16.75 12C16.75 12.41 16.41 12.75 16 12.75Z" fill="#002454"/>
<path d="M12 16.75C11.59 16.75 11.25 16.41 11.25 16V8C11.25 7.59 11.59 7.25 12 7.25C12.41 7.25 12.75 7.59 12.75 8V16C12.75 16.41 12.41 16.75 12 16.75Z" fill="#002454"/>
<path d="M15 22.75H9C3.57 22.75 1.25 20.43 1.25 15V9C1.25 3.57 3.57 1.25 9 1.25H15C20.43 1.25 22.75 3.57 22.75 9V15C22.75 20.43 20.43 22.75 15 22.75ZM9 2.75C4.39 2.75 2.75 4.39 2.75 9V15C2.75 19.61 4.39 21.25 9 21.25H15C19.61 21.25 21.25 19.61 21.25 15V9C21.25 4.39 19.61 2.75 15 2.75H9Z" fill="#002454"/>
</svg>
