<svg width="24" height="24" viewBox="0 0 24 24" fill="none" xmlns="http://www.w3.org/2000/svg">
<path fill-rule="evenodd" clip-rule="evenodd" d="M7.9703 0.0290073C9.66784 -0.152091 11.3996 0.531879 12.6919 1.60323C13.9259 2.62622 14.2792 4.2263 14.8155 5.70383C15.3653 7.21843 16.389 8.77544 15.8458 10.2922C15.3043 11.8045 13.514 12.4436 12.0993 13.2892C10.795 14.0688 9.5069 15.0217 7.9703 14.9996C6.44418 14.9777 5.18233 14.0092 3.93012 13.172C2.65083 12.3168 1.29651 11.482 0.66376 10.1149C-0.00938688 8.66045 -0.27395 6.93558 0.363873 5.46656C0.983317 4.03987 2.66284 3.45882 3.95467 2.53534C5.26728 1.59701 6.34336 0.202575 7.9703 0.0290073Z" fill="#FFC3C0"/>
<path d="M4.25977 11.0204V15.9904C4.25977 17.8104 4.25977 17.8104 5.97977 18.9704L10.7098 21.7004C11.4198 22.1104 12.5798 22.1104 13.2898 21.7004L18.0198 18.9704C19.7398 17.8104 19.7398 17.8104 19.7398 15.9904V11.0204C19.7398 9.20043 19.7398 9.20043 18.0198 8.04043L13.2898 5.31043C12.5798 4.90043 11.4198 4.90043 10.7098 5.31043L5.97977 8.04043C4.25977 9.20043 4.25977 9.20043 4.25977 11.0204Z" stroke="#002454" stroke-width="1.5" stroke-linecap="round" stroke-linejoin="round"/>
<path d="M17.5 7.63V5C17.5 3 16.5 2 14.5 2H9.5C7.5 2 6.5 3 6.5 5V7.56" stroke="#002454" stroke-width="1.5" stroke-linecap="round" stroke-linejoin="round"/>
<path d="M12.6298 10.99L13.1998 11.88C13.2898 12.02 13.4898 12.16 13.6398 12.2L14.6598 12.46C15.2898 12.62 15.4598 13.16 15.0498 13.66L14.3798 14.47C14.2798 14.6 14.1998 14.83 14.2098 14.99L14.2698 16.04C14.3098 16.69 13.8498 17.02 13.2498 16.78L12.2698 16.39C12.1198 16.33 11.8698 16.33 11.7198 16.39L10.7398 16.78C10.1398 17.02 9.67978 16.68 9.71978 16.04L9.77978 14.99C9.78978 14.83 9.70978 14.59 9.60978 14.47L8.93978 13.66C8.52978 13.16 8.69978 12.62 9.32978 12.46L10.3498 12.2C10.5098 12.16 10.7098 12.01 10.7898 11.88L11.3598 10.99C11.7198 10.45 12.2798 10.45 12.6298 10.99Z" stroke="#002454" stroke-width="1.5" stroke-linecap="round" stroke-linejoin="round"/>
</svg>
