<svg width="17" height="17" viewBox="0 0 17 17" fill="none" xmlns="http://www.w3.org/2000/svg">
<path d="M8.65922 2.7616C7.15596 2.89739 5.7739 3.61845 4.80554 4.75861C5.77019 3.61853 7.15026 2.89995 8.65782 2.75733L8.66064 2.76009L8.66064 2.76009C8.66064 2.7601 8.66064 2.7601 8.66064 2.7601C8.66061 2.76019 8.66043 2.76061 8.65998 2.76115C8.65983 2.76134 8.6597 2.76147 8.65959 2.76157C8.65947 2.76158 8.65935 2.76159 8.65922 2.7616ZM8.65922 2.7616C8.65974 2.76155 8.65994 2.7615 8.65994 2.7615C8.65994 2.7615 8.65984 2.76153 8.65967 2.7616L8.70461 3.25954L8.65914 2.76161C8.65917 2.76161 8.6592 2.76161 8.65922 2.7616ZM4.52997 5.10997C4.52928 5.11092 4.5286 5.11187 4.52791 5.11282L4.52997 5.10997Z" fill="white" stroke="white"/>
<path d="M4.38821 11.6278C4.38803 11.6278 4.38761 11.6279 4.38687 11.6282L4.38821 11.6278ZM4.38821 11.6278L4.38908 11.6291C5.30266 13.0239 6.80817 13.9576 8.45442 14.1708C7.69689 14.0763 6.98245 13.8349 6.3154 13.4498C5.53075 12.9968 4.88764 12.3862 4.3878 11.6303L4.38821 11.6278Z" fill="white" stroke="white"/>
<path d="M10.7892 5.70198C9.66337 5.05198 9.27783 3.6131 9.92783 2.48727C10.5778 1.36143 12.0167 0.975886 13.1425 1.62589C14.2684 2.27589 14.6539 3.71477 14.0039 4.8406C13.3539 5.96643 11.9093 6.34865 10.7892 5.70198ZM12.6392 2.49768C11.9926 2.12435 11.1639 2.34641 10.7905 2.99304C10.4172 3.63967 10.6392 4.46839 11.2859 4.84173C11.9325 5.21506 12.7612 4.99301 13.1346 4.34637C13.5079 3.69974 13.2801 2.86769 12.6392 2.49768Z" fill="white"/>
<path d="M2.53823 10.3524C1.4124 9.70237 1.02685 8.26349 1.67685 7.13765C2.32352 6.0176 3.76573 5.62628 4.89156 6.27628C6.0174 6.92628 6.40294 8.36515 5.75294 9.49099C5.10628 10.611 3.66406 11.0024 2.53823 10.3524ZM4.39156 7.1423C3.74493 6.76897 2.91621 6.99102 2.54287 7.63765C2.16954 8.28429 2.3916 9.11301 3.03823 9.48634C3.68486 9.85968 4.51358 9.63762 4.88692 8.99099C5.26025 8.34436 5.03819 7.51563 4.39156 7.1423Z" fill="white"/>
<path d="M10.817 15.1336C9.6912 14.4836 9.30566 13.0447 9.95566 11.9189C10.6023 10.7988 12.0445 10.4075 13.1704 11.0575C14.2962 11.7075 14.6817 13.1464 14.0317 14.2722C13.3793 15.389 11.9371 15.7803 10.817 15.1336ZM12.6704 11.9236C12.0237 11.5502 11.195 11.7723 10.8217 12.4189C10.4483 13.0655 10.6704 13.8943 11.317 14.2676C11.9637 14.6409 12.7924 14.4189 13.1657 13.7722C13.5333 13.1223 13.317 12.2969 12.6704 11.9236Z" fill="white"/>
</svg>
