<svg width="32" height="32" viewBox="0 0 32 32" fill="none" xmlns="http://www.w3.org/2000/svg">
<path d="M16 30.333C15.0667 30.333 14.12 29.973 13.4133 29.2664L11.1333 27.013C10.5733 26.453 9.80001 26.1463 9.01335 26.1463H8C5.24 26.1463 3 23.9197 3 21.1864V6.63965C3 3.90632 5.24 1.67969 8 1.67969H24C26.76 1.67969 29 3.90632 29 6.63965V21.1864C29 23.9197 26.76 26.1463 24 26.1463H22.9867C22.2 26.1463 21.4267 26.4664 20.8667 27.013L18.5867 29.2664C17.88 29.973 16.9333 30.333 16 30.333ZM8 3.66634C6.34667 3.66634 5 4.99964 5 6.6263V21.173C5 22.813 6.34667 24.133 8 24.133H9.01335C10.3333 24.133 11.6133 24.6663 12.5467 25.5863L14.8267 27.8397C15.48 28.4797 16.5334 28.4797 17.1867 27.8397L19.4667 25.5863C20.4 24.6663 21.68 24.133 23 24.133H24C25.6533 24.133 27 22.7997 27 21.173V6.6263C27 4.9863 25.6533 3.66634 24 3.66634H8Z" fill="#FF6961"/>
<path d="M15.9984 21.0007C15.7584 21.0007 15.5184 20.9606 15.3051 20.894C13.5451 20.294 9.01172 17.6407 9.01172 12.6807C9.01172 10.2807 10.9584 8.33398 13.3451 8.33398C14.3184 8.33398 15.2517 8.66732 16.0117 9.25399C16.7717 8.66732 17.7051 8.33398 18.6784 8.33398C21.0651 8.33398 23.0117 10.2807 23.0117 12.6807C23.0117 17.6407 18.4651 20.294 16.7184 20.894C16.4784 20.9606 16.2384 21.0007 15.9984 21.0007ZM13.3317 10.334C12.0517 10.334 10.9984 11.3873 10.9984 12.6807C10.9984 16.454 14.665 18.5607 15.945 19.0007C15.9584 19.0007 16.0117 19.0007 16.0517 19.0007C17.3451 18.5473 20.985 16.4407 20.985 12.694C20.985 11.4007 19.945 10.3473 18.6517 10.3473C17.9184 10.3473 17.2384 10.694 16.785 11.2807C16.4117 11.7873 15.5584 11.7873 15.1851 11.2807C14.7584 10.6807 14.0784 10.334 13.3317 10.334Z" fill="#FF6961"/>
</svg>
