<svg width="25" height="24" viewBox="0 0 25 24" fill="none" xmlns="http://www.w3.org/2000/svg">
<path fill-rule="evenodd" clip-rule="evenodd" d="M8.97773 11.0213C10.2509 10.8885 11.5497 11.39 12.5189 12.1757C13.4444 12.9259 13.7094 14.0993 14.1116 15.1828C14.524 16.2935 15.2917 17.4353 14.8843 18.5476C14.4782 19.6566 13.1355 20.1253 12.0744 20.7454C11.0962 21.3171 10.1302 22.0159 8.97773 21.9997C7.83313 21.9837 6.88675 21.2734 5.94759 20.6595C4.98812 20.0323 3.97238 19.4202 3.49782 18.4176C2.99296 17.351 2.79454 16.0861 3.2729 15.0088C3.73749 13.9626 4.99713 13.5365 5.966 12.8592C6.95046 12.1711 7.75752 11.1486 8.97773 11.0213Z" fill="#FFC3C0"/>
<path d="M18.29 22.75H6.71C3.97 22.75 1.75 20.52 1.75 17.78V10.37C1.75 9.00997 2.59 7.29997 3.67 6.45997L9.06 2.25997C10.68 0.999974 13.27 0.939974 14.95 2.11997L21.13 6.44997C22.32 7.27997 23.25 9.05997 23.25 10.51V17.79C23.25 20.52 21.03 22.75 18.29 22.75ZM9.98 3.43997L4.59 7.63997C3.88 8.19997 3.25 9.46997 3.25 10.37V17.78C3.25 19.69 4.8 21.25 6.71 21.25H18.29C20.2 21.25 21.75 19.7 21.75 17.79V10.51C21.75 9.54997 21.06 8.21997 20.27 7.67997L14.09 3.34997C12.95 2.54997 11.07 2.58997 9.98 3.43997Z" fill="#002454"/>
<path d="M12.5 18.75C12.09 18.75 11.75 18.41 11.75 18V15C11.75 14.59 12.09 14.25 12.5 14.25C12.91 14.25 13.25 14.59 13.25 15V18C13.25 18.41 12.91 18.75 12.5 18.75Z" fill="#002454"/>
</svg>
