<svg width="24" height="24" viewBox="0 0 24 24" fill="none" xmlns="http://www.w3.org/2000/svg">
<path fill-rule="evenodd" clip-rule="evenodd" d="M7.9703 0.0290073C9.66784 -0.152091 11.3996 0.531879 12.6919 1.60323C13.9259 2.62622 14.2792 4.2263 14.8155 5.70383C15.3653 7.21843 16.389 8.77544 15.8458 10.2922C15.3043 11.8045 13.514 12.4436 12.0993 13.2892C10.795 14.0688 9.5069 15.0217 7.9703 14.9996C6.44418 14.9777 5.18233 14.0092 3.93012 13.172C2.65083 12.3168 1.29651 11.482 0.66376 10.1149C-0.00938688 8.66045 -0.27395 6.93558 0.363873 5.46656C0.983317 4.03987 2.66284 3.45882 3.95467 2.53534C5.26728 1.59701 6.34336 0.202575 7.9703 0.0290073Z" fill="#FFC3C0"/>
<path d="M16.0841 4.40273V4.40273C17.8558 3.38117 20.1221 4.08487 21.0036 5.93023L22.4195 8.89461C22.5972 9.26667 22.6648 9.68182 22.6141 10.091L22.605 10.1643C22.4141 11.7071 20.679 12.5228 19.3691 11.6856V11.6856" stroke="#002454" stroke-width="1.5" stroke-linecap="round"/>
<path d="M7.91588 4.40273V4.40273C6.14425 3.38117 3.8779 4.08487 2.99645 5.93023L1.58049 8.89461C1.40277 9.26667 1.33525 9.68182 1.38589 10.091L1.39496 10.1643C1.58592 11.7071 3.32098 12.5228 4.63086 11.6856V11.6856" stroke="#002454" stroke-width="1.5" stroke-linecap="round"/>
<path d="M12.1373 20.4831L12.1273 19.7331L12.1373 20.4831ZM15.2622 20.1564L15.1411 19.4163L15.2622 20.1564ZM19.643 11.9035L18.9454 12.1789L19.643 11.9035ZM8.61062 20.1716L8.72461 19.4304L8.61062 20.1716ZM16.7942 6.7294L18.9454 12.1789L20.3406 11.6282L18.1895 6.17865L16.7942 6.7294ZM15.1411 19.4163C14.1149 19.5843 13.0156 19.7213 12.1273 19.7331L12.1473 21.233C13.1478 21.2196 14.3337 21.0684 15.3834 20.8966L15.1411 19.4163ZM12.1273 19.7331C11.1255 19.7465 9.87809 19.6077 8.72461 19.4304L8.49663 20.9129C9.67506 21.0941 11.0199 21.2481 12.1473 21.233L12.1273 19.7331ZM5.21045 12.6184L7.73306 6.62718L6.35061 6.04509L3.828 12.0363L5.21045 12.6184ZM5.10141 16.2994C4.67863 15.1016 4.71751 13.7891 5.21045 12.6184L3.828 12.0363C3.19025 13.5509 3.13995 15.2489 3.68692 16.7986L5.10141 16.2994ZM18.8061 16.5367C18.0913 18.0559 16.7433 19.1539 15.1411 19.4163L15.3834 20.8966C17.5266 20.5457 19.2622 19.0904 20.1634 17.1754L18.8061 16.5367ZM18.9454 12.1789C19.5018 13.5886 19.4514 15.1655 18.8061 16.5367L20.1634 17.1754C20.9848 15.4299 21.0489 13.4226 20.3406 11.6282L18.9454 12.1789ZM12.2428 3.63281C14.2518 3.63281 16.0566 4.86074 16.7942 6.7294L18.1895 6.17865C17.2257 3.73716 14.8676 2.13281 12.2428 2.13281V3.63281ZM8.72461 19.4304C7.05227 19.1732 5.68444 17.9513 5.10141 16.2994L3.68692 16.7986C4.43365 18.9144 6.21994 20.5628 8.49663 20.9129L8.72461 19.4304ZM12.2428 2.13281C9.67055 2.13281 7.34879 3.6744 6.35061 6.04509L7.73306 6.62718C8.49705 4.81271 10.2741 3.63281 12.2428 3.63281V2.13281Z" fill="#002454"/>
<rect x="9.10547" y="7.4375" width="1.82071" height="2.42762" rx="0.910357" fill="#002454"/>
<rect x="13.3516" y="7.4375" width="1.82071" height="2.42762" rx="0.910357" fill="#002454"/>
<path d="M11.2467 14.2939L10.8063 13.5855C10.3714 12.8861 10.8743 11.9811 11.698 11.9811L12.5788 11.9811C13.4024 11.9811 13.9054 12.8861 13.4705 13.5855L13.0301 14.2939C12.6192 14.9547 11.6575 14.9547 11.2467 14.2939Z" stroke="#002454" stroke-width="1.5"/>
<path d="M12.1367 15.3281V16.8454C12.1367 17.6833 12.816 18.3626 13.654 18.3626V18.3626C14.4919 18.3626 15.1712 17.6833 15.1712 16.8454V16.5419" stroke="#002454" stroke-width="1.5" stroke-linecap="round"/>
<path d="M12.1367 15.3281V16.8454C12.1367 17.6833 11.4574 18.3626 10.6195 18.3626V18.3626C9.7815 18.3626 9.10219 17.6833 9.10219 16.8454V16.5419" stroke="#002454" stroke-width="1.5" stroke-linecap="round"/>
</svg>
