<svg width="57" height="55" viewBox="0 0 57 55" fill="none" xmlns="http://www.w3.org/2000/svg">
<path d="M56.3978 51.1733H55.116V0H1.28177V51.1726H0V55H56.3978V51.1733ZM53.8342 1.28177V3.8453H47.0498L45.5027 2.29821L43.9556 3.8453H30.3779L28.5264 1.28177H53.8342ZM37.1713 33.326V16.663H53.8342V33.326H37.1713ZM53.8342 34.6077V51.1726H37.1713V34.6077H53.8342ZM37.1713 15.3812V13.2516L36.8579 12.8177H42.2983V14.0994H48.7072V12.8177H53.8342V15.3812H37.1713ZM42.2983 8.97237V11.5359H35.9324L34.0809 8.97237H42.2983ZM33.1555 7.69061L31.304 5.12707H42.6739L42.2983 5.50263V7.69061H33.1555ZM43.5801 12.8177V6.03328L45.5027 4.11063L47.4254 6.03328V12.8177H43.5801ZM48.7072 11.5359V8.97237H53.8342V11.5359H48.7072ZM48.7072 7.69061V5.50263L48.3316 5.12707H53.8342V7.69061H48.7072ZM35.8895 13.6662V16.6636H20.5083V13.6662L28.1989 3.01792L35.8895 13.6662ZM23.7127 38.453V51.1726H20.5083V35.8895H35.8895V51.1726H32.6851V38.453H23.7127ZM31.4033 39.7348V51.1726H24.9945V39.7348H31.4033ZM13.7239 5.12707H25.0938L23.2423 7.69061H14.0994V5.50263L13.7239 5.12707ZM14.0994 8.97237H22.3169L20.4653 11.5359H14.0994V8.97237ZM20.5083 34.6077V17.9447H35.8895V34.6077H20.5083ZM2.56353 1.28177H27.8714L26.0199 3.8453H12.4421L10.895 2.29821L9.34793 3.8453H2.56353V1.28177ZM12.8177 6.03328V12.8177H8.97237V6.03328L10.895 4.11063L12.8177 6.03328ZM2.56353 5.12707H8.06616L7.6906 5.50263V7.69061H2.56353V5.12707ZM2.56353 8.97237H7.6906V11.5359H2.56353V8.97237ZM2.56353 12.8177H7.6906V14.0994H14.0994V12.8177H19.5399L19.2265 13.2516V15.3812H2.56353V12.8177ZM2.56353 16.663H19.2265V33.326H2.56353V16.663ZM2.56353 34.6077H19.2265V51.1726H2.56353V34.6077ZM55.116 53.7189H1.28177V52.5525H23.7127H32.6851H55.116V53.7189Z" fill="#FF6961"/>
</svg>
