<svg width="109" height="104" viewBox="0 0 109 104" fill="none" xmlns="http://www.w3.org/2000/svg">
<path fill-rule="evenodd" clip-rule="evenodd" d="M76.2494 96.7573C66.2739 102.052 54.8667 104.964 43.7975 102.756C32.7259 100.547 22.7736 93.8463 15.9657 84.7334C9.56088 76.16 9.14528 65.0717 7.69919 54.4353C6.22703 43.6071 2.55156 32.1593 7.49898 22.4582C12.4969 12.6579 23.3116 7.66233 33.5243 3.79585C43.107 0.167901 53.2404 -0.134487 63.3853 1.29994C74.0994 2.81485 85.0664 4.95361 93.1603 12.228C101.731 19.9305 107.901 30.6557 108.89 42.1969C109.861 53.5376 104.251 64.0277 98.4325 73.7544C92.8119 83.1496 85.8638 91.6538 76.2494 96.7573Z" fill="#FFE1DF"/>
<g clip-path="url(#clip0_90_22714)">
<path d="M66.0651 36.6367C66.0651 36.791 66.0381 36.9429 66.0185 37.0948C65.9669 37.5481 65.8982 37.9917 65.8099 38.4209C64.1753 46.6185 56.6529 50.7583 47.0001 56.6244C37.3448 50.7583 29.8199 46.6185 28.1902 38.4209C28.1019 37.9917 28.0332 37.5481 27.9816 37.0948C27.9669 36.9887 27.9546 36.8826 27.9473 36.7742C39.7893 36.6994 54.147 36.6584 66.0651 36.6367Z" fill="#CC8A33"/>
<path d="M91.3003 36.0098H66.1117C66.1117 36.2219 66.0872 36.4293 66.0651 36.6366C66.0651 36.7909 66.0381 36.9428 66.0184 37.0947C65.9669 37.548 65.8982 37.9917 65.8098 38.4208H91.3494L47.0049 64.535L2.45431 38.8524L1.70575 38.4208H28.1975C28.1092 37.9917 28.0405 37.548 27.9889 37.0947C27.9742 36.9887 27.9619 36.8826 27.9546 36.7741C27.9276 36.533 27.9079 36.2677 27.8957 36.0098H2.69974C1.98372 36.0098 1.29704 36.2892 0.790744 36.7866C0.284445 37.2839 0 37.9585 0 38.6619V87.8475C0 88.5509 0.284445 89.2255 0.790744 89.7229C1.29704 90.2202 1.98372 90.4997 2.69974 90.4997H91.3003C92.0163 90.4997 92.703 90.2202 93.2093 89.7229C93.7156 89.2255 94 88.5509 94 87.8475V38.6619C94 38.3136 93.9302 37.9688 93.7945 37.647C93.6588 37.3252 93.46 37.0328 93.2093 36.7866C92.9586 36.5403 92.6609 36.3449 92.3334 36.2116C92.0059 36.0784 91.6548 36.0098 91.3003 36.0098ZM7.73107 76.788C7.73107 76.4682 7.86036 76.1616 8.0905 75.9355C8.32063 75.7095 8.63276 75.5824 8.95822 75.5824H13.376C13.7014 75.5824 14.0136 75.7095 14.2437 75.9355C14.4738 76.1616 14.6031 76.4682 14.6031 76.788V76.8772C14.6031 77.1969 14.4738 77.5035 14.2437 77.7296C14.0136 77.9557 13.7014 78.0827 13.376 78.0827H8.95822C8.63276 78.0827 8.32063 77.9557 8.0905 77.7296C7.86036 77.5035 7.73107 77.1969 7.73107 76.8772V76.788ZM24.305 83.0326C24.0754 83.2589 23.7638 83.3863 23.4386 83.387H8.95822C8.63276 83.387 8.32063 83.26 8.0905 83.0339C7.86036 82.8079 7.73107 82.5012 7.73107 82.1815C7.73107 81.8618 7.86036 81.5552 8.0905 81.3291C8.32063 81.103 8.63276 80.976 8.95822 80.976H23.4386C23.681 80.9765 23.9177 81.0475 24.119 81.18C24.3203 81.3125 24.4772 81.5006 24.5698 81.7205C24.6625 81.9405 24.6868 82.1825 24.6397 82.416C24.5925 82.6495 24.4761 82.864 24.305 83.0326ZM83.6845 81.586C83.1333 82.1281 82.3857 82.4333 81.6057 82.4347H74.7337C73.9526 82.4347 73.2035 82.1298 72.6511 81.5872C72.0988 81.0447 71.7885 80.3087 71.7885 79.5414C71.7885 78.7741 72.0988 78.0381 72.6511 77.4955C73.2035 76.9529 73.9526 76.6481 74.7337 76.6481H81.6057C82.1877 76.6491 82.7562 76.8194 83.2397 77.1376C83.7232 77.4557 84.0999 77.9074 84.3223 78.4356C84.5447 78.9639 84.6028 79.5451 84.4893 80.1057C84.3758 80.6664 84.0958 81.1815 83.6845 81.586Z" fill="#E7B66A"/>
<path d="M91.3418 38.4257L47.0047 64.5351L2.45413 38.8525L1.70557 38.4209H28.1974C29.8319 46.6185 37.3519 50.7583 47.0072 56.6244C56.66 50.7583 64.1874 46.6185 65.817 38.4209H91.3148L91.3418 38.4257Z" fill="#CC8A33"/>
<path d="M84.551 79.53C84.551 80.2973 84.2407 81.0332 83.6884 81.5758C83.136 82.1184 82.3869 82.4233 81.6058 82.4233H74.7337C73.9526 82.4233 73.2035 82.1184 72.6512 81.5758C72.0989 81.0332 71.7886 80.2973 71.7886 79.53C71.7886 78.7626 72.0989 78.0267 72.6512 77.4841C73.2035 76.9415 73.9526 76.6367 74.7337 76.6367H81.6058C82.3869 76.6367 83.136 76.9415 83.6884 77.4841C84.2407 78.0267 84.551 78.7626 84.551 79.53Z" fill="#CC8A33"/>
<path d="M24.6662 82.1821C24.6662 82.5018 24.5369 82.8084 24.3067 83.0345C24.0766 83.2606 23.7645 83.3876 23.439 83.3876H8.9586C8.63314 83.3876 8.32101 83.2606 8.09087 83.0345C7.86074 82.8084 7.73145 82.5018 7.73145 82.1821C7.73145 81.8624 7.86074 81.5557 8.09087 81.3297C8.32101 81.1036 8.63314 80.9766 8.9586 80.9766H23.439C23.7645 80.9766 24.0766 81.1036 24.3067 81.3297C24.5369 81.5557 24.6662 81.8624 24.6662 82.1821Z" fill="#CC8A33"/>
<path d="M13.3764 75.583H8.9586C8.28086 75.583 7.73145 76.1227 7.73145 76.7885V76.8777C7.73145 77.5435 8.28086 78.0833 8.9586 78.0833H13.3764C14.0541 78.0833 14.6035 77.5435 14.6035 76.8777V76.7885C14.6035 76.1227 14.0541 75.583 13.3764 75.583Z" fill="#CC8A33"/>
<path d="M49 13.8936V6.10644C49 5.49537 48.3524 5 47.5535 5H47.4465C46.6476 5 46 5.49537 46 6.10644V13.8936C46 14.5046 46.6476 15 47.4465 15H47.5535C48.3524 15 49 14.5046 49 13.8936Z" fill="#9648FF"/>
<path d="M66.1078 13.1373L63.2048 16.4087C62.7595 16.9105 62.8746 17.7251 63.4619 18.2281L63.5406 18.2955C64.128 18.7985 64.9651 18.7994 65.4105 18.2975L68.3134 15.0261C68.7588 14.5243 68.6437 13.7097 68.0563 13.2067L67.9776 13.1393C67.3903 12.6363 66.5531 12.6354 66.1078 13.1373Z" fill="#9648FF"/>
<path d="M26.3435 15.3424L29.6736 18.1942C30.1845 18.6317 31.0225 18.5086 31.5454 17.9194L31.6155 17.8404C32.1384 17.2511 32.1481 16.4188 31.6373 15.9813L28.3072 13.1295C27.7963 12.692 26.9583 12.815 26.4354 13.4043L26.3653 13.4832C25.8424 14.0725 25.8327 14.9049 26.3435 15.3424Z" fill="#9648FF"/>
<path d="M66.1437 34.9255C66.1437 35.2992 66.1437 35.6657 66.1117 36.0225C66.1117 36.2347 66.0872 36.4421 66.0651 36.6494C66.0651 36.8037 66.0381 36.9556 66.0185 37.1075C65.9669 37.5608 65.8982 38.0044 65.8099 38.4336C64.1753 46.6312 56.6528 50.771 47.0001 56.6371C37.3448 50.771 29.8199 46.6312 28.1902 38.4336C28.1019 38.0044 28.0332 37.5608 27.9816 37.1075C27.9669 37.0014 27.9546 36.8953 27.9473 36.7868C27.9203 36.5457 27.9006 36.2805 27.8884 36.0225C27.8663 35.6657 27.8564 35.2992 27.8564 34.9255C27.8564 28.7219 32.0926 23.8467 38.3388 23.8467C42.359 23.8467 45.6625 26.0625 47.0001 27.391C48.3352 26.0625 51.6387 23.8467 55.6589 23.8467C61.9051 23.8346 66.1437 28.7098 66.1437 34.9255Z" fill="#EC4141"/>
<path d="M62.2145 35.1082C61.9348 35.1079 61.6636 35.0139 61.4458 34.8416C61.228 34.6692 61.0766 34.429 61.0168 34.1606C60.0031 29.6399 54.2821 30.3463 54.0392 30.3777C53.7218 30.4119 53.4034 30.3232 53.1515 30.1306C52.8996 29.9379 52.7341 29.6564 52.69 29.3458C52.6459 29.0352 52.7268 28.7199 52.9154 28.4669C53.1041 28.2139 53.3857 28.0431 53.7005 27.9907C56.5352 27.5977 62.212 28.2776 63.4146 33.6422C63.4543 33.8186 63.4532 34.0014 63.4113 34.1773C63.3694 34.3531 63.2879 34.5174 63.1727 34.6582C63.0575 34.7989 62.9116 34.9124 62.7457 34.9903C62.5799 35.0682 62.3983 35.1085 62.2145 35.1082Z" fill="white"/>
</g>
<defs>
<clipPath id="clip0_90_22714">
<rect width="94" height="86" fill="white" transform="translate(0 4.5)"/>
</clipPath>
</defs>
</svg>
