<svg width="24" height="24" viewBox="0 0 24 24" fill="none" xmlns="http://www.w3.org/2000/svg">
<path fill-rule="evenodd" clip-rule="evenodd" d="M15.9703 4.02901C17.6678 3.84791 19.3996 4.53188 20.6919 5.60323C21.9259 6.62622 22.2792 8.2263 22.8155 9.70383C23.3653 11.2184 24.389 12.7754 23.8458 14.2922C23.3043 15.8045 21.514 16.4436 20.0993 17.2892C18.795 18.0688 17.5069 19.0217 15.9703 18.9996C14.4442 18.9777 13.1823 18.0092 11.9301 17.172C10.6508 16.3168 9.29651 15.482 8.66376 14.1149C7.99061 12.6605 7.72605 10.9356 8.36387 9.46656C8.98332 8.03987 10.6628 7.45882 11.9547 6.53534C13.2673 5.59701 14.3434 4.20257 15.9703 4.02901Z" fill="#FFC3C0"/>
<path d="M8 11.4002C8 12.1702 8.6 12.8002 9.33 12.8002H10.83C11.47 12.8002 11.99 12.2502 11.99 11.5802C11.99 10.8502 11.67 10.5902 11.2 10.4202L8.8 9.5802C8.32 9.4102 8 9.1502 8 8.4202C8 7.7502 8.52 7.2002 9.16 7.2002H10.66C11.4 7.2102 12 7.8302 12 8.6002" stroke="#002454" stroke-width="1.5" stroke-linecap="round" stroke-linejoin="round"/>
<path d="M10 12.8496V13.5896" stroke="#002454" stroke-width="1.5" stroke-linecap="round" stroke-linejoin="round"/>
<path d="M10 6.41016V7.19016" stroke="#002454" stroke-width="1.5" stroke-linecap="round" stroke-linejoin="round"/>
<path d="M9.99 17.98C14.4028 17.98 17.98 14.4028 17.98 9.99C17.98 5.57724 14.4028 2 9.99 2C5.57724 2 2 5.57724 2 9.99C2 14.4028 5.57724 17.98 9.99 17.98Z" stroke="#002454" stroke-width="1.5" stroke-linecap="round" stroke-linejoin="round"/>
<path d="M12.98 19.88C13.88 21.15 15.35 21.98 17.03 21.98C19.76 21.98 21.98 19.76 21.98 17.03C21.98 15.37 21.16 13.9 19.91 13" stroke="#002454" stroke-width="1.5" stroke-linecap="round" stroke-linejoin="round"/>
</svg>
