<svg width="109" height="108" viewBox="0 0 109 108" fill="none" xmlns="http://www.w3.org/2000/svg">
<path fill-rule="evenodd" clip-rule="evenodd" d="M60.2254 21.2607C70.6567 20.758 81.3792 22.5149 89.8538 27.9518C98.3303 33.3899 104.141 41.7758 106.379 50.8708C108.484 59.4273 104.582 67.7931 101.72 76.1775C98.8067 84.7129 97.5113 94.4642 89.6243 99.9604C81.6568 105.513 70.6338 105.505 60.5507 104.867C51.0897 104.268 42.4404 101.014 34.4474 96.4675C26.0061 91.6663 17.591 86.3156 13.565 78.1425C9.30211 69.4885 8.21968 59.4167 11.8133 50.5183C15.3445 41.7745 24.092 35.9208 32.7226 30.7049C41.0591 25.6668 50.1718 21.7451 60.2254 21.2607Z" fill="#F0F0F0"/>
<path d="M54.5 61.875C52.655 61.875 51.125 60.345 51.125 58.5V34.875C51.125 33.03 52.655 31.5 54.5 31.5C56.345 31.5 57.875 33.03 57.875 34.875V58.5C57.875 60.345 56.345 61.875 54.5 61.875Z" fill="#002454"/>
<path d="M54.5 77.6249C53.285 77.6249 52.1599 77.175 51.3049 76.32C50.8999 75.87 50.585 75.3749 50.315 74.8349C50.09 74.2949 50 73.7099 50 73.1249C50 71.9549 50.4949 70.7848 51.3049 69.9298C52.9699 68.2648 56.0301 68.2648 57.6951 69.9298C58.5051 70.7848 59 71.9549 59 73.1249C59 73.7099 58.8649 74.2949 58.6399 74.8349C58.4149 75.3749 58.1001 75.87 57.6951 76.32C56.8401 77.175 55.715 77.6249 54.5 77.6249Z" fill="#002454"/>
<path d="M46.4816 98.7391L46.4759 98.7358L19.7516 83.3042C19.7506 83.3036 19.7497 83.3031 19.7488 83.3025C14.8055 80.4177 11.7207 75.1037 11.7207 69.3898V38.61C11.7207 32.8961 14.8055 27.5822 19.7486 24.6973C19.7496 24.6968 19.7506 24.6962 19.7516 24.6956L46.4759 9.26398L46.4816 9.26065C51.4126 6.38421 57.5425 6.38106 62.5247 9.26336L62.5258 9.26397L89.2501 24.6956C89.251 24.6961 89.2519 24.6967 89.2528 24.6972C94.1961 27.5821 97.2809 32.8961 97.2809 38.61V69.3898C97.2809 75.1038 94.196 80.4179 89.2525 83.3027C89.2517 83.3032 89.2509 83.3037 89.2501 83.3042L62.5258 98.7358L62.5201 98.7391C60.0626 100.173 57.2659 100.875 54.5008 100.875C51.7358 100.875 48.939 100.173 46.4816 98.7391ZM48.3604 12.5104L48.3603 12.5104L48.3507 12.5159L21.6207 27.9509L21.6171 27.953C17.8294 30.1539 15.4707 34.2005 15.4707 38.61V69.3898C15.4707 73.7508 17.8264 77.8441 21.6171 80.0468L21.6207 80.0489L48.3471 95.4818C48.3479 95.4822 48.3487 95.4827 48.3495 95.4831C52.1398 97.6845 56.8549 97.6904 60.6111 95.4809C60.6131 95.4797 60.6151 95.4785 60.6171 95.4773L87.3359 80.0489L87.3395 80.0468C91.1272 77.8459 93.4859 73.7992 93.4859 69.3898V38.61C93.4859 34.249 91.1302 30.1557 87.3395 27.9529L87.3359 27.9509L60.6116 12.5193C60.6106 12.5186 60.6096 12.518 60.6085 12.5174C58.7544 11.4366 56.6039 10.8749 54.5008 10.8749C52.3935 10.8749 50.2487 11.4386 48.3604 12.5104Z" fill="#002454" stroke="#002454" stroke-width="3"/>
</svg>
