<svg width="24" height="25" viewBox="0 0 24 25" fill="none" xmlns="http://www.w3.org/2000/svg">
<path d="M12.9596 16.1351C12.4963 16.7968 11.5163 16.7968 11.0531 16.1351C10.5132 15.3639 11.0649 14.3042 12.0063 14.3042C12.9477 14.3042 13.4994 15.3639 12.9596 16.1351Z" stroke="#002454" stroke-width="1.5"/>
<rect x="8.12695" y="9.44922" width="2.03244" height="2.70992" rx="1.01622" fill="#002454"/>
<rect x="13.5488" y="9.44922" width="2.03244" height="2.70992" rx="1.01622" fill="#002454"/>
<path d="M21.6047 15.353C21.6047 17.5035 20.6209 19.0149 18.9843 20.0251C17.3077 21.0599 14.9224 21.5754 12.1925 21.5754C9.46259 21.5754 7.07726 21.0599 5.40064 20.0251C3.76403 19.0149 2.78027 17.5035 2.78027 15.353C2.78027 13.1384 3.82579 10.6499 5.5653 8.70842C7.30058 6.77168 9.6511 5.46094 12.1925 5.46094C14.7339 5.46094 17.0844 6.77168 18.8197 8.70842C20.5592 10.6499 21.6047 13.1384 21.6047 15.353Z" stroke="#002454" stroke-width="1.5"/>
<path d="M11.8535 16.5625V16.5625C12.1622 18.5175 14.8118 18.8987 15.6591 17.11L15.9184 16.5625" stroke="#002454" stroke-width="1.5" stroke-linecap="round"/>
<path d="M12.1934 16.5625V16.5625C11.8847 18.5175 9.23509 18.8987 8.38782 17.11L8.12848 16.5625" stroke="#002454" stroke-width="1.5" stroke-linecap="round"/>
<path d="M14.9023 5.43932C15.5363 4.72978 17.4129 3.71833 18.9181 2.97591C19.8893 2.49688 21.0344 3.21488 21.0282 4.29776C21.0195 5.81835 20.8589 7.38621 19.9834 9.11355" stroke="#002454" stroke-width="1.5" stroke-linecap="round"/>
<path d="M9.51172 5.43932C8.87772 4.72978 7.00115 3.71833 5.49598 2.97591C4.5248 2.49688 3.37962 3.21488 3.38584 4.29776C3.39458 5.81835 3.55512 7.38621 4.43061 9.11355" stroke="#002454" stroke-width="1.5" stroke-linecap="round"/>
<path d="M18.29 13.5156H21.3387" stroke="#002454" stroke-width="1.5" stroke-linecap="round"/>
<path d="M3.38477 13.5156H6.43343" stroke="#002454" stroke-width="1.5" stroke-linecap="round"/>
<path d="M18.29 15.8867H21.3387" stroke="#002454" stroke-width="1.5" stroke-linecap="round"/>
<path d="M3.38477 15.8867H6.43343" stroke="#002454" stroke-width="1.5" stroke-linecap="round"/>
</svg>
