<svg width="24" height="24" viewBox="0 0 24 24" fill="none" xmlns="http://www.w3.org/2000/svg">
<path d="M19.86 8.09155C19.86 8.51155 19.83 8.92155 19.78 9.31155C19.32 9.11155 18.82 9.00156 18.29 9.00156C17.07 9.00156 15.99 9.59155 15.32 10.4915C14.64 9.59155 13.56 9.00156 12.34 9.00156C10.29 9.00156 8.63 10.6715 8.63 12.7415C8.63 15.4215 10.05 17.4715 11.63 18.8615C11.58 18.8915 11.53 18.9016 11.48 18.9216C11.18 19.0316 10.68 19.0316 10.38 18.9216C7.79 18.0316 2 14.3516 2 8.09155C2 5.33155 4.21999 3.10156 6.95999 3.10156C8.58999 3.10156 10.03 3.88155 10.93 5.09155C11.84 3.88155 13.28 3.10156 14.9 3.10156C17.64 3.10156 19.86 5.33155 19.86 8.09155Z" stroke="#667C98" stroke-width="1.5" stroke-linecap="round" stroke-linejoin="round"/>
<path d="M22.0028 12.74C22.0028 17.42 17.6728 20.18 15.7328 20.84C15.5028 20.92 15.1328 20.92 14.9028 20.84C14.0728 20.56 12.8028 19.89 11.6328 18.86C10.0528 17.47 8.63281 15.42 8.63281 12.74C8.63281 10.67 10.2928 9 12.3428 9C13.5628 9 14.6428 9.58999 15.3228 10.49C15.9928 9.58999 17.0728 9 18.2928 9C18.8228 9 19.3228 9.11 19.7828 9.31C21.0928 9.89 22.0028 11.2 22.0028 12.74Z" stroke="#667C98" stroke-width="1.5" stroke-linecap="round" stroke-linejoin="round"/>
</svg>
