<svg width="32" height="32" viewBox="0 0 32 32" fill="none" xmlns="http://www.w3.org/2000/svg">
<path d="M16.0291 27.3745C12.9224 27.3745 9.81576 26.8812 6.8691 25.8945C5.7491 25.5079 4.89576 24.7212 4.52243 23.6945C4.13576 22.6679 4.2691 21.5345 4.88243 20.5212L6.41576 17.9745C6.73576 17.4412 7.0291 16.3745 7.0291 15.7479V11.8945C7.0291 6.93453 11.0691 2.89453 16.0291 2.89453C20.9891 2.89453 25.0291 6.93453 25.0291 11.8945V15.7479C25.0291 16.3612 25.3224 17.4412 25.6424 17.9879L27.1624 20.5212C27.7358 21.4812 27.8424 22.6412 27.4558 23.6945C27.0691 24.7479 26.2291 25.5479 25.1758 25.8945C22.2424 26.8812 19.1358 27.3745 16.0291 27.3745ZM16.0291 4.89453C12.1758 4.89453 9.0291 8.02786 9.0291 11.8945V15.7479C9.0291 16.7212 8.6291 18.1612 8.13576 19.0012L6.60243 21.5479C6.3091 22.0412 6.2291 22.5612 6.40243 23.0012C6.56243 23.4545 6.96243 23.8012 7.5091 23.9879C13.0824 25.8545 18.9891 25.8545 24.5624 23.9879C25.0424 23.8279 25.4158 23.4679 25.5891 22.9879C25.7624 22.5079 25.7224 21.9879 25.4558 21.5479L23.9224 19.0012C23.4158 18.1345 23.0291 16.7079 23.0291 15.7345V11.8945C23.0291 8.02786 19.8958 4.89453 16.0291 4.89453Z" fill="#FF6961"/>
<path d="M18.5101 5.25422C18.4167 5.25422 18.3234 5.24089 18.2301 5.21422C17.8434 5.10755 17.4701 5.02755 17.1101 4.97422C15.9767 4.82755 14.8834 4.90755 13.8567 5.21422C13.4834 5.33422 13.0834 5.21422 12.8301 4.93422C12.5767 4.65422 12.4967 4.25422 12.6434 3.89422C13.1901 2.49422 14.5234 1.57422 16.0434 1.57422C17.5634 1.57422 18.8967 2.48089 19.4434 3.89422C19.5767 4.25422 19.5101 4.65422 19.2567 4.93422C19.0567 5.14755 18.7767 5.25422 18.5101 5.25422Z" fill="#FF6961"/>
<path d="M16.0234 30.4141C14.7034 30.4141 13.4234 29.8807 12.4901 28.9474C11.5568 28.0141 11.0234 26.7341 11.0234 25.4141H13.0234C13.0234 26.2007 13.3434 26.9741 13.9034 27.5341C14.4634 28.0941 15.2368 28.4141 16.0234 28.4141C17.6768 28.4141 19.0234 27.0674 19.0234 25.4141H21.0234C21.0234 28.1741 18.7834 30.4141 16.0234 30.4141Z" fill="#FF6961"/>
</svg>
