<svg width="58" height="55" viewBox="0 0 58 55" fill="none" xmlns="http://www.w3.org/2000/svg">
<g id="Group 37950">
<path id="Vector" d="M57.0852 4.17722V0H27.8447V4.17722V8.35443V55H57.0852V8.35443V4.17722ZM29.2371 1.39241H55.6928V4.17722H29.2371V1.39241ZM29.2371 16.7089H32.0219V18.1013H29.2371V16.7089ZM29.2371 22.2785H32.0219V23.6709H29.2371V22.2785ZM29.2371 27.8481H32.0219V29.2405H29.2371V27.8481ZM33.4143 30.6329H36.8954V32.0253H29.2371V30.6329H33.4143ZM38.2878 33.4177H46.6422V34.1139H38.2878V33.4177ZM43.1612 32.0253V28.5443H44.5536V32.0253H43.1612ZM41.7688 32.0253H40.3764V28.5443H41.7688V32.0253ZM46.6422 29.2405V32.0253H45.946V28.5443H46.6422V29.2405ZM44.5536 27.1519H43.1612V22.4038C43.5675 22.5474 43.9193 22.8132 44.1686 23.1647C44.4179 23.5162 44.5524 23.9362 44.5536 24.3671V27.1519ZM44.5536 21.5823C43.9568 21.1171 43.2217 20.8645 42.465 20.8645C41.7083 20.8645 40.9732 21.1171 40.3764 21.5823V20.1899H44.5536V21.5823ZM40.3764 24.3671C40.3776 23.9362 40.512 23.5162 40.7613 23.1647C41.0106 22.8132 41.3625 22.5474 41.7688 22.4038V27.1519H40.3764V24.3671ZM38.984 32.0253H38.2878V28.5443H38.984V32.0253ZM36.8954 33.4177V34.1139H29.2371V33.4177H36.8954ZM29.2371 35.5063H32.0219V36.8987H29.2371V35.5063ZM29.2371 41.0759H32.0219V42.4684H29.2371V41.0759ZM29.2371 46.6456H32.0219V48.038H29.2371V46.6456ZM45.946 43.4987C45.1979 42.8339 44.2316 42.4672 43.2308 42.4684H41.6992C40.6983 42.4672 39.732 42.8339 38.984 43.4987V41.7722H45.946V43.4987ZM38.984 46.576C38.9858 45.8564 39.2725 45.1669 39.7813 44.6581C40.2901 44.1493 40.9796 43.8626 41.6992 43.8608H41.7688V53.6076H38.984V46.576ZM43.1612 53.6076V43.8608H43.2308C43.9503 43.8626 44.6399 44.1493 45.1487 44.6581C45.6575 45.1669 45.9442 45.8564 45.946 46.576V53.6076H43.1612ZM55.6928 48.038H52.908V46.6456H55.6928V48.038ZM55.6928 42.4684H52.908V41.0759H55.6928V42.4684ZM55.6928 39.6835H51.5156V43.8608H55.6928V45.2532H51.5156V49.4304H55.6928V53.6076H47.3384V46.576C47.3377 46.3659 47.3191 46.1563 47.2827 45.9494H47.3384V40.3797H37.5916V45.9494H37.6473C37.6109 46.1563 37.5922 46.3659 37.5916 46.576V53.6076H29.2371V49.4304H33.4143V45.2532H29.2371V43.8608H33.4143V39.6835H29.2371V38.2911H33.4143V35.5063H51.5156V38.2911H55.6928V39.6835ZM52.908 35.5063H55.6928V36.8987H52.908V35.5063ZM55.6928 34.1139H48.0346V33.4177H55.6928V34.1139ZM55.6928 32.0253H48.0346V30.6329H55.6928V32.0253ZM52.908 29.2405V27.8481H55.6928V29.2405H52.908ZM55.6928 23.6709H52.908V22.2785H55.6928V23.6709ZM55.6928 20.8861H51.5156V25.0633H55.6928V26.4557H51.5156V29.2405H48.0346V27.1519H45.946V18.7975H38.984V27.1519H36.8954V29.2405H33.4143V26.4557H29.2371V25.0633H33.4143V20.8861H29.2371V19.4937H33.4143V16.7089H51.5156V19.4937H55.6928V20.8861ZM52.908 16.7089H55.6928V18.1013H52.908V16.7089ZM55.6928 15.3165H29.2371V8.35443H55.6928V15.3165ZM55.6928 6.96203H29.2371V5.56962H55.6928V6.96203Z" fill="#FF6961"/>
<path id="Vector_2" d="M29.2405 4.17722V0H0V4.17722V8.35443V55H29.2405V8.35443V4.17722ZM1.39241 1.39241H27.8481V4.17722H1.39241V1.39241ZM1.39241 16.7089H4.17722V18.1013H1.39241V16.7089ZM1.39241 22.2785H4.17722V23.6709H1.39241V22.2785ZM1.39241 27.8481H4.17722V29.2405H1.39241V27.8481ZM5.56962 30.6329H9.05063V32.0253H1.39241V30.6329H5.56962ZM10.443 33.4177H18.7975V34.1139H10.443V33.4177ZM15.3165 32.0253V28.5443H16.7089V32.0253H15.3165ZM13.9241 32.0253H12.5316V28.5443H13.9241V32.0253ZM18.7975 29.2405V32.0253H18.1013V28.5443H18.7975V29.2405ZM16.7089 27.1519H15.3165V22.4038C15.7227 22.5474 16.0746 22.8132 16.3239 23.1647C16.5732 23.5162 16.7077 23.9362 16.7089 24.3671V27.1519ZM16.7089 21.5823C16.112 21.1171 15.377 20.8645 14.6203 20.8645C13.8635 20.8645 13.1285 21.1171 12.5316 21.5823V20.1899H16.7089V21.5823ZM12.5316 24.3671C12.5329 23.9362 12.6673 23.5162 12.9166 23.1647C13.1659 22.8132 13.5178 22.5474 13.9241 22.4038V27.1519H12.5316V24.3671ZM11.1392 32.0253H10.443V28.5443H11.1392V32.0253ZM9.05063 33.4177V34.1139H1.39241V33.4177H9.05063ZM1.39241 35.5063H4.17722V36.8987H1.39241V35.5063ZM1.39241 41.0759H4.17722V42.4684H1.39241V41.0759ZM1.39241 46.6456H4.17722V48.038H1.39241V46.6456ZM18.1013 43.4987C17.3532 42.8339 16.3869 42.4672 15.3861 42.4684H13.8544C12.8536 42.4672 11.8873 42.8339 11.1392 43.4987V41.7722H18.1013V43.4987ZM11.1392 46.576C11.1411 45.8564 11.4277 45.1669 11.9365 44.6581C12.4453 44.1493 13.1349 43.8626 13.8544 43.8608H13.9241V53.6076H11.1392V46.576ZM15.3165 53.6076V43.8608H15.3861C16.1056 43.8626 16.7952 44.1493 17.304 44.6581C17.8128 45.1669 18.0994 45.8564 18.1013 46.576V53.6076H15.3165ZM27.8481 48.038H25.0633V46.6456H27.8481V48.038ZM27.8481 42.4684H25.0633V41.0759H27.8481V42.4684ZM27.8481 39.6835H23.6709V43.8608H27.8481V45.2532H23.6709V49.4304H27.8481V53.6076H19.4937V46.576C19.493 46.3659 19.4744 46.1563 19.438 45.9494H19.4937V40.3797H9.74684V45.9494H9.80253C9.76613 46.1563 9.7475 46.3659 9.74684 46.576V53.6076H1.39241V49.4304H5.56962V45.2532H1.39241V43.8608H5.56962V39.6835H1.39241V38.2911H5.56962V35.5063H23.6709V38.2911H27.8481V39.6835ZM25.0633 35.5063H27.8481V36.8987H25.0633V35.5063ZM27.8481 34.1139H20.1899V33.4177H27.8481V34.1139ZM27.8481 32.0253H20.1899V30.6329H27.8481V32.0253ZM25.0633 29.2405V27.8481H27.8481V29.2405H25.0633ZM27.8481 23.6709H25.0633V22.2785H27.8481V23.6709ZM27.8481 20.8861H23.6709V25.0633H27.8481V26.4557H23.6709V29.2405H20.1899V27.1519H18.1013V18.7975H11.1392V27.1519H9.05063V29.2405H5.56962V26.4557H1.39241V25.0633H5.56962V20.8861H1.39241V19.4937H5.56962V16.7089H23.6709V19.4937H27.8481V20.8861ZM25.0633 16.7089H27.8481V18.1013H25.0633V16.7089ZM27.8481 15.3165H1.39241V8.35443H27.8481V15.3165ZM27.8481 6.96203H1.39241V5.56962H27.8481V6.96203Z" fill="#FF6961"/>
<path id="Vector_3" d="M42.4699 14.6204C43.0207 14.6204 43.5591 14.4571 44.017 14.1511C44.475 13.8451 44.8319 13.4102 45.0427 12.9013C45.2535 12.3924 45.3086 11.8325 45.2012 11.2923C45.0937 10.7521 44.8285 10.2559 44.439 9.86644C44.0496 9.47697 43.5534 9.21174 43.0132 9.10429C42.473 8.99684 41.913 9.05199 41.4042 9.26276C40.8953 9.47354 40.4604 9.83048 40.1544 10.2884C39.8484 10.7464 39.6851 11.2848 39.6851 11.8356C39.6851 12.5742 39.9785 13.2825 40.5007 13.8048C41.023 14.327 41.7313 14.6204 42.4699 14.6204ZM42.4699 10.4432C42.7453 10.4432 43.0145 10.5249 43.2434 10.6779C43.4724 10.8308 43.6509 11.0483 43.7563 11.3027C43.8617 11.5572 43.8892 11.8371 43.8355 12.1072C43.7818 12.3773 43.6492 12.6254 43.4544 12.8202C43.2597 13.0149 43.0116 13.1475 42.7415 13.2012C42.4714 13.255 42.1914 13.2274 41.937 13.122C41.6826 13.0166 41.4651 12.8382 41.3121 12.6092C41.1591 12.3802 41.0775 12.111 41.0775 11.8356C41.0775 11.4663 41.2242 11.1121 41.4853 10.851C41.7464 10.5899 42.1006 10.4432 42.4699 10.4432Z" fill="#FF6961"/>
<path id="Vector_4" d="M14.6212 14.6204C15.172 14.6204 15.7104 14.4571 16.1684 14.1511C16.6264 13.8451 16.9833 13.4102 17.1941 12.9013C17.4048 12.3924 17.46 11.8325 17.3525 11.2923C17.2451 10.7521 16.9799 10.2559 16.5904 9.86644C16.2009 9.47697 15.7047 9.21174 15.1645 9.10429C14.6243 8.99684 14.0644 9.05199 13.5555 9.26276C13.0467 9.47354 12.6117 9.83048 12.3058 10.2884C11.9998 10.7464 11.8364 11.2848 11.8364 11.8356C11.8364 12.5742 12.1298 13.2825 12.6521 13.8048C13.1743 14.327 13.8827 14.6204 14.6212 14.6204ZM14.6212 10.4432C14.8966 10.4432 15.1658 10.5249 15.3948 10.6779C15.6238 10.8308 15.8023 11.0483 15.9076 11.3027C16.013 11.5572 16.0406 11.8371 15.9869 12.1072C15.9332 12.3773 15.8005 12.6254 15.6058 12.8202C15.4111 13.0149 15.163 13.1475 14.8929 13.2012C14.6228 13.255 14.3428 13.2274 14.0884 13.122C13.834 13.0166 13.6165 12.8382 13.4635 12.6092C13.3105 12.3802 13.2288 12.111 13.2288 11.8356C13.2288 11.4663 13.3755 11.1121 13.6367 10.851C13.8978 10.5899 14.2519 10.4432 14.6212 10.4432Z" fill="#FF6961"/>
</g>
</svg>
