<svg width="24" height="24" viewBox="0 0 24 24" fill="none" xmlns="http://www.w3.org/2000/svg">
<path d="M15 22.75H9C3.57 22.75 1.25 20.43 1.25 15V9C1.25 3.57 3.57 1.25 9 1.25H14C14.41 1.25 14.75 1.59 14.75 2C14.75 2.41 14.41 2.75 14 2.75H9C4.39 2.75 2.75 4.39 2.75 9V15C2.75 19.61 4.39 21.25 9 21.25H15C19.61 21.25 21.25 19.61 21.25 15V10C21.25 9.59 21.59 9.25 22 9.25C22.41 9.25 22.75 9.59 22.75 10V15C22.75 20.43 20.43 22.75 15 22.75Z" fill="#335076"/>
<path d="M22 10.7505H18C14.58 10.7505 13.25 9.42048 13.25 6.00048V2.00048C13.25 1.70048 13.43 1.42048 13.71 1.31048C13.99 1.19048 14.31 1.26048 14.53 1.47048L22.53 9.47048C22.74 9.68048 22.81 10.0105 22.69 10.2905C22.57 10.5705 22.3 10.7505 22 10.7505ZM14.75 3.81048V6.00048C14.75 8.58048 15.42 9.25048 18 9.25048H20.19L14.75 3.81048Z" fill="#335076"/>
<path d="M9.41938 18.9505C8.54938 18.9505 6.52938 17.8905 5.90938 15.9505C5.47938 14.6105 5.97938 12.8605 7.52938 12.3605C8.17938 12.1505 8.86938 12.2405 9.41938 12.5805C9.95938 12.2405 10.6594 12.1505 11.3194 12.3605C12.8694 12.8605 13.3694 14.6105 12.9394 15.9505C12.3094 17.9305 10.1894 18.9505 9.41938 18.9505ZM7.32938 15.5005C7.74938 16.8105 9.16938 17.4305 9.42938 17.4505C9.70938 17.4205 11.1094 16.7305 11.4994 15.5005C11.7094 14.8405 11.4994 14.0005 10.8494 13.7905C10.5794 13.7005 10.2094 13.7505 10.0394 14.0105C9.89938 14.2205 9.67938 14.3405 9.42938 14.3505C9.15938 14.3505 8.94938 14.2405 8.80938 14.0405C8.59938 13.7505 8.23938 13.7105 7.97938 13.8005C7.33938 14.0005 7.11938 14.8405 7.32938 15.5005Z" fill="#335076"/>
</svg>
