<svg width="24" height="24" viewBox="0 0 24 24" fill="none" xmlns="http://www.w3.org/2000/svg">
<path d="M15 22.75H9C3.57 22.75 1.25 20.43 1.25 15V9C1.25 3.57 3.57 1.25 9 1.25H11C11.41 1.25 11.75 1.59 11.75 2C11.75 2.41 11.41 2.75 11 2.75H9C4.39 2.75 2.75 4.39 2.75 9V15C2.75 19.61 4.39 21.25 9 21.25H15C19.61 21.25 21.25 19.61 21.25 15V13C21.25 12.59 21.59 12.25 22 12.25C22.41 12.25 22.75 12.59 22.75 13V15C22.75 20.43 20.43 22.75 15 22.75Z" fill="#667C98"/>
<path d="M8.50325 17.6905C7.89325 17.6905 7.33325 17.4705 6.92325 17.0705C6.43325 16.5805 6.22325 15.8705 6.33325 15.1205L6.76325 12.1105C6.84325 11.5305 7.22325 10.7805 7.63325 10.3705L15.5133 2.49055C17.5033 0.500547 19.5233 0.500547 21.5133 2.49055C22.6033 3.58055 23.0933 4.69055 22.9933 5.80055C22.9033 6.70055 22.4233 7.58055 21.5133 8.48055L13.6333 16.3605C13.2233 16.7705 12.4733 17.1505 11.8933 17.2305L8.88325 17.6605C8.75325 17.6905 8.62325 17.6905 8.50325 17.6905ZM16.5733 3.55055L8.69325 11.4305C8.50325 11.6205 8.28325 12.0605 8.24325 12.3205L7.81325 15.3305C7.77325 15.6205 7.83325 15.8605 7.98325 16.0105C8.13325 16.1605 8.37325 16.2205 8.66325 16.1805L11.6733 15.7505C11.9333 15.7105 12.3833 15.4905 12.5633 15.3005L20.4433 7.42055C21.0933 6.77055 21.4333 6.19055 21.4833 5.65055C21.5433 5.00055 21.2033 4.31055 20.4433 3.54055C18.8433 1.94055 17.7433 2.39055 16.5733 3.55055Z" fill="#667C98"/>
<path d="M19.8515 9.83027C19.7815 9.83027 19.7115 9.82027 19.6515 9.80027C17.0215 9.06027 14.9315 6.97027 14.1915 4.34027C14.0815 3.94027 14.3115 3.53027 14.7115 3.41027C15.1115 3.30027 15.5215 3.53027 15.6315 3.93027C16.2315 6.06027 17.9215 7.75027 20.0515 8.35027C20.4515 8.46027 20.6815 8.88027 20.5715 9.28027C20.4815 9.62027 20.1815 9.83027 19.8515 9.83027Z" fill="#667C98"/>
</svg>
