<svg width="40" height="40" viewBox="0 0 40 40" fill="none" xmlns="http://www.w3.org/2000/svg">
<g id="Group 37967">
<g id="Group 37999">
<path id="Vector" d="M31.73 20.9695C31.63 20.7495 31.49 20.5595 31.32 20.3995C31.15 20.2395 30.94 20.1095 30.72 20.0295C30.5 19.9495 30.27 19.9095 30.03 19.9195C29.79 19.9195 29.56 19.9795 29.35 20.0795L25.8 21.7295C25.65 21.8095 25.55 21.9495 25.5 22.1095C25.45 22.2695 25.47 22.4395 25.54 22.5895C25.62 22.7395 25.75 22.8595 25.9 22.9195C26.06 22.9795 26.23 22.9695 26.4 22.8995L29.91 21.2595C29.97 21.2295 30.03 21.2195 30.09 21.2195C30.14 21.2195 30.21 21.2195 30.27 21.2495C30.39 21.2995 30.49 21.3895 30.54 21.4895C30.58 21.5995 30.59 21.7095 30.55 21.8195C30.51 21.9295 30.44 22.0195 30.34 22.0795L23.88 25.8295C23.36 26.1295 22.77 26.2995 22.17 26.2995H16.71C16.31 26.2995 15.91 26.4195 15.56 26.6495L13.65 24.2495L15.02 23.0395C15.39 22.7095 15.82 22.4595 16.3 22.2995C16.78 22.1495 17.27 22.0895 17.78 22.1495C18.07 22.1695 18.35 22.2395 18.6 22.3595C18.7 22.4095 18.8 22.4395 18.91 22.4395H23.48C23.57 22.4395 23.65 22.4395 23.74 22.4795C23.82 22.5095 23.9 22.5595 23.96 22.6095C24.03 22.6695 24.08 22.7495 24.11 22.8295C24.14 22.9095 24.16 22.9995 24.16 23.0795C24.16 23.1595 24.14 23.2495 24.11 23.3395C24.08 23.4195 24.02 23.4895 23.96 23.5495C23.89 23.6095 23.82 23.6595 23.74 23.6895C23.66 23.7195 23.57 23.7295 23.46 23.7295H19.98C19.8 23.7295 19.64 23.7995 19.51 23.9195C19.39 24.0395 19.32 24.2095 19.32 24.3895C19.32 24.5695 19.39 24.7295 19.51 24.8595C19.63 24.9795 19.8 25.0495 19.98 25.0495H23.47C23.98 25.0295 24.45 24.8095 24.8 24.4495C25.15 24.0895 25.34 23.5995 25.34 23.0895C25.34 22.5795 25.15 22.0995 24.8 21.7295C24.45 21.3595 23.98 21.1495 23.46 21.1295H19.05C18.68 20.9695 18.29 20.8795 17.89 20.8495C17.21 20.7795 16.53 20.8495 15.88 21.0595C15.23 21.2695 14.64 21.6095 14.13 22.0695L12.77 23.2595C12.58 23.1195 12.36 23.0295 12.12 22.9995C11.77 22.9595 11.44 23.0595 11.16 23.2795L9.25 24.7995C9.18 24.8495 9.12 24.9195 9.08 24.9995C9.04 25.0795 9.01 25.1595 9 25.2395C9 25.3295 9 25.4095 9.02 25.4995C9.04 25.5795 9.08 25.6595 9.14 25.7295L13.22 30.8595C13.28 30.9395 13.36 30.9995 13.45 31.0395C13.54 31.0795 13.64 31.1095 13.74 31.1095C13.89 31.1095 14.03 31.0595 14.15 30.9695L16.07 29.4295C16.21 29.3195 16.32 29.1895 16.4 29.0395C16.48 28.8895 16.54 28.7295 16.55 28.5495C16.57 28.3795 16.55 28.2095 16.51 28.0395C16.47 27.9195 16.42 27.7995 16.35 27.6995C16.46 27.6495 16.57 27.6195 16.69 27.6195H22.15C22.98 27.6195 23.8 27.3995 24.52 26.9895L30.98 23.2695C31.36 23.0495 31.65 22.6995 31.8 22.2795C31.94 21.8595 31.92 21.4095 31.74 20.9995L31.73 20.9695ZM13.86 29.4695L10.6 25.3895L11.97 24.2895L12.14 24.4995C12.14 24.4995 12.19 24.5895 12.23 24.6195L15.24 28.3695L13.85 29.4695H13.86ZM15.25 28.3695L15.43 28.6095L15.24 28.3695H15.25Z" fill="#CCD3DD"/>
<path id="Vector_2" d="M17.33 17.4096C17.42 17.4796 17.53 17.5296 17.65 17.5596C17.74 17.5796 17.83 17.5996 17.92 17.5996C17.94 17.5996 17.97 17.5996 17.99 17.5996H19.6C19.72 17.5996 19.84 17.5996 19.96 17.5696C20.08 17.5396 20.19 17.4896 20.28 17.4196C20.38 17.3496 20.46 17.2596 20.52 17.1596C20.58 17.0496 20.61 16.9296 20.61 16.8096C20.61 16.6896 20.58 16.5696 20.52 16.4596C20.46 16.3596 20.38 16.2696 20.28 16.1896C20.19 16.1196 20.08 16.0696 19.96 16.0396C19.85 16.0096 19.73 15.9996 19.61 16.0096H18.01C17.89 16.0096 17.77 16.0096 17.65 16.0396C17.53 16.0696 17.42 16.1196 17.33 16.1896C17.23 16.2596 17.15 16.3496 17.09 16.4496C17.03 16.5596 17 16.6796 17 16.7996C17 16.9196 17.03 17.0396 17.09 17.1496C17.15 17.2496 17.23 17.3396 17.33 17.4196V17.4096Z" fill="#CCD3DD"/>
<path id="Vector_3" d="M24.66 17.6003H24.68H25.8C25.83 17.6003 25.85 17.6003 25.88 17.6003C25.96 17.6003 26.05 17.5803 26.12 17.5503C26.22 17.5103 26.31 17.4503 26.38 17.3703C26.45 17.2903 26.51 17.2003 26.55 17.1003C26.59 17.0003 26.61 16.9003 26.61 16.7903C26.61 16.6803 26.59 16.5803 26.55 16.4803C26.51 16.3803 26.45 16.2903 26.38 16.2103C26.3 16.1303 26.21 16.0703 26.12 16.0303C26.02 15.9903 25.91 15.9703 25.83 15.9903H24.66C24.47 16.0103 24.3 16.1103 24.18 16.2603C24.06 16.4003 24 16.5903 24 16.7803C24 16.9703 24.06 17.1603 24.18 17.3003C24.3 17.4603 24.47 17.5503 24.66 17.5703V17.6003Z" fill="#CCD3DD"/>
<path id="Vector_4" d="M17.48 20.13H26.15C26.41 20.13 26.67 20.08 26.9 19.98C27.14 19.88 27.36 19.74 27.55 19.55C27.74 19.36 27.88 19.15 27.98 18.91C28.08 18.67 28.13 18.41 28.13 18.15V17.12H28.88C29.4 17.12 29.91 16.91 30.28 16.54C30.65 16.17 30.86 15.67 30.86 15.14V9.98C30.86 9.45 30.65 8.96 30.28 8.58C29.91 8.21 29.41 8 28.88 8H20.22C19.97 8.01 19.7 8.05 19.46 8.15C19.22 8.25 19 8.39 18.81 8.58C18.62 8.76 18.48 8.98 18.38 9.22C18.28 9.46 18.23 9.72 18.23 9.98V11.01H17.48C16.95 11.01 16.45 11.22 16.08 11.59C15.71 11.96 15.5 12.46 15.5 12.99V18.15C15.5 18.68 15.71 19.18 16.08 19.55C16.45 19.92 16.95 20.13 17.48 20.13ZM29.35 15.61C29.23 15.73 29.06 15.8 28.89 15.8H28.14V15.46H29.47C29.44 15.52 29.4 15.57 29.35 15.61ZM29.55 14.14H28.14V13.64H29.55V14.14ZM19.54 9.98C19.54 9.8 19.61 9.64 19.73 9.51C19.85 9.39 20.02 9.32 20.2 9.32H28.87C29.04 9.32 29.21 9.39 29.34 9.51C29.46 9.64 29.53 9.8 29.53 9.98V12.33H28.02C27.9 11.99 27.68 11.68 27.39 11.45C27.04 11.17 26.6 11.01 26.15 11.01H19.54V9.98ZM16.81 12.99C16.81 12.82 16.88 12.64 17 12.52C17.13 12.4 17.29 12.33 17.47 12.33H26.14C26.31 12.33 26.48 12.4 26.61 12.52C26.73 12.64 26.8 12.81 26.8 12.99V18.15C26.8 18.33 26.73 18.49 26.61 18.62C26.49 18.74 26.32 18.81 26.14 18.81H17.47C17.29 18.81 17.13 18.74 17 18.62C16.88 18.5 16.81 18.33 16.81 18.15V12.99Z" fill="#CCD3DD"/>
<path id="Vector_5" d="M21.66 17.6003H21.68H22.8C22.83 17.6003 22.85 17.6003 22.88 17.6003C22.96 17.6003 23.05 17.5803 23.12 17.5503C23.22 17.5103 23.31 17.4503 23.38 17.3703C23.45 17.2903 23.51 17.2003 23.55 17.1003C23.59 17.0003 23.61 16.9003 23.61 16.7903C23.61 16.6803 23.59 16.5803 23.55 16.4803C23.51 16.3803 23.45 16.2903 23.38 16.2103C23.3 16.1303 23.21 16.0703 23.12 16.0303C23.02 15.9903 22.91 15.9703 22.83 15.9903H21.66C21.47 16.0103 21.3 16.1103 21.18 16.2603C21.06 16.4003 21 16.5903 21 16.7803C21 16.9703 21.06 17.1603 21.18 17.3003C21.3 17.4603 21.47 17.5503 21.66 17.5703V17.6003Z" fill="#CCD3DD"/>
<path id="Vector_6" d="M17.3699 15.51C17.4299 15.57 17.5099 15.62 17.5899 15.66C17.6699 15.69 17.7599 15.71 17.8499 15.71H19.5399C19.6299 15.71 19.7099 15.69 19.7999 15.66C19.8799 15.62 19.9599 15.57 20.0199 15.51C20.0799 15.45 20.1299 15.37 20.1599 15.29C20.1899 15.21 20.2099 15.12 20.1999 15.04V13.36C20.1999 13.18 20.1299 13.02 19.9999 12.9C19.8799 12.78 19.7099 12.71 19.5399 12.71H17.8499C17.6799 12.71 17.5099 12.78 17.3799 12.9C17.2599 13.02 17.1899 13.19 17.1899 13.36V15.03C17.1899 15.12 17.1999 15.21 17.2299 15.29C17.2599 15.37 17.3099 15.45 17.3699 15.51ZM18.4999 14.02H18.8599V14.38H18.4999V14.02Z" fill="#CCD3DD"/>
</g>
</g>
</svg>
