<svg width="24" height="24" viewBox="0 0 24 24" fill="none" xmlns="http://www.w3.org/2000/svg">
<path d="M12 21.6497C11.78 21.6497 11.45 21.6297 11.14 21.5197C7.32 20.2097 1.25 15.5696 1.25 8.68964C1.25 5.18964 4.08 2.34961 7.56 2.34961C9.25 2.34961 10.83 3.00964 12 4.18964C13.17 3.00964 14.75 2.34961 16.44 2.34961C19.92 2.34961 22.75 5.18964 22.75 8.68964C22.75 9.89964 22.57 11.0896 22.21 12.2296C22.09 12.6196 21.66 12.8496 21.27 12.7196C20.87 12.5996 20.66 12.1697 20.78 11.7797C21.09 10.7897 21.25 9.74965 21.25 8.69965C21.25 6.02965 19.09 3.85962 16.44 3.85962C14.92 3.85962 13.51 4.56961 12.6 5.78961C12.32 6.16961 11.68 6.16961 11.4 5.78961C10.48 4.55961 9.08 3.85962 7.56 3.85962C4.91 3.85962 2.75 6.02965 2.75 8.69965C2.75 15.5396 9.32 19.3296 11.63 20.1196C11.69 20.1396 11.83 20.1696 12 20.1696C12.41 20.1696 12.75 20.5096 12.75 20.9196C12.75 21.3296 12.41 21.6497 12 21.6497Z" fill="white"/>
<path d="M17.7391 21.7496C15.5591 21.7496 13.7891 19.9796 13.7891 17.7996C13.7891 15.6196 15.5591 13.8496 17.7391 13.8496C19.9191 13.8496 21.6891 15.6196 21.6891 17.7996C21.6891 19.9796 19.9191 21.7496 17.7391 21.7496ZM17.7391 15.3496C16.3891 15.3496 15.2891 16.4496 15.2891 17.7996C15.2891 19.1496 16.3891 20.2496 17.7391 20.2496C19.0891 20.2496 20.1891 19.1496 20.1891 17.7996C20.1891 16.4496 19.0891 15.3496 17.7391 15.3496Z" fill="white"/>
<path d="M21.5366 22.349C21.3466 22.349 21.1566 22.2791 21.0066 22.1291L20.0066 21.1291C19.7166 20.8391 19.7166 20.3591 20.0066 20.0691C20.2966 19.7791 20.7766 19.7791 21.0666 20.0691L22.0666 21.0691C22.3566 21.3591 22.3566 21.8391 22.0666 22.1291C21.9166 22.2691 21.7266 22.349 21.5366 22.349Z" fill="white"/>
</svg>
