<svg width="157" height="148" viewBox="0 0 157 148" fill="none" xmlns="http://www.w3.org/2000/svg">
<path fill-rule="evenodd" clip-rule="evenodd" d="M82.4283 27.519C95.3919 26.9112 108.706 29.2771 119.21 36.4721C129.716 43.6687 136.896 54.729 139.632 66.7039C142.207 77.9699 137.317 88.9541 133.721 99.9681C130.06 111.181 128.403 124.001 118.577 131.19C108.65 138.452 94.9538 138.386 82.4283 137.495C70.6755 136.659 59.9443 132.334 50.0348 126.313C39.5693 119.954 29.1392 112.873 24.1764 102.102C18.9214 90.6964 17.6251 77.4427 22.1333 65.7563C26.5632 54.2728 37.4606 46.6178 48.2096 39.8011C58.5923 33.2167 69.934 28.1048 82.4283 27.519Z" fill="#FFC3C0"/>
<path d="M56.3976 97.4025C54.5631 100.716 52.6833 103.977 50.9397 107.287C46.7969 115.139 42.6332 122.982 39.0681 131.127C37.6629 134.325 36.5101 137.614 36.2492 141.141C36.1714 142.033 36.1863 142.931 36.2935 143.822C36.6349 146.385 38.3726 147.705 40.929 147.425C42.7644 147.224 44.3155 146.378 45.7303 145.256C48.0968 143.38 49.9488 141.039 51.6522 138.567C54.0864 135.028 56.1218 131.264 57.9393 127.367C59.9685 123.017 62.0869 118.718 64.1228 114.362C65.899 110.555 67.3264 106.604 68.6866 102.631L68.9453 101.909C69.2393 102.05 69.5423 102.171 69.852 102.272C78.2834 104.483 86.6453 104.249 94.8581 101.522C109.526 96.6522 119.638 86.7781 125.496 72.5196C129.402 63.0131 130.201 53.1367 127.811 43.0316C125.763 34.3637 121.676 26.8217 115.003 20.8545C110.172 16.5342 104.536 13.5317 98.4378 11.4478C91.46 9.06039 84.3427 8.3722 77.0736 9.58526C69.4458 10.8299 62.2847 14.0329 56.28 18.8857C44.4623 28.3591 37.8147 40.7611 36.4336 55.964C35.7286 63.7262 37.0389 71.2361 40.1198 78.4372C42.5658 84.1489 46.2892 89.2255 50.9974 93.2685C52.663 94.7165 54.5008 95.9613 56.2615 97.3006C56.3323 97.3582 56.4089 97.4083 56.3976 97.4025ZM45.0736 77.9266C42.808 73.9234 41.2741 70.2154 40.363 66.2587C38.1822 56.7918 38.9774 47.6125 43.0778 38.8761C47.8248 28.7613 55.591 21.709 65.7179 17.2583C71.4744 14.7127 77.6918 13.3611 84.0016 13.2836C94.9254 13.1348 104.577 16.3691 112.657 24.0809C117.99 29.1719 122.171 35.0145 124.538 42.0198C128.576 53.9768 127.52 65.5397 121.587 76.5192C116.754 85.4732 109.5 91.8876 100.289 96.0521C93.5891 99.0971 86.2339 100.437 78.8659 99.9554C75.6656 99.7475 72.4911 99.2155 69.3906 98.3676C68.9346 98.2435 68.5816 98.3051 68.2728 98.6506C67.964 98.9961 67.6103 99.3406 67.3213 99.7176C66.0149 101.414 65.0072 103.298 64.0899 105.228C60.8391 112.067 57.6032 118.913 54.3824 125.765C52.8891 128.946 51.273 132.053 49.285 134.952C48.1839 136.557 46.9873 138.082 45.3931 139.239C44.4122 139.948 43.3525 140.416 42.1048 140.175C41.1495 139.996 40.6605 139.48 40.7258 138.516C40.7685 137.606 40.9249 136.706 41.1912 135.837C41.6511 134.392 42.2131 132.982 42.8729 131.619C46.1774 125.03 49.5264 118.481 52.8516 111.912C54.0165 109.61 55.163 107.298 56.2912 104.976C56.7933 103.946 57.2323 102.882 57.7084 101.838C58.6491 99.7794 59.6274 97.7478 59.8838 95.4315C60.0378 94.0311 59.6728 93.0383 58.462 92.2517C52.6549 88.4923 48.2152 83.4528 45.069 77.9292L45.0736 77.9266Z" fill="#002454"/>
<path d="M99.9086 114.967C99.8989 115.283 99.8891 115.6 99.874 116.031C100.361 115.65 100.385 115.336 100.073 114.963L99.9086 114.967Z" fill="#002454"/>
<path d="M63.9071 19.9202C58.6562 22.892 54.3692 26.91 50.7385 31.7398C45.4627 38.7508 42.6266 46.6212 42.042 55.3845C41.6377 61.4518 42.762 67.2516 45.1767 72.8355C47.4839 78.1691 50.6212 82.9455 54.9057 86.8694C61.0398 92.4848 68.1767 96.1156 76.4012 97.2689C80.8979 97.9034 85.3984 97.625 89.861 96.8395C95.1727 95.9033 100.231 93.8958 104.733 90.9373C117.798 82.4226 126.173 66.6059 123.779 49.4308C123.005 43.8042 121.053 38.3953 118.054 33.5621C115.002 28.611 110.992 24.6356 106.183 21.4641C104.903 20.623 103.581 19.7998 102.185 19.187C94.8681 15.9692 87.2171 14.7536 79.2912 15.2711C74.2778 15.602 69.5515 16.8803 65.1302 19.2585C64.8669 19.4075 64.5946 19.5372 64.327 19.6785C64.1809 19.7612 64.0426 19.8436 63.9071 19.9202ZM116.508 37.9822C118.932 42.2657 120.465 46.0613 121.181 49.4353C123.275 59.3633 121.541 68.5293 115.978 76.9335C112.35 82.4063 107.435 86.4442 101.596 89.3424C96.3629 91.9379 90.8153 93.4554 84.9329 93.4649C77.6308 93.5114 70.4178 91.6957 63.967 88.1874C60.4742 86.3016 57.5007 83.7602 54.7417 80.9306C51.3168 77.4274 48.6698 73.2347 46.9787 68.6342C45.3655 64.2962 44.6489 59.7882 44.6464 55.1893C44.6442 46.5609 47.4365 38.9327 53.1035 32.5134C57.8621 27.1308 63.8395 23.5466 70.6539 21.3101C74.5873 20.0191 78.5793 19.0872 82.7371 18.9987C87.501 18.8945 92.0773 19.8295 96.5371 21.5563C98.5675 22.3424 100.392 23.4891 102.291 24.5122C108.66 27.9474 113.407 33.0287 116.508 37.9822Z" fill="#002454"/>
<path d="M139.376 48.2894C139.86 48.6701 140.306 49.1213 140.837 49.413C142.505 50.3318 144.336 50.7215 146.199 50.9122C148.164 51.1149 150.137 51.2358 152.105 51.3892C152.407 51.4117 152.709 51.4302 153.013 51.4375C154.401 51.466 155.54 49.9706 155.118 48.6222C155.067 48.5103 154.995 48.4096 154.905 48.3264C154.814 48.2432 154.708 48.1792 154.593 48.1383C153.566 47.7882 152.519 47.4934 151.486 47.161C150.36 46.7996 149.25 46.4042 148.117 46.0511C145.673 45.2474 143.055 45.1812 140.589 45.8606C140.185 45.9968 139.829 46.2445 139.561 46.5757C139.368 46.792 139.254 47.0677 139.236 47.3587C139.219 47.6498 139.299 47.9394 139.464 48.1811L139.376 48.2894Z" fill="#002454"/>
<path d="M140.641 33.1992C139.79 33.6438 139.436 34.3942 139.371 35.3091C139.329 35.8973 139.57 36.2837 140.142 36.4257C140.696 36.5706 141.266 36.6455 141.837 36.6487C143.924 36.646 145.993 36.2911 147.957 35.5986C149.672 34.987 151.452 34.5526 153.201 34.0295C153.536 33.9301 153.863 33.8075 154.181 33.6627C154.59 33.4665 154.932 33.1525 155.163 32.7602C155.395 32.3678 155.505 31.9144 155.481 31.4566C155.456 30.9774 155.299 30.8218 154.822 30.8698C153.429 31.0067 152.041 31.1773 150.647 31.3024C150.03 31.3525 149.409 31.3639 148.789 31.3367C146.304 31.2449 143.97 31.8708 141.689 32.7495C141.338 32.889 140.991 33.0503 140.641 33.1992Z" fill="#002454"/>
<path d="M137.268 24.5399C138.349 23.7157 139.563 22.7716 140.796 21.8496C142.461 20.6018 144.143 19.3793 145.809 18.133C146.6 17.5395 147.151 16.765 147.253 15.7544C147.28 15.4466 147.243 15.0263 147.059 14.8317C146.932 14.7 146.457 14.808 146.196 14.9331C144.907 15.5495 143.64 16.2108 142.362 16.8497C141.68 17.1886 140.999 17.5344 140.31 17.8403C137.493 19.0521 135.069 21.0222 133.302 23.5358C133.048 23.9179 132.877 24.3507 132.802 24.8058C132.686 25.4812 133.099 25.9063 133.782 25.829C134.316 25.7699 134.84 25.6446 135.341 25.4561C135.942 25.2324 136.511 24.9067 137.268 24.5399Z" fill="#002454"/>
<path d="M16.236 93.5344C15.7006 93.8659 15.5822 94.2273 15.6816 94.82C15.9131 96.1496 16.0886 97.4875 16.2881 98.8333C16.3717 99.4742 16.2363 99.6433 15.6028 99.6226C14.8012 99.6269 14.0941 99.342 13.5138 98.7518C12.9737 98.2015 12.4258 97.6753 11.8936 97.1009C11.6194 96.7977 11.3868 96.7749 11.0674 97.0171C9.93311 97.7927 8.74231 98.4965 7.66451 99.344C6.69843 100.095 5.78375 99.9553 4.83496 99.4312C4.19981 99.0898 4.10216 98.8178 4.39534 98.1668C5.17147 96.3669 5.96379 94.599 6.76401 92.8069C7.06508 92.1319 7.08917 92.1398 6.5408 91.5334C5.71035 90.6479 4.91189 89.7462 4.15329 88.8042C3.87079 88.445 3.92602 88.2763 4.34264 88.226C4.72727 88.1919 5.10402 88.1819 5.49697 88.2039C6.30696 88.2557 7.13316 88.3395 7.96725 88.3992C8.74526 88.4672 8.75315 88.4431 9.07831 87.776C9.22905 87.4786 9.35571 87.1733 9.50645 86.8758C10.1011 85.63 10.6958 84.3842 11.2826 83.1625C11.6235 82.4472 11.8715 82.3417 12.6661 82.5219C12.8186 82.5451 12.9872 82.6003 13.1559 82.6556C13.8305 82.8765 14.1774 83.2835 14.2294 84.0208C14.3242 85.2789 14.5553 86.5284 14.7063 87.7782C14.8651 89.004 14.873 88.9799 16.1162 89.0936C17.1509 89.1923 18.2172 89.1947 19.1726 89.4542C19.5502 89.6045 19.8634 89.707 20.121 89.8981C20.7005 90.3279 20.686 90.6166 20.1107 90.9885C18.8406 91.853 17.5464 92.7097 16.236 93.5344ZM7.88854 90.1874C7.82287 89.8991 7.58322 90.0608 7.40668 90.0296C7.47192 90.2377 7.53716 90.4458 7.76935 90.3885C7.82542 90.3802 7.88896 90.2676 7.88854 90.1874ZM12.7508 92.4465C12.6843 91.9979 12.6581 91.5892 12.5916 91.1406C12.4914 90.3875 12.4914 90.3875 11.7296 90.3514C11.3927 90.3212 11.2411 90.4582 11.1144 90.7636C10.9483 91.1893 10.7262 91.6234 10.536 92.0413C10.536 92.0413 10.536 92.0413 10.5601 92.0492C10.5443 92.0974 10.5285 92.1456 10.5127 92.1938C10.2515 92.8285 10.4871 93.4125 11.1061 93.7219C11.2668 93.8012 11.3628 93.7526 11.4907 93.6878C11.8342 93.4535 12.1777 93.2192 12.5133 93.0089C12.6969 92.8556 12.7762 92.6949 12.7508 92.4465ZM15.5793 90.6517C15.4431 90.6604 15.2341 90.5654 15.1872 90.7901C15.1635 90.8624 15.1881 90.9504 15.2844 90.982C15.4772 91.0451 15.5565 90.8843 15.6765 90.8436C15.684 90.7393 15.6836 90.6592 15.5793 90.6517Z" fill="#002454"/>
<path d="M118.902 111.293C118.502 111.536 118.335 111.801 118.386 112.298C118.472 113.42 118.502 114.55 118.556 115.688C118.584 116.337 118.36 116.531 117.718 116.454C117.053 116.369 116.426 116.164 116.006 115.573C115.748 115.222 115.457 114.887 115.167 114.552C114.78 114.105 114.756 114.097 114.244 114.436C113.038 115.268 111.816 116.069 110.634 116.909C110.003 117.369 109.378 117.404 108.687 117.151C107.514 116.741 107.368 116.373 107.923 115.247C107.931 115.223 107.939 115.199 107.971 115.183C108.86 113.447 109.732 111.678 110.621 109.942C110.835 109.532 110.794 109.251 110.503 108.916C109.995 108.35 109.535 107.719 109.035 107.128C108.655 106.657 108.742 106.392 109.343 106.269C109.575 106.211 109.84 106.218 110.08 106.217C110.689 106.23 111.307 106.218 111.9 106.279C112.341 106.317 112.549 106.172 112.723 105.802C113.501 104.243 114.294 102.715 115.12 101.171C115.549 100.351 115.917 100.205 116.8 100.521C117.571 100.774 117.733 101.013 117.785 101.831C117.857 103.241 117.936 104.628 118.008 106.038C118.051 106.64 118.051 106.64 118.677 106.684C119.326 106.737 119.984 106.766 120.666 106.802C121.291 106.847 121.94 106.819 122.535 107.041C122.72 107.128 122.888 107.183 123.073 107.27C123.162 107.326 123.274 107.389 123.363 107.445C123.87 107.851 123.855 108.06 123.312 108.415C121.81 109.418 120.38 110.363 118.902 111.293ZM112.925 112.03C112.588 112.08 112.59 112.401 112.519 112.617C112.559 112.657 112.576 112.689 112.576 112.689C112.832 112.64 113.12 112.574 113.126 112.229C113.15 112.157 113.037 112.013 112.925 112.03ZM115.728 110.067C115.726 109.666 115.732 109.241 115.706 108.833C115.68 108.584 115.807 108.279 115.382 108.193C114.876 108.107 114.612 108.181 114.43 108.575C114.208 109.009 114.002 109.475 113.819 109.869C113.676 110.142 113.694 110.334 113.847 110.518C113.927 110.598 113.976 110.694 114.057 110.773C114.314 110.964 114.389 111.469 114.869 111.306C115.485 111.054 115.732 110.708 115.728 110.067ZM118.357 108.313C118.093 108.387 118.158 108.595 118.207 108.771C118.256 108.947 118.4 108.915 118.536 108.826C118.712 108.696 118.92 108.631 119.03 108.374C118.773 108.263 118.565 108.248 118.357 108.313Z" fill="#002454"/>
<path d="M27.7884 17.0918C27.9567 17.0669 28.117 17.0661 28.2695 17.0893C28.7347 17.1349 29.2157 17.1324 29.6651 17.2262C30.267 17.3433 30.6026 17.133 30.9124 16.5943C31.5715 15.3962 32.3269 14.2298 33.0583 13.0554C33.4399 12.4601 33.6638 12.3467 34.3621 12.4953C34.5868 12.5422 34.7795 12.6053 34.9885 12.7004C35.5834 13.0019 35.6885 13.1697 35.62 13.8676C35.5454 14.9102 35.4707 15.9528 35.3961 16.9954C35.3513 17.621 35.3754 17.6288 35.969 17.6898C36.6589 17.7824 37.3401 17.7387 38.087 17.9833C38.2075 18.0227 38.3761 18.0779 38.5531 18.1892C38.8264 18.3321 39.1239 18.4828 39.1177 18.8276C39.1273 19.1242 38.8149 19.1819 38.591 19.2954C37.5921 19.9019 36.6011 20.4844 35.6101 21.0669C35.2504 21.2692 35.1154 21.5185 35.1175 21.9193C35.1056 22.689 35.0376 23.467 34.9774 24.2209C34.9247 24.8706 34.781 24.9836 34.1555 24.9388C33.3937 24.9028 32.7747 24.5934 32.3065 23.9866C31.8059 23.3158 31.9102 23.3233 31.143 23.7923C30.6076 24.1239 30.056 24.4234 29.529 24.811C28.906 25.2472 28.2966 25.2344 27.6378 24.9654C26.5935 24.57 26.4551 24.1779 26.9792 23.2292C27.5511 22.216 28.115 21.2269 28.711 20.2216C28.9493 19.8195 28.9319 19.547 28.6494 19.1877C28.2863 18.7487 28.0349 18.2129 27.4961 17.9031C27.3192 17.7918 27.1737 17.5841 27.2526 17.3432C27.4042 17.2061 27.5882 17.133 27.7884 17.0918ZM31.9925 20.7093C32.0972 20.7969 32.201 20.7242 32.297 20.6756C32.513 20.5863 32.6646 20.4492 32.6953 20.1925C32.7418 19.8876 32.7803 19.6068 32.7221 19.2142C32.3716 19.633 32.1893 20.0268 31.9829 20.4127C31.9194 20.5253 31.8878 20.6216 31.9925 20.7093Z" fill="#002454"/>
</svg>
