<svg width="193" height="183" viewBox="0 0 193 183" fill="none" xmlns="http://www.w3.org/2000/svg">
<path fill-rule="evenodd" clip-rule="evenodd" d="M101.372 34.2697C117.448 33.516 133.958 36.4497 146.983 45.3718C160.011 54.2959 168.914 68.0111 172.307 82.8604C175.5 96.8305 169.437 110.451 164.977 124.109C160.437 138.013 158.383 153.91 146.198 162.825C133.888 171.831 116.904 171.749 101.372 170.643C86.7985 169.607 73.4913 164.244 61.2032 156.778C48.2256 148.893 35.292 140.112 29.1378 126.755C22.6215 112.612 21.0141 96.1768 26.6043 81.6853C32.0976 67.4454 45.6107 57.9528 58.9399 49.4998C71.8148 41.335 85.8789 34.9961 101.372 34.2697Z" fill="#FFC3C0"/>
<path d="M69.0924 120.925C66.8175 125.033 64.4865 129.077 62.3244 133.182C57.1872 142.919 52.024 152.645 47.6032 162.745C45.8607 166.71 44.4312 170.789 44.1077 175.162C44.0112 176.268 44.0296 177.382 44.1625 178.486C44.586 181.665 46.7407 183.301 49.9108 182.954C52.1867 182.705 54.1102 181.656 55.8645 180.265C58.799 177.939 61.0956 175.036 63.2079 171.97C66.2265 167.582 68.7504 162.914 71.0041 158.082C73.5204 152.687 76.1473 147.356 78.6719 141.954C80.8745 137.234 82.6445 132.335 84.3311 127.408L84.652 126.513C85.0166 126.688 85.3922 126.838 85.7764 126.963C96.2316 129.705 106.601 129.415 116.785 126.033C134.974 119.994 147.513 107.75 154.777 90.069C159.62 78.2807 160.611 66.0335 157.648 53.5028C155.108 42.7544 150.039 33.402 141.765 26.0025C135.775 20.6452 128.786 16.922 121.224 14.3378C112.571 11.3774 103.745 10.524 94.7314 12.0282C85.2726 13.5717 76.3926 17.5435 68.9465 23.561C54.2921 35.3084 46.0489 50.6874 44.3364 69.5395C43.4621 79.1649 45.087 88.4774 48.9073 97.4071C51.9405 104.49 56.5575 110.785 62.396 115.798C64.4613 117.594 66.7403 119.138 68.9237 120.798C69.0114 120.87 69.1064 120.932 69.0924 120.925ZM55.0502 96.7739C52.2407 91.8098 50.3387 87.2118 49.2089 82.3053C46.5046 70.566 47.4907 59.1834 52.5753 48.3499C58.4617 35.8072 68.0922 27.062 80.6499 21.543C87.7881 18.3864 95.498 16.7104 103.322 16.6143C116.868 16.4297 128.836 20.4404 138.856 30.0033C145.469 36.3163 150.653 43.5614 153.589 52.2482C158.596 67.0753 157.287 81.4138 149.929 95.0287C143.936 106.132 134.942 114.086 123.519 119.25C115.211 123.026 106.09 124.688 96.9539 124.09C92.9854 123.833 89.0489 123.173 85.2042 122.121C84.6387 121.968 84.201 122.044 83.818 122.472C83.4351 122.901 82.9965 123.328 82.6382 123.796C81.0182 125.9 79.7686 128.235 78.6311 130.629C74.6 139.11 70.5874 147.599 66.5934 156.096C64.7417 160.04 62.7377 163.892 60.2725 167.488C58.9071 169.478 57.4232 171.369 55.4464 172.803C54.23 173.683 52.916 174.263 51.3688 173.964C50.1841 173.742 49.5778 173.102 49.6588 171.907C49.7118 170.778 49.9057 169.662 50.2359 168.585C50.8062 166.793 51.5031 165.044 52.3213 163.354C56.4189 155.184 60.5719 147.063 64.6952 138.917C66.1397 136.062 67.5615 133.196 68.9605 130.316C69.5831 129.039 70.1274 127.72 70.7179 126.425C71.8843 123.872 73.0974 121.353 73.4154 118.481C73.6063 116.744 73.1537 115.513 71.6523 114.538C64.4513 109.876 58.946 103.627 55.0446 96.7771L55.0502 96.7739Z" fill="#002454"/>
<path d="M123.049 142.71C123.037 143.103 123.025 143.495 123.006 144.03C123.611 143.557 123.64 143.168 123.253 142.706L123.049 142.71Z" fill="#002454"/>
<path d="M78.4041 24.8463C71.8928 28.5314 66.5768 33.5139 62.0746 39.5029C55.5324 48.1968 52.0155 57.9565 51.2906 68.8233C50.7893 76.3469 52.1834 83.5389 55.1777 90.4631C58.0387 97.077 61.9291 103 67.2421 107.866C74.8485 114.829 83.6986 119.331 93.8973 120.761C99.4733 121.548 105.054 121.203 110.588 120.229C117.175 119.068 123.447 116.579 129.029 112.91C145.231 102.351 155.616 82.7381 152.648 61.4405C151.688 54.4633 149.268 47.7561 145.548 41.7627C141.764 35.6232 136.791 30.6935 130.827 26.7607C129.24 25.7178 127.601 24.697 125.87 23.9371C116.797 19.9469 107.309 18.4395 97.4809 19.0813C91.2641 19.4915 85.4033 21.0766 79.9208 24.0258C79.5943 24.2106 79.2567 24.3714 78.9248 24.5466C78.7436 24.6492 78.5721 24.7512 78.4041 24.8463ZM143.631 47.2438C146.637 52.5554 148.539 57.2622 149.426 61.4461C152.023 73.7571 149.872 85.1233 142.974 95.5448C138.474 102.331 132.38 107.338 125.139 110.932C118.65 114.151 111.771 116.032 104.477 116.044C95.422 116.102 86.4775 113.85 78.4783 109.5C74.1472 107.162 70.4599 104.01 67.0387 100.501C62.7917 96.1572 59.5093 90.9581 57.4122 85.2533C55.4119 79.874 54.5233 74.2841 54.5201 68.5811C54.5174 57.8817 57.98 48.4224 65.0073 40.4623C70.9081 33.7876 78.3202 29.3431 86.7704 26.5698C91.648 24.9689 96.5982 23.8134 101.754 23.7036C107.661 23.5744 113.336 24.7338 118.866 26.8751C121.384 27.8499 123.647 29.2718 126.002 30.5404C133.9 34.8003 139.786 41.1012 143.631 47.2438Z" fill="#002454"/>
<path d="M171.99 60.0233C172.59 60.4954 173.143 61.0549 173.801 61.4166C175.869 62.5559 178.14 63.0392 180.451 63.2757C182.887 63.527 185.333 63.6769 187.774 63.8672C188.149 63.895 188.523 63.9179 188.899 63.9271C190.621 63.9624 192.034 62.108 191.51 60.436C191.447 60.2972 191.357 60.1724 191.245 60.0692C191.134 59.966 191.002 59.8867 190.86 59.8359C189.585 59.4018 188.288 59.0363 187.006 58.624C185.61 58.1759 184.234 57.6856 182.829 57.2477C179.798 56.2511 176.552 56.169 173.494 57.0115C172.993 57.1803 172.552 57.4876 172.219 57.8982C171.98 58.1664 171.838 58.5083 171.816 58.8693C171.795 59.2302 171.894 59.5892 172.098 59.889L171.99 60.0233Z" fill="#002454"/>
<path d="M173.557 41.3125C172.501 41.8638 172.063 42.7943 171.982 43.9288C171.931 44.6582 172.229 45.1374 172.939 45.3134C173.626 45.4931 174.332 45.586 175.04 45.5899C177.629 45.5866 180.194 45.1465 182.629 44.2878C184.756 43.5294 186.963 42.9907 189.132 42.342C189.547 42.2188 189.953 42.0668 190.347 41.8872C190.855 41.6439 191.279 41.2546 191.566 40.768C191.853 40.2815 191.99 39.7192 191.96 39.1516C191.928 38.5573 191.734 38.3644 191.143 38.424C189.415 38.5937 187.694 38.8053 185.966 38.9604C185.199 39.0224 184.43 39.0366 183.661 39.0029C180.58 38.889 177.686 39.6652 174.856 40.7548C174.421 40.9278 173.991 41.1279 173.557 41.3125Z" fill="#002454"/>
<path d="M169.376 30.5736C170.716 29.5516 172.222 28.3809 173.75 27.2375C175.815 25.6902 177.9 24.1743 179.966 22.6289C180.948 21.8928 181.631 20.9325 181.757 19.6792C181.79 19.2975 181.745 18.7764 181.516 18.5351C181.359 18.3718 180.77 18.5058 180.447 18.6608C178.848 19.4252 177.277 20.2453 175.692 21.0375C174.846 21.4577 174.002 21.8865 173.148 22.2659C169.655 23.7685 166.649 26.2116 164.457 29.3285C164.142 29.8023 163.931 30.339 163.838 30.9033C163.693 31.7409 164.205 32.268 165.053 32.1721C165.715 32.0988 166.364 31.9435 166.986 31.7097C167.731 31.4323 168.437 31.0284 169.376 30.5736Z" fill="#002454"/>
<path d="M19.2916 116.13C18.6277 116.541 18.4809 116.99 18.6041 117.725C18.8912 119.373 19.1088 121.032 19.3563 122.701C19.4599 123.496 19.292 123.706 18.5065 123.68C17.5124 123.685 16.6357 123.332 15.916 122.6C15.2463 121.918 14.5668 121.265 13.9069 120.553C13.5669 120.177 13.2785 120.149 12.8824 120.449C11.4758 121.411 9.99919 122.284 8.66268 123.335C7.46471 124.265 6.33047 124.092 5.15395 123.443C4.36633 123.019 4.24525 122.682 4.6088 121.875C5.57122 119.643 6.55374 117.45 7.54603 115.228C7.91937 114.391 7.94924 114.401 7.26924 113.649C6.23946 112.551 5.24933 111.433 4.30865 110.265C3.95834 109.819 4.02682 109.61 4.54344 109.548C5.0204 109.505 5.48758 109.493 5.97486 109.52C6.97928 109.585 8.00379 109.688 9.03809 109.763C10.0028 109.847 10.0126 109.817 10.4158 108.99C10.6028 108.621 10.7598 108.242 10.9468 107.873C11.6842 106.329 12.4216 104.784 13.1492 103.269C13.572 102.382 13.8795 102.251 14.8649 102.474C15.0539 102.503 15.263 102.572 15.4722 102.64C16.3087 102.914 16.7388 103.419 16.8033 104.333C16.921 105.893 17.2075 107.443 17.3947 108.993C17.5917 110.512 17.6014 110.483 19.1431 110.624C20.4262 110.746 21.7484 110.749 22.9331 111.071C23.4014 111.257 23.7898 111.384 24.1091 111.621C24.8277 112.154 24.8098 112.512 24.0964 112.973C22.5214 114.045 20.9166 115.108 19.2916 116.13ZM8.94049 111.98C8.85906 111.623 8.56188 111.823 8.34297 111.784C8.42387 112.042 8.50476 112.3 8.79269 112.229C8.86222 112.219 8.94102 112.079 8.94049 111.98ZM14.9699 114.781C14.8874 114.225 14.8549 113.718 14.7724 113.162C14.6482 112.228 14.6482 112.228 13.7035 112.183C13.2858 112.146 13.0978 112.316 12.9407 112.694C12.7347 113.222 12.4592 113.761 12.2234 114.279C12.2234 114.279 12.2234 114.279 12.2533 114.289C12.2337 114.348 12.2141 114.408 12.1946 114.468C11.8707 115.255 12.1628 115.979 12.9303 116.363C13.1297 116.461 13.2487 116.401 13.4073 116.321C13.8332 116.03 14.2592 115.739 14.6753 115.479C14.903 115.289 15.0013 115.089 14.9699 114.781ZM18.4773 112.556C18.3084 112.567 18.0493 112.449 17.9911 112.727C17.9618 112.817 17.9922 112.926 18.1117 112.965C18.3507 113.044 18.449 112.844 18.5979 112.794C18.6071 112.664 18.6066 112.565 18.4773 112.556Z" fill="#002454"/>
<path d="M146.599 138.152C146.103 138.453 145.896 138.782 145.959 139.398C146.066 140.79 146.103 142.191 146.17 143.602C146.205 144.407 145.927 144.648 145.132 144.552C144.306 144.447 143.529 144.193 143.008 143.46C142.688 143.024 142.328 142.609 141.968 142.193C141.488 141.639 141.458 141.629 140.824 142.05C139.328 143.082 137.812 144.074 136.346 145.116C135.564 145.687 134.789 145.731 133.932 145.417C132.478 144.908 132.297 144.451 132.985 143.056C132.995 143.026 133.005 142.996 133.044 142.976C134.146 140.823 135.228 138.63 136.33 136.477C136.596 135.968 136.545 135.621 136.185 135.205C135.554 134.503 134.984 133.72 134.363 132.988C133.893 132.404 134.001 132.075 134.745 131.922C135.033 131.851 135.362 131.859 135.66 131.858C136.415 131.874 137.181 131.86 137.917 131.935C138.464 131.982 138.721 131.802 138.938 131.343C139.902 129.41 140.886 127.515 141.91 125.601C142.441 124.584 142.897 124.403 143.993 124.795C144.949 125.108 145.149 125.405 145.214 126.419C145.303 128.168 145.402 129.887 145.491 131.637C145.544 132.382 145.544 132.382 146.32 132.437C147.126 132.503 147.941 132.538 148.786 132.583C149.562 132.639 150.367 132.605 151.104 132.879C151.333 132.987 151.542 133.056 151.772 133.164C151.881 133.233 152.021 133.312 152.131 133.381C152.76 133.885 152.741 134.143 152.068 134.584C150.205 135.827 148.432 136.999 146.599 138.152ZM139.187 139.066C138.77 139.128 138.772 139.526 138.684 139.795C138.734 139.844 138.754 139.884 138.754 139.884C139.072 139.823 139.43 139.741 139.437 139.314C139.467 139.224 139.326 139.046 139.187 139.066ZM142.664 136.632C142.661 136.135 142.668 135.608 142.636 135.101C142.604 134.793 142.762 134.415 142.234 134.308C141.607 134.202 141.28 134.293 141.054 134.782C140.778 135.32 140.523 135.898 140.297 136.386C140.119 136.725 140.141 136.964 140.331 137.191C140.431 137.29 140.491 137.409 140.591 137.508C140.91 137.745 141.003 138.371 141.598 138.169C142.362 137.857 142.668 137.427 142.664 136.632ZM145.923 134.458C145.596 134.549 145.676 134.807 145.737 135.025C145.798 135.244 145.977 135.203 146.145 135.093C146.363 134.932 146.621 134.852 146.759 134.533C146.44 134.395 146.181 134.377 145.923 134.458Z" fill="#002454"/>
<path d="M33.6173 21.3402C33.8259 21.3093 34.0247 21.3083 34.2137 21.3371C34.7906 21.3937 35.3871 21.3905 35.9445 21.5069C36.6908 21.652 37.107 21.3913 37.4912 20.7232C38.3084 19.2376 39.2452 17.7912 40.1521 16.3349C40.6253 15.5967 40.9029 15.4561 41.7688 15.6404C42.0475 15.6985 42.2865 15.7768 42.5456 15.8947C43.2832 16.2686 43.4136 16.4767 43.3287 17.342C43.2361 18.6349 43.1436 19.9278 43.051 21.2206C42.9955 21.9964 43.0254 22.0061 43.7614 22.0818C44.617 22.1965 45.4617 22.1423 46.3879 22.4456C46.5373 22.4945 46.7464 22.563 46.9658 22.701C47.3048 22.8782 47.6736 23.0651 47.6659 23.4926C47.6778 23.8604 47.2905 23.932 47.0129 24.0727C45.7742 24.8249 44.5453 25.5472 43.3164 26.2695C42.8704 26.5204 42.703 26.8294 42.7056 27.3265C42.6908 28.2809 42.6064 29.2457 42.5319 30.1806C42.4666 30.9862 42.2883 31.1263 41.5126 31.0708C40.568 31.0261 39.8004 30.6424 39.2198 29.89C38.5991 29.0582 38.7284 29.0674 37.7771 29.6491C37.1132 30.0602 36.4292 30.4316 35.7756 30.9123C35.003 31.4532 34.2474 31.4373 33.4305 31.1037C32.1355 30.6135 31.9639 30.1273 32.6138 28.9507C33.3229 27.6943 34.0222 26.4678 34.7612 25.2213C35.0568 24.7226 35.0352 24.3847 34.6848 23.9392C34.2346 23.3948 33.9229 22.7304 33.2548 22.3462C33.0353 22.2082 32.855 21.9507 32.9529 21.6519C33.1408 21.4819 33.369 21.3913 33.6173 21.3402ZM38.8305 25.826C38.9603 25.9347 39.089 25.8445 39.208 25.7842C39.4758 25.6734 39.6638 25.5034 39.7019 25.1851C39.7596 24.807 39.8074 24.4588 39.7352 23.9721C39.3006 24.4914 39.0745 24.9797 38.8186 25.4582C38.7398 25.5978 38.7007 25.7173 38.8305 25.826Z" fill="#002454"/>
</svg>
