<svg width="249" height="195" viewBox="0 0 249 195" fill="none" xmlns="http://www.w3.org/2000/svg">
<path d="M49.1582 171.078C49.1582 171.078 -8.55162 147.668 1.72622 93.4139C12.0041 39.1598 69.4863 55.3491 115.452 42.3148C161.418 29.2804 160.304 0 204.535 0C248.766 0 270.844 90.3566 216.233 171.078H49.1582Z" fill="#FFC3C0"/>
<path d="M205.52 172.433H43.8717C43.6917 172.433 43.5191 172.362 43.3916 172.235C43.2641 172.108 43.1921 171.936 43.1914 171.756C43.1921 171.576 43.2641 171.403 43.3916 171.276C43.5191 171.149 43.6917 171.078 43.8717 171.078H205.52C205.7 171.078 205.872 171.15 205.999 171.277C206.126 171.404 206.197 171.576 206.197 171.756C206.197 171.935 206.126 172.108 205.999 172.235C205.872 172.362 205.7 172.433 205.52 172.433Z" fill="#47243B"/>
<path d="M207.35 171.078C207.35 171.078 210.041 152.747 196.576 149.156C196.576 149.156 204.455 142.673 200.37 135.989C196.286 129.305 190.19 132.696 190.19 132.696C190.19 132.696 200.167 117.832 193.681 110.251C187.195 102.67 173.321 95.2922 174.031 104.066C174.031 104.066 168.442 94.1891 163.355 95.2868C158.267 96.3845 152.383 118.829 154.177 130.793C155.971 142.757 166.845 171.07 166.845 171.07L207.35 171.078Z" fill="#7AC098"/>
<path d="M96.3459 38.0106C99.3544 37.9727 108.705 39.2059 110.475 47.1555C112.245 55.1051 110.204 53.1482 109.692 52.6766C108.787 51.8634 106.109 48.0689 101.948 47.5268C97.7878 46.9847 93.1232 48.3399 93.1232 48.3399C93.1232 48.3399 95.1912 54.1456 90.6621 57.3249L89.7135 57.4469C89.7135 57.4469 89.0333 55.3165 87.3664 54.3163C85.6995 53.3162 85.198 54.7961 84.9134 56.1188C84.6288 57.4414 82.9078 60.5096 88.0657 62.2253C88.0657 62.2253 89.1038 65.9684 92.7411 69.8144C92.7411 69.8144 94.763 72.0586 92.7086 75.5063C90.6541 78.9539 78.7228 86.4481 70.3341 79.374C61.9454 72.2999 67.3717 68.9281 75.4324 56.9183C83.4931 44.9086 88.6402 38.1028 96.3459 38.0106Z" fill="#002454"/>
<path d="M152.642 135.818L54.1973 142.675L152.642 151.587V135.818Z" fill="#002454"/>
<path d="M57.8889 173.661L54.1973 142.676L165.204 148.991L168.43 173.661H57.8889Z" fill="#335076"/>
<path d="M193.673 171.078H142.008L147.998 162.678L158.482 156.501L161.715 153.319L163.596 155.13L168.095 146.673L184.97 146.223L190.117 157.531L189.743 161.556L193.673 165.768V171.078Z" fill="#333333"/>
<path d="M105.712 77.9813C105.712 77.9813 97.8142 78.3635 98.9878 72.2028L92.1386 70.0859C92.1386 70.0859 92.1222 76.3199 85.8477 77.9813C85.8477 77.9813 89.3712 98.4638 101.194 96.057C113.017 93.6502 105.712 77.9813 105.712 77.9813Z" fill="#FF9C70"/>
<path d="M99.0087 74.6012C99.0087 74.6012 94.2547 75.2029 91.6094 72.7392C91.6094 72.7392 92.5851 70.3486 91.959 68.1152L98.96 71.6848C98.96 71.6848 98.7214 73.5388 99.0087 74.6012Z" fill="#E47452"/>
<path d="M109.822 51.9556C110.193 53.8096 109.039 64.0142 107.225 67.5838C105.412 71.1534 104.087 74.5089 97.1968 73.3461C89.9085 72.1156 88.06 62.2118 88.06 62.2118C88.06 62.2118 84.0242 61.2659 84.5609 57.8453C85.0975 54.4248 85.8781 53.4382 87.3607 54.3029C88.8433 55.1675 89.7078 57.4333 89.7078 57.4333L90.6565 57.3114C90.6565 57.3114 94.3562 54.788 93.1175 48.3264C93.1175 48.3264 100.411 45.8193 104.284 48.1692C108.158 50.5191 109.822 51.9556 109.822 51.9556Z" fill="#FF9C70"/>
<path d="M201.443 171.078C201.348 170.636 199.57 164.177 199.57 164.177C199.57 164.177 194.328 159.591 194.049 159.217C193.77 158.843 191.802 149.086 191.802 149.086L188.059 146.226L182.809 147.199L185.438 152.211L187.495 155.954L187.029 161.852L192.124 168.684V171.091L201.443 171.078Z" fill="black"/>
<path d="M119.386 101.149L121.324 105.264C121.324 105.264 131.448 91.1291 135.418 85.6676C136.101 84.7267 136.431 83.5749 136.348 82.4151C136.218 80.5178 136.378 76.0077 137.389 73.3055C138.137 71.3052 140.37 69.6654 140.37 69.6654C140.37 69.6654 142.593 67.6109 143.934 67.5811C145.276 67.5513 145.875 68.1774 145.875 68.1774C145.875 68.1774 147.992 68.3861 147.873 70.2075C147.873 70.2075 150.168 71.4299 149.632 72.7715C149.632 72.7715 151.45 74.3219 150.347 76.1406C149.244 77.9592 144.151 91.3486 142.712 93.0507C141.273 94.7529 130.29 110.72 130.29 110.72L117.112 117.095L112.453 104.128L119.386 101.149Z" fill="#FF9C70"/>
<path d="M161.37 142.857C160.895 143.353 160.47 145.326 155.718 145.267C150.967 145.207 150.997 143.318 150.997 143.318C150.693 143.342 150.408 143.477 150.196 143.697C149.985 143.918 149.862 144.208 149.85 144.513C149.791 146.039 149.552 148.809 148.652 150.595C148.344 151.173 148.147 151.804 148.072 152.454H180.722C180.722 152.454 181.605 150.321 179.199 149.202C176.792 148.083 171.273 146.508 168.509 145.95C163.104 144.836 162.256 141.93 161.37 142.857Z" fill="black"/>
<path d="M180.372 152.452H148.246C147.783 152.452 147.408 152.827 147.408 153.289C147.408 153.752 147.783 154.127 148.246 154.127H180.372C180.835 154.127 181.21 153.752 181.21 153.289C181.21 152.827 180.835 152.452 180.372 152.452Z" fill="#666666"/>
<path d="M159.147 134.815C159.25 135.021 161.017 143.359 161.017 143.359C161.017 143.359 160.792 146.069 156.835 146.018C152.878 145.966 151.276 143.966 151.276 143.966L149.693 139.027L159.147 134.815Z" fill="#FF9C70"/>
<path d="M155.254 181.112C154.855 181.673 154.712 183.687 150.015 184.324C145.318 184.961 145.06 183.088 145.06 183.088C144.762 183.156 144.499 183.332 144.322 183.582C144.145 183.832 144.066 184.139 144.101 184.443C144.266 185.961 144.437 188.736 143.805 190.636C143.586 191.252 143.484 191.904 143.504 192.558L175.801 187.777C175.801 187.777 176.363 185.538 173.817 184.776C171.272 184.015 165.583 183.272 162.767 183.118C157.26 182.814 155.994 180.066 155.254 181.112Z" fill="black"/>
<path d="M175.454 187.826L143.674 192.531C143.217 192.598 142.901 193.024 142.968 193.482C143.036 193.939 143.462 194.255 143.92 194.188L175.7 189.483C176.157 189.416 176.473 188.99 176.405 188.532C176.338 188.075 175.912 187.759 175.454 187.826Z" fill="#666666"/>
<path d="M152.892 175.927C153.022 176.116 154.981 181.659 154.981 181.659C154.981 181.659 155.152 184.37 151.233 184.912C147.314 185.454 145.43 183.697 145.43 183.697L142.549 177.835L152.892 175.927Z" fill="#FF9C70"/>
<path d="M161.647 133.701L148.908 141.814L140.994 122.711L130.301 135.265C130.301 135.265 137.62 137.954 139.132 141.128C140.644 144.302 155.365 176.93 155.365 176.93L140.579 179.136C140.579 179.136 126.507 152.032 121.607 149.129C116.706 146.226 103.601 146.579 103.601 146.579C103.601 146.579 81.0346 145.164 75.79 141.098C70.5454 137.033 81.6906 133.238 81.6906 133.238C81.6906 133.238 89.5506 131.533 94.9307 129.443C100.311 127.354 102.384 124.635 106.1 123.006C109.816 121.377 115.164 118.052 118.297 115.441C121.43 112.831 137.137 94.9726 142.712 93.0807C148.288 91.1888 152.914 94.0591 154.416 102.665C155.918 111.27 161.647 133.701 161.647 133.701Z" fill="#DDAC13"/>
<path d="M117.021 116.434L113.226 104.388L120.303 100.651C120.303 100.651 117.322 90.4083 114.717 84.3234C112.112 78.2386 105.716 77.9919 105.716 77.9919C105.716 77.9919 111.795 93.1241 100.87 95.2382C89.944 97.3523 85.8459 77.9811 85.8459 77.9811C85.8459 77.9811 76.9016 77.6097 74.3864 84.0036C71.8711 90.3974 69.2096 104.302 69.0876 104.673C68.9656 105.044 75.6657 109.143 75.6657 109.143L87.5237 133.477C87.5237 133.477 100.756 127.321 104.098 124.031C104.93 123.551 111.524 120.439 117.021 116.434Z" fill="#FF6961"/>
<path fill-rule="evenodd" clip-rule="evenodd" d="M113.346 94.8912C113.55 94.7963 113.792 94.8844 113.887 95.088L113.518 95.2597C113.887 95.088 113.887 95.0882 113.887 95.0884L113.887 95.0891L113.888 95.0912L113.891 95.098C113.894 95.1038 113.898 95.112 113.902 95.1226C113.912 95.1436 113.925 95.1739 113.942 95.213C113.975 95.291 114.022 95.4039 114.077 95.5467C114.186 95.8318 114.328 96.2374 114.461 96.7231C114.724 97.6889 114.958 98.9968 114.802 100.312C114.646 101.636 114.091 102.982 112.77 103.969C111.459 104.948 109.448 105.532 106.461 105.459C106.237 105.453 106.059 105.267 106.065 105.042C106.07 104.818 106.256 104.64 106.481 104.646C109.366 104.717 111.172 104.148 112.283 103.318C113.385 102.495 113.858 101.376 113.995 100.216C114.133 99.0466 113.926 97.8525 113.676 96.9373C113.552 96.4824 113.419 96.1028 113.317 95.8378C113.267 95.7055 113.224 95.6021 113.194 95.5326C113.179 95.4979 113.168 95.4717 113.16 95.4546C113.156 95.4461 113.153 95.4398 113.152 95.4359L113.15 95.4319L113.15 95.4314" fill="white"/>
<path fill-rule="evenodd" clip-rule="evenodd" d="M91.9763 90.1611C91.9419 89.9393 91.7342 89.7874 91.5123 89.8217C91.2905 89.8561 91.1384 90.0639 91.1728 90.2857L91.5746 90.2235C91.1728 90.2857 91.1729 90.286 91.1729 90.2863L91.173 90.2871L91.1734 90.2895L91.1747 90.2977C91.1759 90.3047 91.1775 90.3145 91.1796 90.3272C91.184 90.3525 91.1904 90.389 91.1992 90.4356C91.2167 90.529 91.2436 90.6632 91.2816 90.8303C91.3575 91.1642 91.478 91.631 91.6573 92.1665C92.0142 93.232 92.612 94.595 93.5745 95.7208C94.5432 96.854 95.8928 97.758 97.7292 97.8538C99.5528 97.949 101.788 97.2432 104.531 95.3099C104.715 95.1805 104.759 94.9269 104.63 94.7434C104.5 94.5598 104.247 94.5159 104.063 94.6452C101.403 96.52 99.3465 97.124 97.7715 97.0418C96.2093 96.9603 95.0537 96.1998 94.1925 95.1924C93.3251 94.1777 92.7685 92.9241 92.4284 91.9083C92.2592 91.403 92.1456 90.9629 92.0745 90.6501C92.039 90.4938 92.0141 90.3697 91.9983 90.2855C91.9904 90.2434 91.9848 90.2114 91.9812 90.1904C91.9794 90.1798 91.9781 90.1721 91.9773 90.1672L91.9765 90.162L91.9763 90.1611L91.9763 90.1611Z" fill="white"/>
<path d="M76.1783 26.3967C72.7117 29.332 74.6524 38.1598 88.6597 39.477C88.6597 39.477 84.735 19.1599 76.1783 26.3967Z" fill="#002454"/>
<path d="M180.195 171.078L161.713 153.319C161.713 153.319 160.724 156.301 165.031 161.369C169.338 166.438 173.737 171.078 173.737 171.078H180.195Z" fill="black"/>
<path d="M140.989 122.711L140.013 120.372L123.531 131.715L130.307 135.266L140.989 122.711Z" fill="#C79702"/>
<path d="M74.8501 137.436C74.8501 137.436 98.4116 143.174 104.58 144.139C110.749 145.104 118.203 147.662 120.301 148.5C120.301 148.5 115.135 146.993 111.123 146.792C107.112 146.592 104.475 146.638 103.602 146.578C102.729 146.519 88.6704 145.41 83.5695 143.944C78.4685 142.477 72.7143 141.06 74.8501 137.436Z" fill="#C79702"/>
<path fill-rule="evenodd" clip-rule="evenodd" d="M96.1295 51.5077C96.1419 51.2835 96.3337 51.1118 96.5579 51.1242C97.0457 51.1511 97.5986 51.3564 98.1245 51.6139C98.6597 51.876 99.2081 52.2132 99.6973 52.5422C100.188 52.8719 100.626 53.1981 100.941 53.4416C101.098 53.5635 101.225 53.665 101.314 53.7363C101.358 53.7719 101.392 53.8001 101.416 53.8194C101.427 53.8291 101.437 53.8366 101.443 53.8418L101.45 53.8477L101.452 53.8499C101.453 53.8499 101.453 53.8501 101.192 54.1619L101.453 53.8501C101.625 53.9942 101.648 54.2506 101.504 54.4228C101.36 54.595 101.103 54.6178 100.931 54.4737L100.931 54.4735L100.929 54.4724L100.923 54.4674L100.899 54.4472C100.877 54.4293 100.845 54.4027 100.803 54.3687C100.718 54.3006 100.596 54.2028 100.443 54.0849C100.138 53.8489 99.715 53.5339 99.2436 53.2169C98.771 52.8991 98.2564 52.5839 97.7669 52.3442C97.268 52.0999 96.8343 51.9538 96.513 51.936C96.2888 51.9237 96.1171 51.7319 96.1295 51.5077Z" fill="#47243B"/>
<path fill-rule="evenodd" clip-rule="evenodd" d="M108.843 55.5002C108.843 55.5002 108.843 55.5003 108.603 55.8288L108.843 55.5002C109.024 55.6325 109.064 55.8869 108.932 56.0684C108.8 56.2497 108.546 56.2895 108.364 56.1575C108.364 56.1575 108.364 56.1575 108.364 56.1575C108.364 56.1574 108.364 56.1573 108.364 56.1572L108.361 56.155C108.358 56.1528 108.353 56.1493 108.346 56.1445C108.332 56.1349 108.311 56.1203 108.283 56.1016C108.228 56.0641 108.145 56.0103 108.041 55.9474C107.831 55.8209 107.538 55.6597 107.202 55.5186C106.507 55.2264 105.732 55.0646 105.123 55.3245C104.916 55.4127 104.678 55.3167 104.589 55.1102C104.501 54.9037 104.597 54.6648 104.804 54.5767C105.732 54.1807 106.777 54.458 107.517 54.7689C107.899 54.9293 108.228 55.1106 108.461 55.2513C108.578 55.3219 108.672 55.3828 108.737 55.4267C108.769 55.4486 108.795 55.4664 108.813 55.4789C108.822 55.4852 108.829 55.4902 108.834 55.4938L108.84 55.4982L108.842 55.4995L108.843 55.5002Z" fill="#47243B"/>
<path fill-rule="evenodd" clip-rule="evenodd" d="M108.949 59.0802C108.949 59.0804 108.949 59.0805 108.602 59.2928L108.949 59.0805C109.066 59.272 109.006 59.5223 108.815 59.6395C108.623 59.7567 108.373 59.6967 108.256 59.5057C108.256 59.5056 108.256 59.5055 108.256 59.5054C108.256 59.5054 108.256 59.5054 108.256 59.5054L108.254 59.503C108.252 59.5004 108.25 59.4958 108.246 59.4896C108.237 59.477 108.225 59.4576 108.208 59.4326C108.173 59.3825 108.122 59.3106 108.055 59.227C107.921 59.0577 107.734 58.8497 107.513 58.6762C107.29 58.501 107.055 58.3793 106.824 58.3459C106.609 58.3147 106.364 58.355 106.085 58.5654C105.906 58.7009 105.651 58.6655 105.516 58.4865C105.38 58.3074 105.416 58.0524 105.595 57.917C106.04 57.5799 106.503 57.4778 106.941 57.5412C107.363 57.6023 107.729 57.812 108.015 58.0365C108.303 58.2628 108.535 58.523 108.693 58.7221C108.772 58.8225 108.835 58.9098 108.878 58.9728C108.9 59.0044 108.917 59.03 108.929 59.0484C108.935 59.0576 108.939 59.065 108.943 59.0704L108.947 59.077L108.948 59.0791L108.949 59.0802Z" fill="#47243B"/>
<path fill-rule="evenodd" clip-rule="evenodd" d="M99.235 56.2312C99.2351 56.2314 99.2352 56.2316 98.8642 56.398L99.2352 56.2316C99.3271 56.4365 99.2355 56.6771 99.0306 56.7689C98.8262 56.8606 98.5864 56.7697 98.494 56.566C98.4941 56.5661 98.4941 56.5662 98.4941 56.5662L98.4941 56.5661L98.4938 56.5656L98.4936 56.5652C98.4938 56.5655 98.4939 56.5658 98.494 56.566M98.4936 56.5652C98.4929 56.5636 98.4913 56.5603 98.4888 56.5553C98.4839 56.5454 98.4756 56.5289 98.4637 56.5073C98.4398 56.4637 98.4022 56.3997 98.35 56.3244C98.2447 56.1724 98.0857 55.9819 97.8689 55.8191C97.4577 55.5103 96.7959 55.2642 95.7671 55.6895C95.5596 55.7753 95.3218 55.6767 95.236 55.4692C95.1502 55.2617 95.2489 55.0239 95.4564 54.9381C96.7613 54.3986 97.7256 54.6945 98.3573 55.169C98.662 55.3978 98.8785 55.6594 99.0184 55.8614C99.0888 55.9631 99.1412 56.0516 99.1767 56.1164C99.1945 56.1488 99.2081 56.1755 99.2178 56.1951C99.2227 56.2049 99.2265 56.2129 99.2294 56.2191L99.233 56.2268L99.2343 56.2296L99.2348 56.2307L99.235 56.2312" fill="#47243B"/>
<path fill-rule="evenodd" clip-rule="evenodd" d="M103.557 54.65C103.78 54.6229 103.983 54.7816 104.01 55.0045L104.931 62.5773C104.945 62.6929 104.909 62.8089 104.832 62.896C104.755 62.9831 104.644 63.033 104.527 63.033H102.159C101.934 63.033 101.752 62.851 101.752 62.6264C101.752 62.4019 101.934 62.2199 102.159 62.2199H104.068L103.203 55.1027C103.175 54.8798 103.334 54.6771 103.557 54.65Z" fill="#E47452"/>
<path fill-rule="evenodd" clip-rule="evenodd" d="M97.5658 61.8274C97.7902 61.8345 97.9663 62.0222 97.9592 62.2467C97.9208 63.449 98.6345 64.2451 99.4303 64.7654C99.8263 65.0244 100.228 65.2041 100.533 65.3191C100.685 65.3764 100.811 65.417 100.898 65.4429C100.941 65.4559 100.974 65.4651 100.996 65.471C101.007 65.4739 101.015 65.476 101.02 65.4772L101.025 65.4785L101.025 65.4785C101.025 65.4785 101.025 65.4785 101.025 65.4786C101.025 65.4785 101.025 65.4785 100.93 65.8738L100.835 66.269C101.053 66.3216 101.273 66.1872 101.325 65.9689C101.378 65.7507 101.244 65.5312 101.025 65.4786M100.93 65.8738C100.835 66.269 100.835 66.269 100.834 66.2689L100.834 66.2688L100.833 66.2686L100.83 66.2678L100.82 66.2653C100.812 66.2632 100.8 66.2603 100.786 66.2564C100.757 66.2487 100.716 66.2373 100.665 66.2219C100.562 66.1913 100.418 66.1447 100.246 66.0799C99.9039 65.9507 99.4448 65.7464 98.9854 65.446C98.0702 64.8476 97.0953 63.8237 97.1465 62.2208C97.1536 61.9963 97.3413 61.8202 97.5658 61.8274" fill="#47243B"/>
<path fill-rule="evenodd" clip-rule="evenodd" d="M86.8999 98.1097C87.1238 98.092 87.3196 98.2591 87.3373 98.4829L87.8007 104.346C87.8184 104.569 87.6513 104.765 87.4275 104.783C87.2036 104.801 87.0078 104.633 86.9901 104.41L86.5267 98.547C86.509 98.3232 86.6761 98.1274 86.8999 98.1097Z" fill="#5405BE"/>
<path d="M86.6519 62.1226C87.095 62.1226 87.4541 61.7634 87.4541 61.3203C87.4541 60.8773 87.095 60.5181 86.6519 60.5181C86.2088 60.5181 85.8496 60.8773 85.8496 61.3203C85.8496 61.7634 86.2088 62.1226 86.6519 62.1226Z" fill="#219653"/>
<path fill-rule="evenodd" clip-rule="evenodd" d="M88.0432 56.3381C88.0432 56.3382 88.0433 56.3383 87.7479 56.6176L88.0432 56.3381C88.1974 56.5012 88.1904 56.7587 88.0273 56.913C87.8642 57.0673 87.6069 57.0601 87.4526 56.897L87.7394 56.6257C87.4526 56.897 87.4525 56.8969 87.4526 56.897L87.4531 56.8975L87.4533 56.8977C87.4533 56.8978 87.4532 56.8977 87.4529 56.8973L87.4482 56.8926C87.4437 56.888 87.4363 56.8806 87.4264 56.871C87.4064 56.8516 87.3769 56.8242 87.341 56.7937C87.2653 56.7293 87.1775 56.6656 87.0984 56.628C87.0873 56.6227 87.0775 56.6185 87.069 56.6151C87.0618 56.6352 87.0535 56.6632 87.0455 56.7015C86.9539 57.1359 86.9197 57.699 86.9873 58.2042C87.0577 58.7308 87.2235 59.0882 87.4318 59.2426C87.6122 59.3763 87.6501 59.6309 87.5163 59.8113C87.3826 59.9917 87.128 60.0296 86.9476 59.8959C86.4648 59.538 86.2593 58.8952 86.1813 58.312C86.1005 57.7073 86.1408 57.0507 86.2498 56.5338C86.313 56.2339 86.4596 55.9551 86.7544 55.8383C87.0263 55.7306 87.2895 55.8185 87.4476 55.8937C87.6186 55.975 87.7682 56.0897 87.8675 56.174C87.919 56.2178 87.9614 56.2573 87.9914 56.2863C88.0065 56.3008 88.0186 56.3129 88.0273 56.3218C88.0317 56.3262 88.0353 56.3299 88.038 56.3327L88.0413 56.3362L88.0425 56.3374L88.0432 56.3381ZM87.0917 56.5694C87.0918 56.5696 87.0908 56.5712 87.0883 56.5736C87.0904 56.5705 87.0916 56.5693 87.0917 56.5694Z" fill="#E47452"/>
<path d="M70.3645 143.218C70.2506 143.218 63.7728 144.337 62.0408 144.128C60.3089 143.92 57.4683 142.854 59.0051 141.618C60.5419 140.382 66.616 137.528 68.2639 137.282C69.1193 137.131 69.9842 137.04 70.8523 137.011L70.3645 143.218Z" fill="#FF9C70"/>
<path fill-rule="evenodd" clip-rule="evenodd" d="M63.3105 140.683C63.4032 140.887 63.3127 141.128 63.1082 141.221L58.6469 143.246C58.4425 143.339 58.2015 143.248 58.1087 143.044C58.0159 142.839 58.1064 142.598 58.3109 142.505L62.7722 140.481C62.9767 140.388 63.2177 140.479 63.3105 140.683Z" fill="#E47452"/>
<path fill-rule="evenodd" clip-rule="evenodd" d="M63.3139 142.471C63.4014 142.678 63.3045 142.916 63.0977 143.004L60.436 144.129C60.2292 144.216 59.9907 144.119 59.9033 143.912C59.8159 143.706 59.9127 143.467 60.1195 143.38L62.7812 142.255C62.988 142.167 63.2265 142.264 63.3139 142.471Z" fill="#E47452"/>
<path fill-rule="evenodd" clip-rule="evenodd" d="M66.2161 142.464C66.418 142.366 66.6613 142.45 66.7596 142.652C66.8579 142.853 66.7739 143.097 66.572 143.195L66.3941 142.83L66.2161 142.464ZM63.3745 143.749C63.378 143.748 63.3837 143.746 63.3919 143.744C63.4165 143.737 63.4517 143.725 63.4983 143.707C63.5911 143.673 63.7131 143.623 63.8568 143.561C64.1434 143.439 64.5005 143.276 64.8514 143.113C65.2017 142.95 65.543 142.788 65.7969 142.666C65.9238 142.605 66.0287 142.555 66.1019 142.519L66.1865 142.478L66.2161 142.464L66.3941 142.83C66.572 143.195 66.572 143.195 66.572 143.195L66.5415 143.21L66.4558 143.251C66.382 143.287 66.2762 143.338 66.1483 143.399C65.8928 143.522 65.5485 143.686 65.1944 143.85C64.8409 144.015 64.4749 144.181 64.1768 144.309C64.0281 144.373 63.8924 144.428 63.7818 144.469C63.7266 144.49 63.6737 144.508 63.6262 144.523C63.5862 144.535 63.5234 144.552 63.459 144.557C63.2352 144.576 63.039 144.409 63.0209 144.185C63.0032 143.968 63.1602 143.776 63.3745 143.749Z" fill="#E47452"/>
<path d="M70.3695 106.676C70.3695 106.676 66.7295 114.04 64.1573 106.676C61.5851 99.3118 64.8213 93.4818 67.2634 92.0398C69.345 90.8039 72.4971 90.8852 73.7384 93.9019C73.7384 93.9019 82.0811 89.0232 91.573 92.1266C91.573 92.1266 92.6381 86.9768 97.075 87.424C101.512 87.8712 106.391 100.29 103.905 105.879C101.42 111.468 97.5195 108.985 96.4543 103.751C96.4543 103.751 93.7927 113.067 91.1311 114.929C91.1311 114.929 91.4373 115.2 91.9442 115.742C94.1315 118.041 100.046 125.356 101.769 138.718C101.769 138.718 107.003 132.064 107.713 121.862C108.423 111.66 114.733 113.845 114.812 117.07C114.89 120.296 114.191 139.784 103.1 147.947C103.1 147.947 104.71 156.775 104.293 163.955C104.293 163.955 109.486 164.318 109.443 170.978H64.9351C64.9351 170.978 62.802 164.234 68.5535 163.074C68.5535 163.074 66.9408 144.245 68.2607 134.317C69.5807 124.388 74.1559 116.011 74.1559 116.011C74.1559 116.011 70.0714 111.305 70.3695 106.676Z" fill="#A25700"/>
<path d="M82.4505 116.122C86.1404 116.122 89.1317 113.339 89.1317 109.907C89.1317 106.474 86.1404 103.692 82.4505 103.692C78.7606 103.692 75.7695 106.474 75.7695 109.907C75.7695 113.339 78.7606 116.122 82.4505 116.122Z" fill="white"/>
<path d="M82.2982 109.63C83.9616 109.169 85.1112 108.078 84.8661 107.192C84.6209 106.306 83.0738 105.961 81.4104 106.422C79.747 106.882 78.5972 107.973 78.8423 108.859C79.0875 109.745 80.6348 110.09 82.2982 109.63Z" fill="#333333"/>
<path d="M81.9403 113.628C81.8075 113.628 81.6882 113.628 81.5798 113.612C81.4442 113.597 81.32 113.529 81.2342 113.423C81.1485 113.317 81.1081 113.181 81.1218 113.045C81.1361 112.91 81.2035 112.786 81.3092 112.7C81.4148 112.614 81.5501 112.573 81.6855 112.587C81.7885 112.587 84.0869 112.793 85.1114 110.665C85.1705 110.543 85.276 110.448 85.4045 110.403C85.5331 110.358 85.6742 110.366 85.7972 110.424C85.9201 110.484 86.0144 110.59 86.0596 110.719C86.1048 110.848 86.0973 110.989 86.0385 111.113C85.6614 111.875 85.0767 112.516 84.3517 112.961C83.6268 113.406 82.7909 113.637 81.9403 113.628Z" fill="black"/>
<path d="M89.1306 109.205C90.1919 109.205 91.0522 108.517 91.0522 107.668C91.0522 106.819 90.1919 106.131 89.1306 106.131C88.0693 106.131 87.209 106.819 87.209 107.668C87.209 108.517 88.0693 109.205 89.1306 109.205Z" fill="#FFC3C0"/>
<path d="M75.8611 110.052C76.8376 109.636 77.3595 108.666 77.0269 107.885C76.6943 107.104 75.6332 106.808 74.6567 107.224C73.6803 107.64 73.1583 108.61 73.4909 109.391C73.8235 110.172 74.8847 110.468 75.8611 110.052Z" fill="#FFC3C0"/>
<path d="M77.7428 103.304C78.0526 103.304 78.3037 103.053 78.3037 102.743C78.3037 102.433 78.0526 102.182 77.7428 102.182C77.4329 102.182 77.1816 102.433 77.1816 102.743C77.1816 103.053 77.4329 103.304 77.7428 103.304Z" fill="black"/>
<path d="M87.6041 102.32C87.914 102.32 88.165 102.069 88.165 101.759C88.165 101.449 87.914 101.198 87.6041 101.198C87.2942 101.198 87.043 101.449 87.043 101.759C87.043 102.069 87.2942 102.32 87.6041 102.32Z" fill="black"/>
<path d="M76.1896 101.71C76.1215 101.711 76.0541 101.698 75.9912 101.672C75.9283 101.646 75.8713 101.607 75.8236 101.559C75.7276 101.462 75.6738 101.331 75.6738 101.195C75.6738 101.059 75.7276 100.929 75.8236 100.832C76.8753 99.7887 78.7076 100.483 78.7862 100.512C78.9134 100.562 79.0157 100.66 79.0706 100.785C79.1255 100.91 79.1285 101.052 79.0789 101.179C79.0293 101.306 78.9316 101.407 78.8072 101.462C78.6828 101.517 78.5417 101.521 78.4148 101.472C78.057 101.336 77.0272 101.087 76.5474 101.561C76.4526 101.656 76.3239 101.71 76.1896 101.71Z" fill="black"/>
<path d="M89.1331 100.648C89.0381 100.649 88.9447 100.625 88.8621 100.578C88.8322 100.562 87.3496 99.7241 86.3956 100.526C86.344 100.57 86.2844 100.603 86.2201 100.623C86.1558 100.644 86.088 100.651 86.0208 100.646C85.9535 100.64 85.8881 100.621 85.8282 100.59C85.7683 100.558 85.7152 100.516 85.6719 100.464C85.6283 100.412 85.5954 100.353 85.5749 100.289C85.5544 100.224 85.5469 100.156 85.5527 100.089C85.5585 100.022 85.5775 99.9565 85.6087 99.8967C85.6398 99.8368 85.6825 99.7837 85.7342 99.7403C87.2494 98.4637 89.2957 99.64 89.3824 99.6915C89.4405 99.7257 89.4913 99.7709 89.5319 99.8247C89.5724 99.8784 89.6019 99.9397 89.6188 100.005C89.6357 100.07 89.6396 100.138 89.6302 100.205C89.6208 100.271 89.5984 100.336 89.5641 100.394C89.5201 100.469 89.4574 100.533 89.3819 100.577C89.3065 100.622 89.2207 100.646 89.1331 100.648Z" fill="black"/>
<path d="M93.9655 169.907C93.838 169.906 93.7152 169.859 93.6207 169.773C93.5262 169.687 93.4665 169.57 93.4532 169.443C93.4288 169.199 91.0354 145.153 90.8809 136.742C90.8787 136.606 90.9306 136.475 91.025 136.377C91.1195 136.279 91.249 136.222 91.3852 136.219C91.5198 136.219 91.6493 136.271 91.7453 136.366C91.8413 136.46 91.8959 136.589 91.8973 136.723C92.0518 145.093 94.4424 169.099 94.4668 169.34C94.4797 169.476 94.4386 169.611 94.3523 169.717C94.266 169.822 94.1416 169.89 94.0061 169.904L93.9655 169.907Z" fill="white"/>
<path d="M78.0805 169.907C77.9442 169.905 77.814 169.85 77.718 169.753C77.6221 169.656 77.5684 169.525 77.5684 169.389C77.5684 169.137 77.6443 143.976 77.5684 137.135C77.5676 136.999 77.6207 136.868 77.7161 136.77C77.8115 136.673 77.9415 136.617 78.0779 136.615C78.2133 136.615 78.3432 136.668 78.4392 136.764C78.5352 136.859 78.5895 136.989 78.5902 137.124C78.6688 143.979 78.5902 169.148 78.5902 169.4C78.5881 169.534 78.5336 169.662 78.4384 169.757C78.3432 169.851 78.2148 169.905 78.0805 169.907Z" fill="white"/>
<path d="M73.74 93.8885C72.4986 90.8718 69.3465 90.7905 67.2649 92.0264C64.8256 93.4711 61.5867 99.3011 64.1588 106.663C66.731 114.024 70.3711 106.663 70.3711 106.663C70.3188 107.706 70.4442 108.751 70.7423 109.752C74.7726 104.09 76.4342 95.8779 76.9627 92.4763C75.8497 92.8531 74.7714 93.3256 73.74 93.8885Z" fill="black"/>
<path fill-rule="evenodd" clip-rule="evenodd" d="M91.403 115.04C91.6805 114.689 92.1904 114.628 92.5431 114.904C92.8964 115.181 92.9582 115.693 92.681 116.046L92.0412 115.544C92.681 116.046 92.6806 116.046 92.6803 116.047L92.6794 116.048L92.6771 116.051L92.6708 116.059C92.6658 116.065 92.6592 116.073 92.651 116.083C92.6345 116.103 92.6117 116.131 92.5823 116.165C92.5237 116.233 92.4392 116.328 92.3289 116.444C92.1083 116.675 91.7836 116.991 91.3547 117.345C90.4975 118.052 89.2178 118.914 87.516 119.549C84.0809 120.83 79.0411 121.139 72.47 117.616C72.0743 117.404 71.9255 116.911 72.1377 116.515C72.3499 116.119 72.8428 115.97 73.2386 116.183C79.4253 119.5 83.979 119.132 86.9479 118.025C88.4481 117.466 89.573 116.707 90.32 116.091C90.6931 115.783 90.9704 115.512 91.1512 115.322C91.2416 115.227 91.3077 115.153 91.3495 115.104C91.3704 115.08 91.3851 115.062 91.3938 115.052C91.3981 115.046 91.4009 115.043 91.4022 115.041M91.4028 115.041C91.4027 115.041 91.4025 115.041 91.4022 115.041L91.4025 115.041L91.4028 115.041Z" fill="#219653"/>
<path fill-rule="evenodd" clip-rule="evenodd" d="M105.183 167.114C105.212 166.967 105.355 166.872 105.502 166.901C106.076 167.015 106.483 167.26 106.757 167.581C107.029 167.9 107.154 168.272 107.204 168.614C107.253 168.955 107.23 169.277 107.196 169.51C107.179 169.627 107.158 169.725 107.142 169.793C107.134 169.828 107.127 169.855 107.121 169.874C107.119 169.884 107.117 169.892 107.115 169.897L107.113 169.904L107.112 169.906L107.112 169.907L107.112 169.907C107.112 169.908 107.112 169.908 106.853 169.828L107.112 169.908C107.068 170.051 106.916 170.131 106.773 170.087C106.63 170.044 106.55 169.892 106.593 169.749C106.593 169.749 106.593 169.749 106.594 169.749L106.594 169.749L106.594 169.746C106.595 169.743 106.597 169.738 106.599 169.731C106.602 169.718 106.608 169.696 106.614 169.668C106.628 169.613 106.645 169.531 106.659 169.431C106.689 169.23 106.707 168.964 106.667 168.692C106.628 168.42 106.532 168.153 106.345 167.933C106.16 167.717 105.868 167.526 105.396 167.432C105.249 167.403 105.154 167.261 105.183 167.114Z" fill="white"/>
<path fill-rule="evenodd" clip-rule="evenodd" d="M103.518 167.952C103.546 167.805 103.689 167.709 103.836 167.738C104.246 167.819 104.543 167.995 104.745 168.232C104.945 168.465 105.036 168.737 105.072 168.982C105.108 169.227 105.091 169.456 105.068 169.622C105.055 169.705 105.041 169.774 105.03 169.823C105.024 169.848 105.019 169.868 105.015 169.882C105.013 169.889 105.011 169.894 105.01 169.899L105.009 169.904L105.008 169.906L105.008 169.906L105.008 169.907C105.008 169.907 105.008 169.907 104.748 169.828" fill="white"/>
<path fill-rule="evenodd" clip-rule="evenodd" d="M68.3032 167.114C68.3323 167.261 68.2368 167.403 68.09 167.432C67.6184 167.526 67.3263 167.717 67.1413 167.933C66.9537 168.153 66.8585 168.42 66.8189 168.692C66.7792 168.964 66.7972 169.23 66.8267 169.431C66.8413 169.531 66.8584 169.613 66.8717 169.668C66.8783 169.696 66.8838 169.718 66.8876 169.731C66.8895 169.738 66.8909 169.743 66.8918 169.746L66.8926 169.749L66.8926 169.749C66.9363 169.892 66.8559 170.044 66.7128 170.087C66.5697 170.131 66.4181 170.051 66.3743 169.908L66.6334 169.828C66.3743 169.908 66.3742 169.908 66.3742 169.907L66.3741 169.907L66.3739 169.906L66.3732 169.904L66.3712 169.897C66.3696 169.892 66.3674 169.884 66.3648 169.874C66.3595 169.855 66.3523 169.828 66.3442 169.793C66.3279 169.725 66.3076 169.627 66.2904 169.51C66.2561 169.277 66.2328 168.955 66.2825 168.614C66.3323 168.272 66.4573 167.9 66.7291 167.581C67.0035 167.26 67.41 167.015 67.9846 166.901C68.1315 166.872 68.2741 166.967 68.3032 167.114Z" fill="white"/>
<path fill-rule="evenodd" clip-rule="evenodd" d="M69.9718 167.952C70.0007 168.099 69.9051 168.241 69.7582 168.27C69.4514 168.33 69.2693 168.452 69.1567 168.584C69.0415 168.719 68.9809 168.885 68.9554 169.061C68.9297 169.237 68.9412 169.411 68.9606 169.543C68.9702 169.609 68.9815 169.663 68.9901 169.699C68.9943 169.717 68.9979 169.731 69.0003 169.739C69.0014 169.744 69.0023 169.747 69.0028 169.748L69.003 169.749L69.0031 169.749C69.0464 169.892 68.9659 170.044 68.823 170.087C68.6799 170.131 68.5283 170.051 68.4846 169.907L68.7438 169.828C68.4846 169.907 68.4846 169.907 68.4846 169.907L68.4844 169.907L68.4842 169.906L68.4837 169.904L68.4821 169.899C68.4809 169.895 68.4793 169.889 68.4773 169.882C68.4735 169.868 68.4683 169.848 68.4625 169.824C68.4509 169.774 68.4365 169.705 68.4243 169.622C68.4001 169.457 68.3833 169.227 68.4189 168.983C68.4547 168.737 68.545 168.465 68.7446 168.232C68.9468 167.995 69.2435 167.819 69.6536 167.738C69.8005 167.709 69.943 167.805 69.9718 167.952Z" fill="white"/>
<path d="M86.0462 110.807C86.0001 110.858 86.2061 111.549 84.4199 112.913C85.3225 114.094 86.1899 115.241 87.3201 114.168C88.4503 113.094 87.1303 111.674 86.0462 110.807Z" fill="#DF3636"/>
<path fill-rule="evenodd" clip-rule="evenodd" d="M91.6806 91.7211C91.6807 91.7212 91.6808 91.7212 91.5728 92.1131L91.6806 91.7211C91.897 91.7807 92.0244 92.0046 91.9648 92.2211C91.9052 92.4375 91.6814 92.5647 91.4649 92.5051M91.4649 92.5051L91.4612 92.5041L91.4484 92.5007C91.4369 92.4975 91.4194 92.4929 91.3962 92.4867C91.3499 92.4745 91.2808 92.4565 91.191 92.4339C91.0114 92.3887 90.7493 92.3249 90.4217 92.2517C89.7659 92.105 88.8492 91.9204 87.8061 91.7688C85.7055 91.4633 83.1479 91.3002 81.1744 91.8102C80.957 91.8664 80.7352 91.7357 80.679 91.5183C80.6229 91.3009 80.7536 91.0791 80.971 91.0229C83.1091 90.4704 85.8016 90.6556 87.9231 90.9641C88.9911 91.1194 89.9285 91.3082 90.5991 91.4581C90.9346 91.5332 91.2037 91.5986 91.3896 91.6454C91.4825 91.6688 91.5547 91.6876 91.6039 91.7006C91.6285 91.7071 91.6474 91.7121 91.6603 91.7156L91.6751 91.7196L91.6806 91.7211" fill="white"/>
<path fill-rule="evenodd" clip-rule="evenodd" d="M72.2692 100.244C72.4922 100.269 72.6525 100.471 72.627 100.694L72.223 100.648C72.627 100.694 72.627 100.694 72.627 100.694L72.6269 100.694L72.6268 100.695L72.6264 100.699L72.6252 100.709C72.624 100.718 72.6224 100.732 72.6202 100.749C72.6158 100.783 72.6091 100.832 72.5997 100.896C72.5811 101.023 72.5518 101.208 72.5092 101.439C72.4239 101.901 72.2848 102.551 72.0686 103.31C71.6372 104.824 70.8941 106.786 69.6461 108.54C69.516 108.723 69.2621 108.766 69.0792 108.636C68.8962 108.506 68.8533 108.252 68.9835 108.069C70.1586 106.417 70.8696 104.55 71.2866 103.087C71.4946 102.357 71.6282 101.733 71.7096 101.291C71.7503 101.071 71.7779 100.896 71.7952 100.778C71.8039 100.719 71.81 100.674 71.8138 100.644C71.8158 100.629 71.8171 100.618 71.818 100.611L71.8189 100.603L71.8191 100.602L71.8191 100.602L71.8191 100.602C71.8447 100.379 72.0461 100.218 72.2692 100.244Z" fill="white"/>
<path fill-rule="evenodd" clip-rule="evenodd" d="M96.0659 99.4934C96.2903 99.5004 96.4666 99.6879 96.4596 99.9123C96.4596 99.9123 96.4596 99.9122 96.4596 99.9123L96.4596 99.9147L96.4593 99.9245C96.4591 99.9335 96.4588 99.9474 96.4585 99.9659C96.458 100.003 96.4575 100.059 96.4577 100.132C96.4582 100.277 96.4615 100.489 96.4734 100.753C96.4973 101.281 96.555 102.014 96.6905 102.832C96.964 104.482 97.5439 106.411 98.7392 107.725C98.8903 107.891 98.8782 108.148 98.7121 108.299C98.5461 108.45 98.2889 108.438 98.1378 108.272C96.7826 106.783 96.1699 104.663 95.8884 102.965C95.7464 102.108 95.686 101.342 95.6611 100.789C95.6487 100.513 95.6451 100.289 95.6446 100.134C95.6443 100.056 95.6449 99.9956 95.6455 99.9538C95.6458 99.9329 95.6462 99.9168 95.6464 99.9056L95.6467 99.8925L95.6469 99.8888L95.6469 99.8873C95.6469 99.8872 95.6469 99.887 96.0521 99.8997L95.6469 99.8873C95.6539 99.6629 95.8415 99.4864 96.0659 99.4934ZM96.4596 99.9123C96.4596 99.9123 96.4596 99.9122 96.4596 99.9123V99.9123Z" fill="white"/>
<path fill-rule="evenodd" clip-rule="evenodd" d="M72.7446 163.649C72.7447 163.65 72.7449 163.65 72.515 163.985L72.7449 163.65C72.9301 163.777 72.9773 164.03 72.8503 164.215C72.7235 164.4 72.4708 164.447 72.2856 164.321C72.2856 164.321 72.2856 164.321 72.2855 164.321C72.2855 164.321 72.2855 164.321 72.2854 164.321C72.2854 164.32 72.2854 164.32 72.2854 164.32C72.2853 164.32 72.2852 164.32 72.2851 164.32L72.285 164.32L72.2801 164.317C72.2752 164.314 72.2673 164.308 72.2564 164.301C72.2345 164.287 72.2008 164.266 72.1561 164.239C72.0667 164.185 71.9338 164.11 71.7651 164.025C71.4266 163.855 70.9494 163.653 70.3928 163.518C69.2815 163.25 67.8882 163.257 66.6175 164.299C66.4439 164.442 66.1877 164.416 66.0453 164.243C65.9029 164.069 65.9283 163.813 66.1019 163.671C67.6338 162.414 69.3181 162.422 70.5838 162.728C71.2157 162.881 71.7519 163.109 72.1296 163.298C72.319 163.393 72.4699 163.479 72.5748 163.542C72.6273 163.574 72.6683 163.6 72.697 163.618C72.7113 163.627 72.7225 163.635 72.7305 163.64L72.7402 163.646L72.7431 163.648L72.7442 163.649L72.7446 163.649Z" fill="white"/>
<path fill-rule="evenodd" clip-rule="evenodd" d="M107.212 164.676C107.212 164.676 107.213 164.677 106.965 164.99L107.213 164.677C107.389 164.816 107.418 165.072 107.279 165.248C107.14 165.423 106.884 165.453 106.708 165.314C106.708 165.314 106.708 165.314 106.708 165.314C106.708 165.314 106.708 165.314 106.708 165.314L106.708 165.314L106.708 165.314L106.704 165.311C106.7 165.308 106.693 165.303 106.684 165.296C106.665 165.282 106.637 165.261 106.598 165.235C106.521 165.181 106.406 165.106 106.26 165.022C105.967 164.852 105.553 164.651 105.071 164.518C104.115 164.254 102.905 164.256 101.764 165.296C101.598 165.447 101.341 165.435 101.19 165.269C101.039 165.103 101.051 164.846 101.217 164.695C102.619 163.417 104.144 163.419 105.287 163.734C105.854 163.891 106.331 164.124 106.666 164.317C106.834 164.414 106.968 164.502 107.061 164.566C107.107 164.598 107.144 164.625 107.169 164.644C107.182 164.653 107.192 164.661 107.199 164.666L107.208 164.673L107.211 164.675L107.212 164.676L107.212 164.676Z" fill="white"/>
<path fill-rule="evenodd" clip-rule="evenodd" d="M114.849 120.061C115.073 120.074 115.245 120.266 115.232 120.49L114.826 120.467C115.232 120.49 115.232 120.49 115.232 120.49L115.231 120.495L115.23 120.508C115.23 120.519 115.229 120.535 115.227 120.557C115.225 120.6 115.22 120.664 115.215 120.746C115.203 120.91 115.185 121.15 115.159 121.451C115.107 122.052 115.024 122.9 114.899 123.889C114.651 125.863 114.234 128.412 113.562 130.676C113.498 130.891 113.272 131.014 113.057 130.95C112.841 130.886 112.719 130.66 112.783 130.445C113.436 128.242 113.846 125.744 114.093 123.788C114.216 122.811 114.298 121.974 114.349 121.381C114.374 121.084 114.392 120.849 114.403 120.688C114.409 120.608 114.413 120.546 114.416 120.505C114.417 120.484 114.418 120.468 114.419 120.458L114.42 120.446L114.42 120.443C114.433 120.219 114.625 120.048 114.849 120.061Z" fill="white"/>
<path fill-rule="evenodd" clip-rule="evenodd" d="M120.659 100.447C120.764 100.646 120.688 100.892 120.49 100.997L113.413 104.737C113.215 104.842 112.969 104.766 112.864 104.567C112.759 104.369 112.835 104.123 113.033 104.018L120.11 100.278C120.309 100.173 120.555 100.249 120.659 100.447Z" fill="#5405BE"/>
<path fill-rule="evenodd" clip-rule="evenodd" d="M142.359 93.1363C142.475 93.3287 142.413 93.5785 142.221 93.6943C140.029 95.0143 137.481 97.1182 135.469 98.9052C134.466 99.7963 133.601 100.604 132.987 101.189C132.68 101.482 132.436 101.718 132.268 101.881C132.185 101.963 132.12 102.026 132.077 102.069C132.055 102.091 132.039 102.107 132.028 102.118L132.012 102.134C132.012 102.134 132.012 102.134 131.725 101.846C131.438 101.558 131.438 101.558 131.438 101.558L131.455 101.541C131.467 101.529 131.484 101.512 131.506 101.491C131.55 101.447 131.616 101.382 131.7 101.3C131.87 101.134 132.116 100.895 132.426 100.6C133.045 100.01 133.917 99.196 134.929 98.2972C136.947 96.5045 139.542 94.3585 141.801 92.9978C141.993 92.882 142.243 92.944 142.359 93.1363ZM131.437 102.133C131.278 101.974 131.279 101.716 131.438 101.558L131.725 101.846L132.012 102.134C131.853 102.292 131.596 102.292 131.437 102.133Z" fill="#5405BE"/>
<path fill-rule="evenodd" clip-rule="evenodd" d="M138.097 115.6C138.305 115.514 138.543 115.613 138.628 115.821L149.283 141.659C149.368 141.866 149.269 142.104 149.062 142.19C148.854 142.275 148.617 142.176 148.531 141.969L137.877 116.131C137.791 115.923 137.89 115.685 138.097 115.6Z" fill="#5405BE"/>
<path fill-rule="evenodd" clip-rule="evenodd" d="M139.901 114.634C140.125 114.634 140.307 114.816 140.307 115.04V116.832C140.307 117.056 140.125 117.238 139.901 117.238C139.676 117.238 139.494 117.056 139.494 116.832V115.04C139.494 114.816 139.676 114.634 139.901 114.634Z" fill="#5405BE"/>
<path fill-rule="evenodd" clip-rule="evenodd" d="M141.536 115.567C141.739 115.662 141.827 115.904 141.732 116.108L140.935 117.807C140.84 118.01 140.598 118.098 140.394 118.003C140.191 117.907 140.103 117.665 140.199 117.462L140.995 115.762C141.091 115.559 141.333 115.472 141.536 115.567Z" fill="#5405BE"/>
<path fill-rule="evenodd" clip-rule="evenodd" d="M119.412 129.655C119.512 129.454 119.756 129.372 119.957 129.473L134.328 136.642C134.529 136.742 134.611 136.986 134.51 137.187C134.41 137.388 134.166 137.469 133.965 137.369L119.594 130.2C119.393 130.1 119.312 129.856 119.412 129.655Z" fill="#5405BE"/>
<path fill-rule="evenodd" clip-rule="evenodd" d="M132 163.149C132.197 163.043 132.444 163.118 132.55 163.316L140.798 178.692L147.348 177.715C147.57 177.682 147.777 177.835 147.81 178.057C147.843 178.279 147.69 178.486 147.468 178.519L140.635 179.538C140.465 179.563 140.298 179.479 140.217 179.328L131.834 163.7C131.727 163.502 131.802 163.256 132 163.149Z" fill="#5405BE"/>
<path d="M143.048 59.8886L136.161 62.5801C135.988 62.6477 135.845 62.7737 135.756 62.9362C135.667 63.0986 135.637 63.2872 135.673 63.4691L139.985 85.0113C140.008 85.1224 140.054 85.2273 140.121 85.319C140.187 85.4107 140.273 85.487 140.371 85.5428C140.47 85.5986 140.58 85.6325 140.693 85.6423C140.806 85.6521 140.919 85.6375 141.026 85.5995L147.835 83.1601C148.012 83.0968 148.161 82.9721 148.254 82.8086C148.348 82.645 148.38 82.4534 148.344 82.2684L144.102 60.4714C144.08 60.3589 144.033 60.2527 143.965 60.1601C143.898 60.0675 143.811 59.9908 143.71 59.9353C143.61 59.8799 143.499 59.8469 143.384 59.8389C143.27 59.8308 143.155 59.8478 143.048 59.8886Z" fill="black"/>
<path d="M145.991 68.4134C145.922 68.2826 145.826 68.1679 145.709 68.077C145.592 67.986 145.457 67.9209 145.313 67.8858C145.169 67.8507 145.02 67.8465 144.874 67.8735C144.728 67.9004 144.59 67.9579 144.468 68.0421C143.297 68.8552 141.509 70.2348 141.527 71.2295C141.557 72.7067 143.295 72.9019 143.295 72.9019C143.295 72.9019 142.614 74.7991 144.23 74.8778C144.23 74.8778 144.091 76.8292 145.455 76.7452C145.455 76.7452 145.401 78.8891 147.016 78.7211L149.968 75.9077L145.991 68.4134Z" fill="#FF9C70"/>
<path fill-rule="evenodd" clip-rule="evenodd" d="M148.23 73.8764C148.4 74.0235 148.418 74.2803 148.271 74.4499L145.528 77.6102C145.381 77.7798 145.124 77.798 144.955 77.6508C144.785 77.5036 144.767 77.2469 144.914 77.0773L147.657 73.9169C147.804 73.7474 148.061 73.7292 148.23 73.8764Z" fill="#E47452"/>
<path fill-rule="evenodd" clip-rule="evenodd" d="M147.098 71.4835C147.275 71.6221 147.306 71.8776 147.167 72.0543L144.359 75.6375C144.221 75.8142 143.965 75.8452 143.789 75.7067C143.612 75.5682 143.581 75.3126 143.719 75.1359L146.527 71.5528C146.666 71.376 146.922 71.345 147.098 71.4835Z" fill="#E47452"/>
<path fill-rule="evenodd" clip-rule="evenodd" d="M145.257 70.8648C145.414 70.7215 145.434 70.4794 145.3 70.3113C145.16 70.136 144.904 70.1075 144.728 70.2478C144.687 70.2811 144.647 70.327 144.63 70.347C144.629 70.3477 144.629 70.3484 144.628 70.349C144.601 70.3798 144.569 70.4186 144.533 70.4626C144.461 70.5512 144.368 70.6699 144.261 70.8069C144.047 71.0814 143.775 71.4362 143.508 71.7866C143.241 72.1371 142.978 72.4842 142.782 72.7436C142.684 72.8732 142.603 72.9811 142.546 73.0564L142.457 73.1748C142.457 73.1748 142.457 73.1749 142.782 73.4193L142.457 73.1748C142.322 73.3542 142.358 73.6092 142.537 73.7442C142.717 73.8792 142.971 73.8432 143.106 73.6637L142.782 73.4193C143.106 73.6637 143.106 73.6637 143.106 73.6637L143.195 73.5458C143.252 73.4706 143.333 73.3631 143.431 73.2337C143.626 72.9749 143.888 72.6287 144.155 72.2793C144.421 71.9297 144.691 71.5778 144.902 71.307C145.008 71.1714 145.098 71.0577 145.164 70.9754C145.198 70.934 145.224 70.9027 145.243 70.8813C145.25 70.8732 145.254 70.8679 145.257 70.8648Z" fill="#E47452"/>
<path fill-rule="evenodd" clip-rule="evenodd" d="M106.688 81.1475C106.906 81.0941 107.127 81.2276 107.18 81.4457L106.785 81.5424C107.18 81.4457 107.18 81.4459 107.18 81.4461L107.181 81.4491L107.183 81.4572C107.184 81.4641 107.187 81.4741 107.19 81.4871C107.196 81.5131 107.205 81.5509 107.215 81.5999C107.237 81.6979 107.267 81.8405 107.302 82.0216C107.373 82.3836 107.462 82.9002 107.541 83.5219C107.698 84.7629 107.813 86.4353 107.636 88.1403C107.461 89.8411 106.992 91.6101 105.951 93.0122C104.899 94.4303 103.286 95.4391 100.906 95.6431C96.19 96.0472 93.0211 93.6867 91.053 91.2609C90.0702 90.0496 89.3806 88.816 88.9367 87.8867C88.7144 87.4214 88.553 87.0308 88.4467 86.755C88.3935 86.6171 88.3541 86.5079 88.3277 86.4322C88.3145 86.3944 88.3045 86.3649 88.2977 86.3445C88.2943 86.3343 88.2917 86.3264 88.2899 86.3208L88.2877 86.3141L88.2871 86.3121L88.2869 86.3115C88.2868 86.3112 88.2867 86.311 88.6742 86.188L88.2867 86.311C88.2188 86.097 88.3372 85.8684 88.5512 85.8005C88.7652 85.7326 88.9937 85.8509 89.0617 86.0648C89.0617 86.0647 89.0617 86.0649 89.0617 86.0648L89.0619 86.0655L89.0632 86.0695C89.0644 86.0733 89.0665 86.0794 89.0692 86.0878C89.0748 86.1046 89.0835 86.1302 89.0953 86.1642C89.1191 86.2321 89.1555 86.3332 89.2054 86.4625C89.3051 86.7212 89.4583 87.0923 89.6704 87.5362C90.0951 88.4253 90.7527 89.6001 91.6844 90.7486C93.5454 93.0423 96.475 95.2067 100.836 94.833C102.995 94.648 104.391 93.7504 105.298 92.5276C106.217 91.2889 106.66 89.6826 106.828 88.0567C106.995 86.4351 106.887 84.8294 106.734 83.624C106.658 83.0225 106.571 82.5238 106.504 82.1763C106.47 82.0027 106.442 81.867 106.421 81.7754C106.411 81.7296 106.403 81.6948 106.398 81.6718C106.395 81.6604 106.393 81.6518 106.392 81.6463L106.391 81.6404L106.39 81.6392C106.337 81.4211 106.47 81.2009 106.688 81.1475Z" fill="#5405BE"/>
</svg>
