<svg width="40" height="40" viewBox="0 0 40 40" fill="none" xmlns="http://www.w3.org/2000/svg">
<path d="M28.4739 19.8597C32.4763 18.2985 30.804 15.5293 30.0082 14.5882C29.6839 14.2047 29.2286 13.7308 28.8077 13.4185M26.5 14.3023C26.5 14.3023 25.8366 18.7539 25.8708 21.4985C25.9238 25.7561 26.1885 32 27.1434 32C28.0984 32 28.4545 25.7579 28.5 21.4985C28.5293 18.753 28.1227 15.0488 27.911 14.3023M25.8708 20.7059C24.9159 20.7059 23.245 21.1599 22.5 21.9985C21.4871 23.1386 21.5 23.9985 22.0065 25.8822C22.4464 27.5185 22.2079 28.8638 21.0515 30.1175C20.2102 31.0297 19.4069 31.2579 18.1868 31.5293C14.402 32.3712 11.8081 29.3012 10.07 25.8822C8.6376 23.0648 8.35901 18.39 11.0249 15.0587C13.1944 12.3477 16.7544 11.4338 19.1417 11.294C20.5463 11.2118 22.0303 11.272 23.4603 11.4968C23.9848 11.5793 24.6822 11.7315 25.1856 11.8594M27.1434 8L25.4018 11.4332C25.0172 12.1912 25.1671 13.111 25.7725 13.7076V13.7076C26.5329 14.457 27.754 14.457 28.5143 13.7076V13.7076C29.1197 13.111 29.2697 12.1912 28.8851 11.4332L27.1434 8ZM21.3961 16.4705V16.4705C22.1758 16.4705 22.8106 15.8384 22.8106 15.0588V15.0588C22.8106 14.2791 22.1758 13.647 21.3961 13.647V13.647C20.6164 13.647 19.9816 14.2791 19.9816 15.0588V15.0588C19.9816 15.8385 20.6164 16.4705 21.3961 16.4705ZM15.626 17.8823V17.8823C16.3848 17.8823 17 17.2671 17 16.5083V16.4327C17 15.6739 16.3849 15.0588 15.6261 15.0588V15.0588C14.8672 15.0587 14.252 15.6739 14.252 16.4327V16.5083C14.252 17.2671 14.8672 17.8823 15.626 17.8823ZM13.3864 23.322V23.322C14.1521 23.322 14.7728 22.7013 14.7728 21.9356V21.8849C14.7728 21.1192 14.1521 20.4985 13.3864 20.4985V20.4985C12.6207 20.4985 12 21.1192 12 21.8849V21.9356C12 22.7013 12.6207 23.322 13.3864 23.322ZM16.6035 28.2352V28.2352C17.3748 28.2352 18 27.61 18 26.8387V26.8082C18 26.0369 17.3748 25.4117 16.6035 25.4117V25.4117C15.8322 25.4117 15.207 26.0369 15.207 26.8082V26.8387C15.207 27.61 15.8322 28.2352 16.6035 28.2352Z" stroke="#667C98" stroke-width="1.5" stroke-linecap="round" stroke-linejoin="round"/>
<rect x="0.75" y="0.75" width="38.5" height="38.5" rx="19.25" stroke="#667C98" stroke-width="1.5"/>
</svg>
