<svg width="24" height="24" viewBox="0 0 24 24" fill="none" xmlns="http://www.w3.org/2000/svg">
<path d="M12 24C18.6 24 24 18.6 24 12C24 5.4 18.6 0 12 0C5.4 0 0 5.4 0 12C0 18.6 5.4 24 12 24Z" fill="#EADAFF"/>
<path d="M13.2876 6.25001L8.15634 11.6813C7.96259 11.8875 7.77509 12.2938 7.73759 12.575L7.50634 14.6C7.42509 15.3313 7.95009 15.8313 8.67509 15.7063L10.6876 15.3625C10.9688 15.3125 11.3626 15.1063 11.5563 14.8938L16.6876 9.46251C17.5751 8.52501 17.9751 7.45626 16.5938 6.15001C15.2188 4.85626 14.1751 5.31251 13.2876 6.25001Z" stroke="#667C98" stroke-width="1.2" stroke-miterlimit="10" stroke-linecap="round" stroke-linejoin="round"/>
<path d="M12.4312 7.15625C12.6999 8.88125 14.0999 10.2 15.8374 10.375" stroke="#667C98" stroke-width="1.2" stroke-miterlimit="10" stroke-linecap="round" stroke-linejoin="round"/>
<path d="M6.875 17.75H18.125" stroke="#667C98" stroke-width="1.2" stroke-miterlimit="10" stroke-linecap="round" stroke-linejoin="round"/>
</svg>
