<svg width="24" height="24" viewBox="0 0 24 24" fill="none" xmlns="http://www.w3.org/2000/svg">
<path d="M14.0412 22.75H9.25118C7.63118 22.75 6.16118 22.12 5.10118 20.96C4.04118 19.81 3.53118 18.29 3.67118 16.68C4.01118 12.58 7.63118 9.25 11.7512 9.25C15.5412 9.25 19.1212 12.29 19.7512 16.02C20.0512 17.8 19.6112 19.48 18.5312 20.76C17.4312 22.04 15.8412 22.75 14.0412 22.75ZM11.7412 10.75C8.39118 10.75 5.44118 13.47 5.16118 16.81C5.06118 18 5.43118 19.11 6.20118 19.95C6.97118 20.79 8.05118 21.25 9.24118 21.25H14.0312C15.3812 21.25 16.5712 20.73 17.3612 19.8C18.1512 18.87 18.4712 17.61 18.2512 16.27C17.7512 13.23 14.8312 10.75 11.7412 10.75Z" fill="white"/>
<path d="M10.4688 8.25C8.67875 8.25 7.21875 6.79 7.21875 5C7.21875 3.21 8.67875 1.75 10.4688 1.75C12.2588 1.75 13.7188 3.21 13.7188 5C13.7188 6.79 12.2688 8.25 10.4688 8.25ZM10.4688 3.25C9.50875 3.25 8.71875 4.04 8.71875 5C8.71875 5.96 9.50875 6.75 10.4688 6.75C11.4288 6.75 12.2188 5.96 12.2188 5C12.2188 4.04 11.4388 3.25 10.4688 3.25Z" fill="white"/>
<path d="M17.2969 9.44922C15.7769 9.44922 14.5469 8.21922 14.5469 6.69922C14.5469 5.17922 15.7769 3.94922 17.2969 3.94922C18.8169 3.94922 20.0469 5.17922 20.0469 6.69922C20.0469 8.21922 18.8169 9.44922 17.2969 9.44922ZM17.2969 5.44922C16.6069 5.44922 16.0469 6.00922 16.0469 6.69922C16.0469 7.38922 16.6069 7.94922 17.2969 7.94922C17.9869 7.94922 18.5469 7.38922 18.5469 6.69922C18.5469 6.00922 17.9869 5.44922 17.2969 5.44922Z" fill="white"/>
<path d="M21 13.4492C19.76 13.4492 18.75 12.4392 18.75 11.1992C18.75 9.95922 19.76 8.94922 21 8.94922C22.24 8.94922 23.25 9.95922 23.25 11.1992C23.25 12.4392 22.24 13.4492 21 13.4492ZM21 10.4492C20.59 10.4492 20.25 10.7892 20.25 11.1992C20.25 11.6092 20.59 11.9492 21 11.9492C21.41 11.9492 21.75 11.6092 21.75 11.1992C21.75 10.7892 21.41 10.4492 21 10.4492Z" fill="white"/>
<path d="M3.96875 11.4492C2.44875 11.4492 1.21875 10.2192 1.21875 8.69922C1.21875 7.17922 2.44875 5.94922 3.96875 5.94922C5.48875 5.94922 6.71875 7.17922 6.71875 8.69922C6.71875 10.2192 5.48875 11.4492 3.96875 11.4492ZM3.96875 7.44922C3.27875 7.44922 2.71875 8.00922 2.71875 8.69922C2.71875 9.38922 3.27875 9.94922 3.96875 9.94922C4.65875 9.94922 5.21875 9.38922 5.21875 8.69922C5.21875 8.00922 4.65875 7.44922 3.96875 7.44922Z" fill="white"/>
</svg>
