<svg width="20" height="21" viewBox="0 0 20 21" fill="none" xmlns="http://www.w3.org/2000/svg">
<path d="M12.4998 18.9599H7.49984C2.97484 18.9599 1.0415 17.0265 1.0415 12.5015V7.50153C1.0415 2.97653 2.97484 1.0432 7.49984 1.0432H9.1665C9.50817 1.0432 9.7915 1.32653 9.7915 1.6682C9.7915 2.00986 9.50817 2.2932 9.1665 2.2932H7.49984C3.65817 2.2932 2.2915 3.65986 2.2915 7.50153V12.5015C2.2915 16.3432 3.65817 17.7099 7.49984 17.7099H12.4998C16.3415 17.7099 17.7082 16.3432 17.7082 12.5015V10.8349C17.7082 10.4932 17.9915 10.2099 18.3332 10.2099C18.6748 10.2099 18.9582 10.4932 18.9582 10.8349V12.5015C18.9582 17.0265 17.0248 18.9599 12.4998 18.9599Z" fill="#667C98"/>
<path d="M7.08311 14.7432C6.57478 14.7432 6.10811 14.5599 5.76645 14.2265C5.35811 13.8182 5.18311 13.2265 5.27478 12.6015L5.63311 10.0932C5.69978 9.60986 6.01645 8.98486 6.35811 8.6432L12.9248 2.07653C14.5831 0.418196 16.2664 0.418196 17.9248 2.07653C18.8331 2.98486 19.2414 3.90986 19.1581 4.83486C19.0831 5.58486 18.6831 6.3182 17.9248 7.0682L11.3581 13.6349C11.0164 13.9765 10.3914 14.2932 9.90811 14.3599L7.39978 14.7182C7.29145 14.7432 7.18311 14.7432 7.08311 14.7432ZM13.8081 2.95986L7.24145 9.52653C7.08311 9.68486 6.89978 10.0515 6.86645 10.2682L6.50811 12.7765C6.47478 13.0182 6.52478 13.2182 6.64978 13.3432C6.77478 13.4682 6.97478 13.5182 7.21645 13.4849L9.72478 13.1265C9.94145 13.0932 10.3164 12.9099 10.4664 12.7515L17.0331 6.18486C17.5748 5.6432 17.8581 5.15986 17.8998 4.70986C17.9498 4.1682 17.6664 3.5932 17.0331 2.95153C15.6998 1.6182 14.7831 1.9932 13.8081 2.95986Z" fill="#667C98"/>
<path d="M16.5418 8.19319C16.4835 8.19319 16.4251 8.18486 16.3751 8.16819C14.1835 7.55153 12.4418 5.80986 11.8251 3.61819C11.7335 3.28486 11.9251 2.94319 12.2585 2.84319C12.5918 2.75153 12.9335 2.94319 13.0251 3.27653C13.5251 5.05153 14.9335 6.45986 16.7085 6.95986C17.0418 7.05153 17.2335 7.40153 17.1418 7.73486C17.0668 8.01819 16.8168 8.19319 16.5418 8.19319Z" fill="#667C98"/>
</svg>
