<svg width="315" height="250" viewBox="0 0 315 250" fill="none" xmlns="http://www.w3.org/2000/svg">
<path d="M61.8038 220.296C61.8038 220.296 -11.497 190.562 1.55749 121.651C14.612 52.7393 87.6237 73.3022 146.008 56.7466C204.391 40.1909 202.976 3 259.157 3C315.337 3 343.381 117.767 274.015 220.296H61.8038Z" fill="#EADAFF"/>
<path d="M260.41 222.016H55.0908C54.8623 222.016 54.6431 221.926 54.4811 221.764C54.3192 221.603 54.2277 221.384 54.2268 221.156C54.2277 220.927 54.3192 220.708 54.4811 220.547C54.6431 220.385 54.8623 220.295 55.0908 220.295H260.41C260.638 220.295 260.857 220.386 261.019 220.547C261.18 220.708 261.271 220.927 261.271 221.156C261.271 221.384 261.18 221.603 261.019 221.764C260.857 221.926 260.638 222.016 260.41 222.016Z" fill="#47243B"/>
<path d="M121.74 51.2784C125.562 51.2302 137.439 52.7966 139.687 62.8939C141.935 72.9912 139.343 70.5056 138.692 69.9065C137.542 68.8738 134.141 64.0541 128.856 63.3655C123.572 62.677 117.647 64.3983 117.647 64.3983C117.647 64.3983 120.274 71.7725 114.521 75.8107L113.316 75.9656C113.316 75.9656 112.452 73.2597 110.335 71.9893C108.218 70.719 107.581 72.5987 107.219 74.2787C106.858 75.9587 104.672 79.8558 111.223 82.035C111.223 82.035 112.542 86.7893 117.162 91.6744C117.162 91.6744 119.73 94.5249 117.12 98.9039C114.511 103.283 99.356 112.802 88.7011 103.817C78.0461 94.8313 84.9383 90.5487 95.1767 75.2943C105.415 60.0399 111.953 51.3955 121.74 51.2784Z" fill="#002454"/>
<path d="M193.244 175.51L68.2041 184.22L193.244 195.539V175.51Z" fill="#002454"/>
<path d="M72.893 223.577L68.2041 184.221L209.201 192.242L213.298 223.577H72.893Z" fill="#335076"/>
<path d="M245.362 220.298H179.738L187.347 209.629L200.663 201.783L204.77 197.741L207.159 200.041L212.874 189.3L234.308 188.729L240.845 203.091L240.37 208.204L245.362 213.553V220.298Z" fill="#333333"/>
<path d="M133.635 102.048C133.635 102.048 123.603 102.533 125.094 94.7083L116.394 92.0195C116.394 92.0195 116.374 99.9376 108.404 102.048C108.404 102.048 112.879 128.064 127.896 125.007C142.913 121.95 133.635 102.048 133.635 102.048Z" fill="#FF9C70"/>
<path d="M125.121 97.7558C125.121 97.7558 119.083 98.5201 115.723 95.3908C115.723 95.3908 116.962 92.3543 116.167 89.5176L125.059 94.0516C125.059 94.0516 124.756 96.4063 125.121 97.7558Z" fill="#E47452"/>
<path d="M138.858 68.9923C139.329 71.3471 137.863 84.3087 135.56 88.8426C133.256 93.3766 131.573 97.6386 122.822 96.1617C113.565 94.5987 111.217 82.0193 111.217 82.0193C111.217 82.0193 106.09 80.8178 106.772 76.4732C107.454 72.1286 108.445 70.8755 110.328 71.9737C112.212 73.0719 113.31 75.9499 113.31 75.9499L114.515 75.795C114.515 75.795 119.214 72.5899 117.641 64.3826C117.641 64.3826 126.905 61.1982 131.824 64.183C136.744 67.1677 138.858 68.9923 138.858 68.9923Z" fill="#FF9C70"/>
<path d="M255.229 220.296C255.108 219.735 252.85 211.531 252.85 211.531C252.85 211.531 246.192 205.706 245.838 205.231C245.483 204.756 242.984 192.362 242.984 192.362L238.229 188.73L231.561 189.966L234.9 196.332L237.513 201.086L236.921 208.577L243.393 217.256V220.313L255.229 220.296Z" fill="black"/>
<path d="M151.003 131.476L153.465 136.702C153.465 136.702 166.323 118.749 171.366 111.812C172.234 110.617 172.652 109.154 172.547 107.681C172.382 105.271 172.585 99.5424 173.869 96.1101C174.819 93.5694 177.656 91.4866 177.656 91.4866C177.656 91.4866 180.479 88.8771 182.183 88.8392C183.887 88.8013 184.648 89.5966 184.648 89.5966C184.648 89.5966 187.337 89.8616 187.185 92.1751C187.185 92.1751 190.101 93.7278 189.42 95.4319C189.42 95.4319 191.73 97.4011 190.328 99.7111C188.927 102.021 182.459 119.028 180.631 121.19C178.802 123.352 164.853 143.632 164.853 143.632L148.115 151.729L142.197 135.26L151.003 131.476Z" fill="#FF9C70"/>
<path d="M204.33 184.451C203.727 185.081 203.187 187.587 197.152 187.511C191.117 187.436 191.155 185.036 191.155 185.036C190.768 185.067 190.406 185.239 190.138 185.519C189.87 185.798 189.713 186.167 189.698 186.554C189.623 188.493 189.32 192.011 188.177 194.28C187.785 195.014 187.535 195.815 187.44 196.641H228.91C228.91 196.641 230.032 193.932 226.975 192.51C223.918 191.088 216.909 189.088 213.398 188.379C206.533 186.964 205.455 183.274 204.33 184.451Z" fill="black"/>
<path d="M228.466 196.639H187.66C187.073 196.639 186.597 197.115 186.597 197.702C186.597 198.29 187.073 198.766 187.66 198.766H228.466C229.054 198.766 229.53 198.29 229.53 197.702C229.53 197.115 229.054 196.639 228.466 196.639Z" fill="#666666"/>
<path d="M201.507 174.236C201.638 174.498 203.882 185.088 203.882 185.088C203.882 185.088 203.596 188.53 198.57 188.465C193.544 188.399 191.509 185.859 191.509 185.859L189.499 179.586L201.507 174.236Z" fill="#FF9C70"/>
<path d="M196.563 233.04C196.057 233.753 195.874 236.311 189.908 237.12C183.942 237.929 183.615 235.55 183.615 235.55C183.236 235.637 182.902 235.861 182.677 236.178C182.452 236.496 182.352 236.885 182.396 237.271C182.606 239.199 182.823 242.725 182.021 245.138C181.743 245.921 181.614 246.748 181.639 247.579L222.661 241.506C222.661 241.506 223.374 238.662 220.141 237.695C216.909 236.727 209.683 235.784 206.106 235.588C199.11 235.202 197.502 231.712 196.563 233.04Z" fill="black"/>
<path d="M222.222 241.57L181.857 247.545C181.275 247.631 180.874 248.172 180.96 248.753C181.046 249.335 181.587 249.736 182.168 249.65L222.534 243.675C223.115 243.589 223.516 243.048 223.43 242.467C223.344 241.886 222.804 241.484 222.222 241.57Z" fill="#666666"/>
<path d="M193.562 226.455C193.727 226.696 196.216 233.736 196.216 233.736C196.216 233.736 196.433 237.179 191.455 237.867C186.476 238.556 184.084 236.325 184.084 236.325L180.424 228.879L193.562 226.455Z" fill="#FF9C70"/>
<path d="M204.684 172.821L188.504 183.125L178.451 158.861L164.87 174.807C164.87 174.807 174.165 178.223 176.086 182.254C178.007 186.285 196.704 227.728 196.704 227.728L177.924 230.53C177.924 230.53 160.05 196.104 153.826 192.417C147.601 188.729 130.956 189.177 130.956 189.177C130.956 189.177 102.293 187.38 95.6313 182.216C88.9698 177.052 103.126 172.232 103.126 172.232C103.126 172.232 113.109 170.067 119.943 167.413C126.777 164.758 129.411 161.305 134.13 159.236C138.85 157.167 145.643 152.943 149.622 149.628C153.602 146.313 173.552 123.629 180.634 121.226C187.715 118.823 193.592 122.469 195.499 133.399C197.406 144.33 204.684 172.821 204.684 172.821Z" fill="#DDAC13"/>
<path d="M148.001 150.889L143.181 135.59L152.17 130.842C152.17 130.842 148.383 117.833 145.075 110.104C141.766 102.375 133.642 102.062 133.642 102.062C133.642 102.062 141.363 121.282 127.486 123.967C113.609 126.653 108.404 102.048 108.404 102.048C108.404 102.048 97.0429 101.576 93.8481 109.698C90.6533 117.819 87.2727 135.48 87.1178 135.951C86.9629 136.423 95.4731 141.628 95.4731 141.628L110.535 172.536C110.535 172.536 127.342 164.718 131.586 160.539C132.643 159.929 141.019 155.977 148.001 150.889Z" fill="#FF6961"/>
<path d="M143.55 123.996C143.55 123.996 149.516 136.799 134.599 136.434" stroke="white" stroke-linecap="round" stroke-linejoin="round"/>
<path d="M115.678 117.598C115.678 117.598 118.112 133.31 131.838 123.636" stroke="white" stroke-linecap="round" stroke-linejoin="round"/>
<path d="M96.1233 36.5281C91.7202 40.2565 94.1852 51.4692 111.977 53.1423C111.977 53.1423 106.992 27.3363 96.1233 36.5281Z" fill="#002454"/>
<path d="M228.242 220.296L204.767 197.74C204.767 197.74 203.51 201.527 208.981 207.965C214.451 214.403 220.038 220.296 220.038 220.296H228.242Z" fill="black"/>
<path d="M178.445 158.862L177.205 155.891L156.271 170.298L164.877 174.808L178.445 158.862Z" fill="#C79702"/>
<path d="M94.4369 177.566C94.4369 177.566 124.364 184.854 132.199 186.08C140.035 187.306 149.502 190.556 152.167 191.619C152.167 191.619 145.605 189.705 140.51 189.45C135.415 189.196 132.065 189.254 130.956 189.178C129.848 189.103 111.991 187.695 105.512 185.832C99.0328 183.97 91.7241 182.169 94.4369 177.566Z" fill="#C79702"/>
<path d="M127.896 71.794C127.896 71.794 124.036 68.5648 121.981 68.4512" stroke="#47243B" stroke-linecap="round" stroke-linejoin="round"/>
<path d="M137.308 73.9105C137.308 73.9105 134.637 71.962 132.685 72.7951" stroke="#47243B" stroke-linecap="round" stroke-linejoin="round"/>
<path d="M137.308 78.313C137.308 78.313 135.638 75.5864 133.8 76.9773" stroke="#47243B" stroke-linecap="round" stroke-linejoin="round"/>
<path d="M124.939 74.6348C124.939 74.6348 123.771 72.0322 120.807 73.2578" stroke="#47243B" stroke-linecap="round" stroke-linejoin="round"/>
<path d="M129.121 82.5465H132.13L130.96 72.9277" stroke="#E47452" stroke-linecap="round" stroke-linejoin="round"/>
<path d="M127.562 86.6684C127.562 86.6684 123.159 85.6081 123.272 82.0449" stroke="#47243B" stroke-linecap="round" stroke-linejoin="round"/>
<path d="M109.784 128.131L110.373 135.577" stroke="#5405BE" stroke-linecap="round" stroke-linejoin="round"/>
<path d="M109.426 81.9052C109.989 81.9052 110.445 81.449 110.445 80.8862C110.445 80.3234 109.989 79.8672 109.426 79.8672C108.863 79.8672 108.407 80.3234 108.407 80.8862C108.407 81.449 108.863 81.9052 109.426 81.9052Z" fill="#219653"/>
<path d="M110.82 74.914C110.82 74.914 109.677 73.7056 109.423 74.914C109.168 76.1224 109.233 78.0123 110.111 78.663" stroke="#E47452" stroke-linecap="round" stroke-linejoin="round"/>
<path d="M88.7391 184.909C88.5946 184.909 80.3666 186.331 78.1668 186.066C75.9669 185.801 72.359 184.448 74.311 182.878C76.2629 181.308 83.978 177.683 86.0711 177.37C87.1576 177.178 88.2561 177.063 89.3588 177.025L88.7391 184.909Z" fill="#FF9C70"/>
<path d="M73.6404 184.476L79.307 181.904" stroke="#E47452" stroke-linecap="round" stroke-linejoin="round"/>
<path d="M75.9258 185.591L79.3066 184.162" stroke="#E47452" stroke-linecap="round" stroke-linejoin="round"/>
<path d="M79.9258 186.098C80.3079 186.067 83.6955 184.418 83.6955 184.418" stroke="#E47452" stroke-linecap="round" stroke-linejoin="round"/>
<path d="M152.167 130.824L143.178 135.575" stroke="#5405BE" stroke-linecap="round" stroke-linejoin="round"/>
<path d="M166.677 132.361C166.677 132.361 174.089 124.969 179.742 121.564" stroke="#5405BE" stroke-linecap="round" stroke-linejoin="round"/>
<path d="M188.5 183.127L174.967 150.309" stroke="#5405BE" stroke-linecap="round" stroke-linejoin="round"/>
<path d="M177.064 149.119V151.395" stroke="#5405BE" stroke-linecap="round" stroke-linejoin="round"/>
<path d="M178.919 150.256L177.907 152.414" stroke="#5405BE" stroke-linecap="round" stroke-linejoin="round"/>
<path d="M169.752 177.018L151.499 167.912" stroke="#5405BE" stroke-linecap="round" stroke-linejoin="round"/>
<path d="M167.27 210.682L177.918 230.532L186.596 229.238" stroke="#5405BE" stroke-linecap="round" stroke-linejoin="round"/>
<path d="M181.057 79.0696L172.309 82.4882C172.09 82.574 171.908 82.7341 171.795 82.9405C171.682 83.1468 171.644 83.3863 171.69 83.6173L177.167 110.979C177.196 111.121 177.254 111.254 177.339 111.37C177.424 111.487 177.532 111.584 177.657 111.655C177.783 111.725 177.922 111.768 178.065 111.781C178.209 111.793 178.353 111.775 178.489 111.727L187.137 108.628C187.362 108.548 187.551 108.389 187.67 108.182C187.789 107.974 187.829 107.73 187.784 107.496L182.396 79.8098C182.368 79.6669 182.308 79.532 182.222 79.4144C182.137 79.2968 182.026 79.1994 181.898 79.1289C181.771 79.0585 181.63 79.0166 181.484 79.0064C181.339 78.9961 181.193 79.0177 181.057 79.0696Z" fill="black"/>
<path d="M184.8 89.8956C184.711 89.7294 184.589 89.5837 184.441 89.4682C184.292 89.3527 184.121 89.27 183.938 89.2254C183.755 89.1808 183.565 89.1755 183.38 89.2097C183.195 89.244 183.019 89.3169 182.865 89.4239C181.377 90.4567 179.105 92.209 179.13 93.4725C179.167 95.3487 181.374 95.5966 181.374 95.5966C181.374 95.5966 180.51 98.0065 182.562 98.1063C182.562 98.1063 182.386 100.585 184.118 100.478C184.118 100.478 184.049 103.201 186.101 102.988L189.85 99.4145L184.8 89.8956Z" fill="#FF9C70"/>
<path d="M183.818 101.239L187.302 97.2246" stroke="#E47452" stroke-linecap="round" stroke-linejoin="round"/>
<path d="M182.318 98.7543L185.884 94.2031" stroke="#E47452" stroke-linecap="round" stroke-linejoin="round"/>
<path d="M183.515 92.6289C183.343 92.7666 180.72 96.254 180.72 96.254" stroke="#E47452" stroke-linecap="round" stroke-linejoin="round"/>
<path d="M134.998 106.572C134.998 106.572 139.015 122.98 127.486 123.968C115.957 124.956 111.994 112.473 111.994 112.473" stroke="#5405BE" stroke-linecap="round" stroke-linejoin="round"/>
<path d="M88.7463 138.496C88.7463 138.496 84.1229 147.85 80.8558 138.496C77.5887 129.142 81.6992 121.737 84.801 119.906C87.445 118.336 91.4487 118.439 93.0254 122.271C93.0254 122.271 103.622 116.074 115.678 120.016C115.678 120.016 117.031 113.475 122.667 114.043C128.302 114.611 134.499 130.385 131.342 137.484C128.185 144.582 123.231 141.429 121.878 134.781C121.878 134.781 118.498 146.614 115.117 148.979C115.117 148.979 115.506 149.323 116.15 150.012C118.928 152.931 126.44 162.223 128.629 179.195C128.629 179.195 135.277 170.743 136.179 157.785C137.081 144.827 145.095 147.602 145.195 151.698C145.295 155.795 144.407 180.548 130.32 190.917C130.32 190.917 132.365 202.13 131.834 211.249C131.834 211.249 138.43 211.711 138.375 220.169H81.8437C81.8437 220.169 79.1344 211.604 86.4397 210.13C86.4397 210.13 84.3913 186.214 86.0678 173.604C87.7444 160.994 93.5556 150.352 93.5556 150.352C93.5556 150.352 88.3676 144.376 88.7463 138.496Z" fill="#A25700"/>
<path d="M104.09 150.493C108.777 150.493 112.576 146.959 112.576 142.599C112.576 138.239 108.777 134.705 104.09 134.705C99.4032 134.705 95.604 138.239 95.604 142.599C95.604 146.959 99.4032 150.493 104.09 150.493Z" fill="white"/>
<path d="M103.896 142.246C106.008 141.661 107.469 140.275 107.157 139.15C106.846 138.025 104.881 137.587 102.768 138.172C100.655 138.756 99.1948 140.143 99.5062 141.268C99.8176 142.393 101.783 142.831 103.896 142.246Z" fill="#333333"/>
<path d="M103.443 147.326C103.274 147.326 103.123 147.326 102.985 147.306C102.813 147.287 102.655 147.2 102.546 147.066C102.437 146.931 102.386 146.759 102.403 146.586C102.421 146.414 102.507 146.257 102.641 146.148C102.775 146.038 102.947 145.987 103.119 146.004C103.25 146.004 106.169 146.266 107.471 143.564C107.546 143.408 107.68 143.288 107.843 143.23C108.006 143.173 108.186 143.183 108.342 143.257C108.498 143.333 108.618 143.467 108.675 143.631C108.733 143.795 108.723 143.975 108.648 144.132C108.169 145.1 107.427 145.914 106.506 146.479C105.585 147.044 104.523 147.338 103.443 147.326Z" fill="black"/>
<path d="M112.576 141.707C113.924 141.707 115.017 140.833 115.017 139.755C115.017 138.677 113.924 137.803 112.576 137.803C111.228 137.803 110.135 138.677 110.135 139.755C110.135 140.833 111.228 141.707 112.576 141.707Z" fill="#FFC3C0"/>
<path d="M95.7211 142.784C96.9613 142.255 97.6242 141.023 97.2018 140.031C96.7793 139.04 95.4315 138.664 94.1913 139.192C92.9511 139.72 92.288 140.952 92.7104 141.944C93.1329 142.936 94.4808 143.312 95.7211 142.784Z" fill="#FFC3C0"/>
<path d="M98.11 134.214C98.5035 134.214 98.8224 133.895 98.8224 133.502C98.8224 133.108 98.5035 132.789 98.11 132.789C97.7164 132.789 97.3972 133.108 97.3972 133.502C97.3972 133.895 97.7164 134.214 98.11 134.214Z" fill="black"/>
<path d="M110.819 132.724C111.213 132.724 111.532 132.405 111.532 132.011C111.532 131.618 111.213 131.299 110.819 131.299C110.426 131.299 110.106 131.618 110.106 132.011C110.106 132.405 110.426 132.724 110.819 132.724Z" fill="black"/>
<path d="M96.1375 132.187C96.0511 132.188 95.9654 132.171 95.8855 132.138C95.8057 132.105 95.7333 132.056 95.6727 131.995C95.5508 131.872 95.4824 131.706 95.4824 131.533C95.4824 131.36 95.5508 131.195 95.6727 131.072C97.0085 129.747 99.3357 130.628 99.4356 130.666C99.5972 130.729 99.7271 130.853 99.7968 131.012C99.8665 131.171 99.8704 131.351 99.8074 131.513C99.7444 131.673 99.6203 131.803 99.4623 131.872C99.3043 131.942 99.1251 131.946 98.9639 131.884C98.5095 131.712 97.2014 131.396 96.592 131.998C96.4716 132.119 96.3081 132.187 96.1375 132.187Z" fill="black"/>
<path d="M112.576 130.839C112.456 130.84 112.337 130.809 112.232 130.75C112.194 130.729 110.311 129.665 109.099 130.684C109.034 130.74 108.958 130.782 108.876 130.808C108.795 130.834 108.709 130.843 108.623 130.836C108.538 130.829 108.455 130.804 108.379 130.765C108.303 130.725 108.235 130.671 108.18 130.605C108.125 130.54 108.083 130.464 108.057 130.382C108.031 130.301 108.021 130.215 108.029 130.129C108.036 130.044 108.06 129.961 108.1 129.885C108.139 129.809 108.194 129.741 108.259 129.686C110.184 128.065 112.783 129.559 112.893 129.624C112.967 129.667 113.031 129.725 113.083 129.793C113.134 129.861 113.172 129.939 113.193 130.022C113.215 130.105 113.22 130.191 113.208 130.276C113.196 130.361 113.167 130.442 113.124 130.516C113.068 130.612 112.988 130.692 112.893 130.749C112.797 130.806 112.688 130.837 112.576 130.839Z" fill="black"/>
<path d="M118.718 218.81C118.556 218.809 118.4 218.749 118.28 218.64C118.16 218.532 118.084 218.382 118.067 218.221C118.036 217.912 114.996 187.368 114.8 176.686C114.797 176.513 114.863 176.346 114.983 176.222C115.103 176.097 115.268 176.025 115.441 176.021C115.612 176.021 115.776 176.087 115.898 176.207C116.02 176.327 116.089 176.491 116.091 176.662C116.287 187.293 119.324 217.784 119.355 218.091C119.371 218.263 119.319 218.435 119.209 218.569C119.1 218.703 118.942 218.788 118.77 218.807L118.718 218.81Z" fill="white"/>
<path d="M98.54 218.807C98.3668 218.806 98.2014 218.736 98.0795 218.612C97.9577 218.489 97.8894 218.323 97.8894 218.15C97.8894 217.83 97.9858 185.872 97.8894 177.182C97.8885 177.009 97.9558 176.843 98.077 176.719C98.1982 176.595 98.3634 176.524 98.5366 176.521C98.7086 176.521 98.8736 176.59 98.9955 176.711C99.1174 176.832 99.1864 176.997 99.1873 177.169C99.2871 185.875 99.1873 217.844 99.1873 218.164C99.1846 218.334 99.1154 218.497 98.9945 218.617C98.8736 218.737 98.7105 218.806 98.54 218.807Z" fill="white"/>
<path d="M93.0254 122.253C91.4486 118.421 87.445 118.318 84.801 119.888C81.7026 121.723 77.5887 129.128 80.8558 138.478C84.1228 147.828 88.7463 138.478 88.7463 138.478C88.6799 139.803 88.8392 141.13 89.2178 142.402C94.337 135.211 96.4474 124.78 97.1187 120.459C95.7051 120.938 94.3355 121.538 93.0254 122.253Z" fill="black"/>
<path d="M116.274 149.76C116.274 149.76 108.108 160.17 91.9033 151.481" stroke="#219653" stroke-width="3" stroke-linecap="round" stroke-linejoin="round"/>
<path d="M135.084 218.709C135.084 218.709 135.959 215.855 133.301 215.328" stroke="white" stroke-linecap="round" stroke-linejoin="round"/>
<path d="M132.412 218.709C132.412 218.709 133.008 216.751 131.187 216.393" stroke="white" stroke-linecap="round" stroke-linejoin="round"/>
<path d="M83.9984 218.709C83.9984 218.709 83.1238 215.855 85.7815 215.328" stroke="white" stroke-linecap="round" stroke-linejoin="round"/>
<path d="M86.6808 218.709C86.6808 218.709 86.0817 216.751 87.9028 216.393" stroke="white" stroke-linecap="round" stroke-linejoin="round"/>
<path d="M108.658 143.742C108.6 143.808 108.861 144.685 106.593 146.417C107.739 147.918 108.841 149.374 110.276 148.011C111.712 146.648 110.035 144.844 108.658 143.742Z" fill="#DF3636"/>
<path d="M115.677 120C115.677 120 107.563 117.765 102.341 119.115" stroke="white" stroke-linecap="round" stroke-linejoin="round"/>
<path d="M91.1007 130.84C91.1007 130.84 90.4845 136.238 87.4067 140.565" stroke="white" stroke-linecap="round" stroke-linejoin="round"/>
<path d="M121.369 129.891C121.369 129.891 121.159 136.618 124.398 140.177" stroke="white" stroke-linecap="round" stroke-linejoin="round"/>
<path d="M91.4691 211.288C91.4691 211.288 87.2106 208.368 83.6509 211.288" stroke="white" stroke-linecap="round" stroke-linejoin="round"/>
<path d="M135.222 212.57C135.222 212.57 131.504 209.626 128.275 212.57" stroke="white" stroke-linecap="round" stroke-linejoin="round"/>
<path d="M145.213 156.012C145.213 156.012 144.796 163.159 143.113 168.832" stroke="white" stroke-linecap="round" stroke-linejoin="round"/>
<g clip-path="url(#clip0_11582_11920)">
<path d="M248.277 129.287C248.277 129.287 229.583 120.707 227.096 108.377C224.609 96.046 226.796 91.1266 231.971 67.8241C234.572 56.1165 222.061 30.1808 240.363 22.3191C264.49 11.9369 272.373 26.4344 300.311 25.9131C328.25 25.3918 329.465 20.7882 341.515 15.5441C366.251 4.78418 387.651 -5.93821 398.749 29.4607C409.847 64.8596 412.908 78.7629 394.539 95.5423C376.17 112.322 373.116 129.764 373.116 129.764L248.294 129.293" fill="#C091FF"/>
<path d="M267.832 25.6709C274.112 26.2834 280.218 29.9937 281.482 42.9936C282.747 55.9935 279.162 64.0326 279.162 64.0326L274.369 63.6502L274.212 62.0574L273.724 63.5529C273.724 63.5529 258.944 65.3376 253.799 62.7076C253.799 62.7076 256.28 56.9718 256.672 53.2987C256.672 53.2987 254.598 59.9079 251.746 61.6948C251.746 61.6948 247.324 59.6244 244.337 57.3345C244.337 57.3345 252.553 50.2987 254.917 41.4068C257.282 32.515 258.748 24.7871 267.832 25.6709Z" fill="#002454"/>
<path d="M237.592 146.452L272.553 150.393C272.553 150.393 277.678 113.297 277.025 100.526C277.025 100.526 284.465 99.5851 285.084 92.1811C285.703 84.777 280.998 74.4767 279.663 71.508C278.328 68.5393 274.17 63.3562 269.444 62.5795C264.718 61.8029 259.677 61.0447 255.766 63.4995C251.854 65.9544 243.218 73.4139 239.494 80.3751C235.771 87.3363 224.058 102.412 224.058 102.412L230.192 106.208C230.192 106.208 242.037 95.6278 246.533 88.4732C246.531 88.4615 238.415 139.317 237.592 146.452Z" fill="white"/>
<path d="M269.256 63.3239C269.256 63.3239 260.961 61.5132 257.541 64.0722L259.909 80.5854L260.38 80.3502L269.256 63.3239Z" fill="#219653"/>
<path d="M256.976 62.8573C259.055 65.7505 260.443 78.9746 260.443 78.9746C261.88 72.9609 269.587 63.0789 270.104 62.6641L259.997 81.7216L256.976 62.8573Z" fill="#CCCCCC"/>
<path d="M267.729 58.5625L266.975 63.5553C266.833 64.4943 266.098 67.2981 263.016 66.8329C259.935 66.3676 259.027 64.1422 259.027 64.1422L260.021 57.5634L267.729 58.5625Z" fill="#FF9C70"/>
<path d="M259.602 60.3365C259.602 60.3365 263.41 62.1735 267.418 60.6233L267.729 58.5625L260.022 57.5543L259.602 60.3365Z" fill="#E47452"/>
<path d="M274.067 50.0215C274.067 50.0215 270.124 61.9995 262.112 59.9166C254.1 57.8337 254.272 50.7798 254.806 47.4902C255.34 44.2006 256.304 43.2731 256.683 40.9903C257.062 38.7075 257.594 35.8884 257.594 35.8884C257.856 34.1502 262.681 28.515 268.044 31.288C273.407 34.061 274.677 43.9896 274.677 43.9896C274.875 43.6766 275.17 43.4357 275.517 43.3026C275.864 43.1695 276.246 43.1512 276.605 43.2504C277.944 43.5555 277.9 45.729 277.657 47.3417C277.413 48.9543 276.601 51.0833 274.067 50.0215Z" fill="#FF9C70"/>
<path d="M258.734 51.2168C258.734 51.2168 261.186 53.5838 263.758 52.64" stroke="#47243B" stroke-linecap="round" stroke-linejoin="round"/>
<path d="M261.81 47.9367C261.894 47.9499 261.98 47.9346 262.056 47.8932C262.133 47.8517 262.196 47.786 262.238 47.705C262.262 47.6524 262.277 47.5952 262.282 47.5368C262.286 47.4783 262.279 47.4199 262.262 47.3648C262.244 47.3098 262.217 47.2592 262.181 47.2162C262.145 47.1731 262.101 47.1385 262.052 47.1142L261.076 46.5906L262.834 41.9002C262.875 41.7917 262.875 41.6711 262.833 41.5648C262.791 41.4585 262.712 41.3753 262.612 41.3335C262.562 41.3128 262.509 41.303 262.455 41.3046C262.401 41.3062 262.348 41.3192 262.298 41.3428C262.249 41.3665 262.204 41.4002 262.166 41.4422C262.129 41.4843 262.099 41.5337 262.079 41.5877L260.182 46.6541C260.143 46.7564 260.141 46.8699 260.176 46.9719C260.212 47.074 260.282 47.1569 260.373 47.2043L261.678 47.9019C261.719 47.9209 261.764 47.9327 261.81 47.9367Z" fill="#E47452"/>
<path d="M265.548 43.2626C265.645 43.2772 265.745 43.2489 265.825 43.1838C265.905 43.1187 265.959 43.0221 265.975 42.9154L266.13 41.8907C266.146 41.784 266.123 41.6758 266.065 41.59C266.008 41.5041 265.922 41.4477 265.825 41.433C265.727 41.4184 265.628 41.4467 265.548 41.5118C265.468 41.5769 265.414 41.6735 265.398 41.7802L265.243 42.8049C265.227 42.9116 265.25 43.0198 265.307 43.1056C265.365 43.1915 265.451 43.2479 265.548 43.2626Z" fill="#47243B"/>
<path d="M259.694 42.3797C259.791 42.3944 259.89 42.3661 259.97 42.301C260.05 42.2359 260.104 42.1393 260.12 42.0326L260.275 41.0079C260.291 40.9011 260.268 40.793 260.211 40.7071C260.154 40.6213 260.067 40.5649 259.97 40.5502C259.873 40.5356 259.773 40.5639 259.693 40.629C259.613 40.6941 259.559 40.7906 259.543 40.8974L259.388 41.9221C259.372 42.0288 259.395 42.137 259.453 42.2228C259.51 42.3087 259.597 42.3651 259.694 42.3797Z" fill="#47243B"/>
<path d="M258.626 39.5931C258.683 39.6123 258.743 39.6183 258.803 39.6108C258.863 39.6033 258.921 39.5824 258.974 39.5495C259.278 39.3637 259.623 39.2786 259.966 39.305C260.309 39.3314 260.634 39.4681 260.901 39.698C260.945 39.7395 260.996 39.7708 261.052 39.7903C261.107 39.8097 261.166 39.8168 261.225 39.8113C261.284 39.8057 261.342 39.7875 261.395 39.7578C261.448 39.7281 261.495 39.6873 261.534 39.6379C261.613 39.5393 261.654 39.4119 261.648 39.2832C261.642 39.1545 261.589 39.0351 261.502 38.9507C261.1 38.5896 260.604 38.3721 260.08 38.3266C259.555 38.281 259.025 38.4094 258.56 38.6952C258.454 38.7583 258.375 38.8641 258.339 38.9891C258.303 39.1142 258.314 39.2483 258.369 39.362C258.424 39.4726 258.516 39.5551 258.626 39.5931Z" fill="#47243B"/>
<path d="M265.17 40.4209C265.226 40.4434 265.285 40.4569 265.345 40.4605C265.406 40.4641 265.465 40.4578 265.521 40.4419C265.837 40.3497 266.185 40.3379 266.521 40.4079C266.858 40.4779 267.167 40.6266 267.412 40.8355C267.451 40.873 267.499 40.9043 267.552 40.9274C267.605 40.9506 267.662 40.9652 267.72 40.9704C267.779 40.9755 267.837 40.9712 267.893 40.9576C267.948 40.9441 267.998 40.9215 268.041 40.8912C268.085 40.8611 268.12 40.8238 268.145 40.7816C268.17 40.7393 268.185 40.6928 268.188 40.6449C268.19 40.5969 268.181 40.5484 268.161 40.5021C268.141 40.4559 268.111 40.4127 268.071 40.3752C267.703 40.0495 267.231 39.8157 266.716 39.7038C266.201 39.5919 265.667 39.6071 265.181 39.7474C265.075 39.7793 264.991 39.8444 264.946 39.9292C264.901 40.014 264.899 40.1117 264.94 40.2021C264.96 40.2486 264.99 40.292 265.029 40.3296C265.069 40.3672 265.117 40.3983 265.17 40.4209Z" fill="#47243B"/>
<path d="M275.275 50.7203C274.871 50.6593 274.593 50.2822 274.654 49.878C274.715 49.4739 275.092 49.1957 275.496 49.2567C275.9 49.3177 276.179 49.6948 276.118 50.099C276.057 50.5032 275.679 50.7813 275.275 50.7203Z" fill="#2AEEFF"/>
<path d="M267.553 32.1855C267.553 32.1855 267.313 38.3326 274.44 43.8582L274.929 33.6246L265.746 27.95L260.859 30.1439L256.993 35.4785C258.88 35.7029 260.795 35.5258 262.613 34.9588C264.432 34.3917 266.114 33.4471 267.553 32.1855Z" fill="#002454"/>
<path d="M270.545 79.5714C270.795 83.3844 271.762 87.0928 273.389 90.4797" stroke="#5405BE" stroke-linecap="round" stroke-linejoin="round"/>
<path d="M258.532 89.7323C258.532 89.7323 269.839 89.698 275.946 90.8938" stroke="#5405BE" stroke-linecap="round" stroke-linejoin="round"/>
<path d="M260.97 98.3713C260.97 98.3713 276.311 103.715 282.329 98.1914" stroke="#5405BE" stroke-linecap="round" stroke-linejoin="round"/>
<path d="M233.464 89.6914L225.952 99.7846" stroke="#5405BE" stroke-linecap="round" stroke-linejoin="round"/>
<path d="M256.969 97.3427L257.588 90.7106C257.626 90.3036 257.987 90.0045 258.394 90.0425C258.801 90.0805 259.1 90.4412 259.062 90.8482L258.443 97.4803C258.405 97.8873 258.044 98.1864 257.637 98.1484C257.23 98.1104 256.931 97.7497 256.969 97.3427Z" fill="#CCCCCC"/>
<path d="M257.562 90.9874C257.562 90.9874 256.57 89.4559 254.234 88.9782C251.898 88.5004 248.686 87.9631 247.947 87.9659C247.208 87.9687 245.511 87.7853 245.823 89.2754C245.823 89.2754 244.133 90.2995 244.848 91.5676C244.848 91.5676 243.526 93.7806 245.211 94.5758C245.211 94.5758 244.263 96.3155 247.921 97.4165C251.579 98.5175 255.025 97.1658 256.977 97.2541L257.562 90.9874Z" fill="#FF9C70"/>
<path d="M244.579 94.6997L248.598 95.4466" stroke="#E47452" stroke-linecap="round" stroke-linejoin="round"/>
<path d="M244.486 91.7165L248.102 92.7974" stroke="#E47452" stroke-linecap="round" stroke-linejoin="round"/>
<path d="M245.464 89.2072L248.343 90.2193" stroke="#E47452" stroke-linecap="round" stroke-linejoin="round"/>
<path d="M234.899 60.0446C235.924 51.7538 236.959 43.38 237.989 35.0523C238.873 27.8945 239.599 20.717 240.473 13.558C240.647 11.841 241.042 10.1535 241.652 8.53162C242.18 7.01005 243.282 5.7242 244.76 4.90675C246.238 4.08931 247.994 3.79427 249.71 4.07504C251.616 4.31064 253.508 4.65679 255.389 5.01091C256.078 5.09756 256.726 5.37403 257.25 5.80417C257.773 6.23431 258.147 6.79811 258.323 7.42185C259.169 10.3322 261.45 11.5495 264.434 11.9933C268.004 12.5374 271.556 13.1448 275.124 13.7074C277.568 14.0938 279.54 13.7109 280.808 11.4078C281.314 10.4992 282.135 9.77783 283.142 9.35721C284.15 8.93659 285.286 8.84056 286.373 9.08421C288.27 9.32614 290.14 9.74525 291.953 10.3351C295.629 11.6593 297.035 14.7045 296.332 18.2652C295.543 22.2735 295.129 26.3563 294.577 30.4127C290.909 57.2445 287.254 84.078 283.613 110.913C283.458 112.166 283.302 113.428 283.147 114.681C282.706 118.246 280.596 120.239 276.765 120.907C273.422 121.475 270.136 120.845 266.828 120.398C257.23 119.118 247.629 117.866 238.036 116.54C236.224 116.335 234.441 115.929 232.725 115.332C229.376 114.067 228.148 112.035 228.387 108.707C228.476 107.577 228.666 106.45 228.805 105.326L234.41 59.9842L234.899 60.0446ZM288.725 65.866C290.98 49.7025 293.228 33.5381 295.47 17.3729C295.88 14.4589 294.754 12.4211 291.762 11.303C290.088 10.7257 288.356 10.314 286.595 10.075C285.598 9.85574 284.557 9.95149 283.64 10.3469C282.722 10.7423 281.98 11.4143 281.534 12.2552C280.111 14.5858 277.926 15.2978 275.183 14.8652C271.308 14.2459 267.438 13.5898 263.555 12.9601C260.456 12.4555 258.226 10.992 257.343 8.05824C257.208 7.53464 256.903 7.05899 256.469 6.69585C256.036 6.33271 255.494 6.09967 254.919 6.02836C253.165 5.70869 251.419 5.33375 249.658 5.1535C248.012 4.91574 246.341 5.24648 244.964 6.08241C243.588 6.91834 242.603 8.20073 242.198 9.6841C241.926 10.5781 241.738 11.4936 241.637 12.4206C237.69 43.3644 233.761 74.3072 229.848 105.249C229.652 106.834 229.666 108.444 229.56 110.039C229.508 110.733 229.667 111.429 230.021 112.05C230.374 112.671 230.906 113.191 231.557 113.551C233.35 114.611 235.393 115.246 237.499 115.398C248.038 116.85 258.574 118.331 269.124 119.691C271.558 120.03 274.023 120.083 276.46 119.849C280.085 119.456 281.744 117.585 282.127 114.246C282.194 113.703 282.261 113.159 282.328 112.616C284.448 97.0527 286.579 81.4787 288.722 65.8937L288.725 65.866Z" fill="black"/>
</g>
<path d="M273.773 9.2287C272.336 9.86485 264.321 9.06104 263.357 8.24983C264.383 7.57231 272.251 8.26426 273.773 9.2287Z" fill="black"/>
<path d="M231.971 57.9143C234.131 42.4124 236.287 26.9101 238.439 11.4073C238.501 10.9099 238.564 10.4032 238.625 9.90578C239.214 4.64751 242.566 1.71349 248.331 1.62189C250.652 1.59274 252.975 1.74536 255.276 2.07814C266.862 3.69124 278.442 5.33156 290.015 6.99911C296.363 7.93349 299.706 11.7886 299.524 17.359C299.342 22.9295 298.689 28.5354 297.971 34.0958C295.379 54.3016 292.713 74.5015 289.974 94.6954C288.98 101.915 287.567 109.082 286.294 116.266C285.737 119.378 281.979 122.813 278.593 123.077C275.346 123.419 272.063 123.449 268.796 123.166C261.314 122.307 253.851 121.132 246.411 120.016C241.945 119.342 237.463 118.638 233.055 117.747C227.963 116.725 224.536 112.897 225.281 107.284C227.319 90.7943 229.688 74.3362 231.916 57.8701L231.971 57.9143ZM233.212 56.7302C231.713 67.5439 230.212 78.3698 228.711 89.208C227.871 95.3425 226.921 101.473 226.303 107.616C225.795 112.632 228.134 115.671 233.418 116.857C237.775 117.835 242.222 118.413 246.65 119.063C254.139 120.164 261.645 121.216 269.166 122.221C272.835 122.844 276.598 122.546 280.062 121.36C281.293 120.971 282.394 120.302 283.264 119.414C284.135 118.525 284.748 117.445 285.047 116.271C286.103 111.669 286.962 107.015 287.66 102.35C289.283 91.4582 290.823 80.5561 292.28 69.6438C293.708 59.1581 295.096 48.6674 296.366 38.1528C297.213 31.299 297.963 24.4145 298.41 17.5206C298.739 12.3986 295.218 8.83942 289.725 8.02954C277.783 6.29138 265.763 4.52492 253.787 2.81069C252.251 2.58155 250.7 2.46798 249.148 2.47111C243.607 2.46885 240.401 5.13087 239.716 10.0967C237.571 25.6441 235.403 41.1886 233.212 56.7302Z" fill="black"/>
<defs>
<clipPath id="clip0_11582_11920">
<rect width="56.3833" height="113.399" fill="white" transform="translate(241.426 3.04492) rotate(7.04697)"/>
</clipPath>
</defs>
</svg>
