<svg width="72" height="72" viewBox="0 0 72 72" fill="none" xmlns="http://www.w3.org/2000/svg">
<g filter="url(#filter0_d_3727_46286)">
<rect x="16" width="40" height="40" rx="20" fill="#002454"/>
<path d="M42 20.75H30C29.59 20.75 29.25 20.41 29.25 20C29.25 19.59 29.59 19.25 30 19.25H42C42.41 19.25 42.75 19.59 42.75 20C42.75 20.41 42.41 20.75 42 20.75Z" fill="white"/>
<path d="M36 26.75C35.59 26.75 35.25 26.41 35.25 26V14C35.25 13.59 35.59 13.25 36 13.25C36.41 13.25 36.75 13.59 36.75 14V26C36.75 26.41 36.41 26.75 36 26.75Z" fill="white"/>
</g>
<defs>
<filter id="filter0_d_3727_46286" x="0" y="0" width="72" height="72" filterUnits="userSpaceOnUse" color-interpolation-filters="sRGB">
<feFlood flood-opacity="0" result="BackgroundImageFix"/>
<feColorMatrix in="SourceAlpha" type="matrix" values="0 0 0 0 0 0 0 0 0 0 0 0 0 0 0 0 0 0 127 0" result="hardAlpha"/>
<feOffset dy="16"/>
<feGaussianBlur stdDeviation="8"/>
<feColorMatrix type="matrix" values="0 0 0 0 0 0 0 0 0 0 0 0 0 0 0 0 0 0 0.08 0"/>
<feBlend mode="normal" in2="BackgroundImageFix" result="effect1_dropShadow_3727_46286"/>
<feBlend mode="normal" in="SourceGraphic" in2="effect1_dropShadow_3727_46286" result="shape"/>
</filter>
</defs>
</svg>
