<svg width="24" height="24" viewBox="0 0 24 24" fill="none" xmlns="http://www.w3.org/2000/svg">
<path d="M17.6172 9.61914H12.3672C11.9572 9.61914 11.6172 9.27914 11.6172 8.86914C11.6172 8.45914 11.9572 8.11914 12.3672 8.11914H17.6172C18.0272 8.11914 18.3672 8.45914 18.3672 8.86914C18.3672 9.27914 18.0372 9.61914 17.6172 9.61914Z" fill="#667C98"/>
<path d="M7.1225 10.3803C6.9325 10.3803 6.7425 10.3103 6.5925 10.1603L5.8425 9.41031C5.5525 9.12031 5.5525 8.64031 5.8425 8.35031C6.1325 8.06031 6.6125 8.06031 6.9025 8.35031L7.1225 8.57031L8.8425 6.85031C9.1325 6.56031 9.6125 6.56031 9.9025 6.85031C10.1925 7.14031 10.1925 7.62031 9.9025 7.91031L7.6525 10.1603C7.5125 10.3003 7.3225 10.3803 7.1225 10.3803Z" fill="#667C98"/>
<path d="M17.6172 16.6191H12.3672C11.9572 16.6191 11.6172 16.2791 11.6172 15.8691C11.6172 15.4591 11.9572 15.1191 12.3672 15.1191H17.6172C18.0272 15.1191 18.3672 15.4591 18.3672 15.8691C18.3672 16.2791 18.0372 16.6191 17.6172 16.6191Z" fill="#667C98"/>
<path d="M7.1225 17.3803C6.9325 17.3803 6.7425 17.3103 6.5925 17.1603L5.8425 16.4103C5.5525 16.1203 5.5525 15.6403 5.8425 15.3503C6.1325 15.0603 6.6125 15.0603 6.9025 15.3503L7.1225 15.5703L8.8425 13.8503C9.1325 13.5603 9.6125 13.5603 9.9025 13.8503C10.1925 14.1403 10.1925 14.6203 9.9025 14.9103L7.6525 17.1603C7.5125 17.3003 7.3225 17.3803 7.1225 17.3803Z" fill="#667C98"/>
<path d="M15 22.75H9C3.57 22.75 1.25 20.43 1.25 15V9C1.25 3.57 3.57 1.25 9 1.25H15C20.43 1.25 22.75 3.57 22.75 9V15C22.75 20.43 20.43 22.75 15 22.75ZM9 2.75C4.39 2.75 2.75 4.39 2.75 9V15C2.75 19.61 4.39 21.25 9 21.25H15C19.61 21.25 21.25 19.61 21.25 15V9C21.25 4.39 19.61 2.75 15 2.75H9Z" fill="#667C98"/>
</svg>
