<svg width="157" height="86" viewBox="0 0 157 86" fill="none" xmlns="http://www.w3.org/2000/svg">
<g opacity="0.9">
<path d="M0 0H157V86H0V0Z" fill="#9648FF"/>
<g opacity="0.6">
<path d="M103.967 47.3313C103.94 45.595 103.896 43.8596 103.739 42.1285C103.692 41.6095 103.622 41.093 103.572 40.5749C103.444 39.222 103.266 37.8787 102.914 36.5624C102.715 35.8164 102.521 35.0713 102.361 34.314C101.974 32.4786 101.534 30.6537 101.104 28.827C100.807 27.5593 100.331 26.3543 99.6817 25.2301C98.5358 23.2478 97.2786 21.335 95.917 19.4926C95.4371 18.8432 94.8946 18.2493 94.2894 17.7129C93.9156 17.3816 93.4921 17.1434 92.9957 17.0626C92.0802 16.9139 91.2238 16.9843 90.5926 17.7842C89.8179 18.7649 88.8876 19.5979 88.0329 20.5021C86.4923 22.1314 85.0586 23.859 83.7179 25.6579C82.8945 26.7638 82.2242 27.9593 81.8138 29.2878C81.4695 30.4024 81.4147 31.5118 81.8373 32.6638C79.2603 32.7368 76.6972 32.8099 74.1097 32.8838C74.4497 31.6692 74.3662 30.5285 73.968 29.3964C73.528 28.1488 72.8829 27.0124 72.0935 25.9604C71.0232 24.5328 69.8747 23.166 68.694 21.828C68.2871 21.3663 67.908 20.8768 67.4437 20.469C66.7777 19.8839 66.1456 19.2727 65.6248 18.5484C65.4518 18.3076 65.2145 18.112 65.0084 17.8946C64.7954 17.6694 64.5363 17.5321 64.2337 17.4677C63.2313 17.2556 62.3227 17.4173 61.5419 18.1215C60.8464 18.7484 60.2404 19.4535 59.6935 20.2108C58.6571 21.6445 57.7103 23.1365 56.7583 24.6267C55.595 26.4473 54.8525 28.4253 54.463 30.5459C54.3491 31.1675 54.3047 31.7996 54.1769 32.416C54.0195 33.1716 53.7935 33.9132 53.6257 34.6661C53.3883 35.7277 53.2014 36.8015 52.9475 37.8587C52.6032 39.2916 52.4224 40.7453 52.298 42.2085C52.1711 43.7031 52.1111 45.202 52.0633 46.7018C51.9546 50.1291 51.9407 53.553 52.3954 56.9621C52.5876 58.401 52.7806 59.8425 53.0953 61.2589C53.497 63.0656 54.0769 64.8131 55.0211 66.4259C55.3089 66.918 55.6332 67.3319 56.174 67.5458C56.261 67.5797 56.3401 67.6214 56.3983 67.7075C56.5331 67.9057 56.7505 67.9553 56.9696 68.0022C57.4069 68.0961 57.8494 68.0796 58.2911 68.0848C62.081 68.1309 65.8709 68.1222 69.6608 68.1048C76.3085 68.0744 82.9563 67.9814 89.604 67.904C92.4775 67.8709 95.3519 67.8605 98.2254 67.8362C98.4506 67.8344 98.6627 67.8831 98.8783 67.9318C99.6174 68.1005 100.349 68.09 101.068 67.8275C101.414 67.7014 101.631 67.4771 101.775 67.1224C102.163 66.1686 102.417 65.1809 102.674 64.188C103.045 62.763 103.268 61.3154 103.466 59.8625C103.639 58.5949 103.717 57.3185 103.796 56.0422C103.931 53.8669 103.989 51.6889 103.999 49.5101C104.005 48.7841 103.978 48.0581 103.967 47.3313ZM83.6023 29.7355C84.1039 28.3566 84.8551 27.1194 85.7941 25.9969C86.8992 24.6763 88.0903 23.4338 89.2736 22.1844C90.0439 21.3706 90.8004 20.5421 91.6646 19.823C91.9315 19.6013 92.2071 19.3892 92.461 19.1414C92.561 19.1744 92.6575 19.3335 92.7636 19.4813C93.9182 21.0837 94.8659 22.8191 95.9614 24.4598C97.2403 26.376 98.0498 28.4844 98.581 30.7102C98.6723 31.0936 98.7271 31.4848 98.8096 31.87C98.8557 32.0848 98.7688 32.1508 98.5662 32.1561C97.7455 32.1761 96.9247 32.2004 96.1048 32.2326C95.8822 32.2413 95.8405 32.1178 95.8301 31.9422C95.7901 31.2318 95.6614 30.5363 95.5092 29.8416C95.098 27.9662 94.5389 26.1526 93.4695 24.5285C93.2739 24.2311 93.0487 23.9424 92.9696 23.5721C92.9209 23.3434 92.7105 23.2747 92.494 23.2539C92.2132 23.2582 91.9315 23.2634 91.6507 23.2652C91.4559 23.266 91.2359 23.2921 91.1403 23.4521C90.9464 23.7755 90.6221 23.8755 90.323 24.0303C89.8161 24.4832 89.5631 25.111 89.2093 25.6665C88.7424 26.3986 88.2485 27.1116 87.7504 27.8219C87.2104 28.5931 86.8392 29.4321 86.6705 30.365C86.5523 31.018 86.401 31.6631 86.4723 32.3334C86.4905 32.5073 86.3966 32.5456 86.2462 32.549C85.3785 32.5699 84.51 32.5925 83.6423 32.6229C83.464 32.629 83.3988 32.5621 83.3649 32.3891C83.1849 31.4796 83.2884 30.5971 83.6023 29.7355ZM93.2591 31.3153C93.2504 31.504 93.247 31.6935 93.2435 31.8831C93.2365 32.3169 93.2374 32.3213 92.8279 32.336C91.5985 32.3795 90.3691 32.4221 89.1397 32.4586C88.6954 32.4717 88.7033 32.4647 88.712 32.0135C88.732 30.9414 89.1284 29.9781 89.6144 29.0565C90.1813 27.9819 90.9238 27.0185 91.7254 25.9995C92.5871 27.7263 93.3513 29.3956 93.2591 31.3153ZM56.8513 32.9855C57.0539 32.5525 57.1043 32.0882 57.1287 31.6187C57.1339 31.5092 57.1261 31.397 57.2243 31.317C57.5947 29.7964 58.0572 28.307 58.7389 26.8933C58.8823 26.5951 59.0206 26.2917 59.1953 26.0108C60.3299 24.1894 61.4698 22.3714 62.6183 20.5577C62.8626 20.1726 63.1461 19.8126 63.4234 19.424C63.7225 19.6274 63.8938 19.9178 64.1363 20.136C66.1482 21.9445 67.9358 23.9694 69.7382 25.9787C70.8223 27.1872 71.6831 28.5392 72.2534 30.0685C72.5569 30.8832 72.6664 31.7196 72.5404 32.5803C72.4899 32.9238 72.4743 32.9238 72.1274 32.9377C71.3857 32.9664 70.6441 32.9951 69.9025 33.0177C69.7477 33.022 69.5886 33.0585 69.4478 32.9977C69.4312 31.0571 68.8461 29.326 67.7367 27.7376C67.0768 26.7933 66.3856 25.8735 65.7231 24.931C64.9684 23.8581 63.6529 24.0903 63.113 24.758C63.0235 24.8684 62.9174 24.9658 62.8331 25.0788C61.8002 26.4534 60.9455 27.9393 60.5282 29.6051C60.2369 30.7702 59.8213 31.9404 59.9761 33.1837C60.0013 33.3881 59.897 33.4159 59.7344 33.4324C58.9962 33.5054 58.2502 33.482 57.5156 33.6011C57.2991 33.7558 57.1191 33.6984 56.9296 33.5324C56.7348 33.362 56.7574 33.1846 56.8513 32.9855ZM67.1194 32.8812C67.0951 33.0507 67.0394 33.1194 66.8577 33.1255C65.597 33.1681 64.3363 33.2194 63.0756 33.2759C62.8826 33.2846 62.8165 33.2368 62.7748 33.0307C62.4227 31.3014 62.6461 29.6468 63.3686 28.0462C63.6129 27.5045 63.8242 26.9481 64.1572 26.4021C64.3746 26.6794 64.5719 26.9194 64.7563 27.1681C65.6666 28.4009 66.5412 29.6521 66.9646 31.1553C67.1237 31.7222 67.2029 32.2917 67.1194 32.8812ZM55.4602 45.1055C55.528 44.3195 55.568 43.531 55.6454 42.7458C55.8471 40.7035 56.1688 38.6777 56.5592 36.6632C56.6913 35.9825 56.873 35.3113 57.0061 34.6305C57.0591 34.3575 57.2339 34.4253 57.3956 34.4288C59.1005 34.4609 60.8055 34.4575 62.5105 34.4279C67.3246 34.3453 72.1378 34.2262 76.951 34.0732C81.0531 33.9428 85.1559 33.8132 89.258 33.6958C92.1297 33.6132 95.0024 33.5515 97.875 33.4811C98.1584 33.4741 98.4419 33.4706 98.7262 33.4611C98.8792 33.4559 98.9427 33.5098 98.9531 33.6776C99.027 34.8113 99.1053 35.9451 99.1983 37.0771C99.2991 38.3039 99.4278 39.528 99.5252 40.7548C99.5887 41.5565 99.6165 42.3616 99.6626 43.1649C99.6921 43.6692 99.7191 44.1735 99.7617 44.676C99.7808 44.9055 99.6982 44.9829 99.4722 44.9803C98.967 44.9742 98.4619 44.9925 97.9567 44.9925C95.904 44.9942 93.8521 44.9934 91.7993 44.9934C91.7993 45.0194 91.7993 45.0464 91.7993 45.0725C89.3362 45.0725 86.874 45.0716 84.4108 45.0742C84.1709 45.0742 83.957 45.0438 83.7379 44.9116C81.9538 43.8318 80.0123 43.3188 77.9274 43.3145C75.8886 43.3101 73.9263 43.6692 72.1474 44.6864C71.4979 45.0577 70.8693 45.1985 70.1424 45.2011C65.6909 45.2203 61.2385 45.2768 56.7878 45.3663C56.4409 45.3733 56.0923 45.375 55.7462 45.4002C55.5124 45.4185 55.4402 45.3368 55.4602 45.1055ZM83.0145 54.4494C82.1885 56.4161 80.7887 57.7785 78.8029 58.5558C77.4823 59.0722 76.2024 58.9496 74.9574 58.3393C73.5133 57.6307 72.416 56.5387 71.6048 55.1623C71.0936 54.2955 70.9667 53.3252 70.9528 52.5601C70.971 49.1597 73.0733 46.2419 76.0886 45.2629C78.3143 44.5404 80.2114 45.1881 81.859 46.7496C82.2068 47.0791 82.4737 47.4652 82.6407 47.9199C82.7111 48.1112 82.8006 48.2981 82.898 48.4781C83.344 49.3023 83.4779 50.2187 83.5614 51.1203C83.6666 52.2593 83.464 53.38 83.0145 54.4494ZM55.5567 51.1959C55.535 50.6917 55.4958 50.1883 55.4811 49.684C55.4541 48.7693 55.4341 47.8547 55.4211 46.94C55.4159 46.587 55.428 46.5827 55.7897 46.587C58.2189 46.6183 60.6473 46.6557 63.0765 46.6818C65.0484 46.7035 67.0194 46.7131 68.9913 46.7279C69.1165 46.7288 69.2408 46.7279 69.3921 46.7279C69.3834 46.9139 69.2852 46.9809 69.2208 47.0635C68.3236 48.2146 67.6941 49.4884 67.462 50.9386C67.4254 51.1664 67.3263 51.2159 67.1185 51.2142C66.1404 51.2064 65.1623 51.2099 64.185 51.2125C61.4089 51.2186 58.6337 51.2498 55.8645 51.4811C55.6158 51.502 55.5654 51.4003 55.5567 51.1959ZM56.0905 56.7143C55.9671 55.4892 55.8306 54.2659 55.708 53.0418C55.6776 52.7322 55.6958 52.7218 56.0062 52.7453C59.6309 53.0226 63.2617 53.0087 66.8933 53.0192C67.0038 53.0192 67.1142 53.0244 67.2246 53.02C67.3602 53.0148 67.4246 53.0818 67.4437 53.2113C67.6106 54.3816 68.0445 55.4614 68.5653 56.5117C68.5775 56.5352 68.5644 56.5717 68.5618 56.6308C67.9193 56.6508 67.2759 56.676 66.6316 56.6908C63.5225 56.763 60.4125 56.8317 57.3034 56.9047C56.9878 56.9116 56.6722 56.929 56.3575 56.9516C56.1758 56.9656 56.1088 56.8934 56.0905 56.7143ZM98.8088 62.7369C98.661 63.8802 98.454 65.0079 98.181 66.1268C98.0845 66.5216 98.0889 66.5242 97.6524 66.5285C92.8375 66.585 88.0234 66.6407 83.2084 66.6963C78.4726 66.7511 73.7367 66.792 69.0017 66.865C65.8604 66.9128 62.72 67.005 59.5796 67.0824C59.337 67.0884 59.1197 67.1371 59.0832 66.7755C59.0675 66.625 58.9162 66.4755 58.7997 66.352C58.1268 65.6374 57.8312 64.7297 57.5642 63.8272C57.0313 62.0266 56.62 60.1947 56.3131 58.341C56.3053 58.2958 56.3123 58.248 56.3123 58.1523C56.434 58.1523 56.5114 58.1515 56.5887 58.1523C60.8351 58.2158 65.0814 58.1254 69.3286 58.1167C69.7077 58.1158 70.0033 58.1958 70.3129 58.4453C71.4883 59.3956 72.8577 59.9686 74.3262 60.2668C77.1554 60.8398 79.9132 60.612 82.5589 59.393C83.2354 59.0809 83.8727 58.7027 84.45 58.2323C84.6595 58.0619 84.8751 57.9871 85.1394 57.9854C86.5914 57.9758 88.0442 57.9541 89.4962 57.9437C92.6062 57.9202 95.7153 57.8289 98.8253 57.8489C98.9948 57.8498 99.1696 57.8202 99.3548 57.8889C99.207 59.5165 99.0166 61.1267 98.8088 62.7369ZM99.7 53.3191C99.6617 54.0921 99.6165 54.8641 99.5704 55.6362C99.5443 56.07 99.5417 56.0674 99.1079 56.0796C95.5884 56.1796 92.068 56.2152 88.5476 56.263C87.8547 56.2726 87.1617 56.2648 86.4497 56.2648C86.4297 56.1657 86.4966 56.11 86.5392 56.0492C87.1157 55.2414 87.4843 54.3416 87.7312 53.3861C87.8356 52.9835 87.8347 52.9861 88.2625 52.9879C89.8101 52.9939 91.3568 52.9661 92.9035 52.9705C95.0502 52.9766 97.1977 52.9913 99.3443 52.9592C99.7113 52.9522 99.7182 52.9635 99.7 53.3191ZM99.786 51.0925C99.7921 51.2994 99.7182 51.3672 99.5113 51.3611C98.8488 51.3429 98.1854 51.3368 97.522 51.3342C94.4746 51.3237 91.4272 51.3159 88.3798 51.3072C88.3164 51.3072 88.2529 51.302 88.1903 51.3098C87.9825 51.3359 87.9182 51.2359 87.9086 51.0394C87.8929 50.7247 87.8634 50.4091 87.8182 50.0978C87.7886 49.8961 87.7399 49.6953 87.6425 49.511C87.4356 49.1275 87.2209 48.7476 87.0252 48.359C86.8548 48.0199 86.6592 47.7034 86.3775 47.4443C86.2488 47.3269 86.1488 47.1878 86.0628 47.0365C85.935 46.8122 85.9341 46.8131 86.2462 46.7801C90.4934 46.7844 94.7415 46.7879 98.9888 46.794C99.2392 46.794 99.5504 46.7088 99.7252 46.8635C99.9043 47.0218 99.8025 47.34 99.8191 47.5878C99.8964 48.7572 99.7521 49.9248 99.786 51.0925Z" fill="white"/>
<path d="M86.5029 47.1626C86.402 47.0478 86.262 46.9556 86.2481 46.7817C86.0803 47.033 86.3133 47.1486 86.4368 47.2773C87.0454 47.9137 87.4149 48.6736 87.6445 49.5118C87.614 48.9545 87.4601 48.4389 87.135 47.9781C86.935 47.6973 86.7307 47.4208 86.5029 47.1626Z" fill="white"/>
<path d="M57.5138 33.6009C57.1425 33.56 57.1321 33.5592 57.1712 33.2427C57.2512 32.6019 57.1938 31.9585 57.2234 31.3169C57.1504 31.9342 57.1382 32.5567 57.0382 33.1731C56.9747 33.5661 57.0834 33.6374 57.5138 33.6009Z" fill="white"/>
<path d="M90.5894 23.7089C90.5007 23.8159 90.412 23.9228 90.3242 24.0297C90.9146 23.3985 91.591 23.0064 92.4952 23.2533C91.7762 23.056 91.1111 23.0829 90.5894 23.7089Z" fill="white"/>
<path d="M87.5151 40.0821C87.5525 40.5551 87.6951 41.0124 87.7186 41.4819C87.7412 41.9322 87.7942 42.0618 88.2054 42.2131C88.601 42.3583 89.0184 42.3852 89.42 42.3026C89.9095 42.2018 90.3912 42.2418 90.879 42.26C91.3041 42.2757 91.731 42.2818 92.1562 42.2661C93.2273 42.2261 94.2976 42.1905 95.3714 42.2244C95.5435 42.2087 95.7174 42.2 95.8887 42.1739C96.013 42.1548 96.1365 42.1227 96.2538 42.0783C96.6068 41.9453 96.6938 41.8149 96.6799 41.4401C96.6677 41.1254 96.6642 40.8081 96.6251 40.4959C96.5234 39.6691 96.5877 38.8196 96.2921 38.0198C96.2634 37.9433 96.2512 37.8659 96.2817 37.7894C96.4025 37.4868 96.2026 37.3468 95.9852 37.2381C95.64 37.0651 95.2618 37.0164 94.8819 37.0077C94.1402 36.9895 93.3995 37.0269 92.6578 37.0599C91.3841 37.1164 90.1113 37.3007 88.8323 37.1251C88.7088 37.1077 88.5793 37.1173 88.4541 37.1295C87.5168 37.2181 87.2421 37.5424 87.3299 38.4875C87.3786 39.0196 87.4734 39.5491 87.5151 40.0821ZM90.1912 38.2545C90.9555 38.2545 91.7241 38.2502 92.4926 38.2562C92.9491 38.2597 93.4056 38.2875 93.862 38.2867C94.0742 38.2858 94.122 38.3597 94.1115 38.5658C94.0785 39.2578 94.0985 39.9508 94.1289 40.6437C94.1428 40.9602 94.142 40.9611 93.8403 40.9759C93.0534 41.0124 92.2666 41.0419 91.4806 41.0854C91.0894 41.1071 90.6999 41.1541 90.2625 41.1932C90.2851 40.1821 90.1226 39.2326 90.1912 38.2545Z" fill="white"/>
</g>
</g>
</svg>
