<svg width="40" height="40" viewBox="0 0 40 40" fill="none" xmlns="http://www.w3.org/2000/svg">
<path d="M13.8265 31.6651C15.8368 31.6651 17.4665 30.0354 17.4665 28.0251C17.4665 26.0148 15.8368 24.3851 13.8265 24.3851C11.8162 24.3851 10.1865 26.0148 10.1865 28.0251C10.1865 30.0354 11.8162 31.6651 13.8265 31.6651Z" stroke="#667C98" stroke-width="1.375" stroke-linecap="round" stroke-linejoin="round"/>
<path d="M30.8135 25.5985V11.3651C30.8135 8.33179 28.9118 7.91179 26.9868 8.43679L19.7068 10.4201C18.3768 10.7818 17.4668 11.8318 17.4668 13.3485V15.8801V17.5835V28.0135" stroke="#667C98" stroke-width="1.375" stroke-linecap="round" stroke-linejoin="round"/>
<path d="M27.1732 29.2385C29.1835 29.2385 30.8132 27.6088 30.8132 25.5985C30.8132 23.5882 29.1835 21.9585 27.1732 21.9585C25.1629 21.9585 23.5332 23.5882 23.5332 25.5985C23.5332 27.6088 25.1629 29.2385 27.1732 29.2385Z" stroke="#667C98" stroke-width="1.375" stroke-linecap="round" stroke-linejoin="round"/>
<path d="M17.4668 17.1051L30.8135 13.4651" stroke="#667C98" stroke-width="1.375" stroke-linecap="round" stroke-linejoin="round"/>
<rect x="0.75" y="0.75" width="38.5" height="38.5" rx="19.25" stroke="#667C98" stroke-width="1.5"/>
</svg>
