<svg width="211" height="204" viewBox="0 0 211 204" fill="none" xmlns="http://www.w3.org/2000/svg">
<path fill-rule="evenodd" clip-rule="evenodd" d="M109.925 0.167758C132.333 -0.949228 155.348 3.3985 173.504 16.6208C191.664 29.8461 204.074 50.1716 208.804 72.1779C213.255 92.8813 204.802 113.067 198.586 133.307C192.258 153.913 189.394 177.472 172.409 190.684C155.25 204.03 131.576 203.908 109.925 202.27C89.6099 200.733 71.0605 192.786 53.9316 181.721C35.8417 170.036 17.8129 157.023 9.2344 137.228C0.150992 116.269 -2.08963 91.9125 5.70289 70.4364C13.3601 49.3333 32.1966 35.2655 50.7767 22.7384C68.7235 10.6383 88.3281 1.2443 109.925 0.167758Z" fill="#EADAFF"/>
<mask id="mask0_12732_49723" style="mask-type:alpha" maskUnits="userSpaceOnUse" x="11" y="4" width="177" height="198">
<path d="M187.711 98.0684C187.711 149.707 151.85 201.068 100.211 201.068C85.7109 200.068 32.7109 179.068 11.7109 142.568C11.7109 90.9297 42.5723 4.56836 94.2109 4.56836C145.85 4.56836 187.711 46.4297 187.711 98.0684Z" fill="#EADAFF"/>
</mask>
<g mask="url(#mask0_12732_49723)">
<path d="M149.314 66.1946C149.222 65.5655 153.889 62.5328 157.299 66.3289C160.71 70.1251 158.62 72.1468 157.398 72.8184C156.177 73.49 153.783 73.3769 152.456 69.7221C151.128 66.0674 149.504 67.5024 149.314 66.1946Z" fill="#29EEFF"/>
<path d="M163.351 67.9755C163.408 67.6291 166.479 66.8373 167.63 69.5024C168.781 72.1675 167.291 72.8814 166.507 73.037C165.723 73.1925 164.46 72.6906 164.389 70.4709C164.318 68.2512 163.217 68.7177 163.351 67.9755Z" fill="#29EEFF"/>
<path d="M160.027 77.8865C160.104 77.42 164.178 76.3666 165.711 79.9083C167.243 83.45 165.259 84.3902 164.221 84.581C163.183 84.7719 161.502 84.1074 161.396 81.1666C161.291 78.2258 159.85 78.8621 160.027 77.8865Z" fill="#29EEFF"/>
<path d="M131.001 41.9535C131.001 41.9535 119.153 60.3334 116.76 73.0579C114.366 85.7824 119.393 96.2023 122.959 95.6792C125.91 95.248 125.579 92.3638 130.486 85.0755C135.393 77.7871 141.698 75.7654 143.548 63.161C145.398 50.5567 140.434 42.5474 140.349 41.2891L131.001 41.9535Z" fill="#D65554"/>
<path d="M89.6445 104.714C95.173 103.258 115.063 104.163 122.83 103.852C127.611 103.616 132.349 102.831 136.951 101.512" fill="#EE726B"/>
<path d="M105.756 129.527C113.382 123.002 123.634 123.871 137.204 118.428C142.243 116.395 147.15 114.051 151.898 111.408C151.898 111.408 151.792 91.4098 152.477 84.5456C153.663 72.7472 148.946 67.4736 147.181 65.5932C145.416 63.7128 140.932 60.5458 137.374 63.2604C134.126 65.7346 133.469 69.6226 136.138 73.8005C138.002 76.6988 139.767 80.6788 139.358 87.1753C139.019 92.456 136.964 101.497 136.964 101.497C132.344 102.821 127.587 103.606 122.787 103.837C115.02 104.148 95.1371 103.244 89.6016 104.7" fill="#EE726B"/>
<path d="M137.371 63.2607C136.165 64.2355 135.324 65.5918 134.988 67.1074C134.652 68.6229 134.84 70.2078 135.521 71.6023C136.143 73.0515 137.216 74.2674 137.922 75.6813C138.702 77.1367 139.286 78.6889 139.659 80.2974C141.226 86.7021 139.426 93.2199 138.501 99.5185C138.395 99.9709 137.943 101.873 137.844 102.304C137.59 102.396 137.138 102.537 136.891 102.629C134.881 102.948 132.853 103.144 130.819 103.216C123.052 103.661 115.01 103.689 107.251 103.845C101.383 104.022 95.4735 103.887 89.6484 104.714C95.3534 103.166 101.327 102.905 107.187 102.389C115.095 101.816 125.735 101.519 133.608 100.911C134.623 100.874 135.633 100.741 136.623 100.515L135.917 101.222L136.446 99.1014V99.1792C137.371 93.0502 139.355 86.8011 138.162 80.6085C137.873 79.0974 137.398 77.6277 136.75 76.2327C136.122 74.7623 135.119 73.4757 134.632 71.9346C134.006 70.396 133.937 68.6865 134.437 67.1024C134.937 65.5182 135.975 64.1592 137.371 63.2607Z" fill="#D65554"/>
<path d="M137.377 63.261C139.311 61.5573 142.213 61.8471 144.36 63.0347C148.815 65.3746 151.632 70.1039 152.783 74.8968C153.934 79.6897 153.263 84.7088 153.115 89.5936C152.917 96.8607 152.946 104.121 152.946 111.395V112.038L152.402 112.328C145.094 116.372 137.377 119.885 129.243 121.928C121.293 124.141 112.594 124.374 105.809 129.534C110.426 125.18 116.873 123.625 122.846 122.055C128.86 120.613 134.727 118.614 140.371 116.082C144.141 114.385 147.791 112.547 151.406 110.49L150.863 111.409C150.813 104.121 150.863 96.8183 151.216 89.53C151.413 84.8502 152.395 79.8594 151.364 75.222C150.481 70.6482 148.109 66.1027 144.084 63.5649C142.079 62.3278 139.424 61.8188 137.384 63.2751L137.377 63.261Z" fill="#D65554"/>
<path d="M71.9488 143.85C71.9488 143.85 106.094 149.646 96.421 188.074C89.6922 214.803 78.1057 205.747 66.9287 241.913C66.8537 242.219 66.8537 242.538 66.9288 242.844C67.0039 243.15 67.1518 243.433 67.3599 243.67C67.5681 243.906 67.8302 244.088 68.124 244.201C68.4178 244.313 68.7344 244.353 69.0469 244.317C77.9363 243.61 106.977 241.489 117.059 242.04C128.427 242.641 135.339 248.155 134.231 255.415C134.172 255.746 133.998 256.045 133.739 256.259C133.48 256.472 133.154 256.587 132.819 256.582L49.503 256.384C48.5196 256.384 47.5742 256.003 46.8657 255.32C46.1573 254.637 45.741 253.706 45.7044 252.722C45.6197 250.085 46.1563 245.9 48.6699 239.799C51.6212 232.652 52.5038 220.006 47.2577 210.385C42.0117 200.763 39.4416 195.193 40.2183 181.316" fill="#D65554"/>
<path d="M153.563 62.8153C152.426 58.4041 151.169 51.7874 148.501 46.8107C145.832 41.834 139.322 38.1651 135.085 37.0128C130.849 35.8605 125.97 37.1259 121.035 39.9748C113.451 42.9862 104.428 58.5526 97.3532 68.0323C91.5211 75.8508 81.8692 83.3653 69.513 91.1414C57.1569 98.9175 35.0359 111.691 25.2781 125.257C15.5202 138.823 6.32729 159.401 2.95936 176.537C-0.408569 193.673 -6.60783 211.049 -18.5615 224.218C-30.5152 237.388 -54.1825 244.486 -64.2792 244.974C-74.376 245.461 -118.47 245.956 -118.406 253.351C-118.371 257.38 -106.933 257.528 -99.3424 258.108C-91.7522 258.688 -56.0465 261.127 -39.3622 258.815C-22.6779 256.503 -4.84973 241.679 3.34769 234.624C11.5451 227.569 35.1206 217.92 44.7725 217.489C54.4244 217.057 69.9437 214.901 83.4578 209.861C96.9719 204.821 114.673 189.841 118.267 173.716C121.861 157.592 120.279 145.058 115.534 128.643C110.79 112.229 111.799 99.2427 117.229 88.6672C118.217 86.7373 119.135 85.0124 119.976 83.4714C123.195 78.5229 127.114 79.8944 127.114 79.8944C133.621 86.437 140.711 92.3714 148.296 97.6238C151.904 100.126 152.01 100.091 154.213 99.5184C156.416 98.9458 161.012 96.3019 160.913 93.6227C160.878 91.2475 154.7 67.2264 153.563 62.8153Z" fill="#EE726B"/>
<path d="M156.08 98.7828C154.625 99.9209 152.549 101.059 150.714 100.013C143.916 96.2659 137.858 91.3095 132.836 85.3867C138.767 88.8082 144.613 93.5799 150.036 97.779C150.269 97.9557 151.547 98.9171 151.766 99.0726C153.065 99.7795 154.59 99.1504 156.08 98.7828Z" fill="#D65554"/>
<path d="M119.196 84.991C119.196 84.991 110.625 82.2128 105.04 96.3794C99.4547 110.546 104.863 135.55 93.6861 154.092C82.5091 172.635 74.8201 176.65 64.335 181.026C64.335 181.026 43.8167 189.24 51.8023 216.958C61.0659 215.997 72.8995 213.819 83.4976 209.889C97.0187 204.849 114.713 189.869 118.307 173.744C121.9 157.62 120.319 145.086 115.574 128.671C110.829 112.257 111.839 99.2707 117.269 88.6953C117.947 87.3521 118.596 86.1291 119.196 84.991Z" fill="#FFDFDD"/>
<path d="M117.717 179.047C109.089 182.193 99.5569 181.698 90.844 179.245C89.6225 178.891 88.4222 178.453 87.2148 178.064C90.2806 178.849 93.4044 179.386 96.5561 179.669C100.927 180.009 105.323 179.719 109.611 178.807C111.988 178.319 114.297 177.545 116.488 176.502L117.717 179.047Z" fill="#FF8380"/>
<path d="M50.057 143.85C50.057 143.85 85.2402 149.816 75.2777 189.41C68.3441 216.98 56.4045 207.635 44.9168 244.889C44.8408 245.202 44.8408 245.528 44.9167 245.841C44.9926 246.154 45.1422 246.444 45.3531 246.687C45.564 246.93 45.83 247.119 46.1287 247.238C46.4275 247.357 46.7504 247.402 47.0703 247.37C56.2492 246.664 86.1581 244.465 96.5514 245.016C108.272 245.646 115.389 251.322 114.245 258.801C114.194 259.138 114.023 259.446 113.764 259.667C113.504 259.887 113.174 260.007 112.833 260.003L26.9616 259.784C25.948 259.783 24.9741 259.389 24.2437 258.686C23.5133 257.982 23.0831 257.023 23.043 256.009C22.9582 253.294 23.509 248.982 26.1073 242.698C29.1434 235.332 30.0542 222.268 24.6245 212.385C19.1949 202.502 16.5613 196.734 17.3874 182.405" fill="#EE726B"/>
<path d="M161.783 92.4497C162.679 94.3513 162.701 96.3731 161.627 96.868C160.554 97.3628 157.08 96.9881 156.374 96.0621C155.259 94.5988 156.374 91.1137 157.561 89.9685C158.747 88.8233 161.289 91.3823 161.783 92.4497Z" fill="black"/>
<path d="M152.852 99.9072C151.503 94.8033 148.312 90.1659 144.746 86.292C147.963 88.9024 150.737 92.0179 152.958 95.5173C153.727 96.7277 154.375 98.011 154.892 99.3487L152.852 99.9072Z" fill="black"/>
<path d="M133.276 85.7265C130.164 83.7972 127.316 81.4708 124.803 78.8058C123.866 77.8794 123.024 76.861 122.29 75.7661C121.075 73.405 121.633 70.443 122.812 68.3223C122.685 70.065 122.852 71.8168 123.307 73.504C123.475 74.0383 123.741 74.5369 124.09 74.9744C127.282 78.41 130.713 81.7395 133.269 85.7265H133.276Z" fill="#D65554"/>
<path d="M26.0018 242.719C28.1516 235.265 28.2638 227.369 26.3266 219.857C25.1122 214.753 22.0408 210.554 19.972 205.782C16.5759 198.544 16.0816 190.181 17.2749 182.454C17.4443 187.678 17.7056 192.902 19.0824 197.83C20.4592 202.757 22.874 207.295 25.4017 211.848C27.8274 216.618 29.141 221.877 29.2437 227.229C29.3464 232.581 28.2356 237.887 25.9948 242.747L26.0018 242.719Z" fill="#D65554"/>
<path d="M49.958 143.85C57.4265 145.074 64.3128 148.644 69.622 154.043C78.7584 163.424 79.3727 177.81 76.1531 189.835C74.2961 197.095 71.2741 204.376 66.1199 209.982C64.4747 211.89 62.7308 213.636 61.0574 215.446C54.2297 222.621 49.7603 231.528 46.1523 240.69C47.5726 235.921 49.3669 231.271 51.5184 226.785C53.7489 222.296 56.5493 218.114 59.85 214.343C63.0979 210.561 66.6071 207.112 68.9159 202.863C71.2446 198.598 72.9924 194.041 74.1125 189.311C79.8881 167.814 72.1567 150.014 49.9722 143.85H49.958Z" fill="#D65554"/>
<path d="M143.03 64.1589C143.047 64.238 143.047 64.3201 143.03 64.3992C143.03 64.3992 143.03 64.3992 142.952 64.4417C142.927 64.446 142.901 64.4421 142.878 64.4307C142.855 64.4192 142.837 64.4008 142.825 64.378C142.562 63.1917 142.183 62.0339 141.695 60.9212C141.159 59.7407 140.488 58.8005 139.824 57.5704C140.628 57.5644 141.416 57.7951 142.09 58.2337C142.764 58.6723 143.295 59.2996 143.616 60.0376C143.954 60.7261 144.083 61.4987 143.988 62.2599C143.892 63.0211 143.576 63.7378 143.079 64.3215C143.081 64.3041 143.078 64.2866 143.072 64.2704C143.065 64.2541 143.055 64.2397 143.042 64.228C143.029 64.2164 143.013 64.2079 142.997 64.2033C142.98 64.1986 142.962 64.198 142.945 64.2013C142.874 64.2013 142.874 64.2366 142.874 64.2508C142.874 64.2649 143.016 64.166 143.051 64.1518L143.03 64.1589Z" fill="black"/>
<path d="M72.5195 115.417C78.2316 113.904 98.8063 114.837 106.813 114.526C111.773 114.281 116.688 113.47 121.464 112.109C121.464 112.109 121.994 95.1425 121.803 88.0027C121.471 75.7518 126.745 70.6761 128.694 68.8664C130.643 67.0567 135.508 64.1301 138.981 67.2052C142.138 69.9975 142.512 74.0835 139.454 78.1624C137.336 80.99 135.218 84.9841 135.133 91.714C135.077 97.1784 136.651 105.407 136.906 116.407V122.331C132.002 125.063 126.932 127.486 121.725 129.583C107.696 135.182 97.0977 134.313 89.2462 141.057" fill="#EE726B"/>
<path d="M141.652 72.4502C137.974 72.9734 134.316 75.0517 132.516 78.4096C133.26 76.5715 134.479 74.9641 136.046 73.751C137.634 72.491 139.466 71.5739 141.426 71.0576L141.659 72.4715L141.652 72.4502Z" fill="#D65554"/>
<path d="M140.227 68.9581C136.549 69.4812 132.891 71.5595 131.098 74.9174C131.842 73.079 133.06 71.4714 134.628 70.2588C136.217 69.0002 138.049 68.0833 140.008 67.5654L140.241 68.9793L140.227 68.9581Z" fill="#D65554"/>
<path d="M137.617 66.8448C133.938 67.375 130.274 69.4462 128.48 72.8112C129.225 70.9711 130.443 69.3613 132.011 68.1455C133.604 66.8894 135.438 65.9729 137.398 65.4521L137.631 66.866L137.617 66.8448Z" fill="#D65554"/>
<path d="M138.982 67.205C142.131 69.5661 142.576 73.8571 140.62 77.1584C140.041 78.2259 139.3 79.1519 138.714 80.1981C136.327 84.2346 135.706 89.0134 136.024 93.6649C136.906 103.109 138.276 112.752 137.951 122.33V122.952L137.401 123.256C129.86 127.434 121.867 131.082 113.479 133.196C105.26 135.479 96.244 135.741 89.2539 141.071C95.7003 135.104 105.02 134.178 113.048 131.648C117.128 130.444 121.118 128.954 124.988 127.187C128.885 125.434 132.67 123.518 136.398 121.411L135.854 122.33V118.753C136.003 110.369 134.739 102.113 134.329 93.7427C134.146 88.8649 135.035 83.7469 137.803 79.6043C138.446 78.6005 139.279 77.7027 139.921 76.706C140.959 75.2802 141.439 73.5229 141.27 71.7668C141.101 70.0107 140.294 68.3777 139.003 67.1768L138.982 67.205Z" fill="#D65554"/>
<path d="M138.987 67.2051C136.078 64.844 132.089 66.4982 129.589 68.6685C125.204 72.4646 123.114 78.2189 122.776 83.9167C122.599 88.5187 122.938 93.3894 122.811 97.9914C122.747 102.94 122.684 107.888 122.493 112.879C114.31 115.544 105.548 115.749 97.0748 115.374C91.2851 115.261 81.2872 114.795 75.5893 115.099C74.5663 115.142 73.5474 115.253 72.5391 115.431C76.5142 114.371 80.687 114.3 84.7822 114.067C92.8031 113.657 101.283 114.003 109.29 113.402C113.29 112.995 117.246 112.229 121.109 111.112L120.403 112.073C120.537 105.336 120.933 93.9832 120.876 87.3806C120.876 81.3788 122.288 75.059 126.384 70.4711C129.264 67.092 135.019 63.5857 138.966 67.2051H138.987Z" fill="#D65554"/>
<path d="M131.401 41.0705C131.401 41.0705 116.426 56.9691 111.766 69.0998C107.106 81.2304 110.163 92.3431 113.764 92.4775C116.743 92.5906 116.948 89.6993 123.091 83.3794C129.234 77.0596 135.8 76.2608 139.902 64.215C143.065 54.919 141.639 46.2734 140.891 42.2228C140.665 41.0281 131.401 41.0705 131.401 41.0705Z" fill="#EE726B"/>
<path d="M113.762 92.4772C115.11 92.4772 116.028 91.537 116.748 90.4978L118.93 87.3308C120.44 85.2107 122.132 83.2262 123.986 81.3998C127.664 77.8652 132.275 75.4688 135.191 71.298C138.721 66.2435 140.543 59.9873 141.235 53.8442C141.575 50.0443 141.501 46.2186 141.016 42.4346C141.76 44.9116 142.269 47.4537 142.534 50.0268C143.162 57.8383 141.425 66.0597 136.885 72.5421C133.821 76.8755 128.992 79.3427 125.066 82.6086C123.165 84.284 121.379 86.086 119.721 88.0024C117.998 89.6425 116.544 92.8307 113.762 92.5125V92.4772Z" fill="#D65554"/>
<path d="M131.402 41.0703C126.862 46.9943 122.343 52.8617 118.325 59.1179C112.945 67.1131 108.977 76.6918 110.41 86.4897C110.806 88.568 111.399 91.8835 113.764 92.4773C111.123 92.2652 110.057 88.8579 109.394 86.7018C106.202 73.6662 113.22 61.7264 121.164 51.9922C124.3 48.1017 127.722 44.451 131.402 41.0703Z" fill="#D65554"/>
<path d="M141.405 65.8411C141.306 65.219 135.947 63.7204 133.829 68.3648C131.711 73.0092 134.309 74.3099 135.672 74.5856C137.034 74.8613 139.287 74.0343 139.491 70.1392C139.696 66.2441 141.61 67.1348 141.405 65.8411Z" fill="#29EEFF"/>
<path d="M128.549 72.4504C128.387 72.1323 125.223 72.3019 124.92 75.1862C124.616 78.0704 126.254 78.3107 127.038 78.2118C127.822 78.1128 128.895 77.2574 128.302 75.1225C127.709 72.9877 128.895 73.1573 128.549 72.4504Z" fill="#29EEFF"/>
<path d="M134.938 80.7635C134.719 80.3464 130.518 80.5655 130.115 84.4041C129.713 88.2426 131.888 88.5466 132.94 88.4123C133.992 88.278 135.397 87.1469 134.606 84.3122C133.815 81.4774 135.397 81.64 134.938 80.7635Z" fill="#29EEFF"/>
</g>
</svg>
