<svg width="28" height="28" viewBox="0 0 28 28" fill="none" xmlns="http://www.w3.org/2000/svg">
<path d="M16.7156 15.4C16.4286 15.4 16.1696 15.379 15.8966 15.365C15.6166 15.344 15.3296 15.323 14.9796 15.323H13.4676C13.1666 15.323 12.9146 15.337 12.6766 15.351C12.1936 15.372 11.7456 15.4 11.1086 15.323C8.83356 15.043 3.84256 13.72 2.94656 11.389C2.72956 10.822 2.64556 9.94703 3.47856 8.98103C4.81556 7.42703 6.34156 8.20403 7.62956 8.85503C7.76956 7.68603 8.79856 5.91503 9.50556 4.97703C10.0306 4.27703 10.5136 3.82203 11.3886 3.57003C12.3126 3.30403 12.9566 3.84303 13.4256 4.23503C14.1186 4.80903 14.3426 4.80903 15.0286 4.23503C15.4976 3.84303 16.1486 3.30403 17.0656 3.57003C17.9406 3.82203 18.4166 4.27703 18.9486 4.97703C19.6486 5.90103 20.6706 7.65103 20.8176 8.82003C22.2666 8.05003 23.5126 7.56703 24.6186 9.00903C25.3676 9.97503 25.2626 10.85 25.0386 11.41C24.1006 13.783 19.3406 15.064 17.7446 15.323C17.3596 15.386 17.0236 15.407 16.7226 15.407L16.7156 15.4ZM13.4676 13.923H14.9796C15.3576 13.923 15.6866 13.944 15.9876 13.965C16.5126 14 16.9256 14.028 17.5136 13.93C19.7046 13.573 23.1836 12.278 23.7296 10.885C23.8206 10.661 23.8766 10.339 23.5056 9.85603C22.6096 8.69403 20.6566 10.549 20.6286 10.57C20.4256 10.724 20.1456 10.745 19.9146 10.64C19.6836 10.528 19.5296 10.304 19.5156 10.045C19.4456 8.82703 18.4166 6.60803 17.8216 5.81003C17.3876 5.23603 17.1426 5.04003 16.6736 4.90703C16.4986 4.85803 16.3376 4.95603 15.9176 5.30603C15.4976 5.65603 14.9726 6.09003 14.2236 6.09003C13.4746 6.09003 12.9496 5.65603 12.5296 5.30603C12.1096 4.95603 11.9486 4.85803 11.7666 4.90703C11.2976 5.04003 11.0526 5.23603 10.6186 5.81003C10.0166 6.60803 8.98756 8.82703 8.92456 10.045C8.91056 10.297 8.76356 10.521 8.53256 10.633C8.30156 10.745 8.03556 10.724 7.82556 10.577C7.79756 10.556 5.62056 8.62403 4.53556 9.88403C4.12956 10.36 4.17156 10.661 4.24856 10.871C4.79456 12.278 8.77756 13.615 11.2766 13.923C11.7876 13.986 12.1516 13.965 12.5996 13.944C12.8586 13.93 13.1316 13.916 13.4606 13.916L13.4676 13.923Z" fill="#002454"/>
<path d="M14.9028 12.6065C12.1868 12.6065 9.54776 12.0885 8.88276 11.8645C8.51876 11.7455 8.31576 11.3465 8.44176 10.9755C8.56076 10.6115 8.95976 10.4085 9.33076 10.5345C10.4648 10.9125 16.1488 11.8155 18.9768 10.5625C19.3338 10.4015 19.7468 10.5625 19.9008 10.9195C20.0548 11.2695 19.9008 11.6895 19.5438 11.8435C18.2558 12.4175 16.5688 12.6065 14.9098 12.6065H14.9028Z" fill="#002454"/>
<path d="M14.5417 25.5647C11.8574 25.5647 8.8328 24.3119 7.91226 21.4352C6.73644 17.7677 7.0304 13.9882 7.03813 13.8343C7.06908 13.4493 7.43265 13.1554 7.86585 13.1903C8.29131 13.2183 8.60847 13.5543 8.57753 13.9392C8.57753 13.9742 8.29904 17.6278 9.38977 21.0503C10.1092 23.297 12.6001 24.2279 14.7428 24.1649C16.5684 24.1089 18.8814 23.269 19.3997 21.0993C20.2429 17.5998 20.15 13.7293 20.15 13.6873C20.1423 13.3023 20.4749 12.9804 20.9081 12.9734C21.3258 12.9454 21.6894 13.2673 21.6972 13.6593C21.6972 13.8273 21.79 17.7327 20.9159 21.4002C20.3279 23.8359 17.9299 25.4737 14.797 25.5717C14.7119 25.5717 14.6191 25.5717 14.534 25.5717L14.5417 25.5647Z" fill="#002454"/>
<path d="M8.75001 20.3C8.43501 20.3 8.14801 20.09 8.07101 19.768C7.98001 19.39 8.20401 19.012 8.58201 18.921C8.68001 18.9 10.983 18.326 12.544 18.2C13.846 18.095 14.602 18.116 15.799 18.2C17.493 18.319 19.999 18.893 20.104 18.914C20.482 18.998 20.72 19.376 20.629 19.754C20.545 20.132 20.167 20.37 19.789 20.279C19.761 20.279 17.283 19.705 15.694 19.593C14.546 19.516 13.867 19.495 12.649 19.593C11.2 19.712 8.93201 20.272 8.91101 20.272C8.85501 20.286 8.79901 20.293 8.74301 20.293L8.75001 20.3Z" fill="#002454"/>
<path d="M11.8999 17.85C11.8299 17.85 11.7529 17.836 11.6759 17.815L10.6259 17.465C10.2619 17.346 10.0589 16.947 10.1849 16.583C10.3039 16.219 10.7029 16.016 11.0739 16.142L12.1239 16.492C12.4879 16.611 12.6909 17.01 12.5649 17.374C12.4669 17.668 12.1939 17.85 11.8999 17.85Z" fill="#002454"/>
<path d="M16.8004 17.85C16.5064 17.85 16.2334 17.668 16.1354 17.374C16.0164 17.01 16.2124 16.611 16.5764 16.492L17.6264 16.142C17.9974 16.016 18.3894 16.219 18.5084 16.583C18.6274 16.947 18.4314 17.346 18.0674 17.465L17.0174 17.815C16.9404 17.843 16.8704 17.85 16.7934 17.85H16.8004Z" fill="#002454"/>
</svg>
