<svg width="20" height="21" viewBox="0 0 20 21" fill="none" xmlns="http://www.w3.org/2000/svg">
<path d="M17.5 4.9849C14.725 4.7099 11.9333 4.56824 9.15 4.56824C7.5 4.56824 5.85 4.65157 4.2 4.81824L2.5 4.9849" stroke="#667C98" stroke-width="1.5" stroke-linecap="round" stroke-linejoin="round"/>
<path d="M7.08325 4.14327L7.26659 3.05161C7.39992 2.25994 7.49992 1.66827 8.90825 1.66827H11.0916C12.4999 1.66827 12.6083 2.29327 12.7333 3.05994L12.9166 4.14327" stroke="#667C98" stroke-width="1.5" stroke-linecap="round" stroke-linejoin="round"/>
<path d="M15.7084 7.61823L15.1667 16.0099C15.0751 17.3182 15.0001 18.3349 12.6751 18.3349H7.32508C5.00008 18.3349 4.92508 17.3182 4.83341 16.0099L4.29175 7.61823" stroke="#667C98" stroke-width="1.5" stroke-linecap="round" stroke-linejoin="round"/>
<path d="M8.6084 13.7516H11.3834" stroke="#667C98" stroke-width="1.5" stroke-linecap="round" stroke-linejoin="round"/>
<path d="M7.91675 10.4183H12.0834" stroke="#667C98" stroke-width="1.5" stroke-linecap="round" stroke-linejoin="round"/>
</svg>
