<svg width="56" height="55" viewBox="0 0 56 55" fill="none" xmlns="http://www.w3.org/2000/svg">
<g id="Group 37951">
<path id="Vector" d="M25.8019 37.9932H24.1152V39.6798H25.8019V37.9932Z" fill="#FF6961"/>
<path id="Vector_2" d="M6.83307 43.1946H13.7274C14.1969 43.1946 14.5707 42.8208 14.5707 42.3513V33.9703C14.5707 33.5008 14.1969 33.127 13.7274 33.127H6.83307C6.36359 33.127 5.98975 33.5008 5.98975 33.9703V42.3513C5.98975 42.8208 6.36359 43.1946 6.83307 43.1946ZM7.66769 34.8223H12.8754V41.5167H7.66769V34.8223Z" fill="#FF6961"/>
<path id="Vector_3" d="M41.9102 43.1946H48.8046C49.274 43.1946 49.6479 42.8208 49.6479 42.3513V33.9703C49.6479 33.5008 49.274 33.127 48.8046 33.127H41.9102C41.4407 33.127 41.0669 33.5008 41.0669 33.9703V42.3513C41.0669 42.8208 41.4494 43.1946 41.9102 43.1946ZM42.7535 34.8223H47.9612V41.5167H42.7535V34.8223Z" fill="#FF6961"/>
<path id="Vector_4" d="M55.633 25.9709C55.633 25.8753 55.6156 25.7797 55.5721 25.684V25.6753L52.1989 17.8072C52.0684 17.4943 51.7642 17.2943 51.4251 17.2943H40.0272L29.5249 9.83483C28.499 9.10454 27.1253 9.10454 26.1081 9.83483L15.6058 17.2943H12.6324V14.66H13.0062C13.4757 14.66 13.8496 14.2862 13.8496 13.8167V10.7825C13.8496 10.313 13.4757 9.93916 13.0062 9.93916H5.49462C5.02514 9.93916 4.6513 10.313 4.6513 10.7825V13.8167C4.6513 14.2862 5.02514 14.66 5.49462 14.66H5.86846V17.2943H4.2166C3.87753 17.2943 3.57324 17.4943 3.44283 17.8072L0.0695521 25.6753V25.684C0.0347761 25.7797 0.017388 25.8753 0.00869401 25.9709C0.00869401 25.9796 0 25.997 0 26.0057V29.7615C0 30.231 0.373843 30.6048 0.843319 30.6048H1.77358V54.1569C1.77358 54.6264 2.14742 55.0002 2.6169 55.0002H53.0335C53.503 55.0002 53.8768 54.6264 53.8768 54.1569V30.6048H54.8071C55.2765 30.6048 55.6504 30.231 55.6504 29.7615V26.0057C55.6417 25.997 55.633 25.9883 55.633 25.9709ZM53.5203 25.1624H38.5493V23.3192C38.8449 23.4149 39.1578 23.467 39.4708 23.467C40.4272 23.467 41.3226 23.0063 41.8791 22.2238C42.5833 21.2327 42.5833 19.9547 41.9921 18.9809H50.8687L53.5203 25.1624ZM36.8626 49.523H18.7791V47.4104H36.8626V49.523ZM32.3243 45.7237H23.3173V32.4567H32.3243V45.7237ZM36.8626 22.6411V26.0144V29.7702V45.7324H34.011V31.6133C34.011 31.1439 33.6371 30.77 33.1677 30.77H22.474C22.0045 30.77 21.6307 31.1439 21.6307 31.6133V45.7237H18.7791V29.7615V26.0057V22.6324C18.7791 22.5194 18.753 22.4238 18.7182 22.3281L27.8208 15.8598L36.9235 22.3281C36.88 22.4238 36.8626 22.5281 36.8626 22.6411ZM18.7791 51.2096H36.8626V53.3136H18.7791V51.2096ZM27.0905 11.2085C27.3079 11.052 27.5687 10.9737 27.8208 10.9737C28.073 10.9737 28.3338 11.052 28.5511 11.2085L40.2011 19.4852C40.4793 19.6852 40.6619 19.9721 40.7141 20.3024C40.7662 20.6328 40.6967 20.9719 40.4967 21.2501C40.1055 21.7978 39.2882 21.9369 38.7318 21.5457L28.299 14.1297C28.0034 13.921 27.6122 13.921 27.3253 14.1297L16.8925 21.5457C16.6143 21.7369 16.2839 21.8152 15.9448 21.763C15.6144 21.7109 15.3189 21.5283 15.1276 21.2501C14.7277 20.685 14.8581 19.8938 15.4232 19.4852L27.0905 11.2085ZM6.33794 11.6345H12.1716V12.9821H11.7978H6.71178H6.33794V11.6345ZM7.5551 14.6687H10.9545V17.303H7.5551V14.6687ZM4.77301 18.9896H13.6496C13.0584 19.9634 13.0584 21.2414 13.7626 22.2325C14.2147 22.8759 14.9015 23.3019 15.6753 23.4323C15.8405 23.4584 16.0057 23.4757 16.1709 23.4757C16.4839 23.4757 16.7968 23.4236 17.0924 23.3279V25.1711H2.12134L4.77301 18.9896ZM1.68664 26.849H17.1011V28.9182H2.6169H1.68664V26.849ZM17.0924 30.6048V45.7237H3.46022V30.6048H17.0924ZM3.46022 47.4104H17.1011V53.3136H3.46022V47.4104ZM52.1815 53.3136H38.5493V47.4104H52.1902V53.3136H52.1815ZM52.1815 45.7237H38.5493V30.6048H52.1902V45.7237H52.1815ZM53.955 28.9182H53.0248H38.5493V26.849H53.955V28.9182Z" fill="#FF6961"/>
<path id="Vector_5" d="M24.1152 24.3179C24.1152 26.361 25.7758 28.0216 27.8189 28.0216C29.862 28.0216 31.5225 26.361 31.5225 24.3179C31.5225 22.2748 29.862 20.6143 27.8189 20.6143C25.7758 20.6143 24.1152 22.2835 24.1152 24.3179ZM29.8359 24.3179C29.8359 25.4307 28.9317 26.3349 27.8189 26.3349C26.7061 26.3349 25.8019 25.4307 25.8019 24.3179C25.8019 23.2051 26.7061 22.3009 27.8189 22.3009C28.9317 22.3009 29.8359 23.2051 29.8359 24.3179Z" fill="#FF6961"/>
<path id="Vector_6" d="M4.40777 1.68664H11.3978V3.20809H7.37243C6.90295 3.20809 6.52911 3.58193 6.52911 4.05141C6.52911 4.52089 6.90295 4.89473 7.37243 4.89473H9.41552V6.30316H8.54612C8.07665 6.30316 7.7028 6.677 7.7028 7.14648V8.33756C7.7028 8.80704 8.07665 9.18088 8.54612 9.18088C9.0156 9.18088 9.38944 8.80704 9.38944 8.33756V7.9898H13.3104C13.7799 7.9898 14.1538 7.61596 14.1538 7.14648C14.1538 6.677 13.7799 6.30316 13.3104 6.30316H11.1022V4.89473H16.1447C16.6142 4.89473 16.988 4.52089 16.988 4.05141C16.988 3.58193 16.6142 3.20809 16.1447 3.20809H13.0844V1.68664H15.5535C16.023 1.68664 16.3968 1.3128 16.3968 0.843319C16.3968 0.373842 16.023 0 15.5535 0H4.40777C3.94699 0 3.56445 0.373842 3.56445 0.843319C3.56445 1.3128 3.94699 1.68664 4.40777 1.68664Z" fill="#FF6961"/>
</g>
</svg>
