<svg width="16" height="16" viewBox="0 0 16 16" fill="none" xmlns="http://www.w3.org/2000/svg">
<path d="M13.6173 8.14689C13.344 8.14689 13.1173 7.92022 13.1173 7.64689V5.43359C13.1173 4.60693 12.444 3.93359 11.6173 3.93359H2.39062C2.11729 3.93359 1.89062 3.70693 1.89062 3.43359C1.89062 3.16026 2.11729 2.93359 2.39062 2.93359H11.6173C12.9973 2.93359 14.1173 4.05359 14.1173 5.43359V7.64689C14.1173 7.92689 13.8906 8.14689 13.6173 8.14689Z" fill="#FF6961"/>
<path d="M4.49729 6.04763C4.37063 6.04763 4.24396 6.00094 4.14396 5.90094L2.03729 3.79429C1.94396 3.70096 1.89062 3.57427 1.89062 3.44094C1.89062 3.30761 1.94396 3.18096 2.03729 3.08763L4.14396 0.980937C4.33729 0.787604 4.65729 0.787604 4.85063 0.980937C5.04396 1.17427 5.04396 1.49431 4.85063 1.68764L3.09731 3.44094L4.85063 5.19428C5.04396 5.38761 5.04396 5.70761 4.85063 5.90094C4.75063 5.99427 4.62396 6.04763 4.49729 6.04763Z" fill="#FF6961"/>
<path d="M13.6173 13.061H4.39062C3.01063 13.061 1.89062 11.941 1.89062 10.561V8.34766C1.89062 8.07432 2.11729 7.84766 2.39062 7.84766C2.66396 7.84766 2.89062 8.07432 2.89062 8.34766V10.561C2.89062 11.3877 3.56396 12.061 4.39062 12.061H13.6173C13.8906 12.061 14.1173 12.2877 14.1173 12.561C14.1173 12.8343 13.8906 13.061 13.6173 13.061Z" fill="#FF6961"/>
<path d="M11.5061 15.1648C11.3795 15.1648 11.2528 15.1181 11.1528 15.0181C10.9595 14.8248 10.9595 14.5048 11.1528 14.3114L12.9061 12.5581L11.1528 10.8048C10.9595 10.6115 10.9595 10.2915 11.1528 10.0981C11.3461 9.90479 11.6661 9.90479 11.8595 10.0981L13.9661 12.2048C14.0595 12.2981 14.1128 12.4248 14.1128 12.5581C14.1128 12.6915 14.0595 12.8181 13.9661 12.9114L11.8595 15.0181C11.7661 15.1181 11.6395 15.1648 11.5061 15.1648Z" fill="#FF6961"/>
</svg>
