<svg width="24" height="25" viewBox="0 0 24 25" fill="none" xmlns="http://www.w3.org/2000/svg">
<g id="vuesax/twotone/call-calling">
<g id="call-calling">
<path id="Vector" d="M21.97 18.7812C21.97 19.1412 21.89 19.5112 21.72 19.8712C21.55 20.2312 21.33 20.5712 21.04 20.8912C20.55 21.4312 20.01 21.8212 19.4 22.0712C18.8 22.3212 18.15 22.4512 17.45 22.4512C16.43 22.4512 15.34 22.2112 14.19 21.7212C13.04 21.2312 11.89 20.5712 10.75 19.7412C9.6 18.9012 8.51 17.9712 7.47 16.9412C6.44 15.9012 5.51 14.8112 4.68 13.6712C3.86 12.5312 3.2 11.3912 2.72 10.2612C2.24 9.12117 2 8.03117 2 6.99117C2 6.31117 2.12 5.66117 2.36 5.06117C2.6 4.45117 2.98 3.89117 3.51 3.39117C4.15 2.76117 4.85 2.45117 5.59 2.45117C5.87 2.45117 6.15 2.51117 6.4 2.63117C6.66 2.75117 6.89 2.93117 7.07 3.19117L9.39 6.46117C9.57 6.71117 9.7 6.94117 9.79 7.16117C9.88 7.37117 9.93 7.58117 9.93 7.77117C9.93 8.01117 9.86 8.25117 9.72 8.48117C9.59 8.71117 9.4 8.95117 9.16 9.19117L8.4 9.98117C8.29 10.0912 8.24 10.2212 8.24 10.3812C8.24 10.4612 8.25 10.5312 8.27 10.6112C8.3 10.6912 8.33 10.7512 8.35 10.8112C8.53 11.1412 8.84 11.5712 9.28 12.0912C9.73 12.6112 10.21 13.1412 10.73 13.6712C11.27 14.2012 11.79 14.6912 12.32 15.1412C12.84 15.5812 13.27 15.8812 13.61 16.0612C13.66 16.0812 13.72 16.1112 13.79 16.1412C13.87 16.1712 13.95 16.1812 14.04 16.1812C14.21 16.1812 14.34 16.1212 14.45 16.0112L15.21 15.2612C15.46 15.0112 15.7 14.8212 15.93 14.7012C16.16 14.5612 16.39 14.4912 16.64 14.4912C16.83 14.4912 17.03 14.5312 17.25 14.6212C17.47 14.7112 17.7 14.8412 17.95 15.0112L21.26 17.3612C21.52 17.5412 21.7 17.7512 21.81 18.0012C21.91 18.2512 21.97 18.5012 21.97 18.7812Z" stroke="#667C98" stroke-width="1.5" stroke-miterlimit="10"/>
<path id="Vector_2" opacity="0.4" d="M18.5 9.45117C18.5 8.85117 18.03 7.93117 17.33 7.18117C16.69 6.49117 15.84 5.95117 15 5.95117" stroke="#667C98" stroke-width="1.5" stroke-linecap="round" stroke-linejoin="round"/>
<path id="Vector_3" opacity="0.4" d="M22 9.45117C22 5.58117 18.87 2.45117 15 2.45117" stroke="#667C98" stroke-width="1.5" stroke-linecap="round" stroke-linejoin="round"/>
</g>
</g>
</svg>
