<svg width="28" height="28" viewBox="0 0 28 28" fill="none" xmlns="http://www.w3.org/2000/svg">
<path fill-rule="evenodd" clip-rule="evenodd" d="M13.1653 1.49514C13.5351 1.38393 13.9341 1.52832 14.1472 1.85046L14.1696 1.88442C15.4185 3.77307 16.5757 5.52317 16.9654 7.79231C17.3216 9.86688 17.0269 12.2786 15.8202 15.5629C15.9003 15.5473 15.9761 15.5262 16.0481 15.5006C16.3741 15.3847 16.6931 15.1503 16.9985 14.7632C17.6278 13.9653 18.1054 12.6364 18.3883 10.9392C18.445 10.5987 18.6967 10.3233 19.0308 10.2363C19.3649 10.1493 19.7189 10.2669 19.9346 10.5365C22.3508 13.5567 23.4792 16.7206 23.0302 19.3946L23.027 19.4137C22.9216 20.0433 22.3858 23.2431 19.7763 25.1998C18.3741 26.2513 16.0905 26.6399 13.9904 26.6152C11.8801 26.5904 9.63708 26.1443 8.26295 25.2276C6.95485 24.355 5.50318 22.743 4.85224 20.6786C4.18575 18.5648 4.38077 16.0356 6.30051 13.4749C7.05161 12.473 7.81203 11.58 8.51808 10.7509C8.56319 10.698 8.60807 10.6453 8.65272 10.5928C9.40329 9.7109 10.0813 8.90508 10.661 8.07432C11.7982 6.44437 12.5423 4.73919 12.5423 2.33308C12.5423 1.94688 12.7955 1.60636 13.1653 1.49514ZM14.0145 4.91366C13.652 6.50916 12.9607 7.8366 12.0962 9.07568C11.4615 9.98527 10.7304 10.8517 9.9854 11.727C9.94281 11.7771 9.90016 11.8272 9.85744 11.8773C9.14593 12.7129 8.41808 13.5677 7.70072 14.5246C6.12192 16.6306 6.02306 18.5723 6.52125 20.1523C7.03498 21.7817 8.20654 23.0864 9.23411 23.7718C10.1956 24.4133 12.0372 24.8422 14.0109 24.8653C15.9948 24.8887 17.7949 24.4982 18.7264 23.7997C20.757 22.2771 21.206 19.6906 21.3044 19.1049C21.5771 17.4806 21.0824 15.4066 19.6712 13.1716C19.36 14.2063 18.9369 15.1314 18.3725 15.847C17.9128 16.4297 17.3389 16.899 16.6344 17.1495C15.9236 17.4022 15.1503 17.4069 14.3422 17.1738C14.1041 17.1051 13.9063 16.9387 13.7979 16.7159C13.6895 16.4931 13.6806 16.2347 13.7735 16.005C15.2732 12.2968 15.5578 9.93548 15.2406 8.08847C15.0447 6.94728 14.6145 5.95729 14.0145 4.91366Z" fill="#002454"/>
</svg>
