<svg width="20" height="20" viewBox="0 0 20 20" fill="none" xmlns="http://www.w3.org/2000/svg">
<g id="vuesax/bold/info-circle">
<g id="info-circle">
<path id="Vector" d="M9.99967 18.333C14.5913 18.333 18.333 14.5913 18.333 9.99967C18.333 5.40801 14.5913 1.66634 9.99968 1.66634C5.40801 1.66634 1.66634 5.40801 1.66634 9.99967C1.66634 14.5913 5.40801 18.333 9.99967 18.333ZM10.6247 13.333C10.6247 13.6747 10.3413 13.958 9.99968 13.958C9.65801 13.958 9.37468 13.6747 9.37468 13.333L9.37468 9.16634C9.37468 8.82467 9.65801 8.54134 9.99968 8.54134C10.3413 8.54134 10.6247 8.82467 10.6247 9.16634L10.6247 13.333ZM9.23301 6.34967C9.27468 6.24134 9.33301 6.15801 9.40801 6.07467C9.49134 5.99967 9.58301 5.94134 9.68301 5.89967C9.78301 5.85801 9.89134 5.83301 9.99968 5.83301C10.108 5.83301 10.2163 5.85801 10.3163 5.89967C10.4163 5.94134 10.508 5.99968 10.5913 6.07467C10.6663 6.15801 10.7247 6.24134 10.7663 6.34967C10.808 6.44967 10.833 6.55801 10.833 6.66634C10.833 6.77467 10.808 6.88301 10.7663 6.98301C10.7247 7.08301 10.6663 7.17467 10.5913 7.25801C10.508 7.33301 10.4163 7.39134 10.3163 7.43301C10.1163 7.51634 9.88301 7.51634 9.68301 7.43301C9.58301 7.39134 9.49134 7.33301 9.40801 7.25801C9.33301 7.17467 9.27468 7.08301 9.23301 6.98301C9.19134 6.88301 9.16634 6.77467 9.16634 6.66634C9.16634 6.55801 9.19134 6.44967 9.23301 6.34967Z" fill="#9648FF"/>
</g>
</g>
</svg>
