<svg width="8" height="25" viewBox="0 0 8 25" fill="none" xmlns="http://www.w3.org/2000/svg">
<path d="M1.78906 14.5279C1.78906 15.8252 2.85718 16.8933 4.1545 16.8933C5.45182 16.8933 6.51994 15.8252 6.51994 14.5279L6.51994 3.75829C6.51994 2.46097 5.45182 1.39285 4.1545 1.39285C2.85718 1.39285 1.78906 2.46097 1.78906 3.75829L1.78906 14.5279Z" fill="white" stroke="#DEAC13" stroke-width="1.5"/>
<path d="M2.06716 23.0199L2.09357 23.0493L2.12291 23.0757C2.39904 23.3242 2.70758 23.5214 3.04697 23.6628C3.38215 23.8025 3.76013 23.8929 4.15392 23.8929C4.5477 23.8929 4.92568 23.8025 5.26086 23.6629C5.60025 23.5214 5.90879 23.3242 6.18492 23.0757L6.21426 23.0493L6.24067 23.0199C6.47401 22.7607 6.68222 22.471 6.83176 22.0864C6.96918 21.7536 7.05783 21.379 7.05783 20.9889C7.05783 20.5952 6.96749 20.2172 6.82783 19.882C6.68642 19.5426 6.48918 19.2341 6.24067 18.9579L6.21426 18.9286L6.18492 18.9022C5.90879 18.6537 5.60024 18.4564 5.26086 18.315C4.55931 18.0227 3.74852 18.0227 3.04697 18.315C2.70759 18.4564 2.39904 18.6537 2.12291 18.9022L2.09357 18.9286L2.06716 18.9579C1.81865 19.2341 1.62141 19.5426 1.48001 19.882C1.34034 20.2172 1.25 20.5952 1.25 20.9889C1.25 21.379 1.33865 21.7536 1.47607 22.0864C1.62561 22.471 1.83382 22.7607 2.06716 23.0199Z" fill="white" stroke="#DEAC13" stroke-width="1.5"/>
</svg>
