<svg width="40" height="40" viewBox="0 0 40 40" fill="none" xmlns="http://www.w3.org/2000/svg">
<path d="M11.6154 18.1757V17.8846C11.6154 12.9778 15.5932 9 20.5 9V9C25.4068 9 29.3846 12.9778 29.3846 17.8846V18.1757M29.365 21.7662H29.4042C30.2855 21.7662 31 21.0518 31 20.1704V20.1704C31 19.2891 30.2855 18.5747 29.4042 18.5747H29.365C28.4837 18.5747 27.7692 19.2891 27.7692 20.1704V20.1704C27.7692 21.0518 28.4837 21.7662 29.365 21.7662ZM27.3458 25.3567H27.385C28.2663 25.3567 28.9808 24.6423 28.9808 23.7609V23.7609C28.9808 22.8796 28.2663 22.1652 27.385 22.1652H27.3458C26.4645 22.1652 25.75 22.8796 25.75 23.7609V23.7609C25.75 24.6423 26.4645 25.3567 27.3458 25.3567ZM24.5189 28.5483H24.5581C25.4394 28.5483 26.1538 27.8338 26.1538 26.9525V26.9525C26.1538 26.0712 25.4394 25.3567 24.5581 25.3567H24.5189C23.6375 25.3567 22.9231 26.0712 22.9231 26.9525V26.9525C22.9231 27.8338 23.6375 28.5483 24.5189 28.5483ZM20.4723 32H20.5277C21.7731 32 22.7826 30.9904 22.7826 29.7451V29.7451C22.7826 28.4998 21.7731 27.4902 20.5277 27.4902H20.4723C19.2269 27.4902 18.2174 28.4998 18.2174 29.7451V29.7451C18.2174 30.9904 19.2269 32 20.4723 32ZM16.4419 28.5483H16.4811C17.3625 28.5483 18.0769 27.8338 18.0769 26.9525V26.9525C18.0769 26.0712 17.3625 25.3567 16.4811 25.3567H16.4419C15.5606 25.3567 14.8462 26.0712 14.8462 26.9525V26.9525C14.8462 27.8338 15.5606 28.5483 16.4419 28.5483ZM13.615 25.3567H13.6542C14.5355 25.3567 15.25 24.6423 15.25 23.7609V23.7609C15.25 22.8796 14.5355 22.1652 13.6542 22.1652H13.615C12.7337 22.1652 12.0192 22.8796 12.0192 23.7609V23.7609C12.0192 24.6423 12.7337 25.3567 13.615 25.3567ZM11.5958 21.7662H11.635C12.5163 21.7662 13.2308 21.0518 13.2308 20.1704V20.1704C13.2308 19.2891 12.5163 18.5747 11.635 18.5747H11.5958C10.7145 18.5747 10 19.2891 10 20.1704V20.1704C10 21.0518 10.7145 21.7662 11.5958 21.7662Z" stroke="#667C98" stroke-width="1.5" stroke-linecap="round"/>
<rect x="0.75" y="0.75" width="38.5" height="38.5" rx="19.25" stroke="#667C98" stroke-width="1.5"/>
</svg>
