<svg width="25" height="24" viewBox="0 0 25 24" fill="none" xmlns="http://www.w3.org/2000/svg">
<path d="M22.24 20.5102L21.38 19.6502C21.83 18.9702 22.09 18.1602 22.09 17.2902C22.09 14.9202 20.17 12.9902 17.79 12.9902C15.41 12.9902 13.5 14.9202 13.5 17.3002C13.5 19.6802 15.42 21.6002 17.8 21.6002C18.67 21.6002 19.48 21.3402 20.16 20.8902L21.02 21.7502C21.19 21.9202 21.41 22.0102 21.64 22.0102C21.87 22.0102 22.09 21.9202 22.26 21.7502C22.59 21.4002 22.59 20.8502 22.24 20.5102Z" fill="#002454"/>
<path d="M22.5 8.72965C22.5 9.91965 22.31 11.0196 21.98 12.0396C21.92 12.2496 21.67 12.3096 21.49 12.1796C20.4 11.3696 19.07 10.9396 17.7 10.9396C14.23 10.9396 11.4 13.7696 11.4 17.2396C11.4 18.3196 11.68 19.3796 12.21 20.3196C12.37 20.5996 12.18 20.9597 11.88 20.8496C9.47 20.0296 4.6 17.0396 3.02 12.0396C2.69 11.0196 2.5 9.91965 2.5 8.72965C2.5 5.63965 4.99 3.13965 8.06 3.13965C9.87 3.13965 11.49 4.01965 12.5 5.36965C13.51 4.01965 15.13 3.13965 16.94 3.13965C20.01 3.13965 22.5 5.63965 22.5 8.72965Z" fill="#002454"/>
</svg>
