<svg width="99" height="101" viewBox="0 0 99 101" fill="none" xmlns="http://www.w3.org/2000/svg">
<path fill-rule="evenodd" clip-rule="evenodd" d="M63.1748 18.1121C71.1259 18.5539 79.0558 21.142 84.8902 26.9871C90.7258 32.8336 94.228 41.2131 94.9493 49.9454C95.6279 58.1607 91.7783 65.6707 88.7149 73.2893C85.5963 81.0453 83.5724 90.0841 77.0133 94.5518C70.3873 99.0652 62.0428 98.0926 54.4774 96.6104C47.3787 95.2197 44.2328 87.7704 38.6678 82.8035C32.7906 77.558 23.9379 75.4365 21.7642 67.4129C19.4626 58.9172 19.7205 49.3694 23.3931 41.3324C27.0018 33.435 34.2506 28.707 41.3427 24.5674C48.193 20.569 55.5116 17.6863 63.1748 18.1121Z" fill="#F9D7D7"/>
<path d="M86.625 24.6675C72.8888 23.3062 59.07 22.605 45.2925 22.605C37.125 22.605 28.9575 23.0175 20.79 23.8425L12.375 24.6675" stroke="#DF3636" stroke-width="5" stroke-linecap="round" stroke-linejoin="round"/>
<path d="M35.0625 20.5012L35.97 15.0975C36.63 11.1788 37.125 8.25 44.0962 8.25H54.9038C61.875 8.25 62.4112 11.3438 63.03 15.1388L63.9375 20.5012" stroke="#DF3636" stroke-width="5" stroke-linecap="round" stroke-linejoin="round"/>
<path d="M77.7562 37.7025L75.0749 79.2413C74.6212 85.7175 74.2499 90.75 62.7412 90.75H36.2587C24.7499 90.75 24.3787 85.7175 23.9249 79.2413L21.2437 37.7025" stroke="#DF3636" stroke-width="5" stroke-linecap="round" stroke-linejoin="round"/>
<path d="M42.6113 68.0625H56.3476" stroke="#DF3636" stroke-width="5" stroke-linecap="round" stroke-linejoin="round"/>
<path d="M39.1875 51.5625H59.8125" stroke="#DF3636" stroke-width="5" stroke-linecap="round" stroke-linejoin="round"/>
</svg>
