<svg width="24" height="24" viewBox="0 0 24 24" fill="none" xmlns="http://www.w3.org/2000/svg">
<path fill-rule="evenodd" clip-rule="evenodd" d="M7.9703 0.0290073C9.66784 -0.152091 11.3996 0.531879 12.6919 1.60323C13.9259 2.62622 14.2792 4.2263 14.8155 5.70383C15.3653 7.21843 16.389 8.77544 15.8458 10.2922C15.3043 11.8045 13.514 12.4436 12.0993 13.2892C10.795 14.0688 9.50689 15.0217 7.9703 14.9996C6.44418 14.9777 5.18233 14.0092 3.93012 13.172C2.65083 12.3168 1.29651 11.482 0.66376 10.1149C-0.00938688 8.66045 -0.27395 6.93558 0.363873 5.46656C0.983317 4.03987 2.66284 3.45882 3.95467 2.53534C5.26728 1.59701 6.34336 0.202575 7.9703 0.0290073Z" fill="#FFC3C0"/>
<path fill-rule="evenodd" clip-rule="evenodd" d="M19.9389 3.54447C19.9356 3.35136 19.74 3.25033 19.5967 3.31874C18.8358 3.68212 17.8818 4.15755 17.0339 4.63824C16.466 4.96018 15.99 5.2605 15.6519 5.51311C16.9996 6.15111 18.2046 7.10979 19.1933 8.24764C19.921 6.60541 19.9657 5.11205 19.9389 3.54447ZM14.1068 4.88456C14.0923 4.90079 14.0786 4.91747 14.0658 4.93456C13.3992 4.76146 12.7082 4.66797 12 4.66797C11.2999 4.66797 10.6166 4.75933 9.9571 4.92865C9.94558 4.91362 9.93341 4.89891 9.92059 4.88456C9.46633 4.37618 8.5909 3.81957 7.7332 3.33334C6.84146 2.82781 5.85194 2.33524 5.07704 1.96517C3.91735 1.41134 2.61004 2.26827 2.58865 3.51882C2.55863 5.27332 2.60419 7.19202 3.69234 9.33893C3.72943 9.4121 3.77687 9.47657 3.83199 9.53147C2.67808 11.2785 2 13.2774 2 15.1402C2 19.9267 6.47715 22.0013 12 22.0013C17.5228 22.0013 22 19.9267 22 15.1402C22 13.2832 21.3261 11.2908 20.1786 9.5476C20.2409 9.48934 20.2942 9.41939 20.335 9.33893C21.4232 7.19202 21.4687 5.27332 21.4387 3.51882C21.4173 2.26827 20.11 1.41134 18.9503 1.96517C18.1754 2.33524 17.1859 2.82781 16.2941 3.33334C15.4364 3.81957 14.561 4.37618 14.1068 4.88456ZM4.82489 8.2268C5.81419 7.09338 7.01862 6.1393 8.36488 5.5052C8.02747 5.25425 7.55544 4.95683 6.99345 4.63824C6.14552 4.15755 5.19153 3.68212 4.43062 3.31874C4.28739 3.25033 4.09173 3.35136 4.08843 3.54447C4.06173 5.10541 4.10592 6.59277 4.82489 8.2268ZM18 14.915H20.4959C20.4862 14.6432 20.4591 14.366 20.4152 14.0854H18C17.5858 14.0854 17.25 13.7497 17.25 13.3354C17.25 12.9212 17.5858 12.5854 18 12.5854H20.0317C19.6034 11.3697 18.8935 10.1588 17.9539 9.11011C16.3517 7.3219 14.2317 6.16797 12 6.16797C9.76825 6.16797 7.6483 7.3219 6.04611 9.11011C5.10647 10.1588 4.39664 11.3697 3.96828 12.5854H6.33398C6.7482 12.5854 7.08398 12.9212 7.08398 13.3354C7.08398 13.7497 6.7482 14.0854 6.33398 14.0854H3.58484C3.54094 14.366 3.51379 14.6432 3.50406 14.915H6.33398C6.7482 14.915 7.08398 15.2508 7.08398 15.665C7.08398 16.0793 6.7482 16.415 6.33398 16.415H3.65077C3.94619 17.5759 4.66545 18.4403 5.71679 19.0892C7.20166 20.0057 9.39123 20.5013 12 20.5013C14.6088 20.5013 16.7983 20.0057 18.2832 19.0892C19.3345 18.4403 20.0538 17.5759 20.3492 16.415H18C17.5858 16.415 17.25 16.0793 17.25 15.665C17.25 15.2508 17.5858 14.915 18 14.915ZM9 9.33105C8.44772 9.33105 8 9.77877 8 10.3311V10.9977C8 11.55 8.44772 11.9977 9 11.9977C9.55228 11.9977 10 11.55 10 10.9977V10.3311C10 9.77877 9.55228 9.33105 9 9.33105ZM11.8164 15.9165L11.0807 14.8655H12.5521L11.8164 15.9165ZM13.0452 16.7767C12.9887 16.8575 12.9262 16.9306 12.8588 16.9961C13.4298 17.4373 14.3633 17.3336 14.7336 16.5519L14.9888 16.0131C15.1661 15.6388 15.6133 15.479 15.9877 15.6564C16.362 15.8337 16.5217 16.2809 16.3444 16.6552L16.0892 17.194C15.2464 18.9732 13.0894 19.1701 11.833 18.1033C10.5766 19.1701 8.41958 18.9732 7.57681 17.194L7.32161 16.6552C7.14429 16.2809 7.30401 15.8337 7.67835 15.6564C8.05269 15.479 8.4999 15.6388 8.67722 16.0131L8.93242 16.5519C9.29873 17.3252 10.2162 17.435 10.7886 17.0101C10.7157 16.9411 10.6482 16.8633 10.5875 16.7767L9.85186 15.7257C9.15595 14.7316 9.86718 13.3655 11.0807 13.3655H12.5521C13.7656 13.3655 14.4768 14.7316 13.7809 15.7257L13.0452 16.7767ZM13.334 10.3311C13.334 9.77877 13.7817 9.33105 14.334 9.33105C14.8863 9.33105 15.334 9.77877 15.334 10.3311V10.9977C15.334 11.55 14.8863 11.9977 14.334 11.9977C13.7817 11.9977 13.334 11.55 13.334 10.9977V10.3311Z" fill="#002454"/>
</svg>
