<svg width="24" height="24" viewBox="0 0 24 24" fill="none" xmlns="http://www.w3.org/2000/svg">
<g id="Group 38000">
<g id="Union">
<path d="M11.5495 13.1328C13.0411 13.1328 14.4536 14.3286 14.6995 15.7995C14.812 16.4911 14.6453 17.1495 14.2245 17.6453C13.8036 18.1411 13.187 18.4161 12.4828 18.4161H10.5328C9.9078 18.4161 9.3328 18.1703 8.92446 17.7245C8.51196 17.2786 8.31196 16.687 8.36613 16.062C8.50363 14.4453 9.92863 13.1328 11.5495 13.1328Z" fill="#667C98"/>
<path d="M11.0333 12.5247C11.7076 12.5247 12.2542 11.9781 12.2542 11.3038C12.2542 10.6296 11.7076 10.083 11.0333 10.083C10.3591 10.083 9.8125 10.6296 9.8125 11.3038C9.8125 11.9781 10.3591 12.5247 11.0333 12.5247Z" fill="#667C98"/>
<path d="M14.8253 11.9962C14.8253 12.5576 14.3701 13.0128 13.8087 13.0128C13.2472 13.0128 12.792 12.5576 12.792 11.9962C12.792 11.4347 13.2472 10.9795 13.8087 10.9795C14.3701 10.9795 14.8253 11.4347 14.8253 11.9962Z" fill="#667C98"/>
<path d="M15.3125 14.6377C15.7612 14.6377 16.125 14.2739 16.125 13.8252C16.125 13.3765 15.7612 13.0127 15.3125 13.0127C14.8638 13.0127 14.5 13.3765 14.5 13.8252C14.5 14.2739 14.8638 14.6377 15.3125 14.6377Z" fill="#667C98"/>
<path d="M9.40833 12.8087C9.40833 13.3701 8.95316 13.8253 8.39167 13.8253C7.83018 13.8253 7.375 13.3701 7.375 12.8087C7.375 12.2472 7.83018 11.792 8.39167 11.792C8.95316 11.792 9.40833 12.2472 9.40833 12.8087Z" fill="#667C98"/>
<path fill-rule="evenodd" clip-rule="evenodd" d="M17.31 21.5H6.19C2.21 21.5 1 20.3 1 16.36V8.14C1 4.2 2.21 3 6.19 3H17.3C21.28 3 22.49 4.2 22.49 8.14V8.62895C22.4966 8.66841 22.5 8.70885 22.5 8.75C22.5 8.79115 22.4966 8.83159 22.49 8.87105V16.35C22.5 20.3 21.29 21.5 17.31 21.5ZM6.19 4.5C3.09787 4.5 2.51737 5.02366 2.50039 8H20.9896C20.9726 5.02366 20.3921 4.5 17.3 4.5H6.19ZM20.99 9.5H2.5V16.35C2.5 19.45 3.05 19.99 6.19 19.99H17.3C20.44 19.99 20.99 19.45 20.99 16.35V9.5Z" fill="#667C98"/>
</g>
</g>
</svg>
