<svg width="24" height="25" viewBox="0 0 24 25" fill="none" xmlns="http://www.w3.org/2000/svg">
<path d="M12 22.7515C6.07 22.7515 1.25 17.9315 1.25 12.0015C1.25 6.07153 6.07 1.25153 12 1.25153C17.93 1.25153 22.75 6.07153 22.75 12.0015C22.75 17.9315 17.93 22.7515 12 22.7515ZM12 2.75153C6.9 2.75153 2.75 6.90153 2.75 12.0015C2.75 17.1015 6.9 21.2515 12 21.2515C17.1 21.2515 21.25 17.1015 21.25 12.0015C21.25 6.90153 17.1 2.75153 12 2.75153Z" fill="#219653"/>
<path d="M10.5799 15.5815C10.3799 15.5815 10.1899 15.5015 10.0499 15.3615L7.21994 12.5315C6.92994 12.2415 6.92994 11.7615 7.21994 11.4715C7.50994 11.1815 7.98994 11.1815 8.27994 11.4715L10.5799 13.7715L15.7199 8.63153C16.0099 8.34153 16.4899 8.34153 16.7799 8.63153C17.0699 8.92153 17.0699 9.40153 16.7799 9.69153L11.1099 15.3615C10.9699 15.5015 10.7799 15.5815 10.5799 15.5815Z" fill="#219653"/>
</svg>
