<svg width="32" height="32" viewBox="0 0 32 32" fill="none" xmlns="http://www.w3.org/2000/svg">
<path d="M18.7164 30.334H12.3297C10.1697 30.334 8.2097 29.494 6.79636 27.9473C5.38303 26.414 4.70303 24.3873 4.8897 22.2407C5.34303 16.774 10.1697 12.334 15.663 12.334C20.7164 12.334 25.4897 16.3873 26.3297 21.3607C26.7297 23.734 26.143 25.974 24.703 27.6807C23.2364 29.3873 21.1164 30.334 18.7164 30.334ZM15.6497 14.334C11.183 14.334 7.2497 17.9607 6.87636 22.414C6.74303 24.0007 7.23636 25.4807 8.26303 26.6007C9.2897 27.7207 10.7297 28.334 12.3164 28.334H18.703C20.503 28.334 22.0897 27.6407 23.143 26.4007C24.1964 25.1607 24.623 23.4807 24.3297 21.694C23.663 17.6407 19.7697 14.334 15.6497 14.334Z" fill="#FF6961"/>
<path d="M13.9583 11.0007C11.5717 11.0007 9.625 9.05398 9.625 6.66732C9.625 4.28065 11.5717 2.33398 13.9583 2.33398C16.345 2.33398 18.2917 4.28065 18.2917 6.66732C18.2917 9.05398 16.3583 11.0007 13.9583 11.0007ZM13.9583 4.33398C12.6783 4.33398 11.625 5.38732 11.625 6.66732C11.625 7.94732 12.6783 9.00065 13.9583 9.00065C15.2383 9.00065 16.2917 7.94732 16.2917 6.66732C16.2917 5.38732 15.2517 4.33398 13.9583 4.33398Z" fill="#FF6961"/>
<path d="M23.0651 12.6009C21.0384 12.6009 19.3984 10.9609 19.3984 8.93424C19.3984 6.90758 21.0384 5.26758 23.0651 5.26758C25.0918 5.26758 26.7318 6.90758 26.7318 8.93424C26.7318 10.9609 25.0918 12.6009 23.0651 12.6009ZM23.0651 7.26758C22.1451 7.26758 21.3984 8.01424 21.3984 8.93424C21.3984 9.85424 22.1451 10.6009 23.0651 10.6009C23.9851 10.6009 24.7318 9.85424 24.7318 8.93424C24.7318 8.01424 23.9851 7.26758 23.0651 7.26758Z" fill="#FF6961"/>
<path d="M28 17.9336C26.3467 17.9336 25 16.5869 25 14.9336C25 13.2803 26.3467 11.9336 28 11.9336C29.6533 11.9336 31 13.2803 31 14.9336C31 16.5869 29.6533 17.9336 28 17.9336ZM28 13.9336C27.4533 13.9336 27 14.3869 27 14.9336C27 15.4803 27.4533 15.9336 28 15.9336C28.5467 15.9336 29 15.4803 29 14.9336C29 14.3869 28.5467 13.9336 28 13.9336Z" fill="#FF6961"/>
<path d="M5.29167 15.2669C3.265 15.2669 1.625 13.6269 1.625 11.6003C1.625 9.57359 3.265 7.93359 5.29167 7.93359C7.31833 7.93359 8.95833 9.57359 8.95833 11.6003C8.95833 13.6269 7.31833 15.2669 5.29167 15.2669ZM5.29167 9.93359C4.37167 9.93359 3.625 10.6803 3.625 11.6003C3.625 12.5203 4.37167 13.2669 5.29167 13.2669C6.21167 13.2669 6.95833 12.5203 6.95833 11.6003C6.95833 10.6803 6.21167 9.93359 5.29167 9.93359Z" fill="#FF6961"/>
</svg>
