<svg width="277" height="234" viewBox="0 0 277 234" fill="none" xmlns="http://www.w3.org/2000/svg">
<g clip-path="url(#clip0_11778_36109)">
<path d="M228.183 233.016H22.864C22.6354 233.016 22.4163 232.926 22.2543 232.764C22.0924 232.603 22.0009 232.384 22 232.156C22.0009 231.927 22.0924 231.708 22.2543 231.547C22.4163 231.385 22.6354 231.295 22.864 231.295H228.183C228.412 231.295 228.631 231.386 228.792 231.547C228.953 231.708 229.044 231.927 229.044 232.156C229.044 232.384 228.953 232.603 228.792 232.764C228.631 232.926 228.412 233.016 228.183 233.016Z" fill="#47243B"/>
<path d="M89.5134 62.2784C93.3347 62.2302 105.212 63.7966 107.46 73.8939C109.708 83.9912 107.116 81.5056 106.465 80.9065C105.315 79.8738 101.914 75.0541 96.6293 74.3655C91.3448 73.677 85.42 75.3983 85.42 75.3983C85.42 75.3983 88.0467 82.7725 82.2941 86.8107L81.0892 86.9656C81.0892 86.9656 80.2252 84.2597 78.1079 82.9893C75.9907 81.719 75.3537 83.5987 74.9922 85.2787C74.6308 86.9587 72.4448 90.8558 78.9962 93.035C78.9962 93.035 80.3147 97.7893 84.9347 102.674C84.9347 102.674 87.5029 105.525 84.8934 109.904C82.2839 114.283 67.1292 123.802 56.4742 114.817C45.8193 105.831 52.7115 101.549 62.9499 86.2943C73.1883 71.0399 79.7259 62.3955 89.5134 62.2784Z" fill="#002454"/>
<path d="M161.018 186.51L35.9773 195.22L161.018 206.539V186.51Z" fill="#002454"/>
<path d="M40.6662 234.577L35.9773 195.221L176.974 203.242L181.071 234.577H40.6662Z" fill="#335076"/>
<path d="M213.135 231.298H147.511L155.12 220.629L168.436 212.783L172.543 208.741L174.932 211.041L180.647 200.3L202.081 199.729L208.618 214.091L208.143 219.204L213.135 224.553V231.298Z" fill="#333333"/>
<path d="M101.408 113.048C101.408 113.048 91.3764 113.533 92.8671 105.708L84.1675 103.02C84.1675 103.02 84.1467 110.938 76.177 113.048C76.177 113.048 80.6525 139.064 95.6693 136.007C110.686 132.95 101.408 113.048 101.408 113.048Z" fill="#FF9C70"/>
<path d="M92.8942 108.756C92.8942 108.756 86.8559 109.52 83.4958 106.391C83.4958 106.391 84.7352 103.354 83.94 100.518L92.8323 105.052C92.8323 105.052 92.5293 107.406 92.8942 108.756Z" fill="#E47452"/>
<path d="M106.631 79.9923C107.102 82.3471 105.636 95.3087 103.333 99.8426C101.03 104.377 99.3462 108.639 90.595 107.162C81.3377 105.599 78.9898 93.0193 78.9898 93.0193C78.9898 93.0193 73.8637 91.8178 74.5453 87.4732C75.227 83.1286 76.2185 81.8755 78.1016 82.9737C79.9847 84.0719 81.0828 86.9499 81.0828 86.9499L82.2877 86.795C82.2877 86.795 86.987 83.5899 85.4137 75.3826C85.4137 75.3826 94.6779 72.1982 99.5975 75.183C104.517 78.1677 106.631 79.9923 106.631 79.9923Z" fill="#FF9C70"/>
<path d="M223.002 231.296C222.882 230.735 220.623 222.531 220.623 222.531C220.623 222.531 213.965 216.706 213.611 216.231C213.256 215.756 210.757 203.362 210.757 203.362L206.002 199.73L199.334 200.966L202.673 207.332L205.286 212.086L204.694 219.577L211.166 228.256V231.313L223.002 231.296Z" fill="black"/>
<path d="M118.776 142.476L121.238 147.702C121.238 147.702 134.096 129.749 139.139 122.812C140.007 121.617 140.425 120.154 140.32 118.681C140.155 116.271 140.358 110.542 141.642 107.11C142.592 104.569 145.429 102.487 145.429 102.487C145.429 102.487 148.252 99.8771 149.956 99.8392C151.66 99.8013 152.421 100.597 152.421 100.597C152.421 100.597 155.11 100.862 154.959 103.175C154.959 103.175 157.874 104.728 157.193 106.432C157.193 106.432 159.503 108.401 158.102 110.711C156.7 113.021 150.232 130.028 148.404 132.19C146.576 134.352 132.626 154.632 132.626 154.632L115.888 162.729L109.97 146.26L118.776 142.476Z" fill="#FF9C70"/>
<path d="M172.103 195.451C171.5 196.081 170.96 198.587 164.925 198.511C158.89 198.436 158.928 196.036 158.928 196.036C158.541 196.067 158.18 196.239 157.911 196.519C157.643 196.798 157.486 197.167 157.472 197.554C157.396 199.493 157.093 203.011 155.95 205.28C155.559 206.014 155.309 206.815 155.213 207.641H196.683C196.683 207.641 197.806 204.932 194.749 203.51C191.692 202.088 184.682 200.088 181.171 199.379C174.306 197.964 173.229 194.274 172.103 195.451Z" fill="black"/>
<path d="M196.239 207.639H155.434C154.846 207.639 154.37 208.115 154.37 208.702C154.37 209.29 154.846 209.766 155.434 209.766H196.239C196.827 209.766 197.303 209.29 197.303 208.702C197.303 208.115 196.827 207.639 196.239 207.639Z" fill="#666666"/>
<path d="M169.28 185.236C169.411 185.498 171.655 196.088 171.655 196.088C171.655 196.088 171.37 199.53 166.343 199.465C161.317 199.399 159.283 196.859 159.283 196.859L157.272 190.586L169.28 185.236Z" fill="#FF9C70"/>
<path d="M172.457 183.821L156.277 194.125L146.224 169.861L132.643 185.807C132.643 185.807 141.938 189.223 143.859 193.254C145.78 197.285 164.477 238.728 164.477 238.728L145.697 241.53C145.697 241.53 127.823 207.104 121.599 203.417C115.375 199.729 98.7294 200.177 98.7294 200.177C98.7294 200.177 70.066 198.38 63.4045 193.216C56.743 188.052 70.8991 183.232 70.8991 183.232C70.8991 183.232 80.8827 181.067 87.7163 178.413C94.55 175.758 97.1837 172.305 101.904 170.236C106.623 168.167 113.416 163.943 117.396 160.628C121.375 157.313 141.325 134.629 148.407 132.226C155.488 129.823 161.365 133.469 163.272 144.399C165.179 155.33 172.457 183.821 172.457 183.821Z" fill="#DDAC13"/>
<path d="M115.774 161.889L110.954 146.59L119.943 141.842C119.943 141.842 116.156 128.833 112.848 121.104C109.539 113.375 101.415 113.062 101.415 113.062C101.415 113.062 109.137 132.282 95.2594 134.967C81.3821 137.653 76.1767 113.048 76.1767 113.048C76.1767 113.048 64.8161 112.576 61.6213 120.698C58.4265 128.819 55.0459 146.48 54.891 146.951C54.7361 147.423 63.2463 152.628 63.2463 152.628L78.3079 183.536C78.3079 183.536 95.1148 175.718 99.3596 171.539C100.417 170.929 108.792 166.977 115.774 161.889Z" fill="#FF6961"/>
<path d="M111.323 134.996C111.323 134.996 117.289 147.799 102.372 147.434" stroke="white" stroke-linecap="round" stroke-linejoin="round"/>
<path d="M83.4512 128.598C83.4512 128.598 85.8851 144.31 99.6109 134.636" stroke="white" stroke-linecap="round" stroke-linejoin="round"/>
<path d="M63.8965 47.5281C59.4934 51.2565 61.9584 62.4692 79.75 64.1423C79.75 64.1423 74.765 38.3363 63.8965 47.5281Z" fill="#002454"/>
<path d="M196.015 231.296L172.54 208.74C172.54 208.74 171.284 212.527 176.754 218.965C182.224 225.403 187.812 231.296 187.812 231.296H196.015Z" fill="black"/>
<path d="M146.218 169.862L144.978 166.891L124.044 181.298L132.65 185.808L146.218 169.862Z" fill="#C79702"/>
<path d="M62.2101 188.566C62.2101 188.566 92.1369 195.854 99.9724 197.08C107.808 198.306 117.275 201.556 119.94 202.619C119.94 202.619 113.378 200.705 108.283 200.45C103.188 200.196 99.8382 200.254 98.7297 200.178C97.6211 200.103 79.7641 198.695 73.285 196.832C66.806 194.97 59.4973 193.169 62.2101 188.566Z" fill="#C79702"/>
<path d="M95.6688 82.794C95.6688 82.794 91.8097 79.5648 89.7544 79.4512" stroke="#47243B" stroke-linecap="round" stroke-linejoin="round"/>
<path d="M105.081 84.9105C105.081 84.9105 102.41 82.962 100.458 83.7951" stroke="#47243B" stroke-linecap="round" stroke-linejoin="round"/>
<path d="M105.081 89.313C105.081 89.313 103.411 86.5864 101.573 87.9773" stroke="#47243B" stroke-linecap="round" stroke-linejoin="round"/>
<path d="M92.7117 85.6348C92.7117 85.6348 91.5447 83.0322 88.5806 84.2578" stroke="#47243B" stroke-linecap="round" stroke-linejoin="round"/>
<path d="M96.8945 93.5465H99.9035L98.7332 83.9277" stroke="#E47452" stroke-linecap="round" stroke-linejoin="round"/>
<path d="M95.3351 97.6684C95.3351 97.6684 90.932 96.6081 91.0456 93.0449" stroke="#47243B" stroke-linecap="round" stroke-linejoin="round"/>
<path d="M77.5571 139.131L78.1458 146.577" stroke="#5405BE" stroke-linecap="round" stroke-linejoin="round"/>
<path d="M77.1992 92.9052C77.762 92.9052 78.2182 92.449 78.2182 91.8862C78.2182 91.3234 77.762 90.8672 77.1992 90.8672C76.6364 90.8672 76.1802 91.3234 76.1802 91.8862C76.1802 92.449 76.6364 92.9052 77.1992 92.9052Z" fill="#219653"/>
<path d="M78.5933 85.914C78.5933 85.914 77.4505 84.7056 77.1958 85.914C76.941 87.1224 77.0064 89.0123 77.8843 89.663" stroke="#E47452" stroke-linecap="round" stroke-linejoin="round"/>
<path d="M56.5123 195.909C56.3677 195.909 48.1398 197.331 45.94 197.066C43.7401 196.801 40.1322 195.448 42.0842 193.878C44.0361 192.308 51.7512 188.683 53.8443 188.37C54.9308 188.178 56.0293 188.063 57.1319 188.025L56.5123 195.909Z" fill="#FF9C70"/>
<path d="M41.4136 195.476L47.0802 192.904" stroke="#E47452" stroke-linecap="round" stroke-linejoin="round"/>
<path d="M43.699 196.591L47.0798 195.162" stroke="#E47452" stroke-linecap="round" stroke-linejoin="round"/>
<path d="M47.699 197.098C48.0811 197.067 51.4687 195.418 51.4687 195.418" stroke="#E47452" stroke-linecap="round" stroke-linejoin="round"/>
<path d="M119.94 141.824L110.951 146.575" stroke="#5405BE" stroke-linecap="round" stroke-linejoin="round"/>
<path d="M134.45 143.361C134.45 143.361 141.862 135.969 147.515 132.564" stroke="#5405BE" stroke-linecap="round" stroke-linejoin="round"/>
<path d="M156.273 194.127L142.74 161.309" stroke="#5405BE" stroke-linecap="round" stroke-linejoin="round"/>
<path d="M144.837 160.119V162.395" stroke="#5405BE" stroke-linecap="round" stroke-linejoin="round"/>
<path d="M146.693 161.256L145.681 163.414" stroke="#5405BE" stroke-linecap="round" stroke-linejoin="round"/>
<path d="M137.525 188.018L119.272 178.912" stroke="#5405BE" stroke-linecap="round" stroke-linejoin="round"/>
<path d="M135.043 221.682L145.691 241.532L154.37 240.238" stroke="#5405BE" stroke-linecap="round" stroke-linejoin="round"/>
<path d="M148.83 90.0696L140.083 93.4882C139.863 93.574 139.681 93.7341 139.568 93.9405C139.455 94.1468 139.418 94.3863 139.463 94.6173L144.94 121.979C144.969 122.121 145.027 122.254 145.112 122.37C145.197 122.487 145.305 122.584 145.431 122.655C145.556 122.725 145.695 122.768 145.839 122.781C145.982 122.793 146.126 122.775 146.262 122.727L154.91 119.628C155.135 119.548 155.325 119.389 155.443 119.182C155.562 118.974 155.602 118.73 155.557 118.496L150.17 90.8098C150.141 90.6669 150.082 90.532 149.996 90.4144C149.91 90.2968 149.799 90.1994 149.672 90.1289C149.544 90.0585 149.403 90.0166 149.258 90.0064C149.112 89.9961 148.966 90.0177 148.83 90.0696Z" fill="black"/>
<path d="M152.573 100.896C152.485 100.729 152.362 100.584 152.214 100.468C152.065 100.353 151.894 100.27 151.711 100.225C151.528 100.181 151.338 100.176 151.153 100.21C150.968 100.244 150.793 100.317 150.638 100.424C149.151 101.457 146.879 103.209 146.903 104.472C146.941 106.349 149.147 106.597 149.147 106.597C149.147 106.597 148.283 109.006 150.335 109.106C150.335 109.106 150.159 111.585 151.891 111.478C151.891 111.478 151.822 114.201 153.874 113.988L157.623 110.414L152.573 100.896Z" fill="#FF9C70"/>
<path d="M151.592 112.239L155.075 108.225" stroke="#E47452" stroke-linecap="round" stroke-linejoin="round"/>
<path d="M150.091 109.754L153.658 105.203" stroke="#E47452" stroke-linecap="round" stroke-linejoin="round"/>
<path d="M151.289 103.629C151.116 103.767 148.493 107.254 148.493 107.254" stroke="#E47452" stroke-linecap="round" stroke-linejoin="round"/>
<path d="M102.771 117.572C102.771 117.572 106.789 133.98 95.2592 134.968C83.7298 135.956 79.7673 123.473 79.7673 123.473" stroke="#5405BE" stroke-linecap="round" stroke-linejoin="round"/>
<path d="M56.5195 149.496C56.5195 149.496 51.8961 158.85 48.629 149.496C45.3619 140.142 49.4724 132.737 52.5742 130.906C55.2182 129.336 59.2219 129.439 60.7986 133.271C60.7986 133.271 71.3952 127.074 83.4513 131.016C83.4513 131.016 84.8042 124.475 90.4398 125.043C96.0754 125.611 102.272 141.385 99.1153 148.484C95.9584 155.582 91.0044 152.429 89.6514 145.781C89.6514 145.781 86.2707 157.614 82.89 159.979C82.89 159.979 83.279 160.323 83.9228 161.012C86.701 163.931 94.2129 173.223 96.4024 190.195C96.4024 190.195 103.05 181.743 103.952 168.785C104.854 155.827 112.869 158.602 112.968 162.698C113.068 166.795 112.18 191.548 98.0928 201.917C98.0928 201.917 100.138 213.13 99.6075 222.249C99.6075 222.249 106.204 222.711 106.149 231.169H49.6169C49.6169 231.169 46.9076 222.604 54.2129 221.13C54.2129 221.13 52.1645 197.214 53.841 184.604C55.5176 171.994 61.3288 161.352 61.3288 161.352C61.3288 161.352 56.1408 155.376 56.5195 149.496Z" fill="#A25700"/>
<path d="M71.8631 161.493C76.5499 161.493 80.3494 157.959 80.3494 153.599C80.3494 149.239 76.5499 145.705 71.8631 145.705C67.1764 145.705 63.3772 149.239 63.3772 153.599C63.3772 157.959 67.1764 161.493 71.8631 161.493Z" fill="white"/>
<path d="M71.6689 153.246C73.7817 152.661 75.2419 151.275 74.9305 150.15C74.6191 149.025 72.654 148.587 70.5412 149.172C68.4284 149.756 66.968 151.143 67.2794 152.268C67.5908 153.393 69.5561 153.831 71.6689 153.246Z" fill="#333333"/>
<path d="M71.2161 158.326C71.0474 158.326 70.8959 158.326 70.7582 158.306C70.586 158.287 70.4282 158.2 70.3193 158.066C70.2104 157.931 70.159 157.759 70.1764 157.586C70.1947 157.414 70.2803 157.257 70.4144 157.148C70.5486 157.038 70.7205 156.987 70.8925 157.004C71.0233 157.004 73.9426 157.266 75.2439 154.564C75.319 154.408 75.453 154.288 75.6162 154.23C75.7795 154.173 75.9588 154.183 76.115 154.257C76.2711 154.333 76.3909 154.467 76.4483 154.631C76.5057 154.795 76.4961 154.975 76.4214 155.132C75.9425 156.1 75.1999 156.914 74.279 157.479C73.3582 158.044 72.2965 158.338 71.2161 158.326Z" fill="black"/>
<path d="M80.349 152.707C81.697 152.707 82.7898 151.833 82.7898 150.755C82.7898 149.677 81.697 148.803 80.349 148.803C79.0009 148.803 77.9082 149.677 77.9082 150.755C77.9082 151.833 79.0009 152.707 80.349 152.707Z" fill="#FFC3C0"/>
<path d="M63.4943 153.784C64.7345 153.255 65.3974 152.023 64.975 151.031C64.5525 150.04 63.2047 149.664 61.9645 150.192C60.7243 150.72 60.0612 151.952 60.4836 152.944C60.9061 153.936 62.254 154.312 63.4943 153.784Z" fill="#FFC3C0"/>
<path d="M65.8831 145.214C66.2767 145.214 66.5955 144.895 66.5955 144.502C66.5955 144.108 66.2767 143.789 65.8831 143.789C65.4896 143.789 65.1704 144.108 65.1704 144.502C65.1704 144.895 65.4896 145.214 65.8831 145.214Z" fill="black"/>
<path d="M78.5924 143.724C78.9859 143.724 79.3048 143.405 79.3048 143.011C79.3048 142.618 78.9859 142.299 78.5924 142.299C78.1988 142.299 77.8796 142.618 77.8796 143.011C77.8796 143.405 78.1988 143.724 78.5924 143.724Z" fill="black"/>
<path d="M63.9107 143.187C63.8242 143.188 63.7386 143.171 63.6587 143.138C63.5789 143.105 63.5065 143.056 63.4459 142.995C63.324 142.872 63.2556 142.706 63.2556 142.533C63.2556 142.36 63.324 142.195 63.4459 142.072C64.7816 140.747 67.1089 141.628 67.2088 141.666C67.3704 141.729 67.5003 141.853 67.57 142.012C67.6397 142.171 67.6436 142.351 67.5806 142.513C67.5176 142.673 67.3935 142.803 67.2355 142.872C67.0775 142.942 66.8983 142.946 66.7371 142.884C66.2827 142.712 64.9746 142.396 64.3652 142.998C64.2448 143.119 64.0813 143.187 63.9107 143.187Z" fill="black"/>
<path d="M80.3497 141.839C80.2291 141.84 80.1104 141.809 80.0054 141.75C79.9675 141.729 78.0844 140.665 76.8726 141.684C76.8071 141.74 76.7314 141.782 76.6497 141.808C76.568 141.834 76.4819 141.843 76.3965 141.836C76.3111 141.829 76.228 141.804 76.1519 141.765C76.0759 141.725 76.0084 141.671 75.9534 141.605C75.898 141.54 75.8562 141.464 75.8302 141.382C75.8042 141.301 75.7946 141.215 75.802 141.129C75.8093 141.044 75.8335 140.961 75.8731 140.885C75.9127 140.809 75.9668 140.741 76.0326 140.686C77.957 139.065 80.5562 140.559 80.6664 140.624C80.7401 140.667 80.8046 140.725 80.8562 140.793C80.9077 140.861 80.9452 140.939 80.9666 141.022C80.988 141.105 80.993 141.191 80.9811 141.276C80.9691 141.361 80.9407 141.442 80.8972 141.516C80.8412 141.612 80.7615 141.692 80.6657 141.749C80.5699 141.806 80.461 141.837 80.3497 141.839Z" fill="black"/>
<path d="M86.4912 229.81C86.3293 229.809 86.1733 229.749 86.0533 229.64C85.9332 229.532 85.8574 229.382 85.8405 229.221C85.8095 228.912 82.7696 198.368 82.5733 187.686C82.5706 187.513 82.6364 187.346 82.7564 187.222C82.8764 187.097 83.0409 187.025 83.2138 187.021C83.3848 187.021 83.5492 187.087 83.6712 187.207C83.7931 187.327 83.8625 187.491 83.8643 187.662C84.0605 198.293 87.097 228.784 87.1279 229.091C87.1443 229.263 87.0921 229.435 86.9825 229.569C86.873 229.703 86.715 229.788 86.5428 229.807L86.4912 229.81Z" fill="white"/>
<path d="M66.3131 229.807C66.14 229.806 65.9746 229.736 65.8527 229.612C65.7309 229.489 65.6626 229.323 65.6626 229.15C65.6626 228.83 65.759 196.872 65.6626 188.182C65.6617 188.009 65.729 187.843 65.8502 187.719C65.9714 187.595 66.1366 187.524 66.3098 187.521C66.4818 187.521 66.6468 187.59 66.7687 187.711C66.8906 187.832 66.9596 187.997 66.9605 188.169C67.0603 196.875 66.9605 228.844 66.9605 229.164C66.9578 229.334 66.8886 229.497 66.7677 229.617C66.6468 229.737 66.4837 229.806 66.3131 229.807Z" fill="white"/>
<path d="M60.7986 133.253C59.2218 129.421 55.2182 129.318 52.5742 130.888C49.4758 132.723 45.3619 140.128 48.629 149.478C51.896 158.828 56.5195 149.478 56.5195 149.478C56.4531 150.803 56.6124 152.13 56.991 153.402C62.1102 146.211 64.2206 135.78 64.8919 131.459C63.4783 131.938 62.1087 132.538 60.7986 133.253Z" fill="black"/>
<path d="M84.047 160.76C84.047 160.76 75.881 171.17 59.6765 162.481" stroke="#219653" stroke-width="3" stroke-linecap="round" stroke-linejoin="round"/>
<path d="M102.857 229.709C102.857 229.709 103.732 226.855 101.074 226.328" stroke="white" stroke-linecap="round" stroke-linejoin="round"/>
<path d="M100.186 229.709C100.186 229.709 100.781 227.751 98.96 227.393" stroke="white" stroke-linecap="round" stroke-linejoin="round"/>
<path d="M51.7716 229.709C51.7716 229.709 50.897 226.855 53.5547 226.328" stroke="white" stroke-linecap="round" stroke-linejoin="round"/>
<path d="M54.454 229.709C54.454 229.709 53.8549 227.751 55.676 227.393" stroke="white" stroke-linecap="round" stroke-linejoin="round"/>
<path d="M76.4316 154.742C76.373 154.808 76.6347 155.685 74.366 157.417C75.5124 158.918 76.6141 160.374 78.0497 159.011C79.4852 157.648 77.8086 155.844 76.4316 154.742Z" fill="#DF3636"/>
<path d="M83.4507 131C83.4507 131 75.3363 128.765 70.1138 130.115" stroke="white" stroke-linecap="round" stroke-linejoin="round"/>
<path d="M58.8739 141.84C58.8739 141.84 58.2577 147.238 55.1799 151.565" stroke="white" stroke-linecap="round" stroke-linejoin="round"/>
<path d="M89.1419 140.891C89.1419 140.891 88.932 147.618 92.1716 151.177" stroke="white" stroke-linecap="round" stroke-linejoin="round"/>
<path d="M59.2423 222.288C59.2423 222.288 54.9838 219.368 51.4241 222.288" stroke="white" stroke-linecap="round" stroke-linejoin="round"/>
<path d="M102.995 223.57C102.995 223.57 99.2771 220.626 96.0479 223.57" stroke="white" stroke-linecap="round" stroke-linejoin="round"/>
<path d="M112.986 167.012C112.986 167.012 112.569 174.159 110.886 179.832" stroke="white" stroke-linecap="round" stroke-linejoin="round"/>
<g clip-path="url(#clip1_11778_36109)">
<path d="M216.05 140.287C216.05 140.287 197.356 131.707 194.869 119.377C192.382 107.046 194.569 102.127 199.744 78.8241C202.345 67.1165 189.834 41.1808 208.136 33.3191C232.263 22.9369 240.146 37.4344 268.085 36.9131C296.023 36.3918 297.238 31.7882 309.288 26.5441C334.025 15.7842 355.424 5.06179 366.522 40.4607C377.62 75.8596 380.681 89.7629 362.312 106.542C343.944 123.322 340.889 140.764 340.889 140.764L216.068 140.293" fill="#C091FF"/>
<path d="M235.605 36.6709C241.885 37.2834 247.991 40.9937 249.256 53.9936C250.52 66.9935 246.935 75.0326 246.935 75.0326L242.142 74.6502L241.986 73.0574L241.497 74.5529C241.497 74.5529 226.717 76.3376 221.572 73.7076C221.572 73.7076 224.053 67.9718 224.445 64.2987C224.445 64.2987 222.371 70.9079 219.519 72.6948C219.519 72.6948 215.098 70.6244 212.11 68.3345C212.11 68.3345 220.327 61.2987 222.691 52.4068C225.055 43.515 226.521 35.7871 235.605 36.6709Z" fill="#002454"/>
<path d="M205.366 157.452L240.326 161.393C240.326 161.393 245.451 124.297 244.798 111.526C244.798 111.526 252.238 110.585 252.857 103.181C253.476 95.777 248.771 85.4767 247.436 82.508C246.101 79.5393 241.943 74.3562 237.217 73.5795C232.492 72.8029 227.451 72.0447 223.539 74.4995C219.627 76.9544 210.991 84.4139 207.268 91.3751C203.544 98.3363 191.832 113.412 191.832 113.412L197.965 117.208C197.965 117.208 209.811 106.628 214.306 99.4732C214.305 99.4615 206.188 150.317 205.366 157.452Z" fill="white"/>
<path d="M237.029 74.3239C237.029 74.3239 228.734 72.5132 225.314 75.0722L227.682 91.5854L228.154 91.3502L237.029 74.3239Z" fill="#219653"/>
<path d="M224.749 73.8573C226.828 76.7505 228.216 89.9746 228.216 89.9746C229.653 83.9609 237.36 74.0789 237.877 73.6641L227.77 92.7216L224.749 73.8573Z" fill="#CCCCCC"/>
<path d="M235.502 69.5625L234.748 74.5553C234.607 75.4943 233.871 78.2981 230.789 77.8329C227.708 77.3676 226.801 75.1422 226.801 75.1422L227.794 68.5634L235.502 69.5625Z" fill="#FF9C70"/>
<path d="M227.375 71.3365C227.375 71.3365 231.184 73.1735 235.191 71.6233L235.502 69.5625L227.795 68.5543L227.375 71.3365Z" fill="#E47452"/>
<path d="M241.84 61.0215C241.84 61.0215 237.897 72.9995 229.885 70.9166C221.873 68.8337 222.046 61.7798 222.58 58.4902C223.114 55.2006 224.077 54.2731 224.456 51.9903C224.835 49.7075 225.367 46.8884 225.367 46.8884C225.629 45.1502 230.454 39.515 235.817 42.288C241.18 45.061 242.45 54.9896 242.45 54.9896C242.648 54.6766 242.943 54.4357 243.29 54.3026C243.638 54.1695 244.019 54.1512 244.378 54.2504C245.717 54.5555 245.673 56.729 245.43 58.3417C245.186 59.9543 244.374 62.0833 241.84 61.0215Z" fill="#FF9C70"/>
<path d="M226.507 62.2168C226.507 62.2168 228.96 64.5838 231.532 63.64" stroke="#47243B" stroke-linecap="round" stroke-linejoin="round"/>
<path d="M229.583 58.9367C229.667 58.9499 229.753 58.9346 229.83 58.8932C229.906 58.8517 229.97 58.786 230.011 58.705C230.036 58.6524 230.051 58.5952 230.055 58.5368C230.059 58.4783 230.052 58.4199 230.035 58.3648C230.017 58.3098 229.99 58.2592 229.954 58.2162C229.918 58.1731 229.874 58.1385 229.825 58.1142L228.849 57.5906L230.607 52.9002C230.648 52.7917 230.648 52.6711 230.606 52.5648C230.564 52.4585 230.485 52.3753 230.385 52.3335C230.335 52.3128 230.282 52.303 230.228 52.3046C230.174 52.3062 230.121 52.3192 230.072 52.3428C230.022 52.3665 229.977 52.4002 229.939 52.4422C229.902 52.4843 229.872 52.5337 229.852 52.5877L227.955 57.6541C227.916 57.7564 227.914 57.8699 227.949 57.9719C227.985 58.074 228.055 58.1569 228.147 58.2043L229.451 58.9019C229.493 58.9209 229.537 58.9327 229.583 58.9367Z" fill="#E47452"/>
<path d="M233.321 54.2626C233.419 54.2772 233.518 54.2489 233.598 54.1838C233.678 54.1187 233.732 54.0221 233.748 53.9154L233.903 52.8907C233.919 52.784 233.896 52.6758 233.839 52.59C233.781 52.5041 233.695 52.4477 233.598 52.433C233.501 52.4184 233.401 52.4467 233.321 52.5118C233.241 52.5769 233.187 52.6735 233.171 52.7802L233.016 53.8049C233 53.9116 233.023 54.0198 233.081 54.1056C233.138 54.1915 233.224 54.2479 233.321 54.2626Z" fill="#47243B"/>
<path d="M227.467 53.3797C227.564 53.3944 227.663 53.3661 227.743 53.301C227.823 53.2359 227.877 53.1393 227.893 53.0326L228.048 52.0079C228.064 51.9011 228.041 51.793 227.984 51.7071C227.927 51.6213 227.84 51.5649 227.743 51.5502C227.646 51.5356 227.546 51.5639 227.466 51.629C227.386 51.6941 227.332 51.7906 227.316 51.8974L227.162 52.9221C227.145 53.0288 227.169 53.137 227.226 53.2228C227.283 53.3087 227.37 53.3651 227.467 53.3797Z" fill="#47243B"/>
<path d="M226.4 50.5931C226.456 50.6123 226.517 50.6183 226.576 50.6108C226.636 50.6033 226.694 50.5824 226.747 50.5495C227.051 50.3637 227.396 50.2786 227.739 50.305C228.082 50.3314 228.407 50.4681 228.674 50.698C228.718 50.7395 228.769 50.7708 228.825 50.7903C228.881 50.8097 228.94 50.8168 228.999 50.8113C229.057 50.8057 229.115 50.7875 229.168 50.7578C229.221 50.7281 229.268 50.6873 229.308 50.6379C229.386 50.5393 229.427 50.4119 229.421 50.2832C229.415 50.1545 229.363 50.0351 229.276 49.9507C228.873 49.5896 228.377 49.3721 227.853 49.3266C227.328 49.281 226.798 49.4094 226.333 49.6952C226.227 49.7583 226.148 49.8641 226.112 49.9891C226.076 50.1142 226.087 50.2483 226.142 50.362C226.197 50.4726 226.289 50.5551 226.4 50.5931Z" fill="#47243B"/>
<path d="M232.944 51.4209C232.999 51.4434 233.058 51.4569 233.119 51.4605C233.179 51.4641 233.239 51.4578 233.294 51.4419C233.61 51.3497 233.958 51.3379 234.295 51.4079C234.631 51.4779 234.941 51.6266 235.185 51.8355C235.224 51.873 235.272 51.9043 235.325 51.9274C235.378 51.9506 235.435 51.9652 235.494 51.9704C235.552 51.9755 235.611 51.9712 235.666 51.9576C235.721 51.9441 235.771 51.9215 235.815 51.8912C235.858 51.8611 235.893 51.8238 235.919 51.7816C235.944 51.7393 235.958 51.6928 235.961 51.6449C235.963 51.5969 235.955 51.5484 235.935 51.5021C235.915 51.4559 235.884 51.4127 235.844 51.3752C235.476 51.0495 235.004 50.8157 234.489 50.7038C233.974 50.5919 233.44 50.6071 232.955 50.7474C232.849 50.7793 232.764 50.8444 232.719 50.9292C232.674 51.014 232.672 51.1117 232.714 51.2021C232.733 51.2486 232.763 51.292 232.803 51.3296C232.842 51.3672 232.89 51.3983 232.944 51.4209Z" fill="#47243B"/>
<path d="M243.048 61.7203C242.644 61.6593 242.366 61.2822 242.427 60.878C242.488 60.4739 242.865 60.1957 243.269 60.2567C243.674 60.3177 243.952 60.6948 243.891 61.099C243.83 61.5032 243.453 61.7813 243.048 61.7203Z" fill="#2AEEFF"/>
<path d="M235.326 43.1855C235.326 43.1855 235.087 49.3326 242.213 54.8582L242.702 44.6246L233.519 38.95L228.633 41.1439L224.766 46.4785C226.654 46.7029 228.568 46.5258 230.386 45.9588C232.205 45.3917 233.887 44.4471 235.326 43.1855Z" fill="#002454"/>
<path d="M238.318 90.5714C238.569 94.3844 239.535 98.0928 241.162 101.48" stroke="#5405BE" stroke-linecap="round" stroke-linejoin="round"/>
<path d="M226.305 100.732C226.305 100.732 237.612 100.698 243.719 101.894" stroke="#5405BE" stroke-linecap="round" stroke-linejoin="round"/>
<path d="M228.743 109.371C228.743 109.371 244.084 114.715 250.103 109.191" stroke="#5405BE" stroke-linecap="round" stroke-linejoin="round"/>
<path d="M201.237 100.691L193.725 110.785" stroke="#5405BE" stroke-linecap="round" stroke-linejoin="round"/>
<path d="M224.742 108.343L225.361 101.711C225.399 101.304 225.76 101.005 226.167 101.043C226.574 101.081 226.873 101.441 226.835 101.848L226.216 108.48C226.178 108.887 225.817 109.186 225.41 109.148C225.003 109.11 224.704 108.75 224.742 108.343Z" fill="#CCCCCC"/>
<path d="M225.335 101.987C225.335 101.987 224.344 100.456 222.007 99.9782C219.671 99.5004 216.459 98.9631 215.72 98.9659C214.981 98.9687 213.284 98.7853 213.596 100.275C213.596 100.275 211.906 101.3 212.621 102.568C212.621 102.568 211.3 104.781 212.984 105.576C212.984 105.576 212.036 107.315 215.694 108.416C219.352 109.518 222.798 108.166 224.75 108.254L225.335 101.987Z" fill="#FF9C70"/>
<path d="M212.352 105.7L216.371 106.447" stroke="#E47452" stroke-linecap="round" stroke-linejoin="round"/>
<path d="M212.259 102.717L215.875 103.797" stroke="#E47452" stroke-linecap="round" stroke-linejoin="round"/>
<path d="M213.237 100.207L216.116 101.219" stroke="#E47452" stroke-linecap="round" stroke-linejoin="round"/>
<path d="M202.672 71.0446C203.697 62.7538 204.732 54.38 205.762 46.0523C206.647 38.8945 207.372 31.717 208.247 24.558C208.42 22.841 208.815 21.1535 209.425 19.5316C209.953 18.01 211.056 16.7242 212.534 15.9068C214.012 15.0893 215.767 14.7943 217.483 15.075C219.389 15.3106 221.281 15.6568 223.162 16.0109C223.851 16.0976 224.5 16.374 225.023 16.8042C225.546 17.2343 225.921 17.7981 226.096 18.4218C226.942 21.3322 229.223 22.5495 232.208 22.9933C235.777 23.5374 239.329 24.1448 242.897 24.7074C245.341 25.0938 247.313 24.7109 248.581 22.4078C249.087 21.4992 249.908 20.7778 250.916 20.3572C251.923 19.9366 253.06 19.8406 254.146 20.0842C256.044 20.3261 257.913 20.7453 259.726 21.3351C263.402 22.6593 264.809 25.7045 264.105 29.2652C263.316 33.2735 262.902 37.3563 262.35 41.4127C258.682 68.2445 255.027 95.078 251.386 121.913C251.231 123.166 251.075 124.428 250.92 125.681C250.479 129.246 248.369 131.239 244.538 131.907C241.195 132.475 237.91 131.845 234.601 131.398C225.003 130.118 215.402 128.866 205.809 127.54C203.997 127.335 202.214 126.929 200.498 126.332C197.149 125.067 195.921 123.035 196.16 119.707C196.249 118.577 196.439 117.45 196.578 116.326L202.183 70.9842L202.672 71.0446ZM256.498 76.866C258.753 60.7025 261.001 44.5381 263.243 28.3729C263.654 25.4589 262.528 23.4211 259.535 22.303C257.862 21.7257 256.129 21.314 254.368 21.075C253.372 20.8557 252.331 20.9515 251.413 21.3469C250.495 21.7423 249.753 22.4143 249.307 23.2552C247.884 25.5858 245.699 26.2978 242.956 25.8652C239.082 25.2459 235.212 24.5898 231.328 23.9601C228.23 23.4555 225.999 21.992 225.116 19.0582C224.981 18.5346 224.676 18.059 224.243 17.6959C223.809 17.3327 223.268 17.0997 222.692 17.0284C220.939 16.7087 219.192 16.3338 217.431 16.1535C215.785 15.9157 214.114 16.2465 212.738 17.0824C211.361 17.9183 210.376 19.2007 209.972 20.6841C209.699 21.5781 209.512 22.4936 209.41 23.4206C205.464 54.3644 201.534 85.3072 197.621 116.249C197.425 117.834 197.439 119.444 197.333 121.039C197.281 121.733 197.441 122.429 197.794 123.05C198.147 123.671 198.679 124.191 199.33 124.551C201.124 125.611 203.166 126.246 205.272 126.398C215.811 127.85 226.347 129.331 236.897 130.691C239.331 131.03 241.796 131.083 244.233 130.849C247.858 130.456 249.518 128.585 249.9 125.246C249.967 124.703 250.034 124.159 250.101 123.616C252.221 108.053 254.352 92.4787 256.495 76.8937L256.498 76.866Z" fill="black"/>
</g>
<path d="M241.546 20.2287C240.11 20.8649 232.094 20.061 231.13 19.2498C232.156 18.5723 240.024 19.2643 241.546 20.2287Z" fill="black"/>
<path d="M199.744 68.9143C201.904 53.4124 204.06 37.9101 206.213 22.4073C206.274 21.9099 206.337 21.4032 206.398 20.9058C206.988 15.6475 210.339 12.7135 216.105 12.6219C218.425 12.5927 220.748 12.7454 223.049 13.0781C234.635 14.6912 246.215 16.3316 257.788 17.9991C264.136 18.9335 267.479 22.7886 267.297 28.359C267.115 33.9295 266.462 39.5354 265.745 45.0958C263.152 65.3016 260.486 85.5015 257.747 105.695C256.753 112.915 255.34 120.082 254.067 127.266C253.51 130.378 249.753 133.813 246.367 134.077C243.119 134.419 239.836 134.449 236.569 134.166C229.087 133.307 221.624 132.132 214.184 131.016C209.718 130.342 205.236 129.638 200.828 128.747C195.737 127.725 192.309 123.897 193.054 118.284C195.092 101.794 197.461 85.3362 199.689 68.8701L199.744 68.9143ZM200.985 67.7302C199.486 78.5439 197.986 89.3698 196.484 100.208C195.644 106.343 194.694 112.473 194.077 118.616C193.568 123.632 195.907 126.671 201.191 127.857C205.548 128.835 209.995 129.413 214.423 130.063C221.912 131.164 229.418 132.216 236.939 133.221C240.608 133.844 244.371 133.546 247.835 132.36C249.066 131.971 250.167 131.302 251.038 130.414C251.908 129.525 252.521 128.445 252.821 127.271C253.876 122.669 254.735 118.015 255.433 113.35C257.056 102.458 258.597 91.5561 260.054 80.6438C261.481 70.1581 262.869 59.6674 264.139 49.1528C264.986 42.299 265.736 35.4145 266.183 28.5206C266.512 23.3986 262.991 19.8394 257.498 19.0295C245.556 17.2914 233.536 15.5249 221.56 13.8107C220.024 13.5815 218.473 13.468 216.922 13.4711C211.38 13.4688 208.174 16.1309 207.489 21.0967C205.344 36.6441 203.176 52.1886 200.985 67.7302Z" fill="black"/>
</g>
<defs>
<clipPath id="clip0_11778_36109">
<rect width="277" height="234" fill="white"/>
</clipPath>
<clipPath id="clip1_11778_36109">
<rect width="56.3833" height="113.399" fill="white" transform="translate(209.199 14.0449) rotate(7.04697)"/>
</clipPath>
</defs>
</svg>
