<svg width="25" height="24" viewBox="0 0 25 24" fill="none" xmlns="http://www.w3.org/2000/svg">
<path d="M15.5 22.75H9.5C4.07 22.75 1.75 20.43 1.75 15V9C1.75 3.57 4.07 1.25 9.5 1.25H15.5C20.93 1.25 23.25 3.57 23.25 9V15C23.25 20.43 20.93 22.75 15.5 22.75ZM9.5 2.75C4.89 2.75 3.25 4.39 3.25 9V15C3.25 19.61 4.89 21.25 9.5 21.25H15.5C20.11 21.25 21.75 19.61 21.75 15V9C21.75 4.39 20.11 2.75 15.5 2.75H9.5Z" fill="#335076"/>
<path d="M12.4999 15.2592C12.3099 15.2592 12.1199 15.1892 11.9699 15.0392L8.96994 12.0392C8.67994 11.7492 8.67994 11.2692 8.96994 10.9792C9.25994 10.6892 9.73994 10.6892 10.0299 10.9792L12.4999 13.4492L14.9699 10.9792C15.2599 10.6892 15.7399 10.6892 16.0299 10.9792C16.3199 11.2692 16.3199 11.7492 16.0299 12.0392L13.0299 15.0392C12.8799 15.1892 12.6899 15.2592 12.4999 15.2592Z" fill="#335076"/>
<path d="M12.5 15.2598C12.09 15.2598 11.75 14.9198 11.75 14.5098V6.50977C11.75 6.09977 12.09 5.75977 12.5 5.75977C12.91 5.75977 13.25 6.09977 13.25 6.50977V14.5098C13.25 14.9298 12.91 15.2598 12.5 15.2598Z" fill="#335076"/>
<path d="M12.4999 18.2302C10.3899 18.2302 8.26995 17.8902 6.25995 17.2202C5.86995 17.0902 5.65995 16.6602 5.78995 16.2702C5.91995 15.8802 6.33994 15.6602 6.73994 15.8002C10.4599 17.0402 14.5499 17.0402 18.2699 15.8002C18.6599 15.6702 19.0899 15.8802 19.2199 16.2702C19.3499 16.6602 19.1399 17.0902 18.7499 17.2202C16.7299 17.9002 14.6099 18.2302 12.4999 18.2302Z" fill="#335076"/>
</svg>
