<svg width="24" height="24" viewBox="0 0 24 24" fill="none" xmlns="http://www.w3.org/2000/svg">
<path fill-rule="evenodd" clip-rule="evenodd" d="M6.43885 8.86843C7.64419 7.98842 9.22718 7.68911 10.6367 7.85216C11.9825 8.00785 12.8996 8.95287 13.9047 9.73208C14.9351 10.5308 16.3397 11.148 16.5474 12.4345C16.7546 13.7172 15.6657 14.9539 14.9437 16.1659C14.2782 17.2832 13.6953 18.5127 12.5286 19.1811C11.3698 19.845 10.0251 19.7393 8.74107 19.7197C7.4293 19.6997 6.06935 19.7273 5.03649 19.067C3.93768 18.3646 3.03671 17.2941 2.91971 15.9984C2.80608 14.74 3.83515 13.5925 4.43281 12.3816C5.0401 11.1512 5.28364 9.71184 6.43885 8.86843Z" fill="#FFC3C0"/>
<path d="M16.68 20.83C16.67 20.83 16.65 20.83 16.64 20.83H5.55004C2.61004 20.62 1.29004 18.36 1.29004 16.34C1.29004 14.54 2.34004 12.54 4.63004 11.99C3.99004 9.49002 4.53004 7.14002 6.16004 5.44002C8.01004 3.50002 10.98 2.73002 13.53 3.52002C15.87 4.24002 17.52 6.17002 18.12 8.85002C20.17 9.31002 21.8 10.86 22.46 13C23.17 15.33 22.53 17.72 20.78 19.25C19.66 20.26 18.2 20.83 16.68 20.83ZM5.57004 13.35C5.56004 13.35 5.56004 13.35 5.55004 13.35C3.65004 13.49 2.78004 14.95 2.78004 16.34C2.78004 17.73 3.65004 19.19 5.59004 19.33H16.63C17.79 19.31 18.9 18.91 19.76 18.13C21.32 16.76 21.43 14.81 21.01 13.44C20.59 12.06 19.42 10.5 17.38 10.24C17.05 10.2 16.79 9.95002 16.73 9.62002C16.33 7.22002 15.03 5.56002 13.08 4.96002C11.05 4.34002 8.71004 4.95002 7.24004 6.48002C5.91004 7.87002 5.53004 9.79002 6.15004 11.9C6.66004 11.97 7.15004 12.12 7.60004 12.35C7.97004 12.54 8.12004 12.99 7.93004 13.36C7.74004 13.73 7.29004 13.88 6.92004 13.69C6.51004 13.48 6.06004 13.37 5.61004 13.37C5.60004 13.35 5.59004 13.35 5.57004 13.35Z" fill="#002454"/>
<path d="M15.85 10.67C15.57 10.67 15.31 10.52 15.18 10.25C14.99 9.87998 15.15 9.42998 15.52 9.23998C16.14 8.92998 16.83 8.75998 17.51 8.74998C17.91 8.73998 18.27 9.06998 18.27 9.48998C18.28 9.89998 17.95 10.25 17.53 10.25C17.07 10.26 16.6 10.37 16.18 10.58C16.07 10.64 15.96 10.67 15.85 10.67Z" fill="#002454"/>
</svg>
