<svg width="40" height="40" viewBox="0 0 40 40" fill="none" xmlns="http://www.w3.org/2000/svg">
<path d="M8.33339 22.0183C9.46339 22.0183 12.0934 22.0183 13.3534 22.0183C14.4851 22.0183 15.5001 22.905 15.5001 24.165V27.4433C15.5001 29.7183 14.2751 31.4985 12.0001 31.4985C9.72506 31.4985 8.33339 29.7067 8.33339 27.4433V20.2567C8.20506 13.7 13.3851 8.39166 19.9417 8.39166C26.4984 8.39166 31.6667 13.7 31.6667 20.1283V27.315C31.6667 29.59 30.2751 31.4985 28.0001 31.4985C25.7251 31.4985 24.5001 29.59 24.5001 27.315V24.0367C24.5001 22.905 25.3867 21.89 26.6467 21.89C27.7784 21.89 30.6667 21.89 31.6667 21.89" stroke="#667C98" stroke-width="1.5" stroke-linecap="round" stroke-linejoin="round"/>
<rect x="0.75" y="0.75" width="38.5" height="38.5" rx="19.25" stroke="#667C98" stroke-width="1.5"/>
</svg>
