<svg width="25" height="25" viewBox="0 0 25 25" fill="none" xmlns="http://www.w3.org/2000/svg">
<path d="M6.1711 8.25569C6.14512 8.24069 6.1278 8.23069 6.10182 8.21569C5.77175 7.96739 5.69694 7.49696 5.93658 7.16189C7.51541 4.96728 9.96883 3.57784 12.6677 3.32318C13.0822 3.28533 13.4492 3.58962 13.4871 4.00406C13.5249 4.41851 13.2206 4.78554 12.8062 4.82339C10.5404 5.02788 8.47615 6.20324 7.14696 8.04545C6.93098 8.35954 6.50019 8.44569 6.1711 8.25569Z" fill="#9648FF"/>
<path d="M8.84663 20.7591C7.56491 20.0191 6.51381 19.0197 5.70066 17.7881C5.47523 17.4386 5.57033 16.9738 5.91987 16.7484C6.26942 16.523 6.73413 16.6181 6.95956 16.9676C8.28517 18.9916 10.5268 20.3089 12.9398 20.4896C13.3502 20.5187 13.6599 20.8823 13.6308 21.2927C13.6017 21.7031 13.2381 22.0128 12.8277 21.9837C11.4092 21.8807 10.0764 21.4691 8.84663 20.7591Z" fill="#9648FF"/>
<path d="M15.9333 8.48754C14.2446 7.51254 13.6663 5.35422 14.6413 3.66547C15.6163 1.97672 17.7746 1.3984 19.4633 2.3734C21.1521 3.3484 21.7304 5.50672 20.7554 7.19547C19.7804 8.88422 17.6134 9.45754 15.9333 8.48754ZM18.7083 3.6811C17.7384 3.1211 16.4953 3.45418 15.9353 4.42413C15.3753 5.39408 15.7084 6.63716 16.6783 7.19716C17.6483 7.75716 18.8914 7.42408 19.4514 6.45413C20.0114 5.48418 19.6696 4.2361 18.7083 3.6811Z" fill="#9648FF"/>
<path d="M3.55832 15.4643C1.86957 14.4893 1.29125 12.331 2.26625 10.6423C3.23625 8.96218 5.39957 8.3752 7.08832 9.3502C8.77707 10.3252 9.35539 12.4835 8.38039 14.1723C7.41039 15.8524 5.24707 16.4393 3.55832 15.4643ZM6.33832 10.6492C5.36837 10.0892 4.12529 10.4223 3.56529 11.3923C3.00529 12.3622 3.33837 13.6053 4.30832 14.1653C5.27827 14.7253 6.52135 14.3922 7.08135 13.4223C7.64135 12.4523 7.30827 11.2092 6.33832 10.6492Z" fill="#9648FF"/>
<path d="M15.9763 22.6341C14.2875 21.6591 13.7092 19.5008 14.6842 17.8121C15.6542 16.132 17.8175 15.545 19.5063 16.52C21.195 17.495 21.7734 19.6533 20.7984 21.3421C19.8197 23.0172 17.6564 23.6041 15.9763 22.6341ZM18.7563 17.819C17.7863 17.259 16.5433 17.5921 15.9833 18.5621C15.4233 19.532 15.7563 20.7751 16.7263 21.3351C17.6962 21.8951 18.9393 21.562 19.4993 20.5921C20.0507 19.6171 19.7262 18.379 18.7563 17.819Z" fill="#9648FF"/>
</svg>
